<?xml version="1.0" encoding="UTF-8" standalone="no"?>
<!DOCTYPE svg PUBLIC "-//W3C//DTD SVG 1.1//EN"
 "http://www.w3.org/Graphics/SVG/1.1/DTD/svg11.dtd">
<!-- Generated by graphviz version 2.38.0 (20140413.2041)
 -->
<!-- Title: progs/Ant&#45;compareHists.cc Pages: 1 -->
<svg width="1516pt" height="196pt"
 viewBox="0.00 0.00 1516.00 196.00" xmlns="http://www.w3.org/2000/svg" xmlns:xlink="http://www.w3.org/1999/xlink">
<g id="graph0" class="graph" transform="scale(1 1) rotate(0) translate(4 192)">
<title>progs/Ant&#45;compareHists.cc</title>
<polygon fill="white" stroke="none" points="-4,4 -4,-192 1512,-192 1512,4 -4,4"/>
<!-- Node0 -->
<g id="node1" class="node"><title>Node0</title>
<polygon fill="#bfbfbf" stroke="black" points="344,-168.5 344,-187.5 491,-187.5 491,-168.5 344,-168.5"/>
<text text-anchor="middle" x="417.5" y="-175.5" font-family="Helvetica,sans-Serif" font-size="10.00">progs/Ant&#45;compareHists.cc</text>
</g>
<!-- Node1 -->
<g id="node2" class="node"><title>Node1</title>
<g id="a_node2"><a xlink:href="_logger_8h.html" target="_top" xlink:title="base/Logger.h">
<polygon fill="white" stroke="black" points="7.5,-112.5 7.5,-131.5 91.5,-131.5 91.5,-112.5 7.5,-112.5"/>
<text text-anchor="middle" x="49.5" y="-119.5" font-family="Helvetica,sans-Serif" font-size="10.00">base/Logger.h</text>
</a>
</g>
</g>
<!-- Node0&#45;&gt;Node1 -->
<g id="edge1" class="edge"><title>Node0&#45;&gt;Node1</title>
<path fill="none" stroke="midnightblue" d="M353.048,-168.498C291.121,-160.181 194.655,-146.843 101.394,-132.099"/>
<polygon fill="midnightblue" stroke="midnightblue" points="101.931,-128.64 91.5059,-130.528 100.833,-135.554 101.931,-128.64"/>
</g>
<!-- Node3 -->
<g id="node4" class="node"><title>Node3</title>
<polygon fill="white" stroke="#bfbfbf" points="109.5,-112.5 109.5,-131.5 203.5,-131.5 203.5,-112.5 109.5,-112.5"/>
<text text-anchor="middle" x="156.5" y="-119.5" font-family="Helvetica,sans-Serif" font-size="10.00">tclap/CmdLine.h</text>
</g>
<!-- Node0&#45;&gt;Node3 -->
<g id="edge3" class="edge"><title>Node0&#45;&gt;Node3</title>
<path fill="none" stroke="midnightblue" d="M376.144,-168.444C330.422,-158.984 256.736,-143.738 207.478,-133.547"/>
<polygon fill="midnightblue" stroke="midnightblue" points="208.164,-130.115 197.663,-131.516 206.746,-136.97 208.164,-130.115"/>
</g>
<!-- Node4 -->
<g id="node5" class="node"><title>Node4</title>
<g id="a_node5"><a xlink:href="_wrap_t_file_8h.html" target="_top" xlink:title="base/WrapTFile.h">
<polygon fill="white" stroke="black" points="756,-112.5 756,-131.5 851,-131.5 851,-112.5 756,-112.5"/>
<text text-anchor="middle" x="803.5" y="-119.5" font-family="Helvetica,sans-Serif" font-size="10.00">base/WrapTFile.h</text>
</a>
</g>
</g>
<!-- Node0&#45;&gt;Node4 -->
<g id="edge4" class="edge"><title>Node0&#45;&gt;Node4</title>
<path fill="none" stroke="midnightblue" d="M478.663,-168.444C551.909,-158.197 673.682,-141.161 745.497,-131.114"/>
<polygon fill="midnightblue" stroke="midnightblue" points="746.3,-134.536 755.719,-129.684 745.33,-127.604 746.3,-134.536"/>
</g>
<!-- Node7 -->
<g id="node8" class="node"><title>Node7</title>
<polygon fill="white" stroke="#bfbfbf" points="830.5,-0.5 830.5,-19.5 886.5,-19.5 886.5,-0.5 830.5,-0.5"/>
<text text-anchor="middle" x="858.5" y="-7.5" font-family="Helvetica,sans-Serif" font-size="10.00">sstream</text>
</g>
<!-- Node0&#45;&gt;Node7 -->
<g id="edge34" class="edge"><title>Node0&#45;&gt;Node7</title>
<path fill="none" stroke="midnightblue" d="M416.965,-168.41C415.705,-154.925 411.496,-128.616 397.5,-112 371.609,-81.2616 299.306,-85.5918 326.5,-56 334.871,-46.8907 699.487,-21.6644 820.166,-13.5497"/>
<polygon fill="midnightblue" stroke="midnightblue" points="820.666,-17.0241 830.409,-12.8627 820.197,-10.0398 820.666,-17.0241"/>
</g>
<!-- Node9 -->
<g id="node10" class="node"><title>Node9</title>
<polygon fill="white" stroke="#bfbfbf" points="1319,-0.5 1319,-19.5 1366,-19.5 1366,-0.5 1319,-0.5"/>
<text text-anchor="middle" x="1342.5" y="-7.5" font-family="Helvetica,sans-Serif" font-size="10.00">vector</text>
</g>
<!-- Node0&#45;&gt;Node9 -->
<g id="edge35" class="edge"><title>Node0&#45;&gt;Node9</title>
<path fill="none" stroke="midnightblue" d="M491.184,-173.127C694.52,-161.834 1252.77,-126.511 1317.5,-76 1331.63,-64.9752 1337.78,-44.9275 1340.45,-30.0008"/>
<polygon fill="midnightblue" stroke="midnightblue" points="1343.96,-30.2106 1341.89,-19.8187 1337.02,-29.2294 1343.96,-30.2106"/>
</g>
<!-- Node15 -->
<g id="node16" class="node"><title>Node15</title>
<polygon fill="white" stroke="#bfbfbf" points="268,-0.5 268,-19.5 325,-19.5 325,-0.5 268,-0.5"/>
<text text-anchor="middle" x="296.5" y="-7.5" font-family="Helvetica,sans-Serif" font-size="10.00">memory</text>
</g>
<!-- Node0&#45;&gt;Node15 -->
<g id="edge36" class="edge"><title>Node0&#45;&gt;Node15</title>
<path fill="none" stroke="midnightblue" d="M356.684,-168.475C314.49,-161.17 263.603,-149.102 250.5,-132 225.571,-99.4642 259.51,-51.8727 281.091,-27.1918"/>
<polygon fill="midnightblue" stroke="midnightblue" points="283.71,-29.5143 287.834,-19.7549 278.524,-24.8127 283.71,-29.5143"/>
</g>
<!-- Node25 -->
<g id="node26" class="node"><title>Node25</title>
<g id="a_node26"><a xlink:href="memory_8h.html" target="_top" xlink:title="base/std_ext/memory.h">
<polygon fill="white" stroke="black" points="260,-112.5 260,-131.5 389,-131.5 389,-112.5 260,-112.5"/>
<text text-anchor="middle" x="324.5" y="-119.5" font-family="Helvetica,sans-Serif" font-size="10.00">base/std_ext/memory.h</text>
</a>
</g>
</g>
<!-- Node0&#45;&gt;Node25 -->
<g id="edge29" class="edge"><title>Node0&#45;&gt;Node25</title>
<path fill="none" stroke="midnightblue" d="M402.558,-168.324C387.915,-159.822 365.366,-146.729 348.262,-136.797"/>
<polygon fill="midnightblue" stroke="midnightblue" points="349.81,-133.649 339.405,-131.655 346.295,-139.703 349.81,-133.649"/>
</g>
<!-- Node26 -->
<g id="node27" class="node"><title>Node26</title>
<polygon fill="white" stroke="#bfbfbf" points="1386.5,-112.5 1386.5,-131.5 1430.5,-131.5 1430.5,-112.5 1386.5,-112.5"/>
<text text-anchor="middle" x="1408.5" y="-119.5" font-family="Helvetica,sans-Serif" font-size="10.00">TH1.h</text>
</g>
<!-- Node0&#45;&gt;Node26 -->
<g id="edge32" class="edge"><title>Node0&#45;&gt;Node26</title>
<path fill="none" stroke="midnightblue" d="M491.088,-175.417C684.288,-170.958 1202.74,-156.968 1372.5,-132 1373.75,-131.815 1375.03,-131.606 1376.31,-131.377"/>
<polygon fill="midnightblue" stroke="midnightblue" points="1377.1,-134.788 1386.17,-129.31 1375.66,-127.937 1377.1,-134.788"/>
</g>
<!-- Node27 -->
<g id="node28" class="node"><title>Node27</title>
<polygon fill="white" stroke="#bfbfbf" points="1449,-112.5 1449,-131.5 1508,-131.5 1508,-112.5 1449,-112.5"/>
<text text-anchor="middle" x="1478.5" y="-119.5" font-family="Helvetica,sans-Serif" font-size="10.00">iostream</text>
</g>
<!-- Node0&#45;&gt;Node27 -->
<g id="edge33" class="edge"><title>Node0&#45;&gt;Node27</title>
<path fill="none" stroke="midnightblue" d="M491.05,-175.509C690.034,-171.2 1236.92,-157.473 1438.59,-131.795"/>
<polygon fill="midnightblue" stroke="midnightblue" points="1439.34,-135.227 1448.79,-130.445 1438.42,-128.287 1439.34,-135.227"/>
</g>
<!-- Node2 -->
<g id="node3" class="node"><title>Node2</title>
<polygon fill="white" stroke="#bfbfbf" points="0,-56.5 0,-75.5 99,-75.5 99,-56.5 0,-56.5"/>
<text text-anchor="middle" x="49.5" y="-63.5" font-family="Helvetica,sans-Serif" font-size="10.00">easylogging++.h</text>
</g>
<!-- Node1&#45;&gt;Node2 -->
<g id="edge2" class="edge"><title>Node1&#45;&gt;Node2</title>
<path fill="none" stroke="midnightblue" d="M49.5,-112.083C49.5,-105.006 49.5,-94.8611 49.5,-85.9865"/>
<polygon fill="midnightblue" stroke="midnightblue" points="53.0001,-85.751 49.5,-75.7511 46.0001,-85.7511 53.0001,-85.751"/>
</g>
<!-- Node5 -->
<g id="node6" class="node"><title>Node5</title>
<g id="a_node6"><a xlink:href="string_8h.html" target="_top" xlink:title="base/std_ext/string.h">
<polygon fill="white" stroke="black" points="1175,-56.5 1175,-75.5 1292,-75.5 1292,-56.5 1175,-56.5"/>
<text text-anchor="middle" x="1233.5" y="-63.5" font-family="Helvetica,sans-Serif" font-size="10.00">base/std_ext/string.h</text>
</a>
</g>
</g>
<!-- Node4&#45;&gt;Node5 -->
<g id="edge5" class="edge"><title>Node4&#45;&gt;Node5</title>
<path fill="none" stroke="midnightblue" d="M851.16,-115.015C927.302,-105.453 1076.72,-86.6883 1164.53,-75.6614"/>
<polygon fill="midnightblue" stroke="midnightblue" points="1165.18,-79.1079 1174.66,-74.3891 1164.3,-72.1625 1165.18,-79.1079"/>
</g>
<!-- Node6 -->
<g id="node7" class="node"><title>Node6</title>
<polygon fill="white" stroke="#bfbfbf" points="1226.5,-0.5 1226.5,-19.5 1270.5,-19.5 1270.5,-0.5 1226.5,-0.5"/>
<text text-anchor="middle" x="1248.5" y="-7.5" font-family="Helvetica,sans-Serif" font-size="10.00">string</text>
</g>
<!-- Node4&#45;&gt;Node6 -->
<g id="edge24" class="edge"><title>Node4&#45;&gt;Node6</title>
<path fill="none" stroke="midnightblue" d="M851.25,-120.257C969.866,-117.918 1270.55,-108.782 1300.5,-76 1315.78,-59.2705 1292.84,-38.65 1272.76,-25.1809"/>
<polygon fill="midnightblue" stroke="midnightblue" points="1274.48,-22.1282 1264.17,-19.7069 1270.72,-28.0319 1274.48,-22.1282"/>
</g>
<!-- Node10 -->
<g id="node11" class="node"><title>Node10</title>
<g id="a_node11"><a xlink:href="misc_8h.html" target="_top" xlink:title="base/std_ext/misc.h">
<polygon fill="white" stroke="black" points="422,-56.5 422,-75.5 535,-75.5 535,-56.5 422,-56.5"/>
<text text-anchor="middle" x="478.5" y="-63.5" font-family="Helvetica,sans-Serif" font-size="10.00">base/std_ext/misc.h</text>
</a>
</g>
</g>
<!-- Node4&#45;&gt;Node10 -->
<g id="edge10" class="edge"><title>Node4&#45;&gt;Node10</title>
<path fill="none" stroke="midnightblue" d="M755.894,-113.09C698.692,-103.586 602.6,-87.6197 539.874,-77.1976"/>
<polygon fill="midnightblue" stroke="midnightblue" points="540.159,-73.697 529.721,-75.5106 539.012,-80.6024 540.159,-73.697"/>
</g>
<!-- Node11 -->
<g id="node12" class="node"><title>Node11</title>
<polygon fill="white" stroke="#bfbfbf" points="647,-0.5 647,-19.5 710,-19.5 710,-0.5 647,-0.5"/>
<text text-anchor="middle" x="678.5" y="-7.5" font-family="Helvetica,sans-Serif" font-size="10.00">functional</text>
</g>
<!-- Node4&#45;&gt;Node11 -->
<g id="edge28" class="edge"><title>Node4&#45;&gt;Node11</title>
<path fill="none" stroke="midnightblue" d="M851.22,-121.683C932.454,-121.713 1092.26,-116.474 1127.5,-76 1133.34,-69.2962 1133.46,-62.5913 1127.5,-56 1113.91,-40.9786 829.108,-20.8506 720.275,-13.6771"/>
<polygon fill="midnightblue" stroke="midnightblue" points="720.213,-10.1655 710.005,-13.0042 719.755,-17.1506 720.213,-10.1655"/>
</g>
<!-- Node4&#45;&gt;Node15 -->
<g id="edge23" class="edge"><title>Node4&#45;&gt;Node15</title>
<path fill="none" stroke="midnightblue" d="M755.89,-121.497C680.971,-120.966 531.806,-114.568 412.5,-76 407.602,-74.4166 353.202,-43.477 320.669,-24.8631"/>
<polygon fill="midnightblue" stroke="midnightblue" points="322.16,-21.6835 311.742,-19.7513 318.681,-27.758 322.16,-21.6835"/>
</g>
<!-- Node16 -->
<g id="node17" class="node"><title>Node16</title>
<polygon fill="white" stroke="#bfbfbf" points="553.5,-56.5 553.5,-75.5 599.5,-75.5 599.5,-56.5 553.5,-56.5"/>
<text text-anchor="middle" x="576.5" y="-63.5" font-family="Helvetica,sans-Serif" font-size="10.00">TFile.h</text>
</g>
<!-- Node4&#45;&gt;Node16 -->
<g id="edge17" class="edge"><title>Node4&#45;&gt;Node16</title>
<path fill="none" stroke="midnightblue" d="M764.15,-112.493C726.754,-104.281 668.713,-91.207 609.444,-76.152"/>
<polygon fill="midnightblue" stroke="midnightblue" points="610.092,-72.7053 599.537,-73.6198 608.359,-79.4873 610.092,-72.7053"/>
</g>
<!-- Node17 -->
<g id="node18" class="node"><title>Node17</title>
<polygon fill="white" stroke="#bfbfbf" points="618,-56.5 618,-75.5 691,-75.5 691,-56.5 618,-56.5"/>
<text text-anchor="middle" x="654.5" y="-63.5" font-family="Helvetica,sans-Serif" font-size="10.00">TDirectory.h</text>
</g>
<!-- Node4&#45;&gt;Node17 -->
<g id="edge18" class="edge"><title>Node4&#45;&gt;Node17</title>
<path fill="none" stroke="midnightblue" d="M779.891,-112.444C755.042,-103.438 715.726,-89.1891 687.746,-79.049"/>
<polygon fill="midnightblue" stroke="midnightblue" points="688.593,-75.6332 677.999,-75.5164 686.208,-82.2144 688.593,-75.6332"/>
</g>
<!-- Node18 -->
<g id="node19" class="node"><title>Node18</title>
<polygon fill="white" stroke="#bfbfbf" points="709,-56.5 709,-75.5 762,-75.5 762,-56.5 709,-56.5"/>
<text text-anchor="middle" x="735.5" y="-63.5" font-family="Helvetica,sans-Serif" font-size="10.00">TError.h</text>
</g>
<!-- Node4&#45;&gt;Node18 -->
<g id="edge19" class="edge"><title>Node4&#45;&gt;Node18</title>
<path fill="none" stroke="midnightblue" d="M792.575,-112.324C782.325,-104.185 766.779,-91.8395 754.499,-82.0874"/>
<polygon fill="midnightblue" stroke="midnightblue" points="756.632,-79.3119 746.624,-75.8339 752.279,-84.7937 756.632,-79.3119"/>
</g>
<!-- Node19 -->
<g id="node20" class="node"><title>Node19</title>
<polygon fill="white" stroke="#bfbfbf" points="780,-56.5 780,-75.5 827,-75.5 827,-56.5 780,-56.5"/>
<text text-anchor="middle" x="803.5" y="-63.5" font-family="Helvetica,sans-Serif" font-size="10.00">TList.h</text>
</g>
<!-- Node4&#45;&gt;Node19 -->
<g id="edge20" class="edge"><title>Node4&#45;&gt;Node19</title>
<path fill="none" stroke="midnightblue" d="M803.5,-112.083C803.5,-105.006 803.5,-94.8611 803.5,-85.9865"/>
<polygon fill="midnightblue" stroke="midnightblue" points="807,-85.751 803.5,-75.7511 800,-85.7511 807,-85.751"/>
</g>
<!-- Node20 -->
<g id="node21" class="node"><title>Node20</title>
<polygon fill="white" stroke="#bfbfbf" points="845,-56.5 845,-75.5 922,-75.5 922,-56.5 845,-56.5"/>
<text text-anchor="middle" x="883.5" y="-63.5" font-family="Helvetica,sans-Serif" font-size="10.00">TCollection.h</text>
</g>
<!-- Node4&#45;&gt;Node20 -->
<g id="edge21" class="edge"><title>Node4&#45;&gt;Node20</title>
<path fill="none" stroke="midnightblue" d="M816.353,-112.324C828.716,-103.979 847.63,-91.2122 862.237,-81.3524"/>
<polygon fill="midnightblue" stroke="midnightblue" points="864.348,-84.1503 870.679,-75.6545 860.432,-78.3483 864.348,-84.1503"/>
</g>
<!-- Node21 -->
<g id="node22" class="node"><title>Node21</title>
<polygon fill="white" stroke="#bfbfbf" points="940.5,-56.5 940.5,-75.5 986.5,-75.5 986.5,-56.5 940.5,-56.5"/>
<text text-anchor="middle" x="963.5" y="-63.5" font-family="Helvetica,sans-Serif" font-size="10.00">TKey.h</text>
</g>
<!-- Node4&#45;&gt;Node21 -->
<g id="edge22" class="edge"><title>Node4&#45;&gt;Node21</title>
<path fill="none" stroke="midnightblue" d="M828.852,-112.444C856.403,-103.145 900.516,-88.2572 930.69,-78.0735"/>
<polygon fill="midnightblue" stroke="midnightblue" points="931.988,-81.3292 940.344,-74.8151 929.75,-74.6967 931.988,-81.3292"/>
</g>
<!-- Node22 -->
<g id="node23" class="node"><title>Node22</title>
<polygon fill="white" stroke="#bfbfbf" points="335.5,-56.5 335.5,-75.5 365.5,-75.5 365.5,-56.5 335.5,-56.5"/>
<text text-anchor="middle" x="350.5" y="-63.5" font-family="Helvetica,sans-Serif" font-size="10.00">list</text>
</g>
<!-- Node4&#45;&gt;Node22 -->
<g id="edge25" class="edge"><title>Node4&#45;&gt;Node22</title>
<path fill="none" stroke="midnightblue" d="M755.979,-118.983C677.072,-114.96 514.349,-103.803 379.5,-76 378.222,-75.7365 376.92,-75.4399 375.611,-75.119"/>
<polygon fill="midnightblue" stroke="midnightblue" points="376.28,-71.6712 365.706,-72.3304 374.383,-78.4093 376.28,-71.6712"/>
</g>
<!-- Node23 -->
<g id="node24" class="node"><title>Node23</title>
<polygon fill="white" stroke="#bfbfbf" points="1004.5,-56.5 1004.5,-75.5 1036.5,-75.5 1036.5,-56.5 1004.5,-56.5"/>
<text text-anchor="middle" x="1020.5" y="-63.5" font-family="Helvetica,sans-Serif" font-size="10.00">set</text>
</g>
<!-- Node4&#45;&gt;Node23 -->
<g id="edge26" class="edge"><title>Node4&#45;&gt;Node23</title>
<path fill="none" stroke="midnightblue" d="M846.195,-112.47C883.208,-104.746 938.342,-92.4558 994.668,-75.9857"/>
<polygon fill="midnightblue" stroke="midnightblue" points="995.859,-79.2831 1004.45,-73.0853 993.87,-72.5718 995.859,-79.2831"/>
</g>
<!-- Node24 -->
<g id="node25" class="node"><title>Node24</title>
<polygon fill="white" stroke="#bfbfbf" points="1054.5,-56.5 1054.5,-75.5 1118.5,-75.5 1118.5,-56.5 1054.5,-56.5"/>
<text text-anchor="middle" x="1086.5" y="-63.5" font-family="Helvetica,sans-Serif" font-size="10.00">stdexcept</text>
</g>
<!-- Node4&#45;&gt;Node24 -->
<g id="edge27" class="edge"><title>Node4&#45;&gt;Node24</title>
<path fill="none" stroke="midnightblue" d="M851.342,-112.573C898.123,-104.228 971.625,-90.8368 1044.48,-76.1575"/>
<polygon fill="midnightblue" stroke="midnightblue" points="1045.18,-79.5868 1054.29,-74.1728 1043.8,-72.7259 1045.18,-79.5868"/>
</g>
<!-- Node5&#45;&gt;Node6 -->
<g id="edge6" class="edge"><title>Node5&#45;&gt;Node6</title>
<path fill="none" stroke="midnightblue" d="M1235.98,-56.083C1237.99,-48.8486 1240.89,-38.4087 1243.39,-29.3968"/>
<polygon fill="midnightblue" stroke="midnightblue" points="1246.76,-30.323 1246.07,-19.7511 1240.02,-28.4495 1246.76,-30.323"/>
</g>
<!-- Node5&#45;&gt;Node7 -->
<g id="edge7" class="edge"><title>Node5&#45;&gt;Node7</title>
<path fill="none" stroke="midnightblue" d="M1174.91,-56.5625C1097.28,-45.3843 962.519,-25.9787 896.779,-16.5121"/>
<polygon fill="midnightblue" stroke="midnightblue" points="897.236,-13.042 886.84,-15.0809 896.239,-19.9706 897.236,-13.042"/>
</g>
<!-- Node8 -->
<g id="node9" class="node"><title>Node8</title>
<polygon fill="white" stroke="#bfbfbf" points="956.5,-0.5 956.5,-19.5 1018.5,-19.5 1018.5,-0.5 956.5,-0.5"/>
<text text-anchor="middle" x="987.5" y="-7.5" font-family="Helvetica,sans-Serif" font-size="10.00">algorithm</text>
</g>
<!-- Node5&#45;&gt;Node8 -->
<g id="edge8" class="edge"><title>Node5&#45;&gt;Node8</title>
<path fill="none" stroke="midnightblue" d="M1194.52,-56.4435C1149.18,-46.4902 1074.65,-30.1313 1028.47,-19.9944"/>
<polygon fill="midnightblue" stroke="midnightblue" points="1029.03,-16.5322 1018.51,-17.8067 1027.53,-23.3694 1029.03,-16.5322"/>
</g>
<!-- Node5&#45;&gt;Node9 -->
<g id="edge9" class="edge"><title>Node5&#45;&gt;Node9</title>
<path fill="none" stroke="midnightblue" d="M1251.01,-56.324C1268.57,-47.6247 1295.83,-34.1202 1316.03,-24.113"/>
<polygon fill="midnightblue" stroke="midnightblue" points="1317.62,-27.23 1325.03,-19.6545 1314.52,-20.9575 1317.62,-27.23"/>
</g>
<!-- Node10&#45;&gt;Node8 -->
<g id="edge11" class="edge"><title>Node10&#45;&gt;Node8</title>
<path fill="none" stroke="midnightblue" d="M535.009,-57.1645C538.219,-56.7599 541.399,-56.3688 544.5,-56 583.834,-51.3217 844.15,-25.2893 946.386,-15.095"/>
<polygon fill="midnightblue" stroke="midnightblue" points="946.741,-18.577 956.344,-14.1022 946.046,-11.6116 946.741,-18.577"/>
</g>
<!-- Node10&#45;&gt;Node11 -->
<g id="edge12" class="edge"><title>Node10&#45;&gt;Node11</title>
<path fill="none" stroke="midnightblue" d="M510.191,-56.4435C544.568,-47.1616 599.577,-32.3093 637.289,-22.127"/>
<polygon fill="midnightblue" stroke="midnightblue" points="638.216,-25.5022 646.958,-19.5164 636.391,-18.7442 638.216,-25.5022"/>
</g>
<!-- Node12 -->
<g id="node13" class="node"><title>Node12</title>
<polygon fill="white" stroke="#bfbfbf" points="531,-0.5 531,-19.5 578,-19.5 578,-0.5 531,-0.5"/>
<text text-anchor="middle" x="554.5" y="-7.5" font-family="Helvetica,sans-Serif" font-size="10.00">cmath</text>
</g>
<!-- Node10&#45;&gt;Node12 -->
<g id="edge13" class="edge"><title>Node10&#45;&gt;Node12</title>
<path fill="none" stroke="midnightblue" d="M490.711,-56.324C502.276,-48.1066 519.875,-35.6017 533.661,-25.8069"/>
<polygon fill="midnightblue" stroke="midnightblue" points="535.943,-28.4791 542.067,-19.8339 531.888,-22.7729 535.943,-28.4791"/>
</g>
<!-- Node13 -->
<g id="node14" class="node"><title>Node13</title>
<polygon fill="white" stroke="#bfbfbf" points="370.5,-0.5 370.5,-19.5 426.5,-19.5 426.5,-0.5 370.5,-0.5"/>
<text text-anchor="middle" x="398.5" y="-7.5" font-family="Helvetica,sans-Serif" font-size="10.00">cxxabi.h</text>
</g>
<!-- Node10&#45;&gt;Node13 -->
<g id="edge14" class="edge"><title>Node10&#45;&gt;Node13</title>
<path fill="none" stroke="midnightblue" d="M465.647,-56.324C453.284,-47.979 434.37,-35.2122 419.763,-25.3524"/>
<polygon fill="midnightblue" stroke="midnightblue" points="421.568,-22.3483 411.321,-19.6545 417.652,-28.1503 421.568,-22.3483"/>
</g>
<!-- Node14 -->
<g id="node15" class="node"><title>Node14</title>
<polygon fill="white" stroke="#bfbfbf" points="444.5,-0.5 444.5,-19.5 512.5,-19.5 512.5,-0.5 444.5,-0.5"/>
<text text-anchor="middle" x="478.5" y="-7.5" font-family="Helvetica,sans-Serif" font-size="10.00">type_traits</text>
</g>
<!-- Node10&#45;&gt;Node14 -->
<g id="edge15" class="edge"><title>Node10&#45;&gt;Node14</title>
<path fill="none" stroke="midnightblue" d="M478.5,-56.083C478.5,-49.0059 478.5,-38.8611 478.5,-29.9865"/>
<polygon fill="midnightblue" stroke="midnightblue" points="482,-29.751 478.5,-19.7511 475,-29.7511 482,-29.751"/>
</g>
<!-- Node10&#45;&gt;Node15 -->
<g id="edge16" class="edge"><title>Node10&#45;&gt;Node15</title>
<path fill="none" stroke="midnightblue" d="M449.662,-56.4435C418.644,-47.2406 369.171,-32.5617 334.882,-22.3879"/>
<polygon fill="midnightblue" stroke="midnightblue" points="335.786,-19.0055 325.204,-19.5164 333.795,-25.7164 335.786,-19.0055"/>
</g>
<!-- Node25&#45;&gt;Node15 -->
<g id="edge30" class="edge"><title>Node25&#45;&gt;Node15</title>
<path fill="none" stroke="midnightblue" d="M316.017,-112.234C308.446,-103.75 297.896,-90.1314 293.5,-76 288.828,-60.9828 290.125,-43.0756 292.28,-29.8631"/>
<polygon fill="midnightblue" stroke="midnightblue" points="295.793,-30.1355 294.267,-19.6511 288.921,-28.7987 295.793,-30.1355"/>
</g>
<!-- Node25&#45;&gt;Node22 -->
<g id="edge31" class="edge"><title>Node25&#45;&gt;Node22</title>
<path fill="none" stroke="midnightblue" d="M328.793,-112.083C332.352,-104.691 337.522,-93.9533 341.924,-84.8111"/>
<polygon fill="midnightblue" stroke="midnightblue" points="345.102,-86.2795 346.287,-75.7511 338.795,-83.2427 345.102,-86.2795"/>
</g>
</g>
</svg>
