<?xml version="1.0" encoding="UTF-8" standalone="no"?>
<!DOCTYPE svg PUBLIC "-//W3C//DTD SVG 1.1//EN"
 "http://www.w3.org/Graphics/SVG/1.1/DTD/svg11.dtd">
<!-- Generated by graphviz version 2.38.0 (20140413.2041)
 -->
<!-- Title: progs/Ant&#45;calib&#45;regedit.cc Pages: 1 -->
<svg width="1780pt" height="308pt"
 viewBox="0.00 0.00 1780.00 308.00" xmlns="http://www.w3.org/2000/svg" xmlns:xlink="http://www.w3.org/1999/xlink">
<g id="graph0" class="graph" transform="scale(1 1) rotate(0) translate(4 304)">
<title>progs/Ant&#45;calib&#45;regedit.cc</title>
<polygon fill="white" stroke="none" points="-4,4 -4,-304 1776,-304 1776,4 -4,4"/>
<!-- Node0 -->
<g id="node1" class="node"><title>Node0</title>
<polygon fill="#bfbfbf" stroke="black" points="823.5,-280.5 823.5,-299.5 963.5,-299.5 963.5,-280.5 823.5,-280.5"/>
<text text-anchor="middle" x="893.5" y="-287.5" font-family="Helvetica,sans-Serif" font-size="10.00">progs/Ant&#45;calib&#45;regedit.cc</text>
</g>
<!-- Node1 -->
<g id="node2" class="node"><title>Node1</title>
<g id="a_node2"><a xlink:href="_logger_8h.html" target="_top" xlink:title="base/Logger.h">
<polygon fill="white" stroke="black" points="149.5,-224.5 149.5,-243.5 233.5,-243.5 233.5,-224.5 149.5,-224.5"/>
<text text-anchor="middle" x="191.5" y="-231.5" font-family="Helvetica,sans-Serif" font-size="10.00">base/Logger.h</text>
</a>
</g>
</g>
<!-- Node0&#45;&gt;Node1 -->
<g id="edge1" class="edge"><title>Node0&#45;&gt;Node1</title>
<path fill="none" stroke="midnightblue" d="M823.3,-283.6C682.457,-272.766 368.272,-248.598 243.769,-239.021"/>
<polygon fill="midnightblue" stroke="midnightblue" points="243.966,-235.526 233.727,-238.248 243.429,-242.505 243.966,-235.526"/>
</g>
<!-- Node3 -->
<g id="node4" class="node"><title>Node3</title>
<polygon fill="white" stroke="#bfbfbf" points="330.5,-224.5 330.5,-243.5 424.5,-243.5 424.5,-224.5 330.5,-224.5"/>
<text text-anchor="middle" x="377.5" y="-231.5" font-family="Helvetica,sans-Serif" font-size="10.00">tclap/CmdLine.h</text>
</g>
<!-- Node0&#45;&gt;Node3 -->
<g id="edge3" class="edge"><title>Node0&#45;&gt;Node3</title>
<path fill="none" stroke="midnightblue" d="M823.209,-283.483C734.965,-276.253 578.715,-262.447 434.858,-244.102"/>
<polygon fill="midnightblue" stroke="midnightblue" points="434.888,-240.577 424.523,-242.774 433.995,-247.52 434.888,-240.577"/>
</g>
<!-- Node4 -->
<g id="node5" class="node"><title>Node4</title>
<g id="a_node5"><a xlink:href="system_8h.html" target="_top" xlink:title="base/std_ext/system.h">
<polygon fill="white" stroke="black" points="831,-168.5 831,-187.5 956,-187.5 956,-168.5 831,-168.5"/>
<text text-anchor="middle" x="893.5" y="-175.5" font-family="Helvetica,sans-Serif" font-size="10.00">base/std_ext/system.h</text>
</a>
</g>
</g>
<!-- Node0&#45;&gt;Node4 -->
<g id="edge4" class="edge"><title>Node0&#45;&gt;Node4</title>
<path fill="none" stroke="midnightblue" d="M893.5,-280.368C893.5,-262.617 893.5,-221.666 893.5,-197.597"/>
<polygon fill="midnightblue" stroke="midnightblue" points="897,-197.591 893.5,-187.591 890,-197.591 897,-197.591"/>
</g>
<!-- Node7 -->
<g id="node8" class="node"><title>Node7</title>
<g id="a_node8"><a xlink:href="string_8h.html" target="_top" xlink:title="base/std_ext/string.h">
<polygon fill="white" stroke="black" points="969,-56.5 969,-75.5 1086,-75.5 1086,-56.5 969,-56.5"/>
<text text-anchor="middle" x="1027.5" y="-63.5" font-family="Helvetica,sans-Serif" font-size="10.00">base/std_ext/string.h</text>
</a>
</g>
</g>
<!-- Node0&#45;&gt;Node7 -->
<g id="edge7" class="edge"><title>Node0&#45;&gt;Node7</title>
<path fill="none" stroke="midnightblue" d="M900.174,-280.349C913.261,-263.211 942.894,-223.528 964.5,-188 986.047,-152.569 1007.59,-109.002 1019.06,-85.0026"/>
<polygon fill="midnightblue" stroke="midnightblue" points="1022.33,-86.2589 1023.45,-75.7232 1016.01,-83.2624 1022.33,-86.2589"/>
</g>
<!-- Node11 -->
<g id="node12" class="node"><title>Node11</title>
<g id="a_node12"><a xlink:href="_wrap_t_file_8h.html" target="_top" xlink:title="base/WrapTFile.h">
<polygon fill="white" stroke="black" points="1185,-168.5 1185,-187.5 1280,-187.5 1280,-168.5 1185,-168.5"/>
<text text-anchor="middle" x="1232.5" y="-175.5" font-family="Helvetica,sans-Serif" font-size="10.00">base/WrapTFile.h</text>
</a>
</g>
</g>
<!-- Node0&#45;&gt;Node11 -->
<g id="edge12" class="edge"><title>Node0&#45;&gt;Node11</title>
<path fill="none" stroke="midnightblue" d="M914.103,-280.389C935.332,-271.465 969.346,-257.024 998.5,-244 1017.74,-235.403 1021.58,-230.897 1041.5,-224 1085.24,-208.855 1136.34,-197.111 1174.68,-189.423"/>
<polygon fill="midnightblue" stroke="midnightblue" points="1175.51,-192.828 1184.64,-187.46 1174.15,-185.961 1175.51,-192.828"/>
</g>
<!-- Node26 -->
<g id="node27" class="node"><title>Node26</title>
<g id="a_node27"><a xlink:href="_t_calibration_data_8h.html" target="_top" xlink:title="tree/TCalibrationData.h">
<polygon fill="white" stroke="black" points="443,-224.5 443,-243.5 570,-243.5 570,-224.5 443,-224.5"/>
<text text-anchor="middle" x="506.5" y="-231.5" font-family="Helvetica,sans-Serif" font-size="10.00">tree/TCalibrationData.h</text>
</a>
</g>
</g>
<!-- Node0&#45;&gt;Node26 -->
<g id="edge33" class="edge"><title>Node0&#45;&gt;Node26</title>
<path fill="none" stroke="midnightblue" d="M832.179,-280.444C762.969,-270.786 650.545,-255.099 577.562,-244.916"/>
<polygon fill="midnightblue" stroke="midnightblue" points="577.922,-241.432 567.534,-243.516 576.955,-248.365 577.922,-241.432"/>
</g>
<!-- Node36 -->
<g id="node37" class="node"><title>Node36</title>
<g id="a_node37"><a xlink:href="_t_ant_header_8h.html" target="_top" xlink:title="tree/TAntHeader.h">
<polygon fill="white" stroke="black" points="697.5,-224.5 697.5,-243.5 801.5,-243.5 801.5,-224.5 697.5,-224.5"/>
<text text-anchor="middle" x="749.5" y="-231.5" font-family="Helvetica,sans-Serif" font-size="10.00">tree/TAntHeader.h</text>
</a>
</g>
</g>
<!-- Node0&#45;&gt;Node36 -->
<g id="edge51" class="edge"><title>Node0&#45;&gt;Node36</title>
<path fill="none" stroke="midnightblue" d="M870.683,-280.444C846.668,-271.438 808.671,-257.189 781.631,-247.049"/>
<polygon fill="midnightblue" stroke="midnightblue" points="782.803,-243.751 772.21,-243.516 780.345,-250.305 782.803,-243.751"/>
</g>
<!-- Node38 -->
<g id="node39" class="node"><title>Node38</title>
<polygon fill="white" stroke="#bfbfbf" points="1050.5,-224.5 1050.5,-243.5 1100.5,-243.5 1100.5,-224.5 1050.5,-224.5"/>
<text text-anchor="middle" x="1075.5" y="-231.5" font-family="Helvetica,sans-Serif" font-size="10.00">TTree.h</text>
</g>
<!-- Node0&#45;&gt;Node38 -->
<g id="edge55" class="edge"><title>Node0&#45;&gt;Node38</title>
<path fill="none" stroke="midnightblue" d="M922.338,-280.444C954.45,-270.916 1006.34,-255.519 1040.69,-245.328"/>
<polygon fill="midnightblue" stroke="midnightblue" points="1041.72,-248.673 1050.31,-242.473 1039.73,-241.962 1041.72,-248.673"/>
</g>
<!-- Node39 -->
<g id="node40" class="node"><title>Node39</title>
<polygon fill="white" stroke="#bfbfbf" points="1119,-224.5 1119,-243.5 1178,-243.5 1178,-224.5 1119,-224.5"/>
<text text-anchor="middle" x="1148.5" y="-231.5" font-family="Helvetica,sans-Serif" font-size="10.00">iostream</text>
</g>
<!-- Node0&#45;&gt;Node39 -->
<g id="edge56" class="edge"><title>Node0&#45;&gt;Node39</title>
<path fill="none" stroke="midnightblue" d="M935.774,-280.471C977.232,-272.045 1042.5,-258.616 1108.53,-244.176"/>
<polygon fill="midnightblue" stroke="midnightblue" points="1109.69,-247.506 1118.7,-241.945 1108.19,-240.669 1109.69,-247.506"/>
</g>
<!-- Node2 -->
<g id="node3" class="node"><title>Node2</title>
<polygon fill="white" stroke="#bfbfbf" points="0,-168.5 0,-187.5 99,-187.5 99,-168.5 0,-168.5"/>
<text text-anchor="middle" x="49.5" y="-175.5" font-family="Helvetica,sans-Serif" font-size="10.00">easylogging++.h</text>
</g>
<!-- Node1&#45;&gt;Node2 -->
<g id="edge2" class="edge"><title>Node1&#45;&gt;Node2</title>
<path fill="none" stroke="midnightblue" d="M169,-224.444C145.423,-215.478 108.178,-201.314 81.536,-191.183"/>
<polygon fill="midnightblue" stroke="midnightblue" points="82.4861,-187.8 71.8951,-187.516 79.9979,-194.342 82.4861,-187.8"/>
</g>
<!-- Node5 -->
<g id="node6" class="node"><title>Node5</title>
<polygon fill="white" stroke="#bfbfbf" points="768.5,-112.5 768.5,-131.5 798.5,-131.5 798.5,-112.5 768.5,-112.5"/>
<text text-anchor="middle" x="783.5" y="-119.5" font-family="Helvetica,sans-Serif" font-size="10.00">list</text>
</g>
<!-- Node4&#45;&gt;Node5 -->
<g id="edge5" class="edge"><title>Node4&#45;&gt;Node5</title>
<path fill="none" stroke="midnightblue" d="M875.827,-168.324C857.372,-159.264 828.301,-144.993 807.716,-134.888"/>
<polygon fill="midnightblue" stroke="midnightblue" points="809.17,-131.703 798.651,-130.438 806.085,-137.986 809.17,-131.703"/>
</g>
<!-- Node6 -->
<g id="node7" class="node"><title>Node6</title>
<polygon fill="white" stroke="#bfbfbf" points="761.5,-0.5 761.5,-19.5 805.5,-19.5 805.5,-0.5 761.5,-0.5"/>
<text text-anchor="middle" x="783.5" y="-7.5" font-family="Helvetica,sans-Serif" font-size="10.00">string</text>
</g>
<!-- Node4&#45;&gt;Node6 -->
<g id="edge6" class="edge"><title>Node4&#45;&gt;Node6</title>
<path fill="none" stroke="midnightblue" d="M882.157,-168.281C871.7,-159.83 856.221,-146.233 845.5,-132 820.511,-98.8247 800.582,-54.0893 790.564,-29.359"/>
<polygon fill="midnightblue" stroke="midnightblue" points="793.715,-27.8091 786.783,-19.7966 787.205,-30.383 793.715,-27.8091"/>
</g>
<!-- Node7&#45;&gt;Node6 -->
<g id="edge8" class="edge"><title>Node7&#45;&gt;Node6</title>
<path fill="none" stroke="midnightblue" d="M988.837,-56.4435C940.942,-45.8437 860.221,-27.9792 815.588,-18.1014"/>
<polygon fill="midnightblue" stroke="midnightblue" points="816.105,-14.6312 805.585,-15.8876 814.592,-21.4658 816.105,-14.6312"/>
</g>
<!-- Node8 -->
<g id="node9" class="node"><title>Node8</title>
<polygon fill="white" stroke="#bfbfbf" points="964.5,-0.5 964.5,-19.5 1020.5,-19.5 1020.5,-0.5 964.5,-0.5"/>
<text text-anchor="middle" x="992.5" y="-7.5" font-family="Helvetica,sans-Serif" font-size="10.00">sstream</text>
</g>
<!-- Node7&#45;&gt;Node8 -->
<g id="edge9" class="edge"><title>Node7&#45;&gt;Node8</title>
<path fill="none" stroke="midnightblue" d="M1021.72,-56.083C1016.83,-48.5341 1009.67,-37.4948 1003.67,-28.2298"/>
<polygon fill="midnightblue" stroke="midnightblue" points="1006.55,-26.239 998.172,-19.7511 1000.67,-30.0463 1006.55,-26.239"/>
</g>
<!-- Node9 -->
<g id="node10" class="node"><title>Node9</title>
<polygon fill="white" stroke="#bfbfbf" points="1356.5,-0.5 1356.5,-19.5 1418.5,-19.5 1418.5,-0.5 1356.5,-0.5"/>
<text text-anchor="middle" x="1387.5" y="-7.5" font-family="Helvetica,sans-Serif" font-size="10.00">algorithm</text>
</g>
<!-- Node7&#45;&gt;Node9 -->
<g id="edge10" class="edge"><title>Node7&#45;&gt;Node9</title>
<path fill="none" stroke="midnightblue" d="M1084.54,-56.4435C1157.41,-45.5132 1281.78,-26.8581 1346.16,-17.2012"/>
<polygon fill="midnightblue" stroke="midnightblue" points="1346.96,-20.6197 1356.33,-15.6749 1345.93,-13.6971 1346.96,-20.6197"/>
</g>
<!-- Node10 -->
<g id="node11" class="node"><title>Node10</title>
<polygon fill="white" stroke="#bfbfbf" points="1039,-0.5 1039,-19.5 1086,-19.5 1086,-0.5 1039,-0.5"/>
<text text-anchor="middle" x="1062.5" y="-7.5" font-family="Helvetica,sans-Serif" font-size="10.00">vector</text>
</g>
<!-- Node7&#45;&gt;Node10 -->
<g id="edge11" class="edge"><title>Node7&#45;&gt;Node10</title>
<path fill="none" stroke="midnightblue" d="M1033.28,-56.083C1038.17,-48.5341 1045.33,-37.4948 1051.33,-28.2298"/>
<polygon fill="midnightblue" stroke="midnightblue" points="1054.33,-30.0463 1056.83,-19.7511 1048.45,-26.239 1054.33,-30.0463"/>
</g>
<!-- Node11&#45;&gt;Node5 -->
<g id="edge29" class="edge"><title>Node11&#45;&gt;Node5</title>
<path fill="none" stroke="midnightblue" d="M1184.78,-171.893C1111.67,-163.967 967.567,-147.953 845.5,-132 833.322,-130.408 819.825,-128.47 808.542,-126.8"/>
<polygon fill="midnightblue" stroke="midnightblue" points="808.925,-123.319 798.518,-125.302 807.89,-130.242 808.925,-123.319"/>
</g>
<!-- Node11&#45;&gt;Node6 -->
<g id="edge28" class="edge"><title>Node11&#45;&gt;Node6</title>
<path fill="none" stroke="midnightblue" d="M1184.71,-170.091C1142.14,-163.125 1078.57,-150.704 1025.5,-132 941.039,-102.232 848.162,-49.6935 806.247,-24.8098"/>
<polygon fill="midnightblue" stroke="midnightblue" points="807.786,-21.6523 797.408,-19.5221 804.193,-27.6595 807.786,-21.6523"/>
</g>
<!-- Node11&#45;&gt;Node7 -->
<g id="edge13" class="edge"><title>Node11&#45;&gt;Node7</title>
<path fill="none" stroke="midnightblue" d="M1184.72,-171.59C1134.84,-164.958 1061.18,-152.064 1041.5,-132 1029.76,-120.036 1026.84,-100.735 1026.5,-86.2681"/>
<polygon fill="midnightblue" stroke="midnightblue" points="1030.01,-85.9901 1026.67,-75.9345 1023.01,-85.8761 1030.01,-85.9901"/>
</g>
<!-- Node12 -->
<g id="node13" class="node"><title>Node12</title>
<g id="a_node13"><a xlink:href="misc_8h.html" target="_top" xlink:title="base/std_ext/misc.h">
<polygon fill="white" stroke="black" points="1552,-112.5 1552,-131.5 1665,-131.5 1665,-112.5 1552,-112.5"/>
<text text-anchor="middle" x="1608.5" y="-119.5" font-family="Helvetica,sans-Serif" font-size="10.00">base/std_ext/misc.h</text>
</a>
</g>
</g>
<!-- Node11&#45;&gt;Node12 -->
<g id="edge14" class="edge"><title>Node11&#45;&gt;Node12</title>
<path fill="none" stroke="midnightblue" d="M1280.12,-170.161C1346.27,-160.66 1466.3,-143.423 1541.47,-132.627"/>
<polygon fill="midnightblue" stroke="midnightblue" points="1542.37,-136.034 1551.77,-131.148 1541.37,-129.105 1542.37,-136.034"/>
</g>
<!-- Node13 -->
<g id="node14" class="node"><title>Node13</title>
<polygon fill="white" stroke="#bfbfbf" points="1709,-56.5 1709,-75.5 1772,-75.5 1772,-56.5 1709,-56.5"/>
<text text-anchor="middle" x="1740.5" y="-63.5" font-family="Helvetica,sans-Serif" font-size="10.00">functional</text>
</g>
<!-- Node11&#45;&gt;Node13 -->
<g id="edge32" class="edge"><title>Node11&#45;&gt;Node13</title>
<path fill="none" stroke="midnightblue" d="M1280.3,-177.098C1383.2,-176.551 1622.02,-170.982 1691.5,-132 1710.51,-121.336 1724.4,-99.9316 1732.44,-84.597"/>
<polygon fill="midnightblue" stroke="midnightblue" points="1735.6,-86.0893 1736.87,-75.5705 1729.32,-83.0033 1735.6,-86.0893"/>
</g>
<!-- Node17 -->
<g id="node18" class="node"><title>Node17</title>
<polygon fill="white" stroke="#bfbfbf" points="1634,-56.5 1634,-75.5 1691,-75.5 1691,-56.5 1634,-56.5"/>
<text text-anchor="middle" x="1662.5" y="-63.5" font-family="Helvetica,sans-Serif" font-size="10.00">memory</text>
</g>
<!-- Node11&#45;&gt;Node17 -->
<g id="edge27" class="edge"><title>Node11&#45;&gt;Node17</title>
<path fill="none" stroke="midnightblue" d="M1280.12,-175.683C1388.93,-172.184 1648.42,-160.869 1674.5,-132 1686,-119.27 1679.98,-99.2404 1672.97,-84.7788"/>
<polygon fill="midnightblue" stroke="midnightblue" points="1675.98,-82.9774 1668.17,-75.8145 1669.81,-86.2823 1675.98,-82.9774"/>
</g>
<!-- Node18 -->
<g id="node19" class="node"><title>Node18</title>
<polygon fill="white" stroke="#bfbfbf" points="1050.5,-112.5 1050.5,-131.5 1096.5,-131.5 1096.5,-112.5 1050.5,-112.5"/>
<text text-anchor="middle" x="1073.5" y="-119.5" font-family="Helvetica,sans-Serif" font-size="10.00">TFile.h</text>
</g>
<!-- Node11&#45;&gt;Node18 -->
<g id="edge21" class="edge"><title>Node11&#45;&gt;Node18</title>
<path fill="none" stroke="midnightblue" d="M1207.31,-168.444C1179.93,-159.145 1136.09,-144.257 1106.11,-134.073"/>
<polygon fill="midnightblue" stroke="midnightblue" points="1107.11,-130.717 1096.51,-130.815 1104.85,-137.345 1107.11,-130.717"/>
</g>
<!-- Node19 -->
<g id="node20" class="node"><title>Node19</title>
<polygon fill="white" stroke="#bfbfbf" points="1115,-112.5 1115,-131.5 1188,-131.5 1188,-112.5 1115,-112.5"/>
<text text-anchor="middle" x="1151.5" y="-119.5" font-family="Helvetica,sans-Serif" font-size="10.00">TDirectory.h</text>
</g>
<!-- Node11&#45;&gt;Node19 -->
<g id="edge22" class="edge"><title>Node11&#45;&gt;Node19</title>
<path fill="none" stroke="midnightblue" d="M1219.49,-168.324C1206.97,-159.979 1187.82,-147.212 1173.03,-137.352"/>
<polygon fill="midnightblue" stroke="midnightblue" points="1174.74,-134.289 1164.48,-131.655 1170.86,-140.114 1174.74,-134.289"/>
</g>
<!-- Node20 -->
<g id="node21" class="node"><title>Node20</title>
<polygon fill="white" stroke="#bfbfbf" points="1206,-112.5 1206,-131.5 1259,-131.5 1259,-112.5 1206,-112.5"/>
<text text-anchor="middle" x="1232.5" y="-119.5" font-family="Helvetica,sans-Serif" font-size="10.00">TError.h</text>
</g>
<!-- Node11&#45;&gt;Node20 -->
<g id="edge23" class="edge"><title>Node11&#45;&gt;Node20</title>
<path fill="none" stroke="midnightblue" d="M1232.5,-168.083C1232.5,-161.006 1232.5,-150.861 1232.5,-141.986"/>
<polygon fill="midnightblue" stroke="midnightblue" points="1236,-141.751 1232.5,-131.751 1229,-141.751 1236,-141.751"/>
</g>
<!-- Node21 -->
<g id="node22" class="node"><title>Node21</title>
<polygon fill="white" stroke="#bfbfbf" points="1277,-112.5 1277,-131.5 1324,-131.5 1324,-112.5 1277,-112.5"/>
<text text-anchor="middle" x="1300.5" y="-119.5" font-family="Helvetica,sans-Serif" font-size="10.00">TList.h</text>
</g>
<!-- Node11&#45;&gt;Node21 -->
<g id="edge24" class="edge"><title>Node11&#45;&gt;Node21</title>
<path fill="none" stroke="midnightblue" d="M1243.43,-168.324C1253.67,-160.185 1269.22,-147.839 1281.5,-138.087"/>
<polygon fill="midnightblue" stroke="midnightblue" points="1283.72,-140.794 1289.38,-131.834 1279.37,-135.312 1283.72,-140.794"/>
</g>
<!-- Node22 -->
<g id="node23" class="node"><title>Node22</title>
<polygon fill="white" stroke="#bfbfbf" points="1342,-112.5 1342,-131.5 1419,-131.5 1419,-112.5 1342,-112.5"/>
<text text-anchor="middle" x="1380.5" y="-119.5" font-family="Helvetica,sans-Serif" font-size="10.00">TCollection.h</text>
</g>
<!-- Node11&#45;&gt;Node22 -->
<g id="edge25" class="edge"><title>Node11&#45;&gt;Node22</title>
<path fill="none" stroke="midnightblue" d="M1255.95,-168.444C1280.63,-159.438 1319.69,-145.189 1347.48,-135.049"/>
<polygon fill="midnightblue" stroke="midnightblue" points="1348.96,-138.232 1357.16,-131.516 1346.56,-131.656 1348.96,-138.232"/>
</g>
<!-- Node23 -->
<g id="node24" class="node"><title>Node23</title>
<polygon fill="white" stroke="#bfbfbf" points="1437.5,-112.5 1437.5,-131.5 1483.5,-131.5 1483.5,-112.5 1437.5,-112.5"/>
<text text-anchor="middle" x="1460.5" y="-119.5" font-family="Helvetica,sans-Serif" font-size="10.00">TKey.h</text>
</g>
<!-- Node11&#45;&gt;Node23 -->
<g id="edge26" class="edge"><title>Node11&#45;&gt;Node23</title>
<path fill="none" stroke="midnightblue" d="M1272.43,-168.428C1310.04,-160.221 1368.18,-147.195 1427.54,-132.153"/>
<polygon fill="midnightblue" stroke="midnightblue" points="1428.64,-135.485 1437.46,-129.623 1426.91,-128.703 1428.64,-135.485"/>
</g>
<!-- Node24 -->
<g id="node25" class="node"><title>Node24</title>
<polygon fill="white" stroke="#bfbfbf" points="1501.5,-112.5 1501.5,-131.5 1533.5,-131.5 1533.5,-112.5 1501.5,-112.5"/>
<text text-anchor="middle" x="1517.5" y="-119.5" font-family="Helvetica,sans-Serif" font-size="10.00">set</text>
</g>
<!-- Node11&#45;&gt;Node24 -->
<g id="edge30" class="edge"><title>Node11&#45;&gt;Node24</title>
<path fill="none" stroke="midnightblue" d="M1280,-171.308C1330.38,-164.711 1412.35,-152.385 1491.37,-131.901"/>
<polygon fill="midnightblue" stroke="midnightblue" points="1492.72,-135.166 1501.49,-129.228 1490.93,-128.398 1492.72,-135.166"/>
</g>
<!-- Node25 -->
<g id="node26" class="node"><title>Node25</title>
<polygon fill="white" stroke="#bfbfbf" points="854.5,-112.5 854.5,-131.5 918.5,-131.5 918.5,-112.5 854.5,-112.5"/>
<text text-anchor="middle" x="886.5" y="-119.5" font-family="Helvetica,sans-Serif" font-size="10.00">stdexcept</text>
</g>
<!-- Node11&#45;&gt;Node25 -->
<g id="edge31" class="edge"><title>Node11&#45;&gt;Node25</title>
<path fill="none" stroke="midnightblue" d="M1184.85,-170.517C1125.59,-162.302 1021.37,-147.352 932.5,-132 931.237,-131.782 929.955,-131.556 928.662,-131.326"/>
<polygon fill="midnightblue" stroke="midnightblue" points="929.106,-127.849 918.637,-129.476 927.836,-134.732 929.106,-127.849"/>
</g>
<!-- Node12&#45;&gt;Node9 -->
<g id="edge15" class="edge"><title>Node12&#45;&gt;Node9</title>
<path fill="none" stroke="midnightblue" d="M1608.16,-112.405C1607.12,-98.4252 1602.96,-70.8336 1586.5,-56 1563.61,-35.3699 1479.89,-21.9941 1428.62,-15.5424"/>
<polygon fill="midnightblue" stroke="midnightblue" points="1428.86,-12.0465 1418.51,-14.3075 1428.01,-18.9948 1428.86,-12.0465"/>
</g>
<!-- Node12&#45;&gt;Node13 -->
<g id="edge16" class="edge"><title>Node12&#45;&gt;Node13</title>
<path fill="none" stroke="midnightblue" d="M1629.42,-112.444C1651.24,-103.517 1685.65,-89.4387 1710.39,-79.3168"/>
<polygon fill="midnightblue" stroke="midnightblue" points="1711.75,-82.5422 1719.68,-75.5164 1709.1,-76.0634 1711.75,-82.5422"/>
</g>
<!-- Node14 -->
<g id="node15" class="node"><title>Node14</title>
<polygon fill="white" stroke="#bfbfbf" points="1456,-56.5 1456,-75.5 1503,-75.5 1503,-56.5 1456,-56.5"/>
<text text-anchor="middle" x="1479.5" y="-63.5" font-family="Helvetica,sans-Serif" font-size="10.00">cmath</text>
</g>
<!-- Node12&#45;&gt;Node14 -->
<g id="edge17" class="edge"><title>Node12&#45;&gt;Node14</title>
<path fill="none" stroke="midnightblue" d="M1588.06,-112.444C1566.83,-103.557 1533.4,-89.5632 1509.25,-79.4514"/>
<polygon fill="midnightblue" stroke="midnightblue" points="1510.42,-76.1493 1499.84,-75.5164 1507.72,-82.6064 1510.42,-76.1493"/>
</g>
<!-- Node15 -->
<g id="node16" class="node"><title>Node15</title>
<polygon fill="white" stroke="#bfbfbf" points="1521.5,-56.5 1521.5,-75.5 1577.5,-75.5 1577.5,-56.5 1521.5,-56.5"/>
<text text-anchor="middle" x="1549.5" y="-63.5" font-family="Helvetica,sans-Serif" font-size="10.00">cxxabi.h</text>
</g>
<!-- Node12&#45;&gt;Node15 -->
<g id="edge18" class="edge"><title>Node12&#45;&gt;Node15</title>
<path fill="none" stroke="midnightblue" d="M1599.02,-112.324C1590.3,-104.341 1577.16,-92.3128 1566.6,-82.6529"/>
<polygon fill="midnightblue" stroke="midnightblue" points="1568.89,-80.0036 1559.15,-75.8339 1564.17,-85.1674 1568.89,-80.0036"/>
</g>
<!-- Node16 -->
<g id="node17" class="node"><title>Node16</title>
<polygon fill="white" stroke="#bfbfbf" points="1236.5,-56.5 1236.5,-75.5 1304.5,-75.5 1304.5,-56.5 1236.5,-56.5"/>
<text text-anchor="middle" x="1270.5" y="-63.5" font-family="Helvetica,sans-Serif" font-size="10.00">type_traits</text>
</g>
<!-- Node12&#45;&gt;Node16 -->
<g id="edge19" class="edge"><title>Node12&#45;&gt;Node16</title>
<path fill="none" stroke="midnightblue" d="M1554.94,-112.444C1488.6,-101.845 1376.8,-83.9835 1314.97,-74.105"/>
<polygon fill="midnightblue" stroke="midnightblue" points="1315.19,-70.5951 1304.76,-72.4736 1314.08,-77.5075 1315.19,-70.5951"/>
</g>
<!-- Node12&#45;&gt;Node17 -->
<g id="edge20" class="edge"><title>Node12&#45;&gt;Node17</title>
<path fill="none" stroke="midnightblue" d="M1617.42,-112.083C1625.28,-104.22 1636.93,-92.5688 1646.42,-83.0813"/>
<polygon fill="midnightblue" stroke="midnightblue" points="1649.15,-85.2971 1653.75,-75.7511 1644.2,-80.3473 1649.15,-85.2971"/>
</g>
<!-- Node26&#45;&gt;Node6 -->
<g id="edge49" class="edge"><title>Node26&#45;&gt;Node6</title>
<path fill="none" stroke="midnightblue" d="M442.62,-225.081C339.268,-212.261 146.805,-188.345 146.5,-188 140.617,-181.336 144.277,-176.606 146.5,-168 160.73,-112.912 160.65,-86.7822 208.5,-56 254.236,-26.5778 636.421,-14.6854 751.097,-11.7589"/>
<polygon fill="midnightblue" stroke="midnightblue" points="751.429,-15.2518 761.339,-11.5034 751.255,-8.25393 751.429,-15.2518"/>
</g>
<!-- Node27 -->
<g id="node28" class="node"><title>Node27</title>
<g id="a_node28"><a xlink:href="_t_i_d_8h.html" target="_top" xlink:title="TID.h">
<polygon fill="white" stroke="black" points="565,-168.5 565,-187.5 606,-187.5 606,-168.5 565,-168.5"/>
<text text-anchor="middle" x="585.5" y="-175.5" font-family="Helvetica,sans-Serif" font-size="10.00">TID.h</text>
</a>
</g>
</g>
<!-- Node26&#45;&gt;Node27 -->
<g id="edge34" class="edge"><title>Node26&#45;&gt;Node27</title>
<path fill="none" stroke="midnightblue" d="M519.193,-224.324C531.401,-215.979 550.078,-203.212 564.503,-193.352"/>
<polygon fill="midnightblue" stroke="midnightblue" points="566.558,-196.187 572.839,-187.655 562.608,-190.408 566.558,-196.187"/>
</g>
<!-- Node31 -->
<g id="node32" class="node"><title>Node31</title>
<polygon fill="white" stroke="#bfbfbf" points="235.5,-56.5 235.5,-75.5 279.5,-75.5 279.5,-56.5 235.5,-56.5"/>
<text text-anchor="middle" x="257.5" y="-63.5" font-family="Helvetica,sans-Serif" font-size="10.00">ctime</text>
</g>
<!-- Node26&#45;&gt;Node31 -->
<g id="edge50" class="edge"><title>Node26&#45;&gt;Node31</title>
<path fill="none" stroke="midnightblue" d="M474.271,-224.409C413.605,-207.534 286.223,-168.517 260.5,-132 251.055,-118.591 251.358,-99.4846 253.391,-85.4561"/>
<polygon fill="midnightblue" stroke="midnightblue" points="256.855,-85.9708 255.238,-75.5 249.972,-84.6937 256.855,-85.9708"/>
</g>
<!-- Node35 -->
<g id="node36" class="node"><title>Node35</title>
<g id="a_node36"><a xlink:href="_git_info_8h.html" target="_top" xlink:title="base/GitInfo.h">
<polygon fill="white" stroke="black" points="156,-168.5 156,-187.5 239,-187.5 239,-168.5 156,-168.5"/>
<text text-anchor="middle" x="197.5" y="-175.5" font-family="Helvetica,sans-Serif" font-size="10.00">base/GitInfo.h</text>
</a>
</g>
</g>
<!-- Node26&#45;&gt;Node35 -->
<g id="edge47" class="edge"><title>Node26&#45;&gt;Node35</title>
<path fill="none" stroke="midnightblue" d="M457.538,-224.444C400.708,-214.512 307.386,-198.203 249.352,-188.062"/>
<polygon fill="midnightblue" stroke="midnightblue" points="249.749,-184.578 239.296,-186.304 248.544,-191.473 249.749,-184.578"/>
</g>
<!-- Node27&#45;&gt;Node5 -->
<g id="edge44" class="edge"><title>Node27&#45;&gt;Node5</title>
<path fill="none" stroke="midnightblue" d="M606.315,-171.323C642.968,-161.327 718.876,-140.625 758.379,-129.851"/>
<polygon fill="midnightblue" stroke="midnightblue" points="759.542,-133.162 768.268,-127.154 757.7,-126.409 759.542,-133.162"/>
</g>
<!-- Node27&#45;&gt;Node16 -->
<g id="edge40" class="edge"><title>Node27&#45;&gt;Node16</title>
<path fill="none" stroke="midnightblue" d="M592.35,-168.309C604.479,-153.658 631.319,-124.429 661.5,-112 687.565,-101.266 1090.76,-77.3024 1226.38,-69.5045"/>
<polygon fill="midnightblue" stroke="midnightblue" points="1226.64,-72.9954 1236.42,-68.9285 1226.24,-66.0069 1226.64,-72.9954"/>
</g>
<!-- Node27&#45;&gt;Node25 -->
<g id="edge43" class="edge"><title>Node27&#45;&gt;Node25</title>
<path fill="none" stroke="midnightblue" d="M606.189,-173.288C655.107,-164.512 778.691,-142.341 844.211,-130.587"/>
<polygon fill="midnightblue" stroke="midnightblue" points="844.983,-134.004 854.207,-128.793 843.746,-127.114 844.983,-134.004"/>
</g>
<!-- Node28 -->
<g id="node29" class="node"><title>Node28</title>
<polygon fill="white" stroke="#bfbfbf" points="556.5,-112.5 556.5,-131.5 614.5,-131.5 614.5,-112.5 556.5,-112.5"/>
<text text-anchor="middle" x="585.5" y="-119.5" font-family="Helvetica,sans-Serif" font-size="10.00">Rtypes.h</text>
</g>
<!-- Node27&#45;&gt;Node28 -->
<g id="edge35" class="edge"><title>Node27&#45;&gt;Node28</title>
<path fill="none" stroke="midnightblue" d="M585.5,-168.083C585.5,-161.006 585.5,-150.861 585.5,-141.986"/>
<polygon fill="midnightblue" stroke="midnightblue" points="589,-141.751 585.5,-131.751 582,-141.751 589,-141.751"/>
</g>
<!-- Node29 -->
<g id="node30" class="node"><title>Node29</title>
<g id="a_node30"><a xlink:href="base_2std__ext_2_time_8h.html" target="_top" xlink:title="base/std_ext/time.h">
<polygon fill="white" stroke="black" points="426.5,-112.5 426.5,-131.5 538.5,-131.5 538.5,-112.5 426.5,-112.5"/>
<text text-anchor="middle" x="482.5" y="-119.5" font-family="Helvetica,sans-Serif" font-size="10.00">base/std_ext/time.h</text>
</a>
</g>
</g>
<!-- Node27&#45;&gt;Node29 -->
<g id="edge36" class="edge"><title>Node27&#45;&gt;Node29</title>
<path fill="none" stroke="midnightblue" d="M568.951,-168.324C552.508,-159.703 527.065,-146.364 508.032,-136.386"/>
<polygon fill="midnightblue" stroke="midnightblue" points="509.489,-133.198 499.008,-131.655 506.239,-139.398 509.489,-133.198"/>
</g>
<!-- Node27&#45;&gt;Node31 -->
<g id="edge46" class="edge"><title>Node27&#45;&gt;Node31</title>
<path fill="none" stroke="midnightblue" d="M564.658,-176.803C502.454,-175.79 319.769,-169.608 276.5,-132 263.348,-120.568 259.056,-100.585 257.774,-85.7845"/>
<polygon fill="midnightblue" stroke="midnightblue" points="261.265,-85.5221 257.283,-75.7043 254.273,-85.8627 261.265,-85.5221"/>
</g>
<!-- Node32 -->
<g id="node33" class="node"><title>Node32</title>
<polygon fill="white" stroke="#bfbfbf" points="671,-112.5 671,-131.5 712,-131.5 712,-112.5 671,-112.5"/>
<text text-anchor="middle" x="691.5" y="-119.5" font-family="Helvetica,sans-Serif" font-size="10.00">tuple</text>
</g>
<!-- Node27&#45;&gt;Node32 -->
<g id="edge41" class="edge"><title>Node27&#45;&gt;Node32</title>
<path fill="none" stroke="midnightblue" d="M602.531,-168.324C619.53,-159.664 645.876,-146.242 665.493,-136.249"/>
<polygon fill="midnightblue" stroke="midnightblue" points="667.19,-139.312 674.512,-131.655 664.012,-133.075 667.19,-139.312"/>
</g>
<!-- Node33 -->
<g id="node34" class="node"><title>Node33</title>
<polygon fill="white" stroke="#bfbfbf" points="286,-112.5 286,-131.5 335,-131.5 335,-112.5 286,-112.5"/>
<text text-anchor="middle" x="310.5" y="-119.5" font-family="Helvetica,sans-Serif" font-size="10.00">cstdint</text>
</g>
<!-- Node27&#45;&gt;Node33 -->
<g id="edge42" class="edge"><title>Node27&#45;&gt;Node33</title>
<path fill="none" stroke="midnightblue" d="M564.986,-173.772C524.679,-167.305 432.148,-151.848 345.321,-132.282"/>
<polygon fill="midnightblue" stroke="midnightblue" points="345.839,-128.811 335.311,-130.002 344.284,-135.636 345.839,-128.811"/>
</g>
<!-- Node34 -->
<g id="node35" class="node"><title>Node34</title>
<polygon fill="white" stroke="#bfbfbf" points="353,-112.5 353,-131.5 408,-131.5 408,-112.5 353,-112.5"/>
<text text-anchor="middle" x="380.5" y="-119.5" font-family="Helvetica,sans-Serif" font-size="10.00">iomanip</text>
</g>
<!-- Node27&#45;&gt;Node34 -->
<g id="edge45" class="edge"><title>Node27&#45;&gt;Node34</title>
<path fill="none" stroke="midnightblue" d="M564.715,-171.525C530.319,-162.465 461.085,-144.227 417.98,-132.873"/>
<polygon fill="midnightblue" stroke="midnightblue" points="418.71,-129.446 408.148,-130.283 416.927,-136.215 418.71,-129.446"/>
</g>
<!-- Node29&#45;&gt;Node7 -->
<g id="edge37" class="edge"><title>Node29&#45;&gt;Node7</title>
<path fill="none" stroke="midnightblue" d="M538.851,-113.043C541.774,-112.678 544.671,-112.328 547.5,-112 693.549,-95.0512 865.175,-80.174 958.508,-72.5059"/>
<polygon fill="midnightblue" stroke="midnightblue" points="958.988,-75.9784 968.669,-71.6742 958.417,-69.0018 958.988,-75.9784"/>
</g>
<!-- Node30 -->
<g id="node31" class="node"><title>Node30</title>
<polygon fill="white" stroke="#bfbfbf" points="458,-56.5 458,-75.5 507,-75.5 507,-56.5 458,-56.5"/>
<text text-anchor="middle" x="482.5" y="-63.5" font-family="Helvetica,sans-Serif" font-size="10.00">cstring</text>
</g>
<!-- Node29&#45;&gt;Node30 -->
<g id="edge38" class="edge"><title>Node29&#45;&gt;Node30</title>
<path fill="none" stroke="midnightblue" d="M482.5,-112.083C482.5,-105.006 482.5,-94.8611 482.5,-85.9865"/>
<polygon fill="midnightblue" stroke="midnightblue" points="486,-85.751 482.5,-75.7511 479,-85.7511 486,-85.751"/>
</g>
<!-- Node29&#45;&gt;Node31 -->
<g id="edge39" class="edge"><title>Node29&#45;&gt;Node31</title>
<path fill="none" stroke="midnightblue" d="M446.848,-112.444C403.554,-102.053 331.173,-84.6816 289.565,-74.6955"/>
<polygon fill="midnightblue" stroke="midnightblue" points="290.226,-71.255 279.686,-72.3245 288.593,-78.0617 290.226,-71.255"/>
</g>
<!-- Node35&#45;&gt;Node6 -->
<g id="edge48" class="edge"><title>Node35&#45;&gt;Node6</title>
<path fill="none" stroke="midnightblue" d="M196.518,-168.268C194.518,-145.656 192.698,-84.942 226.5,-56 266.435,-21.8076 638.067,-13.256 751.063,-11.4377"/>
<polygon fill="midnightblue" stroke="midnightblue" points="751.226,-14.9357 761.171,-11.2821 751.118,-7.93652 751.226,-14.9357"/>
</g>
<!-- Node36&#45;&gt;Node6 -->
<g id="edge54" class="edge"><title>Node36&#45;&gt;Node6</title>
<path fill="none" stroke="midnightblue" d="M746.029,-224.206C741.534,-211.746 734.599,-188.219 737.5,-168 744.904,-116.395 765.339,-58.0801 776.312,-29.2065"/>
<polygon fill="midnightblue" stroke="midnightblue" points="779.662,-30.2466 780.007,-19.6574 773.134,-27.7202 779.662,-30.2466"/>
</g>
<!-- Node36&#45;&gt;Node27 -->
<g id="edge52" class="edge"><title>Node36&#45;&gt;Node27</title>
<path fill="none" stroke="midnightblue" d="M723.514,-224.444C694.301,-214.825 646.92,-199.224 615.983,-189.037"/>
<polygon fill="midnightblue" stroke="midnightblue" points="616.765,-185.61 606.172,-185.807 614.576,-192.259 616.765,-185.61"/>
</g>
<!-- Node37 -->
<g id="node38" class="node"><title>Node37</title>
<polygon fill="white" stroke="#bfbfbf" points="746.5,-168.5 746.5,-187.5 812.5,-187.5 812.5,-168.5 746.5,-168.5"/>
<text text-anchor="middle" x="779.5" y="-175.5" font-family="Helvetica,sans-Serif" font-size="10.00">TNamed.h</text>
</g>
<!-- Node36&#45;&gt;Node37 -->
<g id="edge53" class="edge"><title>Node36&#45;&gt;Node37</title>
<path fill="none" stroke="midnightblue" d="M754.454,-224.083C758.604,-216.613 764.653,-205.724 769.767,-196.52"/>
<polygon fill="midnightblue" stroke="midnightblue" points="772.841,-198.192 774.638,-187.751 766.722,-194.793 772.841,-198.192"/>
</g>
</g>
</svg>
