<?xml version="1.0" encoding="UTF-8" standalone="no"?>
<!DOCTYPE svg PUBLIC "-//W3C//DTD SVG 1.1//EN"
 "http://www.w3.org/Graphics/SVG/1.1/DTD/svg11.dtd">
<!-- Generated by graphviz version 2.38.0 (20140413.2041)
 -->
<!-- Title: src/analysis/input/ant/AntReader.h Pages: 1 -->
<svg width="2292pt" height="352pt"
 viewBox="0.00 0.00 2292.37 352.00" xmlns="http://www.w3.org/2000/svg" xmlns:xlink="http://www.w3.org/1999/xlink">
<g id="graph0" class="graph" transform="scale(1 1) rotate(0) translate(4 348)">
<title>src/analysis/input/ant/AntReader.h</title>
<polygon fill="white" stroke="none" points="-4,4 -4,-348 2288.37,-348 2288.37,4 -4,4"/>
<!-- Node0 -->
<g id="node1" class="node"><title>Node0</title>
<polygon fill="#bfbfbf" stroke="black" points="690.5,-313.5 690.5,-343.5 789.5,-343.5 789.5,-313.5 690.5,-313.5"/>
<text text-anchor="start" x="698.5" y="-331.5" font-family="Helvetica,sans-Serif" font-size="10.00">src/analysis/input</text>
<text text-anchor="middle" x="740" y="-320.5" font-family="Helvetica,sans-Serif" font-size="10.00">/ant/AntReader.h</text>
</g>
<!-- Node1 -->
<g id="node2" class="node"><title>Node1</title>
<g id="a_node2"><a xlink:href="_data_reader_8h.html" target="_top" xlink:title="analysis/input/DataReader.h">
<polygon fill="white" stroke="black" points="69.5,-252 69.5,-271 218.5,-271 218.5,-252 69.5,-252"/>
<text text-anchor="middle" x="144" y="-259" font-family="Helvetica,sans-Serif" font-size="10.00">analysis/input/DataReader.h</text>
</a>
</g>
</g>
<!-- Node0&#45;&gt;Node1 -->
<g id="edge1" class="edge"><title>Node0&#45;&gt;Node1</title>
<path fill="none" stroke="midnightblue" d="M690.338,-322.17C605.147,-313.015 425.667,-293.676 274,-277 259.419,-275.397 243.92,-273.679 228.894,-272.008"/>
<polygon fill="midnightblue" stroke="midnightblue" points="228.91,-268.488 218.584,-270.86 228.135,-275.445 228.91,-268.488"/>
</g>
<!-- Node5 -->
<g id="node6" class="node"><title>Node5</title>
<polygon fill="white" stroke="#bfbfbf" points="899.5,-56.5 899.5,-75.5 956.5,-75.5 956.5,-56.5 899.5,-56.5"/>
<text text-anchor="middle" x="928" y="-63.5" font-family="Helvetica,sans-Serif" font-size="10.00">memory</text>
</g>
<!-- Node0&#45;&gt;Node5 -->
<g id="edge71" class="edge"><title>Node0&#45;&gt;Node5</title>
<path fill="none" stroke="midnightblue" d="M750.108,-313.494C782.136,-269.115 881.295,-131.716 915.92,-83.7387"/>
<polygon fill="midnightblue" stroke="midnightblue" points="918.761,-85.7826 921.775,-75.6255 913.085,-81.6862 918.761,-85.7826"/>
</g>
<!-- Node10 -->
<g id="node11" class="node"><title>Node10</title>
<g id="a_node11"><a xlink:href="_unpacker_8h.html" target="_top" xlink:title="unpacker/Unpacker.h">
<polygon fill="white" stroke="black" points="392,-118 392,-137 510,-137 510,-118 392,-118"/>
<text text-anchor="middle" x="451" y="-125" font-family="Helvetica,sans-Serif" font-size="10.00">unpacker/Unpacker.h</text>
</a>
</g>
</g>
<!-- Node0&#45;&gt;Node10 -->
<g id="edge10" class="edge"><title>Node0&#45;&gt;Node10</title>
<path fill="none" stroke="midnightblue" d="M719.216,-313.188C665.995,-276.542 525.251,-179.628 471.902,-142.893"/>
<polygon fill="midnightblue" stroke="midnightblue" points="473.776,-139.933 463.554,-137.145 469.806,-145.699 473.776,-139.933"/>
</g>
<!-- Node11 -->
<g id="node12" class="node"><title>Node11</title>
<polygon fill="white" stroke="#bfbfbf" points="342,-56.5 342,-75.5 386,-75.5 386,-56.5 342,-56.5"/>
<text text-anchor="middle" x="364" y="-63.5" font-family="Helvetica,sans-Serif" font-size="10.00">string</text>
</g>
<!-- Node0&#45;&gt;Node11 -->
<g id="edge72" class="edge"><title>Node0&#45;&gt;Node11</title>
<path fill="none" stroke="midnightblue" d="M690.38,-321.714C601.53,-308.371 417.262,-266.463 339,-143 327.313,-124.563 339.397,-100.121 350.47,-83.9952"/>
<polygon fill="midnightblue" stroke="midnightblue" points="353.566,-85.6947 356.686,-75.5697 347.933,-81.539 353.566,-85.6947"/>
</g>
<!-- Node12 -->
<g id="node13" class="node"><title>Node12</title>
<g id="a_node13"><a xlink:href="_reconstruct__traits_8h.html" target="_top" xlink:title="reconstruct/Reconstruct\l_traits.h">
<polygon fill="white" stroke="black" points="928.5,-246.5 928.5,-276.5 1059.5,-276.5 1059.5,-246.5 928.5,-246.5"/>
<text text-anchor="start" x="936.5" y="-264.5" font-family="Helvetica,sans-Serif" font-size="10.00">reconstruct/Reconstruct</text>
<text text-anchor="middle" x="994" y="-253.5" font-family="Helvetica,sans-Serif" font-size="10.00">_traits.h</text>
</a>
</g>
</g>
<!-- Node0&#45;&gt;Node12 -->
<g id="edge13" class="edge"><title>Node0&#45;&gt;Node12</title>
<path fill="none" stroke="midnightblue" d="M789.577,-314.813C829.491,-304.599 885.903,-290.163 929.359,-279.042"/>
<polygon fill="midnightblue" stroke="midnightblue" points="930.444,-282.377 939.264,-276.507 928.709,-275.596 930.444,-282.377"/>
</g>
<!-- Node30 -->
<g id="node31" class="node"><title>Node30</title>
<g id="a_node31"><a xlink:href="_wrap_t_file_8h.html" target="_top" xlink:title="base/WrapTFile.h">
<polygon fill="white" stroke="black" points="1534.5,-185 1534.5,-204 1629.5,-204 1629.5,-185 1534.5,-185"/>
<text text-anchor="middle" x="1582" y="-192" font-family="Helvetica,sans-Serif" font-size="10.00">base/WrapTFile.h</text>
</a>
</g>
</g>
<!-- Node0&#45;&gt;Node30 -->
<g id="edge46" class="edge"><title>Node0&#45;&gt;Node30</title>
<path fill="none" stroke="midnightblue" d="M789.744,-319.912C854.018,-310.092 969.378,-292.411 1068,-277 1233.58,-251.126 1429.07,-219.959 1524.19,-204.753"/>
<polygon fill="midnightblue" stroke="midnightblue" points="1524.86,-208.191 1534.18,-203.156 1523.75,-201.279 1524.86,-208.191"/>
</g>
<!-- Node2 -->
<g id="node3" class="node"><title>Node2</title>
<g id="a_node3"><a xlink:href="input_2event__t_8h.html" target="_top" xlink:title="event_t.h">
<polygon fill="white" stroke="black" points="113,-185 113,-204 175,-204 175,-185 113,-185"/>
<text text-anchor="middle" x="144" y="-192" font-family="Helvetica,sans-Serif" font-size="10.00">event_t.h</text>
</a>
</g>
</g>
<!-- Node1&#45;&gt;Node2 -->
<g id="edge2" class="edge"><title>Node1&#45;&gt;Node2</title>
<path fill="none" stroke="midnightblue" d="M144,-251.734C144,-242.183 144,-226.618 144,-214.283"/>
<polygon fill="midnightblue" stroke="midnightblue" points="147.5,-214.127 144,-204.127 140.5,-214.127 147.5,-214.127"/>
</g>
<!-- Node7 -->
<g id="node8" class="node"><title>Node7</title>
<g id="a_node8"><a xlink:href="reader__flags__t_8h.html" target="_top" xlink:title="reader_flags_t.h">
<polygon fill="white" stroke="black" points="0,-185 0,-204 94,-204 94,-185 0,-185"/>
<text text-anchor="middle" x="47" y="-192" font-family="Helvetica,sans-Serif" font-size="10.00">reader_flags_t.h</text>
</a>
</g>
</g>
<!-- Node1&#45;&gt;Node7 -->
<g id="edge7" class="edge"><title>Node1&#45;&gt;Node7</title>
<path fill="none" stroke="midnightblue" d="M130.918,-251.734C114.847,-240.964 87.3669,-222.55 68.2497,-209.739"/>
<polygon fill="midnightblue" stroke="midnightblue" points="70.1303,-206.787 59.8746,-204.127 66.2335,-212.602 70.1303,-206.787"/>
</g>
<!-- Node3 -->
<g id="node4" class="node"><title>Node3</title>
<g id="a_node4"><a xlink:href="_t_event_8h.html" target="_top" xlink:title="tree/TEvent.h">
<polygon fill="white" stroke="black" points="104,-118 104,-137 184,-137 184,-118 104,-118"/>
<text text-anchor="middle" x="144" y="-125" font-family="Helvetica,sans-Serif" font-size="10.00">tree/TEvent.h</text>
</a>
</g>
</g>
<!-- Node2&#45;&gt;Node3 -->
<g id="edge3" class="edge"><title>Node2&#45;&gt;Node3</title>
<path fill="none" stroke="midnightblue" d="M144,-184.734C144,-175.183 144,-159.618 144,-147.283"/>
<polygon fill="midnightblue" stroke="midnightblue" points="147.5,-147.127 144,-137.127 140.5,-147.127 147.5,-147.127"/>
</g>
<!-- Node4 -->
<g id="node5" class="node"><title>Node4</title>
<polygon fill="white" stroke="#bfbfbf" points="109,-56.5 109,-75.5 167,-75.5 167,-56.5 109,-56.5"/>
<text text-anchor="middle" x="138" y="-63.5" font-family="Helvetica,sans-Serif" font-size="10.00">Rtypes.h</text>
</g>
<!-- Node3&#45;&gt;Node4 -->
<g id="edge4" class="edge"><title>Node3&#45;&gt;Node4</title>
<path fill="none" stroke="midnightblue" d="M143.14,-117.975C142.294,-109.58 140.973,-96.4806 139.882,-85.6631"/>
<polygon fill="midnightblue" stroke="midnightblue" points="143.344,-85.1074 138.858,-75.5091 136.379,-85.8098 143.344,-85.1074"/>
</g>
<!-- Node3&#45;&gt;Node5 -->
<g id="edge5" class="edge"><title>Node3&#45;&gt;Node5</title>
<path fill="none" stroke="midnightblue" d="M184.228,-123.447C319.449,-113.185 756.55,-80.0118 889.367,-69.932"/>
<polygon fill="midnightblue" stroke="midnightblue" points="889.769,-73.4116 899.476,-69.1648 889.239,-66.4317 889.769,-73.4116"/>
</g>
<!-- Node6 -->
<g id="node7" class="node"><title>Node6</title>
<polygon fill="white" stroke="#bfbfbf" points="185,-56.5 185,-75.5 249,-75.5 249,-56.5 185,-56.5"/>
<text text-anchor="middle" x="217" y="-63.5" font-family="Helvetica,sans-Serif" font-size="10.00">stdexcept</text>
</g>
<!-- Node3&#45;&gt;Node6 -->
<g id="edge6" class="edge"><title>Node3&#45;&gt;Node6</title>
<path fill="none" stroke="midnightblue" d="M154.459,-117.975C165.951,-108.608 184.63,-93.3839 198.587,-82.0081"/>
<polygon fill="midnightblue" stroke="midnightblue" points="201.02,-84.54 206.56,-75.5091 196.598,-79.114 201.02,-84.54"/>
</g>
<!-- Node8 -->
<g id="node9" class="node"><title>Node8</title>
<g id="a_node9"><a xlink:href="bitflag_8h.html" target="_top" xlink:title="base/bitflag.h">
<polygon fill="white" stroke="black" points="4.5,-118 4.5,-137 85.5,-137 85.5,-118 4.5,-118"/>
<text text-anchor="middle" x="45" y="-125" font-family="Helvetica,sans-Serif" font-size="10.00">base/bitflag.h</text>
</a>
</g>
</g>
<!-- Node7&#45;&gt;Node8 -->
<g id="edge8" class="edge"><title>Node7&#45;&gt;Node8</title>
<path fill="none" stroke="midnightblue" d="M46.7303,-184.734C46.4364,-175.183 45.9575,-159.618 45.5779,-147.283"/>
<polygon fill="midnightblue" stroke="midnightblue" points="49.0714,-147.015 45.2655,-137.127 42.0748,-147.23 49.0714,-147.015"/>
</g>
<!-- Node9 -->
<g id="node10" class="node"><title>Node9</title>
<polygon fill="white" stroke="#bfbfbf" points="23,-56.5 23,-75.5 67,-75.5 67,-56.5 23,-56.5"/>
<text text-anchor="middle" x="45" y="-63.5" font-family="Helvetica,sans-Serif" font-size="10.00">bitset</text>
</g>
<!-- Node8&#45;&gt;Node9 -->
<g id="edge9" class="edge"><title>Node8&#45;&gt;Node9</title>
<path fill="none" stroke="midnightblue" d="M45,-117.975C45,-109.58 45,-96.4806 45,-85.6631"/>
<polygon fill="midnightblue" stroke="midnightblue" points="48.5001,-85.5091 45,-75.5091 41.5001,-85.5091 48.5001,-85.5091"/>
</g>
<!-- Node10&#45;&gt;Node5 -->
<g id="edge12" class="edge"><title>Node10&#45;&gt;Node5</title>
<path fill="none" stroke="midnightblue" d="M487.575,-117.995C497.714,-115.831 508.751,-113.652 519,-112 654.11,-90.2187 816.053,-75.8362 889.002,-69.9768"/>
<polygon fill="midnightblue" stroke="midnightblue" points="889.414,-73.4552 899.106,-69.1743 888.86,-66.4772 889.414,-73.4552"/>
</g>
<!-- Node10&#45;&gt;Node11 -->
<g id="edge11" class="edge"><title>Node10&#45;&gt;Node11</title>
<path fill="none" stroke="midnightblue" d="M438.535,-117.975C424.581,-108.431 401.735,-92.8073 385.009,-81.3683"/>
<polygon fill="midnightblue" stroke="midnightblue" points="386.672,-78.2653 376.442,-75.5091 382.72,-84.0433 386.672,-78.2653"/>
</g>
<!-- Node12&#45;&gt;Node5 -->
<g id="edge42" class="edge"><title>Node12&#45;&gt;Node5</title>
<path fill="none" stroke="midnightblue" d="M984.241,-246.471C970.049,-225.216 944.188,-183.069 933,-143 927.729,-124.123 926.886,-101.628 927.11,-86.0329"/>
<polygon fill="midnightblue" stroke="midnightblue" points="930.621,-85.7301 927.434,-75.6261 923.624,-85.5124 930.621,-85.7301"/>
</g>
<!-- Node13 -->
<g id="node14" class="node"><title>Node13</title>
<g id="a_node14"><a xlink:href="_detector__t_8h.html" target="_top" xlink:title="base/Detector_t.h">
<polygon fill="white" stroke="black" points="657.5,-185 657.5,-204 760.5,-204 760.5,-185 657.5,-185"/>
<text text-anchor="middle" x="709" y="-192" font-family="Helvetica,sans-Serif" font-size="10.00">base/Detector_t.h</text>
</a>
</g>
</g>
<!-- Node12&#45;&gt;Node13 -->
<g id="edge14" class="edge"><title>Node12&#45;&gt;Node13</title>
<path fill="none" stroke="midnightblue" d="M932.51,-246.476C879.652,-234.421 804.524,-217.286 756.267,-206.28"/>
<polygon fill="midnightblue" stroke="midnightblue" points="756.923,-202.84 746.395,-204.029 755.366,-209.665 756.923,-202.84"/>
</g>
<!-- Node23 -->
<g id="node24" class="node"><title>Node23</title>
<g id="a_node24"><a xlink:href="mapped__vectors_8h.html" target="_top" xlink:title="base/std_ext/mapped\l_vectors.h">
<polygon fill="white" stroke="black" points="981.5,-179.5 981.5,-209.5 1102.5,-209.5 1102.5,-179.5 981.5,-179.5"/>
<text text-anchor="start" x="989.5" y="-197.5" font-family="Helvetica,sans-Serif" font-size="10.00">base/std_ext/mapped</text>
<text text-anchor="middle" x="1042" y="-186.5" font-family="Helvetica,sans-Serif" font-size="10.00">_vectors.h</text>
</a>
</g>
</g>
<!-- Node12&#45;&gt;Node23 -->
<g id="edge30" class="edge"><title>Node12&#45;&gt;Node23</title>
<path fill="none" stroke="midnightblue" d="M1004.42,-246.396C1010.58,-238.049 1018.53,-227.287 1025.52,-217.811"/>
<polygon fill="midnightblue" stroke="midnightblue" points="1028.48,-219.7 1031.61,-209.577 1022.85,-215.542 1028.48,-219.7"/>
</g>
<!-- Node25 -->
<g id="node26" class="node"><title>Node25</title>
<polygon fill="white" stroke="#bfbfbf" points="1298,-56.5 1298,-75.5 1328,-75.5 1328,-56.5 1298,-56.5"/>
<text text-anchor="middle" x="1313" y="-63.5" font-family="Helvetica,sans-Serif" font-size="10.00">list</text>
</g>
<!-- Node12&#45;&gt;Node25 -->
<g id="edge44" class="edge"><title>Node12&#45;&gt;Node25</title>
<path fill="none" stroke="midnightblue" d="M1053.28,-246.429C1112.81,-229.866 1204.45,-197.473 1267,-143 1285.3,-127.063 1298.48,-102.007 1305.92,-85.0611"/>
<polygon fill="midnightblue" stroke="midnightblue" points="1309.2,-86.2899 1309.81,-75.7124 1302.74,-83.6028 1309.2,-86.2899"/>
</g>
<!-- Node26 -->
<g id="node27" class="node"><title>Node26</title>
<g id="a_node27"><a xlink:href="shared__ptr__container_8h.html" target="_top" xlink:title="base/std_ext/shared\l_ptr_container.h">
<polygon fill="white" stroke="black" points="2138,-112.5 2138,-142.5 2252,-142.5 2252,-112.5 2138,-112.5"/>
<text text-anchor="start" x="2146" y="-130.5" font-family="Helvetica,sans-Serif" font-size="10.00">base/std_ext/shared</text>
<text text-anchor="middle" x="2195" y="-119.5" font-family="Helvetica,sans-Serif" font-size="10.00">_ptr_container.h</text>
</a>
</g>
</g>
<!-- Node12&#45;&gt;Node26 -->
<g id="edge37" class="edge"><title>Node12&#45;&gt;Node26</title>
<path fill="none" stroke="midnightblue" d="M1059.72,-257.057C1233.33,-247.245 1718.35,-215.18 2127.86,-143.121"/>
<polygon fill="midnightblue" stroke="midnightblue" points="2128.58,-146.547 2137.82,-141.357 2127.36,-139.654 2128.58,-146.547"/>
</g>
<!-- Node27 -->
<g id="node28" class="node"><title>Node27</title>
<polygon fill="white" stroke="#bfbfbf" points="2215.5,-56.5 2215.5,-75.5 2278.5,-75.5 2278.5,-56.5 2215.5,-56.5"/>
<text text-anchor="middle" x="2247" y="-63.5" font-family="Helvetica,sans-Serif" font-size="10.00">functional</text>
</g>
<!-- Node12&#45;&gt;Node27 -->
<g id="edge45" class="edge"><title>Node12&#45;&gt;Node27</title>
<path fill="none" stroke="midnightblue" d="M1059.51,-259.665C1309.99,-255.792 2197.17,-235.586 2278,-143 2293,-125.815 2277.12,-100.401 2263.11,-83.7719"/>
<polygon fill="midnightblue" stroke="midnightblue" points="2265.4,-81.0871 2256.13,-75.9665 2260.19,-85.7536 2265.4,-81.0871"/>
</g>
<!-- Node29 -->
<g id="node30" class="node"><title>Node29</title>
<polygon fill="white" stroke="#bfbfbf" points="880,-185 880,-204 918,-204 918,-185 880,-185"/>
<text text-anchor="middle" x="899" y="-192" font-family="Helvetica,sans-Serif" font-size="10.00">map</text>
</g>
<!-- Node12&#45;&gt;Node29 -->
<g id="edge43" class="edge"><title>Node12&#45;&gt;Node29</title>
<path fill="none" stroke="midnightblue" d="M973.386,-246.396C957.603,-235.597 935.913,-220.756 920.027,-209.887"/>
<polygon fill="midnightblue" stroke="midnightblue" points="921.663,-206.765 911.433,-204.007 917.71,-212.542 921.663,-206.765"/>
</g>
<!-- Node13&#45;&gt;Node6 -->
<g id="edge26" class="edge"><title>Node13&#45;&gt;Node6</title>
<path fill="none" stroke="midnightblue" d="M657.218,-191.281C541.042,-185.837 267.306,-170.242 236,-143 219.841,-128.939 216.373,-103.412 216.097,-85.8507"/>
<polygon fill="midnightblue" stroke="midnightblue" points="219.6,-85.7206 216.275,-75.6609 212.601,-85.5982 219.6,-85.7206"/>
</g>
<!-- Node13&#45;&gt;Node8 -->
<g id="edge15" class="edge"><title>Node13&#45;&gt;Node8</title>
<path fill="none" stroke="midnightblue" d="M657.195,-192.728C550.918,-190.38 300.905,-180.928 95,-143 90.2501,-142.125 85.3046,-140.984 80.4521,-139.725"/>
<polygon fill="midnightblue" stroke="midnightblue" points="81.2863,-136.324 70.7147,-137.025 79.4158,-143.07 81.2863,-136.324"/>
</g>
<!-- Node13&#45;&gt;Node11 -->
<g id="edge27" class="edge"><title>Node13&#45;&gt;Node11</title>
<path fill="none" stroke="midnightblue" d="M657.186,-194.159C567.508,-194.071 389.173,-188.069 350,-143 336.021,-126.917 344.777,-101.536 353.438,-84.5856"/>
<polygon fill="midnightblue" stroke="midnightblue" points="356.568,-86.1568 358.354,-75.7135 350.446,-82.7641 356.568,-86.1568"/>
</g>
<!-- Node14 -->
<g id="node15" class="node"><title>Node14</title>
<g id="a_node15"><a xlink:href="vec3_8h.html" target="_top" xlink:title="base/vec/vec3.h">
<polygon fill="white" stroke="black" points="662,-118 662,-137 756,-137 756,-118 662,-118"/>
<text text-anchor="middle" x="709" y="-125" font-family="Helvetica,sans-Serif" font-size="10.00">base/vec/vec3.h</text>
</a>
</g>
</g>
<!-- Node13&#45;&gt;Node14 -->
<g id="edge16" class="edge"><title>Node13&#45;&gt;Node14</title>
<path fill="none" stroke="midnightblue" d="M709,-184.734C709,-175.183 709,-159.618 709,-147.283"/>
<polygon fill="midnightblue" stroke="midnightblue" points="712.5,-147.127 709,-137.127 705.5,-147.127 712.5,-147.127"/>
</g>
<!-- Node18 -->
<g id="node19" class="node"><title>Node18</title>
<g id="a_node19"><a xlink:href="base_2std__ext_2math_8h.html" target="_top" xlink:title="base/std_ext/math.h">
<polygon fill="white" stroke="black" points="528,-118 528,-137 644,-137 644,-118 528,-118"/>
<text text-anchor="middle" x="586" y="-125" font-family="Helvetica,sans-Serif" font-size="10.00">base/std_ext/math.h</text>
</a>
</g>
</g>
<!-- Node13&#45;&gt;Node18 -->
<g id="edge21" class="edge"><title>Node13&#45;&gt;Node18</title>
<path fill="none" stroke="midnightblue" d="M692.667,-184.869C671.898,-173.893 635.814,-154.824 611.43,-141.938"/>
<polygon fill="midnightblue" stroke="midnightblue" points="612.878,-138.745 602.401,-137.167 609.607,-144.934 612.878,-138.745"/>
</g>
<!-- Node20 -->
<g id="node21" class="node"><title>Node20</title>
<polygon fill="white" stroke="#bfbfbf" points="1232.5,-56.5 1232.5,-75.5 1279.5,-75.5 1279.5,-56.5 1232.5,-56.5"/>
<text text-anchor="middle" x="1256" y="-63.5" font-family="Helvetica,sans-Serif" font-size="10.00">vector</text>
</g>
<!-- Node13&#45;&gt;Node20 -->
<g id="edge29" class="edge"><title>Node13&#45;&gt;Node20</title>
<path fill="none" stroke="midnightblue" d="M746.167,-184.905C847.206,-161.538 1125.79,-97.1135 1222.45,-74.7599"/>
<polygon fill="midnightblue" stroke="midnightblue" points="1223.32,-78.1512 1232.27,-72.488 1221.74,-71.3312 1223.32,-78.1512"/>
</g>
<!-- Node21 -->
<g id="node22" class="node"><title>Node21</title>
<polygon fill="white" stroke="#bfbfbf" points="774.5,-118 774.5,-137 823.5,-137 823.5,-118 774.5,-118"/>
<text text-anchor="middle" x="799" y="-125" font-family="Helvetica,sans-Serif" font-size="10.00">cstdint</text>
</g>
<!-- Node13&#45;&gt;Node21 -->
<g id="edge25" class="edge"><title>Node13&#45;&gt;Node21</title>
<path fill="none" stroke="midnightblue" d="M721.138,-184.734C735.847,-174.111 760.856,-156.049 778.557,-143.264"/>
<polygon fill="midnightblue" stroke="midnightblue" points="780.997,-145.82 787.055,-137.127 776.898,-140.145 780.997,-145.82"/>
</g>
<!-- Node22 -->
<g id="node23" class="node"><title>Node22</title>
<polygon fill="white" stroke="#bfbfbf" points="1008,-56.5 1008,-75.5 1076,-75.5 1076,-56.5 1008,-56.5"/>
<text text-anchor="middle" x="1042" y="-63.5" font-family="Helvetica,sans-Serif" font-size="10.00">type_traits</text>
</g>
<!-- Node13&#45;&gt;Node22 -->
<g id="edge28" class="edge"><title>Node13&#45;&gt;Node22</title>
<path fill="none" stroke="midnightblue" d="M731.627,-184.905C789.41,-162.954 942.579,-104.768 1009.71,-79.2668"/>
<polygon fill="midnightblue" stroke="midnightblue" points="1011.24,-82.4304 1019.34,-75.6072 1008.75,-75.8866 1011.24,-82.4304"/>
</g>
<!-- Node15 -->
<g id="node16" class="node"><title>Node15</title>
<g id="a_node16"><a xlink:href="vec2_8h.html" target="_top" xlink:title="vec2.h">
<polygon fill="white" stroke="black" points="725,-56.5 725,-75.5 773,-75.5 773,-56.5 725,-56.5"/>
<text text-anchor="middle" x="749" y="-63.5" font-family="Helvetica,sans-Serif" font-size="10.00">vec2.h</text>
</a>
</g>
</g>
<!-- Node14&#45;&gt;Node15 -->
<g id="edge17" class="edge"><title>Node14&#45;&gt;Node15</title>
<path fill="none" stroke="midnightblue" d="M714.731,-117.975C720.672,-109.138 730.117,-95.0886 737.588,-83.975"/>
<polygon fill="midnightblue" stroke="midnightblue" points="740.605,-85.7608 743.28,-75.5091 734.796,-81.8554 740.605,-85.7608"/>
</g>
<!-- Node16 -->
<g id="node17" class="node"><title>Node16</title>
<polygon fill="white" stroke="#bfbfbf" points="751.5,-0.5 751.5,-19.5 798.5,-19.5 798.5,-0.5 751.5,-0.5"/>
<text text-anchor="middle" x="775" y="-7.5" font-family="Helvetica,sans-Serif" font-size="10.00">cmath</text>
</g>
<!-- Node14&#45;&gt;Node16 -->
<g id="edge20" class="edge"><title>Node14&#45;&gt;Node16</title>
<path fill="none" stroke="midnightblue" d="M731.361,-117.906C748.667,-109.923 771.411,-96.2007 782,-76 789.567,-61.5635 786.442,-42.869 782.239,-29.2368"/>
<polygon fill="midnightblue" stroke="midnightblue" points="785.453,-27.8293 778.821,-19.5675 778.854,-30.1623 785.453,-27.8293"/>
</g>
<!-- Node17 -->
<g id="node18" class="node"><title>Node17</title>
<polygon fill="white" stroke="#bfbfbf" points="649.5,-56.5 649.5,-75.5 706.5,-75.5 706.5,-56.5 649.5,-56.5"/>
<text text-anchor="middle" x="678" y="-63.5" font-family="Helvetica,sans-Serif" font-size="10.00">ostream</text>
</g>
<!-- Node14&#45;&gt;Node17 -->
<g id="edge19" class="edge"><title>Node14&#45;&gt;Node17</title>
<path fill="none" stroke="midnightblue" d="M704.558,-117.975C700.047,-109.315 692.926,-95.6486 687.193,-84.6453"/>
<polygon fill="midnightblue" stroke="midnightblue" points="690.158,-82.7604 682.433,-75.5091 683.95,-85.9948 690.158,-82.7604"/>
</g>
<!-- Node15&#45;&gt;Node16 -->
<g id="edge18" class="edge"><title>Node15&#45;&gt;Node16</title>
<path fill="none" stroke="midnightblue" d="M753.293,-56.083C756.852,-48.6913 762.022,-37.9533 766.424,-28.8111"/>
<polygon fill="midnightblue" stroke="midnightblue" points="769.602,-30.2795 770.787,-19.7511 763.295,-27.2427 769.602,-30.2795"/>
</g>
<!-- Node18&#45;&gt;Node16 -->
<g id="edge22" class="edge"><title>Node18&#45;&gt;Node16</title>
<path fill="none" stroke="midnightblue" d="M581.709,-117.58C575.389,-102.995 565.776,-73.8803 580,-56 599.79,-31.1234 690.917,-18.8184 741.289,-13.8229"/>
<polygon fill="midnightblue" stroke="midnightblue" points="741.754,-17.2945 751.379,-12.8659 741.093,-10.3258 741.754,-17.2945"/>
</g>
<!-- Node19 -->
<g id="node20" class="node"><title>Node19</title>
<polygon fill="white" stroke="#bfbfbf" points="589,-56.5 589,-75.5 631,-75.5 631,-56.5 589,-56.5"/>
<text text-anchor="middle" x="610" y="-63.5" font-family="Helvetica,sans-Serif" font-size="10.00">limits</text>
</g>
<!-- Node18&#45;&gt;Node19 -->
<g id="edge23" class="edge"><title>Node18&#45;&gt;Node19</title>
<path fill="none" stroke="midnightblue" d="M589.439,-117.975C592.896,-109.404 598.332,-95.9269 602.746,-84.983"/>
<polygon fill="midnightblue" stroke="midnightblue" points="606.073,-86.0924 606.568,-75.5091 599.581,-83.4738 606.073,-86.0924"/>
</g>
<!-- Node18&#45;&gt;Node20 -->
<g id="edge24" class="edge"><title>Node18&#45;&gt;Node20</title>
<path fill="none" stroke="midnightblue" d="M620.954,-117.977C631.225,-115.733 642.517,-113.518 653,-112 764.356,-95.8747 1112.02,-75.2024 1222.17,-68.9044"/>
<polygon fill="midnightblue" stroke="midnightblue" points="1222.58,-72.3867 1232.37,-68.3237 1222.18,-65.398 1222.58,-72.3867"/>
</g>
<!-- Node23&#45;&gt;Node5 -->
<g id="edge35" class="edge"><title>Node23&#45;&gt;Node5</title>
<path fill="none" stroke="midnightblue" d="M1002.91,-179.388C985.16,-171.211 965.225,-159.265 952,-143 938.666,-126.601 932.7,-102.714 930.056,-86.1132"/>
<polygon fill="midnightblue" stroke="midnightblue" points="933.494,-85.4174 928.707,-75.966 926.555,-86.3401 933.494,-85.4174"/>
</g>
<!-- Node23&#45;&gt;Node20 -->
<g id="edge34" class="edge"><title>Node23&#45;&gt;Node20</title>
<path fill="none" stroke="midnightblue" d="M1102.64,-186.078C1155.66,-178.283 1227.06,-164.183 1246,-143 1259.69,-127.684 1260.51,-103.203 1259,-86.1801"/>
<polygon fill="midnightblue" stroke="midnightblue" points="1262.41,-85.2844 1257.71,-75.7909 1255.47,-86.1456 1262.41,-85.2844"/>
</g>
<!-- Node23&#45;&gt;Node22 -->
<g id="edge36" class="edge"><title>Node23&#45;&gt;Node22</title>
<path fill="none" stroke="midnightblue" d="M1042,-179.479C1042,-156.719 1042,-111.702 1042,-86.0582"/>
<polygon fill="midnightblue" stroke="midnightblue" points="1045.5,-85.7885 1042,-75.7885 1038.5,-85.7886 1045.5,-85.7885"/>
</g>
<!-- Node24 -->
<g id="node25" class="node"><title>Node24</title>
<g id="a_node25"><a xlink:href="memory_8h.html" target="_top" xlink:title="base/std_ext/memory.h">
<polygon fill="white" stroke="black" points="1108.5,-118 1108.5,-137 1237.5,-137 1237.5,-118 1108.5,-118"/>
<text text-anchor="middle" x="1173" y="-125" font-family="Helvetica,sans-Serif" font-size="10.00">base/std_ext/memory.h</text>
</a>
</g>
</g>
<!-- Node23&#45;&gt;Node24 -->
<g id="edge31" class="edge"><title>Node23&#45;&gt;Node24</title>
<path fill="none" stroke="midnightblue" d="M1070.43,-179.396C1093.11,-168.142 1124.63,-152.501 1146.72,-141.538"/>
<polygon fill="midnightblue" stroke="midnightblue" points="1148.45,-144.587 1155.86,-137.007 1145.34,-138.317 1148.45,-144.587"/>
</g>
<!-- Node24&#45;&gt;Node5 -->
<g id="edge32" class="edge"><title>Node24&#45;&gt;Node5</title>
<path fill="none" stroke="midnightblue" d="M1137.9,-117.975C1092.41,-106.928 1013.38,-87.7351 966.357,-76.3152"/>
<polygon fill="midnightblue" stroke="midnightblue" points="967.092,-72.8921 956.548,-73.9332 965.44,-79.6944 967.092,-72.8921"/>
</g>
<!-- Node24&#45;&gt;Node25 -->
<g id="edge33" class="edge"><title>Node24&#45;&gt;Node25</title>
<path fill="none" stroke="midnightblue" d="M1193.06,-117.975C1218.13,-107.319 1261.05,-89.0808 1288.17,-77.5537"/>
<polygon fill="midnightblue" stroke="midnightblue" points="1289.89,-80.6268 1297.72,-73.4941 1287.15,-74.1844 1289.89,-80.6268"/>
</g>
<!-- Node26&#45;&gt;Node5 -->
<g id="edge39" class="edge"><title>Node26&#45;&gt;Node5</title>
<path fill="none" stroke="midnightblue" d="M2137.87,-113.274C2134.88,-112.793 2131.91,-112.363 2129,-112 1630.38,-49.8253 1499.91,-115.638 999,-76 988.503,-75.1693 977.174,-73.9023 966.716,-72.5788"/>
<polygon fill="midnightblue" stroke="midnightblue" points="966.981,-69.0836 956.61,-71.2506 966.068,-76.0239 966.981,-69.0836"/>
</g>
<!-- Node26&#45;&gt;Node20 -->
<g id="edge38" class="edge"><title>Node26&#45;&gt;Node20</title>
<path fill="none" stroke="midnightblue" d="M2137.87,-113.313C2134.88,-112.822 2131.91,-112.379 2129,-112 1761.71,-64.1513 1660.01,-132.301 1289.57,-75.6675"/>
<polygon fill="midnightblue" stroke="midnightblue" points="1290.07,-72.2033 1279.66,-74.1313 1289,-79.1208 1290.07,-72.2033"/>
</g>
<!-- Node26&#45;&gt;Node27 -->
<g id="edge40" class="edge"><title>Node26&#45;&gt;Node27</title>
<path fill="none" stroke="midnightblue" d="M2207.32,-112.399C2214.96,-103.664 2224.79,-92.4126 2232.76,-83.2962"/>
<polygon fill="midnightblue" stroke="midnightblue" points="2235.49,-85.4907 2239.43,-75.6578 2230.22,-80.8843 2235.49,-85.4907"/>
</g>
<!-- Node28 -->
<g id="node29" class="node"><title>Node28</title>
<polygon fill="white" stroke="#bfbfbf" points="2103,-56.5 2103,-75.5 2165,-75.5 2165,-56.5 2103,-56.5"/>
<text text-anchor="middle" x="2134" y="-63.5" font-family="Helvetica,sans-Serif" font-size="10.00">algorithm</text>
</g>
<!-- Node26&#45;&gt;Node28 -->
<g id="edge41" class="edge"><title>Node26&#45;&gt;Node28</title>
<path fill="none" stroke="midnightblue" d="M2180.54,-112.399C2171.41,-103.486 2159.58,-91.9523 2150.14,-82.7408"/>
<polygon fill="midnightblue" stroke="midnightblue" points="2152.48,-80.1348 2142.88,-75.6578 2147.59,-85.1458 2152.48,-80.1348"/>
</g>
<!-- Node30&#45;&gt;Node5 -->
<g id="edge65" class="edge"><title>Node30&#45;&gt;Node5</title>
<path fill="none" stroke="midnightblue" d="M1534.49,-193.429C1446.87,-192.229 1254.57,-184.586 1099,-143 1044.1,-128.326 984.399,-98.2266 952.081,-80.6297"/>
<polygon fill="midnightblue" stroke="midnightblue" points="953.412,-77.3672 942.966,-75.6009 950.031,-83.4962 953.412,-77.3672"/>
</g>
<!-- Node30&#45;&gt;Node6 -->
<g id="edge69" class="edge"><title>Node30&#45;&gt;Node6</title>
<path fill="none" stroke="midnightblue" d="M1534.47,-192.116C1316.37,-185.69 419.522,-158.43 362,-143 314.361,-130.221 264.678,-99.8433 237.613,-81.5989"/>
<polygon fill="midnightblue" stroke="midnightblue" points="239.249,-78.4762 229.024,-75.7004 235.286,-84.2466 239.249,-78.4762"/>
</g>
<!-- Node30&#45;&gt;Node11 -->
<g id="edge66" class="edge"><title>Node30&#45;&gt;Node11</title>
<path fill="none" stroke="midnightblue" d="M1534.38,-191.878C1312.97,-184.287 394.361,-152.261 383,-143 366.318,-129.401 363,-103.573 362.898,-85.8317"/>
<polygon fill="midnightblue" stroke="midnightblue" points="366.398,-85.8734 363.174,-75.7813 359.401,-85.6816 366.398,-85.8734"/>
</g>
<!-- Node30&#45;&gt;Node25 -->
<g id="edge67" class="edge"><title>Node30&#45;&gt;Node25</title>
<path fill="none" stroke="midnightblue" d="M1629.59,-192.574C1715.33,-189.342 1881.71,-175.017 1824,-112 1790.92,-75.8737 1437.24,-68.6054 1338.48,-67.276"/>
<polygon fill="midnightblue" stroke="midnightblue" points="1338.28,-63.7732 1328.23,-67.1474 1338.19,-70.7727 1338.28,-63.7732"/>
</g>
<!-- Node30&#45;&gt;Node27 -->
<g id="edge70" class="edge"><title>Node30&#45;&gt;Node27</title>
<path fill="none" stroke="midnightblue" d="M1629.67,-193.609C1777.08,-193.452 2218.2,-189.103 2261,-143 2275.57,-127.301 2266.52,-101.622 2257.65,-84.5179"/>
<polygon fill="midnightblue" stroke="midnightblue" points="2260.57,-82.5801 2252.62,-75.5786 2254.47,-86.0107 2260.57,-82.5801"/>
</g>
<!-- Node31 -->
<g id="node32" class="node"><title>Node31</title>
<g id="a_node32"><a xlink:href="string_8h.html" target="_top" xlink:title="base/std_ext/string.h">
<polygon fill="white" stroke="black" points="1871.5,-118 1871.5,-137 1988.5,-137 1988.5,-118 1871.5,-118"/>
<text text-anchor="middle" x="1930" y="-125" font-family="Helvetica,sans-Serif" font-size="10.00">base/std_ext/string.h</text>
</a>
</g>
</g>
<!-- Node30&#45;&gt;Node31 -->
<g id="edge47" class="edge"><title>Node30&#45;&gt;Node31</title>
<path fill="none" stroke="midnightblue" d="M1629.73,-184.951C1684.61,-175.071 1777.38,-158.218 1857,-143 1863.65,-141.729 1870.64,-140.37 1877.55,-139.014"/>
<polygon fill="midnightblue" stroke="midnightblue" points="1878.43,-142.408 1887.56,-137.038 1877.07,-135.54 1878.43,-142.408"/>
</g>
<!-- Node33 -->
<g id="node34" class="node"><title>Node33</title>
<g id="a_node34"><a xlink:href="misc_8h.html" target="_top" xlink:title="base/std_ext/misc.h">
<polygon fill="white" stroke="black" points="2006.5,-118 2006.5,-137 2119.5,-137 2119.5,-118 2006.5,-118"/>
<text text-anchor="middle" x="2063" y="-125" font-family="Helvetica,sans-Serif" font-size="10.00">base/std_ext/misc.h</text>
</a>
</g>
</g>
<!-- Node30&#45;&gt;Node33 -->
<g id="edge52" class="edge"><title>Node30&#45;&gt;Node33</title>
<path fill="none" stroke="midnightblue" d="M1629.64,-189.26C1707.17,-182.014 1865.35,-165.79 1998,-143 2004.36,-141.908 2011.03,-140.603 2017.58,-139.231"/>
<polygon fill="midnightblue" stroke="midnightblue" points="2018.67,-142.575 2027.7,-137.038 2017.19,-135.734 2018.67,-142.575"/>
</g>
<!-- Node35 -->
<g id="node36" class="node"><title>Node35</title>
<polygon fill="white" stroke="#bfbfbf" points="1332,-118 1332,-137 1378,-137 1378,-118 1332,-118"/>
<text text-anchor="middle" x="1355" y="-125" font-family="Helvetica,sans-Serif" font-size="10.00">TFile.h</text>
</g>
<!-- Node30&#45;&gt;Node35 -->
<g id="edge59" class="edge"><title>Node30&#45;&gt;Node35</title>
<path fill="none" stroke="midnightblue" d="M1540.68,-184.969C1500.78,-176.227 1438.94,-161.339 1387,-143 1385.34,-142.414 1383.65,-141.775 1381.95,-141.104"/>
<polygon fill="midnightblue" stroke="midnightblue" points="1382.95,-137.728 1372.38,-137.031 1380.21,-144.168 1382.95,-137.728"/>
</g>
<!-- Node36 -->
<g id="node37" class="node"><title>Node36</title>
<polygon fill="white" stroke="#bfbfbf" points="1396.5,-118 1396.5,-137 1469.5,-137 1469.5,-118 1396.5,-118"/>
<text text-anchor="middle" x="1433" y="-125" font-family="Helvetica,sans-Serif" font-size="10.00">TDirectory.h</text>
</g>
<!-- Node30&#45;&gt;Node36 -->
<g id="edge60" class="edge"><title>Node30&#45;&gt;Node36</title>
<path fill="none" stroke="midnightblue" d="M1562.21,-184.869C1536.61,-173.699 1491.79,-154.147 1462.25,-141.26"/>
<polygon fill="midnightblue" stroke="midnightblue" points="1463.43,-137.958 1452.87,-137.167 1460.63,-144.374 1463.43,-137.958"/>
</g>
<!-- Node37 -->
<g id="node38" class="node"><title>Node37</title>
<polygon fill="white" stroke="#bfbfbf" points="1487.5,-118 1487.5,-137 1540.5,-137 1540.5,-118 1487.5,-118"/>
<text text-anchor="middle" x="1514" y="-125" font-family="Helvetica,sans-Serif" font-size="10.00">TError.h</text>
</g>
<!-- Node30&#45;&gt;Node37 -->
<g id="edge61" class="edge"><title>Node30&#45;&gt;Node37</title>
<path fill="none" stroke="midnightblue" d="M1572.83,-184.734C1562.02,-174.403 1543.85,-157.037 1530.56,-144.332"/>
<polygon fill="midnightblue" stroke="midnightblue" points="1532.67,-141.507 1523.03,-137.127 1527.84,-146.567 1532.67,-141.507"/>
</g>
<!-- Node38 -->
<g id="node39" class="node"><title>Node38</title>
<polygon fill="white" stroke="#bfbfbf" points="1558.5,-118 1558.5,-137 1605.5,-137 1605.5,-118 1558.5,-118"/>
<text text-anchor="middle" x="1582" y="-125" font-family="Helvetica,sans-Serif" font-size="10.00">TList.h</text>
</g>
<!-- Node30&#45;&gt;Node38 -->
<g id="edge62" class="edge"><title>Node30&#45;&gt;Node38</title>
<path fill="none" stroke="midnightblue" d="M1582,-184.734C1582,-175.183 1582,-159.618 1582,-147.283"/>
<polygon fill="midnightblue" stroke="midnightblue" points="1585.5,-147.127 1582,-137.127 1578.5,-147.127 1585.5,-147.127"/>
</g>
<!-- Node39 -->
<g id="node40" class="node"><title>Node39</title>
<polygon fill="white" stroke="#bfbfbf" points="1623.5,-118 1623.5,-137 1700.5,-137 1700.5,-118 1623.5,-118"/>
<text text-anchor="middle" x="1662" y="-125" font-family="Helvetica,sans-Serif" font-size="10.00">TCollection.h</text>
</g>
<!-- Node30&#45;&gt;Node39 -->
<g id="edge63" class="edge"><title>Node30&#45;&gt;Node39</title>
<path fill="none" stroke="midnightblue" d="M1592.79,-184.734C1605.74,-174.208 1627.69,-156.379 1643.39,-143.617"/>
<polygon fill="midnightblue" stroke="midnightblue" points="1645.83,-146.15 1651.38,-137.127 1641.41,-140.717 1645.83,-146.15"/>
</g>
<!-- Node40 -->
<g id="node41" class="node"><title>Node40</title>
<polygon fill="white" stroke="#bfbfbf" points="1719,-118 1719,-137 1765,-137 1765,-118 1719,-118"/>
<text text-anchor="middle" x="1742" y="-125" font-family="Helvetica,sans-Serif" font-size="10.00">TKey.h</text>
</g>
<!-- Node30&#45;&gt;Node40 -->
<g id="edge64" class="edge"><title>Node30&#45;&gt;Node40</title>
<path fill="none" stroke="midnightblue" d="M1604.8,-184.898C1630.5,-175.108 1673.48,-158.465 1710,-143 1711.37,-142.42 1712.77,-141.819 1714.18,-141.207"/>
<polygon fill="midnightblue" stroke="midnightblue" points="1715.73,-144.345 1723.46,-137.091 1712.9,-137.947 1715.73,-144.345"/>
</g>
<!-- Node41 -->
<g id="node42" class="node"><title>Node41</title>
<polygon fill="white" stroke="#bfbfbf" points="1783,-118 1783,-137 1815,-137 1815,-118 1783,-118"/>
<text text-anchor="middle" x="1799" y="-125" font-family="Helvetica,sans-Serif" font-size="10.00">set</text>
</g>
<!-- Node30&#45;&gt;Node41 -->
<g id="edge68" class="edge"><title>Node30&#45;&gt;Node41</title>
<path fill="none" stroke="midnightblue" d="M1628.52,-184.921C1668.12,-176.763 1726.05,-162.788 1774,-143 1774.87,-142.64 1775.75,-142.254 1776.63,-141.849"/>
<polygon fill="midnightblue" stroke="midnightblue" points="1778.62,-144.76 1785.85,-137.013 1775.36,-138.562 1778.62,-144.76"/>
</g>
<!-- Node31&#45;&gt;Node11 -->
<g id="edge48" class="edge"><title>Node31&#45;&gt;Node11</title>
<path fill="none" stroke="midnightblue" d="M1875.93,-117.967C1859.31,-115.651 1840.94,-113.4 1824,-112 1272.76,-66.4525 1132.78,-95.5137 580,-76 514.785,-73.6978 438.521,-70.3714 396.297,-68.4739"/>
<polygon fill="midnightblue" stroke="midnightblue" points="396.221,-64.967 386.074,-68.0125 395.906,-71.9599 396.221,-64.967"/>
</g>
<!-- Node31&#45;&gt;Node20 -->
<g id="edge51" class="edge"><title>Node31&#45;&gt;Node20</title>
<path fill="none" stroke="midnightblue" d="M1873.15,-117.99C1857.27,-115.813 1839.98,-113.629 1824,-112 1590.15,-88.1666 1525.76,-114.8 1289.59,-75.7238"/>
<polygon fill="midnightblue" stroke="midnightblue" points="1290.11,-72.2622 1279.67,-74.0606 1288.95,-79.1658 1290.11,-72.2622"/>
</g>
<!-- Node31&#45;&gt;Node28 -->
<g id="edge50" class="edge"><title>Node31&#45;&gt;Node28</title>
<path fill="none" stroke="midnightblue" d="M1959.23,-117.975C1994.9,-107.57 2055.36,-89.9367 2094.98,-78.3801"/>
<polygon fill="midnightblue" stroke="midnightblue" points="2096.21,-81.6692 2104.83,-75.5091 2094.25,-74.9492 2096.21,-81.6692"/>
</g>
<!-- Node32 -->
<g id="node33" class="node"><title>Node32</title>
<polygon fill="white" stroke="#bfbfbf" points="1902,-56.5 1902,-75.5 1958,-75.5 1958,-56.5 1902,-56.5"/>
<text text-anchor="middle" x="1930" y="-63.5" font-family="Helvetica,sans-Serif" font-size="10.00">sstream</text>
</g>
<!-- Node31&#45;&gt;Node32 -->
<g id="edge49" class="edge"><title>Node31&#45;&gt;Node32</title>
<path fill="none" stroke="midnightblue" d="M1930,-117.975C1930,-109.58 1930,-96.4806 1930,-85.6631"/>
<polygon fill="midnightblue" stroke="midnightblue" points="1933.5,-85.5091 1930,-75.5091 1926.5,-85.5091 1933.5,-85.5091"/>
</g>
<!-- Node33&#45;&gt;Node5 -->
<g id="edge58" class="edge"><title>Node33&#45;&gt;Node5</title>
<path fill="none" stroke="midnightblue" d="M2030.14,-117.941C2019.91,-115.609 2008.55,-113.355 1998,-112 1557.33,-55.3956 1441.83,-111.972 999,-76 988.504,-75.1474 977.177,-73.873 966.718,-72.5494"/>
<polygon fill="midnightblue" stroke="midnightblue" points="966.982,-69.0542 956.612,-71.2233 966.072,-75.9947 966.982,-69.0542"/>
</g>
<!-- Node33&#45;&gt;Node16 -->
<g id="edge55" class="edge"><title>Node33&#45;&gt;Node16</title>
<path fill="none" stroke="midnightblue" d="M2055.03,-117.936C2039.74,-102.194 2004.49,-69.0745 1967,-56 1855.14,-16.9874 990.948,-11.7642 808.682,-11.0948"/>
<polygon fill="midnightblue" stroke="midnightblue" points="808.625,-7.59465 798.613,-11.06 808.6,-14.5946 808.625,-7.59465"/>
</g>
<!-- Node33&#45;&gt;Node22 -->
<g id="edge57" class="edge"><title>Node33&#45;&gt;Node22</title>
<path fill="none" stroke="midnightblue" d="M2029.8,-117.932C2019.66,-115.63 2008.43,-113.395 1998,-112 1656.23,-66.2914 1567.42,-92.5622 1223,-76 1176.38,-73.758 1123.01,-71.0921 1086.36,-69.2464"/>
<polygon fill="midnightblue" stroke="midnightblue" points="1086.19,-65.7332 1076.03,-68.725 1085.84,-72.7243 1086.19,-65.7332"/>
</g>
<!-- Node33&#45;&gt;Node27 -->
<g id="edge54" class="edge"><title>Node33&#45;&gt;Node27</title>
<path fill="none" stroke="midnightblue" d="M2089.36,-117.975C2121.34,-107.636 2175.38,-90.1611 2211.12,-78.6017"/>
<polygon fill="midnightblue" stroke="midnightblue" points="2212.25,-81.9162 2220.69,-75.5091 2210.09,-75.2558 2212.25,-81.9162"/>
</g>
<!-- Node33&#45;&gt;Node28 -->
<g id="edge53" class="edge"><title>Node33&#45;&gt;Node28</title>
<path fill="none" stroke="midnightblue" d="M2073.17,-117.975C2084.35,-108.608 2102.52,-93.3839 2116.09,-82.0081"/>
<polygon fill="midnightblue" stroke="midnightblue" points="2118.43,-84.6148 2123.85,-75.5091 2113.93,-79.2496 2118.43,-84.6148"/>
</g>
<!-- Node34 -->
<g id="node35" class="node"><title>Node34</title>
<polygon fill="white" stroke="#bfbfbf" points="2029,-56.5 2029,-75.5 2085,-75.5 2085,-56.5 2029,-56.5"/>
<text text-anchor="middle" x="2057" y="-63.5" font-family="Helvetica,sans-Serif" font-size="10.00">cxxabi.h</text>
</g>
<!-- Node33&#45;&gt;Node34 -->
<g id="edge56" class="edge"><title>Node33&#45;&gt;Node34</title>
<path fill="none" stroke="midnightblue" d="M2062.14,-117.975C2061.29,-109.58 2059.97,-96.4806 2058.88,-85.6631"/>
<polygon fill="midnightblue" stroke="midnightblue" points="2062.34,-85.1074 2057.86,-75.5091 2055.38,-85.8098 2062.34,-85.1074"/>
</g>
</g>
</svg>
