<?xml version="1.0" encoding="UTF-8" standalone="no"?>
<!DOCTYPE svg PUBLIC "-//W3C//DTD SVG 1.1//EN"
 "http://www.w3.org/Graphics/SVG/1.1/DTD/svg11.dtd">
<!-- Generated by graphviz version 2.38.0 (20140413.2041)
 -->
<!-- Title: progs/Ant&#45;copyTree.cc Pages: 1 -->
<svg width="1148pt" height="196pt"
 viewBox="0.00 0.00 1147.50 196.00" xmlns="http://www.w3.org/2000/svg" xmlns:xlink="http://www.w3.org/1999/xlink">
<g id="graph0" class="graph" transform="scale(1 1) rotate(0) translate(4 192)">
<title>progs/Ant&#45;copyTree.cc</title>
<polygon fill="white" stroke="none" points="-4,4 -4,-192 1143.5,-192 1143.5,4 -4,4"/>
<!-- Node0 -->
<g id="node1" class="node"><title>Node0</title>
<polygon fill="#bfbfbf" stroke="black" points="566.5,-168.5 566.5,-187.5 688.5,-187.5 688.5,-168.5 566.5,-168.5"/>
<text text-anchor="middle" x="627.5" y="-175.5" font-family="Helvetica,sans-Serif" font-size="10.00">progs/Ant&#45;copyTree.cc</text>
</g>
<!-- Node1 -->
<g id="node2" class="node"><title>Node1</title>
<g id="a_node2"><a xlink:href="_logger_8h.html" target="_top" xlink:title="base/Logger.h">
<polygon fill="white" stroke="black" points="186.5,-112.5 186.5,-131.5 270.5,-131.5 270.5,-112.5 186.5,-112.5"/>
<text text-anchor="middle" x="228.5" y="-119.5" font-family="Helvetica,sans-Serif" font-size="10.00">base/Logger.h</text>
</a>
</g>
</g>
<!-- Node0&#45;&gt;Node1 -->
<g id="edge1" class="edge"><title>Node0&#45;&gt;Node1</title>
<path fill="none" stroke="midnightblue" d="M566.466,-168.74C488.28,-158.158 354.103,-139.999 280.527,-130.041"/>
<polygon fill="midnightblue" stroke="midnightblue" points="280.939,-126.565 270.56,-128.692 280,-133.502 280.939,-126.565"/>
</g>
<!-- Node3 -->
<g id="node4" class="node"><title>Node3</title>
<polygon fill="white" stroke="#bfbfbf" points="467.5,-112.5 467.5,-131.5 561.5,-131.5 561.5,-112.5 467.5,-112.5"/>
<text text-anchor="middle" x="514.5" y="-119.5" font-family="Helvetica,sans-Serif" font-size="10.00">tclap/CmdLine.h</text>
</g>
<!-- Node0&#45;&gt;Node3 -->
<g id="edge3" class="edge"><title>Node0&#45;&gt;Node3</title>
<path fill="none" stroke="midnightblue" d="M609.595,-168.444C591.246,-159.675 562.495,-145.935 541.406,-135.858"/>
<polygon fill="midnightblue" stroke="midnightblue" points="542.853,-132.67 532.321,-131.516 539.835,-138.986 542.853,-132.67"/>
</g>
<!-- Node4 -->
<g id="node5" class="node"><title>Node4</title>
<g id="a_node5"><a xlink:href="_wrap_t_file_8h.html" target="_top" xlink:title="base/WrapTFile.h">
<polygon fill="white" stroke="black" points="580,-112.5 580,-131.5 675,-131.5 675,-112.5 580,-112.5"/>
<text text-anchor="middle" x="627.5" y="-119.5" font-family="Helvetica,sans-Serif" font-size="10.00">base/WrapTFile.h</text>
</a>
</g>
</g>
<!-- Node0&#45;&gt;Node4 -->
<g id="edge4" class="edge"><title>Node0&#45;&gt;Node4</title>
<path fill="none" stroke="midnightblue" d="M627.5,-168.083C627.5,-161.006 627.5,-150.861 627.5,-141.986"/>
<polygon fill="midnightblue" stroke="midnightblue" points="631,-141.751 627.5,-131.751 624,-141.751 631,-141.751"/>
</g>
<!-- Node25 -->
<g id="node26" class="node"><title>Node25</title>
<polygon fill="white" stroke="#bfbfbf" points="693.5,-112.5 693.5,-131.5 743.5,-131.5 743.5,-112.5 693.5,-112.5"/>
<text text-anchor="middle" x="718.5" y="-119.5" font-family="Helvetica,sans-Serif" font-size="10.00">TTree.h</text>
</g>
<!-- Node0&#45;&gt;Node25 -->
<g id="edge29" class="edge"><title>Node0&#45;&gt;Node25</title>
<path fill="none" stroke="midnightblue" d="M642.121,-168.324C656.449,-159.822 678.513,-146.729 695.249,-136.797"/>
<polygon fill="midnightblue" stroke="midnightblue" points="697.102,-139.768 703.916,-131.655 693.53,-133.748 697.102,-139.768"/>
</g>
<!-- Node26 -->
<g id="node27" class="node"><title>Node26</title>
<polygon fill="white" stroke="#bfbfbf" points="762,-112.5 762,-131.5 821,-131.5 821,-112.5 762,-112.5"/>
<text text-anchor="middle" x="791.5" y="-119.5" font-family="Helvetica,sans-Serif" font-size="10.00">iostream</text>
</g>
<!-- Node0&#45;&gt;Node26 -->
<g id="edge30" class="edge"><title>Node0&#45;&gt;Node26</title>
<path fill="none" stroke="midnightblue" d="M653.486,-168.444C681.196,-159.32 725.252,-144.813 756.116,-134.651"/>
<polygon fill="midnightblue" stroke="midnightblue" points="757.232,-137.968 765.635,-131.516 755.042,-131.32 757.232,-137.968"/>
</g>
<!-- Node2 -->
<g id="node3" class="node"><title>Node2</title>
<polygon fill="white" stroke="#bfbfbf" points="0,-56.5 0,-75.5 99,-75.5 99,-56.5 0,-56.5"/>
<text text-anchor="middle" x="49.5" y="-63.5" font-family="Helvetica,sans-Serif" font-size="10.00">easylogging++.h</text>
</g>
<!-- Node1&#45;&gt;Node2 -->
<g id="edge2" class="edge"><title>Node1&#45;&gt;Node2</title>
<path fill="none" stroke="midnightblue" d="M200.137,-112.444C169.762,-103.28 121.39,-88.6876 87.684,-78.5192"/>
<polygon fill="midnightblue" stroke="midnightblue" points="88.3151,-75.0538 77.7304,-75.5164 86.2933,-81.7555 88.3151,-75.0538"/>
</g>
<!-- Node5 -->
<g id="node6" class="node"><title>Node5</title>
<g id="a_node6"><a xlink:href="string_8h.html" target="_top" xlink:title="base/std_ext/string.h">
<polygon fill="white" stroke="black" points="156,-56.5 156,-75.5 273,-75.5 273,-56.5 156,-56.5"/>
<text text-anchor="middle" x="214.5" y="-63.5" font-family="Helvetica,sans-Serif" font-size="10.00">base/std_ext/string.h</text>
</a>
</g>
</g>
<!-- Node4&#45;&gt;Node5 -->
<g id="edge5" class="edge"><title>Node4&#45;&gt;Node5</title>
<path fill="none" stroke="midnightblue" d="M579.931,-113.377C576.741,-112.9 573.575,-112.437 570.5,-112 470.857,-97.8392 355.2,-83.63 283.424,-75.0731"/>
<polygon fill="midnightblue" stroke="midnightblue" points="283.503,-71.5579 273.16,-73.8523 282.676,-78.5089 283.503,-71.5579"/>
</g>
<!-- Node6 -->
<g id="node7" class="node"><title>Node6</title>
<polygon fill="white" stroke="#bfbfbf" points="26.5,-0.5 26.5,-19.5 70.5,-19.5 70.5,-0.5 26.5,-0.5"/>
<text text-anchor="middle" x="48.5" y="-7.5" font-family="Helvetica,sans-Serif" font-size="10.00">string</text>
</g>
<!-- Node4&#45;&gt;Node6 -->
<g id="edge24" class="edge"><title>Node4&#45;&gt;Node6</title>
<path fill="none" stroke="midnightblue" d="M579.95,-113.23C576.755,-112.789 573.583,-112.374 570.5,-112 382.752,-89.2373 325.098,-138.209 146.5,-76 130.002,-70.2536 91.7664,-43.142 68.229,-25.7985"/>
<polygon fill="midnightblue" stroke="midnightblue" points="70.1199,-22.8433 60.0038,-19.6947 65.9485,-28.4646 70.1199,-22.8433"/>
</g>
<!-- Node10 -->
<g id="node11" class="node"><title>Node10</title>
<g id="a_node11"><a xlink:href="misc_8h.html" target="_top" xlink:title="base/std_ext/misc.h">
<polygon fill="white" stroke="black" points="357,-56.5 357,-75.5 470,-75.5 470,-56.5 357,-56.5"/>
<text text-anchor="middle" x="413.5" y="-63.5" font-family="Helvetica,sans-Serif" font-size="10.00">base/std_ext/misc.h</text>
</a>
</g>
</g>
<!-- Node4&#45;&gt;Node10 -->
<g id="edge10" class="edge"><title>Node4&#45;&gt;Node10</title>
<path fill="none" stroke="midnightblue" d="M593.591,-112.444C556.651,-103.122 497.446,-88.1828 457.082,-77.9972"/>
<polygon fill="midnightblue" stroke="midnightblue" points="457.803,-74.5695 447.25,-75.5164 456.09,-81.3568 457.803,-74.5695"/>
</g>
<!-- Node11 -->
<g id="node12" class="node"><title>Node11</title>
<polygon fill="white" stroke="#bfbfbf" points="309,-0.5 309,-19.5 372,-19.5 372,-0.5 309,-0.5"/>
<text text-anchor="middle" x="340.5" y="-7.5" font-family="Helvetica,sans-Serif" font-size="10.00">functional</text>
</g>
<!-- Node4&#45;&gt;Node11 -->
<g id="edge28" class="edge"><title>Node4&#45;&gt;Node11</title>
<path fill="none" stroke="midnightblue" d="M579.788,-113.424C499.976,-100.739 348,-76.5266 347.5,-76 336.043,-63.93 335.414,-44.3633 336.967,-29.8468"/>
<polygon fill="midnightblue" stroke="midnightblue" points="340.432,-30.3438 338.438,-19.9383 333.508,-29.3161 340.432,-30.3438"/>
</g>
<!-- Node15 -->
<g id="node16" class="node"><title>Node15</title>
<polygon fill="white" stroke="#bfbfbf" points="616,-0.5 616,-19.5 673,-19.5 673,-0.5 616,-0.5"/>
<text text-anchor="middle" x="644.5" y="-7.5" font-family="Helvetica,sans-Serif" font-size="10.00">memory</text>
</g>
<!-- Node4&#45;&gt;Node15 -->
<g id="edge23" class="edge"><title>Node4&#45;&gt;Node15</title>
<path fill="none" stroke="midnightblue" d="M583.324,-112.482C544.51,-102.903 497.147,-84.8046 517.5,-56 522.883,-48.3821 570.86,-32.7878 606.264,-22.1139"/>
<polygon fill="midnightblue" stroke="midnightblue" points="607.291,-25.4602 615.871,-19.2446 605.287,-18.753 607.291,-25.4602"/>
</g>
<!-- Node16 -->
<g id="node17" class="node"><title>Node16</title>
<polygon fill="white" stroke="#bfbfbf" points="526.5,-56.5 526.5,-75.5 572.5,-75.5 572.5,-56.5 526.5,-56.5"/>
<text text-anchor="middle" x="549.5" y="-63.5" font-family="Helvetica,sans-Serif" font-size="10.00">TFile.h</text>
</g>
<!-- Node4&#45;&gt;Node16 -->
<g id="edge17" class="edge"><title>Node4&#45;&gt;Node16</title>
<path fill="none" stroke="midnightblue" d="M614.968,-112.324C602.914,-103.979 584.473,-91.2122 570.231,-81.3524"/>
<polygon fill="midnightblue" stroke="midnightblue" points="572.215,-78.469 562.001,-75.6545 568.231,-84.2243 572.215,-78.469"/>
</g>
<!-- Node17 -->
<g id="node18" class="node"><title>Node17</title>
<polygon fill="white" stroke="#bfbfbf" points="591,-56.5 591,-75.5 664,-75.5 664,-56.5 591,-56.5"/>
<text text-anchor="middle" x="627.5" y="-63.5" font-family="Helvetica,sans-Serif" font-size="10.00">TDirectory.h</text>
</g>
<!-- Node4&#45;&gt;Node17 -->
<g id="edge18" class="edge"><title>Node4&#45;&gt;Node17</title>
<path fill="none" stroke="midnightblue" d="M627.5,-112.083C627.5,-105.006 627.5,-94.8611 627.5,-85.9865"/>
<polygon fill="midnightblue" stroke="midnightblue" points="631,-85.751 627.5,-75.7511 624,-85.7511 631,-85.751"/>
</g>
<!-- Node18 -->
<g id="node19" class="node"><title>Node18</title>
<polygon fill="white" stroke="#bfbfbf" points="682,-56.5 682,-75.5 735,-75.5 735,-56.5 682,-56.5"/>
<text text-anchor="middle" x="708.5" y="-63.5" font-family="Helvetica,sans-Serif" font-size="10.00">TError.h</text>
</g>
<!-- Node4&#45;&gt;Node18 -->
<g id="edge19" class="edge"><title>Node4&#45;&gt;Node18</title>
<path fill="none" stroke="midnightblue" d="M640.514,-112.324C653.032,-103.979 672.182,-91.2122 686.971,-81.3524"/>
<polygon fill="midnightblue" stroke="midnightblue" points="689.139,-84.1137 695.518,-75.6545 685.256,-78.2894 689.139,-84.1137"/>
</g>
<!-- Node19 -->
<g id="node20" class="node"><title>Node19</title>
<polygon fill="white" stroke="#bfbfbf" points="753,-56.5 753,-75.5 800,-75.5 800,-56.5 753,-56.5"/>
<text text-anchor="middle" x="776.5" y="-63.5" font-family="Helvetica,sans-Serif" font-size="10.00">TList.h</text>
</g>
<!-- Node4&#45;&gt;Node19 -->
<g id="edge20" class="edge"><title>Node4&#45;&gt;Node19</title>
<path fill="none" stroke="midnightblue" d="M651.109,-112.444C675.958,-103.438 715.274,-89.1891 743.254,-79.049"/>
<polygon fill="midnightblue" stroke="midnightblue" points="744.792,-82.2144 753.001,-75.5164 742.407,-75.6332 744.792,-82.2144"/>
</g>
<!-- Node20 -->
<g id="node21" class="node"><title>Node20</title>
<polygon fill="white" stroke="#bfbfbf" points="818,-56.5 818,-75.5 895,-75.5 895,-56.5 818,-56.5"/>
<text text-anchor="middle" x="856.5" y="-63.5" font-family="Helvetica,sans-Serif" font-size="10.00">TCollection.h</text>
</g>
<!-- Node4&#45;&gt;Node20 -->
<g id="edge21" class="edge"><title>Node4&#45;&gt;Node20</title>
<path fill="none" stroke="midnightblue" d="M663.786,-112.444C703.483,-103.083 767.207,-88.0561 810.412,-77.868"/>
<polygon fill="midnightblue" stroke="midnightblue" points="811.454,-81.2182 820.384,-75.5164 809.848,-74.4051 811.454,-81.2182"/>
</g>
<!-- Node21 -->
<g id="node22" class="node"><title>Node21</title>
<polygon fill="white" stroke="#bfbfbf" points="913.5,-56.5 913.5,-75.5 959.5,-75.5 959.5,-56.5 913.5,-56.5"/>
<text text-anchor="middle" x="936.5" y="-63.5" font-family="Helvetica,sans-Serif" font-size="10.00">TKey.h</text>
</g>
<!-- Node4&#45;&gt;Node21 -->
<g id="edge22" class="edge"><title>Node4&#45;&gt;Node21</title>
<path fill="none" stroke="midnightblue" d="M675.21,-113.393C743.571,-102.475 864.727,-83.0512 903.306,-75.8628"/>
<polygon fill="midnightblue" stroke="midnightblue" points="904.038,-79.2857 913.158,-73.894 902.666,-72.4214 904.038,-79.2857"/>
</g>
<!-- Node22 -->
<g id="node23" class="node"><title>Node22</title>
<polygon fill="white" stroke="#bfbfbf" points="977.5,-56.5 977.5,-75.5 1007.5,-75.5 1007.5,-56.5 977.5,-56.5"/>
<text text-anchor="middle" x="992.5" y="-63.5" font-family="Helvetica,sans-Serif" font-size="10.00">list</text>
</g>
<!-- Node4&#45;&gt;Node22 -->
<g id="edge25" class="edge"><title>Node4&#45;&gt;Node22</title>
<path fill="none" stroke="midnightblue" d="M675.069,-113.378C678.259,-112.901 681.425,-112.438 684.5,-112 807.265,-94.5313 843.176,-105.93 967.531,-75.7053"/>
<polygon fill="midnightblue" stroke="midnightblue" points="968.566,-79.0549 977.433,-73.257 966.885,-72.2595 968.566,-79.0549"/>
</g>
<!-- Node23 -->
<g id="node24" class="node"><title>Node23</title>
<polygon fill="white" stroke="#bfbfbf" points="1025.5,-56.5 1025.5,-75.5 1057.5,-75.5 1057.5,-56.5 1025.5,-56.5"/>
<text text-anchor="middle" x="1041.5" y="-63.5" font-family="Helvetica,sans-Serif" font-size="10.00">set</text>
</g>
<!-- Node4&#45;&gt;Node23 -->
<g id="edge26" class="edge"><title>Node4&#45;&gt;Node23</title>
<path fill="none" stroke="midnightblue" d="M675.061,-113.313C678.253,-112.852 681.421,-112.41 684.5,-112 828.319,-92.86 870.018,-108.629 1015.09,-75.8135"/>
<polygon fill="midnightblue" stroke="midnightblue" points="1016.3,-79.1274 1025.26,-73.4736 1014.73,-72.3058 1016.3,-79.1274"/>
</g>
<!-- Node24 -->
<g id="node25" class="node"><title>Node24</title>
<polygon fill="white" stroke="#bfbfbf" points="1075.5,-56.5 1075.5,-75.5 1139.5,-75.5 1139.5,-56.5 1075.5,-56.5"/>
<text text-anchor="middle" x="1107.5" y="-63.5" font-family="Helvetica,sans-Serif" font-size="10.00">stdexcept</text>
</g>
<!-- Node4&#45;&gt;Node24 -->
<g id="edge27" class="edge"><title>Node4&#45;&gt;Node24</title>
<path fill="none" stroke="midnightblue" d="M675.054,-113.263C678.248,-112.814 681.419,-112.388 684.5,-112 850.472,-91.0972 896.282,-101.899 1065.35,-75.9986"/>
<polygon fill="midnightblue" stroke="midnightblue" points="1066,-79.4408 1075.34,-74.4482 1064.92,-72.5237 1066,-79.4408"/>
</g>
<!-- Node5&#45;&gt;Node6 -->
<g id="edge6" class="edge"><title>Node5&#45;&gt;Node6</title>
<path fill="none" stroke="midnightblue" d="M188.197,-56.4435C158.912,-46.9171 111.589,-31.5228 80.2617,-21.3321"/>
<polygon fill="midnightblue" stroke="midnightblue" points="81.288,-17.9855 70.6958,-18.2203 79.1225,-24.6422 81.288,-17.9855"/>
</g>
<!-- Node7 -->
<g id="node8" class="node"><title>Node7</title>
<polygon fill="white" stroke="#bfbfbf" points="88.5,-0.5 88.5,-19.5 144.5,-19.5 144.5,-0.5 88.5,-0.5"/>
<text text-anchor="middle" x="116.5" y="-7.5" font-family="Helvetica,sans-Serif" font-size="10.00">sstream</text>
</g>
<!-- Node5&#45;&gt;Node7 -->
<g id="edge7" class="edge"><title>Node5&#45;&gt;Node7</title>
<path fill="none" stroke="midnightblue" d="M198.755,-56.324C183.181,-47.7428 159.123,-34.486 141.041,-24.5224"/>
<polygon fill="midnightblue" stroke="midnightblue" points="142.654,-21.4152 132.206,-19.6545 139.276,-27.546 142.654,-21.4152"/>
</g>
<!-- Node8 -->
<g id="node9" class="node"><title>Node8</title>
<polygon fill="white" stroke="#bfbfbf" points="228.5,-0.5 228.5,-19.5 290.5,-19.5 290.5,-0.5 228.5,-0.5"/>
<text text-anchor="middle" x="259.5" y="-7.5" font-family="Helvetica,sans-Serif" font-size="10.00">algorithm</text>
</g>
<!-- Node5&#45;&gt;Node8 -->
<g id="edge8" class="edge"><title>Node5&#45;&gt;Node8</title>
<path fill="none" stroke="midnightblue" d="M221.931,-56.083C228.353,-48.3768 237.806,-37.0333 245.622,-27.6531"/>
<polygon fill="midnightblue" stroke="midnightblue" points="248.494,-29.674 252.207,-19.7511 243.117,-25.1927 248.494,-29.674"/>
</g>
<!-- Node9 -->
<g id="node10" class="node"><title>Node9</title>
<polygon fill="white" stroke="#bfbfbf" points="163,-0.5 163,-19.5 210,-19.5 210,-0.5 163,-0.5"/>
<text text-anchor="middle" x="186.5" y="-7.5" font-family="Helvetica,sans-Serif" font-size="10.00">vector</text>
</g>
<!-- Node5&#45;&gt;Node9 -->
<g id="edge9" class="edge"><title>Node5&#45;&gt;Node9</title>
<path fill="none" stroke="midnightblue" d="M209.876,-56.083C206.044,-48.6913 200.476,-37.9533 195.735,-28.8111"/>
<polygon fill="midnightblue" stroke="midnightblue" points="198.748,-27.0175 191.038,-19.7511 192.534,-30.2398 198.748,-27.0175"/>
</g>
<!-- Node10&#45;&gt;Node8 -->
<g id="edge11" class="edge"><title>Node10&#45;&gt;Node8</title>
<path fill="none" stroke="midnightblue" d="M389.098,-56.4435C363.303,-47.3986 322.423,-33.064 293.482,-22.9158"/>
<polygon fill="midnightblue" stroke="midnightblue" points="294.382,-19.5226 283.788,-19.5164 292.066,-26.1283 294.382,-19.5226"/>
</g>
<!-- Node10&#45;&gt;Node11 -->
<g id="edge12" class="edge"><title>Node10&#45;&gt;Node11</title>
<path fill="none" stroke="midnightblue" d="M401.771,-56.324C390.663,-48.1066 373.758,-35.6017 360.517,-25.8069"/>
<polygon fill="midnightblue" stroke="midnightblue" points="362.563,-22.9671 352.442,-19.8339 358.4,-28.5948 362.563,-22.9671"/>
</g>
<!-- Node12 -->
<g id="node13" class="node"><title>Node12</title>
<polygon fill="white" stroke="#bfbfbf" points="390,-0.5 390,-19.5 437,-19.5 437,-0.5 390,-0.5"/>
<text text-anchor="middle" x="413.5" y="-7.5" font-family="Helvetica,sans-Serif" font-size="10.00">cmath</text>
</g>
<!-- Node10&#45;&gt;Node12 -->
<g id="edge13" class="edge"><title>Node10&#45;&gt;Node12</title>
<path fill="none" stroke="midnightblue" d="M413.5,-56.083C413.5,-49.0059 413.5,-38.8611 413.5,-29.9865"/>
<polygon fill="midnightblue" stroke="midnightblue" points="417,-29.751 413.5,-19.7511 410,-29.7511 417,-29.751"/>
</g>
<!-- Node13 -->
<g id="node14" class="node"><title>Node13</title>
<polygon fill="white" stroke="#bfbfbf" points="455.5,-0.5 455.5,-19.5 511.5,-19.5 511.5,-0.5 455.5,-0.5"/>
<text text-anchor="middle" x="483.5" y="-7.5" font-family="Helvetica,sans-Serif" font-size="10.00">cxxabi.h</text>
</g>
<!-- Node10&#45;&gt;Node13 -->
<g id="edge14" class="edge"><title>Node10&#45;&gt;Node13</title>
<path fill="none" stroke="midnightblue" d="M424.747,-56.324C435.297,-48.1849 451.301,-35.8395 463.942,-26.0874"/>
<polygon fill="midnightblue" stroke="midnightblue" points="466.269,-28.7132 472.049,-19.8339 461.993,-23.1707 466.269,-28.7132"/>
</g>
<!-- Node14 -->
<g id="node15" class="node"><title>Node14</title>
<polygon fill="white" stroke="#bfbfbf" points="529.5,-0.5 529.5,-19.5 597.5,-19.5 597.5,-0.5 529.5,-0.5"/>
<text text-anchor="middle" x="563.5" y="-7.5" font-family="Helvetica,sans-Serif" font-size="10.00">type_traits</text>
</g>
<!-- Node10&#45;&gt;Node14 -->
<g id="edge15" class="edge"><title>Node10&#45;&gt;Node14</title>
<path fill="none" stroke="midnightblue" d="M437.268,-56.4435C462.393,-47.3986 502.211,-33.064 530.4,-22.9158"/>
<polygon fill="midnightblue" stroke="midnightblue" points="531.62,-26.1968 539.843,-19.5164 529.249,-19.6106 531.62,-26.1968"/>
</g>
<!-- Node10&#45;&gt;Node15 -->
<g id="edge16" class="edge"><title>Node10&#45;&gt;Node15</title>
<path fill="none" stroke="midnightblue" d="M450.149,-56.4949C486.93,-47.9503 545.486,-34.3233 605.785,-20.1617"/>
<polygon fill="midnightblue" stroke="midnightblue" points="606.934,-23.4871 615.869,-17.7924 605.333,-16.6727 606.934,-23.4871"/>
</g>
</g>
</svg>
