<?xml version="1.0" encoding="UTF-8" standalone="no"?>
<!DOCTYPE svg PUBLIC "-//W3C//DTD SVG 1.1//EN"
 "http://www.w3.org/Graphics/SVG/1.1/DTD/svg11.dtd">
<!-- Generated by graphviz version 2.38.0 (20140413.2041)
 -->
<!-- Title: progs/Ant&#45;treeTool.cc Pages: 1 -->
<svg width="1482pt" height="252pt"
 viewBox="0.00 0.00 1481.89 252.00" xmlns="http://www.w3.org/2000/svg" xmlns:xlink="http://www.w3.org/1999/xlink">
<g id="graph0" class="graph" transform="scale(1 1) rotate(0) translate(4 248)">
<title>progs/Ant&#45;treeTool.cc</title>
<polygon fill="white" stroke="none" points="-4,4 -4,-248 1477.89,-248 1477.89,4 -4,4"/>
<!-- Node0 -->
<g id="node1" class="node"><title>Node0</title>
<polygon fill="#bfbfbf" stroke="black" points="446.5,-224.5 446.5,-243.5 564.5,-243.5 564.5,-224.5 446.5,-224.5"/>
<text text-anchor="middle" x="505.5" y="-231.5" font-family="Helvetica,sans-Serif" font-size="10.00">progs/Ant&#45;treeTool.cc</text>
</g>
<!-- Node1 -->
<g id="node2" class="node"><title>Node1</title>
<g id="a_node2"><a xlink:href="_logger_8h.html" target="_top" xlink:title="base/Logger.h">
<polygon fill="white" stroke="black" points="132.5,-168.5 132.5,-187.5 216.5,-187.5 216.5,-168.5 132.5,-168.5"/>
<text text-anchor="middle" x="174.5" y="-175.5" font-family="Helvetica,sans-Serif" font-size="10.00">base/Logger.h</text>
</a>
</g>
</g>
<!-- Node0&#45;&gt;Node1 -->
<g id="edge1" class="edge"><title>Node0&#45;&gt;Node1</title>
<path fill="none" stroke="midnightblue" d="M453.052,-224.444C391.061,-214.33 288.533,-197.604 226.665,-187.51"/>
<polygon fill="midnightblue" stroke="midnightblue" points="227.158,-184.045 216.725,-185.889 226.031,-190.953 227.158,-184.045"/>
</g>
<!-- Node3 -->
<g id="node4" class="node"><title>Node3</title>
<polygon fill="white" stroke="#bfbfbf" points="316.5,-168.5 316.5,-187.5 410.5,-187.5 410.5,-168.5 316.5,-168.5"/>
<text text-anchor="middle" x="363.5" y="-175.5" font-family="Helvetica,sans-Serif" font-size="10.00">tclap/CmdLine.h</text>
</g>
<!-- Node0&#45;&gt;Node3 -->
<g id="edge3" class="edge"><title>Node0&#45;&gt;Node3</title>
<path fill="none" stroke="midnightblue" d="M483,-224.444C459.423,-215.478 422.178,-201.314 395.536,-191.183"/>
<polygon fill="midnightblue" stroke="midnightblue" points="396.486,-187.8 385.895,-187.516 393.998,-194.342 396.486,-187.8"/>
</g>
<!-- Node4 -->
<g id="node5" class="node"><title>Node4</title>
<polygon fill="white" stroke="#bfbfbf" points="429,-168.5 429,-187.5 488,-187.5 488,-168.5 429,-168.5"/>
<text text-anchor="middle" x="458.5" y="-175.5" font-family="Helvetica,sans-Serif" font-size="10.00">iostream</text>
</g>
<!-- Node0&#45;&gt;Node4 -->
<g id="edge4" class="edge"><title>Node0&#45;&gt;Node4</title>
<path fill="none" stroke="midnightblue" d="M497.739,-224.083C490.963,-216.298 480.957,-204.801 472.745,-195.367"/>
<polygon fill="midnightblue" stroke="midnightblue" points="475.322,-192.996 466.117,-187.751 470.042,-197.592 475.322,-192.996"/>
</g>
<!-- Node5 -->
<g id="node6" class="node"><title>Node5</title>
<g id="a_node6"><a xlink:href="_wrap_t_file_8h.html" target="_top" xlink:title="base/WrapTFile.h">
<polygon fill="white" stroke="black" points="506,-168.5 506,-187.5 601,-187.5 601,-168.5 506,-168.5"/>
<text text-anchor="middle" x="553.5" y="-175.5" font-family="Helvetica,sans-Serif" font-size="10.00">base/WrapTFile.h</text>
</a>
</g>
</g>
<!-- Node0&#45;&gt;Node5 -->
<g id="edge5" class="edge"><title>Node0&#45;&gt;Node5</title>
<path fill="none" stroke="midnightblue" d="M513.426,-224.083C520.346,-216.298 530.565,-204.801 538.952,-195.367"/>
<polygon fill="midnightblue" stroke="midnightblue" points="541.694,-197.55 545.721,-187.751 536.462,-192.9 541.694,-197.55"/>
</g>
<!-- Node26 -->
<g id="node27" class="node"><title>Node26</title>
<polygon fill="white" stroke="#bfbfbf" points="619.5,-168.5 619.5,-187.5 669.5,-187.5 669.5,-168.5 619.5,-168.5"/>
<text text-anchor="middle" x="644.5" y="-175.5" font-family="Helvetica,sans-Serif" font-size="10.00">TTree.h</text>
</g>
<!-- Node0&#45;&gt;Node26 -->
<g id="edge30" class="edge"><title>Node0&#45;&gt;Node26</title>
<path fill="none" stroke="midnightblue" d="M527.525,-224.444C550.604,-215.478 587.062,-201.314 613.141,-191.183"/>
<polygon fill="midnightblue" stroke="midnightblue" points="614.524,-194.4 622.578,-187.516 611.989,-187.875 614.524,-194.4"/>
</g>
<!-- Node27 -->
<g id="node28" class="node"><title>Node27</title>
<g id="a_node28"><a xlink:href="_t_i_d_8h.html" target="_top" xlink:title="tree/TID.h">
<polygon fill="white" stroke="black" points="1092,-168.5 1092,-187.5 1155,-187.5 1155,-168.5 1092,-168.5"/>
<text text-anchor="middle" x="1123.5" y="-175.5" font-family="Helvetica,sans-Serif" font-size="10.00">tree/TID.h</text>
</a>
</g>
</g>
<!-- Node0&#45;&gt;Node27 -->
<g id="edge31" class="edge"><title>Node0&#45;&gt;Node27</title>
<path fill="none" stroke="midnightblue" d="M564.756,-227.822C689.015,-216.965 974.21,-192.045 1081.58,-182.663"/>
<polygon fill="midnightblue" stroke="midnightblue" points="1082.05,-186.135 1091.71,-181.778 1081.44,-179.162 1082.05,-186.135"/>
</g>
<!-- Node2 -->
<g id="node3" class="node"><title>Node2</title>
<polygon fill="white" stroke="#bfbfbf" points="0,-112.5 0,-131.5 99,-131.5 99,-112.5 0,-112.5"/>
<text text-anchor="middle" x="49.5" y="-119.5" font-family="Helvetica,sans-Serif" font-size="10.00">easylogging++.h</text>
</g>
<!-- Node1&#45;&gt;Node2 -->
<g id="edge2" class="edge"><title>Node1&#45;&gt;Node2</title>
<path fill="none" stroke="midnightblue" d="M154.693,-168.444C134.213,-159.596 102.017,-145.687 78.6353,-135.586"/>
<polygon fill="midnightblue" stroke="midnightblue" points="79.782,-132.269 69.214,-131.516 77.0059,-138.695 79.782,-132.269"/>
</g>
<!-- Node6 -->
<g id="node7" class="node"><title>Node6</title>
<g id="a_node7"><a xlink:href="string_8h.html" target="_top" xlink:title="base/std_ext/string.h">
<polygon fill="white" stroke="black" points="834,-56.5 834,-75.5 951,-75.5 951,-56.5 834,-56.5"/>
<text text-anchor="middle" x="892.5" y="-63.5" font-family="Helvetica,sans-Serif" font-size="10.00">base/std_ext/string.h</text>
</a>
</g>
</g>
<!-- Node5&#45;&gt;Node6 -->
<g id="edge6" class="edge"><title>Node5&#45;&gt;Node6</title>
<path fill="none" stroke="midnightblue" d="M601.08,-169.446C604.267,-168.953 607.43,-168.467 610.5,-168 719.741,-151.383 765.625,-194.861 856.5,-132 872.379,-121.016 881.996,-100.657 887.245,-85.6404"/>
<polygon fill="midnightblue" stroke="midnightblue" points="890.66,-86.4498 890.323,-75.8603 883.983,-84.3485 890.66,-86.4498"/>
</g>
<!-- Node7 -->
<g id="node8" class="node"><title>Node7</title>
<polygon fill="white" stroke="#bfbfbf" points="434.5,-0.5 434.5,-19.5 478.5,-19.5 478.5,-0.5 434.5,-0.5"/>
<text text-anchor="middle" x="456.5" y="-7.5" font-family="Helvetica,sans-Serif" font-size="10.00">string</text>
</g>
<!-- Node5&#45;&gt;Node7 -->
<g id="edge25" class="edge"><title>Node5&#45;&gt;Node7</title>
<path fill="none" stroke="midnightblue" d="M505.929,-169.386C502.74,-168.907 499.574,-168.441 496.5,-168 434.619,-159.124 258.779,-178.947 217.5,-132 154.734,-60.6143 344.534,-26.0874 423.618,-15.067"/>
<polygon fill="midnightblue" stroke="midnightblue" points="424.562,-18.4714 434.005,-13.6665 423.627,-11.5342 424.562,-18.4714"/>
</g>
<!-- Node11 -->
<g id="node12" class="node"><title>Node11</title>
<g id="a_node12"><a xlink:href="misc_8h.html" target="_top" xlink:title="base/std_ext/misc.h">
<polygon fill="white" stroke="black" points="540,-112.5 540,-131.5 653,-131.5 653,-112.5 540,-112.5"/>
<text text-anchor="middle" x="596.5" y="-119.5" font-family="Helvetica,sans-Serif" font-size="10.00">base/std_ext/misc.h</text>
</a>
</g>
</g>
<!-- Node5&#45;&gt;Node11 -->
<g id="edge11" class="edge"><title>Node5&#45;&gt;Node11</title>
<path fill="none" stroke="midnightblue" d="M560.601,-168.083C566.737,-160.377 575.77,-149.033 583.239,-139.653"/>
<polygon fill="midnightblue" stroke="midnightblue" points="586.04,-141.754 589.532,-131.751 580.564,-137.394 586.04,-141.754"/>
</g>
<!-- Node12 -->
<g id="node13" class="node"><title>Node12</title>
<polygon fill="white" stroke="#bfbfbf" points="413,-56.5 413,-75.5 476,-75.5 476,-56.5 413,-56.5"/>
<text text-anchor="middle" x="444.5" y="-63.5" font-family="Helvetica,sans-Serif" font-size="10.00">functional</text>
</g>
<!-- Node5&#45;&gt;Node12 -->
<g id="edge29" class="edge"><title>Node5&#45;&gt;Node12</title>
<path fill="none" stroke="midnightblue" d="M545.773,-168.422C534.356,-155.827 512.202,-131.692 492.5,-112 482.502,-102.007 470.954,-91.16 461.69,-82.6196"/>
<polygon fill="midnightblue" stroke="midnightblue" points="463.972,-79.9629 454.234,-75.7876 459.242,-85.1239 463.972,-79.9629"/>
</g>
<!-- Node16 -->
<g id="node17" class="node"><title>Node16</title>
<polygon fill="white" stroke="#bfbfbf" points="672,-56.5 672,-75.5 729,-75.5 729,-56.5 672,-56.5"/>
<text text-anchor="middle" x="700.5" y="-63.5" font-family="Helvetica,sans-Serif" font-size="10.00">memory</text>
</g>
<!-- Node5&#45;&gt;Node16 -->
<g id="edge24" class="edge"><title>Node5&#45;&gt;Node16</title>
<path fill="none" stroke="midnightblue" d="M588.916,-168.436C611.637,-161.547 640.674,-149.995 661.5,-132 676.244,-119.261 686.979,-99.5143 693.41,-85.1275"/>
<polygon fill="midnightblue" stroke="midnightblue" points="696.692,-86.3515 697.328,-75.7758 690.236,-83.6465 696.692,-86.3515"/>
</g>
<!-- Node17 -->
<g id="node18" class="node"><title>Node17</title>
<polygon fill="white" stroke="#bfbfbf" points="709.5,-112.5 709.5,-131.5 755.5,-131.5 755.5,-112.5 709.5,-112.5"/>
<text text-anchor="middle" x="732.5" y="-119.5" font-family="Helvetica,sans-Serif" font-size="10.00">TFile.h</text>
</g>
<!-- Node5&#45;&gt;Node17 -->
<g id="edge18" class="edge"><title>Node5&#45;&gt;Node17</title>
<path fill="none" stroke="midnightblue" d="M581.863,-168.444C613.846,-158.795 665.782,-143.127 699.541,-132.943"/>
<polygon fill="midnightblue" stroke="midnightblue" points="700.83,-136.21 709.393,-129.971 698.808,-129.508 700.83,-136.21"/>
</g>
<!-- Node18 -->
<g id="node19" class="node"><title>Node18</title>
<polygon fill="white" stroke="#bfbfbf" points="774,-112.5 774,-131.5 847,-131.5 847,-112.5 774,-112.5"/>
<text text-anchor="middle" x="810.5" y="-119.5" font-family="Helvetica,sans-Serif" font-size="10.00">TDirectory.h</text>
</g>
<!-- Node5&#45;&gt;Node18 -->
<g id="edge19" class="edge"><title>Node5&#45;&gt;Node18</title>
<path fill="none" stroke="midnightblue" d="M594.222,-168.444C640.339,-158.754 715.347,-142.993 763.799,-132.813"/>
<polygon fill="midnightblue" stroke="midnightblue" points="764.649,-136.211 773.716,-130.729 763.209,-129.36 764.649,-136.211"/>
</g>
<!-- Node19 -->
<g id="node20" class="node"><title>Node19</title>
<polygon fill="white" stroke="#bfbfbf" points="117,-112.5 117,-131.5 170,-131.5 170,-112.5 117,-112.5"/>
<text text-anchor="middle" x="143.5" y="-119.5" font-family="Helvetica,sans-Serif" font-size="10.00">TError.h</text>
</g>
<!-- Node5&#45;&gt;Node19 -->
<g id="edge20" class="edge"><title>Node5&#45;&gt;Node19</title>
<path fill="none" stroke="midnightblue" d="M505.936,-169.338C502.745,-168.871 499.577,-168.42 496.5,-168 358.197,-149.111 322.18,-154.994 184.5,-132 183.206,-131.784 181.892,-131.554 180.566,-131.312"/>
<polygon fill="midnightblue" stroke="midnightblue" points="180.819,-127.795 170.331,-129.297 179.466,-134.663 180.819,-127.795"/>
</g>
<!-- Node20 -->
<g id="node21" class="node"><title>Node20</title>
<polygon fill="white" stroke="#bfbfbf" points="227,-112.5 227,-131.5 274,-131.5 274,-112.5 227,-112.5"/>
<text text-anchor="middle" x="250.5" y="-119.5" font-family="Helvetica,sans-Serif" font-size="10.00">TList.h</text>
</g>
<!-- Node5&#45;&gt;Node20 -->
<g id="edge21" class="edge"><title>Node5&#45;&gt;Node20</title>
<path fill="none" stroke="midnightblue" d="M505.743,-169.362C440.155,-158.832 326.254,-140.389 284.231,-132.079"/>
<polygon fill="midnightblue" stroke="midnightblue" points="284.697,-128.601 274.192,-129.976 283.262,-135.452 284.697,-128.601"/>
</g>
<!-- Node21 -->
<g id="node22" class="node"><title>Node21</title>
<polygon fill="white" stroke="#bfbfbf" points="292,-112.5 292,-131.5 369,-131.5 369,-112.5 292,-112.5"/>
<text text-anchor="middle" x="330.5" y="-119.5" font-family="Helvetica,sans-Serif" font-size="10.00">TCollection.h</text>
</g>
<!-- Node5&#45;&gt;Node21 -->
<g id="edge22" class="edge"><title>Node5&#45;&gt;Node21</title>
<path fill="none" stroke="midnightblue" d="M518.165,-168.444C479.589,-159.102 417.715,-144.119 375.647,-133.933"/>
<polygon fill="midnightblue" stroke="midnightblue" points="376.213,-130.468 365.67,-131.516 374.565,-137.272 376.213,-130.468"/>
</g>
<!-- Node22 -->
<g id="node23" class="node"><title>Node22</title>
<polygon fill="white" stroke="#bfbfbf" points="387.5,-112.5 387.5,-131.5 433.5,-131.5 433.5,-112.5 387.5,-112.5"/>
<text text-anchor="middle" x="410.5" y="-119.5" font-family="Helvetica,sans-Serif" font-size="10.00">TKey.h</text>
</g>
<!-- Node5&#45;&gt;Node22 -->
<g id="edge23" class="edge"><title>Node5&#45;&gt;Node22</title>
<path fill="none" stroke="midnightblue" d="M530.841,-168.444C507.098,-159.478 469.591,-145.314 442.762,-135.183"/>
<polygon fill="midnightblue" stroke="midnightblue" points="443.644,-131.775 433.053,-131.516 441.171,-138.324 443.644,-131.775"/>
</g>
<!-- Node23 -->
<g id="node24" class="node"><title>Node23</title>
<polygon fill="white" stroke="#bfbfbf" points="903.5,-112.5 903.5,-131.5 933.5,-131.5 933.5,-112.5 903.5,-112.5"/>
<text text-anchor="middle" x="918.5" y="-119.5" font-family="Helvetica,sans-Serif" font-size="10.00">list</text>
</g>
<!-- Node5&#45;&gt;Node23 -->
<g id="edge26" class="edge"><title>Node5&#45;&gt;Node23</title>
<path fill="none" stroke="midnightblue" d="M601.071,-169.386C604.26,-168.907 607.426,-168.441 610.5,-168 734.261,-150.248 767.341,-158.628 889.5,-132 890.775,-131.722 892.074,-131.414 893.381,-131.084"/>
<polygon fill="midnightblue" stroke="midnightblue" points="894.622,-134.37 903.28,-128.264 892.704,-127.637 894.622,-134.37"/>
</g>
<!-- Node24 -->
<g id="node25" class="node"><title>Node24</title>
<polygon fill="white" stroke="#bfbfbf" points="451.5,-112.5 451.5,-131.5 483.5,-131.5 483.5,-112.5 451.5,-112.5"/>
<text text-anchor="middle" x="467.5" y="-119.5" font-family="Helvetica,sans-Serif" font-size="10.00">set</text>
</g>
<!-- Node5&#45;&gt;Node24 -->
<g id="edge27" class="edge"><title>Node5&#45;&gt;Node24</title>
<path fill="none" stroke="midnightblue" d="M539.683,-168.324C526.267,-159.9 505.676,-146.971 489.914,-137.074"/>
<polygon fill="midnightblue" stroke="midnightblue" points="491.613,-134.008 481.283,-131.655 487.891,-139.936 491.613,-134.008"/>
</g>
<!-- Node25 -->
<g id="node26" class="node"><title>Node25</title>
<polygon fill="white" stroke="#bfbfbf" points="951.5,-112.5 951.5,-131.5 1015.5,-131.5 1015.5,-112.5 951.5,-112.5"/>
<text text-anchor="middle" x="983.5" y="-119.5" font-family="Helvetica,sans-Serif" font-size="10.00">stdexcept</text>
</g>
<!-- Node5&#45;&gt;Node25 -->
<g id="edge28" class="edge"><title>Node5&#45;&gt;Node25</title>
<path fill="none" stroke="midnightblue" d="M601.061,-169.313C604.253,-168.852 607.421,-168.41 610.5,-168 754.319,-148.86 794.244,-155.622 941.043,-132.077"/>
<polygon fill="midnightblue" stroke="midnightblue" points="942.025,-135.463 951.334,-130.405 940.902,-128.554 942.025,-135.463"/>
</g>
<!-- Node6&#45;&gt;Node7 -->
<g id="edge7" class="edge"><title>Node6&#45;&gt;Node7</title>
<path fill="none" stroke="midnightblue" d="M833.899,-57.2066C830.72,-56.7955 827.571,-56.391 824.5,-56 700.767,-40.247 553.487,-22.5572 489.213,-14.8899"/>
<polygon fill="midnightblue" stroke="midnightblue" points="489.256,-11.3703 478.912,-13.6622 488.427,-18.3212 489.256,-11.3703"/>
</g>
<!-- Node8 -->
<g id="node9" class="node"><title>Node8</title>
<polygon fill="white" stroke="#bfbfbf" points="899.5,-0.5 899.5,-19.5 955.5,-19.5 955.5,-0.5 899.5,-0.5"/>
<text text-anchor="middle" x="927.5" y="-7.5" font-family="Helvetica,sans-Serif" font-size="10.00">sstream</text>
</g>
<!-- Node6&#45;&gt;Node8 -->
<g id="edge8" class="edge"><title>Node6&#45;&gt;Node8</title>
<path fill="none" stroke="midnightblue" d="M898.28,-56.083C903.172,-48.5341 910.327,-37.4948 916.333,-28.2298"/>
<polygon fill="midnightblue" stroke="midnightblue" points="919.326,-30.0463 921.828,-19.7511 913.452,-26.239 919.326,-30.0463"/>
</g>
<!-- Node9 -->
<g id="node10" class="node"><title>Node9</title>
<polygon fill="white" stroke="#bfbfbf" points="650.5,-0.5 650.5,-19.5 712.5,-19.5 712.5,-0.5 650.5,-0.5"/>
<text text-anchor="middle" x="681.5" y="-7.5" font-family="Helvetica,sans-Serif" font-size="10.00">algorithm</text>
</g>
<!-- Node6&#45;&gt;Node9 -->
<g id="edge9" class="edge"><title>Node6&#45;&gt;Node9</title>
<path fill="none" stroke="midnightblue" d="M859.066,-56.4435C822.08,-46.9777 762.456,-31.7186 722.635,-21.5273"/>
<polygon fill="midnightblue" stroke="midnightblue" points="723.269,-18.077 712.714,-18.9883 721.534,-24.8584 723.269,-18.077"/>
</g>
<!-- Node10 -->
<g id="node11" class="node"><title>Node10</title>
<polygon fill="white" stroke="#bfbfbf" points="834,-0.5 834,-19.5 881,-19.5 881,-0.5 834,-0.5"/>
<text text-anchor="middle" x="857.5" y="-7.5" font-family="Helvetica,sans-Serif" font-size="10.00">vector</text>
</g>
<!-- Node6&#45;&gt;Node10 -->
<g id="edge10" class="edge"><title>Node6&#45;&gt;Node10</title>
<path fill="none" stroke="midnightblue" d="M886.72,-56.083C881.828,-48.5341 874.673,-37.4948 868.667,-28.2298"/>
<polygon fill="midnightblue" stroke="midnightblue" points="871.548,-26.239 863.172,-19.7511 865.674,-30.0463 871.548,-26.239"/>
</g>
<!-- Node11&#45;&gt;Node9 -->
<g id="edge12" class="edge"><title>Node11&#45;&gt;Node9</title>
<path fill="none" stroke="midnightblue" d="M594.023,-112.243C590.816,-98.9943 586.813,-73.5415 597.5,-56 607.142,-40.1738 624.429,-29.5818 640.824,-22.6734"/>
<polygon fill="midnightblue" stroke="midnightblue" points="642.236,-25.8803 650.31,-19.0199 639.72,-19.3481 642.236,-25.8803"/>
</g>
<!-- Node11&#45;&gt;Node12 -->
<g id="edge13" class="edge"><title>Node11&#45;&gt;Node12</title>
<path fill="none" stroke="midnightblue" d="M572.415,-112.444C546.955,-103.399 506.606,-89.064 478.041,-78.9158"/>
<polygon fill="midnightblue" stroke="midnightblue" points="479.067,-75.5661 468.472,-75.5164 476.723,-82.1622 479.067,-75.5661"/>
</g>
<!-- Node13 -->
<g id="node14" class="node"><title>Node13</title>
<polygon fill="white" stroke="#bfbfbf" points="607,-56.5 607,-75.5 654,-75.5 654,-56.5 607,-56.5"/>
<text text-anchor="middle" x="630.5" y="-63.5" font-family="Helvetica,sans-Serif" font-size="10.00">cmath</text>
</g>
<!-- Node11&#45;&gt;Node13 -->
<g id="edge14" class="edge"><title>Node11&#45;&gt;Node13</title>
<path fill="none" stroke="midnightblue" d="M602.114,-112.083C606.867,-104.534 613.818,-93.4948 619.652,-84.2298"/>
<polygon fill="midnightblue" stroke="midnightblue" points="622.624,-86.0783 624.99,-75.7511 616.7,-82.3486 622.624,-86.0783"/>
</g>
<!-- Node14 -->
<g id="node15" class="node"><title>Node14</title>
<polygon fill="white" stroke="#bfbfbf" points="494.5,-56.5 494.5,-75.5 550.5,-75.5 550.5,-56.5 494.5,-56.5"/>
<text text-anchor="middle" x="522.5" y="-63.5" font-family="Helvetica,sans-Serif" font-size="10.00">cxxabi.h</text>
</g>
<!-- Node11&#45;&gt;Node14 -->
<g id="edge15" class="edge"><title>Node11&#45;&gt;Node14</title>
<path fill="none" stroke="midnightblue" d="M584.611,-112.324C573.35,-104.107 556.213,-91.6017 542.791,-81.8069"/>
<polygon fill="midnightblue" stroke="midnightblue" points="544.747,-78.9014 534.606,-75.8339 540.62,-84.5559 544.747,-78.9014"/>
</g>
<!-- Node15 -->
<g id="node16" class="node"><title>Node15</title>
<polygon fill="white" stroke="#bfbfbf" points="747.5,-56.5 747.5,-75.5 815.5,-75.5 815.5,-56.5 747.5,-56.5"/>
<text text-anchor="middle" x="781.5" y="-63.5" font-family="Helvetica,sans-Serif" font-size="10.00">type_traits</text>
</g>
<!-- Node11&#45;&gt;Node15 -->
<g id="edge16" class="edge"><title>Node11&#45;&gt;Node15</title>
<path fill="none" stroke="midnightblue" d="M625.814,-112.444C657.342,-103.241 707.631,-88.5617 742.486,-78.3879"/>
<polygon fill="midnightblue" stroke="midnightblue" points="743.705,-81.6783 752.323,-75.5164 741.743,-74.9587 743.705,-81.6783"/>
</g>
<!-- Node11&#45;&gt;Node16 -->
<g id="edge17" class="edge"><title>Node11&#45;&gt;Node16</title>
<path fill="none" stroke="midnightblue" d="M613.209,-112.324C629.812,-103.703 655.502,-90.3643 674.72,-80.3855"/>
<polygon fill="midnightblue" stroke="midnightblue" points="676.57,-83.3689 683.832,-75.6545 673.344,-77.1565 676.57,-83.3689"/>
</g>
<!-- Node27&#45;&gt;Node15 -->
<g id="edge37" class="edge"><title>Node27&#45;&gt;Node15</title>
<path fill="none" stroke="midnightblue" d="M1113.58,-168.487C1096.57,-154.37 1060.21,-126.261 1024.5,-112 941.031,-78.6639 913.756,-93.0069 825.5,-76 825.4,-75.9806 825.299,-75.9612 825.198,-75.9418"/>
<polygon fill="midnightblue" stroke="midnightblue" points="826.082,-72.5486 815.595,-74.0537 824.731,-79.4171 826.082,-72.5486"/>
</g>
<!-- Node27&#45;&gt;Node23 -->
<g id="edge41" class="edge"><title>Node27&#45;&gt;Node23</title>
<path fill="none" stroke="midnightblue" d="M1091.81,-170.282C1057.35,-162.726 1000.54,-149.53 943.218,-131.955"/>
<polygon fill="midnightblue" stroke="midnightblue" points="944.232,-128.606 933.644,-128.98 942.155,-135.29 944.232,-128.606"/>
</g>
<!-- Node27&#45;&gt;Node25 -->
<g id="edge40" class="edge"><title>Node27&#45;&gt;Node25</title>
<path fill="none" stroke="midnightblue" d="M1101.32,-168.444C1078.07,-159.478 1041.35,-145.314 1015.08,-135.183"/>
<polygon fill="midnightblue" stroke="midnightblue" points="1016.17,-131.85 1005.58,-131.516 1013.65,-138.381 1016.17,-131.85"/>
</g>
<!-- Node28 -->
<g id="node29" class="node"><title>Node28</title>
<polygon fill="white" stroke="#bfbfbf" points="1401.5,-112.5 1401.5,-131.5 1459.5,-131.5 1459.5,-112.5 1401.5,-112.5"/>
<text text-anchor="middle" x="1430.5" y="-119.5" font-family="Helvetica,sans-Serif" font-size="10.00">Rtypes.h</text>
</g>
<!-- Node27&#45;&gt;Node28 -->
<g id="edge32" class="edge"><title>Node27&#45;&gt;Node28</title>
<path fill="none" stroke="midnightblue" d="M1155.1,-172.414C1203.72,-165.205 1300.02,-150.331 1391.52,-132.087"/>
<polygon fill="midnightblue" stroke="midnightblue" points="1392.38,-135.483 1401.5,-130.08 1391,-128.62 1392.38,-135.483"/>
</g>
<!-- Node29 -->
<g id="node30" class="node"><title>Node29</title>
<g id="a_node30"><a xlink:href="base_2std__ext_2_time_8h.html" target="_top" xlink:title="base/std_ext/time.h">
<polygon fill="white" stroke="black" points="1271.5,-112.5 1271.5,-131.5 1383.5,-131.5 1383.5,-112.5 1271.5,-112.5"/>
<text text-anchor="middle" x="1327.5" y="-119.5" font-family="Helvetica,sans-Serif" font-size="10.00">base/std_ext/time.h</text>
</a>
</g>
</g>
<!-- Node27&#45;&gt;Node29 -->
<g id="edge33" class="edge"><title>Node27&#45;&gt;Node29</title>
<path fill="none" stroke="midnightblue" d="M1155.38,-168.562C1190.35,-159.304 1246.65,-144.403 1285.27,-134.178"/>
<polygon fill="midnightblue" stroke="midnightblue" points="1286.4,-137.499 1295.18,-131.556 1284.61,-130.732 1286.4,-137.499"/>
</g>
<!-- Node31 -->
<g id="node32" class="node"><title>Node31</title>
<polygon fill="white" stroke="#bfbfbf" points="1417.5,-56.5 1417.5,-75.5 1461.5,-75.5 1461.5,-56.5 1417.5,-56.5"/>
<text text-anchor="middle" x="1439.5" y="-63.5" font-family="Helvetica,sans-Serif" font-size="10.00">ctime</text>
</g>
<!-- Node27&#45;&gt;Node31 -->
<g id="edge43" class="edge"><title>Node27&#45;&gt;Node31</title>
<path fill="none" stroke="midnightblue" d="M1155.2,-175.214C1236.58,-170.306 1447.95,-155.404 1468.5,-132 1480.9,-117.873 1468.32,-97.5798 1456.07,-83.4392"/>
<polygon fill="midnightblue" stroke="midnightblue" points="1458.46,-80.8646 1449.09,-75.9175 1453.33,-85.6273 1458.46,-80.8646"/>
</g>
<!-- Node32 -->
<g id="node33" class="node"><title>Node32</title>
<polygon fill="white" stroke="#bfbfbf" points="1072,-112.5 1072,-131.5 1113,-131.5 1113,-112.5 1072,-112.5"/>
<text text-anchor="middle" x="1092.5" y="-119.5" font-family="Helvetica,sans-Serif" font-size="10.00">tuple</text>
</g>
<!-- Node27&#45;&gt;Node32 -->
<g id="edge38" class="edge"><title>Node27&#45;&gt;Node32</title>
<path fill="none" stroke="midnightblue" d="M1118.38,-168.083C1114.09,-160.613 1107.84,-149.724 1102.56,-140.52"/>
<polygon fill="midnightblue" stroke="midnightblue" points="1105.54,-138.681 1097.52,-131.751 1099.47,-142.166 1105.54,-138.681"/>
</g>
<!-- Node33 -->
<g id="node34" class="node"><title>Node33</title>
<polygon fill="white" stroke="#bfbfbf" points="1131,-112.5 1131,-131.5 1180,-131.5 1180,-112.5 1131,-112.5"/>
<text text-anchor="middle" x="1155.5" y="-119.5" font-family="Helvetica,sans-Serif" font-size="10.00">cstdint</text>
</g>
<!-- Node27&#45;&gt;Node33 -->
<g id="edge39" class="edge"><title>Node27&#45;&gt;Node33</title>
<path fill="none" stroke="midnightblue" d="M1128.78,-168.083C1133.21,-160.613 1139.66,-149.724 1145.12,-140.52"/>
<polygon fill="midnightblue" stroke="midnightblue" points="1148.23,-142.138 1150.31,-131.751 1142.21,-138.57 1148.23,-142.138"/>
</g>
<!-- Node34 -->
<g id="node35" class="node"><title>Node34</title>
<polygon fill="white" stroke="#bfbfbf" points="1198,-112.5 1198,-131.5 1253,-131.5 1253,-112.5 1198,-112.5"/>
<text text-anchor="middle" x="1225.5" y="-119.5" font-family="Helvetica,sans-Serif" font-size="10.00">iomanip</text>
</g>
<!-- Node27&#45;&gt;Node34 -->
<g id="edge42" class="edge"><title>Node27&#45;&gt;Node34</title>
<path fill="none" stroke="midnightblue" d="M1139.89,-168.324C1156.17,-159.703 1181.37,-146.364 1200.22,-136.386"/>
<polygon fill="midnightblue" stroke="midnightblue" points="1201.95,-139.427 1209.15,-131.655 1198.68,-133.24 1201.95,-139.427"/>
</g>
<!-- Node29&#45;&gt;Node6 -->
<g id="edge34" class="edge"><title>Node29&#45;&gt;Node6</title>
<path fill="none" stroke="midnightblue" d="M1271.49,-113.185C1268.45,-112.779 1265.44,-112.382 1262.5,-112 1157.55,-98.3527 1035.67,-83.7753 961.339,-75.027"/>
<polygon fill="midnightblue" stroke="midnightblue" points="961.513,-71.5234 951.173,-73.832 960.696,-78.4756 961.513,-71.5234"/>
</g>
<!-- Node30 -->
<g id="node31" class="node"><title>Node30</title>
<polygon fill="white" stroke="#bfbfbf" points="1303,-56.5 1303,-75.5 1352,-75.5 1352,-56.5 1303,-56.5"/>
<text text-anchor="middle" x="1327.5" y="-63.5" font-family="Helvetica,sans-Serif" font-size="10.00">cstring</text>
</g>
<!-- Node29&#45;&gt;Node30 -->
<g id="edge35" class="edge"><title>Node29&#45;&gt;Node30</title>
<path fill="none" stroke="midnightblue" d="M1327.5,-112.083C1327.5,-105.006 1327.5,-94.8611 1327.5,-85.9865"/>
<polygon fill="midnightblue" stroke="midnightblue" points="1331,-85.751 1327.5,-75.7511 1324,-85.7511 1331,-85.751"/>
</g>
<!-- Node29&#45;&gt;Node31 -->
<g id="edge36" class="edge"><title>Node29&#45;&gt;Node31</title>
<path fill="none" stroke="midnightblue" d="M1345.49,-112.324C1363.54,-103.625 1391.55,-90.1202 1412.3,-80.113"/>
<polygon fill="midnightblue" stroke="midnightblue" points="1414.06,-83.1502 1421.55,-75.6545 1411.02,-76.8449 1414.06,-83.1502"/>
</g>
</g>
</svg>
