<?xml version="1.0" encoding="UTF-8" standalone="no"?>
<!DOCTYPE svg PUBLIC "-//W3C//DTD SVG 1.1//EN"
 "http://www.w3.org/Graphics/SVG/1.1/DTD/svg11.dtd">
<!-- Generated by graphviz version 2.38.0 (20140413.2041)
 -->
<!-- Title: progs/Ant&#45;chain.cc Pages: 1 -->
<svg width="1884pt" height="308pt"
 viewBox="0.00 0.00 1883.50 308.00" xmlns="http://www.w3.org/2000/svg" xmlns:xlink="http://www.w3.org/1999/xlink">
<g id="graph0" class="graph" transform="scale(1 1) rotate(0) translate(4 304)">
<title>progs/Ant&#45;chain.cc</title>
<polygon fill="white" stroke="none" points="-4,4 -4,-304 1879.5,-304 1879.5,4 -4,4"/>
<!-- Node0 -->
<g id="node1" class="node"><title>Node0</title>
<polygon fill="#bfbfbf" stroke="black" points="695.5,-280.5 695.5,-299.5 801.5,-299.5 801.5,-280.5 695.5,-280.5"/>
<text text-anchor="middle" x="748.5" y="-287.5" font-family="Helvetica,sans-Serif" font-size="10.00">progs/Ant&#45;chain.cc</text>
</g>
<!-- Node1 -->
<g id="node2" class="node"><title>Node1</title>
<g id="a_node2"><a xlink:href="_logger_8h.html" target="_top" xlink:title="base/Logger.h">
<polygon fill="white" stroke="black" points="7.5,-224.5 7.5,-243.5 91.5,-243.5 91.5,-224.5 7.5,-224.5"/>
<text text-anchor="middle" x="49.5" y="-231.5" font-family="Helvetica,sans-Serif" font-size="10.00">base/Logger.h</text>
</a>
</g>
</g>
<!-- Node0&#45;&gt;Node1 -->
<g id="edge1" class="edge"><title>Node0&#45;&gt;Node1</title>
<path fill="none" stroke="midnightblue" d="M695.402,-287.208C586.152,-283.11 328.152,-271.32 101.822,-244.036"/>
<polygon fill="midnightblue" stroke="midnightblue" points="102.099,-240.544 91.7493,-242.809 101.253,-247.493 102.099,-240.544"/>
</g>
<!-- Node3 -->
<g id="node4" class="node"><title>Node3</title>
<polygon fill="white" stroke="#bfbfbf" points="109.5,-224.5 109.5,-243.5 203.5,-243.5 203.5,-224.5 109.5,-224.5"/>
<text text-anchor="middle" x="156.5" y="-231.5" font-family="Helvetica,sans-Serif" font-size="10.00">tclap/CmdLine.h</text>
</g>
<!-- Node0&#45;&gt;Node3 -->
<g id="edge3" class="edge"><title>Node0&#45;&gt;Node3</title>
<path fill="none" stroke="midnightblue" d="M695.256,-285.584C599.485,-279.195 391.883,-264.234 217.5,-244 216.244,-243.854 214.974,-243.703 213.694,-243.546"/>
<polygon fill="midnightblue" stroke="midnightblue" points="214.115,-240.072 203.75,-242.266 213.222,-247.015 214.115,-240.072"/>
</g>
<!-- Node4 -->
<g id="node5" class="node"><title>Node4</title>
<g id="a_node5"><a xlink:href="_wrap_t_file_8h.html" target="_top" xlink:title="base/WrapTFile.h">
<polygon fill="white" stroke="black" points="1079,-224.5 1079,-243.5 1174,-243.5 1174,-224.5 1079,-224.5"/>
<text text-anchor="middle" x="1126.5" y="-231.5" font-family="Helvetica,sans-Serif" font-size="10.00">base/WrapTFile.h</text>
</a>
</g>
</g>
<!-- Node0&#45;&gt;Node4 -->
<g id="edge4" class="edge"><title>Node0&#45;&gt;Node4</title>
<path fill="none" stroke="midnightblue" d="M801.856,-281.378C872.267,-271.319 995.762,-253.677 1068.45,-243.293"/>
<polygon fill="midnightblue" stroke="midnightblue" points="1069.38,-246.695 1078.79,-241.816 1068.39,-239.765 1069.38,-246.695"/>
</g>
<!-- Node5 -->
<g id="node6" class="node"><title>Node5</title>
<g id="a_node6"><a xlink:href="string_8h.html" target="_top" xlink:title="base/std_ext/string.h">
<polygon fill="white" stroke="black" points="987,-56.5 987,-75.5 1104,-75.5 1104,-56.5 987,-56.5"/>
<text text-anchor="middle" x="1045.5" y="-63.5" font-family="Helvetica,sans-Serif" font-size="10.00">base/std_ext/string.h</text>
</a>
</g>
</g>
<!-- Node0&#45;&gt;Node5 -->
<g id="edge29" class="edge"><title>Node0&#45;&gt;Node5</title>
<path fill="none" stroke="midnightblue" d="M759.249,-280.236C791.624,-253.94 891.29,-173.716 977.5,-112 992.558,-101.22 1009.98,-89.7075 1023.42,-81.0252"/>
<polygon fill="midnightblue" stroke="midnightblue" points="1025.49,-83.8581 1032.01,-75.5105 1021.71,-77.9674 1025.49,-83.8581"/>
</g>
<!-- Node6 -->
<g id="node7" class="node"><title>Node6</title>
<polygon fill="white" stroke="#bfbfbf" points="285.5,-0.5 285.5,-19.5 329.5,-19.5 329.5,-0.5 285.5,-0.5"/>
<text text-anchor="middle" x="307.5" y="-7.5" font-family="Helvetica,sans-Serif" font-size="10.00">string</text>
</g>
<!-- Node0&#45;&gt;Node6 -->
<g id="edge55" class="edge"><title>Node0&#45;&gt;Node6</title>
<path fill="none" stroke="midnightblue" d="M695.119,-288.842C563.027,-287.015 231.5,-273.06 231.5,-179 231.5,-179 231.5,-179 231.5,-121 231.5,-81.2757 265.464,-45.5045 287.982,-26.1536"/>
<polygon fill="midnightblue" stroke="midnightblue" points="290.476,-28.6337 295.957,-19.5672 286.018,-23.2364 290.476,-28.6337"/>
</g>
<!-- Node11 -->
<g id="node12" class="node"><title>Node11</title>
<polygon fill="white" stroke="#bfbfbf" points="1364,-112.5 1364,-131.5 1427,-131.5 1427,-112.5 1364,-112.5"/>
<text text-anchor="middle" x="1395.5" y="-119.5" font-family="Helvetica,sans-Serif" font-size="10.00">functional</text>
</g>
<!-- Node0&#45;&gt;Node11 -->
<g id="edge57" class="edge"><title>Node0&#45;&gt;Node11</title>
<path fill="none" stroke="midnightblue" d="M801.707,-287.497C993.735,-281.524 1642.88,-256.38 1702.5,-188 1708.34,-181.3 1708.31,-174.726 1702.5,-168 1668.69,-128.877 1512.95,-123.125 1437.16,-122.695"/>
<polygon fill="midnightblue" stroke="midnightblue" points="1437.03,-119.195 1427.02,-122.667 1437.01,-126.194 1437.03,-119.195"/>
</g>
<!-- Node17 -->
<g id="node18" class="node"><title>Node17</title>
<polygon fill="white" stroke="#bfbfbf" points="1620,-168.5 1620,-187.5 1693,-187.5 1693,-168.5 1620,-168.5"/>
<text text-anchor="middle" x="1656.5" y="-175.5" font-family="Helvetica,sans-Serif" font-size="10.00">TDirectory.h</text>
</g>
<!-- Node0&#45;&gt;Node17 -->
<g id="edge52" class="edge"><title>Node0&#45;&gt;Node17</title>
<path fill="none" stroke="midnightblue" d="M801.774,-284.525C935.978,-272.876 1298.85,-239.042 1609.6,-188.232"/>
<polygon fill="midnightblue" stroke="midnightblue" points="1610.4,-191.647 1619.7,-186.571 1609.26,-184.739 1610.4,-191.647"/>
</g>
<!-- Node22 -->
<g id="node23" class="node"><title>Node22</title>
<polygon fill="white" stroke="#bfbfbf" points="335.5,-112.5 335.5,-131.5 365.5,-131.5 365.5,-112.5 335.5,-112.5"/>
<text text-anchor="middle" x="350.5" y="-119.5" font-family="Helvetica,sans-Serif" font-size="10.00">list</text>
</g>
<!-- Node0&#45;&gt;Node22 -->
<g id="edge56" class="edge"><title>Node0&#45;&gt;Node22</title>
<path fill="none" stroke="midnightblue" d="M695.143,-285.809C645.715,-281.27 571.069,-270.321 511.5,-244 451.793,-217.618 393.548,-165.366 366.385,-139.005"/>
<polygon fill="midnightblue" stroke="midnightblue" points="368.565,-136.239 358.986,-131.713 363.652,-141.225 368.565,-136.239"/>
</g>
<!-- Node25 -->
<g id="node26" class="node"><title>Node25</title>
<g id="a_node26"><a xlink:href="system_8h.html" target="_top" xlink:title="base/std_ext/system.h">
<polygon fill="white" stroke="black" points="260,-168.5 260,-187.5 385,-187.5 385,-168.5 260,-168.5"/>
<text text-anchor="middle" x="322.5" y="-175.5" font-family="Helvetica,sans-Serif" font-size="10.00">base/std_ext/system.h</text>
</a>
</g>
</g>
<!-- Node0&#45;&gt;Node25 -->
<g id="edge30" class="edge"><title>Node0&#45;&gt;Node25</title>
<path fill="none" stroke="midnightblue" d="M695.473,-285.835C611.309,-280.201 451.361,-266.828 399.5,-244 374.101,-232.82 350.615,-210.539 336.422,-195.206"/>
<polygon fill="midnightblue" stroke="midnightblue" points="338.818,-192.634 329.541,-187.517 333.602,-197.303 338.818,-192.634"/>
</g>
<!-- Node26 -->
<g id="node27" class="node"><title>Node26</title>
<g id="a_node27"><a xlink:href="memory_8h.html" target="_top" xlink:title="base/std_ext/memory.h">
<polygon fill="white" stroke="black" points="684,-168.5 684,-187.5 813,-187.5 813,-168.5 684,-168.5"/>
<text text-anchor="middle" x="748.5" y="-175.5" font-family="Helvetica,sans-Serif" font-size="10.00">base/std_ext/memory.h</text>
</a>
</g>
</g>
<!-- Node0&#45;&gt;Node26 -->
<g id="edge33" class="edge"><title>Node0&#45;&gt;Node26</title>
<path fill="none" stroke="midnightblue" d="M748.5,-280.368C748.5,-262.617 748.5,-221.666 748.5,-197.597"/>
<polygon fill="midnightblue" stroke="midnightblue" points="752,-197.591 748.5,-187.591 745,-197.591 752,-197.591"/>
</g>
<!-- Node27 -->
<g id="node28" class="node"><title>Node27</title>
<g id="a_node28"><a xlink:href="_t_ant_header_8h.html" target="_top" xlink:title="tree/TAntHeader.h">
<polygon fill="white" stroke="black" points="520.5,-224.5 520.5,-243.5 624.5,-243.5 624.5,-224.5 520.5,-224.5"/>
<text text-anchor="middle" x="572.5" y="-231.5" font-family="Helvetica,sans-Serif" font-size="10.00">tree/TAntHeader.h</text>
</a>
</g>
</g>
<!-- Node0&#45;&gt;Node27 -->
<g id="edge36" class="edge"><title>Node0&#45;&gt;Node27</title>
<path fill="none" stroke="midnightblue" d="M720.612,-280.444C690.746,-271.28 643.185,-256.688 610.044,-246.519"/>
<polygon fill="midnightblue" stroke="midnightblue" points="610.844,-243.104 600.257,-243.516 608.791,-249.796 610.844,-243.104"/>
</g>
<!-- Node37 -->
<g id="node38" class="node"><title>Node37</title>
<polygon fill="white" stroke="#bfbfbf" points="1750,-224.5 1750,-243.5 1807,-243.5 1807,-224.5 1750,-224.5"/>
<text text-anchor="middle" x="1778.5" y="-231.5" font-family="Helvetica,sans-Serif" font-size="10.00">TChain.h</text>
</g>
<!-- Node0&#45;&gt;Node37 -->
<g id="edge53" class="edge"><title>Node0&#45;&gt;Node37</title>
<path fill="none" stroke="midnightblue" d="M801.718,-289.57C950.156,-290.517 1381.11,-288.87 1735.5,-244 1736.97,-243.814 1738.46,-243.605 1739.96,-243.377"/>
<polygon fill="midnightblue" stroke="midnightblue" points="1740.67,-246.806 1749.93,-241.649 1739.48,-239.909 1740.67,-246.806"/>
</g>
<!-- Node38 -->
<g id="node39" class="node"><title>Node38</title>
<polygon fill="white" stroke="#bfbfbf" points="1825.5,-224.5 1825.5,-243.5 1875.5,-243.5 1875.5,-224.5 1825.5,-224.5"/>
<text text-anchor="middle" x="1850.5" y="-231.5" font-family="Helvetica,sans-Serif" font-size="10.00">TTree.h</text>
</g>
<!-- Node0&#45;&gt;Node38 -->
<g id="edge54" class="edge"><title>Node0&#45;&gt;Node38</title>
<path fill="none" stroke="midnightblue" d="M801.771,-288.281C986.258,-285.558 1598.01,-274.513 1815.33,-243.778"/>
<polygon fill="midnightblue" stroke="midnightblue" points="1815.99,-247.218 1825.38,-242.299 1814.97,-240.293 1815.99,-247.218"/>
</g>
<!-- Node2 -->
<g id="node3" class="node"><title>Node2</title>
<polygon fill="white" stroke="#bfbfbf" points="0,-168.5 0,-187.5 99,-187.5 99,-168.5 0,-168.5"/>
<text text-anchor="middle" x="49.5" y="-175.5" font-family="Helvetica,sans-Serif" font-size="10.00">easylogging++.h</text>
</g>
<!-- Node1&#45;&gt;Node2 -->
<g id="edge2" class="edge"><title>Node1&#45;&gt;Node2</title>
<path fill="none" stroke="midnightblue" d="M49.5,-224.083C49.5,-217.006 49.5,-206.861 49.5,-197.986"/>
<polygon fill="midnightblue" stroke="midnightblue" points="53.0001,-197.751 49.5,-187.751 46.0001,-197.751 53.0001,-197.751"/>
</g>
<!-- Node4&#45;&gt;Node5 -->
<g id="edge5" class="edge"><title>Node4&#45;&gt;Node5</title>
<path fill="none" stroke="midnightblue" d="M1122.15,-224.075C1109.28,-197.719 1071.3,-119.878 1054.12,-84.6608"/>
<polygon fill="midnightblue" stroke="midnightblue" points="1057.21,-83.0204 1049.68,-75.5681 1050.92,-86.0902 1057.21,-83.0204"/>
</g>
<!-- Node4&#45;&gt;Node6 -->
<g id="edge24" class="edge"><title>Node4&#45;&gt;Node6</title>
<path fill="none" stroke="midnightblue" d="M1078.96,-229.289C1042.45,-224.473 992.233,-213.411 955.5,-188 921.423,-164.427 935.915,-135.077 901.5,-112 807.749,-49.1367 449.919,-20.4844 339.886,-13.0379"/>
<polygon fill="midnightblue" stroke="midnightblue" points="339.947,-9.53436 329.737,-12.3641 339.483,-16.519 339.947,-9.53436"/>
</g>
<!-- Node10 -->
<g id="node11" class="node"><title>Node10</title>
<g id="a_node11"><a xlink:href="misc_8h.html" target="_top" xlink:title="base/std_ext/misc.h">
<polygon fill="white" stroke="black" points="1155,-168.5 1155,-187.5 1268,-187.5 1268,-168.5 1155,-168.5"/>
<text text-anchor="middle" x="1211.5" y="-175.5" font-family="Helvetica,sans-Serif" font-size="10.00">base/std_ext/misc.h</text>
</a>
</g>
</g>
<!-- Node4&#45;&gt;Node10 -->
<g id="edge10" class="edge"><title>Node4&#45;&gt;Node10</title>
<path fill="none" stroke="midnightblue" d="M1140.16,-224.324C1153.42,-215.9 1173.77,-202.971 1189.35,-193.074"/>
<polygon fill="midnightblue" stroke="midnightblue" points="1191.31,-195.971 1197.88,-187.655 1187.56,-190.063 1191.31,-195.971"/>
</g>
<!-- Node4&#45;&gt;Node11 -->
<g id="edge28" class="edge"><title>Node4&#45;&gt;Node11</title>
<path fill="none" stroke="midnightblue" d="M1162.38,-224.486C1193.24,-216.637 1238.62,-203.824 1276.5,-188 1286.14,-183.974 1339.61,-154.289 1371.5,-136.457"/>
<polygon fill="midnightblue" stroke="midnightblue" points="1373.24,-139.498 1380.25,-131.559 1369.82,-133.389 1373.24,-139.498"/>
</g>
<!-- Node15 -->
<g id="node16" class="node"><title>Node15</title>
<polygon fill="white" stroke="#bfbfbf" points="1111,-112.5 1111,-131.5 1168,-131.5 1168,-112.5 1111,-112.5"/>
<text text-anchor="middle" x="1139.5" y="-119.5" font-family="Helvetica,sans-Serif" font-size="10.00">memory</text>
</g>
<!-- Node4&#45;&gt;Node15 -->
<g id="edge23" class="edge"><title>Node4&#45;&gt;Node15</title>
<path fill="none" stroke="midnightblue" d="M1127.52,-224.368C1129.62,-206.617 1134.46,-165.666 1137.3,-141.597"/>
<polygon fill="midnightblue" stroke="midnightblue" points="1140.79,-141.933 1138.48,-131.591 1133.84,-141.112 1140.79,-141.933"/>
</g>
<!-- Node16 -->
<g id="node17" class="node"><title>Node16</title>
<polygon fill="white" stroke="#bfbfbf" points="1324.5,-168.5 1324.5,-187.5 1370.5,-187.5 1370.5,-168.5 1324.5,-168.5"/>
<text text-anchor="middle" x="1347.5" y="-175.5" font-family="Helvetica,sans-Serif" font-size="10.00">TFile.h</text>
</g>
<!-- Node4&#45;&gt;Node16 -->
<g id="edge17" class="edge"><title>Node4&#45;&gt;Node16</title>
<path fill="none" stroke="midnightblue" d="M1161.52,-224.444C1203.59,-214.163 1273.64,-197.047 1314.7,-187.014"/>
<polygon fill="midnightblue" stroke="midnightblue" points="1315.6,-190.398 1324.48,-184.624 1313.94,-183.598 1315.6,-190.398"/>
</g>
<!-- Node4&#45;&gt;Node17 -->
<g id="edge18" class="edge"><title>Node4&#45;&gt;Node17</title>
<path fill="none" stroke="midnightblue" d="M1174.2,-230.24C1259.58,-224.937 1444.32,-211.822 1609.38,-188.182"/>
<polygon fill="midnightblue" stroke="midnightblue" points="1610.32,-191.581 1619.72,-186.683 1609.32,-184.654 1610.32,-191.581"/>
</g>
<!-- Node18 -->
<g id="node19" class="node"><title>Node18</title>
<polygon fill="white" stroke="#bfbfbf" points="1389,-168.5 1389,-187.5 1442,-187.5 1442,-168.5 1389,-168.5"/>
<text text-anchor="middle" x="1415.5" y="-175.5" font-family="Helvetica,sans-Serif" font-size="10.00">TError.h</text>
</g>
<!-- Node4&#45;&gt;Node18 -->
<g id="edge19" class="edge"><title>Node4&#45;&gt;Node18</title>
<path fill="none" stroke="midnightblue" d="M1174.25,-225.514C1223.17,-217.621 1301.62,-204.341 1378.9,-188.003"/>
<polygon fill="midnightblue" stroke="midnightblue" points="1379.76,-191.399 1388.81,-185.89 1378.3,-184.553 1379.76,-191.399"/>
</g>
<!-- Node19 -->
<g id="node20" class="node"><title>Node19</title>
<polygon fill="white" stroke="#bfbfbf" points="1460,-168.5 1460,-187.5 1507,-187.5 1507,-168.5 1460,-168.5"/>
<text text-anchor="middle" x="1483.5" y="-175.5" font-family="Helvetica,sans-Serif" font-size="10.00">TList.h</text>
</g>
<!-- Node4&#45;&gt;Node19 -->
<g id="edge20" class="edge"><title>Node4&#45;&gt;Node19</title>
<path fill="none" stroke="midnightblue" d="M1174.04,-228.328C1235.5,-221.863 1345.96,-208.801 1449.77,-187.903"/>
<polygon fill="midnightblue" stroke="midnightblue" points="1450.7,-191.286 1459.79,-185.856 1449.3,-184.428 1450.7,-191.286"/>
</g>
<!-- Node20 -->
<g id="node21" class="node"><title>Node20</title>
<polygon fill="white" stroke="#bfbfbf" points="1525,-168.5 1525,-187.5 1602,-187.5 1602,-168.5 1525,-168.5"/>
<text text-anchor="middle" x="1563.5" y="-175.5" font-family="Helvetica,sans-Serif" font-size="10.00">TCollection.h</text>
</g>
<!-- Node4&#45;&gt;Node20 -->
<g id="edge21" class="edge"><title>Node4&#45;&gt;Node20</title>
<path fill="none" stroke="midnightblue" d="M1174.08,-228.66C1245.83,-221.864 1386.19,-207.588 1514.79,-188.173"/>
<polygon fill="midnightblue" stroke="midnightblue" points="1515.45,-191.611 1524.81,-186.645 1514.4,-184.691 1515.45,-191.611"/>
</g>
<!-- Node21 -->
<g id="node22" class="node"><title>Node21</title>
<polygon fill="white" stroke="#bfbfbf" points="964.5,-168.5 964.5,-187.5 1010.5,-187.5 1010.5,-168.5 964.5,-168.5"/>
<text text-anchor="middle" x="987.5" y="-175.5" font-family="Helvetica,sans-Serif" font-size="10.00">TKey.h</text>
</g>
<!-- Node4&#45;&gt;Node21 -->
<g id="edge22" class="edge"><title>Node4&#45;&gt;Node21</title>
<path fill="none" stroke="midnightblue" d="M1104.48,-224.444C1081.4,-215.478 1044.94,-201.314 1018.86,-191.183"/>
<polygon fill="midnightblue" stroke="midnightblue" points="1020.01,-187.875 1009.42,-187.516 1017.48,-194.4 1020.01,-187.875"/>
</g>
<!-- Node4&#45;&gt;Node22 -->
<g id="edge25" class="edge"><title>Node4&#45;&gt;Node22</title>
<path fill="none" stroke="midnightblue" d="M1079,-231.375C966.624,-227.143 687.179,-214.242 597.5,-188 579.183,-182.64 577.503,-174.335 559.5,-168 483.416,-141.229 457.064,-153.761 375.313,-131.798"/>
<polygon fill="midnightblue" stroke="midnightblue" points="376.18,-128.406 365.608,-129.101 374.306,-135.151 376.18,-128.406"/>
</g>
<!-- Node23 -->
<g id="node24" class="node"><title>Node23</title>
<polygon fill="white" stroke="#bfbfbf" points="1028.5,-168.5 1028.5,-187.5 1060.5,-187.5 1060.5,-168.5 1028.5,-168.5"/>
<text text-anchor="middle" x="1044.5" y="-175.5" font-family="Helvetica,sans-Serif" font-size="10.00">set</text>
</g>
<!-- Node4&#45;&gt;Node23 -->
<g id="edge26" class="edge"><title>Node4&#45;&gt;Node23</title>
<path fill="none" stroke="midnightblue" d="M1113.33,-224.324C1100.65,-215.979 1081.27,-203.212 1066.29,-193.352"/>
<polygon fill="midnightblue" stroke="midnightblue" points="1067.92,-190.231 1057.64,-187.655 1064.07,-196.078 1067.92,-190.231"/>
</g>
<!-- Node24 -->
<g id="node25" class="node"><title>Node24</title>
<polygon fill="white" stroke="#bfbfbf" points="828.5,-112.5 828.5,-131.5 892.5,-131.5 892.5,-112.5 828.5,-112.5"/>
<text text-anchor="middle" x="860.5" y="-119.5" font-family="Helvetica,sans-Serif" font-size="10.00">stdexcept</text>
</g>
<!-- Node4&#45;&gt;Node24 -->
<g id="edge27" class="edge"><title>Node4&#45;&gt;Node24</title>
<path fill="none" stroke="midnightblue" d="M1078.75,-230.359C1035.52,-226.2 971.32,-215.504 922.5,-188 901.572,-176.209 883.382,-155.075 872.213,-140.11"/>
<polygon fill="midnightblue" stroke="midnightblue" points="874.874,-137.816 866.203,-131.728 869.185,-141.895 874.874,-137.816"/>
</g>
<!-- Node5&#45;&gt;Node6 -->
<g id="edge6" class="edge"><title>Node5&#45;&gt;Node6</title>
<path fill="none" stroke="midnightblue" d="M986.96,-57.4948C982.072,-56.9557 977.203,-56.4487 972.5,-56 729.868,-32.8516 436.317,-17.3317 339.892,-12.5579"/>
<polygon fill="midnightblue" stroke="midnightblue" points="339.796,-9.04905 329.636,-12.054 339.453,-16.0406 339.796,-9.04905"/>
</g>
<!-- Node7 -->
<g id="node8" class="node"><title>Node7</title>
<polygon fill="white" stroke="#bfbfbf" points="982.5,-0.5 982.5,-19.5 1038.5,-19.5 1038.5,-0.5 982.5,-0.5"/>
<text text-anchor="middle" x="1010.5" y="-7.5" font-family="Helvetica,sans-Serif" font-size="10.00">sstream</text>
</g>
<!-- Node5&#45;&gt;Node7 -->
<g id="edge7" class="edge"><title>Node5&#45;&gt;Node7</title>
<path fill="none" stroke="midnightblue" d="M1039.72,-56.083C1034.83,-48.5341 1027.67,-37.4948 1021.67,-28.2298"/>
<polygon fill="midnightblue" stroke="midnightblue" points="1024.55,-26.239 1016.17,-19.7511 1018.67,-30.0463 1024.55,-26.239"/>
</g>
<!-- Node8 -->
<g id="node9" class="node"><title>Node8</title>
<polygon fill="white" stroke="#bfbfbf" points="1198.5,-0.5 1198.5,-19.5 1260.5,-19.5 1260.5,-0.5 1198.5,-0.5"/>
<text text-anchor="middle" x="1229.5" y="-7.5" font-family="Helvetica,sans-Serif" font-size="10.00">algorithm</text>
</g>
<!-- Node5&#45;&gt;Node8 -->
<g id="edge8" class="edge"><title>Node5&#45;&gt;Node8</title>
<path fill="none" stroke="midnightblue" d="M1074.66,-56.4435C1106.01,-47.2406 1156.03,-32.5617 1190.7,-22.3879"/>
<polygon fill="midnightblue" stroke="midnightblue" points="1191.87,-25.6909 1200.48,-19.5164 1189.9,-18.9742 1191.87,-25.6909"/>
</g>
<!-- Node9 -->
<g id="node10" class="node"><title>Node9</title>
<polygon fill="white" stroke="#bfbfbf" points="1057,-0.5 1057,-19.5 1104,-19.5 1104,-0.5 1057,-0.5"/>
<text text-anchor="middle" x="1080.5" y="-7.5" font-family="Helvetica,sans-Serif" font-size="10.00">vector</text>
</g>
<!-- Node5&#45;&gt;Node9 -->
<g id="edge9" class="edge"><title>Node5&#45;&gt;Node9</title>
<path fill="none" stroke="midnightblue" d="M1051.28,-56.083C1056.17,-48.5341 1063.33,-37.4948 1069.33,-28.2298"/>
<polygon fill="midnightblue" stroke="midnightblue" points="1072.33,-30.0463 1074.83,-19.7511 1066.45,-26.239 1072.33,-30.0463"/>
</g>
<!-- Node10&#45;&gt;Node8 -->
<g id="edge11" class="edge"><title>Node10&#45;&gt;Node8</title>
<path fill="none" stroke="midnightblue" d="M1222.77,-168.427C1232.47,-160.275 1245.78,-147.046 1251.5,-132 1264.85,-96.8996 1249.47,-52.9178 1238.54,-28.8247"/>
<polygon fill="midnightblue" stroke="midnightblue" points="1241.69,-27.3116 1234.22,-19.8006 1235.38,-30.332 1241.69,-27.3116"/>
</g>
<!-- Node10&#45;&gt;Node11 -->
<g id="edge12" class="edge"><title>Node10&#45;&gt;Node11</title>
<path fill="none" stroke="midnightblue" d="M1240.66,-168.444C1272.01,-159.241 1322.03,-144.562 1356.7,-134.388"/>
<polygon fill="midnightblue" stroke="midnightblue" points="1357.87,-137.691 1366.48,-131.516 1355.9,-130.974 1357.87,-137.691"/>
</g>
<!-- Node12 -->
<g id="node13" class="node"><title>Node12</title>
<polygon fill="white" stroke="#bfbfbf" points="1299,-112.5 1299,-131.5 1346,-131.5 1346,-112.5 1299,-112.5"/>
<text text-anchor="middle" x="1322.5" y="-119.5" font-family="Helvetica,sans-Serif" font-size="10.00">cmath</text>
</g>
<!-- Node10&#45;&gt;Node12 -->
<g id="edge13" class="edge"><title>Node10&#45;&gt;Node12</title>
<path fill="none" stroke="midnightblue" d="M1229.33,-168.324C1247.22,-159.625 1274.98,-146.12 1295.55,-136.113"/>
<polygon fill="midnightblue" stroke="midnightblue" points="1297.25,-139.177 1304.71,-131.655 1294.19,-132.882 1297.25,-139.177"/>
</g>
<!-- Node13 -->
<g id="node14" class="node"><title>Node13</title>
<polygon fill="white" stroke="#bfbfbf" points="1186.5,-112.5 1186.5,-131.5 1242.5,-131.5 1242.5,-112.5 1186.5,-112.5"/>
<text text-anchor="middle" x="1214.5" y="-119.5" font-family="Helvetica,sans-Serif" font-size="10.00">cxxabi.h</text>
</g>
<!-- Node10&#45;&gt;Node13 -->
<g id="edge14" class="edge"><title>Node10&#45;&gt;Node13</title>
<path fill="none" stroke="midnightblue" d="M1212,-168.083C1212.39,-161.006 1212.95,-150.861 1213.45,-141.986"/>
<polygon fill="midnightblue" stroke="midnightblue" points="1216.95,-141.93 1214.01,-131.751 1209.96,-141.542 1216.95,-141.93"/>
</g>
<!-- Node14 -->
<g id="node15" class="node"><title>Node14</title>
<polygon fill="white" stroke="#bfbfbf" points="986.5,-112.5 986.5,-131.5 1054.5,-131.5 1054.5,-112.5 986.5,-112.5"/>
<text text-anchor="middle" x="1020.5" y="-119.5" font-family="Helvetica,sans-Serif" font-size="10.00">type_traits</text>
</g>
<!-- Node10&#45;&gt;Node14 -->
<g id="edge15" class="edge"><title>Node10&#45;&gt;Node14</title>
<path fill="none" stroke="midnightblue" d="M1181.24,-168.444C1148.54,-159.201 1096.32,-144.436 1060.32,-134.257"/>
<polygon fill="midnightblue" stroke="midnightblue" points="1061.2,-130.869 1050.62,-131.516 1059.29,-137.605 1061.2,-130.869"/>
</g>
<!-- Node10&#45;&gt;Node15 -->
<g id="edge16" class="edge"><title>Node10&#45;&gt;Node15</title>
<path fill="none" stroke="midnightblue" d="M1199.93,-168.324C1189.08,-160.185 1172.62,-147.839 1159.62,-138.087"/>
<polygon fill="midnightblue" stroke="midnightblue" points="1161.38,-135.034 1151.28,-131.834 1157.18,-140.634 1161.38,-135.034"/>
</g>
<!-- Node25&#45;&gt;Node6 -->
<g id="edge32" class="edge"><title>Node25&#45;&gt;Node6</title>
<path fill="none" stroke="midnightblue" d="M314.827,-168.459C307.721,-159.927 297.646,-146.088 293.5,-132 283.963,-99.5965 288.425,-89.3944 293.5,-56 294.868,-47.001 297.69,-37.3251 300.445,-29.2601"/>
<polygon fill="midnightblue" stroke="midnightblue" points="303.765,-30.3722 303.9,-19.7782 297.188,-27.9759 303.765,-30.3722"/>
</g>
<!-- Node25&#45;&gt;Node22 -->
<g id="edge31" class="edge"><title>Node25&#45;&gt;Node22</title>
<path fill="none" stroke="midnightblue" d="M327.124,-168.083C330.956,-160.691 336.524,-149.953 341.265,-140.811"/>
<polygon fill="midnightblue" stroke="midnightblue" points="344.466,-142.24 345.962,-131.751 338.252,-139.018 344.466,-142.24"/>
</g>
<!-- Node26&#45;&gt;Node15 -->
<g id="edge34" class="edge"><title>Node26&#45;&gt;Node15</title>
<path fill="none" stroke="midnightblue" d="M810.455,-168.444C891.806,-157.208 1032.25,-137.812 1100.29,-128.415"/>
<polygon fill="midnightblue" stroke="midnightblue" points="1101.15,-131.83 1110.57,-126.995 1100.19,-124.896 1101.15,-131.83"/>
</g>
<!-- Node26&#45;&gt;Node22 -->
<g id="edge35" class="edge"><title>Node26&#45;&gt;Node22</title>
<path fill="none" stroke="midnightblue" d="M683.728,-170.059C591.607,-160.068 428.797,-141.929 375.66,-131.499"/>
<polygon fill="midnightblue" stroke="midnightblue" points="376.082,-128.009 365.563,-129.272 374.574,-134.844 376.082,-128.009"/>
</g>
<!-- Node27&#45;&gt;Node6 -->
<g id="edge51" class="edge"><title>Node27&#45;&gt;Node6</title>
<path fill="none" stroke="midnightblue" d="M547.98,-224.478C488.641,-203.643 341.093,-150.478 326.5,-132 303.08,-102.346 303.019,-55.5571 305.172,-29.7106"/>
<polygon fill="midnightblue" stroke="midnightblue" points="308.657,-30.0427 306.205,-19.7354 301.694,-29.3216 308.657,-30.0427"/>
</g>
<!-- Node28 -->
<g id="node29" class="node"><title>Node28</title>
<g id="a_node29"><a xlink:href="_t_i_d_8h.html" target="_top" xlink:title="TID.h">
<polygon fill="white" stroke="black" points="607,-168.5 607,-187.5 648,-187.5 648,-168.5 607,-168.5"/>
<text text-anchor="middle" x="627.5" y="-175.5" font-family="Helvetica,sans-Serif" font-size="10.00">TID.h</text>
</a>
</g>
</g>
<!-- Node27&#45;&gt;Node28 -->
<g id="edge37" class="edge"><title>Node27&#45;&gt;Node28</title>
<path fill="none" stroke="midnightblue" d="M581.582,-224.083C589.671,-216.141 601.695,-204.335 611.41,-194.797"/>
<polygon fill="midnightblue" stroke="midnightblue" points="613.903,-197.254 618.587,-187.751 608.999,-192.26 613.903,-197.254"/>
</g>
<!-- Node36 -->
<g id="node37" class="node"><title>Node36</title>
<polygon fill="white" stroke="#bfbfbf" points="484.5,-168.5 484.5,-187.5 550.5,-187.5 550.5,-168.5 484.5,-168.5"/>
<text text-anchor="middle" x="517.5" y="-175.5" font-family="Helvetica,sans-Serif" font-size="10.00">TNamed.h</text>
</g>
<!-- Node27&#45;&gt;Node36 -->
<g id="edge50" class="edge"><title>Node27&#45;&gt;Node36</title>
<path fill="none" stroke="midnightblue" d="M563.418,-224.083C555.329,-216.141 543.305,-204.335 533.59,-194.797"/>
<polygon fill="midnightblue" stroke="midnightblue" points="536.001,-192.26 526.413,-187.751 531.097,-197.254 536.001,-192.26"/>
</g>
<!-- Node28&#45;&gt;Node14 -->
<g id="edge43" class="edge"><title>Node28&#45;&gt;Node14</title>
<path fill="none" stroke="midnightblue" d="M648.043,-172.79C656.253,-171.18 665.805,-169.397 674.5,-168 782.366,-150.674 909.975,-135.426 975.974,-127.927"/>
<polygon fill="midnightblue" stroke="midnightblue" points="976.481,-131.392 986.024,-126.791 975.695,-124.437 976.481,-131.392"/>
</g>
<!-- Node28&#45;&gt;Node22 -->
<g id="edge47" class="edge"><title>Node28&#45;&gt;Node22</title>
<path fill="none" stroke="midnightblue" d="M606.843,-171.367C602.146,-170.176 597.166,-168.983 592.5,-168 499.506,-148.405 471.184,-156.773 375.389,-131.778"/>
<polygon fill="midnightblue" stroke="midnightblue" points="376.154,-128.36 365.59,-129.168 374.352,-135.124 376.154,-128.36"/>
</g>
<!-- Node28&#45;&gt;Node24 -->
<g id="edge46" class="edge"><title>Node28&#45;&gt;Node24</title>
<path fill="none" stroke="midnightblue" d="M648.177,-172.208C686.313,-163.37 768.403,-144.344 818.6,-132.711"/>
<polygon fill="midnightblue" stroke="midnightblue" points="819.544,-136.085 828.496,-130.417 817.964,-129.266 819.544,-136.085"/>
</g>
<!-- Node29 -->
<g id="node30" class="node"><title>Node29</title>
<polygon fill="white" stroke="#bfbfbf" points="495.5,-112.5 495.5,-131.5 553.5,-131.5 553.5,-112.5 495.5,-112.5"/>
<text text-anchor="middle" x="524.5" y="-119.5" font-family="Helvetica,sans-Serif" font-size="10.00">Rtypes.h</text>
</g>
<!-- Node28&#45;&gt;Node29 -->
<g id="edge38" class="edge"><title>Node28&#45;&gt;Node29</title>
<path fill="none" stroke="midnightblue" d="M610.951,-168.324C594.508,-159.703 569.065,-146.364 550.032,-136.386"/>
<polygon fill="midnightblue" stroke="midnightblue" points="551.489,-133.198 541.008,-131.655 548.239,-139.398 551.489,-133.198"/>
</g>
<!-- Node30 -->
<g id="node31" class="node"><title>Node30</title>
<g id="a_node31"><a xlink:href="base_2std__ext_2_time_8h.html" target="_top" xlink:title="base/std_ext/time.h">
<polygon fill="white" stroke="black" points="571.5,-112.5 571.5,-131.5 683.5,-131.5 683.5,-112.5 571.5,-112.5"/>
<text text-anchor="middle" x="627.5" y="-119.5" font-family="Helvetica,sans-Serif" font-size="10.00">base/std_ext/time.h</text>
</a>
</g>
</g>
<!-- Node28&#45;&gt;Node30 -->
<g id="edge39" class="edge"><title>Node28&#45;&gt;Node30</title>
<path fill="none" stroke="midnightblue" d="M627.5,-168.083C627.5,-161.006 627.5,-150.861 627.5,-141.986"/>
<polygon fill="midnightblue" stroke="midnightblue" points="631,-141.751 627.5,-131.751 624,-141.751 631,-141.751"/>
</g>
<!-- Node32 -->
<g id="node33" class="node"><title>Node32</title>
<polygon fill="white" stroke="#bfbfbf" points="492.5,-56.5 492.5,-75.5 536.5,-75.5 536.5,-56.5 492.5,-56.5"/>
<text text-anchor="middle" x="514.5" y="-63.5" font-family="Helvetica,sans-Serif" font-size="10.00">ctime</text>
</g>
<!-- Node28&#45;&gt;Node32 -->
<g id="edge49" class="edge"><title>Node28&#45;&gt;Node32</title>
<path fill="none" stroke="midnightblue" d="M606.75,-171.075C568.441,-160.041 490.157,-137.006 486.5,-132 475.576,-117.046 487.22,-97.17 498.645,-83.3508"/>
<polygon fill="midnightblue" stroke="midnightblue" points="501.488,-85.4219 505.527,-75.6272 496.261,-80.7651 501.488,-85.4219"/>
</g>
<!-- Node33 -->
<g id="node34" class="node"><title>Node33</title>
<polygon fill="white" stroke="#bfbfbf" points="702,-112.5 702,-131.5 743,-131.5 743,-112.5 702,-112.5"/>
<text text-anchor="middle" x="722.5" y="-119.5" font-family="Helvetica,sans-Serif" font-size="10.00">tuple</text>
</g>
<!-- Node28&#45;&gt;Node33 -->
<g id="edge44" class="edge"><title>Node28&#45;&gt;Node33</title>
<path fill="none" stroke="midnightblue" d="M642.763,-168.324C657.721,-159.822 680.755,-146.729 698.227,-136.797"/>
<polygon fill="midnightblue" stroke="midnightblue" points="700.31,-139.639 707.274,-131.655 696.851,-133.553 700.31,-139.639"/>
</g>
<!-- Node34 -->
<g id="node35" class="node"><title>Node34</title>
<polygon fill="white" stroke="#bfbfbf" points="761,-112.5 761,-131.5 810,-131.5 810,-112.5 761,-112.5"/>
<text text-anchor="middle" x="785.5" y="-119.5" font-family="Helvetica,sans-Serif" font-size="10.00">cstdint</text>
</g>
<!-- Node28&#45;&gt;Node34 -->
<g id="edge45" class="edge"><title>Node28&#45;&gt;Node34</title>
<path fill="none" stroke="midnightblue" d="M648.156,-169.94C674.347,-160.989 719.87,-145.431 751.284,-134.694"/>
<polygon fill="midnightblue" stroke="midnightblue" points="752.615,-137.938 760.945,-131.392 750.351,-131.314 752.615,-137.938"/>
</g>
<!-- Node35 -->
<g id="node36" class="node"><title>Node35</title>
<polygon fill="white" stroke="#bfbfbf" points="384,-112.5 384,-131.5 439,-131.5 439,-112.5 384,-112.5"/>
<text text-anchor="middle" x="411.5" y="-119.5" font-family="Helvetica,sans-Serif" font-size="10.00">iomanip</text>
</g>
<!-- Node28&#45;&gt;Node35 -->
<g id="edge48" class="edge"><title>Node28&#45;&gt;Node35</title>
<path fill="none" stroke="midnightblue" d="M606.779,-171.642C602.085,-170.437 597.123,-169.169 592.5,-168 542.859,-155.447 485.482,-141.232 448.868,-132.198"/>
<polygon fill="midnightblue" stroke="midnightblue" points="449.662,-128.789 439.115,-129.793 447.986,-135.585 449.662,-128.789"/>
</g>
<!-- Node30&#45;&gt;Node5 -->
<g id="edge40" class="edge"><title>Node30&#45;&gt;Node5</title>
<path fill="none" stroke="midnightblue" d="M683.515,-113.205C686.554,-112.794 689.564,-112.39 692.5,-112 791.147,-98.8833 905.409,-84.4571 976.582,-75.5624"/>
<polygon fill="midnightblue" stroke="midnightblue" points="977.274,-79.0032 986.763,-74.291 976.406,-72.0572 977.274,-79.0032"/>
</g>
<!-- Node31 -->
<g id="node32" class="node"><title>Node31</title>
<polygon fill="white" stroke="#bfbfbf" points="603,-56.5 603,-75.5 652,-75.5 652,-56.5 603,-56.5"/>
<text text-anchor="middle" x="627.5" y="-63.5" font-family="Helvetica,sans-Serif" font-size="10.00">cstring</text>
</g>
<!-- Node30&#45;&gt;Node31 -->
<g id="edge41" class="edge"><title>Node30&#45;&gt;Node31</title>
<path fill="none" stroke="midnightblue" d="M627.5,-112.083C627.5,-105.006 627.5,-94.8611 627.5,-85.9865"/>
<polygon fill="midnightblue" stroke="midnightblue" points="631,-85.751 627.5,-75.7511 624,-85.7511 631,-85.751"/>
</g>
<!-- Node30&#45;&gt;Node32 -->
<g id="edge42" class="edge"><title>Node30&#45;&gt;Node32</title>
<path fill="none" stroke="midnightblue" d="M609.595,-112.444C591.246,-103.675 562.495,-89.9355 541.406,-79.8579"/>
<polygon fill="midnightblue" stroke="midnightblue" points="542.853,-76.6703 532.321,-75.5164 539.835,-82.9862 542.853,-76.6703"/>
</g>
</g>
</svg>
