<?xml version="1.0" encoding="UTF-8" standalone="no"?>
<!DOCTYPE svg PUBLIC "-//W3C//DTD SVG 1.1//EN"
 "http://www.w3.org/Graphics/SVG/1.1/DTD/svg11.dtd">
<!-- Generated by graphviz version 2.38.0 (20140413.2041)
 -->
<!-- Title: src/base/ClippedInterpolatorWrapper.h Pages: 1 -->
<svg width="3048pt" height="251pt"
 viewBox="0.00 0.00 3047.50 251.00" xmlns="http://www.w3.org/2000/svg" xmlns:xlink="http://www.w3.org/1999/xlink">
<g id="graph0" class="graph" transform="scale(1 1) rotate(0) translate(4 247)">
<title>src/base/ClippedInterpolatorWrapper.h</title>
<polygon fill="white" stroke="none" points="-4,4 -4,-247 3043.5,-247 3043.5,4 -4,4"/>
<!-- Node14 -->
<g id="node1" class="node"><title>Node14</title>
<polygon fill="#bfbfbf" stroke="black" points="2324,-212.5 2324,-242.5 2475,-242.5 2475,-212.5 2324,-212.5"/>
<text text-anchor="start" x="2332" y="-230.5" font-family="Helvetica,sans-Serif" font-size="10.00">src/base/ClippedInterpolator</text>
<text text-anchor="middle" x="2399.5" y="-219.5" font-family="Helvetica,sans-Serif" font-size="10.00">Wrapper.h</text>
</g>
<!-- Node15 -->
<g id="node2" class="node"><title>Node15</title>
<g id="a_node2"><a xlink:href="_interpolated_8h.html" target="_top" xlink:title="src/analysis/utils\l/uncertainties/Interpolated.h">
<polygon fill="white" stroke="black" points="1478.5,-145.5 1478.5,-175.5 1630.5,-175.5 1630.5,-145.5 1478.5,-145.5"/>
<text text-anchor="start" x="1486.5" y="-163.5" font-family="Helvetica,sans-Serif" font-size="10.00">src/analysis/utils</text>
<text text-anchor="middle" x="1554.5" y="-152.5" font-family="Helvetica,sans-Serif" font-size="10.00">/uncertainties/Interpolated.h</text>
</a>
</g>
</g>
<!-- Node14&#45;&gt;Node15 -->
<g id="edge1" class="edge"><title>Node14&#45;&gt;Node15</title>
<path fill="none" stroke="midnightblue" d="M2313.64,-219.896C2148.28,-207.175 1788.07,-179.467 1630.67,-167.359"/>
<polygon fill="midnightblue" stroke="midnightblue" points="2313.53,-223.397 2323.77,-220.674 2314.07,-216.418 2313.53,-223.397"/>
</g>
<!-- Node34 -->
<g id="node21" class="node"><title>Node34</title>
<g id="a_node21"><a xlink:href="_interpolated_8cc.html" target="_top" xlink:title="src/analysis/utils\l/uncertainties/Interpolated.cc">
<polygon fill="white" stroke="black" points="2883.5,-73 2883.5,-103 3039.5,-103 3039.5,-73 2883.5,-73"/>
<text text-anchor="start" x="2891.5" y="-91" font-family="Helvetica,sans-Serif" font-size="10.00">src/analysis/utils</text>
<text text-anchor="middle" x="2961.5" y="-80" font-family="Helvetica,sans-Serif" font-size="10.00">/uncertainties/Interpolated.cc</text>
</a>
</g>
</g>
<!-- Node14&#45;&gt;Node34 -->
<g id="edge22" class="edge"><title>Node14&#45;&gt;Node34</title>
<path fill="none" stroke="midnightblue" d="M2379.22,-204.256C2365.38,-186.353 2352.1,-161.536 2367.5,-145 2405.99,-103.676 2818.65,-117.351 2874.5,-109 2884.77,-107.464 2895.62,-105.363 2906.05,-103.096"/>
<polygon fill="midnightblue" stroke="midnightblue" points="2376.88,-206.923 2385.94,-212.422 2382.29,-202.476 2376.88,-206.923"/>
</g>
<!-- Node36 -->
<g id="node23" class="node"><title>Node36</title>
<g id="a_node23"><a xlink:href="_clipped_interpolator_wrapper_8cc.html" target="_top" xlink:title="src/base/ClippedInterpolator\lWrapper.cc">
<polygon fill="white" stroke="black" points="2376,-145.5 2376,-175.5 2527,-175.5 2527,-145.5 2376,-145.5"/>
<text text-anchor="start" x="2384" y="-163.5" font-family="Helvetica,sans-Serif" font-size="10.00">src/base/ClippedInterpolator</text>
<text text-anchor="middle" x="2451.5" y="-152.5" font-family="Helvetica,sans-Serif" font-size="10.00">Wrapper.cc</text>
</a>
</g>
</g>
<!-- Node14&#45;&gt;Node36 -->
<g id="edge23" class="edge"><title>Node14&#45;&gt;Node36</title>
<path fill="none" stroke="midnightblue" d="M2417.14,-204.447C2424.78,-194.899 2433.5,-184.004 2440.24,-175.577"/>
<polygon fill="midnightblue" stroke="midnightblue" points="2414.3,-202.401 2410.78,-212.396 2419.76,-206.774 2414.3,-202.401"/>
</g>
<!-- Node37 -->
<g id="node24" class="node"><title>Node37</title>
<g id="a_node24"><a xlink:href="_cluster_correction_8cc.html" target="_top" xlink:title="src/calibration/modules\l/ClusterCorrection.cc">
<polygon fill="white" stroke="black" points="2545.5,-145.5 2545.5,-175.5 2673.5,-175.5 2673.5,-145.5 2545.5,-145.5"/>
<text text-anchor="start" x="2553.5" y="-163.5" font-family="Helvetica,sans-Serif" font-size="10.00">src/calibration/modules</text>
<text text-anchor="middle" x="2609.5" y="-152.5" font-family="Helvetica,sans-Serif" font-size="10.00">/ClusterCorrection.cc</text>
</a>
</g>
</g>
<!-- Node14&#45;&gt;Node37 -->
<g id="edge24" class="edge"><title>Node14&#45;&gt;Node37</title>
<path fill="none" stroke="midnightblue" d="M2454.6,-209.444C2488.64,-198.908 2531.8,-185.549 2563.91,-175.611"/>
<polygon fill="midnightblue" stroke="midnightblue" points="2453.33,-206.176 2444.81,-212.476 2455.4,-212.863 2453.33,-206.176"/>
</g>
<!-- Node16 -->
<g id="node3" class="node"><title>Node16</title>
<g id="a_node3"><a xlink:href="_p_i_d___t_a_p_s_veto___kinfit_8cc.html" target="_top" xlink:title="src/analysis/physics\l/calibration/PID_TAPSVeto\l_Kinfit.cc">
<polygon fill="white" stroke="black" points="0,-67.5 0,-108.5 139,-108.5 139,-67.5 0,-67.5"/>
<text text-anchor="start" x="8" y="-96.5" font-family="Helvetica,sans-Serif" font-size="10.00">src/analysis/physics</text>
<text text-anchor="start" x="8" y="-85.5" font-family="Helvetica,sans-Serif" font-size="10.00">/calibration/PID_TAPSVeto</text>
<text text-anchor="middle" x="69.5" y="-74.5" font-family="Helvetica,sans-Serif" font-size="10.00">_Kinfit.cc</text>
</a>
</g>
</g>
<!-- Node15&#45;&gt;Node16 -->
<g id="edge2" class="edge"><title>Node15&#45;&gt;Node16</title>
<path fill="none" stroke="midnightblue" d="M1467.97,-158.793C1203,-156.251 405.156,-145.673 148.5,-109 145.419,-108.56 142.284,-108.047 139.127,-107.479"/>
<polygon fill="midnightblue" stroke="midnightblue" points="1468.27,-162.296 1478.3,-158.891 1468.34,-155.297 1468.27,-162.296"/>
</g>
<!-- Node17 -->
<g id="node4" class="node"><title>Node17</title>
<g id="a_node4"><a xlink:href="_kin_fit_i_m_check_8cc.html" target="_top" xlink:title="src/analysis/physics\l/check/KinFitIMCheck.cc">
<polygon fill="white" stroke="black" points="157.5,-73 157.5,-103 285.5,-103 285.5,-73 157.5,-73"/>
<text text-anchor="start" x="165.5" y="-91" font-family="Helvetica,sans-Serif" font-size="10.00">src/analysis/physics</text>
<text text-anchor="middle" x="221.5" y="-80" font-family="Helvetica,sans-Serif" font-size="10.00">/check/KinFitIMCheck.cc</text>
</a>
</g>
</g>
<!-- Node15&#45;&gt;Node17 -->
<g id="edge3" class="edge"><title>Node15&#45;&gt;Node17</title>
<path fill="none" stroke="midnightblue" d="M1468.16,-158.593C1222.25,-155.604 521.377,-144.156 294.5,-109 285.41,-107.591 275.833,-105.458 266.715,-103.101"/>
<polygon fill="midnightblue" stroke="midnightblue" points="1468.43,-162.096 1478.47,-158.716 1468.51,-155.097 1468.43,-162.096"/>
</g>
<!-- Node18 -->
<g id="node5" class="node"><title>Node18</title>
<g id="a_node5"><a xlink:href="_p_i_d_efficiency_check_8cc.html" target="_top" xlink:title="src/analysis/physics\l/check/PIDEfficiencyCheck.cc">
<polygon fill="white" stroke="black" points="304,-73 304,-103 457,-103 457,-73 304,-73"/>
<text text-anchor="start" x="312" y="-91" font-family="Helvetica,sans-Serif" font-size="10.00">src/analysis/physics</text>
<text text-anchor="middle" x="380.5" y="-80" font-family="Helvetica,sans-Serif" font-size="10.00">/check/PIDEfficiencyCheck.cc</text>
</a>
</g>
</g>
<!-- Node15&#45;&gt;Node18 -->
<g id="edge4" class="edge"><title>Node15&#45;&gt;Node18</title>
<path fill="none" stroke="midnightblue" d="M1467.82,-157.516C1245.55,-152.101 659.295,-135.666 466.5,-109 455.871,-107.53 444.625,-105.368 433.893,-103.003"/>
<polygon fill="midnightblue" stroke="midnightblue" points="1468.04,-161.022 1478.12,-157.765 1468.21,-154.024 1468.04,-161.022"/>
</g>
<!-- Node19 -->
<g id="node6" class="node"><title>Node19</title>
<g id="a_node6"><a xlink:href="_three_photon_check_8cc.html" target="_top" xlink:title="src/analysis/physics\l/check/ThreePhotonCheck.cc">
<polygon fill="white" stroke="black" points="475.5,-73 475.5,-103 629.5,-103 629.5,-73 475.5,-73"/>
<text text-anchor="start" x="483.5" y="-91" font-family="Helvetica,sans-Serif" font-size="10.00">src/analysis/physics</text>
<text text-anchor="middle" x="552.5" y="-80" font-family="Helvetica,sans-Serif" font-size="10.00">/check/ThreePhotonCheck.cc</text>
</a>
</g>
</g>
<!-- Node15&#45;&gt;Node19 -->
<g id="edge5" class="edge"><title>Node15&#45;&gt;Node19</title>
<path fill="none" stroke="midnightblue" d="M1467.91,-159.711C1304.78,-159.006 941.089,-152.193 638.5,-109 628.029,-107.505 616.955,-105.363 606.364,-103.032"/>
<polygon fill="midnightblue" stroke="midnightblue" points="1468.35,-163.212 1478.36,-159.749 1468.38,-156.212 1468.35,-163.212"/>
</g>
<!-- Node20 -->
<g id="node7" class="node"><title>Node20</title>
<g id="a_node7"><a xlink:href="_etap_omega_g_8cc.html" target="_top" xlink:title="src/analysis/physics\l/etaprime/EtapOmegaG.cc">
<polygon fill="white" stroke="black" points="647.5,-73 647.5,-103 791.5,-103 791.5,-73 647.5,-73"/>
<text text-anchor="start" x="655.5" y="-91" font-family="Helvetica,sans-Serif" font-size="10.00">src/analysis/physics</text>
<text text-anchor="middle" x="719.5" y="-80" font-family="Helvetica,sans-Serif" font-size="10.00">/etaprime/EtapOmegaG.cc</text>
</a>
</g>
</g>
<!-- Node15&#45;&gt;Node20 -->
<g id="edge6" class="edge"><title>Node15&#45;&gt;Node20</title>
<path fill="none" stroke="midnightblue" d="M1468.01,-158.619C1327.28,-156.086 1040.32,-146.343 800.5,-109 790.768,-107.485 780.49,-105.363 770.645,-103.064"/>
<polygon fill="midnightblue" stroke="midnightblue" points="1468.24,-162.123 1478.3,-158.795 1468.36,-155.124 1468.24,-162.123"/>
</g>
<!-- Node21 -->
<g id="node8" class="node"><title>Node21</title>
<g id="a_node8"><a xlink:href="_etap_omega_g__simple_8cc.html" target="_top" xlink:title="src/analysis/physics\l/etaprime/EtapOmegaG\l_simple.cc">
<polygon fill="white" stroke="black" points="810,-67.5 810,-108.5 941,-108.5 941,-67.5 810,-67.5"/>
<text text-anchor="start" x="818" y="-96.5" font-family="Helvetica,sans-Serif" font-size="10.00">src/analysis/physics</text>
<text text-anchor="start" x="818" y="-85.5" font-family="Helvetica,sans-Serif" font-size="10.00">/etaprime/EtapOmegaG</text>
<text text-anchor="middle" x="875.5" y="-74.5" font-family="Helvetica,sans-Serif" font-size="10.00">_simple.cc</text>
</a>
</g>
</g>
<!-- Node15&#45;&gt;Node21 -->
<g id="edge7" class="edge"><title>Node15&#45;&gt;Node21</title>
<path fill="none" stroke="midnightblue" d="M1468.1,-157.083C1350.31,-152.697 1133.09,-140.72 950.5,-109 947.446,-108.469 944.336,-107.873 941.204,-107.226"/>
<polygon fill="midnightblue" stroke="midnightblue" points="1468.03,-160.582 1478.15,-157.447 1468.28,-153.587 1468.03,-160.582"/>
</g>
<!-- Node22 -->
<g id="node9" class="node"><title>Node22</title>
<g id="a_node9"><a xlink:href="etaprime__dalitz_8cc.html" target="_top" xlink:title="src/analysis/physics\l/etaprime/etaprime_dalitz.cc">
<polygon fill="white" stroke="black" points="959.5,-73 959.5,-103 1113.5,-103 1113.5,-73 959.5,-73"/>
<text text-anchor="start" x="967.5" y="-91" font-family="Helvetica,sans-Serif" font-size="10.00">src/analysis/physics</text>
<text text-anchor="middle" x="1036.5" y="-80" font-family="Helvetica,sans-Serif" font-size="10.00">/etaprime/etaprime_dalitz.cc</text>
</a>
</g>
</g>
<!-- Node15&#45;&gt;Node22 -->
<g id="edge8" class="edge"><title>Node15&#45;&gt;Node22</title>
<path fill="none" stroke="midnightblue" d="M1468.29,-152.291C1380.79,-144.303 1241.64,-129.75 1122.5,-109 1112.83,-107.317 1102.63,-105.225 1092.75,-103.034"/>
<polygon fill="midnightblue" stroke="midnightblue" points="1468.16,-155.793 1478.43,-153.209 1468.79,-148.822 1468.16,-155.793"/>
</g>
<!-- Node23 -->
<g id="node10" class="node"><title>Node23</title>
<g id="a_node10"><a xlink:href="_omega___eta_g_8cc.html" target="_top" xlink:title="src/analysis/physics\l/omega/Omega_EtaG.cc">
<polygon fill="white" stroke="black" points="1131.5,-73 1131.5,-103 1265.5,-103 1265.5,-73 1131.5,-73"/>
<text text-anchor="start" x="1139.5" y="-91" font-family="Helvetica,sans-Serif" font-size="10.00">src/analysis/physics</text>
<text text-anchor="middle" x="1198.5" y="-80" font-family="Helvetica,sans-Serif" font-size="10.00">/omega/Omega_EtaG.cc</text>
</a>
</g>
</g>
<!-- Node15&#45;&gt;Node23 -->
<g id="edge9" class="edge"><title>Node15&#45;&gt;Node23</title>
<path fill="none" stroke="midnightblue" d="M1468.26,-145.755C1412.72,-136.457 1339.08,-123.299 1274.5,-109 1266.37,-107.201 1257.81,-105.124 1249.47,-103.003"/>
<polygon fill="midnightblue" stroke="midnightblue" points="1467.98,-149.255 1478.42,-147.445 1469.13,-142.35 1467.98,-149.255"/>
</g>
<!-- Node24 -->
<g id="node11" class="node"><title>Node24</title>
<g id="a_node11"><a xlink:href="_just_pi0_8cc.html" target="_top" xlink:title="src/analysis/physics\l/pi0/JustPi0.cc">
<polygon fill="white" stroke="black" points="1283.5,-73 1283.5,-103 1393.5,-103 1393.5,-73 1283.5,-73"/>
<text text-anchor="start" x="1291.5" y="-91" font-family="Helvetica,sans-Serif" font-size="10.00">src/analysis/physics</text>
<text text-anchor="middle" x="1338.5" y="-80" font-family="Helvetica,sans-Serif" font-size="10.00">/pi0/JustPi0.cc</text>
</a>
</g>
</g>
<!-- Node15&#45;&gt;Node24 -->
<g id="edge10" class="edge"><title>Node15&#45;&gt;Node24</title>
<path fill="none" stroke="midnightblue" d="M1501.98,-142.358C1465.1,-130.32 1416.36,-114.412 1381.72,-103.107"/>
<polygon fill="midnightblue" stroke="midnightblue" points="1500.97,-145.712 1511.57,-145.487 1503.15,-139.057 1500.97,-145.712"/>
</g>
<!-- Node25 -->
<g id="node12" class="node"><title>Node25</title>
<g id="a_node12"><a xlink:href="sigma_plus_8cc.html" target="_top" xlink:title="src/analysis/physics\l/production/sigmaPlus.cc">
<polygon fill="white" stroke="black" points="1411.5,-73 1411.5,-103 1547.5,-103 1547.5,-73 1411.5,-73"/>
<text text-anchor="start" x="1419.5" y="-91" font-family="Helvetica,sans-Serif" font-size="10.00">src/analysis/physics</text>
<text text-anchor="middle" x="1479.5" y="-80" font-family="Helvetica,sans-Serif" font-size="10.00">/production/sigmaPlus.cc</text>
</a>
</g>
</g>
<!-- Node15&#45;&gt;Node25 -->
<g id="edge11" class="edge"><title>Node15&#45;&gt;Node25</title>
<path fill="none" stroke="midnightblue" d="M1531.78,-138.139C1519.65,-126.743 1505.08,-113.041 1494.4,-103.005"/>
<polygon fill="midnightblue" stroke="midnightblue" points="1529.64,-140.934 1539.32,-145.233 1534.43,-135.834 1529.64,-140.934"/>
</g>
<!-- Node26 -->
<g id="node13" class="node"><title>Node26</title>
<g id="a_node13"><a xlink:href="single_pi0_8cc.html" target="_top" xlink:title="src/analysis/physics\l/production/singlePi0.cc">
<polygon fill="white" stroke="black" points="1566,-73 1566,-103 1695,-103 1695,-73 1566,-73"/>
<text text-anchor="start" x="1574" y="-91" font-family="Helvetica,sans-Serif" font-size="10.00">src/analysis/physics</text>
<text text-anchor="middle" x="1630.5" y="-80" font-family="Helvetica,sans-Serif" font-size="10.00">/production/singlePi0.cc</text>
</a>
</g>
</g>
<!-- Node15&#45;&gt;Node26 -->
<g id="edge12" class="edge"><title>Node15&#45;&gt;Node26</title>
<path fill="none" stroke="midnightblue" d="M1577.53,-138.139C1589.81,-126.743 1604.58,-113.041 1615.4,-103.005"/>
<polygon fill="midnightblue" stroke="midnightblue" points="1574.83,-135.866 1569.88,-145.233 1579.59,-140.998 1574.83,-135.866"/>
</g>
<!-- Node27 -->
<g id="node14" class="node"><title>Node27</title>
<g id="a_node14"><a xlink:href="triple_pi0_8cc.html" target="_top" xlink:title="src/analysis/physics\l/production/triplePi0.cc">
<polygon fill="white" stroke="black" points="1713,-73 1713,-103 1838,-103 1838,-73 1713,-73"/>
<text text-anchor="start" x="1721" y="-91" font-family="Helvetica,sans-Serif" font-size="10.00">src/analysis/physics</text>
<text text-anchor="middle" x="1775.5" y="-80" font-family="Helvetica,sans-Serif" font-size="10.00">/production/triplePi0.cc</text>
</a>
</g>
</g>
<!-- Node15&#45;&gt;Node27 -->
<g id="edge13" class="edge"><title>Node15&#45;&gt;Node27</title>
<path fill="none" stroke="midnightblue" d="M1608.23,-142.358C1645.97,-130.32 1695.84,-114.412 1731.28,-103.107"/>
<polygon fill="midnightblue" stroke="midnightblue" points="1606.89,-139.114 1598.43,-145.487 1609.02,-145.782 1606.89,-139.114"/>
</g>
<!-- Node28 -->
<g id="node15" class="node"><title>Node28</title>
<g id="a_node15"><a xlink:href="_etap_dalitz_m_c_8cc.html" target="_top" xlink:title="src/analysis/physics\l/scratch/wagner/EtapDalitzMC.cc">
<polygon fill="white" stroke="black" points="1856,-73 1856,-103 2029,-103 2029,-73 1856,-73"/>
<text text-anchor="start" x="1864" y="-91" font-family="Helvetica,sans-Serif" font-size="10.00">src/analysis/physics</text>
<text text-anchor="middle" x="1942.5" y="-80" font-family="Helvetica,sans-Serif" font-size="10.00">/scratch/wagner/EtapDalitzMC.cc</text>
</a>
</g>
</g>
<!-- Node15&#45;&gt;Node28 -->
<g id="edge14" class="edge"><title>Node15&#45;&gt;Node28</title>
<path fill="none" stroke="midnightblue" d="M1640.46,-145.427C1698.7,-135.697 1777.35,-122.179 1846.5,-109 1856.28,-107.135 1866.61,-105.079 1876.72,-103.015"/>
<polygon fill="midnightblue" stroke="midnightblue" points="1639.85,-141.98 1630.56,-147.077 1641,-148.885 1639.85,-141.98"/>
</g>
<!-- Node29 -->
<g id="node16" class="node"><title>Node29</title>
<g id="a_node16"><a xlink:href="_proton_vertex_test_8cc.html" target="_top" xlink:title="src/analysis/physics\l/scratch/wolfes/ProtonVertex\lTest.cc">
<polygon fill="white" stroke="black" points="2047.5,-67.5 2047.5,-108.5 2199.5,-108.5 2199.5,-67.5 2047.5,-67.5"/>
<text text-anchor="start" x="2055.5" y="-96.5" font-family="Helvetica,sans-Serif" font-size="10.00">src/analysis/physics</text>
<text text-anchor="start" x="2055.5" y="-85.5" font-family="Helvetica,sans-Serif" font-size="10.00">/scratch/wolfes/ProtonVertex</text>
<text text-anchor="middle" x="2123.5" y="-74.5" font-family="Helvetica,sans-Serif" font-size="10.00">Test.cc</text>
</a>
</g>
</g>
<!-- Node15&#45;&gt;Node29 -->
<g id="edge15" class="edge"><title>Node15&#45;&gt;Node29</title>
<path fill="none" stroke="midnightblue" d="M1640.65,-153.74C1737.6,-146.506 1899.58,-132.156 2037.5,-109 2040.67,-108.467 2043.91,-107.887 2047.17,-107.271"/>
<polygon fill="midnightblue" stroke="midnightblue" points="1640.32,-150.255 1630.6,-154.482 1640.84,-157.236 1640.32,-150.255"/>
</g>
<!-- Node30 -->
<g id="node17" class="node"><title>Node30</title>
<g id="a_node17"><a xlink:href="_test_sigma_plus_fitter_8cc.html" target="_top" xlink:title="src/analysis/physics\l/test/TestSigmaPlusFitter.cc">
<polygon fill="white" stroke="black" points="2218,-73 2218,-103 2365,-103 2365,-73 2218,-73"/>
<text text-anchor="start" x="2226" y="-91" font-family="Helvetica,sans-Serif" font-size="10.00">src/analysis/physics</text>
<text text-anchor="middle" x="2291.5" y="-80" font-family="Helvetica,sans-Serif" font-size="10.00">/test/TestSigmaPlusFitter.cc</text>
</a>
</g>
</g>
<!-- Node15&#45;&gt;Node30 -->
<g id="edge16" class="edge"><title>Node15&#45;&gt;Node30</title>
<path fill="none" stroke="midnightblue" d="M1641.32,-157.195C1767.07,-152.862 2006.92,-140.862 2208.5,-109 2218.31,-107.45 2228.67,-105.341 2238.62,-103.072"/>
<polygon fill="midnightblue" stroke="midnightblue" points="1640.86,-153.708 1630.98,-157.542 1641.1,-160.704 1640.86,-153.708"/>
</g>
<!-- Node31 -->
<g id="node18" class="node"><title>Node31</title>
<g id="a_node18"><a xlink:href="analysis_2physics_2tunings_2_interpolated_pulls_8h.html" target="_top" xlink:title="src/analysis/physics\l/tunings/InterpolatedPulls.h">
<polygon fill="white" stroke="black" points="2383.5,-73 2383.5,-103 2529.5,-103 2529.5,-73 2383.5,-73"/>
<text text-anchor="start" x="2391.5" y="-91" font-family="Helvetica,sans-Serif" font-size="10.00">src/analysis/physics</text>
<text text-anchor="middle" x="2456.5" y="-80" font-family="Helvetica,sans-Serif" font-size="10.00">/tunings/InterpolatedPulls.h</text>
</a>
</g>
</g>
<!-- Node15&#45;&gt;Node31 -->
<g id="edge17" class="edge"><title>Node15&#45;&gt;Node31</title>
<path fill="none" stroke="midnightblue" d="M1640.79,-159.211C1790.83,-157.591 2109.13,-149.207 2374.5,-109 2384.35,-107.507 2394.76,-105.396 2404.72,-103.101"/>
<polygon fill="midnightblue" stroke="midnightblue" points="1640.68,-155.712 1630.72,-159.312 1640.75,-162.711 1640.68,-155.712"/>
</g>
<!-- Node33 -->
<g id="node20" class="node"><title>Node33</title>
<g id="a_node20"><a xlink:href="physics_2tunings_2_trigger_simulation_8cc.html" target="_top" xlink:title="src/analysis/physics\l/tunings/TriggerSimulation.cc">
<polygon fill="white" stroke="black" points="2547.5,-73 2547.5,-103 2701.5,-103 2701.5,-73 2547.5,-73"/>
<text text-anchor="start" x="2555.5" y="-91" font-family="Helvetica,sans-Serif" font-size="10.00">src/analysis/physics</text>
<text text-anchor="middle" x="2624.5" y="-80" font-family="Helvetica,sans-Serif" font-size="10.00">/tunings/TriggerSimulation.cc</text>
</a>
</g>
</g>
<!-- Node15&#45;&gt;Node33 -->
<g id="edge19" class="edge"><title>Node15&#45;&gt;Node33</title>
<path fill="none" stroke="midnightblue" d="M1640.8,-160.189C1812.59,-160.435 2209.21,-155.367 2538.5,-109 2548.97,-107.525 2560.05,-105.393 2570.64,-103.064"/>
<polygon fill="midnightblue" stroke="midnightblue" points="1640.56,-156.689 1630.55,-160.168 1640.54,-163.689 1640.56,-156.689"/>
</g>
<!-- Node15&#45;&gt;Node34 -->
<g id="edge20" class="edge"><title>Node15&#45;&gt;Node34</title>
<path fill="none" stroke="midnightblue" d="M1640.91,-158.312C1894.67,-154.488 2634.86,-140.842 2874.5,-109 2885.25,-107.571 2896.63,-105.428 2907.49,-103.069"/>
<polygon fill="midnightblue" stroke="midnightblue" points="1640.59,-154.816 1630.64,-158.465 1640.69,-161.816 1640.59,-154.816"/>
</g>
<!-- Node35 -->
<g id="node22" class="node"><title>Node35</title>
<g id="a_node22"><a xlink:href="root-addons_2analysis__codes_2_interpolated_pulls_8cc.html" target="_top" xlink:title="src/root&#45;addons/analysis\l_codes/InterpolatedPulls.cc">
<polygon fill="white" stroke="black" points="2719.5,-73 2719.5,-103 2865.5,-103 2865.5,-73 2719.5,-73"/>
<text text-anchor="start" x="2727.5" y="-91" font-family="Helvetica,sans-Serif" font-size="10.00">src/root&#45;addons/analysis</text>
<text text-anchor="middle" x="2792.5" y="-80" font-family="Helvetica,sans-Serif" font-size="10.00">_codes/InterpolatedPulls.cc</text>
</a>
</g>
</g>
<!-- Node15&#45;&gt;Node35 -->
<g id="edge21" class="edge"><title>Node15&#45;&gt;Node35</title>
<path fill="none" stroke="midnightblue" d="M1640.9,-157.915C1872.6,-153.316 2504.12,-138.387 2710.5,-109 2720.65,-107.554 2731.39,-105.403 2741.62,-103.042"/>
<polygon fill="midnightblue" stroke="midnightblue" points="1640.77,-154.417 1630.84,-158.114 1640.9,-161.416 1640.77,-154.417"/>
</g>
<!-- Node32 -->
<g id="node19" class="node"><title>Node32</title>
<g id="a_node19"><a xlink:href="analysis_2physics_2tunings_2_interpolated_pulls_8cc.html" target="_top" xlink:title="src/analysis/physics\l/tunings/InterpolatedPulls.cc">
<polygon fill="white" stroke="black" points="2381,-0.5 2381,-30.5 2532,-30.5 2532,-0.5 2381,-0.5"/>
<text text-anchor="start" x="2389" y="-18.5" font-family="Helvetica,sans-Serif" font-size="10.00">src/analysis/physics</text>
<text text-anchor="middle" x="2456.5" y="-7.5" font-family="Helvetica,sans-Serif" font-size="10.00">/tunings/InterpolatedPulls.cc</text>
</a>
</g>
</g>
<!-- Node31&#45;&gt;Node32 -->
<g id="edge18" class="edge"><title>Node31&#45;&gt;Node32</title>
<path fill="none" stroke="midnightblue" d="M2456.5,-62.7317C2456.5,-52.0679 2456.5,-39.9145 2456.5,-30.7455"/>
<polygon fill="midnightblue" stroke="midnightblue" points="2453,-62.7332 2456.5,-72.7333 2460,-62.7333 2453,-62.7332"/>
</g>
</g>
</svg>
