<?xml version="1.0" encoding="UTF-8" standalone="no"?>
<!DOCTYPE svg PUBLIC "-//W3C//DTD SVG 1.1//EN"
 "http://www.w3.org/Graphics/SVG/1.1/DTD/svg11.dtd">
<!-- Generated by graphviz version 2.38.0 (20140413.2041)
 -->
<!-- Title: src/calibration/Editor.cc Pages: 1 -->
<svg width="1530pt" height="364pt"
 viewBox="0.00 0.00 1530.20 364.00" xmlns="http://www.w3.org/2000/svg" xmlns:xlink="http://www.w3.org/1999/xlink">
<g id="graph0" class="graph" transform="scale(1 1) rotate(0) translate(4 360)">
<title>src/calibration/Editor.cc</title>
<polygon fill="white" stroke="none" points="-4,4 -4,-360 1526.2,-360 1526.2,4 -4,4"/>
<!-- Node0 -->
<g id="node1" class="node"><title>Node0</title>
<polygon fill="#bfbfbf" stroke="black" points="413.699,-336.5 413.699,-355.5 540.699,-355.5 540.699,-336.5 413.699,-336.5"/>
<text text-anchor="middle" x="477.199" y="-343.5" font-family="Helvetica,sans-Serif" font-size="10.00">src/calibration/Editor.cc</text>
</g>
<!-- Node1 -->
<g id="node2" class="node"><title>Node1</title>
<g id="a_node2"><a xlink:href="_editor_8h.html" target="_top" xlink:title="Editor.h">
<polygon fill="white" stroke="black" points="314.699,-280.5 314.699,-299.5 367.699,-299.5 367.699,-280.5 314.699,-280.5"/>
<text text-anchor="middle" x="341.199" y="-287.5" font-family="Helvetica,sans-Serif" font-size="10.00">Editor.h</text>
</a>
</g>
</g>
<!-- Node0&#45;&gt;Node1 -->
<g id="edge1" class="edge"><title>Node0&#45;&gt;Node1</title>
<path fill="none" stroke="midnightblue" d="M455.649,-336.444C433.168,-327.517 397.711,-313.439 372.219,-303.317"/>
<polygon fill="midnightblue" stroke="midnightblue" points="373.233,-299.954 362.648,-299.516 370.65,-306.46 373.233,-299.954"/>
</g>
<!-- Node20 -->
<g id="node21" class="node"><title>Node20</title>
<g id="a_node21"><a xlink:href="_wrap_t_file_8h.html" target="_top" xlink:title="base/WrapTFile.h">
<polygon fill="white" stroke="black" points="963.699,-168.5 963.699,-187.5 1058.7,-187.5 1058.7,-168.5 963.699,-168.5"/>
<text text-anchor="middle" x="1011.2" y="-175.5" font-family="Helvetica,sans-Serif" font-size="10.00">base/WrapTFile.h</text>
</a>
</g>
</g>
<!-- Node0&#45;&gt;Node20 -->
<g id="edge24" class="edge"><title>Node0&#45;&gt;Node20</title>
<path fill="none" stroke="midnightblue" d="M504.784,-336.425C593.674,-308.792 872.69,-222.057 973.985,-190.568"/>
<polygon fill="midnightblue" stroke="midnightblue" points="975.268,-193.835 983.778,-187.524 973.19,-187.15 975.268,-193.835"/>
</g>
<!-- Node2 -->
<g id="node3" class="node"><title>Node2</title>
<g id="a_node3"><a xlink:href="_t_calibration_data_8h.html" target="_top" xlink:title="tree/TCalibrationData.h">
<polygon fill="white" stroke="black" points="59.6987,-224.5 59.6987,-243.5 186.699,-243.5 186.699,-224.5 59.6987,-224.5"/>
<text text-anchor="middle" x="123.199" y="-231.5" font-family="Helvetica,sans-Serif" font-size="10.00">tree/TCalibrationData.h</text>
</a>
</g>
</g>
<!-- Node1&#45;&gt;Node2 -->
<g id="edge2" class="edge"><title>Node1&#45;&gt;Node2</title>
<path fill="none" stroke="midnightblue" d="M314.468,-282.379C277.866,-273.312 211.676,-256.916 167.575,-245.992"/>
<polygon fill="midnightblue" stroke="midnightblue" points="168.245,-242.552 157.696,-243.545 166.561,-249.347 168.245,-242.552"/>
</g>
<!-- Node3 -->
<g id="node4" class="node"><title>Node3</title>
<g id="a_node4"><a xlink:href="_t_i_d_8h.html" target="_top" xlink:title="TID.h">
<polygon fill="white" stroke="black" points="351.699,-168.5 351.699,-187.5 392.699,-187.5 392.699,-168.5 351.699,-168.5"/>
<text text-anchor="middle" x="372.199" y="-175.5" font-family="Helvetica,sans-Serif" font-size="10.00">TID.h</text>
</a>
</g>
</g>
<!-- Node2&#45;&gt;Node3 -->
<g id="edge3" class="edge"><title>Node2&#45;&gt;Node3</title>
<path fill="none" stroke="midnightblue" d="M162.654,-224.444C212.292,-213.678 296.481,-195.421 341.556,-185.645"/>
<polygon fill="midnightblue" stroke="midnightblue" points="342.573,-189.006 351.604,-183.466 341.09,-182.165 342.573,-189.006"/>
</g>
<!-- Node7 -->
<g id="node8" class="node"><title>Node7</title>
<polygon fill="white" stroke="#bfbfbf" points="273.199,-0.5 273.199,-19.5 317.199,-19.5 317.199,-0.5 273.199,-0.5"/>
<text text-anchor="middle" x="295.199" y="-7.5" font-family="Helvetica,sans-Serif" font-size="10.00">string</text>
</g>
<!-- Node2&#45;&gt;Node7 -->
<g id="edge22" class="edge"><title>Node2&#45;&gt;Node7</title>
<path fill="none" stroke="midnightblue" d="M64.3853,-224.416C28.0839,-215.906 -9.50576,-199.393 2.19872,-168 25.2038,-106.298 42.7637,-89.9335 99.1987,-56 150.835,-24.9517 221.925,-15.3143 262.774,-12.3302"/>
<polygon fill="midnightblue" stroke="midnightblue" points="263.208,-15.8097 272.965,-11.6791 262.762,-8.82395 263.208,-15.8097"/>
</g>
<!-- Node12 -->
<g id="node13" class="node"><title>Node12</title>
<polygon fill="white" stroke="#bfbfbf" points="131.199,-56.5 131.199,-75.5 175.199,-75.5 175.199,-56.5 131.199,-56.5"/>
<text text-anchor="middle" x="153.199" y="-63.5" font-family="Helvetica,sans-Serif" font-size="10.00">ctime</text>
</g>
<!-- Node2&#45;&gt;Node12 -->
<g id="edge23" class="edge"><title>Node2&#45;&gt;Node12</title>
<path fill="none" stroke="midnightblue" d="M124.812,-224.075C129.534,-197.945 143.402,-121.211 149.841,-85.577"/>
<polygon fill="midnightblue" stroke="midnightblue" points="153.316,-86.0312 151.65,-75.5681 146.428,-84.7862 153.316,-86.0312"/>
</g>
<!-- Node19 -->
<g id="node20" class="node"><title>Node19</title>
<g id="a_node20"><a xlink:href="_git_info_8h.html" target="_top" xlink:title="base/GitInfo.h">
<polygon fill="white" stroke="black" points="11.6987,-168.5 11.6987,-187.5 94.6987,-187.5 94.6987,-168.5 11.6987,-168.5"/>
<text text-anchor="middle" x="53.1987" y="-175.5" font-family="Helvetica,sans-Serif" font-size="10.00">base/GitInfo.h</text>
</a>
</g>
</g>
<!-- Node2&#45;&gt;Node19 -->
<g id="edge20" class="edge"><title>Node2&#45;&gt;Node19</title>
<path fill="none" stroke="midnightblue" d="M111.952,-224.324C101.401,-216.185 85.3981,-203.839 72.7565,-194.087"/>
<polygon fill="midnightblue" stroke="midnightblue" points="74.7057,-191.171 64.6501,-187.834 70.4301,-196.713 74.7057,-191.171"/>
</g>
<!-- Node4 -->
<g id="node5" class="node"><title>Node4</title>
<polygon fill="white" stroke="#bfbfbf" points="381.199,-112.5 381.199,-131.5 439.199,-131.5 439.199,-112.5 381.199,-112.5"/>
<text text-anchor="middle" x="410.199" y="-119.5" font-family="Helvetica,sans-Serif" font-size="10.00">Rtypes.h</text>
</g>
<!-- Node3&#45;&gt;Node4 -->
<g id="edge4" class="edge"><title>Node3&#45;&gt;Node4</title>
<path fill="none" stroke="midnightblue" d="M378.474,-168.083C383.841,-160.455 391.716,-149.264 398.277,-139.941"/>
<polygon fill="midnightblue" stroke="midnightblue" points="401.148,-141.943 404.041,-131.751 395.423,-137.915 401.148,-141.943"/>
</g>
<!-- Node5 -->
<g id="node6" class="node"><title>Node5</title>
<g id="a_node6"><a xlink:href="base_2std__ext_2_time_8h.html" target="_top" xlink:title="base/std_ext/time.h">
<polygon fill="white" stroke="black" points="457.199,-112.5 457.199,-131.5 569.199,-131.5 569.199,-112.5 457.199,-112.5"/>
<text text-anchor="middle" x="513.199" y="-119.5" font-family="Helvetica,sans-Serif" font-size="10.00">base/std_ext/time.h</text>
</a>
</g>
</g>
<!-- Node3&#45;&gt;Node5 -->
<g id="edge5" class="edge"><title>Node3&#45;&gt;Node5</title>
<path fill="none" stroke="midnightblue" d="M392.701,-169.148C415.966,-160.238 454.196,-145.597 481.352,-135.197"/>
<polygon fill="midnightblue" stroke="midnightblue" points="482.72,-138.421 490.807,-131.576 480.217,-131.884 482.72,-138.421"/>
</g>
<!-- Node3&#45;&gt;Node12 -->
<g id="edge19" class="edge"><title>Node3&#45;&gt;Node12</title>
<path fill="none" stroke="midnightblue" d="M351.4,-174.979C305.621,-170.123 198.146,-156.36 172.199,-132 159.619,-120.19 155.218,-100.557 153.753,-85.9531"/>
<polygon fill="midnightblue" stroke="midnightblue" points="157.221,-85.3283 153.108,-75.5647 150.235,-85.7626 157.221,-85.3283"/>
</g>
<!-- Node13 -->
<g id="node14" class="node"><title>Node13</title>
<polygon fill="white" stroke="#bfbfbf" points="726.199,-56.5 726.199,-75.5 794.199,-75.5 794.199,-56.5 726.199,-56.5"/>
<text text-anchor="middle" x="760.199" y="-63.5" font-family="Helvetica,sans-Serif" font-size="10.00">type_traits</text>
</g>
<!-- Node3&#45;&gt;Node13 -->
<g id="edge13" class="edge"><title>Node3&#45;&gt;Node13</title>
<path fill="none" stroke="midnightblue" d="M392.888,-174.363C430.602,-169.147 512.684,-155.898 578.199,-132 596.128,-125.46 598.573,-119.321 616.199,-112 649.304,-98.2492 688.17,-86.3394 717.175,-78.2324"/>
<polygon fill="midnightblue" stroke="midnightblue" points="718.286,-81.5568 726.997,-75.5267 716.427,-74.8082 718.286,-81.5568"/>
</g>
<!-- Node14 -->
<g id="node15" class="node"><title>Node14</title>
<polygon fill="white" stroke="#bfbfbf" points="181.699,-112.5 181.699,-131.5 222.699,-131.5 222.699,-112.5 181.699,-112.5"/>
<text text-anchor="middle" x="202.199" y="-119.5" font-family="Helvetica,sans-Serif" font-size="10.00">tuple</text>
</g>
<!-- Node3&#45;&gt;Node14 -->
<g id="edge14" class="edge"><title>Node3&#45;&gt;Node14</title>
<path fill="none" stroke="midnightblue" d="M351.693,-170.486C322.081,-161.08 267.137,-143.627 232.741,-132.702"/>
<polygon fill="midnightblue" stroke="midnightblue" points="233.368,-129.228 222.777,-129.537 231.249,-135.9 233.368,-129.228"/>
</g>
<!-- Node15 -->
<g id="node16" class="node"><title>Node15</title>
<polygon fill="white" stroke="#bfbfbf" points="240.699,-112.5 240.699,-131.5 289.699,-131.5 289.699,-112.5 240.699,-112.5"/>
<text text-anchor="middle" x="265.199" y="-119.5" font-family="Helvetica,sans-Serif" font-size="10.00">cstdint</text>
</g>
<!-- Node3&#45;&gt;Node15 -->
<g id="edge15" class="edge"><title>Node3&#45;&gt;Node15</title>
<path fill="none" stroke="midnightblue" d="M355.007,-168.324C337.848,-159.664 311.253,-146.242 291.451,-136.249"/>
<polygon fill="midnightblue" stroke="midnightblue" points="292.852,-133.035 282.347,-131.655 289.698,-139.285 292.852,-133.035"/>
</g>
<!-- Node16 -->
<g id="node17" class="node"><title>Node16</title>
<polygon fill="white" stroke="#bfbfbf" points="625.199,-112.5 625.199,-131.5 689.199,-131.5 689.199,-112.5 625.199,-112.5"/>
<text text-anchor="middle" x="657.199" y="-119.5" font-family="Helvetica,sans-Serif" font-size="10.00">stdexcept</text>
</g>
<!-- Node3&#45;&gt;Node16 -->
<g id="edge16" class="edge"><title>Node3&#45;&gt;Node16</title>
<path fill="none" stroke="midnightblue" d="M392.988,-173.137C434.488,-165.415 530.549,-147.482 611.199,-132 612.457,-131.758 613.735,-131.512 615.025,-131.264"/>
<polygon fill="midnightblue" stroke="midnightblue" points="615.883,-134.663 625.034,-129.323 614.55,-127.791 615.883,-134.663"/>
</g>
<!-- Node17 -->
<g id="node18" class="node"><title>Node17</title>
<polygon fill="white" stroke="#bfbfbf" points="707.199,-112.5 707.199,-131.5 737.199,-131.5 737.199,-112.5 707.199,-112.5"/>
<text text-anchor="middle" x="722.199" y="-119.5" font-family="Helvetica,sans-Serif" font-size="10.00">list</text>
</g>
<!-- Node3&#45;&gt;Node17 -->
<g id="edge17" class="edge"><title>Node3&#45;&gt;Node17</title>
<path fill="none" stroke="midnightblue" d="M392.719,-175.751C443.23,-172.346 577.595,-161.281 697.424,-131.677"/>
<polygon fill="midnightblue" stroke="midnightblue" points="698.285,-135.07 707.125,-129.231 696.573,-128.282 698.285,-135.07"/>
</g>
<!-- Node18 -->
<g id="node19" class="node"><title>Node18</title>
<polygon fill="white" stroke="#bfbfbf" points="307.699,-112.5 307.699,-131.5 362.699,-131.5 362.699,-112.5 307.699,-112.5"/>
<text text-anchor="middle" x="335.199" y="-119.5" font-family="Helvetica,sans-Serif" font-size="10.00">iomanip</text>
</g>
<!-- Node3&#45;&gt;Node18 -->
<g id="edge18" class="edge"><title>Node3&#45;&gt;Node18</title>
<path fill="none" stroke="midnightblue" d="M366.089,-168.083C360.917,-160.534 353.353,-149.495 347.004,-140.23"/>
<polygon fill="midnightblue" stroke="midnightblue" points="349.734,-138.022 341.195,-131.751 343.96,-141.979 349.734,-138.022"/>
</g>
<!-- Node6 -->
<g id="node7" class="node"><title>Node6</title>
<g id="a_node7"><a xlink:href="string_8h.html" target="_top" xlink:title="base/std_ext/string.h">
<polygon fill="white" stroke="black" points="590.699,-56.5 590.699,-75.5 707.699,-75.5 707.699,-56.5 590.699,-56.5"/>
<text text-anchor="middle" x="649.199" y="-63.5" font-family="Helvetica,sans-Serif" font-size="10.00">base/std_ext/string.h</text>
</a>
</g>
</g>
<!-- Node5&#45;&gt;Node6 -->
<g id="edge6" class="edge"><title>Node5&#45;&gt;Node6</title>
<path fill="none" stroke="midnightblue" d="M534.748,-112.444C557.23,-103.517 592.686,-89.4387 618.179,-79.3168"/>
<polygon fill="midnightblue" stroke="midnightblue" points="619.747,-82.4598 627.75,-75.5164 617.164,-75.9539 619.747,-82.4598"/>
</g>
<!-- Node11 -->
<g id="node12" class="node"><title>Node11</title>
<polygon fill="white" stroke="#bfbfbf" points="484.699,-56.5 484.699,-75.5 533.699,-75.5 533.699,-56.5 484.699,-56.5"/>
<text text-anchor="middle" x="509.199" y="-63.5" font-family="Helvetica,sans-Serif" font-size="10.00">cstring</text>
</g>
<!-- Node5&#45;&gt;Node11 -->
<g id="edge11" class="edge"><title>Node5&#45;&gt;Node11</title>
<path fill="none" stroke="midnightblue" d="M512.538,-112.083C512.014,-105.006 511.263,-94.8611 510.605,-85.9865"/>
<polygon fill="midnightblue" stroke="midnightblue" points="514.076,-85.4652 509.847,-75.7511 507.095,-85.9823 514.076,-85.4652"/>
</g>
<!-- Node5&#45;&gt;Node12 -->
<g id="edge12" class="edge"><title>Node5&#45;&gt;Node12</title>
<path fill="none" stroke="midnightblue" d="M456.949,-112.562C380.649,-101.117 246.85,-81.0477 185.542,-71.8515"/>
<polygon fill="midnightblue" stroke="midnightblue" points="185.72,-68.3391 175.311,-70.3169 184.681,-75.2617 185.72,-68.3391"/>
</g>
<!-- Node6&#45;&gt;Node7 -->
<g id="edge7" class="edge"><title>Node6&#45;&gt;Node7</title>
<path fill="none" stroke="midnightblue" d="M593.106,-56.4435C518.069,-44.9972 387.497,-25.0795 327.291,-15.8954"/>
<polygon fill="midnightblue" stroke="midnightblue" points="327.648,-12.4094 317.234,-14.3614 326.592,-19.3294 327.648,-12.4094"/>
</g>
<!-- Node8 -->
<g id="node9" class="node"><title>Node8</title>
<polygon fill="white" stroke="#bfbfbf" points="586.199,-0.5 586.199,-19.5 642.199,-19.5 642.199,-0.5 586.199,-0.5"/>
<text text-anchor="middle" x="614.199" y="-7.5" font-family="Helvetica,sans-Serif" font-size="10.00">sstream</text>
</g>
<!-- Node6&#45;&gt;Node8 -->
<g id="edge8" class="edge"><title>Node6&#45;&gt;Node8</title>
<path fill="none" stroke="midnightblue" d="M643.419,-56.083C638.526,-48.5341 631.371,-37.4948 625.366,-28.2298"/>
<polygon fill="midnightblue" stroke="midnightblue" points="628.247,-26.239 619.871,-19.7511 622.373,-30.0463 628.247,-26.239"/>
</g>
<!-- Node9 -->
<g id="node10" class="node"><title>Node9</title>
<polygon fill="white" stroke="#bfbfbf" points="817.199,-0.5 817.199,-19.5 879.199,-19.5 879.199,-0.5 817.199,-0.5"/>
<text text-anchor="middle" x="848.199" y="-7.5" font-family="Helvetica,sans-Serif" font-size="10.00">algorithm</text>
</g>
<!-- Node6&#45;&gt;Node9 -->
<g id="edge9" class="edge"><title>Node6&#45;&gt;Node9</title>
<path fill="none" stroke="midnightblue" d="M680.731,-56.4435C714.891,-47.1739 769.525,-32.3487 807.044,-22.1675"/>
<polygon fill="midnightblue" stroke="midnightblue" points="808.407,-25.4243 817.142,-19.4275 806.574,-18.6686 808.407,-25.4243"/>
</g>
<!-- Node10 -->
<g id="node11" class="node"><title>Node10</title>
<polygon fill="white" stroke="#bfbfbf" points="660.699,-0.5 660.699,-19.5 707.699,-19.5 707.699,-0.5 660.699,-0.5"/>
<text text-anchor="middle" x="684.199" y="-7.5" font-family="Helvetica,sans-Serif" font-size="10.00">vector</text>
</g>
<!-- Node6&#45;&gt;Node10 -->
<g id="edge10" class="edge"><title>Node6&#45;&gt;Node10</title>
<path fill="none" stroke="midnightblue" d="M654.978,-56.083C659.871,-48.5341 667.026,-37.4948 673.031,-28.2298"/>
<polygon fill="midnightblue" stroke="midnightblue" points="676.025,-30.0463 678.527,-19.7511 670.151,-26.239 676.025,-30.0463"/>
</g>
<!-- Node19&#45;&gt;Node7 -->
<g id="edge21" class="edge"><title>Node19&#45;&gt;Node7</title>
<path fill="none" stroke="midnightblue" d="M55.5406,-168.422C62.0699,-146.181 82.6471,-86.2869 122.199,-56 163.687,-24.2302 225.44,-14.7849 262.853,-12.041"/>
<polygon fill="midnightblue" stroke="midnightblue" points="263.41,-15.5136 273.178,-11.4093 262.982,-8.52664 263.41,-15.5136"/>
</g>
<!-- Node20&#45;&gt;Node6 -->
<g id="edge25" class="edge"><title>Node20&#45;&gt;Node6</title>
<path fill="none" stroke="midnightblue" d="M977.659,-168.491C944.019,-159.821 890.802,-145.731 845.199,-132 788.005,-114.779 722.237,-92.4411 683.281,-78.9415"/>
<polygon fill="midnightblue" stroke="midnightblue" points="684.1,-75.5208 673.505,-75.5441 681.802,-82.1329 684.1,-75.5208"/>
</g>
<!-- Node20&#45;&gt;Node7 -->
<g id="edge40" class="edge"><title>Node20&#45;&gt;Node7</title>
<path fill="none" stroke="midnightblue" d="M963.541,-172.043C916.388,-166.125 842.703,-154.125 782.199,-132 765.009,-125.714 763.323,-118.464 746.199,-112 675.977,-85.4916 651.851,-101.337 581.199,-76 562.863,-69.4243 560.646,-62.2575 542.199,-56 467.559,-30.6813 375.128,-18.6786 327.279,-13.8125"/>
<polygon fill="midnightblue" stroke="midnightblue" points="327.507,-10.3183 317.214,-12.8282 326.826,-17.285 327.507,-10.3183"/>
</g>
<!-- Node20&#45;&gt;Node16 -->
<g id="edge43" class="edge"><title>Node20&#45;&gt;Node16</title>
<path fill="none" stroke="midnightblue" d="M963.564,-171.255C904.037,-163.832 798.841,-149.91 699.306,-132.091"/>
<polygon fill="midnightblue" stroke="midnightblue" points="699.846,-128.632 689.383,-130.298 698.601,-135.521 699.846,-128.632"/>
</g>
<!-- Node20&#45;&gt;Node17 -->
<g id="edge41" class="edge"><title>Node20&#45;&gt;Node17</title>
<path fill="none" stroke="midnightblue" d="M963.376,-170.62C910.928,-163.184 824.465,-149.631 751.199,-132 749.93,-131.695 748.636,-131.364 747.333,-131.017"/>
<polygon fill="midnightblue" stroke="midnightblue" points="748.027,-127.573 737.447,-128.138 746.07,-134.294 748.027,-127.573"/>
</g>
<!-- Node21 -->
<g id="node22" class="node"><title>Node21</title>
<g id="a_node22"><a xlink:href="misc_8h.html" target="_top" xlink:title="base/std_ext/misc.h">
<polygon fill="white" stroke="black" points="869.699,-112.5 869.699,-131.5 982.699,-131.5 982.699,-112.5 869.699,-112.5"/>
<text text-anchor="middle" x="926.199" y="-119.5" font-family="Helvetica,sans-Serif" font-size="10.00">base/std_ext/misc.h</text>
</a>
</g>
</g>
<!-- Node20&#45;&gt;Node21 -->
<g id="edge26" class="edge"><title>Node20&#45;&gt;Node21</title>
<path fill="none" stroke="midnightblue" d="M997.542,-168.324C984.282,-159.9 963.931,-146.971 948.352,-137.074"/>
<polygon fill="midnightblue" stroke="midnightblue" points="950.139,-134.063 939.822,-131.655 946.385,-139.971 950.139,-134.063"/>
</g>
<!-- Node22 -->
<g id="node23" class="node"><title>Node22</title>
<polygon fill="white" stroke="#bfbfbf" points="812.699,-56.5 812.699,-75.5 875.699,-75.5 875.699,-56.5 812.699,-56.5"/>
<text text-anchor="middle" x="844.199" y="-63.5" font-family="Helvetica,sans-Serif" font-size="10.00">functional</text>
</g>
<!-- Node20&#45;&gt;Node22 -->
<g id="edge44" class="edge"><title>Node20&#45;&gt;Node22</title>
<path fill="none" stroke="midnightblue" d="M963.348,-174.572C930.316,-170.358 887.724,-159.488 861.199,-132 849.439,-119.814 845.55,-100.543 844.387,-86.1432"/>
<polygon fill="midnightblue" stroke="midnightblue" points="847.871,-85.7061 843.94,-75.8677 840.878,-86.0103 847.871,-85.7061"/>
</g>
<!-- Node25 -->
<g id="node26" class="node"><title>Node25</title>
<polygon fill="white" stroke="#bfbfbf" points="1072.7,-56.5 1072.7,-75.5 1129.7,-75.5 1129.7,-56.5 1072.7,-56.5"/>
<text text-anchor="middle" x="1101.2" y="-63.5" font-family="Helvetica,sans-Serif" font-size="10.00">memory</text>
</g>
<!-- Node20&#45;&gt;Node25 -->
<g id="edge39" class="edge"><title>Node20&#45;&gt;Node25</title>
<path fill="none" stroke="midnightblue" d="M1011.82,-168.132C1013.16,-154.737 1017.33,-129.097 1030.2,-112 1040.64,-98.1303 1056.7,-87.4345 1070.91,-79.9574"/>
<polygon fill="midnightblue" stroke="midnightblue" points="1072.5,-83.0796 1079.91,-75.5077 1069.39,-76.8057 1072.5,-83.0796"/>
</g>
<!-- Node26 -->
<g id="node27" class="node"><title>Node26</title>
<polygon fill="white" stroke="#bfbfbf" points="1039.2,-112.5 1039.2,-131.5 1085.2,-131.5 1085.2,-112.5 1039.2,-112.5"/>
<text text-anchor="middle" x="1062.2" y="-119.5" font-family="Helvetica,sans-Serif" font-size="10.00">TFile.h</text>
</g>
<!-- Node20&#45;&gt;Node26 -->
<g id="edge33" class="edge"><title>Node20&#45;&gt;Node26</title>
<path fill="none" stroke="midnightblue" d="M1019.62,-168.083C1027.05,-160.22 1038.05,-148.569 1047.01,-139.081"/>
<polygon fill="midnightblue" stroke="midnightblue" points="1049.61,-141.424 1053.93,-131.751 1044.52,-136.618 1049.61,-141.424"/>
</g>
<!-- Node27 -->
<g id="node28" class="node"><title>Node27</title>
<polygon fill="white" stroke="#bfbfbf" points="1103.7,-112.5 1103.7,-131.5 1176.7,-131.5 1176.7,-112.5 1103.7,-112.5"/>
<text text-anchor="middle" x="1140.2" y="-119.5" font-family="Helvetica,sans-Serif" font-size="10.00">TDirectory.h</text>
</g>
<!-- Node20&#45;&gt;Node27 -->
<g id="edge34" class="edge"><title>Node20&#45;&gt;Node27</title>
<path fill="none" stroke="midnightblue" d="M1031.64,-168.444C1052.87,-159.557 1086.3,-145.563 1110.45,-135.451"/>
<polygon fill="midnightblue" stroke="midnightblue" points="1111.98,-138.606 1119.85,-131.516 1109.28,-132.149 1111.98,-138.606"/>
</g>
<!-- Node28 -->
<g id="node29" class="node"><title>Node28</title>
<polygon fill="white" stroke="#bfbfbf" points="1194.7,-112.5 1194.7,-131.5 1247.7,-131.5 1247.7,-112.5 1194.7,-112.5"/>
<text text-anchor="middle" x="1221.2" y="-119.5" font-family="Helvetica,sans-Serif" font-size="10.00">TError.h</text>
</g>
<!-- Node20&#45;&gt;Node28 -->
<g id="edge35" class="edge"><title>Node20&#45;&gt;Node28</title>
<path fill="none" stroke="midnightblue" d="M1044.47,-168.444C1082.67,-158.622 1145.12,-142.564 1184.64,-132.401"/>
<polygon fill="midnightblue" stroke="midnightblue" points="1185.6,-135.769 1194.41,-129.889 1183.85,-128.989 1185.6,-135.769"/>
</g>
<!-- Node29 -->
<g id="node30" class="node"><title>Node29</title>
<polygon fill="white" stroke="#bfbfbf" points="1265.7,-112.5 1265.7,-131.5 1312.7,-131.5 1312.7,-112.5 1265.7,-112.5"/>
<text text-anchor="middle" x="1289.2" y="-119.5" font-family="Helvetica,sans-Serif" font-size="10.00">TList.h</text>
</g>
<!-- Node20&#45;&gt;Node29 -->
<g id="edge36" class="edge"><title>Node20&#45;&gt;Node29</title>
<path fill="none" stroke="midnightblue" d="M1059.09,-169.598C1106.72,-161.932 1182.07,-148.991 1255.6,-132.215"/>
<polygon fill="midnightblue" stroke="midnightblue" points="1256.54,-135.591 1265.5,-129.932 1254.97,-128.77 1256.54,-135.591"/>
</g>
<!-- Node30 -->
<g id="node31" class="node"><title>Node30</title>
<polygon fill="white" stroke="#bfbfbf" points="1330.7,-112.5 1330.7,-131.5 1407.7,-131.5 1407.7,-112.5 1330.7,-112.5"/>
<text text-anchor="middle" x="1369.2" y="-119.5" font-family="Helvetica,sans-Serif" font-size="10.00">TCollection.h</text>
</g>
<!-- Node20&#45;&gt;Node30 -->
<g id="edge37" class="edge"><title>Node20&#45;&gt;Node30</title>
<path fill="none" stroke="midnightblue" d="M1058.72,-170.808C1117.79,-162.96 1221.92,-148.629 1320.37,-132.25"/>
<polygon fill="midnightblue" stroke="midnightblue" points="1321.21,-135.659 1330.5,-130.556 1320.05,-128.755 1321.21,-135.659"/>
</g>
<!-- Node31 -->
<g id="node32" class="node"><title>Node31</title>
<polygon fill="white" stroke="#bfbfbf" points="1426.2,-112.5 1426.2,-131.5 1472.2,-131.5 1472.2,-112.5 1426.2,-112.5"/>
<text text-anchor="middle" x="1449.2" y="-119.5" font-family="Helvetica,sans-Serif" font-size="10.00">TKey.h</text>
</g>
<!-- Node20&#45;&gt;Node31 -->
<g id="edge38" class="edge"><title>Node20&#45;&gt;Node31</title>
<path fill="none" stroke="midnightblue" d="M1058.77,-174.261C1133.13,-169.428 1281.47,-157.568 1415.83,-131.98"/>
<polygon fill="midnightblue" stroke="midnightblue" points="1416.73,-135.369 1425.89,-130.033 1415.4,-128.497 1416.73,-135.369"/>
</g>
<!-- Node32 -->
<g id="node33" class="node"><title>Node32</title>
<polygon fill="white" stroke="#bfbfbf" points="1490.2,-112.5 1490.2,-131.5 1522.2,-131.5 1522.2,-112.5 1490.2,-112.5"/>
<text text-anchor="middle" x="1506.2" y="-119.5" font-family="Helvetica,sans-Serif" font-size="10.00">set</text>
</g>
<!-- Node20&#45;&gt;Node32 -->
<g id="edge42" class="edge"><title>Node20&#45;&gt;Node32</title>
<path fill="none" stroke="midnightblue" d="M1058.84,-176.354C1142.67,-174.372 1321.88,-166.358 1480.06,-131.715"/>
<polygon fill="midnightblue" stroke="midnightblue" points="1480.97,-135.098 1489.97,-129.504 1479.44,-128.267 1480.97,-135.098"/>
</g>
<!-- Node21&#45;&gt;Node9 -->
<g id="edge27" class="edge"><title>Node21&#45;&gt;Node9</title>
<path fill="none" stroke="midnightblue" d="M921.221,-112.363C913.817,-99.6952 899.259,-75.4697 885.199,-56 878.167,-46.2629 869.697,-35.8765 862.637,-27.5383"/>
<polygon fill="midnightblue" stroke="midnightblue" points="865.079,-25.0097 855.909,-19.7035 859.769,-29.5703 865.079,-25.0097"/>
</g>
<!-- Node21&#45;&gt;Node13 -->
<g id="edge31" class="edge"><title>Node21&#45;&gt;Node13</title>
<path fill="none" stroke="midnightblue" d="M899.896,-112.444C871.848,-103.32 827.254,-88.8133 796.015,-78.6509"/>
<polygon fill="midnightblue" stroke="midnightblue" points="796.971,-75.2816 786.379,-75.5164 794.806,-81.9383 796.971,-75.2816"/>
</g>
<!-- Node21&#45;&gt;Node22 -->
<g id="edge28" class="edge"><title>Node21&#45;&gt;Node22</title>
<path fill="none" stroke="midnightblue" d="M913.024,-112.324C900.352,-103.979 880.965,-91.2122 865.993,-81.3524"/>
<polygon fill="midnightblue" stroke="midnightblue" points="867.617,-78.2313 857.341,-75.6545 863.767,-84.0776 867.617,-78.2313"/>
</g>
<!-- Node23 -->
<g id="node24" class="node"><title>Node23</title>
<polygon fill="white" stroke="#bfbfbf" points="932.699,-56.5 932.699,-75.5 979.699,-75.5 979.699,-56.5 932.699,-56.5"/>
<text text-anchor="middle" x="956.199" y="-63.5" font-family="Helvetica,sans-Serif" font-size="10.00">cmath</text>
</g>
<!-- Node21&#45;&gt;Node23 -->
<g id="edge29" class="edge"><title>Node21&#45;&gt;Node23</title>
<path fill="none" stroke="midnightblue" d="M931.153,-112.083C935.303,-104.613 941.352,-93.7244 946.465,-84.5199"/>
<polygon fill="midnightblue" stroke="midnightblue" points="949.54,-86.1924 951.337,-75.7511 943.421,-82.7929 949.54,-86.1924"/>
</g>
<!-- Node24 -->
<g id="node25" class="node"><title>Node24</title>
<polygon fill="white" stroke="#bfbfbf" points="998.199,-56.5 998.199,-75.5 1054.2,-75.5 1054.2,-56.5 998.199,-56.5"/>
<text text-anchor="middle" x="1026.2" y="-63.5" font-family="Helvetica,sans-Serif" font-size="10.00">cxxabi.h</text>
</g>
<!-- Node21&#45;&gt;Node24 -->
<g id="edge30" class="edge"><title>Node21&#45;&gt;Node24</title>
<path fill="none" stroke="midnightblue" d="M942.265,-112.324C958.157,-103.743 982.706,-90.486 1001.16,-80.5224"/>
<polygon fill="midnightblue" stroke="midnightblue" points="1003.04,-83.4857 1010.17,-75.6545 999.71,-77.3264 1003.04,-83.4857"/>
</g>
<!-- Node21&#45;&gt;Node25 -->
<g id="edge32" class="edge"><title>Node21&#45;&gt;Node25</title>
<path fill="none" stroke="midnightblue" d="M953.928,-112.444C983.624,-103.28 1030.91,-88.6876 1063.87,-78.5192"/>
<polygon fill="midnightblue" stroke="midnightblue" points="1065.08,-81.8094 1073.6,-75.5164 1063.01,-75.1206 1065.08,-81.8094"/>
</g>
</g>
</svg>
