<?xml version="1.0" encoding="UTF-8" standalone="no"?>
<!DOCTYPE svg PUBLIC "-//W3C//DTD SVG 1.1//EN"
 "http://www.w3.org/Graphics/SVG/1.1/DTD/svg11.dtd">
<!-- Generated by graphviz version 2.38.0 (20140413.2041)
 -->
<!-- Title: src/calibration/gui/EditorWindow.cc Pages: 1 -->
<svg width="1971pt" height="442pt"
 viewBox="0.00 0.00 1971.00 442.00" xmlns="http://www.w3.org/2000/svg" xmlns:xlink="http://www.w3.org/1999/xlink">
<g id="graph0" class="graph" transform="scale(1 1) rotate(0) translate(4 438)">
<title>src/calibration/gui/EditorWindow.cc</title>
<polygon fill="white" stroke="none" points="-4,4 -4,-438 1967,-438 1967,4 -4,4"/>
<!-- Node0 -->
<g id="node1" class="node"><title>Node0</title>
<polygon fill="#bfbfbf" stroke="black" points="1370,-403.5 1370,-433.5 1471,-433.5 1471,-403.5 1370,-403.5"/>
<text text-anchor="start" x="1378" y="-421.5" font-family="Helvetica,sans-Serif" font-size="10.00">src/calibration/gui</text>
<text text-anchor="middle" x="1420.5" y="-410.5" font-family="Helvetica,sans-Serif" font-size="10.00">/EditorWindow.cc</text>
</g>
<!-- Node1 -->
<g id="node2" class="node"><title>Node1</title>
<g id="a_node2"><a xlink:href="_editor_window_8h.html" target="_top" xlink:title="EditorWindow.h">
<polygon fill="white" stroke="black" points="1088.5,-347.5 1088.5,-366.5 1176.5,-366.5 1176.5,-347.5 1088.5,-347.5"/>
<text text-anchor="middle" x="1132.5" y="-354.5" font-family="Helvetica,sans-Serif" font-size="10.00">EditorWindow.h</text>
</a>
</g>
</g>
<!-- Node0&#45;&gt;Node1 -->
<g id="edge1" class="edge"><title>Node0&#45;&gt;Node1</title>
<path fill="none" stroke="midnightblue" d="M1369.67,-407C1317.44,-396.209 1236.56,-379.498 1184.06,-368.652"/>
<polygon fill="midnightblue" stroke="midnightblue" points="1184.46,-365.16 1173.96,-366.565 1183.04,-372.016 1184.46,-365.16"/>
</g>
<!-- Node7 -->
<g id="node8" class="node"><title>Node7</title>
<g id="a_node8"><a xlink:href="string_8h.html" target="_top" xlink:title="base/std_ext/string.h">
<polygon fill="white" stroke="black" points="317,-56.5 317,-75.5 434,-75.5 434,-56.5 317,-56.5"/>
<text text-anchor="middle" x="375.5" y="-63.5" font-family="Helvetica,sans-Serif" font-size="10.00">base/std_ext/string.h</text>
</a>
</g>
</g>
<!-- Node0&#45;&gt;Node7 -->
<g id="edge33" class="edge"><title>Node0&#45;&gt;Node7</title>
<path fill="none" stroke="midnightblue" d="M1369.75,-417.27C1154.82,-415.637 330.5,-402.469 330.5,-296.5 330.5,-296.5 330.5,-296.5 330.5,-177 330.5,-141.93 350.337,-104.939 363.669,-84.037"/>
<polygon fill="midnightblue" stroke="midnightblue" points="366.634,-85.8991 369.243,-75.6305 360.8,-82.031 366.634,-85.8991"/>
</g>
<!-- Node9 -->
<g id="node10" class="node"><title>Node9</title>
<polygon fill="white" stroke="#bfbfbf" points="347.5,-0.5 347.5,-19.5 403.5,-19.5 403.5,-0.5 347.5,-0.5"/>
<text text-anchor="middle" x="375.5" y="-7.5" font-family="Helvetica,sans-Serif" font-size="10.00">sstream</text>
</g>
<!-- Node0&#45;&gt;Node9 -->
<g id="edge72" class="edge"><title>Node0&#45;&gt;Node9</title>
<path fill="none" stroke="midnightblue" d="M1369.85,-417.661C1145.28,-417.722 250.5,-410.793 250.5,-296.5 250.5,-296.5 250.5,-296.5 250.5,-121 250.5,-72.1731 304.915,-39.8917 341.941,-23.5781"/>
<polygon fill="midnightblue" stroke="midnightblue" points="343.546,-26.6995 351.399,-19.5868 340.825,-20.2502 343.546,-26.6995"/>
</g>
<!-- Node14 -->
<g id="node15" class="node"><title>Node14</title>
<polygon fill="white" stroke="#bfbfbf" points="1250.5,-112.5 1250.5,-131.5 1318.5,-131.5 1318.5,-112.5 1250.5,-112.5"/>
<text text-anchor="middle" x="1284.5" y="-119.5" font-family="Helvetica,sans-Serif" font-size="10.00">type_traits</text>
</g>
<!-- Node0&#45;&gt;Node14 -->
<g id="edge71" class="edge"><title>Node0&#45;&gt;Node14</title>
<path fill="none" stroke="midnightblue" d="M1411.35,-403.342C1389.06,-368.259 1331.45,-273.914 1299.5,-188 1293.88,-172.888 1289.94,-154.989 1287.51,-141.804"/>
<polygon fill="midnightblue" stroke="midnightblue" points="1290.9,-140.882 1285.76,-131.619 1284,-142.067 1290.9,-140.882"/>
</g>
<!-- Node19 -->
<g id="node20" class="node"><title>Node19</title>
<polygon fill="white" stroke="#bfbfbf" points="1375,-112.5 1375,-131.5 1430,-131.5 1430,-112.5 1375,-112.5"/>
<text text-anchor="middle" x="1402.5" y="-119.5" font-family="Helvetica,sans-Serif" font-size="10.00">iomanip</text>
</g>
<!-- Node0&#45;&gt;Node19 -->
<g id="edge73" class="edge"><title>Node0&#45;&gt;Node19</title>
<path fill="none" stroke="midnightblue" d="M1420.5,-403.342C1420.5,-380.751 1420.5,-335.153 1420.5,-296.5 1420.5,-296.5 1420.5,-296.5 1420.5,-233 1420.5,-200.537 1412.77,-163.384 1407.44,-141.628"/>
<polygon fill="midnightblue" stroke="midnightblue" points="1410.79,-140.587 1404.93,-131.76 1404.01,-142.315 1410.79,-140.587"/>
</g>
<!-- Node27 -->
<g id="node28" class="node"><title>Node27</title>
<g id="a_node28"><a xlink:href="memory_8h.html" target="_top" xlink:title="base/std_ext/memory.h">
<polygon fill="white" stroke="black" points="579,-168.5 579,-187.5 708,-187.5 708,-168.5 579,-168.5"/>
<text text-anchor="middle" x="643.5" y="-175.5" font-family="Helvetica,sans-Serif" font-size="10.00">base/std_ext/memory.h</text>
</a>
</g>
</g>
<!-- Node0&#45;&gt;Node27 -->
<g id="edge34" class="edge"><title>Node0&#45;&gt;Node27</title>
<path fill="none" stroke="midnightblue" d="M1369.95,-416.441C1218.68,-412.928 771.236,-399.96 629.5,-367 566.231,-352.287 530.575,-365.019 494.5,-311 458.816,-257.565 553.56,-212.12 608.1,-191.245"/>
<polygon fill="midnightblue" stroke="midnightblue" points="609.629,-194.41 617.776,-187.637 607.183,-187.851 609.629,-194.41"/>
</g>
<!-- Node28 -->
<g id="node29" class="node"><title>Node28</title>
<g id="a_node29"><a xlink:href="_editor_canvas_8h.html" target="_top" xlink:title="calibration/gui/EditorCanvas.h">
<polygon fill="white" stroke="black" points="638.5,-347.5 638.5,-366.5 796.5,-366.5 796.5,-347.5 638.5,-347.5"/>
<text text-anchor="middle" x="717.5" y="-354.5" font-family="Helvetica,sans-Serif" font-size="10.00">calibration/gui/EditorCanvas.h</text>
</a>
</g>
</g>
<!-- Node0&#45;&gt;Node28 -->
<g id="edge37" class="edge"><title>Node0&#45;&gt;Node28</title>
<path fill="none" stroke="midnightblue" d="M1369.94,-413.221C1251.76,-403.219 956.174,-378.201 806.835,-365.561"/>
<polygon fill="midnightblue" stroke="midnightblue" points="807.036,-362.066 796.776,-364.71 806.446,-369.041 807.036,-362.066"/>
</g>
<!-- Node39 -->
<g id="node40" class="node"><title>Node39</title>
<polygon fill="white" stroke="#bfbfbf" points="1449,-347.5 1449,-366.5 1502,-366.5 1502,-347.5 1449,-347.5"/>
<text text-anchor="middle" x="1475.5" y="-354.5" font-family="Helvetica,sans-Serif" font-size="10.00">TExec.h</text>
</g>
<!-- Node0&#45;&gt;Node39 -->
<g id="edge64" class="edge"><title>Node0&#45;&gt;Node39</title>
<path fill="none" stroke="midnightblue" d="M1433.53,-403.399C1441.69,-394.575 1452.22,-383.183 1460.69,-374.018"/>
<polygon fill="midnightblue" stroke="midnightblue" points="1463.28,-376.377 1467.5,-366.658 1458.14,-371.625 1463.28,-376.377"/>
</g>
<!-- Node40 -->
<g id="node41" class="node"><title>Node40</title>
<polygon fill="white" stroke="#bfbfbf" points="1520,-347.5 1520,-366.5 1603,-366.5 1603,-347.5 1520,-347.5"/>
<text text-anchor="middle" x="1561.5" y="-354.5" font-family="Helvetica,sans-Serif" font-size="10.00">TApplication.h</text>
</g>
<!-- Node0&#45;&gt;Node40 -->
<g id="edge65" class="edge"><title>Node0&#45;&gt;Node40</title>
<path fill="none" stroke="midnightblue" d="M1453.92,-403.399C1477.47,-393.461 1508.74,-380.265 1531.49,-370.662"/>
<polygon fill="midnightblue" stroke="midnightblue" points="1533.13,-373.77 1540.98,-366.658 1530.41,-367.321 1533.13,-373.77"/>
</g>
<!-- Node41 -->
<g id="node42" class="node"><title>Node41</title>
<polygon fill="white" stroke="#bfbfbf" points="1621.5,-347.5 1621.5,-366.5 1689.5,-366.5 1689.5,-347.5 1621.5,-347.5"/>
<text text-anchor="middle" x="1655.5" y="-354.5" font-family="Helvetica,sans-Serif" font-size="10.00">TSystem.h</text>
</g>
<!-- Node0&#45;&gt;Node41 -->
<g id="edge66" class="edge"><title>Node0&#45;&gt;Node41</title>
<path fill="none" stroke="midnightblue" d="M1471.2,-404.663C1513.16,-394.04 1572.12,-379.11 1611.97,-369.022"/>
<polygon fill="midnightblue" stroke="midnightblue" points="1613.08,-372.351 1621.91,-366.504 1611.36,-365.565 1613.08,-372.351"/>
</g>
<!-- Node42 -->
<g id="node43" class="node"><title>Node42</title>
<polygon fill="white" stroke="#bfbfbf" points="1708,-347.5 1708,-366.5 1779,-366.5 1779,-347.5 1708,-347.5"/>
<text text-anchor="middle" x="1743.5" y="-354.5" font-family="Helvetica,sans-Serif" font-size="10.00">TGButton.h</text>
</g>
<!-- Node0&#45;&gt;Node42 -->
<g id="edge67" class="edge"><title>Node0&#45;&gt;Node42</title>
<path fill="none" stroke="midnightblue" d="M1471.02,-408.599C1524.7,-399.08 1612.31,-383.368 1697.78,-367.111"/>
<polygon fill="midnightblue" stroke="midnightblue" points="1698.48,-370.54 1707.65,-365.229 1697.17,-363.664 1698.48,-370.54"/>
</g>
<!-- Node43 -->
<g id="node44" class="node"><title>Node43</title>
<polygon fill="white" stroke="#bfbfbf" points="1797.5,-347.5 1797.5,-366.5 1853.5,-366.5 1853.5,-347.5 1797.5,-347.5"/>
<text text-anchor="middle" x="1825.5" y="-354.5" font-family="Helvetica,sans-Serif" font-size="10.00">TROOT.h</text>
</g>
<!-- Node0&#45;&gt;Node43 -->
<g id="edge68" class="edge"><title>Node0&#45;&gt;Node43</title>
<path fill="none" stroke="midnightblue" d="M1471.21,-412.079C1542.24,-404.132 1675.28,-387.96 1787.5,-367 1787.6,-366.981 1787.7,-366.963 1787.8,-366.944"/>
<polygon fill="midnightblue" stroke="midnightblue" points="1788.25,-370.425 1797.34,-364.986 1786.84,-363.567 1788.25,-370.425"/>
</g>
<!-- Node44 -->
<g id="node45" class="node"><title>Node44</title>
<g id="a_node45"><a xlink:href="_logger_8h.html" target="_top" xlink:title="base/Logger.h">
<polygon fill="white" stroke="black" points="1871.5,-347.5 1871.5,-366.5 1955.5,-366.5 1955.5,-347.5 1871.5,-347.5"/>
<text text-anchor="middle" x="1913.5" y="-354.5" font-family="Helvetica,sans-Serif" font-size="10.00">base/Logger.h</text>
</a>
</g>
</g>
<!-- Node0&#45;&gt;Node44 -->
<g id="edge69" class="edge"><title>Node0&#45;&gt;Node44</title>
<path fill="none" stroke="midnightblue" d="M1471.01,-412.74C1551.39,-404.942 1713.6,-388.304 1861.09,-367.13"/>
<polygon fill="midnightblue" stroke="midnightblue" points="1861.84,-370.559 1871.23,-365.664 1860.83,-363.631 1861.84,-370.559"/>
</g>
<!-- Node2 -->
<g id="node3" class="node"><title>Node2</title>
<g id="a_node3"><a xlink:href="_editor_8h.html" target="_top" xlink:title="calibration/Editor.h">
<polygon fill="white" stroke="black" points="846,-286 846,-305 951,-305 951,-286 846,-286"/>
<text text-anchor="middle" x="898.5" y="-293" font-family="Helvetica,sans-Serif" font-size="10.00">calibration/Editor.h</text>
</a>
</g>
</g>
<!-- Node1&#45;&gt;Node2 -->
<g id="edge2" class="edge"><title>Node1&#45;&gt;Node2</title>
<path fill="none" stroke="midnightblue" d="M1098.97,-347.475C1057.62,-336.959 987.229,-319.062 941.816,-307.514"/>
<polygon fill="midnightblue" stroke="midnightblue" points="942.518,-304.081 931.964,-305.009 940.793,-310.866 942.518,-304.081"/>
</g>
<!-- Node8 -->
<g id="node9" class="node"><title>Node8</title>
<polygon fill="white" stroke="#bfbfbf" points="829.5,-0.5 829.5,-19.5 873.5,-19.5 873.5,-0.5 829.5,-0.5"/>
<text text-anchor="middle" x="851.5" y="-7.5" font-family="Helvetica,sans-Serif" font-size="10.00">string</text>
</g>
<!-- Node1&#45;&gt;Node8 -->
<g id="edge31" class="edge"><title>Node1&#45;&gt;Node8</title>
<path fill="none" stroke="midnightblue" d="M1176.62,-355.093C1218.47,-352.207 1281.35,-342.414 1325.5,-311 1408.37,-252.038 1500.46,-192.654 1438.5,-112 1370.22,-23.1284 996.736,-12.3451 883.838,-11.1274"/>
<polygon fill="midnightblue" stroke="midnightblue" points="883.775,-7.62678 873.745,-11.0371 883.713,-14.6265 883.775,-7.62678"/>
</g>
<!-- Node21 -->
<g id="node22" class="node"><title>Node21</title>
<g id="a_node22"><a xlink:href="_indicator__traits_8h.html" target="_top" xlink:title="calibration/gui/Indicator\l_traits.h">
<polygon fill="white" stroke="black" points="699.5,-280.5 699.5,-310.5 827.5,-310.5 827.5,-280.5 699.5,-280.5"/>
<text text-anchor="start" x="707.5" y="-298.5" font-family="Helvetica,sans-Serif" font-size="10.00">calibration/gui/Indicator</text>
<text text-anchor="middle" x="763.5" y="-287.5" font-family="Helvetica,sans-Serif" font-size="10.00">_traits.h</text>
</a>
</g>
</g>
<!-- Node1&#45;&gt;Node21 -->
<g id="edge25" class="edge"><title>Node1&#45;&gt;Node21</title>
<path fill="none" stroke="midnightblue" d="M1088.27,-349.912C1032.3,-342.067 932.691,-327.641 837.636,-311.153"/>
<polygon fill="midnightblue" stroke="midnightblue" points="838.016,-307.667 827.563,-309.395 836.813,-314.562 838.016,-307.667"/>
</g>
<!-- Node22 -->
<g id="node23" class="node"><title>Node22</title>
<polygon fill="white" stroke="#bfbfbf" points="1248.5,-286 1248.5,-305 1316.5,-305 1316.5,-286 1248.5,-286"/>
<text text-anchor="middle" x="1282.5" y="-293" font-family="Helvetica,sans-Serif" font-size="10.00">TGFrame.h</text>
</g>
<!-- Node1&#45;&gt;Node22 -->
<g id="edge27" class="edge"><title>Node1&#45;&gt;Node22</title>
<path fill="none" stroke="midnightblue" d="M1153.99,-347.475C1179.61,-337.313 1222.61,-320.256 1251.74,-308.7"/>
<polygon fill="midnightblue" stroke="midnightblue" points="1253.04,-311.95 1261.05,-305.009 1250.46,-305.443 1253.04,-311.95"/>
</g>
<!-- Node23 -->
<g id="node24" class="node"><title>Node23</title>
<polygon fill="white" stroke="#bfbfbf" points="1091,-286 1091,-305 1174,-305 1174,-286 1091,-286"/>
<text text-anchor="middle" x="1132.5" y="-293" font-family="Helvetica,sans-Serif" font-size="10.00">KeySymbols.h</text>
</g>
<!-- Node1&#45;&gt;Node23 -->
<g id="edge28" class="edge"><title>Node1&#45;&gt;Node23</title>
<path fill="none" stroke="midnightblue" d="M1132.5,-347.475C1132.5,-339.08 1132.5,-325.981 1132.5,-315.163"/>
<polygon fill="midnightblue" stroke="midnightblue" points="1136,-315.009 1132.5,-305.009 1129,-315.009 1136,-315.009"/>
</g>
<!-- Node24 -->
<g id="node25" class="node"><title>Node24</title>
<polygon fill="white" stroke="#bfbfbf" points="969,-286 969,-305 1034,-305 1034,-286 969,-286"/>
<text text-anchor="middle" x="1001.5" y="-293" font-family="Helvetica,sans-Serif" font-size="10.00">TCanvas.h</text>
</g>
<!-- Node1&#45;&gt;Node24 -->
<g id="edge29" class="edge"><title>Node1&#45;&gt;Node24</title>
<path fill="none" stroke="midnightblue" d="M1113.73,-347.475C1091.65,-337.445 1054.78,-320.7 1029.36,-309.155"/>
<polygon fill="midnightblue" stroke="midnightblue" points="1030.79,-305.958 1020.23,-305.009 1027.89,-312.331 1030.79,-305.958"/>
</g>
<!-- Node25 -->
<g id="node26" class="node"><title>Node25</title>
<polygon fill="white" stroke="#bfbfbf" points="1192.5,-286 1192.5,-305 1230.5,-305 1230.5,-286 1192.5,-286"/>
<text text-anchor="middle" x="1211.5" y="-293" font-family="Helvetica,sans-Serif" font-size="10.00">map</text>
</g>
<!-- Node1&#45;&gt;Node25 -->
<g id="edge30" class="edge"><title>Node1&#45;&gt;Node25</title>
<path fill="none" stroke="midnightblue" d="M1143.82,-347.475C1156.37,-338.02 1176.85,-322.596 1192,-311.187"/>
<polygon fill="midnightblue" stroke="midnightblue" points="1194.32,-313.821 1200.2,-305.009 1190.11,-308.23 1194.32,-313.821"/>
</g>
<!-- Node26 -->
<g id="node27" class="node"><title>Node26</title>
<polygon fill="white" stroke="#bfbfbf" points="642,-112.5 642,-131.5 699,-131.5 699,-112.5 642,-112.5"/>
<text text-anchor="middle" x="670.5" y="-119.5" font-family="Helvetica,sans-Serif" font-size="10.00">memory</text>
</g>
<!-- Node1&#45;&gt;Node26 -->
<g id="edge32" class="edge"><title>Node1&#45;&gt;Node26</title>
<path fill="none" stroke="midnightblue" d="M1122.72,-347.449C1101.24,-328.726 1051.22,-285.347 1042.5,-280 928.316,-209.945 777.311,-156.993 708.086,-134.647"/>
<polygon fill="midnightblue" stroke="midnightblue" points="709.071,-131.288 698.48,-131.574 706.938,-137.955 709.071,-131.288"/>
</g>
<!-- Node3 -->
<g id="node4" class="node"><title>Node3</title>
<g id="a_node4"><a xlink:href="_t_calibration_data_8h.html" target="_top" xlink:title="tree/TCalibrationData.h">
<polygon fill="white" stroke="black" points="994,-224.5 994,-243.5 1121,-243.5 1121,-224.5 994,-224.5"/>
<text text-anchor="middle" x="1057.5" y="-231.5" font-family="Helvetica,sans-Serif" font-size="10.00">tree/TCalibrationData.h</text>
</a>
</g>
</g>
<!-- Node2&#45;&gt;Node3 -->
<g id="edge3" class="edge"><title>Node2&#45;&gt;Node3</title>
<path fill="none" stroke="midnightblue" d="M921.281,-285.975C948.555,-275.769 994.413,-258.608 1025.3,-247.049"/>
<polygon fill="midnightblue" stroke="midnightblue" points="1026.62,-250.292 1034.76,-243.509 1024.17,-243.736 1026.62,-250.292"/>
</g>
<!-- Node4 -->
<g id="node5" class="node"><title>Node4</title>
<g id="a_node5"><a xlink:href="_t_i_d_8h.html" target="_top" xlink:title="TID.h">
<polygon fill="white" stroke="black" points="1037,-168.5 1037,-187.5 1078,-187.5 1078,-168.5 1037,-168.5"/>
<text text-anchor="middle" x="1057.5" y="-175.5" font-family="Helvetica,sans-Serif" font-size="10.00">TID.h</text>
</a>
</g>
</g>
<!-- Node3&#45;&gt;Node4 -->
<g id="edge4" class="edge"><title>Node3&#45;&gt;Node4</title>
<path fill="none" stroke="midnightblue" d="M1057.5,-224.083C1057.5,-217.006 1057.5,-206.861 1057.5,-197.986"/>
<polygon fill="midnightblue" stroke="midnightblue" points="1061,-197.751 1057.5,-187.751 1054,-197.751 1061,-197.751"/>
</g>
<!-- Node3&#45;&gt;Node8 -->
<g id="edge23" class="edge"><title>Node3&#45;&gt;Node8</title>
<path fill="none" stroke="midnightblue" d="M1038.65,-224.382C1007.82,-209.472 946.286,-176.169 908.5,-132 881.807,-100.797 864.794,-54.9678 856.824,-29.6063"/>
<polygon fill="midnightblue" stroke="midnightblue" points="860.108,-28.3746 853.878,-19.8055 853.405,-30.3898 860.108,-28.3746"/>
</g>
<!-- Node13 -->
<g id="node14" class="node"><title>Node13</title>
<polygon fill="white" stroke="#bfbfbf" points="1035.5,-56.5 1035.5,-75.5 1079.5,-75.5 1079.5,-56.5 1035.5,-56.5"/>
<text text-anchor="middle" x="1057.5" y="-63.5" font-family="Helvetica,sans-Serif" font-size="10.00">ctime</text>
</g>
<!-- Node3&#45;&gt;Node13 -->
<g id="edge24" class="edge"><title>Node3&#45;&gt;Node13</title>
<path fill="none" stroke="midnightblue" d="M1084.73,-224.432C1136.44,-206.737 1240.42,-163.475 1202.5,-112 1176.83,-77.1494 1124.42,-68.4937 1090.14,-66.7666"/>
<polygon fill="midnightblue" stroke="midnightblue" points="1089.82,-63.2542 1079.71,-66.4249 1089.59,-70.2504 1089.82,-63.2542"/>
</g>
<!-- Node20 -->
<g id="node21" class="node"><title>Node20</title>
<g id="a_node21"><a xlink:href="_git_info_8h.html" target="_top" xlink:title="base/GitInfo.h">
<polygon fill="white" stroke="black" points="1309,-168.5 1309,-187.5 1392,-187.5 1392,-168.5 1309,-168.5"/>
<text text-anchor="middle" x="1350.5" y="-175.5" font-family="Helvetica,sans-Serif" font-size="10.00">base/GitInfo.h</text>
</a>
</g>
</g>
<!-- Node3&#45;&gt;Node20 -->
<g id="edge21" class="edge"><title>Node3&#45;&gt;Node20</title>
<path fill="none" stroke="midnightblue" d="M1103.93,-224.444C1156.94,-214.673 1243.45,-198.729 1298.64,-188.558"/>
<polygon fill="midnightblue" stroke="midnightblue" points="1299.36,-191.984 1308.56,-186.729 1298.09,-185.1 1299.36,-191.984"/>
</g>
<!-- Node5 -->
<g id="node6" class="node"><title>Node5</title>
<polygon fill="white" stroke="#bfbfbf" points="765.5,-112.5 765.5,-131.5 823.5,-131.5 823.5,-112.5 765.5,-112.5"/>
<text text-anchor="middle" x="794.5" y="-119.5" font-family="Helvetica,sans-Serif" font-size="10.00">Rtypes.h</text>
</g>
<!-- Node4&#45;&gt;Node5 -->
<g id="edge5" class="edge"><title>Node4&#45;&gt;Node5</title>
<path fill="none" stroke="midnightblue" d="M1036.86,-172.763C993.088,-163.775 890.307,-142.671 833.665,-131.042"/>
<polygon fill="midnightblue" stroke="midnightblue" points="834.15,-127.568 823.65,-128.985 832.742,-134.425 834.15,-127.568"/>
</g>
<!-- Node6 -->
<g id="node7" class="node"><title>Node6</title>
<g id="a_node7"><a xlink:href="base_2std__ext_2_time_8h.html" target="_top" xlink:title="base/std_ext/time.h">
<polygon fill="white" stroke="black" points="917.5,-112.5 917.5,-131.5 1029.5,-131.5 1029.5,-112.5 917.5,-112.5"/>
<text text-anchor="middle" x="973.5" y="-119.5" font-family="Helvetica,sans-Serif" font-size="10.00">base/std_ext/time.h</text>
</a>
</g>
</g>
<!-- Node4&#45;&gt;Node6 -->
<g id="edge6" class="edge"><title>Node4&#45;&gt;Node6</title>
<path fill="none" stroke="midnightblue" d="M1044,-168.324C1030.9,-159.9 1010.79,-146.971 995.393,-137.074"/>
<polygon fill="midnightblue" stroke="midnightblue" points="997.267,-134.118 986.963,-131.655 993.482,-140.006 997.267,-134.118"/>
</g>
<!-- Node4&#45;&gt;Node13 -->
<g id="edge20" class="edge"><title>Node4&#45;&gt;Node13</title>
<path fill="none" stroke="midnightblue" d="M1057.5,-168.368C1057.5,-150.617 1057.5,-109.666 1057.5,-85.5974"/>
<polygon fill="midnightblue" stroke="midnightblue" points="1061,-85.5914 1057.5,-75.5914 1054,-85.5915 1061,-85.5914"/>
</g>
<!-- Node4&#45;&gt;Node14 -->
<g id="edge14" class="edge"><title>Node4&#45;&gt;Node14</title>
<path fill="none" stroke="midnightblue" d="M1078.05,-172.113C1114.52,-163.435 1191.35,-145.159 1240.31,-133.513"/>
<polygon fill="midnightblue" stroke="midnightblue" points="1241.39,-136.853 1250.31,-131.134 1239.77,-130.043 1241.39,-136.853"/>
</g>
<!-- Node15 -->
<g id="node16" class="node"><title>Node15</title>
<polygon fill="white" stroke="#bfbfbf" points="1153,-112.5 1153,-131.5 1194,-131.5 1194,-112.5 1153,-112.5"/>
<text text-anchor="middle" x="1173.5" y="-119.5" font-family="Helvetica,sans-Serif" font-size="10.00">tuple</text>
</g>
<!-- Node4&#45;&gt;Node15 -->
<g id="edge15" class="edge"><title>Node4&#45;&gt;Node15</title>
<path fill="none" stroke="midnightblue" d="M1075.88,-168.444C1094.72,-159.675 1124.23,-145.935 1145.88,-135.858"/>
<polygon fill="midnightblue" stroke="midnightblue" points="1147.62,-138.91 1155.21,-131.516 1144.66,-132.564 1147.62,-138.91"/>
</g>
<!-- Node16 -->
<g id="node17" class="node"><title>Node16</title>
<polygon fill="white" stroke="#bfbfbf" points="1086,-112.5 1086,-131.5 1135,-131.5 1135,-112.5 1086,-112.5"/>
<text text-anchor="middle" x="1110.5" y="-119.5" font-family="Helvetica,sans-Serif" font-size="10.00">cstdint</text>
</g>
<!-- Node4&#45;&gt;Node16 -->
<g id="edge16" class="edge"><title>Node4&#45;&gt;Node16</title>
<path fill="none" stroke="midnightblue" d="M1066.25,-168.083C1073.97,-160.22 1085.4,-148.569 1094.72,-139.081"/>
<polygon fill="midnightblue" stroke="midnightblue" points="1097.4,-141.34 1101.91,-131.751 1092.41,-136.436 1097.4,-141.34"/>
</g>
<!-- Node17 -->
<g id="node18" class="node"><title>Node17</title>
<polygon fill="white" stroke="#bfbfbf" points="421.5,-0.5 421.5,-19.5 485.5,-19.5 485.5,-0.5 421.5,-0.5"/>
<text text-anchor="middle" x="453.5" y="-7.5" font-family="Helvetica,sans-Serif" font-size="10.00">stdexcept</text>
</g>
<!-- Node4&#45;&gt;Node17 -->
<g id="edge17" class="edge"><title>Node4&#45;&gt;Node17</title>
<path fill="none" stroke="midnightblue" d="M1036.76,-170.851C997.136,-159.141 907.917,-132.94 832.5,-112 710.24,-78.0536 565.165,-40.0147 495.262,-21.8258"/>
<polygon fill="midnightblue" stroke="midnightblue" points="496.064,-18.4181 485.505,-19.2891 494.303,-25.1929 496.064,-18.4181"/>
</g>
<!-- Node18 -->
<g id="node19" class="node"><title>Node18</title>
<polygon fill="white" stroke="#bfbfbf" points="717.5,-112.5 717.5,-131.5 747.5,-131.5 747.5,-112.5 717.5,-112.5"/>
<text text-anchor="middle" x="732.5" y="-119.5" font-family="Helvetica,sans-Serif" font-size="10.00">list</text>
</g>
<!-- Node4&#45;&gt;Node18 -->
<g id="edge18" class="edge"><title>Node4&#45;&gt;Node18</title>
<path fill="none" stroke="midnightblue" d="M1036.76,-175.412C988.939,-171.434 867.233,-159.504 757.482,-131.76"/>
<polygon fill="midnightblue" stroke="midnightblue" points="758.138,-128.314 747.58,-129.204 756.388,-135.092 758.138,-128.314"/>
</g>
<!-- Node4&#45;&gt;Node19 -->
<g id="edge19" class="edge"><title>Node4&#45;&gt;Node19</title>
<path fill="none" stroke="midnightblue" d="M1078.05,-173.784C1134.32,-164.976 1291.57,-140.362 1364.49,-128.95"/>
<polygon fill="midnightblue" stroke="midnightblue" points="1365.27,-132.37 1374.61,-127.365 1364.19,-125.454 1365.27,-132.37"/>
</g>
<!-- Node6&#45;&gt;Node7 -->
<g id="edge7" class="edge"><title>Node6&#45;&gt;Node7</title>
<path fill="none" stroke="midnightblue" d="M917.218,-117.141C821.98,-110.41 622.741,-95.4702 444.398,-76.1647"/>
<polygon fill="midnightblue" stroke="midnightblue" points="444.627,-72.669 434.306,-75.0651 443.868,-79.6278 444.627,-72.669"/>
</g>
<!-- Node12 -->
<g id="node13" class="node"><title>Node12</title>
<polygon fill="white" stroke="#bfbfbf" points="949,-56.5 949,-75.5 998,-75.5 998,-56.5 949,-56.5"/>
<text text-anchor="middle" x="973.5" y="-63.5" font-family="Helvetica,sans-Serif" font-size="10.00">cstring</text>
</g>
<!-- Node6&#45;&gt;Node12 -->
<g id="edge12" class="edge"><title>Node6&#45;&gt;Node12</title>
<path fill="none" stroke="midnightblue" d="M973.5,-112.083C973.5,-105.006 973.5,-94.8611 973.5,-85.9865"/>
<polygon fill="midnightblue" stroke="midnightblue" points="977,-85.751 973.5,-75.7511 970,-85.7511 977,-85.751"/>
</g>
<!-- Node6&#45;&gt;Node13 -->
<g id="edge13" class="edge"><title>Node6&#45;&gt;Node13</title>
<path fill="none" stroke="midnightblue" d="M986.996,-112.324C1000.1,-103.9 1020.21,-90.9709 1035.61,-81.0741"/>
<polygon fill="midnightblue" stroke="midnightblue" points="1037.52,-84.0063 1044.04,-75.6545 1033.73,-78.118 1037.52,-84.0063"/>
</g>
<!-- Node7&#45;&gt;Node8 -->
<g id="edge8" class="edge"><title>Node7&#45;&gt;Node8</title>
<path fill="none" stroke="midnightblue" d="M434.316,-57.0183C437.082,-56.6685 439.821,-56.3273 442.5,-56 582.5,-38.8978 749.83,-21.4089 819.061,-14.3024"/>
<polygon fill="midnightblue" stroke="midnightblue" points="819.72,-17.7533 829.311,-13.2526 819.006,-10.7898 819.72,-17.7533"/>
</g>
<!-- Node7&#45;&gt;Node9 -->
<g id="edge9" class="edge"><title>Node7&#45;&gt;Node9</title>
<path fill="none" stroke="midnightblue" d="M375.5,-56.083C375.5,-49.0059 375.5,-38.8611 375.5,-29.9865"/>
<polygon fill="midnightblue" stroke="midnightblue" points="379,-29.751 375.5,-19.7511 372,-29.7511 379,-29.751"/>
</g>
<!-- Node10 -->
<g id="node11" class="node"><title>Node10</title>
<polygon fill="white" stroke="#bfbfbf" points="267.5,-0.5 267.5,-19.5 329.5,-19.5 329.5,-0.5 267.5,-0.5"/>
<text text-anchor="middle" x="298.5" y="-7.5" font-family="Helvetica,sans-Serif" font-size="10.00">algorithm</text>
</g>
<!-- Node7&#45;&gt;Node10 -->
<g id="edge10" class="edge"><title>Node7&#45;&gt;Node10</title>
<path fill="none" stroke="midnightblue" d="M363.129,-56.324C351.342,-48.0577 333.368,-35.4527 319.364,-25.6322"/>
<polygon fill="midnightblue" stroke="midnightblue" points="321.038,-22.5307 310.841,-19.6545 317.018,-28.2619 321.038,-22.5307"/>
</g>
<!-- Node11 -->
<g id="node12" class="node"><title>Node11</title>
<polygon fill="white" stroke="#bfbfbf" points="514,-0.5 514,-19.5 561,-19.5 561,-0.5 514,-0.5"/>
<text text-anchor="middle" x="537.5" y="-7.5" font-family="Helvetica,sans-Serif" font-size="10.00">vector</text>
</g>
<!-- Node7&#45;&gt;Node11 -->
<g id="edge11" class="edge"><title>Node7&#45;&gt;Node11</title>
<path fill="none" stroke="midnightblue" d="M401.169,-56.4435C428.984,-47.1721 473.472,-32.3427 504.016,-22.1614"/>
<polygon fill="midnightblue" stroke="midnightblue" points="505.415,-25.3843 513.795,-18.9015 503.202,-18.7435 505.415,-25.3843"/>
</g>
<!-- Node20&#45;&gt;Node8 -->
<g id="edge22" class="edge"><title>Node20&#45;&gt;Node8</title>
<path fill="none" stroke="midnightblue" d="M1350,-168.41C1348.71,-154.437 1344.08,-126.855 1327.5,-112 1260.93,-52.3765 979.283,-22.3201 883.523,-13.683"/>
<polygon fill="midnightblue" stroke="midnightblue" points="883.828,-10.1964 873.558,-12.8016 883.211,-17.1692 883.828,-10.1964"/>
</g>
<!-- Node21&#45;&gt;Node5 -->
<g id="edge26" class="edge"><title>Node21&#45;&gt;Node5</title>
<path fill="none" stroke="midnightblue" d="M766.037,-280.465C771.597,-249.704 784.86,-176.329 791.12,-141.7"/>
<polygon fill="midnightblue" stroke="midnightblue" points="794.618,-142.023 792.953,-131.56 787.73,-140.778 794.618,-142.023"/>
</g>
<!-- Node27&#45;&gt;Node18 -->
<g id="edge36" class="edge"><title>Node27&#45;&gt;Node18</title>
<path fill="none" stroke="midnightblue" d="M657.799,-168.324C671.683,-159.9 692.992,-146.971 709.304,-137.074"/>
<polygon fill="midnightblue" stroke="midnightblue" points="711.502,-139.834 718.236,-131.655 707.871,-133.85 711.502,-139.834"/>
</g>
<!-- Node27&#45;&gt;Node26 -->
<g id="edge35" class="edge"><title>Node27&#45;&gt;Node26</title>
<path fill="none" stroke="midnightblue" d="M647.959,-168.083C651.654,-160.691 657.023,-149.953 661.594,-140.811"/>
<polygon fill="midnightblue" stroke="midnightblue" points="664.783,-142.261 666.124,-131.751 658.522,-139.13 664.783,-142.261"/>
</g>
<!-- Node28&#45;&gt;Node2 -->
<g id="edge38" class="edge"><title>Node28&#45;&gt;Node2</title>
<path fill="none" stroke="midnightblue" d="M743.433,-347.475C774.75,-337.18 827.59,-319.81 862.756,-308.25"/>
<polygon fill="midnightblue" stroke="midnightblue" points="864.208,-311.457 872.615,-305.009 862.022,-304.807 864.208,-311.457"/>
</g>
<!-- Node28&#45;&gt;Node5 -->
<g id="edge40" class="edge"><title>Node28&#45;&gt;Node5</title>
<path fill="none" stroke="midnightblue" d="M710.349,-347.364C703.727,-338.763 694.343,-324.873 690.5,-311 686.822,-297.722 686.527,-293.192 690.5,-280 707.941,-222.09 754.477,-165.896 778.956,-139.174"/>
<polygon fill="midnightblue" stroke="midnightblue" points="781.792,-141.265 786.063,-131.569 776.678,-136.486 781.792,-141.265"/>
</g>
<!-- Node28&#45;&gt;Node21 -->
<g id="edge61" class="edge"><title>Node28&#45;&gt;Node21</title>
<path fill="none" stroke="midnightblue" d="M724.091,-347.475C729.913,-339.944 738.663,-328.626 746.44,-318.566"/>
<polygon fill="midnightblue" stroke="midnightblue" points="749.311,-320.575 752.659,-310.523 743.773,-316.294 749.311,-320.575"/>
</g>
<!-- Node28&#45;&gt;Node24 -->
<g id="edge62" class="edge"><title>Node28&#45;&gt;Node24</title>
<path fill="none" stroke="midnightblue" d="M777.222,-347.429C826.539,-339.748 898.143,-327.2 959.5,-311 962.535,-310.199 965.666,-309.286 968.786,-308.317"/>
<polygon fill="midnightblue" stroke="midnightblue" points="970.173,-311.545 978.583,-305.101 967.99,-304.895 970.173,-311.545"/>
</g>
<!-- Node29 -->
<g id="node30" class="node"><title>Node29</title>
<polygon fill="white" stroke="#bfbfbf" points="359,-112.5 359,-131.5 422,-131.5 422,-112.5 359,-112.5"/>
<text text-anchor="middle" x="390.5" y="-119.5" font-family="Helvetica,sans-Serif" font-size="10.00">functional</text>
</g>
<!-- Node28&#45;&gt;Node29 -->
<g id="edge39" class="edge"><title>Node28&#45;&gt;Node29</title>
<path fill="none" stroke="midnightblue" d="M638.347,-348.936C578.404,-342.181 502.284,-330.146 477.5,-311 421.788,-267.961 400.408,-180.82 393.431,-142.187"/>
<polygon fill="midnightblue" stroke="midnightblue" points="396.805,-141.144 391.706,-131.857 389.901,-142.297 396.805,-141.144"/>
</g>
<!-- Node30 -->
<g id="node31" class="node"><title>Node30</title>
<g id="a_node31"><a xlink:href="_root_draw_8h.html" target="_top" xlink:title="analysis/plot/RootDraw.h">
<polygon fill="white" stroke="black" points="428.5,-168.5 428.5,-187.5 560.5,-187.5 560.5,-168.5 428.5,-168.5"/>
<text text-anchor="middle" x="494.5" y="-175.5" font-family="Helvetica,sans-Serif" font-size="10.00">analysis/plot/RootDraw.h</text>
</a>
</g>
</g>
<!-- Node28&#45;&gt;Node30 -->
<g id="edge41" class="edge"><title>Node28&#45;&gt;Node30</title>
<path fill="none" stroke="midnightblue" d="M638.31,-350.454C581.768,-344.653 512.635,-333.16 494.5,-311 467.977,-278.591 479.32,-225.189 487.984,-197.28"/>
<polygon fill="midnightblue" stroke="midnightblue" points="491.362,-198.215 491.198,-187.622 484.72,-196.005 491.362,-198.215"/>
</g>
<!-- Node38 -->
<g id="node39" class="node"><title>Node38</title>
<polygon fill="white" stroke="#bfbfbf" points="504,-286 504,-305 643,-305 643,-286 504,-286"/>
<text text-anchor="middle" x="573.5" y="-293" font-family="Helvetica,sans-Serif" font-size="10.00">TRootEmbeddedCanvas.h</text>
</g>
<!-- Node28&#45;&gt;Node38 -->
<g id="edge63" class="edge"><title>Node28&#45;&gt;Node38</title>
<path fill="none" stroke="midnightblue" d="M696.868,-347.475C672.381,-337.357 631.353,-320.405 603.391,-308.851"/>
<polygon fill="midnightblue" stroke="midnightblue" points="604.672,-305.593 594.093,-305.009 601.999,-312.063 604.672,-305.593"/>
</g>
<!-- Node30&#45;&gt;Node5 -->
<g id="edge60" class="edge"><title>Node30&#45;&gt;Node5</title>
<path fill="none" stroke="midnightblue" d="M550.144,-168.476C601.13,-160.432 678.915,-147.575 755.656,-132.07"/>
<polygon fill="midnightblue" stroke="midnightblue" points="756.395,-135.492 765.495,-130.067 754.998,-128.633 756.395,-135.492"/>
</g>
<!-- Node30&#45;&gt;Node8 -->
<g id="edge42" class="edge"><title>Node30&#45;&gt;Node8</title>
<path fill="none" stroke="midnightblue" d="M512.782,-168.331C539.184,-155.826 589.533,-132.026 632.5,-112 701.01,-80.0682 781.801,-42.9462 823.483,-23.8333"/>
<polygon fill="midnightblue" stroke="midnightblue" points="825.096,-26.9445 832.728,-19.5957 822.179,-20.5812 825.096,-26.9445"/>
</g>
<!-- Node30&#45;&gt;Node11 -->
<g id="edge44" class="edge"><title>Node30&#45;&gt;Node11</title>
<path fill="none" stroke="midnightblue" d="M514.406,-168.41C528.725,-161.04 546.958,-148.916 555.5,-132 572.42,-98.4914 557.396,-53.5736 546.472,-28.9744"/>
<polygon fill="midnightblue" stroke="midnightblue" points="549.566,-27.3307 542.146,-19.7684 543.231,-30.3075 549.566,-27.3307"/>
</g>
<!-- Node30&#45;&gt;Node18 -->
<g id="edge43" class="edge"><title>Node30&#45;&gt;Node18</title>
<path fill="none" stroke="midnightblue" d="M544.467,-168.451C587.935,-160.539 652.421,-147.652 707.5,-132 707.6,-131.972 707.7,-131.943 707.8,-131.914"/>
<polygon fill="midnightblue" stroke="midnightblue" points="708.83,-135.26 717.272,-128.858 706.68,-128.598 708.83,-135.26"/>
</g>
<!-- Node30&#45;&gt;Node26 -->
<g id="edge45" class="edge"><title>Node30&#45;&gt;Node26</title>
<path fill="none" stroke="midnightblue" d="M522.388,-168.444C552.254,-159.28 599.815,-144.688 632.956,-134.519"/>
<polygon fill="midnightblue" stroke="midnightblue" points="634.209,-137.796 642.743,-131.516 632.156,-131.104 634.209,-137.796"/>
</g>
<!-- Node30&#45;&gt;Node29 -->
<g id="edge46" class="edge"><title>Node30&#45;&gt;Node29</title>
<path fill="none" stroke="midnightblue" d="M477.791,-168.324C461.188,-159.703 435.498,-146.364 416.28,-136.386"/>
<polygon fill="midnightblue" stroke="midnightblue" points="417.656,-133.156 407.168,-131.655 414.43,-139.369 417.656,-133.156"/>
</g>
<!-- Node31 -->
<g id="node32" class="node"><title>Node31</title>
<g id="a_node32"><a xlink:href="_bin_settings_8h.html" target="_top" xlink:title="base/BinSettings.h">
<polygon fill="white" stroke="black" points="440,-112.5 440,-131.5 547,-131.5 547,-112.5 440,-112.5"/>
<text text-anchor="middle" x="493.5" y="-119.5" font-family="Helvetica,sans-Serif" font-size="10.00">base/BinSettings.h</text>
</a>
</g>
</g>
<!-- Node30&#45;&gt;Node31 -->
<g id="edge47" class="edge"><title>Node30&#45;&gt;Node31</title>
<path fill="none" stroke="midnightblue" d="M494.335,-168.083C494.204,-161.006 494.016,-150.861 493.852,-141.986"/>
<polygon fill="midnightblue" stroke="midnightblue" points="497.347,-141.685 493.662,-131.751 490.348,-141.814 497.347,-141.685"/>
</g>
<!-- Node31&#45;&gt;Node11 -->
<g id="edge56" class="edge"><title>Node31&#45;&gt;Node11</title>
<path fill="none" stroke="midnightblue" d="M498.798,-112.28C504.044,-103.388 512.059,-89.08 517.5,-76 523.877,-60.6702 529.283,-42.5686 532.861,-29.3661"/>
<polygon fill="midnightblue" stroke="midnightblue" points="536.271,-30.157 535.417,-19.5967 529.499,-28.385 536.271,-30.157"/>
</g>
<!-- Node31&#45;&gt;Node17 -->
<g id="edge57" class="edge"><title>Node31&#45;&gt;Node17</title>
<path fill="none" stroke="midnightblue" d="M444.799,-112.417C392.617,-102.729 316.078,-86.9004 307.5,-76 302.003,-69.0146 302.221,-63.1514 307.5,-56 313.885,-47.3505 370.744,-31.6073 411.582,-21.225"/>
<polygon fill="midnightblue" stroke="midnightblue" points="412.477,-24.609 421.32,-18.7731 410.768,-17.8208 412.477,-24.609"/>
</g>
<!-- Node32 -->
<g id="node33" class="node"><title>Node32</title>
<g id="a_node33"><a xlink:href="interval_8h.html" target="_top" xlink:title="base/interval.h">
<polygon fill="white" stroke="black" points="135,-56.5 135,-75.5 222,-75.5 222,-56.5 135,-56.5"/>
<text text-anchor="middle" x="178.5" y="-63.5" font-family="Helvetica,sans-Serif" font-size="10.00">base/interval.h</text>
</a>
</g>
</g>
<!-- Node31&#45;&gt;Node32 -->
<g id="edge48" class="edge"><title>Node31&#45;&gt;Node32</title>
<path fill="none" stroke="midnightblue" d="M443.587,-112.444C385.862,-102.548 291.203,-86.3204 231.998,-76.1711"/>
<polygon fill="midnightblue" stroke="midnightblue" points="232.54,-72.7131 222.093,-74.473 231.357,-79.6124 232.54,-72.7131"/>
</g>
<!-- Node35 -->
<g id="node36" class="node"><title>Node35</title>
<polygon fill="white" stroke="#bfbfbf" points="0,-0.5 0,-19.5 53,-19.5 53,-0.5 0,-0.5"/>
<text text-anchor="middle" x="26.5" y="-7.5" font-family="Helvetica,sans-Serif" font-size="10.00">istream</text>
</g>
<!-- Node31&#45;&gt;Node35 -->
<g id="edge58" class="edge"><title>Node31&#45;&gt;Node35</title>
<path fill="none" stroke="midnightblue" d="M439.896,-113.252C436.718,-112.82 433.568,-112.4 430.5,-112 295.15,-94.3469 253.757,-122.706 125.5,-76 94.0026,-64.5299 62.4718,-41.3073 43.7244,-25.953"/>
<polygon fill="midnightblue" stroke="midnightblue" points="45.9677,-23.2663 36.0564,-19.5224 41.4697,-28.6299 45.9677,-23.2663"/>
</g>
<!-- Node37 -->
<g id="node38" class="node"><title>Node37</title>
<polygon fill="white" stroke="#bfbfbf" points="452,-56.5 452,-75.5 509,-75.5 509,-56.5 452,-56.5"/>
<text text-anchor="middle" x="480.5" y="-63.5" font-family="Helvetica,sans-Serif" font-size="10.00">ostream</text>
</g>
<!-- Node31&#45;&gt;Node37 -->
<g id="edge59" class="edge"><title>Node31&#45;&gt;Node37</title>
<path fill="none" stroke="midnightblue" d="M491.353,-112.083C489.631,-104.927 487.153,-94.6353 485,-85.6911"/>
<polygon fill="midnightblue" stroke="midnightblue" points="488.35,-84.6541 482.607,-75.7511 481.545,-86.2925 488.35,-84.6541"/>
</g>
<!-- Node32&#45;&gt;Node9 -->
<g id="edge54" class="edge"><title>Node32&#45;&gt;Node9</title>
<path fill="none" stroke="midnightblue" d="M209.715,-56.4435C244.326,-46.9565 300.166,-31.65 337.345,-21.4588"/>
<polygon fill="midnightblue" stroke="midnightblue" points="338.584,-24.7482 347.303,-18.729 336.734,-17.9972 338.584,-24.7482"/>
</g>
<!-- Node32&#45;&gt;Node10 -->
<g id="edge50" class="edge"><title>Node32&#45;&gt;Node10</title>
<path fill="none" stroke="midnightblue" d="M197.514,-56.4435C217.088,-47.6356 247.808,-33.8116 270.229,-23.722"/>
<polygon fill="midnightblue" stroke="midnightblue" points="271.892,-26.8119 279.575,-19.5164 269.019,-20.4284 271.892,-26.8119"/>
</g>
<!-- Node32&#45;&gt;Node17 -->
<g id="edge51" class="edge"><title>Node32&#45;&gt;Node17</title>
<path fill="none" stroke="midnightblue" d="M222.126,-56.9624C267.062,-48.605 339.386,-34.9366 411.166,-20.235"/>
<polygon fill="midnightblue" stroke="midnightblue" points="412.198,-23.5962 421.288,-18.1541 410.788,-16.7396 412.198,-23.5962"/>
</g>
<!-- Node33 -->
<g id="node34" class="node"><title>Node33</title>
<g id="a_node34"><a xlink:href="types_8h.html" target="_top" xlink:title="types.h">
<polygon fill="white" stroke="black" points="197.5,-0.5 197.5,-19.5 249.5,-19.5 249.5,-0.5 197.5,-0.5"/>
<text text-anchor="middle" x="223.5" y="-7.5" font-family="Helvetica,sans-Serif" font-size="10.00">types.h</text>
</a>
</g>
</g>
<!-- Node32&#45;&gt;Node33 -->
<g id="edge49" class="edge"><title>Node32&#45;&gt;Node33</title>
<path fill="none" stroke="midnightblue" d="M185.931,-56.083C192.353,-48.3768 201.806,-37.0333 209.622,-27.6531"/>
<polygon fill="midnightblue" stroke="midnightblue" points="212.494,-29.674 216.207,-19.7511 207.117,-25.1927 212.494,-29.674"/>
</g>
<!-- Node34 -->
<g id="node35" class="node"><title>Node34</title>
<polygon fill="white" stroke="#bfbfbf" points="71.5,-0.5 71.5,-19.5 113.5,-19.5 113.5,-0.5 71.5,-0.5"/>
<text text-anchor="middle" x="92.5" y="-7.5" font-family="Helvetica,sans-Serif" font-size="10.00">limits</text>
</g>
<!-- Node32&#45;&gt;Node34 -->
<g id="edge52" class="edge"><title>Node32&#45;&gt;Node34</title>
<path fill="none" stroke="midnightblue" d="M164.683,-56.324C151.267,-47.9002 130.676,-34.9709 114.914,-25.0741"/>
<polygon fill="midnightblue" stroke="midnightblue" points="116.613,-22.0081 106.283,-19.6545 112.891,-27.9364 116.613,-22.0081"/>
</g>
<!-- Node32&#45;&gt;Node35 -->
<g id="edge53" class="edge"><title>Node32&#45;&gt;Node35</title>
<path fill="none" stroke="midnightblue" d="M154.415,-56.4435C128.955,-47.3986 88.6062,-33.064 60.0409,-22.9158"/>
<polygon fill="midnightblue" stroke="midnightblue" points="61.0669,-19.5661 50.4722,-19.5164 58.7235,-26.1622 61.0669,-19.5661"/>
</g>
<!-- Node36 -->
<g id="node37" class="node"><title>Node36</title>
<polygon fill="white" stroke="#bfbfbf" points="132,-0.5 132,-19.5 179,-19.5 179,-0.5 132,-0.5"/>
<text text-anchor="middle" x="155.5" y="-7.5" font-family="Helvetica,sans-Serif" font-size="10.00">cmath</text>
</g>
<!-- Node32&#45;&gt;Node36 -->
<g id="edge55" class="edge"><title>Node32&#45;&gt;Node36</title>
<path fill="none" stroke="midnightblue" d="M174.702,-56.083C171.587,-48.77 167.077,-38.1814 163.211,-29.1034"/>
<polygon fill="midnightblue" stroke="midnightblue" points="166.366,-27.5798 159.227,-19.7511 159.926,-30.3229 166.366,-27.5798"/>
</g>
<!-- Node45 -->
<g id="node46" class="node"><title>Node45</title>
<polygon fill="white" stroke="#bfbfbf" points="1864,-286 1864,-305 1963,-305 1963,-286 1864,-286"/>
<text text-anchor="middle" x="1913.5" y="-293" font-family="Helvetica,sans-Serif" font-size="10.00">easylogging++.h</text>
</g>
<!-- Node44&#45;&gt;Node45 -->
<g id="edge70" class="edge"><title>Node44&#45;&gt;Node45</title>
<path fill="none" stroke="midnightblue" d="M1913.5,-347.475C1913.5,-339.08 1913.5,-325.981 1913.5,-315.163"/>
<polygon fill="midnightblue" stroke="midnightblue" points="1917,-315.009 1913.5,-305.009 1910,-315.009 1917,-315.009"/>
</g>
</g>
</svg>
