<?xml version="1.0" encoding="UTF-8" standalone="no"?>
<!DOCTYPE svg PUBLIC "-//W3C//DTD SVG 1.1//EN"
 "http://www.w3.org/Graphics/SVG/1.1/DTD/svg11.dtd">
<!-- Generated by graphviz version 2.38.0 (20140413.2041)
 -->
<!-- Title: src/analysis/utils/uncertainties/FitterSergey.h Pages: 1 -->
<svg width="3809pt" height="195pt"
 viewBox="0.00 0.00 3808.50 195.00" xmlns="http://www.w3.org/2000/svg" xmlns:xlink="http://www.w3.org/1999/xlink">
<g id="graph0" class="graph" transform="scale(1 1) rotate(0) translate(4 191)">
<title>src/analysis/utils/uncertainties/FitterSergey.h</title>
<polygon fill="white" stroke="none" points="-4,4 -4,-191 3804.5,-191 3804.5,4 -4,4"/>
<!-- Node42 -->
<g id="node1" class="node"><title>Node42</title>
<polygon fill="#bfbfbf" stroke="black" points="1921,-156.5 1921,-186.5 2071,-186.5 2071,-156.5 1921,-156.5"/>
<text text-anchor="start" x="1929" y="-174.5" font-family="Helvetica,sans-Serif" font-size="10.00">src/analysis/utils</text>
<text text-anchor="middle" x="1996" y="-163.5" font-family="Helvetica,sans-Serif" font-size="10.00">/uncertainties/FitterSergey.h</text>
</g>
<!-- Node43 -->
<g id="node2" class="node"><title>Node43</title>
<g id="a_node2"><a xlink:href="analysis_2physics_2calibration_2_p_i_d___energy_8h.html" target="_top" xlink:title="src/analysis/physics\l/calibration/PID_Energy.h">
<polygon fill="white" stroke="black" points="2,-84 2,-114 136,-114 136,-84 2,-84"/>
<text text-anchor="start" x="10" y="-102" font-family="Helvetica,sans-Serif" font-size="10.00">src/analysis/physics</text>
<text text-anchor="middle" x="69" y="-91" font-family="Helvetica,sans-Serif" font-size="10.00">/calibration/PID_Energy.h</text>
</a>
</g>
</g>
<!-- Node42&#45;&gt;Node43 -->
<g id="edge1" class="edge"><title>Node42&#45;&gt;Node43</title>
<path fill="none" stroke="midnightblue" d="M1910.4,-170.774C1594.22,-171.38 492.492,-169.785 145,-120 135.411,-118.626 125.295,-116.476 115.682,-114.086"/>
<polygon fill="midnightblue" stroke="midnightblue" points="1910.88,-174.273 1920.87,-170.752 1910.86,-167.273 1910.88,-174.273"/>
</g>
<!-- Node45 -->
<g id="node4" class="node"><title>Node45</title>
<g id="a_node4"><a xlink:href="_p_i_d___t_a_p_s_veto___kinfit_8cc.html" target="_top" xlink:title="src/analysis/physics\l/calibration/PID_TAPSVeto\l_Kinfit.cc">
<polygon fill="white" stroke="black" points="154.5,-78.5 154.5,-119.5 293.5,-119.5 293.5,-78.5 154.5,-78.5"/>
<text text-anchor="start" x="162.5" y="-107.5" font-family="Helvetica,sans-Serif" font-size="10.00">src/analysis/physics</text>
<text text-anchor="start" x="162.5" y="-96.5" font-family="Helvetica,sans-Serif" font-size="10.00">/calibration/PID_TAPSVeto</text>
<text text-anchor="middle" x="224" y="-85.5" font-family="Helvetica,sans-Serif" font-size="10.00">_Kinfit.cc</text>
</a>
</g>
</g>
<!-- Node42&#45;&gt;Node45 -->
<g id="edge3" class="edge"><title>Node42&#45;&gt;Node45</title>
<path fill="none" stroke="midnightblue" d="M1910.27,-170.412C1611.66,-169.72 618.332,-164.079 303,-120 299.917,-119.569 296.781,-119.065 293.623,-118.502"/>
<polygon fill="midnightblue" stroke="midnightblue" points="1910.59,-173.913 1920.6,-170.435 1910.61,-166.913 1910.59,-173.913"/>
</g>
<!-- Node46 -->
<g id="node5" class="node"><title>Node46</title>
<g id="a_node5"><a xlink:href="_i_m_comb_fit_plots_8cc.html" target="_top" xlink:title="src/analysis/physics\l/common/IMCombFitPlots.cc">
<polygon fill="white" stroke="black" points="312,-84 312,-114 464,-114 464,-84 312,-84"/>
<text text-anchor="start" x="320" y="-102" font-family="Helvetica,sans-Serif" font-size="10.00">src/analysis/physics</text>
<text text-anchor="middle" x="388" y="-91" font-family="Helvetica,sans-Serif" font-size="10.00">/common/IMCombFitPlots.cc</text>
</a>
</g>
</g>
<!-- Node42&#45;&gt;Node46 -->
<g id="edge4" class="edge"><title>Node42&#45;&gt;Node46</title>
<path fill="none" stroke="midnightblue" d="M1910.5,-169.891C1632.21,-167.558 754.067,-157.352 473,-120 462.33,-118.582 451.041,-116.412 440.296,-114.017"/>
<polygon fill="midnightblue" stroke="midnightblue" points="1910.51,-173.391 1920.54,-169.974 1910.57,-166.391 1910.51,-173.391"/>
</g>
<!-- Node47 -->
<g id="node6" class="node"><title>Node47</title>
<g id="a_node6"><a xlink:href="_just_particles_8cc.html" target="_top" xlink:title="src/analysis/physics\l/common/JustParticles.cc">
<polygon fill="white" stroke="black" points="482,-84 482,-114 618,-114 618,-84 482,-84"/>
<text text-anchor="start" x="490" y="-102" font-family="Helvetica,sans-Serif" font-size="10.00">src/analysis/physics</text>
<text text-anchor="middle" x="550" y="-91" font-family="Helvetica,sans-Serif" font-size="10.00">/common/JustParticles.cc</text>
</a>
</g>
</g>
<!-- Node42&#45;&gt;Node47 -->
<g id="edge5" class="edge"><title>Node42&#45;&gt;Node47</title>
<path fill="none" stroke="midnightblue" d="M1910.84,-169.778C1651.9,-167.201 876.491,-156.559 627,-120 617.297,-118.578 607.054,-116.407 597.316,-114.011"/>
<polygon fill="midnightblue" stroke="midnightblue" points="1910.9,-173.279 1920.94,-169.877 1910.97,-166.279 1910.9,-173.279"/>
</g>
<!-- Node48 -->
<g id="node7" class="node"><title>Node48</title>
<g id="a_node7"><a xlink:href="_meson_dalitz_decays_8cc.html" target="_top" xlink:title="Physics class to investigate Dalitz decays for different mesons. ">
<polygon fill="white" stroke="black" points="636.5,-84 636.5,-114 809.5,-114 809.5,-84 636.5,-84"/>
<text text-anchor="start" x="644.5" y="-102" font-family="Helvetica,sans-Serif" font-size="10.00">src/analysis/physics</text>
<text text-anchor="middle" x="723" y="-91" font-family="Helvetica,sans-Serif" font-size="10.00">/common/MesonDalitzDecays.cc</text>
</a>
</g>
</g>
<!-- Node42&#45;&gt;Node48 -->
<g id="edge6" class="edge"><title>Node42&#45;&gt;Node48</title>
<path fill="none" stroke="midnightblue" d="M1910.58,-168.639C1676.89,-163.26 1030.36,-146.373 819,-120 807.259,-118.535 794.817,-116.391 782.921,-114.046"/>
<polygon fill="midnightblue" stroke="midnightblue" points="1910.65,-172.141 1920.73,-168.871 1910.81,-165.143 1910.65,-172.141"/>
</g>
<!-- Node49 -->
<g id="node8" class="node"><title>Node49</title>
<g id="a_node8"><a xlink:href="_etap_omega_g_8cc.html" target="_top" xlink:title="src/analysis/physics\l/etaprime/EtapOmegaG.cc">
<polygon fill="white" stroke="black" points="828,-84 828,-114 972,-114 972,-84 828,-84"/>
<text text-anchor="start" x="836" y="-102" font-family="Helvetica,sans-Serif" font-size="10.00">src/analysis/physics</text>
<text text-anchor="middle" x="900" y="-91" font-family="Helvetica,sans-Serif" font-size="10.00">/etaprime/EtapOmegaG.cc</text>
</a>
</g>
</g>
<!-- Node42&#45;&gt;Node49 -->
<g id="edge7" class="edge"><title>Node42&#45;&gt;Node49</title>
<path fill="none" stroke="midnightblue" d="M1910.66,-168.367C1700,-162.762 1159.4,-146.214 981,-120 971.112,-118.547 960.669,-116.424 950.69,-114.099"/>
<polygon fill="midnightblue" stroke="midnightblue" points="1910.66,-171.868 1920.75,-168.634 1910.84,-164.871 1910.66,-171.868"/>
</g>
<!-- Node50 -->
<g id="node9" class="node"><title>Node50</title>
<g id="a_node9"><a xlink:href="_etap_omega_g__simple_8cc.html" target="_top" xlink:title="src/analysis/physics\l/etaprime/EtapOmegaG\l_simple.cc">
<polygon fill="white" stroke="black" points="990.5,-78.5 990.5,-119.5 1121.5,-119.5 1121.5,-78.5 990.5,-78.5"/>
<text text-anchor="start" x="998.5" y="-107.5" font-family="Helvetica,sans-Serif" font-size="10.00">src/analysis/physics</text>
<text text-anchor="start" x="998.5" y="-96.5" font-family="Helvetica,sans-Serif" font-size="10.00">/etaprime/EtapOmegaG</text>
<text text-anchor="middle" x="1056" y="-85.5" font-family="Helvetica,sans-Serif" font-size="10.00">_simple.cc</text>
</a>
</g>
</g>
<!-- Node42&#45;&gt;Node50 -->
<g id="edge8" class="edge"><title>Node42&#45;&gt;Node50</title>
<path fill="none" stroke="midnightblue" d="M1910.71,-171.312C1754.69,-171.518 1413.28,-166.037 1130,-120 1127.24,-119.552 1124.44,-119.042 1121.61,-118.485"/>
<polygon fill="midnightblue" stroke="midnightblue" points="1910.73,-174.812 1920.72,-171.29 1910.71,-167.812 1910.73,-174.812"/>
</g>
<!-- Node51 -->
<g id="node10" class="node"><title>Node51</title>
<g id="a_node10"><a xlink:href="etaprime-3pi0_8h.html" target="_top" xlink:title="src/analysis/physics\l/etaprime/etaprime&#45;3pi0.h">
<polygon fill="white" stroke="black" points="1139.5,-84 1139.5,-114 1282.5,-114 1282.5,-84 1139.5,-84"/>
<text text-anchor="start" x="1147.5" y="-102" font-family="Helvetica,sans-Serif" font-size="10.00">src/analysis/physics</text>
<text text-anchor="middle" x="1211" y="-91" font-family="Helvetica,sans-Serif" font-size="10.00">/etaprime/etaprime&#45;3pi0.h</text>
</a>
</g>
</g>
<!-- Node42&#45;&gt;Node51 -->
<g id="edge9" class="edge"><title>Node42&#45;&gt;Node51</title>
<path fill="none" stroke="midnightblue" d="M1910.64,-169.06C1777.66,-165.765 1513.32,-155 1292,-120 1282.27,-118.461 1272,-116.329 1262.15,-114.027"/>
<polygon fill="midnightblue" stroke="midnightblue" points="1910.68,-172.562 1920.76,-169.302 1910.85,-165.564 1910.68,-172.562"/>
</g>
<!-- Node53 -->
<g id="node12" class="node"><title>Node53</title>
<g id="a_node12"><a xlink:href="etaprime__dalitz_8cc.html" target="_top" xlink:title="src/analysis/physics\l/etaprime/etaprime_dalitz.cc">
<polygon fill="white" stroke="black" points="1301,-84 1301,-114 1455,-114 1455,-84 1301,-84"/>
<text text-anchor="start" x="1309" y="-102" font-family="Helvetica,sans-Serif" font-size="10.00">src/analysis/physics</text>
<text text-anchor="middle" x="1378" y="-91" font-family="Helvetica,sans-Serif" font-size="10.00">/etaprime/etaprime_dalitz.cc</text>
</a>
</g>
</g>
<!-- Node42&#45;&gt;Node53 -->
<g id="edge11" class="edge"><title>Node42&#45;&gt;Node53</title>
<path fill="none" stroke="midnightblue" d="M1910.44,-165.914C1804.94,-159.449 1620.41,-145.493 1464,-120 1454.01,-118.372 1443.46,-116.255 1433.3,-114.008"/>
<polygon fill="midnightblue" stroke="midnightblue" points="1910.51,-169.425 1920.71,-166.535 1910.94,-162.438 1910.51,-169.425"/>
</g>
<!-- Node54 -->
<g id="node13" class="node"><title>Node54</title>
<g id="a_node13"><a xlink:href="etaprime__proton_8cc.html" target="_top" xlink:title="src/analysis/physics\l/etaprime/etaprime_proton.cc">
<polygon fill="white" stroke="black" points="1473,-84 1473,-114 1633,-114 1633,-84 1473,-84"/>
<text text-anchor="start" x="1481" y="-102" font-family="Helvetica,sans-Serif" font-size="10.00">src/analysis/physics</text>
<text text-anchor="middle" x="1553" y="-91" font-family="Helvetica,sans-Serif" font-size="10.00">/etaprime/etaprime_proton.cc</text>
</a>
</g>
</g>
<!-- Node42&#45;&gt;Node54 -->
<g id="edge12" class="edge"><title>Node42&#45;&gt;Node54</title>
<path fill="none" stroke="midnightblue" d="M1910.43,-160.226C1838.54,-151.133 1733.23,-136.73 1642,-120 1632.5,-118.257 1622.47,-116.21 1612.71,-114.101"/>
<polygon fill="midnightblue" stroke="midnightblue" points="1910.43,-163.754 1920.79,-161.529 1911.31,-156.808 1910.43,-163.754"/>
</g>
<!-- Node55 -->
<g id="node14" class="node"><title>Node55</title>
<g id="a_node14"><a xlink:href="_find_proton_8cc.html" target="_top" xlink:title="src/analysis/physics\l/omega/FindProton.cc">
<polygon fill="white" stroke="black" points="1651,-84 1651,-114 1771,-114 1771,-84 1651,-84"/>
<text text-anchor="start" x="1659" y="-102" font-family="Helvetica,sans-Serif" font-size="10.00">src/analysis/physics</text>
<text text-anchor="middle" x="1711" y="-91" font-family="Helvetica,sans-Serif" font-size="10.00">/omega/FindProton.cc</text>
</a>
</g>
</g>
<!-- Node42&#45;&gt;Node55 -->
<g id="edge13" class="edge"><title>Node42&#45;&gt;Node55</title>
<path fill="none" stroke="midnightblue" d="M1922.15,-154.243C1880.31,-144.78 1827.08,-132.318 1780,-120 1773,-118.169 1765.63,-116.141 1758.42,-114.099"/>
<polygon fill="midnightblue" stroke="midnightblue" points="1921.46,-157.675 1931.99,-156.459 1923,-150.846 1921.46,-157.675"/>
</g>
<!-- Node56 -->
<g id="node15" class="node"><title>Node56</title>
<g id="a_node15"><a xlink:href="_omega___eta_g_8cc.html" target="_top" xlink:title="src/analysis/physics\l/omega/Omega_EtaG.cc">
<polygon fill="white" stroke="black" points="1789,-84 1789,-114 1923,-114 1923,-84 1789,-84"/>
<text text-anchor="start" x="1797" y="-102" font-family="Helvetica,sans-Serif" font-size="10.00">src/analysis/physics</text>
<text text-anchor="middle" x="1856" y="-91" font-family="Helvetica,sans-Serif" font-size="10.00">/omega/Omega_EtaG.cc</text>
</a>
</g>
</g>
<!-- Node42&#45;&gt;Node56 -->
<g id="edge14" class="edge"><title>Node42&#45;&gt;Node56</title>
<path fill="none" stroke="midnightblue" d="M1959.01,-151.873C1935.48,-140.023 1905.49,-124.922 1883.95,-114.073"/>
<polygon fill="midnightblue" stroke="midnightblue" points="1957.5,-155.031 1968.01,-156.403 1960.65,-148.779 1957.5,-155.031"/>
</g>
<!-- Node57 -->
<g id="node16" class="node"><title>Node57</title>
<g id="a_node16"><a xlink:href="_just_pi0_8cc.html" target="_top" xlink:title="src/analysis/physics\l/pi0/JustPi0.cc">
<polygon fill="white" stroke="black" points="1941,-84 1941,-114 2051,-114 2051,-84 1941,-84"/>
<text text-anchor="start" x="1949" y="-102" font-family="Helvetica,sans-Serif" font-size="10.00">src/analysis/physics</text>
<text text-anchor="middle" x="1996" y="-91" font-family="Helvetica,sans-Serif" font-size="10.00">/pi0/JustPi0.cc</text>
</a>
</g>
</g>
<!-- Node42&#45;&gt;Node57 -->
<g id="edge15" class="edge"><title>Node42&#45;&gt;Node57</title>
<path fill="none" stroke="midnightblue" d="M1996,-146.232C1996,-135.568 1996,-123.414 1996,-114.246"/>
<polygon fill="midnightblue" stroke="midnightblue" points="1992.5,-146.233 1996,-156.233 1999.5,-146.233 1992.5,-146.233"/>
</g>
<!-- Node58 -->
<g id="node17" class="node"><title>Node58</title>
<g id="a_node17"><a xlink:href="_pi0_dalitz_8cc.html" target="_top" xlink:title="src/analysis/physics\l/pi0/Pi0Dalitz.cc">
<polygon fill="white" stroke="black" points="2069,-84 2069,-114 2179,-114 2179,-84 2069,-84"/>
<text text-anchor="start" x="2077" y="-102" font-family="Helvetica,sans-Serif" font-size="10.00">src/analysis/physics</text>
<text text-anchor="middle" x="2124" y="-91" font-family="Helvetica,sans-Serif" font-size="10.00">/pi0/Pi0Dalitz.cc</text>
</a>
</g>
</g>
<!-- Node42&#45;&gt;Node58 -->
<g id="edge16" class="edge"><title>Node42&#45;&gt;Node58</title>
<path fill="none" stroke="midnightblue" d="M2030.39,-151.558C2051.82,-139.756 2078.93,-124.826 2098.45,-114.073"/>
<polygon fill="midnightblue" stroke="midnightblue" points="2028.67,-148.512 2021.6,-156.403 2032.04,-154.644 2028.67,-148.512"/>
</g>
<!-- Node59 -->
<g id="node18" class="node"><title>Node59</title>
<g id="a_node18"><a xlink:href="sigma_plus_8h.html" target="_top" xlink:title="src/analysis/physics\l/production/sigmaPlus.h">
<polygon fill="white" stroke="black" points="2197.5,-84 2197.5,-114 2328.5,-114 2328.5,-84 2197.5,-84"/>
<text text-anchor="start" x="2205.5" y="-102" font-family="Helvetica,sans-Serif" font-size="10.00">src/analysis/physics</text>
<text text-anchor="middle" x="2263" y="-91" font-family="Helvetica,sans-Serif" font-size="10.00">/production/sigmaPlus.h</text>
</a>
</g>
</g>
<!-- Node42&#45;&gt;Node59 -->
<g id="edge17" class="edge"><title>Node42&#45;&gt;Node59</title>
<path fill="none" stroke="midnightblue" d="M2059.56,-153.839C2096.97,-144.022 2145.18,-131.34 2188,-120 2195.29,-118.068 2202.99,-116.024 2210.55,-114.01"/>
<polygon fill="midnightblue" stroke="midnightblue" points="2058.59,-150.476 2049.81,-156.4 2060.37,-157.247 2058.59,-150.476"/>
</g>
<!-- Node62 -->
<g id="node21" class="node"><title>Node62</title>
<g id="a_node21"><a xlink:href="single_pi0_8h.html" target="_top" xlink:title="src/analysis/physics\l/production/singlePi0.h">
<polygon fill="white" stroke="black" points="2385.5,-84 2385.5,-114 2510.5,-114 2510.5,-84 2385.5,-84"/>
<text text-anchor="start" x="2393.5" y="-102" font-family="Helvetica,sans-Serif" font-size="10.00">src/analysis/physics</text>
<text text-anchor="middle" x="2448" y="-91" font-family="Helvetica,sans-Serif" font-size="10.00">/production/singlePi0.h</text>
</a>
</g>
</g>
<!-- Node42&#45;&gt;Node62 -->
<g id="edge20" class="edge"><title>Node42&#45;&gt;Node62</title>
<path fill="none" stroke="midnightblue" d="M2081.18,-161.984C2157.5,-153.653 2272.3,-139.392 2371,-120 2379.54,-118.323 2388.54,-116.26 2397.25,-114.102"/>
<polygon fill="midnightblue" stroke="midnightblue" points="2080.71,-158.515 2071.14,-163.07 2081.46,-165.474 2080.71,-158.515"/>
</g>
<!-- Node63 -->
<g id="node22" class="node"><title>Node63</title>
<g id="a_node22"><a xlink:href="single_pi0_8cc.html" target="_top" xlink:title="src/analysis/physics\l/production/singlePi0.cc">
<polygon fill="white" stroke="black" points="2258.5,-6 2258.5,-36 2387.5,-36 2387.5,-6 2258.5,-6"/>
<text text-anchor="start" x="2266.5" y="-24" font-family="Helvetica,sans-Serif" font-size="10.00">src/analysis/physics</text>
<text text-anchor="middle" x="2323" y="-13" font-family="Helvetica,sans-Serif" font-size="10.00">/production/singlePi0.cc</text>
</a>
</g>
</g>
<!-- Node42&#45;&gt;Node63 -->
<g id="edge23" class="edge"><title>Node42&#45;&gt;Node63</title>
<path fill="none" stroke="midnightblue" d="M2081.4,-170.092C2171.42,-167.631 2304.63,-157.522 2337,-120 2357.32,-96.4473 2341.91,-57.2101 2331.13,-36.241"/>
<polygon fill="midnightblue" stroke="midnightblue" points="2081.1,-166.598 2071.19,-170.343 2081.27,-173.596 2081.1,-166.598"/>
</g>
<!-- Node65 -->
<g id="node24" class="node"><title>Node65</title>
<g id="a_node24"><a xlink:href="triple_pi0_8h.html" target="_top" xlink:title="src/analysis/physics\l/production/triplePi0.h">
<polygon fill="white" stroke="black" points="2528.5,-84 2528.5,-114 2649.5,-114 2649.5,-84 2528.5,-84"/>
<text text-anchor="start" x="2536.5" y="-102" font-family="Helvetica,sans-Serif" font-size="10.00">src/analysis/physics</text>
<text text-anchor="middle" x="2589" y="-91" font-family="Helvetica,sans-Serif" font-size="10.00">/production/triplePi0.h</text>
</a>
</g>
</g>
<!-- Node42&#45;&gt;Node65 -->
<g id="edge24" class="edge"><title>Node42&#45;&gt;Node65</title>
<path fill="none" stroke="midnightblue" d="M2081.23,-167.038C2185.3,-161.718 2366.34,-148.929 2519,-120 2527.32,-118.423 2536.08,-116.302 2544.48,-114.029"/>
<polygon fill="midnightblue" stroke="midnightblue" points="2080.9,-163.55 2071.09,-167.545 2081.25,-170.541 2080.9,-163.55"/>
</g>
<!-- Node69 -->
<g id="node28" class="node"><title>Node69</title>
<g id="a_node28"><a xlink:href="gp__pi0[2g]p_8cc.html" target="_top" xlink:title="src/analysis/physics\l/scratch/collicott/gp\l_pi0[2g]p.cc">
<polygon fill="white" stroke="black" points="2668,-78.5 2668,-119.5 2778,-119.5 2778,-78.5 2668,-78.5"/>
<text text-anchor="start" x="2676" y="-107.5" font-family="Helvetica,sans-Serif" font-size="10.00">src/analysis/physics</text>
<text text-anchor="start" x="2676" y="-96.5" font-family="Helvetica,sans-Serif" font-size="10.00">/scratch/collicott/gp</text>
<text text-anchor="middle" x="2723" y="-85.5" font-family="Helvetica,sans-Serif" font-size="10.00">_pi0[2g]p.cc</text>
</a>
</g>
</g>
<!-- Node42&#45;&gt;Node69 -->
<g id="edge28" class="edge"><title>Node42&#45;&gt;Node69</title>
<path fill="none" stroke="midnightblue" d="M2081.36,-170.156C2208.4,-168.261 2454.24,-159.263 2659,-120 2661.86,-119.452 2664.77,-118.82 2667.69,-118.126"/>
<polygon fill="midnightblue" stroke="midnightblue" points="2081.25,-166.657 2071.3,-170.295 2081.35,-173.656 2081.25,-166.657"/>
</g>
<!-- Node70 -->
<g id="node29" class="node"><title>Node70</title>
<g id="a_node29"><a xlink:href="checktagger_8cc.html" target="_top" xlink:title="src/analysis/physics\l/scratch/lheijken/checktagger.cc">
<polygon fill="white" stroke="black" points="2796.5,-84 2796.5,-114 2965.5,-114 2965.5,-84 2796.5,-84"/>
<text text-anchor="start" x="2804.5" y="-102" font-family="Helvetica,sans-Serif" font-size="10.00">src/analysis/physics</text>
<text text-anchor="middle" x="2881" y="-91" font-family="Helvetica,sans-Serif" font-size="10.00">/scratch/lheijken/checktagger.cc</text>
</a>
</g>
</g>
<!-- Node42&#45;&gt;Node70 -->
<g id="edge29" class="edge"><title>Node42&#45;&gt;Node70</title>
<path fill="none" stroke="midnightblue" d="M2081.26,-169.127C2226.68,-165.878 2531.73,-155.114 2787,-120 2798.24,-118.454 2810.14,-116.318 2821.56,-114.015"/>
<polygon fill="midnightblue" stroke="midnightblue" points="2080.99,-165.632 2071.07,-169.349 2081.14,-172.631 2080.99,-165.632"/>
</g>
<!-- Node71 -->
<g id="node30" class="node"><title>Node71</title>
<g id="a_node30"><a xlink:href="gp__pi0p_8cc.html" target="_top" xlink:title="src/analysis/physics\l/scratch/lheijken/gp\l_pi0p.cc">
<polygon fill="white" stroke="black" points="2984,-78.5 2984,-119.5 3094,-119.5 3094,-78.5 2984,-78.5"/>
<text text-anchor="start" x="2992" y="-107.5" font-family="Helvetica,sans-Serif" font-size="10.00">src/analysis/physics</text>
<text text-anchor="start" x="2992" y="-96.5" font-family="Helvetica,sans-Serif" font-size="10.00">/scratch/lheijken/gp</text>
<text text-anchor="middle" x="3039" y="-85.5" font-family="Helvetica,sans-Serif" font-size="10.00">_pi0p.cc</text>
</a>
</g>
</g>
<!-- Node42&#45;&gt;Node71 -->
<g id="edge30" class="edge"><title>Node42&#45;&gt;Node71</title>
<path fill="none" stroke="midnightblue" d="M2081.31,-168.847C2286.76,-164.424 2804.59,-150.518 2975,-120 2977.86,-119.487 2980.78,-118.883 2983.71,-118.212"/>
<polygon fill="midnightblue" stroke="midnightblue" points="2081.1,-165.351 2071.17,-169.063 2081.24,-172.349 2081.1,-165.351"/>
</g>
<!-- Node72 -->
<g id="node31" class="node"><title>Node72</title>
<g id="a_node31"><a xlink:href="_etap_dalitz_m_c_8cc.html" target="_top" xlink:title="src/analysis/physics\l/scratch/wagner/EtapDalitzMC.cc">
<polygon fill="white" stroke="black" points="3112.5,-84 3112.5,-114 3285.5,-114 3285.5,-84 3112.5,-84"/>
<text text-anchor="start" x="3120.5" y="-102" font-family="Helvetica,sans-Serif" font-size="10.00">src/analysis/physics</text>
<text text-anchor="middle" x="3199" y="-91" font-family="Helvetica,sans-Serif" font-size="10.00">/scratch/wagner/EtapDalitzMC.cc</text>
</a>
</g>
</g>
<!-- Node42&#45;&gt;Node72 -->
<g id="edge31" class="edge"><title>Node42&#45;&gt;Node72</title>
<path fill="none" stroke="midnightblue" d="M2081.46,-171.237C2267.81,-171.829 2724.35,-167.768 3103,-120 3114.74,-118.519 3127.18,-116.368 3139.08,-114.02"/>
<polygon fill="midnightblue" stroke="midnightblue" points="2081.2,-167.736 2071.19,-171.198 2081.17,-174.736 2081.2,-167.736"/>
</g>
<!-- Node73 -->
<g id="node32" class="node"><title>Node73</title>
<g id="a_node32"><a xlink:href="analysis_2physics_2tunings_2_interpolated_pulls_8cc.html" target="_top" xlink:title="src/analysis/physics\l/tunings/InterpolatedPulls.cc">
<polygon fill="white" stroke="black" points="3303.5,-84 3303.5,-114 3454.5,-114 3454.5,-84 3303.5,-84"/>
<text text-anchor="start" x="3311.5" y="-102" font-family="Helvetica,sans-Serif" font-size="10.00">src/analysis/physics</text>
<text text-anchor="middle" x="3379" y="-91" font-family="Helvetica,sans-Serif" font-size="10.00">/tunings/InterpolatedPulls.cc</text>
</a>
</g>
</g>
<!-- Node42&#45;&gt;Node73 -->
<g id="edge32" class="edge"><title>Node42&#45;&gt;Node73</title>
<path fill="none" stroke="midnightblue" d="M2081.49,-169.351C2331.65,-165.643 3059.43,-152.308 3295,-120 3305.4,-118.574 3316.39,-116.433 3326.87,-114.074"/>
<polygon fill="midnightblue" stroke="midnightblue" points="2081.31,-165.853 2071.36,-169.5 2081.41,-172.852 2081.31,-165.853"/>
</g>
<!-- Node74 -->
<g id="node33" class="node"><title>Node74</title>
<g id="a_node33"><a xlink:href="physics_2tunings_2_trigger_simulation_8cc.html" target="_top" xlink:title="src/analysis/physics\l/tunings/TriggerSimulation.cc">
<polygon fill="white" stroke="black" points="3473,-84 3473,-114 3627,-114 3627,-84 3473,-84"/>
<text text-anchor="start" x="3481" y="-102" font-family="Helvetica,sans-Serif" font-size="10.00">src/analysis/physics</text>
<text text-anchor="middle" x="3550" y="-91" font-family="Helvetica,sans-Serif" font-size="10.00">/tunings/TriggerSimulation.cc</text>
</a>
</g>
</g>
<!-- Node42&#45;&gt;Node74 -->
<g id="edge33" class="edge"><title>Node42&#45;&gt;Node74</title>
<path fill="none" stroke="midnightblue" d="M2081.61,-169.737C2353.32,-166.971 3194.12,-155.68 3464,-120 3474.79,-118.574 3486.21,-116.4 3497.08,-114.003"/>
<polygon fill="midnightblue" stroke="midnightblue" points="2081.38,-166.239 2071.42,-169.839 2081.45,-173.239 2081.38,-166.239"/>
</g>
<!-- Node75 -->
<g id="node34" class="node"><title>Node75</title>
<g id="a_node34"><a xlink:href="_fitter_sergey_8cc.html" target="_top" xlink:title="src/analysis/utils\l/uncertainties/FitterSergey.cc">
<polygon fill="white" stroke="black" points="3645.5,-84 3645.5,-114 3800.5,-114 3800.5,-84 3645.5,-84"/>
<text text-anchor="start" x="3653.5" y="-102" font-family="Helvetica,sans-Serif" font-size="10.00">src/analysis/utils</text>
<text text-anchor="middle" x="3723" y="-91" font-family="Helvetica,sans-Serif" font-size="10.00">/uncertainties/FitterSergey.cc</text>
</a>
</g>
</g>
<!-- Node42&#45;&gt;Node75 -->
<g id="edge34" class="edge"><title>Node42&#45;&gt;Node75</title>
<path fill="none" stroke="midnightblue" d="M2081.5,-170.07C2373.65,-168.254 3330.97,-159.373 3636,-120 3646.91,-118.591 3658.46,-116.426 3669.46,-114.031"/>
<polygon fill="midnightblue" stroke="midnightblue" points="2081.37,-166.57 2071.39,-170.131 2081.41,-173.57 2081.37,-166.57"/>
</g>
<!-- Node44 -->
<g id="node3" class="node"><title>Node44</title>
<g id="a_node3"><a xlink:href="analysis_2physics_2calibration_2_p_i_d___energy_8cc.html" target="_top" xlink:title="src/analysis/physics\l/calibration/PID_Energy.cc">
<polygon fill="white" stroke="black" points="0,-6 0,-36 138,-36 138,-6 0,-6"/>
<text text-anchor="start" x="8" y="-24" font-family="Helvetica,sans-Serif" font-size="10.00">src/analysis/physics</text>
<text text-anchor="middle" x="69" y="-13" font-family="Helvetica,sans-Serif" font-size="10.00">/calibration/PID_Energy.cc</text>
</a>
</g>
</g>
<!-- Node43&#45;&gt;Node44 -->
<g id="edge2" class="edge"><title>Node43&#45;&gt;Node44</title>
<path fill="none" stroke="midnightblue" d="M69,-73.5898C69,-61.2565 69,-46.7237 69,-36.2309"/>
<polygon fill="midnightblue" stroke="midnightblue" points="65.5001,-73.7049 69,-83.705 72.5001,-73.705 65.5001,-73.7049"/>
</g>
<!-- Node52 -->
<g id="node11" class="node"><title>Node52</title>
<g id="a_node11"><a xlink:href="etaprime-3pi0_8cc.html" target="_top" xlink:title="src/analysis/physics\l/etaprime/etaprime&#45;3pi0.cc">
<polygon fill="white" stroke="black" points="1137.5,-6 1137.5,-36 1284.5,-36 1284.5,-6 1137.5,-6"/>
<text text-anchor="start" x="1145.5" y="-24" font-family="Helvetica,sans-Serif" font-size="10.00">src/analysis/physics</text>
<text text-anchor="middle" x="1211" y="-13" font-family="Helvetica,sans-Serif" font-size="10.00">/etaprime/etaprime&#45;3pi0.cc</text>
</a>
</g>
</g>
<!-- Node51&#45;&gt;Node52 -->
<g id="edge10" class="edge"><title>Node51&#45;&gt;Node52</title>
<path fill="none" stroke="midnightblue" d="M1211,-73.5898C1211,-61.2565 1211,-46.7237 1211,-36.2309"/>
<polygon fill="midnightblue" stroke="midnightblue" points="1207.5,-73.7049 1211,-83.705 1214.5,-73.705 1207.5,-73.7049"/>
</g>
<!-- Node60 -->
<g id="node19" class="node"><title>Node60</title>
<g id="a_node19"><a xlink:href="sigma_plus_8cc.html" target="_top" xlink:title="src/analysis/physics\l/production/sigmaPlus.cc">
<polygon fill="white" stroke="black" points="1927,-6 1927,-36 2063,-36 2063,-6 1927,-6"/>
<text text-anchor="start" x="1935" y="-24" font-family="Helvetica,sans-Serif" font-size="10.00">src/analysis/physics</text>
<text text-anchor="middle" x="1995" y="-13" font-family="Helvetica,sans-Serif" font-size="10.00">/production/sigmaPlus.cc</text>
</a>
</g>
</g>
<!-- Node59&#45;&gt;Node60 -->
<g id="edge18" class="edge"><title>Node59&#45;&gt;Node60</title>
<path fill="none" stroke="midnightblue" d="M2203.64,-81.1666C2155.9,-67.6271 2089.59,-48.8231 2044.63,-36.0749"/>
<polygon fill="midnightblue" stroke="midnightblue" points="2202.96,-84.6108 2213.53,-83.9719 2204.87,-77.8763 2202.96,-84.6108"/>
</g>
<!-- Node61 -->
<g id="node20" class="node"><title>Node61</title>
<g id="a_node20"><a xlink:href="sigma_plus_plots_8cc.html" target="_top" xlink:title="src/analysis/physics\l/production/sigmaPlusPlots.cc">
<polygon fill="white" stroke="black" points="2081.5,-6 2081.5,-36 2240.5,-36 2240.5,-6 2081.5,-6"/>
<text text-anchor="start" x="2089.5" y="-24" font-family="Helvetica,sans-Serif" font-size="10.00">src/analysis/physics</text>
<text text-anchor="middle" x="2161" y="-13" font-family="Helvetica,sans-Serif" font-size="10.00">/production/sigmaPlusPlots.cc</text>
</a>
</g>
</g>
<!-- Node59&#45;&gt;Node61 -->
<g id="edge19" class="edge"><title>Node59&#45;&gt;Node61</title>
<path fill="none" stroke="midnightblue" d="M2235.64,-77.6108C2218.09,-64.5359 2195.75,-47.8895 2180.1,-36.2309"/>
<polygon fill="midnightblue" stroke="midnightblue" points="2233.7,-80.5367 2243.81,-83.705 2237.89,-74.9235 2233.7,-80.5367"/>
</g>
<!-- Node62&#45;&gt;Node63 -->
<g id="edge21" class="edge"><title>Node62&#45;&gt;Node63</title>
<path fill="none" stroke="midnightblue" d="M2416.17,-78.6444C2394.3,-65.3533 2365.79,-48.0166 2346.09,-36.0413"/>
<polygon fill="midnightblue" stroke="midnightblue" points="2414.42,-81.6785 2424.78,-83.8831 2418.06,-75.6973 2414.42,-81.6785"/>
</g>
<!-- Node64 -->
<g id="node23" class="node"><title>Node64</title>
<g id="a_node23"><a xlink:href="single_pi0_plots_8cc.html" target="_top" xlink:title="src/analysis/physics\l/production/singlePi0Plots.cc">
<polygon fill="white" stroke="black" points="2406,-6 2406,-36 2558,-36 2558,-6 2406,-6"/>
<text text-anchor="start" x="2414" y="-24" font-family="Helvetica,sans-Serif" font-size="10.00">src/analysis/physics</text>
<text text-anchor="middle" x="2482" y="-13" font-family="Helvetica,sans-Serif" font-size="10.00">/production/singlePi0Plots.cc</text>
</a>
</g>
</g>
<!-- Node62&#45;&gt;Node64 -->
<g id="edge22" class="edge"><title>Node62&#45;&gt;Node64</title>
<path fill="none" stroke="midnightblue" d="M2458.59,-74.3345C2464.17,-61.8454 2470.84,-46.9356 2475.63,-36.2309"/>
<polygon fill="midnightblue" stroke="midnightblue" points="2455.28,-73.1475 2454.4,-83.705 2461.67,-76.0061 2455.28,-73.1475"/>
</g>
<!-- Node66 -->
<g id="node25" class="node"><title>Node66</title>
<g id="a_node25"><a xlink:href="triple_pi0_8cc.html" target="_top" xlink:title="src/analysis/physics\l/production/triplePi0.cc">
<polygon fill="white" stroke="black" points="2576.5,-6 2576.5,-36 2701.5,-36 2701.5,-6 2576.5,-6"/>
<text text-anchor="start" x="2584.5" y="-24" font-family="Helvetica,sans-Serif" font-size="10.00">src/analysis/physics</text>
<text text-anchor="middle" x="2639" y="-13" font-family="Helvetica,sans-Serif" font-size="10.00">/production/triplePi0.cc</text>
</a>
</g>
</g>
<!-- Node65&#45;&gt;Node66 -->
<g id="edge25" class="edge"><title>Node65&#45;&gt;Node66</title>
<path fill="none" stroke="midnightblue" d="M2604.08,-75.0735C2612.4,-62.4375 2622.46,-47.1476 2629.64,-36.2309"/>
<polygon fill="midnightblue" stroke="midnightblue" points="2600.98,-73.4271 2598.4,-83.705 2606.82,-77.2745 2600.98,-73.4271"/>
</g>
<!-- Node67 -->
<g id="node26" class="node"><title>Node67</title>
<g id="a_node26"><a xlink:href="triple_pi0_plots_8cc.html" target="_top" xlink:title="src/analysis/physics\l/production/triplePi0Plots.cc">
<polygon fill="white" stroke="black" points="2719.5,-6 2719.5,-36 2868.5,-36 2868.5,-6 2719.5,-6"/>
<text text-anchor="start" x="2727.5" y="-24" font-family="Helvetica,sans-Serif" font-size="10.00">src/analysis/physics</text>
<text text-anchor="middle" x="2794" y="-13" font-family="Helvetica,sans-Serif" font-size="10.00">/production/triplePi0Plots.cc</text>
</a>
</g>
</g>
<!-- Node65&#45;&gt;Node67 -->
<g id="edge26" class="edge"><title>Node65&#45;&gt;Node67</title>
<path fill="none" stroke="midnightblue" d="M2636.5,-80.3918C2672.87,-66.9049 2722.39,-48.5488 2756.13,-36.0413"/>
<polygon fill="midnightblue" stroke="midnightblue" points="2635.24,-77.1252 2627.08,-83.8831 2637.67,-83.6886 2635.24,-77.1252"/>
</g>
<!-- Node68 -->
<g id="node27" class="node"><title>Node68</title>
<g id="a_node27"><a xlink:href="_proton_vertex_test_8cc.html" target="_top" xlink:title="src/analysis/physics\l/scratch/wolfes/ProtonVertex\lTest.cc">
<polygon fill="white" stroke="black" points="2887,-0.5 2887,-41.5 3039,-41.5 3039,-0.5 2887,-0.5"/>
<text text-anchor="start" x="2895" y="-29.5" font-family="Helvetica,sans-Serif" font-size="10.00">src/analysis/physics</text>
<text text-anchor="start" x="2895" y="-18.5" font-family="Helvetica,sans-Serif" font-size="10.00">/scratch/wolfes/ProtonVertex</text>
<text text-anchor="middle" x="2963" y="-7.5" font-family="Helvetica,sans-Serif" font-size="10.00">Test.cc</text>
</a>
</g>
</g>
<!-- Node65&#45;&gt;Node68 -->
<g id="edge27" class="edge"><title>Node65&#45;&gt;Node68</title>
<path fill="none" stroke="midnightblue" d="M2645.46,-81.266C2650.02,-80.0972 2654.58,-78.9914 2659,-78 2755.25,-56.4149 2781.27,-61.3074 2878,-42 2880.82,-41.4362 2883.7,-40.8459 2886.6,-40.2362"/>
<polygon fill="midnightblue" stroke="midnightblue" points="2644.27,-77.9609 2635.5,-83.9054 2646.06,-84.7274 2644.27,-77.9609"/>
</g>
</g>
</svg>
