<?xml version="1.0" encoding="UTF-8" standalone="no"?>
<!DOCTYPE svg PUBLIC "-//W3C//DTD SVG 1.1//EN"
 "http://www.w3.org/Graphics/SVG/1.1/DTD/svg11.dtd">
<!-- Generated by graphviz version 2.38.0 (20140413.2041)
 -->
<!-- Title: src/base/Interpolator.h Pages: 1 -->
<svg width="3048pt" height="307pt"
 viewBox="0.00 0.00 3048.00 307.00" xmlns="http://www.w3.org/2000/svg" xmlns:xlink="http://www.w3.org/1999/xlink">
<g id="graph0" class="graph" transform="scale(1 1) rotate(0) translate(4 303)">
<title>src/base/Interpolator.h</title>
<polygon fill="white" stroke="none" points="-4,4 -4,-303 3044,-303 3044,4 -4,4"/>
<!-- Node12 -->
<g id="node1" class="node"><title>Node12</title>
<polygon fill="#bfbfbf" stroke="black" points="1390,-279.5 1390,-298.5 1514,-298.5 1514,-279.5 1390,-279.5"/>
<text text-anchor="middle" x="1452" y="-286.5" font-family="Helvetica,sans-Serif" font-size="10.00">src/base/Interpolator.h</text>
</g>
<!-- Node13 -->
<g id="node2" class="node"><title>Node13</title>
<g id="a_node2"><a xlink:href="_interpolated_8cc.html" target="_top" xlink:title="src/analysis/utils\l/uncertainties/Interpolated.cc">
<polygon fill="white" stroke="black" points="0,-73 0,-103 156,-103 156,-73 0,-73"/>
<text text-anchor="start" x="8" y="-91" font-family="Helvetica,sans-Serif" font-size="10.00">src/analysis/utils</text>
<text text-anchor="middle" x="78" y="-80" font-family="Helvetica,sans-Serif" font-size="10.00">/uncertainties/Interpolated.cc</text>
</a>
</g>
</g>
<!-- Node12&#45;&gt;Node13 -->
<g id="edge1" class="edge"><title>Node12&#45;&gt;Node13</title>
<path fill="none" stroke="midnightblue" d="M1379.88,-283.575C1211.48,-272.497 779.652,-239.774 424,-176 315.784,-156.595 191.295,-122.274 125.123,-103.051"/>
<polygon fill="midnightblue" stroke="midnightblue" points="1379.67,-287.068 1389.87,-284.227 1380.12,-280.083 1379.67,-287.068"/>
</g>
<!-- Node14 -->
<g id="node3" class="node"><title>Node14</title>
<g id="a_node3"><a xlink:href="_clipped_interpolator_wrapper_8h.html" target="_top" xlink:title="src/base/ClippedInterpolator\lWrapper.h">
<polygon fill="white" stroke="black" points="1297.5,-212.5 1297.5,-242.5 1448.5,-242.5 1448.5,-212.5 1297.5,-212.5"/>
<text text-anchor="start" x="1305.5" y="-230.5" font-family="Helvetica,sans-Serif" font-size="10.00">src/base/ClippedInterpolator</text>
<text text-anchor="middle" x="1373" y="-219.5" font-family="Helvetica,sans-Serif" font-size="10.00">Wrapper.h</text>
</a>
</g>
</g>
<!-- Node12&#45;&gt;Node14 -->
<g id="edge2" class="edge"><title>Node12&#45;&gt;Node14</title>
<path fill="none" stroke="midnightblue" d="M1432.34,-273.195C1419.89,-263.813 1403.87,-251.751 1391.62,-242.523"/>
<polygon fill="midnightblue" stroke="midnightblue" points="1430.59,-276.255 1440.68,-279.475 1434.8,-270.663 1430.59,-276.255"/>
</g>
<!-- Node37 -->
<g id="node26" class="node"><title>Node37</title>
<g id="a_node26"><a xlink:href="_interpolator_8cc.html" target="_top" xlink:title="src/base/Interpolator.cc">
<polygon fill="white" stroke="black" points="1467,-218 1467,-237 1595,-237 1595,-218 1467,-218"/>
<text text-anchor="middle" x="1531" y="-225" font-family="Helvetica,sans-Serif" font-size="10.00">src/base/Interpolator.cc</text>
</a>
</g>
</g>
<!-- Node12&#45;&gt;Node37 -->
<g id="edge27" class="edge"><title>Node12&#45;&gt;Node37</title>
<path fill="none" stroke="midnightblue" d="M1471.53,-273.294C1486.68,-261.88 1507.16,-246.458 1519.7,-237.009"/>
<polygon fill="midnightblue" stroke="midnightblue" points="1469.2,-270.663 1463.32,-279.475 1473.41,-276.255 1469.2,-270.663"/>
</g>
<!-- Node38 -->
<g id="node27" class="node"><title>Node38</title>
<g id="a_node27"><a xlink:href="_test_interpolator_8cc.html" target="_top" xlink:title="test/base/TestInterpolator.cc">
<polygon fill="white" stroke="black" points="1613,-218 1613,-237 1765,-237 1765,-218 1613,-218"/>
<text text-anchor="middle" x="1689" y="-225" font-family="Helvetica,sans-Serif" font-size="10.00">test/base/TestInterpolator.cc</text>
</a>
</g>
</g>
<!-- Node12&#45;&gt;Node38 -->
<g id="edge28" class="edge"><title>Node12&#45;&gt;Node38</title>
<path fill="none" stroke="midnightblue" d="M1495.94,-276.968C1541.96,-265.415 1613.25,-247.517 1655.11,-237.009"/>
<polygon fill="midnightblue" stroke="midnightblue" points="1494.8,-273.645 1485.96,-279.475 1496.51,-280.435 1494.8,-273.645"/>
</g>
<!-- Node14&#45;&gt;Node13 -->
<g id="edge24" class="edge"><title>Node14&#45;&gt;Node13</title>
<path fill="none" stroke="midnightblue" d="M1287.22,-221.968C1088.72,-210.652 582.778,-177.047 165,-109 155.057,-107.381 144.555,-105.294 134.418,-103.082"/>
<polygon fill="midnightblue" stroke="midnightblue" points="1287.11,-225.468 1297.29,-222.538 1287.51,-218.479 1287.11,-225.468"/>
</g>
<!-- Node15 -->
<g id="node4" class="node"><title>Node15</title>
<g id="a_node4"><a xlink:href="_interpolated_8h.html" target="_top" xlink:title="src/analysis/utils\l/uncertainties/Interpolated.h">
<polygon fill="white" stroke="black" points="1297,-145.5 1297,-175.5 1449,-175.5 1449,-145.5 1297,-145.5"/>
<text text-anchor="start" x="1305" y="-163.5" font-family="Helvetica,sans-Serif" font-size="10.00">src/analysis/utils</text>
<text text-anchor="middle" x="1373" y="-152.5" font-family="Helvetica,sans-Serif" font-size="10.00">/uncertainties/Interpolated.h</text>
</a>
</g>
</g>
<!-- Node14&#45;&gt;Node15 -->
<g id="edge3" class="edge"><title>Node14&#45;&gt;Node15</title>
<path fill="none" stroke="midnightblue" d="M1373,-202.108C1373,-193.154 1373,-183.323 1373,-175.577"/>
<polygon fill="midnightblue" stroke="midnightblue" points="1369.5,-202.396 1373,-212.396 1376.5,-202.396 1369.5,-202.396"/>
</g>
<!-- Node35 -->
<g id="node24" class="node"><title>Node35</title>
<g id="a_node24"><a xlink:href="_clipped_interpolator_wrapper_8cc.html" target="_top" xlink:title="src/base/ClippedInterpolator\lWrapper.cc">
<polygon fill="white" stroke="black" points="1467.5,-145.5 1467.5,-175.5 1618.5,-175.5 1618.5,-145.5 1467.5,-145.5"/>
<text text-anchor="start" x="1475.5" y="-163.5" font-family="Helvetica,sans-Serif" font-size="10.00">src/base/ClippedInterpolator</text>
<text text-anchor="middle" x="1543" y="-152.5" font-family="Helvetica,sans-Serif" font-size="10.00">Wrapper.cc</text>
</a>
</g>
</g>
<!-- Node14&#45;&gt;Node35 -->
<g id="edge25" class="edge"><title>Node14&#45;&gt;Node35</title>
<path fill="none" stroke="midnightblue" d="M1419.24,-208.819C1446.57,-198.371 1480.69,-185.323 1506.18,-175.577"/>
<polygon fill="midnightblue" stroke="midnightblue" points="1417.98,-205.555 1409.89,-212.396 1420.48,-212.094 1417.98,-205.555"/>
</g>
<!-- Node36 -->
<g id="node25" class="node"><title>Node36</title>
<g id="a_node25"><a xlink:href="_cluster_correction_8cc.html" target="_top" xlink:title="src/calibration/modules\l/ClusterCorrection.cc">
<polygon fill="white" stroke="black" points="1637,-145.5 1637,-175.5 1765,-175.5 1765,-145.5 1637,-145.5"/>
<text text-anchor="start" x="1645" y="-163.5" font-family="Helvetica,sans-Serif" font-size="10.00">src/calibration/modules</text>
<text text-anchor="middle" x="1701" y="-152.5" font-family="Helvetica,sans-Serif" font-size="10.00">/ClusterCorrection.cc</text>
</a>
</g>
</g>
<!-- Node14&#45;&gt;Node36 -->
<g id="edge26" class="edge"><title>Node14&#45;&gt;Node36</title>
<path fill="none" stroke="midnightblue" d="M1453.72,-210.527C1503.88,-200.598 1569.69,-187.565 1628,-176 1630.92,-175.422 1633.9,-174.831 1636.91,-174.233"/>
<polygon fill="midnightblue" stroke="midnightblue" points="1453.03,-207.095 1443.9,-212.47 1454.39,-213.962 1453.03,-207.095"/>
</g>
<!-- Node15&#45;&gt;Node13 -->
<g id="edge22" class="edge"><title>Node15&#45;&gt;Node13</title>
<path fill="none" stroke="midnightblue" d="M1286.49,-156.096C1014.45,-145.367 192.759,-112.738 165,-109 154.248,-107.552 142.872,-105.401 132.016,-103.039"/>
<polygon fill="midnightblue" stroke="midnightblue" points="1286.57,-159.603 1296.7,-156.499 1286.85,-152.608 1286.57,-159.603"/>
</g>
<!-- Node16 -->
<g id="node5" class="node"><title>Node16</title>
<g id="a_node5"><a xlink:href="_p_i_d___t_a_p_s_veto___kinfit_8cc.html" target="_top" xlink:title="src/analysis/physics\l/calibration/PID_TAPSVeto\l_Kinfit.cc">
<polygon fill="white" stroke="black" points="174.5,-67.5 174.5,-108.5 313.5,-108.5 313.5,-67.5 174.5,-67.5"/>
<text text-anchor="start" x="182.5" y="-96.5" font-family="Helvetica,sans-Serif" font-size="10.00">src/analysis/physics</text>
<text text-anchor="start" x="182.5" y="-85.5" font-family="Helvetica,sans-Serif" font-size="10.00">/calibration/PID_TAPSVeto</text>
<text text-anchor="middle" x="244" y="-74.5" font-family="Helvetica,sans-Serif" font-size="10.00">_Kinfit.cc</text>
</a>
</g>
</g>
<!-- Node15&#45;&gt;Node16 -->
<g id="edge4" class="edge"><title>Node15&#45;&gt;Node16</title>
<path fill="none" stroke="midnightblue" d="M1286.73,-155.821C1044.1,-145.413 370.296,-116.052 323,-109 319.921,-108.541 316.789,-108.013 313.634,-107.432"/>
<polygon fill="midnightblue" stroke="midnightblue" points="1286.78,-159.326 1296.92,-156.258 1287.08,-152.333 1286.78,-159.326"/>
</g>
<!-- Node17 -->
<g id="node6" class="node"><title>Node17</title>
<g id="a_node6"><a xlink:href="_kin_fit_i_m_check_8cc.html" target="_top" xlink:title="src/analysis/physics\l/check/KinFitIMCheck.cc">
<polygon fill="white" stroke="black" points="332,-73 332,-103 460,-103 460,-73 332,-73"/>
<text text-anchor="start" x="340" y="-91" font-family="Helvetica,sans-Serif" font-size="10.00">src/analysis/physics</text>
<text text-anchor="middle" x="396" y="-80" font-family="Helvetica,sans-Serif" font-size="10.00">/check/KinFitIMCheck.cc</text>
</a>
</g>
</g>
<!-- Node15&#45;&gt;Node17 -->
<g id="edge5" class="edge"><title>Node15&#45;&gt;Node17</title>
<path fill="none" stroke="midnightblue" d="M1286.63,-155.696C1076.34,-146.286 549.117,-121.761 470,-109 460.935,-107.538 451.38,-105.411 442.259,-103.084"/>
<polygon fill="midnightblue" stroke="midnightblue" points="1286.56,-159.196 1296.71,-156.146 1286.87,-152.203 1286.56,-159.196"/>
</g>
<!-- Node18 -->
<g id="node7" class="node"><title>Node18</title>
<g id="a_node7"><a xlink:href="_p_i_d_efficiency_check_8cc.html" target="_top" xlink:title="src/analysis/physics\l/check/PIDEfficiencyCheck.cc">
<polygon fill="white" stroke="black" points="478.5,-73 478.5,-103 631.5,-103 631.5,-73 478.5,-73"/>
<text text-anchor="start" x="486.5" y="-91" font-family="Helvetica,sans-Serif" font-size="10.00">src/analysis/physics</text>
<text text-anchor="middle" x="555" y="-80" font-family="Helvetica,sans-Serif" font-size="10.00">/check/PIDEfficiencyCheck.cc</text>
</a>
</g>
</g>
<!-- Node15&#45;&gt;Node18 -->
<g id="edge6" class="edge"><title>Node15&#45;&gt;Node18</title>
<path fill="none" stroke="midnightblue" d="M1286.92,-158.004C1149.6,-154.622 872.828,-143.726 641,-109 630.691,-107.456 619.791,-105.321 609.341,-103.018"/>
<polygon fill="midnightblue" stroke="midnightblue" points="1286.88,-161.504 1296.96,-158.244 1287.05,-154.506 1286.88,-161.504"/>
</g>
<!-- Node19 -->
<g id="node8" class="node"><title>Node19</title>
<g id="a_node8"><a xlink:href="_three_photon_check_8cc.html" target="_top" xlink:title="src/analysis/physics\l/check/ThreePhotonCheck.cc">
<polygon fill="white" stroke="black" points="650,-73 650,-103 804,-103 804,-73 650,-73"/>
<text text-anchor="start" x="658" y="-91" font-family="Helvetica,sans-Serif" font-size="10.00">src/analysis/physics</text>
<text text-anchor="middle" x="727" y="-80" font-family="Helvetica,sans-Serif" font-size="10.00">/check/ThreePhotonCheck.cc</text>
</a>
</g>
</g>
<!-- Node15&#45;&gt;Node19 -->
<g id="edge7" class="edge"><title>Node15&#45;&gt;Node19</title>
<path fill="none" stroke="midnightblue" d="M1286.88,-155.445C1176.53,-149.401 979.6,-135.752 813,-109 803.011,-107.396 792.456,-105.29 782.291,-103.047"/>
<polygon fill="midnightblue" stroke="midnightblue" points="1286.78,-158.945 1296.95,-155.989 1287.16,-151.955 1286.78,-158.945"/>
</g>
<!-- Node20 -->
<g id="node9" class="node"><title>Node20</title>
<g id="a_node9"><a xlink:href="_etap_omega_g_8cc.html" target="_top" xlink:title="src/analysis/physics\l/etaprime/EtapOmegaG.cc">
<polygon fill="white" stroke="black" points="822,-73 822,-103 966,-103 966,-73 822,-73"/>
<text text-anchor="start" x="830" y="-91" font-family="Helvetica,sans-Serif" font-size="10.00">src/analysis/physics</text>
<text text-anchor="middle" x="894" y="-80" font-family="Helvetica,sans-Serif" font-size="10.00">/etaprime/EtapOmegaG.cc</text>
</a>
</g>
</g>
<!-- Node15&#45;&gt;Node20 -->
<g id="edge8" class="edge"><title>Node15&#45;&gt;Node20</title>
<path fill="none" stroke="midnightblue" d="M1286.75,-151.362C1206.04,-143.077 1082.3,-128.66 976,-109 966.922,-107.321 957.346,-105.257 948.067,-103.1"/>
<polygon fill="midnightblue" stroke="midnightblue" points="1286.57,-154.86 1296.87,-152.391 1287.27,-147.896 1286.57,-154.86"/>
</g>
<!-- Node21 -->
<g id="node10" class="node"><title>Node21</title>
<g id="a_node10"><a xlink:href="_etap_omega_g__simple_8cc.html" target="_top" xlink:title="src/analysis/physics\l/etaprime/EtapOmegaG\l_simple.cc">
<polygon fill="white" stroke="black" points="984.5,-67.5 984.5,-108.5 1115.5,-108.5 1115.5,-67.5 984.5,-67.5"/>
<text text-anchor="start" x="992.5" y="-96.5" font-family="Helvetica,sans-Serif" font-size="10.00">src/analysis/physics</text>
<text text-anchor="start" x="992.5" y="-85.5" font-family="Helvetica,sans-Serif" font-size="10.00">/etaprime/EtapOmegaG</text>
<text text-anchor="middle" x="1050" y="-74.5" font-family="Helvetica,sans-Serif" font-size="10.00">_simple.cc</text>
</a>
</g>
</g>
<!-- Node15&#45;&gt;Node21 -->
<g id="edge9" class="edge"><title>Node15&#45;&gt;Node21</title>
<path fill="none" stroke="midnightblue" d="M1288.1,-143.513C1240.08,-134.146 1179.01,-121.689 1125,-109 1121.98,-108.291 1118.9,-107.548 1115.79,-106.783"/>
<polygon fill="midnightblue" stroke="midnightblue" points="1287.65,-146.993 1298.14,-145.464 1288.99,-140.121 1287.65,-146.993"/>
</g>
<!-- Node22 -->
<g id="node11" class="node"><title>Node22</title>
<g id="a_node11"><a xlink:href="etaprime__dalitz_8cc.html" target="_top" xlink:title="src/analysis/physics\l/etaprime/etaprime_dalitz.cc">
<polygon fill="white" stroke="black" points="1134,-73 1134,-103 1288,-103 1288,-73 1134,-73"/>
<text text-anchor="start" x="1142" y="-91" font-family="Helvetica,sans-Serif" font-size="10.00">src/analysis/physics</text>
<text text-anchor="middle" x="1211" y="-80" font-family="Helvetica,sans-Serif" font-size="10.00">/etaprime/etaprime_dalitz.cc</text>
</a>
</g>
</g>
<!-- Node15&#45;&gt;Node22 -->
<g id="edge10" class="edge"><title>Node15&#45;&gt;Node22</title>
<path fill="none" stroke="midnightblue" d="M1331.28,-141.343C1303.89,-129.424 1268.6,-114.066 1243.34,-103.073"/>
<polygon fill="midnightblue" stroke="midnightblue" points="1330.04,-144.622 1340.61,-145.403 1332.83,-138.203 1330.04,-144.622"/>
</g>
<!-- Node23 -->
<g id="node12" class="node"><title>Node23</title>
<g id="a_node12"><a xlink:href="_omega___eta_g_8cc.html" target="_top" xlink:title="src/analysis/physics\l/omega/Omega_EtaG.cc">
<polygon fill="white" stroke="black" points="1306,-73 1306,-103 1440,-103 1440,-73 1306,-73"/>
<text text-anchor="start" x="1314" y="-91" font-family="Helvetica,sans-Serif" font-size="10.00">src/analysis/physics</text>
<text text-anchor="middle" x="1373" y="-80" font-family="Helvetica,sans-Serif" font-size="10.00">/omega/Omega_EtaG.cc</text>
</a>
</g>
</g>
<!-- Node15&#45;&gt;Node23 -->
<g id="edge11" class="edge"><title>Node15&#45;&gt;Node23</title>
<path fill="none" stroke="midnightblue" d="M1373,-135.232C1373,-124.568 1373,-112.414 1373,-103.246"/>
<polygon fill="midnightblue" stroke="midnightblue" points="1369.5,-135.233 1373,-145.233 1376.5,-135.233 1369.5,-135.233"/>
</g>
<!-- Node24 -->
<g id="node13" class="node"><title>Node24</title>
<g id="a_node13"><a xlink:href="_just_pi0_8cc.html" target="_top" xlink:title="src/analysis/physics\l/pi0/JustPi0.cc">
<polygon fill="white" stroke="black" points="1458,-73 1458,-103 1568,-103 1568,-73 1458,-73"/>
<text text-anchor="start" x="1466" y="-91" font-family="Helvetica,sans-Serif" font-size="10.00">src/analysis/physics</text>
<text text-anchor="middle" x="1513" y="-80" font-family="Helvetica,sans-Serif" font-size="10.00">/pi0/JustPi0.cc</text>
</a>
</g>
</g>
<!-- Node15&#45;&gt;Node24 -->
<g id="edge12" class="edge"><title>Node15&#45;&gt;Node24</title>
<path fill="none" stroke="midnightblue" d="M1409.99,-140.873C1433.52,-129.023 1463.51,-113.922 1485.05,-103.073"/>
<polygon fill="midnightblue" stroke="midnightblue" points="1408.35,-137.779 1400.99,-145.403 1411.5,-144.031 1408.35,-137.779"/>
</g>
<!-- Node25 -->
<g id="node14" class="node"><title>Node25</title>
<g id="a_node14"><a xlink:href="sigma_plus_8cc.html" target="_top" xlink:title="src/analysis/physics\l/production/sigmaPlus.cc">
<polygon fill="white" stroke="black" points="1586,-73 1586,-103 1722,-103 1722,-73 1586,-73"/>
<text text-anchor="start" x="1594" y="-91" font-family="Helvetica,sans-Serif" font-size="10.00">src/analysis/physics</text>
<text text-anchor="middle" x="1654" y="-80" font-family="Helvetica,sans-Serif" font-size="10.00">/production/sigmaPlus.cc</text>
</a>
</g>
</g>
<!-- Node15&#45;&gt;Node25 -->
<g id="edge13" class="edge"><title>Node15&#45;&gt;Node25</title>
<path fill="none" stroke="midnightblue" d="M1440.49,-142.999C1480.25,-133.225 1531.52,-120.536 1577,-109 1584.5,-107.098 1592.4,-105.072 1600.17,-103.066"/>
<polygon fill="midnightblue" stroke="midnightblue" points="1439.52,-139.634 1430.64,-145.418 1441.19,-146.432 1439.52,-139.634"/>
</g>
<!-- Node26 -->
<g id="node15" class="node"><title>Node26</title>
<g id="a_node15"><a xlink:href="single_pi0_8cc.html" target="_top" xlink:title="src/analysis/physics\l/production/singlePi0.cc">
<polygon fill="white" stroke="black" points="1740.5,-73 1740.5,-103 1869.5,-103 1869.5,-73 1740.5,-73"/>
<text text-anchor="start" x="1748.5" y="-91" font-family="Helvetica,sans-Serif" font-size="10.00">src/analysis/physics</text>
<text text-anchor="middle" x="1805" y="-80" font-family="Helvetica,sans-Serif" font-size="10.00">/production/singlePi0.cc</text>
</a>
</g>
</g>
<!-- Node15&#45;&gt;Node26 -->
<g id="edge14" class="edge"><title>Node15&#45;&gt;Node26</title>
<path fill="none" stroke="midnightblue" d="M1459.51,-144.974C1581.33,-127.161 1614.59,-132.329 1731,-109 1739.35,-107.326 1748.15,-105.24 1756.66,-103.051"/>
<polygon fill="midnightblue" stroke="midnightblue" points="1458.79,-141.542 1449.41,-146.472 1459.82,-148.466 1458.79,-141.542"/>
</g>
<!-- Node27 -->
<g id="node16" class="node"><title>Node27</title>
<g id="a_node16"><a xlink:href="triple_pi0_8cc.html" target="_top" xlink:title="src/analysis/physics\l/production/triplePi0.cc">
<polygon fill="white" stroke="black" points="1887.5,-73 1887.5,-103 2012.5,-103 2012.5,-73 1887.5,-73"/>
<text text-anchor="start" x="1895.5" y="-91" font-family="Helvetica,sans-Serif" font-size="10.00">src/analysis/physics</text>
<text text-anchor="middle" x="1950" y="-80" font-family="Helvetica,sans-Serif" font-size="10.00">/production/triplePi0.cc</text>
</a>
</g>
</g>
<!-- Node15&#45;&gt;Node27 -->
<g id="edge15" class="edge"><title>Node15&#45;&gt;Node27</title>
<path fill="none" stroke="midnightblue" d="M1459.56,-145.019C1646.65,-122.132 1697.92,-141.959 1879,-109 1887.44,-107.464 1896.33,-105.361 1904.85,-103.095"/>
<polygon fill="midnightblue" stroke="midnightblue" points="1458.87,-141.577 1449.38,-146.289 1459.74,-148.523 1458.87,-141.577"/>
</g>
<!-- Node28 -->
<g id="node17" class="node"><title>Node28</title>
<g id="a_node17"><a xlink:href="_etap_dalitz_m_c_8cc.html" target="_top" xlink:title="src/analysis/physics\l/scratch/wagner/EtapDalitzMC.cc">
<polygon fill="white" stroke="black" points="2030.5,-73 2030.5,-103 2203.5,-103 2203.5,-73 2030.5,-73"/>
<text text-anchor="start" x="2038.5" y="-91" font-family="Helvetica,sans-Serif" font-size="10.00">src/analysis/physics</text>
<text text-anchor="middle" x="2117" y="-80" font-family="Helvetica,sans-Serif" font-size="10.00">/scratch/wagner/EtapDalitzMC.cc</text>
</a>
</g>
</g>
<!-- Node15&#45;&gt;Node28 -->
<g id="edge16" class="edge"><title>Node15&#45;&gt;Node28</title>
<path fill="none" stroke="midnightblue" d="M1459.51,-145.042C1709.82,-116.814 1776.85,-142.467 2022,-109 2033.36,-107.45 2045.38,-105.312 2056.92,-103.008"/>
<polygon fill="midnightblue" stroke="midnightblue" points="1458.91,-141.587 1449.37,-146.203 1459.71,-148.542 1458.91,-141.587"/>
</g>
<!-- Node29 -->
<g id="node18" class="node"><title>Node29</title>
<g id="a_node18"><a xlink:href="_proton_vertex_test_8cc.html" target="_top" xlink:title="src/analysis/physics\l/scratch/wolfes/ProtonVertex\lTest.cc">
<polygon fill="white" stroke="black" points="2222,-67.5 2222,-108.5 2374,-108.5 2374,-67.5 2222,-67.5"/>
<text text-anchor="start" x="2230" y="-96.5" font-family="Helvetica,sans-Serif" font-size="10.00">src/analysis/physics</text>
<text text-anchor="start" x="2230" y="-85.5" font-family="Helvetica,sans-Serif" font-size="10.00">/scratch/wolfes/ProtonVertex</text>
<text text-anchor="middle" x="2298" y="-74.5" font-family="Helvetica,sans-Serif" font-size="10.00">Test.cc</text>
</a>
</g>
</g>
<!-- Node15&#45;&gt;Node29 -->
<g id="edge17" class="edge"><title>Node15&#45;&gt;Node29</title>
<path fill="none" stroke="midnightblue" d="M1459.35,-145.075C1794.31,-109.948 1884.01,-155.161 2213,-109 2215.85,-108.6 2218.75,-108.149 2221.67,-107.657"/>
<polygon fill="midnightblue" stroke="midnightblue" points="1458.94,-141.599 1449.37,-146.138 1459.68,-148.56 1458.94,-141.599"/>
</g>
<!-- Node30 -->
<g id="node19" class="node"><title>Node30</title>
<g id="a_node19"><a xlink:href="_test_sigma_plus_fitter_8cc.html" target="_top" xlink:title="src/analysis/physics\l/test/TestSigmaPlusFitter.cc">
<polygon fill="white" stroke="black" points="2392.5,-73 2392.5,-103 2539.5,-103 2539.5,-73 2392.5,-73"/>
<text text-anchor="start" x="2400.5" y="-91" font-family="Helvetica,sans-Serif" font-size="10.00">src/analysis/physics</text>
<text text-anchor="middle" x="2466" y="-80" font-family="Helvetica,sans-Serif" font-size="10.00">/test/TestSigmaPlusFitter.cc</text>
</a>
</g>
</g>
<!-- Node15&#45;&gt;Node30 -->
<g id="edge18" class="edge"><title>Node15&#45;&gt;Node30</title>
<path fill="none" stroke="midnightblue" d="M1459.42,-145.076C1869.56,-103.751 1979.19,-164.958 2383,-109 2393.28,-107.576 2404.14,-105.435 2414.5,-103.076"/>
<polygon fill="midnightblue" stroke="midnightblue" points="1458.96,-141.605 1449.36,-146.103 1459.67,-148.568 1458.96,-141.605"/>
</g>
<!-- Node31 -->
<g id="node20" class="node"><title>Node31</title>
<g id="a_node20"><a xlink:href="analysis_2physics_2tunings_2_interpolated_pulls_8h.html" target="_top" xlink:title="src/analysis/physics\l/tunings/InterpolatedPulls.h">
<polygon fill="white" stroke="black" points="2558,-73 2558,-103 2704,-103 2704,-73 2558,-73"/>
<text text-anchor="start" x="2566" y="-91" font-family="Helvetica,sans-Serif" font-size="10.00">src/analysis/physics</text>
<text text-anchor="middle" x="2631" y="-80" font-family="Helvetica,sans-Serif" font-size="10.00">/tunings/InterpolatedPulls.h</text>
</a>
</g>
</g>
<!-- Node15&#45;&gt;Node31 -->
<g id="edge19" class="edge"><title>Node15&#45;&gt;Node31</title>
<path fill="none" stroke="midnightblue" d="M1459.4,-145.082C1943.05,-97.6601 2072.06,-174.327 2549,-109 2559.31,-107.588 2570.21,-105.421 2580.57,-103.026"/>
<polygon fill="midnightblue" stroke="midnightblue" points="1458.97,-141.608 1449.36,-146.079 1459.66,-148.574 1458.97,-141.608"/>
</g>
<!-- Node33 -->
<g id="node22" class="node"><title>Node33</title>
<g id="a_node22"><a xlink:href="physics_2tunings_2_trigger_simulation_8cc.html" target="_top" xlink:title="src/analysis/physics\l/tunings/TriggerSimulation.cc">
<polygon fill="white" stroke="black" points="2722,-73 2722,-103 2876,-103 2876,-73 2722,-73"/>
<text text-anchor="start" x="2730" y="-91" font-family="Helvetica,sans-Serif" font-size="10.00">src/analysis/physics</text>
<text text-anchor="middle" x="2799" y="-80" font-family="Helvetica,sans-Serif" font-size="10.00">/tunings/TriggerSimulation.cc</text>
</a>
</g>
</g>
<!-- Node15&#45;&gt;Node33 -->
<g id="edge21" class="edge"><title>Node15&#45;&gt;Node33</title>
<path fill="none" stroke="midnightblue" d="M1459.65,-145.061C2015.69,-91.6125 2163.42,-180.068 2713,-109 2723.79,-107.604 2735.22,-105.444 2746.09,-103.051"/>
<polygon fill="midnightblue" stroke="midnightblue" points="1458.97,-141.61 1449.36,-146.062 1459.65,-148.578 1458.97,-141.61"/>
</g>
<!-- Node34 -->
<g id="node23" class="node"><title>Node34</title>
<g id="a_node23"><a xlink:href="root-addons_2analysis__codes_2_interpolated_pulls_8cc.html" target="_top" xlink:title="src/root&#45;addons/analysis\l_codes/InterpolatedPulls.cc">
<polygon fill="white" stroke="black" points="2894,-73 2894,-103 3040,-103 3040,-73 2894,-73"/>
<text text-anchor="start" x="2902" y="-91" font-family="Helvetica,sans-Serif" font-size="10.00">src/root&#45;addons/analysis</text>
<text text-anchor="middle" x="2967" y="-80" font-family="Helvetica,sans-Serif" font-size="10.00">_codes/InterpolatedPulls.cc</text>
</a>
</g>
</g>
<!-- Node15&#45;&gt;Node34 -->
<g id="edge23" class="edge"><title>Node15&#45;&gt;Node34</title>
<path fill="none" stroke="midnightblue" d="M1459.64,-145.066C2091.85,-85.3044 2259.93,-192.142 2885,-109 2895.31,-107.628 2906.21,-105.479 2916.58,-103.089"/>
<polygon fill="midnightblue" stroke="midnightblue" points="1458.98,-141.613 1449.36,-146.048 1459.65,-148.581 1458.98,-141.613"/>
</g>
<!-- Node32 -->
<g id="node21" class="node"><title>Node32</title>
<g id="a_node21"><a xlink:href="analysis_2physics_2tunings_2_interpolated_pulls_8cc.html" target="_top" xlink:title="src/analysis/physics\l/tunings/InterpolatedPulls.cc">
<polygon fill="white" stroke="black" points="2555.5,-0.5 2555.5,-30.5 2706.5,-30.5 2706.5,-0.5 2555.5,-0.5"/>
<text text-anchor="start" x="2563.5" y="-18.5" font-family="Helvetica,sans-Serif" font-size="10.00">src/analysis/physics</text>
<text text-anchor="middle" x="2631" y="-7.5" font-family="Helvetica,sans-Serif" font-size="10.00">/tunings/InterpolatedPulls.cc</text>
</a>
</g>
</g>
<!-- Node31&#45;&gt;Node32 -->
<g id="edge20" class="edge"><title>Node31&#45;&gt;Node32</title>
<path fill="none" stroke="midnightblue" d="M2631,-62.7317C2631,-52.0679 2631,-39.9145 2631,-30.7455"/>
<polygon fill="midnightblue" stroke="midnightblue" points="2627.5,-62.7332 2631,-72.7333 2634.5,-62.7333 2627.5,-62.7332"/>
</g>
</g>
</svg>
