<?xml version="1.0" encoding="UTF-8" standalone="no"?>
<!DOCTYPE svg PUBLIC "-//W3C//DTD SVG 1.1//EN"
 "http://www.w3.org/Graphics/SVG/1.1/DTD/svg11.dtd">
<!-- Generated by graphviz version 2.38.0 (20140413.2041)
 -->
<!-- Title: src/analysis/utils/uncertainties/Interpolated.h Pages: 1 -->
<svg width="3048pt" height="184pt"
 viewBox="0.00 0.00 3047.50 184.00" xmlns="http://www.w3.org/2000/svg" xmlns:xlink="http://www.w3.org/1999/xlink">
<g id="graph0" class="graph" transform="scale(1 1) rotate(0) translate(4 180)">
<title>src/analysis/utils/uncertainties/Interpolated.h</title>
<polygon fill="white" stroke="none" points="-4,4 -4,-180 3043.5,-180 3043.5,4 -4,4"/>
<!-- Node44 -->
<g id="node1" class="node"><title>Node44</title>
<polygon fill="#bfbfbf" stroke="black" points="1403.5,-145.5 1403.5,-175.5 1555.5,-175.5 1555.5,-145.5 1403.5,-145.5"/>
<text text-anchor="start" x="1411.5" y="-163.5" font-family="Helvetica,sans-Serif" font-size="10.00">src/analysis/utils</text>
<text text-anchor="middle" x="1479.5" y="-152.5" font-family="Helvetica,sans-Serif" font-size="10.00">/uncertainties/Interpolated.h</text>
</g>
<!-- Node45 -->
<g id="node2" class="node"><title>Node45</title>
<g id="a_node2"><a xlink:href="_p_i_d___t_a_p_s_veto___kinfit_8cc.html" target="_top" xlink:title="src/analysis/physics\l/calibration/PID_TAPSVeto\l_Kinfit.cc">
<polygon fill="white" stroke="black" points="0,-67.5 0,-108.5 139,-108.5 139,-67.5 0,-67.5"/>
<text text-anchor="start" x="8" y="-96.5" font-family="Helvetica,sans-Serif" font-size="10.00">src/analysis/physics</text>
<text text-anchor="start" x="8" y="-85.5" font-family="Helvetica,sans-Serif" font-size="10.00">/calibration/PID_TAPSVeto</text>
<text text-anchor="middle" x="69.5" y="-74.5" font-family="Helvetica,sans-Serif" font-size="10.00">_Kinfit.cc</text>
</a>
</g>
</g>
<!-- Node44&#45;&gt;Node45 -->
<g id="edge1" class="edge"><title>Node44&#45;&gt;Node45</title>
<path fill="none" stroke="midnightblue" d="M1392.78,-158.587C1137.24,-155.519 389.917,-143.745 148.5,-109 145.419,-108.557 142.284,-108.042 139.128,-107.471"/>
<polygon fill="midnightblue" stroke="midnightblue" points="1393.08,-162.09 1403.12,-158.709 1393.17,-155.091 1393.08,-162.09"/>
</g>
<!-- Node46 -->
<g id="node3" class="node"><title>Node46</title>
<g id="a_node3"><a xlink:href="_kin_fit_i_m_check_8cc.html" target="_top" xlink:title="src/analysis/physics\l/check/KinFitIMCheck.cc">
<polygon fill="white" stroke="black" points="157.5,-73 157.5,-103 285.5,-103 285.5,-73 157.5,-73"/>
<text text-anchor="start" x="165.5" y="-91" font-family="Helvetica,sans-Serif" font-size="10.00">src/analysis/physics</text>
<text text-anchor="middle" x="221.5" y="-80" font-family="Helvetica,sans-Serif" font-size="10.00">/check/KinFitIMCheck.cc</text>
</a>
</g>
</g>
<!-- Node44&#45;&gt;Node46 -->
<g id="edge2" class="edge"><title>Node44&#45;&gt;Node46</title>
<path fill="none" stroke="midnightblue" d="M1393.07,-158.294C1157.4,-154.609 507.121,-141.697 295.5,-109 286.294,-107.578 276.589,-105.438 267.347,-103.079"/>
<polygon fill="midnightblue" stroke="midnightblue" points="1393.25,-161.797 1403.3,-158.452 1393.35,-154.798 1393.25,-161.797"/>
</g>
<!-- Node47 -->
<g id="node4" class="node"><title>Node47</title>
<g id="a_node4"><a xlink:href="_p_i_d_efficiency_check_8cc.html" target="_top" xlink:title="src/analysis/physics\l/check/PIDEfficiencyCheck.cc">
<polygon fill="white" stroke="black" points="304,-73 304,-103 457,-103 457,-73 304,-73"/>
<text text-anchor="start" x="312" y="-91" font-family="Helvetica,sans-Serif" font-size="10.00">src/analysis/physics</text>
<text text-anchor="middle" x="380.5" y="-80" font-family="Helvetica,sans-Serif" font-size="10.00">/check/PIDEfficiencyCheck.cc</text>
</a>
</g>
</g>
<!-- Node44&#45;&gt;Node47 -->
<g id="edge3" class="edge"><title>Node44&#45;&gt;Node47</title>
<path fill="none" stroke="midnightblue" d="M1393.25,-160.374C1217.82,-161.014 807.174,-156.714 466.5,-109 456.025,-107.533 444.949,-105.404 434.357,-103.076"/>
<polygon fill="midnightblue" stroke="midnightblue" points="1393.47,-163.873 1403.45,-160.33 1393.44,-156.873 1393.47,-163.873"/>
</g>
<!-- Node48 -->
<g id="node5" class="node"><title>Node48</title>
<g id="a_node5"><a xlink:href="_three_photon_check_8cc.html" target="_top" xlink:title="src/analysis/physics\l/check/ThreePhotonCheck.cc">
<polygon fill="white" stroke="black" points="475.5,-73 475.5,-103 629.5,-103 629.5,-73 475.5,-73"/>
<text text-anchor="start" x="483.5" y="-91" font-family="Helvetica,sans-Serif" font-size="10.00">src/analysis/physics</text>
<text text-anchor="middle" x="552.5" y="-80" font-family="Helvetica,sans-Serif" font-size="10.00">/check/ThreePhotonCheck.cc</text>
</a>
</g>
</g>
<!-- Node44&#45;&gt;Node48 -->
<g id="edge4" class="edge"><title>Node44&#45;&gt;Node48</title>
<path fill="none" stroke="midnightblue" d="M1393.13,-159.1C1240.21,-157.328 912.125,-148.743 638.5,-109 628.185,-107.502 617.281,-105.388 606.83,-103.092"/>
<polygon fill="midnightblue" stroke="midnightblue" points="1393.35,-162.602 1403.39,-159.211 1393.43,-155.603 1393.35,-162.602"/>
</g>
<!-- Node49 -->
<g id="node6" class="node"><title>Node49</title>
<g id="a_node6"><a xlink:href="_etap_omega_g_8cc.html" target="_top" xlink:title="src/analysis/physics\l/etaprime/EtapOmegaG.cc">
<polygon fill="white" stroke="black" points="647.5,-73 647.5,-103 791.5,-103 791.5,-73 647.5,-73"/>
<text text-anchor="start" x="655.5" y="-91" font-family="Helvetica,sans-Serif" font-size="10.00">src/analysis/physics</text>
<text text-anchor="middle" x="719.5" y="-80" font-family="Helvetica,sans-Serif" font-size="10.00">/etaprime/EtapOmegaG.cc</text>
</a>
</g>
</g>
<!-- Node44&#45;&gt;Node49 -->
<g id="edge5" class="edge"><title>Node44&#45;&gt;Node49</title>
<path fill="none" stroke="midnightblue" d="M1393.04,-157.617C1263.66,-153.773 1012.35,-142.332 801.5,-109 791.803,-107.467 781.564,-105.366 771.733,-103.101"/>
<polygon fill="midnightblue" stroke="midnightblue" points="1393.18,-161.122 1403.28,-157.913 1393.38,-154.125 1393.18,-161.122"/>
</g>
<!-- Node50 -->
<g id="node7" class="node"><title>Node50</title>
<g id="a_node7"><a xlink:href="_etap_omega_g__simple_8cc.html" target="_top" xlink:title="src/analysis/physics\l/etaprime/EtapOmegaG\l_simple.cc">
<polygon fill="white" stroke="black" points="810,-67.5 810,-108.5 941,-108.5 941,-67.5 810,-67.5"/>
<text text-anchor="start" x="818" y="-96.5" font-family="Helvetica,sans-Serif" font-size="10.00">src/analysis/physics</text>
<text text-anchor="start" x="818" y="-85.5" font-family="Helvetica,sans-Serif" font-size="10.00">/etaprime/EtapOmegaG</text>
<text text-anchor="middle" x="875.5" y="-74.5" font-family="Helvetica,sans-Serif" font-size="10.00">_simple.cc</text>
</a>
</g>
</g>
<!-- Node44&#45;&gt;Node50 -->
<g id="edge6" class="edge"><title>Node44&#45;&gt;Node50</title>
<path fill="none" stroke="midnightblue" d="M1392.93,-155.636C1287.68,-149.929 1104.94,-136.767 950.5,-109 947.449,-108.452 944.342,-107.84 941.212,-107.182"/>
<polygon fill="midnightblue" stroke="midnightblue" points="1393.01,-159.146 1403.19,-156.182 1393.39,-152.156 1393.01,-159.146"/>
</g>
<!-- Node51 -->
<g id="node8" class="node"><title>Node51</title>
<g id="a_node8"><a xlink:href="etaprime__dalitz_8cc.html" target="_top" xlink:title="src/analysis/physics\l/etaprime/etaprime_dalitz.cc">
<polygon fill="white" stroke="black" points="959.5,-73 959.5,-103 1113.5,-103 1113.5,-73 959.5,-73"/>
<text text-anchor="start" x="967.5" y="-91" font-family="Helvetica,sans-Serif" font-size="10.00">src/analysis/physics</text>
<text text-anchor="middle" x="1036.5" y="-80" font-family="Helvetica,sans-Serif" font-size="10.00">/etaprime/etaprime_dalitz.cc</text>
</a>
</g>
</g>
<!-- Node44&#45;&gt;Node51 -->
<g id="edge7" class="edge"><title>Node44&#45;&gt;Node51</title>
<path fill="none" stroke="midnightblue" d="M1393.27,-149.461C1320.75,-140.502 1214.47,-126.165 1122.5,-109 1113.16,-107.256 1103.3,-105.184 1093.71,-103.045"/>
<polygon fill="midnightblue" stroke="midnightblue" points="1392.92,-152.944 1403.27,-150.689 1393.78,-145.996 1392.92,-152.944"/>
</g>
<!-- Node52 -->
<g id="node9" class="node"><title>Node52</title>
<g id="a_node9"><a xlink:href="_omega___eta_g_8cc.html" target="_top" xlink:title="src/analysis/physics\l/omega/Omega_EtaG.cc">
<polygon fill="white" stroke="black" points="1131.5,-73 1131.5,-103 1265.5,-103 1265.5,-73 1131.5,-73"/>
<text text-anchor="start" x="1139.5" y="-91" font-family="Helvetica,sans-Serif" font-size="10.00">src/analysis/physics</text>
<text text-anchor="middle" x="1198.5" y="-80" font-family="Helvetica,sans-Serif" font-size="10.00">/omega/Omega_EtaG.cc</text>
</a>
</g>
</g>
<!-- Node44&#45;&gt;Node52 -->
<g id="edge8" class="edge"><title>Node44&#45;&gt;Node52</title>
<path fill="none" stroke="midnightblue" d="M1411.66,-143.073C1371.7,-133.325 1320.18,-120.636 1274.5,-109 1267.1,-107.114 1259.29,-105.096 1251.62,-103.094"/>
<polygon fill="midnightblue" stroke="midnightblue" points="1411.02,-146.519 1421.56,-145.486 1412.67,-139.718 1411.02,-146.519"/>
</g>
<!-- Node53 -->
<g id="node10" class="node"><title>Node53</title>
<g id="a_node10"><a xlink:href="_just_pi0_8cc.html" target="_top" xlink:title="src/analysis/physics\l/pi0/JustPi0.cc">
<polygon fill="white" stroke="black" points="1283.5,-73 1283.5,-103 1393.5,-103 1393.5,-73 1283.5,-73"/>
<text text-anchor="start" x="1291.5" y="-91" font-family="Helvetica,sans-Serif" font-size="10.00">src/analysis/physics</text>
<text text-anchor="middle" x="1338.5" y="-80" font-family="Helvetica,sans-Serif" font-size="10.00">/pi0/JustPi0.cc</text>
</a>
</g>
</g>
<!-- Node44&#45;&gt;Node53 -->
<g id="edge9" class="edge"><title>Node44&#45;&gt;Node53</title>
<path fill="none" stroke="midnightblue" d="M1442.25,-140.873C1418.55,-129.023 1388.34,-113.922 1366.65,-103.073"/>
<polygon fill="midnightblue" stroke="midnightblue" points="1440.8,-144.061 1451.31,-145.403 1443.93,-137.8 1440.8,-144.061"/>
</g>
<!-- Node54 -->
<g id="node11" class="node"><title>Node54</title>
<g id="a_node11"><a xlink:href="sigma_plus_8cc.html" target="_top" xlink:title="src/analysis/physics\l/production/sigmaPlus.cc">
<polygon fill="white" stroke="black" points="1411.5,-73 1411.5,-103 1547.5,-103 1547.5,-73 1411.5,-73"/>
<text text-anchor="start" x="1419.5" y="-91" font-family="Helvetica,sans-Serif" font-size="10.00">src/analysis/physics</text>
<text text-anchor="middle" x="1479.5" y="-80" font-family="Helvetica,sans-Serif" font-size="10.00">/production/sigmaPlus.cc</text>
</a>
</g>
</g>
<!-- Node44&#45;&gt;Node54 -->
<g id="edge10" class="edge"><title>Node44&#45;&gt;Node54</title>
<path fill="none" stroke="midnightblue" d="M1479.5,-135.232C1479.5,-124.568 1479.5,-112.414 1479.5,-103.246"/>
<polygon fill="midnightblue" stroke="midnightblue" points="1476,-135.233 1479.5,-145.233 1483,-135.233 1476,-135.233"/>
</g>
<!-- Node55 -->
<g id="node12" class="node"><title>Node55</title>
<g id="a_node12"><a xlink:href="single_pi0_8cc.html" target="_top" xlink:title="src/analysis/physics\l/production/singlePi0.cc">
<polygon fill="white" stroke="black" points="1566,-73 1566,-103 1695,-103 1695,-73 1566,-73"/>
<text text-anchor="start" x="1574" y="-91" font-family="Helvetica,sans-Serif" font-size="10.00">src/analysis/physics</text>
<text text-anchor="middle" x="1630.5" y="-80" font-family="Helvetica,sans-Serif" font-size="10.00">/production/singlePi0.cc</text>
</a>
</g>
</g>
<!-- Node44&#45;&gt;Node55 -->
<g id="edge11" class="edge"><title>Node44&#45;&gt;Node55</title>
<path fill="none" stroke="midnightblue" d="M1519.06,-141.03C1544.49,-129.156 1577.02,-113.97 1600.36,-103.073"/>
<polygon fill="midnightblue" stroke="midnightblue" points="1517.27,-138.001 1509.69,-145.403 1520.24,-144.344 1517.27,-138.001"/>
</g>
<!-- Node56 -->
<g id="node13" class="node"><title>Node56</title>
<g id="a_node13"><a xlink:href="triple_pi0_8cc.html" target="_top" xlink:title="src/analysis/physics\l/production/triplePi0.cc">
<polygon fill="white" stroke="black" points="1713,-73 1713,-103 1838,-103 1838,-73 1713,-73"/>
<text text-anchor="start" x="1721" y="-91" font-family="Helvetica,sans-Serif" font-size="10.00">src/analysis/physics</text>
<text text-anchor="middle" x="1775.5" y="-80" font-family="Helvetica,sans-Serif" font-size="10.00">/production/triplePi0.cc</text>
</a>
</g>
</g>
<!-- Node44&#45;&gt;Node56 -->
<g id="edge12" class="edge"><title>Node44&#45;&gt;Node56</title>
<path fill="none" stroke="midnightblue" d="M1556.63,-143.264C1600.18,-133.827 1655.53,-121.383 1704.5,-109 1711.83,-107.148 1719.54,-105.087 1727.09,-103.012"/>
<polygon fill="midnightblue" stroke="midnightblue" points="1555.71,-139.881 1546.67,-145.413 1557.19,-146.723 1555.71,-139.881"/>
</g>
<!-- Node57 -->
<g id="node14" class="node"><title>Node57</title>
<g id="a_node14"><a xlink:href="_etap_dalitz_m_c_8cc.html" target="_top" xlink:title="src/analysis/physics\l/scratch/wagner/EtapDalitzMC.cc">
<polygon fill="white" stroke="black" points="1856,-73 1856,-103 2029,-103 2029,-73 1856,-73"/>
<text text-anchor="start" x="1864" y="-91" font-family="Helvetica,sans-Serif" font-size="10.00">src/analysis/physics</text>
<text text-anchor="middle" x="1942.5" y="-80" font-family="Helvetica,sans-Serif" font-size="10.00">/scratch/wagner/EtapDalitzMC.cc</text>
</a>
</g>
</g>
<!-- Node44&#45;&gt;Node57 -->
<g id="edge13" class="edge"><title>Node44&#45;&gt;Node57</title>
<path fill="none" stroke="midnightblue" d="M1565.81,-149.416C1640.56,-140.264 1751.47,-125.676 1847.5,-109 1857.71,-107.227 1868.5,-105.151 1879,-103.021"/>
<polygon fill="midnightblue" stroke="midnightblue" points="1565.01,-145.988 1555.51,-150.671 1565.86,-152.936 1565.01,-145.988"/>
</g>
<!-- Node58 -->
<g id="node15" class="node"><title>Node58</title>
<g id="a_node15"><a xlink:href="_proton_vertex_test_8cc.html" target="_top" xlink:title="src/analysis/physics\l/scratch/wolfes/ProtonVertex\lTest.cc">
<polygon fill="white" stroke="black" points="2047.5,-67.5 2047.5,-108.5 2199.5,-108.5 2199.5,-67.5 2047.5,-67.5"/>
<text text-anchor="start" x="2055.5" y="-96.5" font-family="Helvetica,sans-Serif" font-size="10.00">src/analysis/physics</text>
<text text-anchor="start" x="2055.5" y="-85.5" font-family="Helvetica,sans-Serif" font-size="10.00">/scratch/wolfes/ProtonVertex</text>
<text text-anchor="middle" x="2123.5" y="-74.5" font-family="Helvetica,sans-Serif" font-size="10.00">Test.cc</text>
</a>
</g>
</g>
<!-- Node44&#45;&gt;Node58 -->
<g id="edge14" class="edge"><title>Node44&#45;&gt;Node58</title>
<path fill="none" stroke="midnightblue" d="M1565.95,-155.477C1676.19,-149.481 1872.47,-135.896 2038.5,-109 2041.34,-108.539 2044.23,-108.037 2047.15,-107.502"/>
<polygon fill="midnightblue" stroke="midnightblue" points="1565.67,-151.987 1555.88,-156.017 1566.05,-158.977 1565.67,-151.987"/>
</g>
<!-- Node59 -->
<g id="node16" class="node"><title>Node59</title>
<g id="a_node16"><a xlink:href="_test_sigma_plus_fitter_8cc.html" target="_top" xlink:title="src/analysis/physics\l/test/TestSigmaPlusFitter.cc">
<polygon fill="white" stroke="black" points="2218,-73 2218,-103 2365,-103 2365,-73 2218,-73"/>
<text text-anchor="start" x="2226" y="-91" font-family="Helvetica,sans-Serif" font-size="10.00">src/analysis/physics</text>
<text text-anchor="middle" x="2291.5" y="-80" font-family="Helvetica,sans-Serif" font-size="10.00">/test/TestSigmaPlusFitter.cc</text>
</a>
</g>
</g>
<!-- Node44&#45;&gt;Node59 -->
<g id="edge15" class="edge"><title>Node44&#45;&gt;Node59</title>
<path fill="none" stroke="midnightblue" d="M1565.54,-158.19C1702.43,-155.063 1977.91,-144.512 2208.5,-109 2218.46,-107.466 2228.99,-105.336 2239.07,-103.034"/>
<polygon fill="midnightblue" stroke="midnightblue" points="1565.44,-154.691 1555.52,-158.411 1565.6,-161.689 1565.44,-154.691"/>
</g>
<!-- Node60 -->
<g id="node17" class="node"><title>Node60</title>
<g id="a_node17"><a xlink:href="analysis_2physics_2tunings_2_interpolated_pulls_8h.html" target="_top" xlink:title="src/analysis/physics\l/tunings/InterpolatedPulls.h">
<polygon fill="white" stroke="black" points="2383.5,-73 2383.5,-103 2529.5,-103 2529.5,-73 2383.5,-73"/>
<text text-anchor="start" x="2391.5" y="-91" font-family="Helvetica,sans-Serif" font-size="10.00">src/analysis/physics</text>
<text text-anchor="middle" x="2456.5" y="-80" font-family="Helvetica,sans-Serif" font-size="10.00">/tunings/InterpolatedPulls.h</text>
</a>
</g>
</g>
<!-- Node44&#45;&gt;Node60 -->
<g id="edge16" class="edge"><title>Node44&#45;&gt;Node60</title>
<path fill="none" stroke="midnightblue" d="M1565.99,-159.854C1726.33,-159.352 2080.22,-152.814 2374.5,-109 2384.5,-107.511 2395.07,-105.372 2405.17,-103.041"/>
<polygon fill="midnightblue" stroke="midnightblue" points="1565.7,-156.354 1555.71,-159.878 1565.72,-163.354 1565.7,-156.354"/>
</g>
<!-- Node62 -->
<g id="node19" class="node"><title>Node62</title>
<g id="a_node19"><a xlink:href="physics_2tunings_2_trigger_simulation_8cc.html" target="_top" xlink:title="src/analysis/physics\l/tunings/TriggerSimulation.cc">
<polygon fill="white" stroke="black" points="2547.5,-73 2547.5,-103 2701.5,-103 2701.5,-73 2547.5,-73"/>
<text text-anchor="start" x="2555.5" y="-91" font-family="Helvetica,sans-Serif" font-size="10.00">src/analysis/physics</text>
<text text-anchor="middle" x="2624.5" y="-80" font-family="Helvetica,sans-Serif" font-size="10.00">/tunings/TriggerSimulation.cc</text>
</a>
</g>
</g>
<!-- Node44&#45;&gt;Node62 -->
<g id="edge18" class="edge"><title>Node44&#45;&gt;Node62</title>
<path fill="none" stroke="midnightblue" d="M1565.82,-157.398C1783.62,-151.769 2351.41,-134.998 2538.5,-109 2548.98,-107.544 2560.05,-105.42 2570.65,-103.094"/>
<polygon fill="midnightblue" stroke="midnightblue" points="1565.62,-153.901 1555.72,-157.657 1565.8,-160.899 1565.62,-153.901"/>
</g>
<!-- Node63 -->
<g id="node20" class="node"><title>Node63</title>
<g id="a_node20"><a xlink:href="_interpolated_8cc.html" target="_top" xlink:title="src/analysis/utils\l/uncertainties/Interpolated.cc">
<polygon fill="white" stroke="black" points="2719.5,-73 2719.5,-103 2875.5,-103 2875.5,-73 2719.5,-73"/>
<text text-anchor="start" x="2727.5" y="-91" font-family="Helvetica,sans-Serif" font-size="10.00">src/analysis/utils</text>
<text text-anchor="middle" x="2797.5" y="-80" font-family="Helvetica,sans-Serif" font-size="10.00">/uncertainties/Interpolated.cc</text>
</a>
</g>
</g>
<!-- Node44&#45;&gt;Node63 -->
<g id="edge19" class="edge"><title>Node44&#45;&gt;Node63</title>
<path fill="none" stroke="midnightblue" d="M1565.92,-158.034C1807.88,-153.599 2488.84,-138.764 2710.5,-109 2721.25,-107.556 2732.63,-105.407 2743.49,-103.045"/>
<polygon fill="midnightblue" stroke="midnightblue" points="1565.7,-154.537 1555.77,-158.219 1565.83,-161.536 1565.7,-154.537"/>
</g>
<!-- Node64 -->
<g id="node21" class="node"><title>Node64</title>
<g id="a_node21"><a xlink:href="root-addons_2analysis__codes_2_interpolated_pulls_8cc.html" target="_top" xlink:title="src/root&#45;addons/analysis\l_codes/InterpolatedPulls.cc">
<polygon fill="white" stroke="black" points="2893.5,-73 2893.5,-103 3039.5,-103 3039.5,-73 2893.5,-73"/>
<text text-anchor="start" x="2901.5" y="-91" font-family="Helvetica,sans-Serif" font-size="10.00">src/root&#45;addons/analysis</text>
<text text-anchor="middle" x="2966.5" y="-80" font-family="Helvetica,sans-Serif" font-size="10.00">_codes/InterpolatedPulls.cc</text>
</a>
</g>
</g>
<!-- Node44&#45;&gt;Node64 -->
<g id="edge20" class="edge"><title>Node44&#45;&gt;Node64</title>
<path fill="none" stroke="midnightblue" d="M1565.95,-158.694C1830.7,-155.861 2627.87,-144.532 2884.5,-109 2894.81,-107.573 2905.7,-105.399 2916.07,-103.003"/>
<polygon fill="midnightblue" stroke="midnightblue" points="1565.59,-155.197 1555.63,-158.803 1565.67,-162.197 1565.59,-155.197"/>
</g>
<!-- Node61 -->
<g id="node18" class="node"><title>Node61</title>
<g id="a_node18"><a xlink:href="analysis_2physics_2tunings_2_interpolated_pulls_8cc.html" target="_top" xlink:title="src/analysis/physics\l/tunings/InterpolatedPulls.cc">
<polygon fill="white" stroke="black" points="2381,-0.5 2381,-30.5 2532,-30.5 2532,-0.5 2381,-0.5"/>
<text text-anchor="start" x="2389" y="-18.5" font-family="Helvetica,sans-Serif" font-size="10.00">src/analysis/physics</text>
<text text-anchor="middle" x="2456.5" y="-7.5" font-family="Helvetica,sans-Serif" font-size="10.00">/tunings/InterpolatedPulls.cc</text>
</a>
</g>
</g>
<!-- Node60&#45;&gt;Node61 -->
<g id="edge17" class="edge"><title>Node60&#45;&gt;Node61</title>
<path fill="none" stroke="midnightblue" d="M2456.5,-62.7317C2456.5,-52.0679 2456.5,-39.9145 2456.5,-30.7455"/>
<polygon fill="midnightblue" stroke="midnightblue" points="2453,-62.7332 2456.5,-72.7333 2460,-62.7333 2453,-62.7332"/>
</g>
</g>
</svg>
