<?xml version="1.0" encoding="UTF-8" standalone="no"?>
<!DOCTYPE svg PUBLIC "-//W3C//DTD SVG 1.1//EN"
 "http://www.w3.org/Graphics/SVG/1.1/DTD/svg11.dtd">
<!-- Generated by graphviz version 2.38.0 (20140413.2041)
 -->
<!-- Title: src/calibration/gui/ManagerWindow.h Pages: 1 -->
<svg width="2102pt" height="375pt"
 viewBox="0.00 0.00 2102.00 375.00" xmlns="http://www.w3.org/2000/svg" xmlns:xlink="http://www.w3.org/1999/xlink">
<g id="graph0" class="graph" transform="scale(1 1) rotate(0) translate(4 371)">
<title>src/calibration/gui/ManagerWindow.h</title>
<polygon fill="white" stroke="none" points="-4,4 -4,-371 2098,-371 2098,4 -4,4"/>
<!-- Node0 -->
<g id="node1" class="node"><title>Node0</title>
<polygon fill="#bfbfbf" stroke="black" points="1818.5,-336.5 1818.5,-366.5 1923.5,-366.5 1923.5,-336.5 1818.5,-336.5"/>
<text text-anchor="start" x="1826.5" y="-354.5" font-family="Helvetica,sans-Serif" font-size="10.00">src/calibration/gui</text>
<text text-anchor="middle" x="1871" y="-343.5" font-family="Helvetica,sans-Serif" font-size="10.00">/ManagerWindow.h</text>
</g>
<!-- Node1 -->
<g id="node2" class="node"><title>Node1</title>
<g id="a_node2"><a xlink:href="_manager_window__traits_8h.html" target="_top" xlink:title="ManagerWindow_traits.h">
<polygon fill="white" stroke="black" points="1325.5,-280.5 1325.5,-299.5 1458.5,-299.5 1458.5,-280.5 1325.5,-280.5"/>
<text text-anchor="middle" x="1392" y="-287.5" font-family="Helvetica,sans-Serif" font-size="10.00">ManagerWindow_traits.h</text>
</a>
</g>
</g>
<!-- Node0&#45;&gt;Node1 -->
<g id="edge1" class="edge"><title>Node0&#45;&gt;Node1</title>
<path fill="none" stroke="midnightblue" d="M1818.37,-343.962C1733.75,-333.451 1567.05,-312.744 1469.03,-300.568"/>
<polygon fill="midnightblue" stroke="midnightblue" points="1469.24,-297.068 1458.89,-299.309 1468.38,-304.015 1469.24,-297.068"/>
</g>
<!-- Node16 -->
<g id="node17" class="node"><title>Node16</title>
<polygon fill="white" stroke="#bfbfbf" points="1674.5,-56.5 1674.5,-75.5 1737.5,-75.5 1737.5,-56.5 1674.5,-56.5"/>
<text text-anchor="middle" x="1706" y="-63.5" font-family="Helvetica,sans-Serif" font-size="10.00">functional</text>
</g>
<!-- Node0&#45;&gt;Node16 -->
<g id="edge55" class="edge"><title>Node0&#45;&gt;Node16</title>
<path fill="none" stroke="midnightblue" d="M1864.58,-336.245C1855.5,-314.757 1840,-272.579 1840,-235 1840,-235 1840,-235 1840,-177 1840,-126.394 1782.2,-94.812 1742.52,-79.0946"/>
<polygon fill="midnightblue" stroke="midnightblue" points="1743.71,-75.8023 1733.12,-75.5286 1741.23,-82.3474 1743.71,-75.8023"/>
</g>
<!-- Node26 -->
<g id="node27" class="node"><title>Node26</title>
<polygon fill="white" stroke="#bfbfbf" points="485,-112.5 485,-131.5 515,-131.5 515,-112.5 485,-112.5"/>
<text text-anchor="middle" x="500" y="-119.5" font-family="Helvetica,sans-Serif" font-size="10.00">list</text>
</g>
<!-- Node0&#45;&gt;Node26 -->
<g id="edge56" class="edge"><title>Node0&#45;&gt;Node26</title>
<path fill="none" stroke="midnightblue" d="M1818.21,-346.519C1719.59,-338.897 1500.74,-321.113 1317,-300 957.263,-258.664 767.927,-442.152 510,-188 497.946,-176.122 496.498,-156.209 497.415,-141.547"/>
<polygon fill="midnightblue" stroke="midnightblue" points="500.899,-141.885 498.441,-131.579 493.936,-141.168 500.899,-141.885"/>
</g>
<!-- Node36 -->
<g id="node37" class="node"><title>Node36</title>
<polygon fill="white" stroke="#bfbfbf" points="1868,-280.5 1868,-299.5 1936,-299.5 1936,-280.5 1868,-280.5"/>
<text text-anchor="middle" x="1902" y="-287.5" font-family="Helvetica,sans-Serif" font-size="10.00">TGFrame.h</text>
</g>
<!-- Node0&#45;&gt;Node36 -->
<g id="edge53" class="edge"><title>Node0&#45;&gt;Node36</title>
<path fill="none" stroke="midnightblue" d="M1878.35,-336.399C1882.67,-328.11 1888.17,-317.554 1892.77,-308.708"/>
<polygon fill="midnightblue" stroke="midnightblue" points="1895.97,-310.144 1897.49,-299.658 1889.76,-306.909 1895.97,-310.144"/>
</g>
<!-- Node37 -->
<g id="node38" class="node"><title>Node37</title>
<polygon fill="white" stroke="#bfbfbf" points="1954.5,-280.5 1954.5,-299.5 2037.5,-299.5 2037.5,-280.5 1954.5,-280.5"/>
<text text-anchor="middle" x="1996" y="-287.5" font-family="Helvetica,sans-Serif" font-size="10.00">KeySymbols.h</text>
</g>
<!-- Node0&#45;&gt;Node37 -->
<g id="edge54" class="edge"><title>Node0&#45;&gt;Node37</title>
<path fill="none" stroke="midnightblue" d="M1900.62,-336.399C1921.22,-326.595 1948.48,-313.619 1968.58,-304.052"/>
<polygon fill="midnightblue" stroke="midnightblue" points="1970.29,-307.116 1977.81,-299.658 1967.28,-300.796 1970.29,-307.116"/>
</g>
<!-- Node38 -->
<g id="node39" class="node"><title>Node38</title>
<polygon fill="white" stroke="#bfbfbf" points="2056,-280.5 2056,-299.5 2094,-299.5 2094,-280.5 2056,-280.5"/>
<text text-anchor="middle" x="2075" y="-287.5" font-family="Helvetica,sans-Serif" font-size="10.00">map</text>
</g>
<!-- Node0&#45;&gt;Node38 -->
<g id="edge57" class="edge"><title>Node0&#45;&gt;Node38</title>
<path fill="none" stroke="midnightblue" d="M1921.57,-336.445C1954.55,-327.178 1998.74,-314.563 2045.95,-300.257"/>
<polygon fill="midnightblue" stroke="midnightblue" points="2047.2,-303.536 2055.75,-297.277 2045.16,-296.839 2047.2,-303.536"/>
</g>
<!-- Node2 -->
<g id="node3" class="node"><title>Node2</title>
<g id="a_node3"><a xlink:href="_manager__traits_8h.html" target="_top" xlink:title="Manager_traits.h">
<polygon fill="white" stroke="black" points="989,-224.5 989,-243.5 1087,-243.5 1087,-224.5 989,-224.5"/>
<text text-anchor="middle" x="1038" y="-231.5" font-family="Helvetica,sans-Serif" font-size="10.00">Manager_traits.h</text>
</a>
</g>
</g>
<!-- Node1&#45;&gt;Node2 -->
<g id="edge2" class="edge"><title>Node1&#45;&gt;Node2</title>
<path fill="none" stroke="midnightblue" d="M1335.91,-280.444C1270.73,-270.501 1163.64,-254.166 1097.17,-244.026"/>
<polygon fill="midnightblue" stroke="midnightblue" points="1097.68,-240.564 1087.27,-242.515 1096.63,-247.483 1097.68,-240.564"/>
</g>
<!-- Node3 -->
<g id="node4" class="node"><title>Node3</title>
<g id="a_node4"><a xlink:href="interval_8h.html" target="_top" xlink:title="base/interval.h">
<polygon fill="white" stroke="black" points="762.5,-168.5 762.5,-187.5 849.5,-187.5 849.5,-168.5 762.5,-168.5"/>
<text text-anchor="middle" x="806" y="-175.5" font-family="Helvetica,sans-Serif" font-size="10.00">base/interval.h</text>
</a>
</g>
</g>
<!-- Node2&#45;&gt;Node3 -->
<g id="edge3" class="edge"><title>Node2&#45;&gt;Node3</title>
<path fill="none" stroke="midnightblue" d="M1001.24,-224.444C960.937,-215.063 896.191,-199.993 852.415,-189.804"/>
<polygon fill="midnightblue" stroke="midnightblue" points="853.122,-186.375 842.589,-187.516 851.535,-193.192 853.122,-186.375"/>
</g>
<!-- Node11 -->
<g id="node12" class="node"><title>Node11</title>
<g id="a_node12"><a xlink:href="_wrap_t_file_8h.html" target="_top" xlink:title="base/WrapTFile.h">
<polygon fill="white" stroke="black" points="1223.5,-168.5 1223.5,-187.5 1318.5,-187.5 1318.5,-168.5 1223.5,-168.5"/>
<text text-anchor="middle" x="1271" y="-175.5" font-family="Helvetica,sans-Serif" font-size="10.00">base/WrapTFile.h</text>
</a>
</g>
</g>
<!-- Node2&#45;&gt;Node11 -->
<g id="edge11" class="edge"><title>Node2&#45;&gt;Node11</title>
<path fill="none" stroke="midnightblue" d="M1074.92,-224.444C1115.4,-215.063 1180.42,-199.993 1224.38,-189.804"/>
<polygon fill="midnightblue" stroke="midnightblue" points="1225.3,-193.184 1234.25,-187.516 1223.72,-186.365 1225.3,-193.184"/>
</g>
<!-- Node13 -->
<g id="node14" class="node"><title>Node13</title>
<polygon fill="white" stroke="#bfbfbf" points="613,-0.5 613,-19.5 657,-19.5 657,-0.5 613,-0.5"/>
<text text-anchor="middle" x="635" y="-7.5" font-family="Helvetica,sans-Serif" font-size="10.00">string</text>
</g>
<!-- Node2&#45;&gt;Node13 -->
<g id="edge49" class="edge"><title>Node2&#45;&gt;Node13</title>
<path fill="none" stroke="midnightblue" d="M988.664,-227.539C885.772,-215.256 652.863,-182.519 593,-132 565.121,-108.473 544.217,-87.8519 562,-56 570.895,-40.0676 588.005,-29.0763 603.426,-21.9468"/>
<polygon fill="midnightblue" stroke="midnightblue" points="604.886,-25.1294 612.72,-17.997 602.148,-18.6869 604.886,-25.1294"/>
</g>
<!-- Node2&#45;&gt;Node16 -->
<g id="edge52" class="edge"><title>Node2&#45;&gt;Node16</title>
<path fill="none" stroke="midnightblue" d="M1087.27,-232.695C1183.88,-231.277 1404.58,-223.986 1586,-188 1666.1,-172.111 1712.85,-197.96 1761,-132 1774.51,-113.487 1751.48,-93.5544 1731.21,-80.7137"/>
<polygon fill="midnightblue" stroke="midnightblue" points="1732.9,-77.6455 1722.53,-75.5066 1729.3,-83.6496 1732.9,-77.6455"/>
</g>
<!-- Node19 -->
<g id="node20" class="node"><title>Node19</title>
<polygon fill="white" stroke="#bfbfbf" points="1503.5,-56.5 1503.5,-75.5 1560.5,-75.5 1560.5,-56.5 1503.5,-56.5"/>
<text text-anchor="middle" x="1532" y="-63.5" font-family="Helvetica,sans-Serif" font-size="10.00">memory</text>
</g>
<!-- Node2&#45;&gt;Node19 -->
<g id="edge51" class="edge"><title>Node2&#45;&gt;Node19</title>
<path fill="none" stroke="midnightblue" d="M1087.21,-229.65C1240.49,-218.719 1701.72,-181.908 1745,-132 1750.82,-125.285 1750.6,-118.905 1745,-112 1723.48,-85.4539 1626.07,-73.9568 1570.73,-69.4942"/>
<polygon fill="midnightblue" stroke="midnightblue" points="1570.82,-65.9913 1560.59,-68.7169 1570.29,-72.9708 1570.82,-65.9913"/>
</g>
<!-- Node2&#45;&gt;Node26 -->
<g id="edge50" class="edge"><title>Node2&#45;&gt;Node26</title>
<path fill="none" stroke="midnightblue" d="M988.973,-231.467C868.662,-227.313 565.922,-214.34 529,-188 513.944,-177.259 506.58,-156.859 503.061,-141.766"/>
<polygon fill="midnightblue" stroke="midnightblue" points="506.489,-141.063 501.122,-131.928 499.621,-142.416 506.489,-141.063"/>
</g>
<!-- Node28 -->
<g id="node29" class="node"><title>Node28</title>
<g id="a_node29"><a xlink:href="_t_i_d_8h.html" target="_top" xlink:title="tree/TID.h">
<polygon fill="white" stroke="black" points="330.5,-168.5 330.5,-187.5 393.5,-187.5 393.5,-168.5 330.5,-168.5"/>
<text text-anchor="middle" x="362" y="-175.5" font-family="Helvetica,sans-Serif" font-size="10.00">tree/TID.h</text>
</a>
</g>
</g>
<!-- Node2&#45;&gt;Node28 -->
<g id="edge36" class="edge"><title>Node2&#45;&gt;Node28</title>
<path fill="none" stroke="midnightblue" d="M988.839,-229.073C861.431,-218.895 522.235,-191.8 403.639,-182.326"/>
<polygon fill="midnightblue" stroke="midnightblue" points="403.762,-178.825 393.515,-181.518 403.205,-185.803 403.762,-178.825"/>
</g>
<!-- Node4 -->
<g id="node5" class="node"><title>Node4</title>
<g id="a_node5"><a xlink:href="types_8h.html" target="_top" xlink:title="types.h">
<polygon fill="white" stroke="black" points="861,-112.5 861,-131.5 913,-131.5 913,-112.5 861,-112.5"/>
<text text-anchor="middle" x="887" y="-119.5" font-family="Helvetica,sans-Serif" font-size="10.00">types.h</text>
</a>
</g>
</g>
<!-- Node3&#45;&gt;Node4 -->
<g id="edge4" class="edge"><title>Node3&#45;&gt;Node4</title>
<path fill="none" stroke="midnightblue" d="M819.014,-168.324C831.532,-159.979 850.682,-147.212 865.471,-137.352"/>
<polygon fill="midnightblue" stroke="midnightblue" points="867.639,-140.114 874.018,-131.655 863.756,-134.289 867.639,-140.114"/>
</g>
<!-- Node5 -->
<g id="node6" class="node"><title>Node5</title>
<polygon fill="white" stroke="#bfbfbf" points="910,-0.5 910,-19.5 972,-19.5 972,-0.5 910,-0.5"/>
<text text-anchor="middle" x="941" y="-7.5" font-family="Helvetica,sans-Serif" font-size="10.00">algorithm</text>
</g>
<!-- Node3&#45;&gt;Node5 -->
<g id="edge5" class="edge"><title>Node3&#45;&gt;Node5</title>
<path fill="none" stroke="midnightblue" d="M849.549,-170.985C874.515,-165.215 904.313,-153.95 922,-132 945.709,-102.576 945.658,-55.6978 943.409,-29.7752"/>
<polygon fill="midnightblue" stroke="midnightblue" points="946.882,-29.3379 942.336,-19.7681 939.922,-30.0842 946.882,-29.3379"/>
</g>
<!-- Node6 -->
<g id="node7" class="node"><title>Node6</title>
<polygon fill="white" stroke="#bfbfbf" points="669,-112.5 669,-131.5 733,-131.5 733,-112.5 669,-112.5"/>
<text text-anchor="middle" x="701" y="-119.5" font-family="Helvetica,sans-Serif" font-size="10.00">stdexcept</text>
</g>
<!-- Node3&#45;&gt;Node6 -->
<g id="edge6" class="edge"><title>Node3&#45;&gt;Node6</title>
<path fill="none" stroke="midnightblue" d="M789.13,-168.324C772.291,-159.664 746.193,-146.242 726.762,-136.249"/>
<polygon fill="midnightblue" stroke="midnightblue" points="728.322,-133.116 717.828,-131.655 725.12,-139.341 728.322,-133.116"/>
</g>
<!-- Node7 -->
<g id="node8" class="node"><title>Node7</title>
<polygon fill="white" stroke="#bfbfbf" points="609,-112.5 609,-131.5 651,-131.5 651,-112.5 609,-112.5"/>
<text text-anchor="middle" x="630" y="-119.5" font-family="Helvetica,sans-Serif" font-size="10.00">limits</text>
</g>
<!-- Node3&#45;&gt;Node7 -->
<g id="edge7" class="edge"><title>Node3&#45;&gt;Node7</title>
<path fill="none" stroke="midnightblue" d="M778.112,-168.444C746.138,-158.633 693.883,-142.6 660.753,-132.435"/>
<polygon fill="midnightblue" stroke="midnightblue" points="661.715,-129.07 651.129,-129.483 659.662,-135.762 661.715,-129.07"/>
</g>
<!-- Node8 -->
<g id="node9" class="node"><title>Node8</title>
<polygon fill="white" stroke="#bfbfbf" points="751.5,-112.5 751.5,-131.5 804.5,-131.5 804.5,-112.5 751.5,-112.5"/>
<text text-anchor="middle" x="778" y="-119.5" font-family="Helvetica,sans-Serif" font-size="10.00">istream</text>
</g>
<!-- Node3&#45;&gt;Node8 -->
<g id="edge8" class="edge"><title>Node3&#45;&gt;Node8</title>
<path fill="none" stroke="midnightblue" d="M801.376,-168.083C797.544,-160.691 791.976,-149.953 787.235,-140.811"/>
<polygon fill="midnightblue" stroke="midnightblue" points="790.248,-139.018 782.538,-131.751 784.034,-142.24 790.248,-139.018"/>
</g>
<!-- Node9 -->
<g id="node10" class="node"><title>Node9</title>
<polygon fill="white" stroke="#bfbfbf" points="680,-0.5 680,-19.5 736,-19.5 736,-0.5 680,-0.5"/>
<text text-anchor="middle" x="708" y="-7.5" font-family="Helvetica,sans-Serif" font-size="10.00">sstream</text>
</g>
<!-- Node3&#45;&gt;Node9 -->
<g id="edge9" class="edge"><title>Node3&#45;&gt;Node9</title>
<path fill="none" stroke="midnightblue" d="M762.281,-173.742C707.962,-168.681 619.973,-156.807 600,-132 594.426,-125.076 594.925,-119.297 600,-112 626.257,-74.2487 667.675,-111.42 697,-76 707.597,-63.2004 709.712,-44.0121 709.558,-29.7986"/>
<polygon fill="midnightblue" stroke="midnightblue" points="713.048,-29.5015 709.066,-19.6833 706.056,-29.8415 713.048,-29.5015"/>
</g>
<!-- Node10 -->
<g id="node11" class="node"><title>Node10</title>
<polygon fill="white" stroke="#bfbfbf" points="1093.5,-56.5 1093.5,-75.5 1140.5,-75.5 1140.5,-56.5 1093.5,-56.5"/>
<text text-anchor="middle" x="1117" y="-63.5" font-family="Helvetica,sans-Serif" font-size="10.00">cmath</text>
</g>
<!-- Node3&#45;&gt;Node10 -->
<g id="edge10" class="edge"><title>Node3&#45;&gt;Node10</title>
<path fill="none" stroke="midnightblue" d="M809.533,-168.115C815.761,-153.716 830.138,-125.537 852,-112 938.028,-58.7292 979.409,-95.3855 1083.36,-75.812"/>
<polygon fill="midnightblue" stroke="midnightblue" points="1084.17,-79.2188 1093.28,-73.81 1082.79,-72.3571 1084.17,-79.2188"/>
</g>
<!-- Node11&#45;&gt;Node6 -->
<g id="edge34" class="edge"><title>Node11&#45;&gt;Node6</title>
<path fill="none" stroke="midnightblue" d="M1223.33,-175.044C1132.01,-170.842 925.959,-159.168 743.217,-131.992"/>
<polygon fill="midnightblue" stroke="midnightblue" points="743.564,-128.505 733.155,-130.476 742.522,-135.427 743.564,-128.505"/>
</g>
<!-- Node12 -->
<g id="node13" class="node"><title>Node12</title>
<g id="a_node13"><a xlink:href="string_8h.html" target="_top" xlink:title="base/std_ext/string.h">
<polygon fill="white" stroke="black" points="571.5,-56.5 571.5,-75.5 688.5,-75.5 688.5,-56.5 571.5,-56.5"/>
<text text-anchor="middle" x="630" y="-63.5" font-family="Helvetica,sans-Serif" font-size="10.00">base/std_ext/string.h</text>
</a>
</g>
</g>
<!-- Node11&#45;&gt;Node12 -->
<g id="edge12" class="edge"><title>Node11&#45;&gt;Node12</title>
<path fill="none" stroke="midnightblue" d="M1223.35,-170.114C1169.61,-162.089 1079.69,-147.883 1003,-132 966.689,-124.48 958.36,-119.276 922,-112 846.046,-96.8019 758.093,-83.8754 698.727,-75.8291"/>
<polygon fill="midnightblue" stroke="midnightblue" points="699.096,-72.3473 688.718,-74.4821 698.162,-79.2847 699.096,-72.3473"/>
</g>
<!-- Node11&#45;&gt;Node13 -->
<g id="edge31" class="edge"><title>Node11&#45;&gt;Node13</title>
<path fill="none" stroke="midnightblue" d="M1223.31,-169.845C1175.52,-162.214 1100.06,-148.906 1036,-132 1009.23,-124.935 1003.39,-120.367 977,-112 863.471,-76.0096 727.445,-37.0768 666.84,-19.9467"/>
<polygon fill="midnightblue" stroke="midnightblue" points="667.673,-16.5451 657.098,-17.1974 665.772,-23.2819 667.673,-16.5451"/>
</g>
<!-- Node15 -->
<g id="node16" class="node"><title>Node15</title>
<g id="a_node16"><a xlink:href="misc_8h.html" target="_top" xlink:title="base/std_ext/misc.h">
<polygon fill="white" stroke="black" points="1045.5,-112.5 1045.5,-131.5 1158.5,-131.5 1158.5,-112.5 1045.5,-112.5"/>
<text text-anchor="middle" x="1102" y="-119.5" font-family="Helvetica,sans-Serif" font-size="10.00">base/std_ext/misc.h</text>
</a>
</g>
</g>
<!-- Node11&#45;&gt;Node15 -->
<g id="edge17" class="edge"><title>Node11&#45;&gt;Node15</title>
<path fill="none" stroke="midnightblue" d="M1244.22,-168.444C1215.67,-159.32 1170.27,-144.813 1138.46,-134.651"/>
<polygon fill="midnightblue" stroke="midnightblue" points="1139.24,-131.226 1128.65,-131.516 1137.11,-137.894 1139.24,-131.226"/>
</g>
<!-- Node11&#45;&gt;Node16 -->
<g id="edge35" class="edge"><title>Node11&#45;&gt;Node16</title>
<path fill="none" stroke="midnightblue" d="M1318.92,-171.538C1371.91,-164.86 1459.5,-151.926 1533,-132 1547.06,-128.187 1628.29,-97.0517 1674.27,-79.2928"/>
<polygon fill="midnightblue" stroke="midnightblue" points="1675.72,-82.486 1683.78,-75.6158 1673.2,-75.9569 1675.72,-82.486"/>
</g>
<!-- Node11&#45;&gt;Node19 -->
<g id="edge30" class="edge"><title>Node11&#45;&gt;Node19</title>
<path fill="none" stroke="midnightblue" d="M1318.69,-173.973C1380.89,-169.067 1485.07,-157.258 1513,-132 1525.93,-120.313 1530.25,-100.37 1531.61,-85.6485"/>
<polygon fill="midnightblue" stroke="midnightblue" points="1535.1,-85.8085 1532.15,-75.6323 1528.11,-85.4262 1535.1,-85.8085"/>
</g>
<!-- Node20 -->
<g id="node21" class="node"><title>Node20</title>
<polygon fill="white" stroke="#bfbfbf" points="1598,-112.5 1598,-131.5 1644,-131.5 1644,-112.5 1598,-112.5"/>
<text text-anchor="middle" x="1621" y="-119.5" font-family="Helvetica,sans-Serif" font-size="10.00">TFile.h</text>
</g>
<!-- Node11&#45;&gt;Node20 -->
<g id="edge24" class="edge"><title>Node11&#45;&gt;Node20</title>
<path fill="none" stroke="midnightblue" d="M1318.7,-171.585C1380.27,-164.265 1490.61,-150.028 1584,-132 1585.28,-131.753 1586.58,-131.491 1587.89,-131.218"/>
<polygon fill="midnightblue" stroke="midnightblue" points="1588.99,-134.559 1597.98,-128.96 1587.46,-127.728 1588.99,-134.559"/>
</g>
<!-- Node21 -->
<g id="node22" class="node"><title>Node21</title>
<polygon fill="white" stroke="#bfbfbf" points="1662.5,-112.5 1662.5,-131.5 1735.5,-131.5 1735.5,-112.5 1662.5,-112.5"/>
<text text-anchor="middle" x="1699" y="-119.5" font-family="Helvetica,sans-Serif" font-size="10.00">TDirectory.h</text>
</g>
<!-- Node11&#45;&gt;Node21 -->
<g id="edge25" class="edge"><title>Node11&#45;&gt;Node21</title>
<path fill="none" stroke="midnightblue" d="M1318.5,-172.575C1388.99,-165.752 1525.64,-151.54 1652.13,-132.021"/>
<polygon fill="midnightblue" stroke="midnightblue" points="1653.04,-135.422 1662.39,-130.424 1651.97,-128.505 1653.04,-135.422"/>
</g>
<!-- Node22 -->
<g id="node23" class="node"><title>Node22</title>
<polygon fill="white" stroke="#bfbfbf" points="1176.5,-112.5 1176.5,-131.5 1229.5,-131.5 1229.5,-112.5 1176.5,-112.5"/>
<text text-anchor="middle" x="1203" y="-119.5" font-family="Helvetica,sans-Serif" font-size="10.00">TError.h</text>
</g>
<!-- Node11&#45;&gt;Node22 -->
<g id="edge26" class="edge"><title>Node11&#45;&gt;Node22</title>
<path fill="none" stroke="midnightblue" d="M1260.07,-168.324C1249.83,-160.185 1234.28,-147.839 1222,-138.087"/>
<polygon fill="midnightblue" stroke="midnightblue" points="1224.13,-135.312 1214.12,-131.834 1219.78,-140.794 1224.13,-135.312"/>
</g>
<!-- Node23 -->
<g id="node24" class="node"><title>Node23</title>
<polygon fill="white" stroke="#bfbfbf" points="1247.5,-112.5 1247.5,-131.5 1294.5,-131.5 1294.5,-112.5 1247.5,-112.5"/>
<text text-anchor="middle" x="1271" y="-119.5" font-family="Helvetica,sans-Serif" font-size="10.00">TList.h</text>
</g>
<!-- Node11&#45;&gt;Node23 -->
<g id="edge27" class="edge"><title>Node11&#45;&gt;Node23</title>
<path fill="none" stroke="midnightblue" d="M1271,-168.083C1271,-161.006 1271,-150.861 1271,-141.986"/>
<polygon fill="midnightblue" stroke="midnightblue" points="1274.5,-141.751 1271,-131.751 1267.5,-141.751 1274.5,-141.751"/>
</g>
<!-- Node24 -->
<g id="node25" class="node"><title>Node24</title>
<polygon fill="white" stroke="#bfbfbf" points="1312.5,-112.5 1312.5,-131.5 1389.5,-131.5 1389.5,-112.5 1312.5,-112.5"/>
<text text-anchor="middle" x="1351" y="-119.5" font-family="Helvetica,sans-Serif" font-size="10.00">TCollection.h</text>
</g>
<!-- Node11&#45;&gt;Node24 -->
<g id="edge28" class="edge"><title>Node11&#45;&gt;Node24</title>
<path fill="none" stroke="midnightblue" d="M1283.85,-168.324C1296.22,-159.979 1315.13,-147.212 1329.74,-137.352"/>
<polygon fill="midnightblue" stroke="midnightblue" points="1331.85,-140.15 1338.18,-131.655 1327.93,-134.348 1331.85,-140.15"/>
</g>
<!-- Node25 -->
<g id="node26" class="node"><title>Node25</title>
<polygon fill="white" stroke="#bfbfbf" points="1408,-112.5 1408,-131.5 1454,-131.5 1454,-112.5 1408,-112.5"/>
<text text-anchor="middle" x="1431" y="-119.5" font-family="Helvetica,sans-Serif" font-size="10.00">TKey.h</text>
</g>
<!-- Node11&#45;&gt;Node25 -->
<g id="edge29" class="edge"><title>Node11&#45;&gt;Node25</title>
<path fill="none" stroke="midnightblue" d="M1296.35,-168.444C1323.9,-159.145 1368.02,-144.257 1398.19,-134.073"/>
<polygon fill="midnightblue" stroke="midnightblue" points="1399.49,-137.329 1407.84,-130.815 1397.25,-130.697 1399.49,-137.329"/>
</g>
<!-- Node11&#45;&gt;Node26 -->
<g id="edge32" class="edge"><title>Node11&#45;&gt;Node26</title>
<path fill="none" stroke="midnightblue" d="M1223.38,-174.18C1113.48,-167.592 833.666,-150.348 600,-132 574.516,-129.999 545.415,-127.337 525.202,-125.428"/>
<polygon fill="midnightblue" stroke="midnightblue" points="525.525,-121.943 515.238,-124.48 524.862,-128.912 525.525,-121.943"/>
</g>
<!-- Node27 -->
<g id="node28" class="node"><title>Node27</title>
<polygon fill="white" stroke="#bfbfbf" points="1472,-112.5 1472,-131.5 1504,-131.5 1504,-112.5 1472,-112.5"/>
<text text-anchor="middle" x="1488" y="-119.5" font-family="Helvetica,sans-Serif" font-size="10.00">set</text>
</g>
<!-- Node11&#45;&gt;Node27 -->
<g id="edge33" class="edge"><title>Node11&#45;&gt;Node27</title>
<path fill="none" stroke="midnightblue" d="M1313.69,-168.47C1350.71,-160.746 1405.84,-148.456 1462.17,-131.986"/>
<polygon fill="midnightblue" stroke="midnightblue" points="1463.36,-135.283 1471.95,-129.085 1461.37,-128.572 1463.36,-135.283"/>
</g>
<!-- Node12&#45;&gt;Node5 -->
<g id="edge15" class="edge"><title>Node12&#45;&gt;Node5</title>
<path fill="none" stroke="midnightblue" d="M679.279,-56.4435C740.228,-45.8608 842.881,-28.0367 899.826,-18.1492"/>
<polygon fill="midnightblue" stroke="midnightblue" points="900.653,-21.5581 909.907,-16.3989 899.455,-14.6613 900.653,-21.5581"/>
</g>
<!-- Node12&#45;&gt;Node9 -->
<g id="edge14" class="edge"><title>Node12&#45;&gt;Node9</title>
<path fill="none" stroke="midnightblue" d="M642.532,-56.324C654.586,-47.979 673.027,-35.2122 687.269,-25.3524"/>
<polygon fill="midnightblue" stroke="midnightblue" points="689.269,-28.2243 695.499,-19.6545 685.285,-22.469 689.269,-28.2243"/>
</g>
<!-- Node12&#45;&gt;Node13 -->
<g id="edge13" class="edge"><title>Node12&#45;&gt;Node13</title>
<path fill="none" stroke="midnightblue" d="M630.826,-56.083C631.481,-49.0059 632.42,-38.8611 633.242,-29.9865"/>
<polygon fill="midnightblue" stroke="midnightblue" points="636.753,-30.0312 634.19,-19.7511 629.783,-29.3858 636.753,-30.0312"/>
</g>
<!-- Node14 -->
<g id="node15" class="node"><title>Node14</title>
<polygon fill="white" stroke="#bfbfbf" points="547.5,-0.5 547.5,-19.5 594.5,-19.5 594.5,-0.5 547.5,-0.5"/>
<text text-anchor="middle" x="571" y="-7.5" font-family="Helvetica,sans-Serif" font-size="10.00">vector</text>
</g>
<!-- Node12&#45;&gt;Node14 -->
<g id="edge16" class="edge"><title>Node12&#45;&gt;Node14</title>
<path fill="none" stroke="midnightblue" d="M620.521,-56.324C611.799,-48.3414 598.657,-36.3128 588.102,-26.6529"/>
<polygon fill="midnightblue" stroke="midnightblue" points="590.392,-24.0036 580.652,-19.8339 585.666,-29.1674 590.392,-24.0036"/>
</g>
<!-- Node15&#45;&gt;Node5 -->
<g id="edge18" class="edge"><title>Node15&#45;&gt;Node5</title>
<path fill="none" stroke="midnightblue" d="M1116.13,-112.373C1135.11,-99.7183 1164.74,-75.5087 1149,-56 1128.46,-30.5394 1036.81,-18.7703 982.252,-13.9338"/>
<polygon fill="midnightblue" stroke="midnightblue" points="982.456,-10.4386 972.196,-13.0832 981.866,-17.4136 982.456,-10.4386"/>
</g>
<!-- Node15&#45;&gt;Node10 -->
<g id="edge20" class="edge"><title>Node15&#45;&gt;Node10</title>
<path fill="none" stroke="midnightblue" d="M1104.48,-112.083C1106.49,-104.849 1109.39,-94.4087 1111.89,-85.3968"/>
<polygon fill="midnightblue" stroke="midnightblue" points="1115.26,-86.323 1114.57,-75.7511 1108.52,-84.4495 1115.26,-86.323"/>
</g>
<!-- Node15&#45;&gt;Node16 -->
<g id="edge19" class="edge"><title>Node15&#45;&gt;Node16</title>
<path fill="none" stroke="midnightblue" d="M1158.5,-113.098C1161.71,-112.711 1164.9,-112.341 1168,-112 1352.62,-91.7056 1573.77,-75.8673 1664.28,-69.7459"/>
<polygon fill="midnightblue" stroke="midnightblue" points="1664.67,-73.2281 1674.41,-69.0648 1664.2,-66.2438 1664.67,-73.2281"/>
</g>
<!-- Node17 -->
<g id="node18" class="node"><title>Node17</title>
<polygon fill="white" stroke="#bfbfbf" points="1197,-56.5 1197,-75.5 1253,-75.5 1253,-56.5 1197,-56.5"/>
<text text-anchor="middle" x="1225" y="-63.5" font-family="Helvetica,sans-Serif" font-size="10.00">cxxabi.h</text>
</g>
<!-- Node15&#45;&gt;Node17 -->
<g id="edge21" class="edge"><title>Node15&#45;&gt;Node17</title>
<path fill="none" stroke="midnightblue" d="M1121.49,-112.444C1141.64,-103.596 1173.32,-89.6875 1196.33,-79.5865"/>
<polygon fill="midnightblue" stroke="midnightblue" points="1197.85,-82.7411 1205.6,-75.5164 1195.04,-76.3316 1197.85,-82.7411"/>
</g>
<!-- Node18 -->
<g id="node19" class="node"><title>Node18</title>
<polygon fill="white" stroke="#bfbfbf" points="1007,-56.5 1007,-75.5 1075,-75.5 1075,-56.5 1007,-56.5"/>
<text text-anchor="middle" x="1041" y="-63.5" font-family="Helvetica,sans-Serif" font-size="10.00">type_traits</text>
</g>
<!-- Node15&#45;&gt;Node18 -->
<g id="edge22" class="edge"><title>Node15&#45;&gt;Node18</title>
<path fill="none" stroke="midnightblue" d="M1092.2,-112.324C1083.18,-104.341 1069.59,-92.3128 1058.68,-82.6529"/>
<polygon fill="midnightblue" stroke="midnightblue" points="1060.79,-79.8416 1050.98,-75.8339 1056.15,-85.083 1060.79,-79.8416"/>
</g>
<!-- Node15&#45;&gt;Node19 -->
<g id="edge23" class="edge"><title>Node15&#45;&gt;Node19</title>
<path fill="none" stroke="midnightblue" d="M1158.52,-113.245C1161.73,-112.82 1164.9,-112.402 1168,-112 1286.38,-96.6122 1426.58,-79.6293 1493.16,-71.6395"/>
<polygon fill="midnightblue" stroke="midnightblue" points="1493.69,-75.1015 1503.2,-70.4361 1492.85,-68.1513 1493.69,-75.1015"/>
</g>
<!-- Node28&#45;&gt;Node6 -->
<g id="edge45" class="edge"><title>Node28&#45;&gt;Node6</title>
<path fill="none" stroke="midnightblue" d="M393.87,-172.893C446.808,-165.918 556.403,-150.833 658.916,-132.101"/>
<polygon fill="midnightblue" stroke="midnightblue" points="659.612,-135.531 668.812,-130.277 658.343,-128.647 659.612,-135.531"/>
</g>
<!-- Node28&#45;&gt;Node18 -->
<g id="edge42" class="edge"><title>Node28&#45;&gt;Node18</title>
<path fill="none" stroke="midnightblue" d="M376.525,-168.244C404.797,-151.272 465.386,-115.27 476,-112 573.006,-82.1157 880.608,-71.1726 996.367,-68.0503"/>
<polygon fill="midnightblue" stroke="midnightblue" points="996.731,-71.5421 1006.64,-67.7804 996.547,-64.5445 996.731,-71.5421"/>
</g>
<!-- Node28&#45;&gt;Node26 -->
<g id="edge46" class="edge"><title>Node28&#45;&gt;Node26</title>
<path fill="none" stroke="midnightblue" d="M383.867,-168.444C408.691,-158.729 449.108,-142.914 475.119,-132.736"/>
<polygon fill="midnightblue" stroke="midnightblue" points="476.608,-135.912 484.645,-129.008 474.057,-129.393 476.608,-135.912"/>
</g>
<!-- Node29 -->
<g id="node30" class="node"><title>Node29</title>
<polygon fill="white" stroke="#bfbfbf" points="371,-112.5 371,-131.5 429,-131.5 429,-112.5 371,-112.5"/>
<text text-anchor="middle" x="400" y="-119.5" font-family="Helvetica,sans-Serif" font-size="10.00">Rtypes.h</text>
</g>
<!-- Node28&#45;&gt;Node29 -->
<g id="edge37" class="edge"><title>Node28&#45;&gt;Node29</title>
<path fill="none" stroke="midnightblue" d="M368.275,-168.083C373.642,-160.455 381.518,-149.264 388.079,-139.941"/>
<polygon fill="midnightblue" stroke="midnightblue" points="390.949,-141.943 393.842,-131.751 385.225,-137.915 390.949,-141.943"/>
</g>
<!-- Node30 -->
<g id="node31" class="node"><title>Node30</title>
<g id="a_node31"><a xlink:href="base_2std__ext_2_time_8h.html" target="_top" xlink:title="base/std_ext/time.h">
<polygon fill="white" stroke="black" points="41,-112.5 41,-131.5 153,-131.5 153,-112.5 41,-112.5"/>
<text text-anchor="middle" x="97" y="-119.5" font-family="Helvetica,sans-Serif" font-size="10.00">base/std_ext/time.h</text>
</a>
</g>
</g>
<!-- Node28&#45;&gt;Node30 -->
<g id="edge38" class="edge"><title>Node28&#45;&gt;Node30</title>
<path fill="none" stroke="midnightblue" d="M330.298,-170.54C285.384,-161.388 202.706,-144.54 148.805,-133.556"/>
<polygon fill="midnightblue" stroke="midnightblue" points="149.257,-130.077 138.759,-131.509 147.859,-136.936 149.257,-130.077"/>
</g>
<!-- Node32 -->
<g id="node33" class="node"><title>Node32</title>
<polygon fill="white" stroke="#bfbfbf" points="0,-56.5 0,-75.5 44,-75.5 44,-56.5 0,-56.5"/>
<text text-anchor="middle" x="22" y="-63.5" font-family="Helvetica,sans-Serif" font-size="10.00">ctime</text>
</g>
<!-- Node28&#45;&gt;Node32 -->
<g id="edge48" class="edge"><title>Node28&#45;&gt;Node32</title>
<path fill="none" stroke="midnightblue" d="M330.257,-177.303C255.933,-177.311 73.7502,-173.041 32,-132 19.9317,-120.137 18.4858,-100.221 19.4076,-85.5549"/>
<polygon fill="midnightblue" stroke="midnightblue" points="22.8916,-85.8893 20.4372,-75.5827 15.9286,-85.1703 22.8916,-85.8893"/>
</g>
<!-- Node33 -->
<g id="node34" class="node"><title>Node33</title>
<polygon fill="white" stroke="#bfbfbf" points="171.5,-112.5 171.5,-131.5 212.5,-131.5 212.5,-112.5 171.5,-112.5"/>
<text text-anchor="middle" x="192" y="-119.5" font-family="Helvetica,sans-Serif" font-size="10.00">tuple</text>
</g>
<!-- Node28&#45;&gt;Node33 -->
<g id="edge43" class="edge"><title>Node28&#45;&gt;Node33</title>
<path fill="none" stroke="midnightblue" d="M335.063,-168.444C304.396,-158.702 254.415,-142.826 222.383,-132.651"/>
<polygon fill="midnightblue" stroke="midnightblue" points="223.252,-129.255 212.661,-129.563 221.133,-135.926 223.252,-129.255"/>
</g>
<!-- Node34 -->
<g id="node35" class="node"><title>Node34</title>
<polygon fill="white" stroke="#bfbfbf" points="230.5,-112.5 230.5,-131.5 279.5,-131.5 279.5,-112.5 230.5,-112.5"/>
<text text-anchor="middle" x="255" y="-119.5" font-family="Helvetica,sans-Serif" font-size="10.00">cstdint</text>
</g>
<!-- Node28&#45;&gt;Node34 -->
<g id="edge44" class="edge"><title>Node28&#45;&gt;Node34</title>
<path fill="none" stroke="midnightblue" d="M344.809,-168.324C327.649,-159.664 301.054,-146.242 281.253,-136.249"/>
<polygon fill="midnightblue" stroke="midnightblue" points="282.653,-133.035 272.149,-131.655 279.499,-139.285 282.653,-133.035"/>
</g>
<!-- Node35 -->
<g id="node36" class="node"><title>Node35</title>
<polygon fill="white" stroke="#bfbfbf" points="297.5,-112.5 297.5,-131.5 352.5,-131.5 352.5,-112.5 297.5,-112.5"/>
<text text-anchor="middle" x="325" y="-119.5" font-family="Helvetica,sans-Serif" font-size="10.00">iomanip</text>
</g>
<!-- Node28&#45;&gt;Node35 -->
<g id="edge47" class="edge"><title>Node28&#45;&gt;Node35</title>
<path fill="none" stroke="midnightblue" d="M355.89,-168.083C350.718,-160.534 343.154,-149.495 336.806,-140.23"/>
<polygon fill="midnightblue" stroke="midnightblue" points="339.536,-138.022 330.996,-131.751 333.761,-141.979 339.536,-138.022"/>
</g>
<!-- Node30&#45;&gt;Node12 -->
<g id="edge39" class="edge"><title>Node30&#45;&gt;Node12</title>
<path fill="none" stroke="midnightblue" d="M153.001,-113.095C156.043,-112.713 159.058,-112.345 162,-112 303.485,-95.41 469.568,-80.5257 560.954,-72.7318"/>
<polygon fill="midnightblue" stroke="midnightblue" points="561.513,-76.1969 571.181,-71.8626 560.921,-69.2221 561.513,-76.1969"/>
</g>
<!-- Node31 -->
<g id="node32" class="node"><title>Node31</title>
<polygon fill="white" stroke="#bfbfbf" points="72.5,-56.5 72.5,-75.5 121.5,-75.5 121.5,-56.5 72.5,-56.5"/>
<text text-anchor="middle" x="97" y="-63.5" font-family="Helvetica,sans-Serif" font-size="10.00">cstring</text>
</g>
<!-- Node30&#45;&gt;Node31 -->
<g id="edge40" class="edge"><title>Node30&#45;&gt;Node31</title>
<path fill="none" stroke="midnightblue" d="M97,-112.083C97,-105.006 97,-94.8611 97,-85.9865"/>
<polygon fill="midnightblue" stroke="midnightblue" points="100.5,-85.751 97,-75.7511 93.5001,-85.7511 100.5,-85.751"/>
</g>
<!-- Node30&#45;&gt;Node32 -->
<g id="edge41" class="edge"><title>Node30&#45;&gt;Node32</title>
<path fill="none" stroke="midnightblue" d="M84.95,-112.324C73.5369,-104.107 56.169,-91.6017 42.5651,-81.8069"/>
<polygon fill="midnightblue" stroke="midnightblue" points="44.4297,-78.8366 34.2693,-75.8339 40.3396,-84.5174 44.4297,-78.8366"/>
</g>
</g>
</svg>
