<?xml version="1.0" encoding="UTF-8" standalone="no"?>
<!DOCTYPE svg PUBLIC "-//W3C//DTD SVG 1.1//EN"
 "http://www.w3.org/Graphics/SVG/1.1/DTD/svg11.dtd">
<!-- Generated by graphviz version 2.38.0 (20140413.2041)
 -->
<!-- Title: src/calibration/gui/Manager_traits.h Pages: 1 -->
<svg width="1715pt" height="263pt"
 viewBox="0.00 0.00 1715.30 263.00" xmlns="http://www.w3.org/2000/svg" xmlns:xlink="http://www.w3.org/1999/xlink">
<g id="graph0" class="graph" transform="scale(1 1) rotate(0) translate(4 259)">
<title>src/calibration/gui/Manager_traits.h</title>
<polygon fill="white" stroke="none" points="-4,4 -4,-259 1711.3,-259 1711.3,4 -4,4"/>
<!-- Node0 -->
<g id="node1" class="node"><title>Node0</title>
<polygon fill="#bfbfbf" stroke="black" points="1211.42,-224.5 1211.42,-254.5 1312.42,-254.5 1312.42,-224.5 1211.42,-224.5"/>
<text text-anchor="start" x="1219.42" y="-242.5" font-family="Helvetica,sans-Serif" font-size="10.00">src/calibration/gui</text>
<text text-anchor="middle" x="1261.92" y="-231.5" font-family="Helvetica,sans-Serif" font-size="10.00">/Manager_traits.h</text>
</g>
<!-- Node1 -->
<g id="node2" class="node"><title>Node1</title>
<g id="a_node2"><a xlink:href="interval_8h.html" target="_top" xlink:title="base/interval.h">
<polygon fill="white" stroke="black" points="158.42,-168.5 158.42,-187.5 245.42,-187.5 245.42,-168.5 158.42,-168.5"/>
<text text-anchor="middle" x="201.92" y="-175.5" font-family="Helvetica,sans-Serif" font-size="10.00">base/interval.h</text>
</a>
</g>
</g>
<!-- Node0&#45;&gt;Node1 -->
<g id="edge1" class="edge"><title>Node0&#45;&gt;Node1</title>
<path fill="none" stroke="midnightblue" d="M1211.15,-235.65C1033.21,-225.662 438.699,-192.291 255.878,-182.029"/>
<polygon fill="midnightblue" stroke="midnightblue" points="255.882,-178.524 245.702,-181.458 255.49,-185.513 255.882,-178.524"/>
</g>
<!-- Node9 -->
<g id="node10" class="node"><title>Node9</title>
<g id="a_node10"><a xlink:href="_wrap_t_file_8h.html" target="_top" xlink:title="base/WrapTFile.h">
<polygon fill="white" stroke="black" points="1214.42,-168.5 1214.42,-187.5 1309.42,-187.5 1309.42,-168.5 1214.42,-168.5"/>
<text text-anchor="middle" x="1261.92" y="-175.5" font-family="Helvetica,sans-Serif" font-size="10.00">base/WrapTFile.h</text>
</a>
</g>
</g>
<!-- Node0&#45;&gt;Node9 -->
<g id="edge9" class="edge"><title>Node0&#45;&gt;Node9</title>
<path fill="none" stroke="midnightblue" d="M1261.92,-224.399C1261.92,-216.466 1261.92,-206.458 1261.92,-197.858"/>
<polygon fill="midnightblue" stroke="midnightblue" points="1265.42,-197.658 1261.92,-187.658 1258.42,-197.658 1265.42,-197.658"/>
</g>
<!-- Node11 -->
<g id="node12" class="node"><title>Node11</title>
<polygon fill="white" stroke="#bfbfbf" points="1339.92,-0.5 1339.92,-19.5 1383.92,-19.5 1383.92,-0.5 1339.92,-0.5"/>
<text text-anchor="middle" x="1361.92" y="-7.5" font-family="Helvetica,sans-Serif" font-size="10.00">string</text>
</g>
<!-- Node0&#45;&gt;Node11 -->
<g id="edge47" class="edge"><title>Node0&#45;&gt;Node11</title>
<path fill="none" stroke="midnightblue" d="M1312.69,-234.829C1397.27,-228.124 1562.95,-212.308 1615.92,-188 1673.45,-161.595 1691.19,-138.012 1703.92,-76 1705.71,-67.2926 1709.78,-62.6828 1703.92,-56 1683.63,-32.8665 1475.49,-17.8736 1394.2,-12.8605"/>
<polygon fill="midnightblue" stroke="midnightblue" points="1394.24,-9.35656 1384.05,-12.2458 1393.82,-16.3438 1394.24,-9.35656"/>
</g>
<!-- Node14 -->
<g id="node15" class="node"><title>Node14</title>
<polygon fill="white" stroke="#bfbfbf" points="1390.42,-56.5 1390.42,-75.5 1453.42,-75.5 1453.42,-56.5 1390.42,-56.5"/>
<text text-anchor="middle" x="1421.92" y="-63.5" font-family="Helvetica,sans-Serif" font-size="10.00">functional</text>
</g>
<!-- Node0&#45;&gt;Node14 -->
<g id="edge50" class="edge"><title>Node0&#45;&gt;Node14</title>
<path fill="none" stroke="midnightblue" d="M1312.66,-232.053C1407.64,-218.831 1606.34,-185.327 1646.92,-132 1652.3,-124.926 1652.56,-118.874 1646.92,-112 1624.23,-84.3184 1522.52,-73.3257 1463.91,-69.2322"/>
<polygon fill="midnightblue" stroke="midnightblue" points="1464.06,-65.7342 1453.85,-68.5673 1463.59,-72.719 1464.06,-65.7342"/>
</g>
<!-- Node17 -->
<g id="node18" class="node"><title>Node17</title>
<polygon fill="white" stroke="#bfbfbf" points="1637.42,-56.5 1637.42,-75.5 1694.42,-75.5 1694.42,-56.5 1637.42,-56.5"/>
<text text-anchor="middle" x="1665.92" y="-63.5" font-family="Helvetica,sans-Serif" font-size="10.00">memory</text>
</g>
<!-- Node0&#45;&gt;Node17 -->
<g id="edge49" class="edge"><title>Node0&#45;&gt;Node17</title>
<path fill="none" stroke="midnightblue" d="M1312.42,-236.844C1376.07,-233.323 1487.91,-222.328 1576.92,-188 1619.48,-171.588 1640.26,-171.586 1662.92,-132 1670.9,-118.06 1670.94,-99.5527 1669.4,-85.8526"/>
<polygon fill="midnightblue" stroke="midnightblue" points="1672.82,-85.0505 1667.87,-75.6808 1665.9,-86.0895 1672.82,-85.0505"/>
</g>
<!-- Node24 -->
<g id="node25" class="node"><title>Node24</title>
<polygon fill="white" stroke="#bfbfbf" points="859.92,-112.5 859.92,-131.5 889.92,-131.5 889.92,-112.5 859.92,-112.5"/>
<text text-anchor="middle" x="874.92" y="-119.5" font-family="Helvetica,sans-Serif" font-size="10.00">list</text>
</g>
<!-- Node0&#45;&gt;Node24 -->
<g id="edge48" class="edge"><title>Node0&#45;&gt;Node24</title>
<path fill="none" stroke="midnightblue" d="M1214.09,-224.467C1145.39,-204.264 1014.82,-165.703 903.92,-132 902.501,-131.569 901.044,-131.124 899.575,-130.673"/>
<polygon fill="midnightblue" stroke="midnightblue" points="900.549,-127.311 889.961,-127.705 898.483,-133.999 900.549,-127.311"/>
</g>
<!-- Node26 -->
<g id="node27" class="node"><title>Node26</title>
<g id="a_node27"><a xlink:href="_t_i_d_8h.html" target="_top" xlink:title="tree/TID.h">
<polygon fill="white" stroke="black" points="633.42,-168.5 633.42,-187.5 696.42,-187.5 696.42,-168.5 633.42,-168.5"/>
<text text-anchor="middle" x="664.92" y="-175.5" font-family="Helvetica,sans-Serif" font-size="10.00">tree/TID.h</text>
</a>
</g>
</g>
<!-- Node0&#45;&gt;Node26 -->
<g id="edge34" class="edge"><title>Node0&#45;&gt;Node26</title>
<path fill="none" stroke="midnightblue" d="M1211.28,-233.453C1095.48,-221.912 813.144,-193.773 706.569,-183.151"/>
<polygon fill="midnightblue" stroke="midnightblue" points="706.818,-179.658 696.52,-182.149 706.123,-186.624 706.818,-179.658"/>
</g>
<!-- Node2 -->
<g id="node3" class="node"><title>Node2</title>
<g id="a_node3"><a xlink:href="types_8h.html" target="_top" xlink:title="types.h">
<polygon fill="white" stroke="black" points="148.92,-112.5 148.92,-131.5 200.92,-131.5 200.92,-112.5 148.92,-112.5"/>
<text text-anchor="middle" x="174.92" y="-119.5" font-family="Helvetica,sans-Serif" font-size="10.00">types.h</text>
</a>
</g>
</g>
<!-- Node1&#45;&gt;Node2 -->
<g id="edge2" class="edge"><title>Node1&#45;&gt;Node2</title>
<path fill="none" stroke="midnightblue" d="M197.461,-168.083C193.766,-160.691 188.396,-149.953 183.825,-140.811"/>
<polygon fill="midnightblue" stroke="midnightblue" points="186.898,-139.13 179.295,-131.751 180.637,-142.261 186.898,-139.13"/>
</g>
<!-- Node3 -->
<g id="node4" class="node"><title>Node3</title>
<polygon fill="white" stroke="#bfbfbf" points="718.92,-0.5 718.92,-19.5 780.92,-19.5 780.92,-0.5 718.92,-0.5"/>
<text text-anchor="middle" x="749.92" y="-7.5" font-family="Helvetica,sans-Serif" font-size="10.00">algorithm</text>
</g>
<!-- Node1&#45;&gt;Node3 -->
<g id="edge3" class="edge"><title>Node1&#45;&gt;Node3</title>
<path fill="none" stroke="midnightblue" d="M204.149,-168.418C210.88,-143.206 231.712,-70.2405 250.92,-56 287.346,-28.9936 595.509,-16.1263 708.557,-12.2825"/>
<polygon fill="midnightblue" stroke="midnightblue" points="708.994,-15.77 718.872,-11.9386 708.761,-8.77387 708.994,-15.77"/>
</g>
<!-- Node4 -->
<g id="node5" class="node"><title>Node4</title>
<polygon fill="white" stroke="#bfbfbf" points="522.92,-112.5 522.92,-131.5 586.92,-131.5 586.92,-112.5 522.92,-112.5"/>
<text text-anchor="middle" x="554.92" y="-119.5" font-family="Helvetica,sans-Serif" font-size="10.00">stdexcept</text>
</g>
<!-- Node1&#45;&gt;Node4 -->
<g id="edge4" class="edge"><title>Node1&#45;&gt;Node4</title>
<path fill="none" stroke="midnightblue" d="M245.592,-171.625C305.904,-163.987 418.007,-149.016 512.92,-132 513.021,-131.982 513.122,-131.964 513.223,-131.946"/>
<polygon fill="midnightblue" stroke="midnightblue" points="513.696,-135.419 522.86,-130.103 512.381,-128.543 513.696,-135.419"/>
</g>
<!-- Node5 -->
<g id="node6" class="node"><title>Node5</title>
<polygon fill="white" stroke="#bfbfbf" points="16.9199,-112.5 16.9199,-131.5 58.9199,-131.5 58.9199,-112.5 16.9199,-112.5"/>
<text text-anchor="middle" x="37.9199" y="-119.5" font-family="Helvetica,sans-Serif" font-size="10.00">limits</text>
</g>
<!-- Node1&#45;&gt;Node5 -->
<g id="edge5" class="edge"><title>Node1&#45;&gt;Node5</title>
<path fill="none" stroke="midnightblue" d="M175.934,-168.444C146.883,-158.878 99.8661,-143.397 68.9203,-133.207"/>
<polygon fill="midnightblue" stroke="midnightblue" points="69.684,-129.774 59.091,-129.971 67.4947,-136.423 69.684,-129.774"/>
</g>
<!-- Node6 -->
<g id="node7" class="node"><title>Node6</title>
<polygon fill="white" stroke="#bfbfbf" points="77.4199,-112.5 77.4199,-131.5 130.42,-131.5 130.42,-112.5 77.4199,-112.5"/>
<text text-anchor="middle" x="103.92" y="-119.5" font-family="Helvetica,sans-Serif" font-size="10.00">istream</text>
</g>
<!-- Node1&#45;&gt;Node6 -->
<g id="edge6" class="edge"><title>Node1&#45;&gt;Node6</title>
<path fill="none" stroke="midnightblue" d="M186.174,-168.324C170.601,-159.743 146.543,-146.486 128.461,-136.522"/>
<polygon fill="midnightblue" stroke="midnightblue" points="130.074,-133.415 119.626,-131.655 126.695,-139.546 130.074,-133.415"/>
</g>
<!-- Node7 -->
<g id="node8" class="node"><title>Node7</title>
<polygon fill="white" stroke="#bfbfbf" points="320.92,-0.5 320.92,-19.5 376.92,-19.5 376.92,-0.5 320.92,-0.5"/>
<text text-anchor="middle" x="348.92" y="-7.5" font-family="Helvetica,sans-Serif" font-size="10.00">sstream</text>
</g>
<!-- Node1&#45;&gt;Node7 -->
<g id="edge7" class="edge"><title>Node1&#45;&gt;Node7</title>
<path fill="none" stroke="midnightblue" d="M158.299,-176.972C89.6855,-175.346 -31.7707,-165.151 7.91985,-112 44.5574,-62.9376 229.122,-29.2714 310.397,-16.5956"/>
<polygon fill="midnightblue" stroke="midnightblue" points="311.343,-19.9915 320.697,-15.0157 310.282,-13.0724 311.343,-19.9915"/>
</g>
<!-- Node8 -->
<g id="node9" class="node"><title>Node8</title>
<polygon fill="white" stroke="#bfbfbf" points="929.42,-56.5 929.42,-75.5 976.42,-75.5 976.42,-56.5 929.42,-56.5"/>
<text text-anchor="middle" x="952.92" y="-63.5" font-family="Helvetica,sans-Serif" font-size="10.00">cmath</text>
</g>
<!-- Node1&#45;&gt;Node8 -->
<g id="edge8" class="edge"><title>Node1&#45;&gt;Node8</title>
<path fill="none" stroke="midnightblue" d="M245.522,-171.45C289.466,-165.023 358.773,-152.593 415.92,-132 433.875,-125.53 435.616,-117.405 453.92,-112 625.109,-61.4517 676.149,-92.0802 853.92,-76 875.674,-74.0323 900.115,-71.8104 919.27,-70.0667"/>
<polygon fill="midnightblue" stroke="midnightblue" points="919.676,-73.5443 929.317,-69.1518 919.041,-66.5732 919.676,-73.5443"/>
</g>
<!-- Node9&#45;&gt;Node4 -->
<g id="edge32" class="edge"><title>Node9&#45;&gt;Node4</title>
<path fill="none" stroke="midnightblue" d="M1214.02,-176.201C1105.74,-173.873 833.791,-165.086 597.237,-131.972"/>
<polygon fill="midnightblue" stroke="midnightblue" points="597.459,-128.468 587.066,-130.53 596.476,-135.399 597.459,-128.468"/>
</g>
<!-- Node10 -->
<g id="node11" class="node"><title>Node10</title>
<g id="a_node11"><a xlink:href="string_8h.html" target="_top" xlink:title="base/std_ext/string.h">
<polygon fill="white" stroke="black" points="728.42,-56.5 728.42,-75.5 845.42,-75.5 845.42,-56.5 728.42,-56.5"/>
<text text-anchor="middle" x="786.92" y="-63.5" font-family="Helvetica,sans-Serif" font-size="10.00">base/std_ext/string.h</text>
</a>
</g>
</g>
<!-- Node9&#45;&gt;Node10 -->
<g id="edge10" class="edge"><title>Node9&#45;&gt;Node10</title>
<path fill="none" stroke="midnightblue" d="M1214.23,-175.538C1149.85,-172.418 1032.23,-162.638 936.92,-132 918.75,-126.159 916.242,-120.013 898.92,-112 872.743,-99.8915 842.34,-87.7957 819.822,-79.1989"/>
<polygon fill="midnightblue" stroke="midnightblue" points="820.973,-75.8925 810.382,-75.6236 818.494,-82.4387 820.973,-75.8925"/>
</g>
<!-- Node9&#45;&gt;Node11 -->
<g id="edge29" class="edge"><title>Node9&#45;&gt;Node11</title>
<path fill="none" stroke="midnightblue" d="M1290.37,-168.43C1308.31,-161.515 1330.39,-149.936 1342.92,-132 1364.46,-101.161 1365.3,-55.1618 1363.77,-29.6821"/>
<polygon fill="midnightblue" stroke="midnightblue" points="1367.24,-29.2378 1362.96,-19.5472 1360.27,-29.7935 1367.24,-29.2378"/>
</g>
<!-- Node13 -->
<g id="node14" class="node"><title>Node13</title>
<g id="a_node14"><a xlink:href="misc_8h.html" target="_top" xlink:title="base/std_ext/misc.h">
<polygon fill="white" stroke="black" points="1156.42,-112.5 1156.42,-131.5 1269.42,-131.5 1269.42,-112.5 1156.42,-112.5"/>
<text text-anchor="middle" x="1212.92" y="-119.5" font-family="Helvetica,sans-Serif" font-size="10.00">base/std_ext/misc.h</text>
</a>
</g>
</g>
<!-- Node9&#45;&gt;Node13 -->
<g id="edge15" class="edge"><title>Node9&#45;&gt;Node13</title>
<path fill="none" stroke="midnightblue" d="M1253.83,-168.083C1246.76,-160.298 1236.33,-148.801 1227.77,-139.367"/>
<polygon fill="midnightblue" stroke="midnightblue" points="1230.17,-136.805 1220.86,-131.751 1224.99,-141.509 1230.17,-136.805"/>
</g>
<!-- Node9&#45;&gt;Node14 -->
<g id="edge33" class="edge"><title>Node9&#45;&gt;Node14</title>
<path fill="none" stroke="midnightblue" d="M1298.32,-168.46C1322.18,-161.535 1353.07,-149.932 1375.92,-132 1392.18,-119.239 1405.14,-99.2154 1413.1,-84.7632"/>
<polygon fill="midnightblue" stroke="midnightblue" points="1416.25,-86.2873 1417.8,-75.8057 1410.06,-83.0363 1416.25,-86.2873"/>
</g>
<!-- Node9&#45;&gt;Node17 -->
<g id="edge28" class="edge"><title>Node9&#45;&gt;Node17</title>
<path fill="none" stroke="midnightblue" d="M1309.6,-177.77C1401.16,-178.256 1596.99,-174.176 1646.92,-132 1660.23,-120.755 1664.5,-100.742 1665.73,-85.884"/>
<polygon fill="midnightblue" stroke="midnightblue" points="1669.23,-85.9027 1666.18,-75.7569 1662.24,-85.5913 1669.23,-85.9027"/>
</g>
<!-- Node18 -->
<g id="node19" class="node"><title>Node18</title>
<polygon fill="white" stroke="#bfbfbf" points="1287.92,-112.5 1287.92,-131.5 1333.92,-131.5 1333.92,-112.5 1287.92,-112.5"/>
<text text-anchor="middle" x="1310.92" y="-119.5" font-family="Helvetica,sans-Serif" font-size="10.00">TFile.h</text>
</g>
<!-- Node9&#45;&gt;Node18 -->
<g id="edge22" class="edge"><title>Node9&#45;&gt;Node18</title>
<path fill="none" stroke="midnightblue" d="M1270.01,-168.083C1277.08,-160.298 1287.51,-148.801 1296.07,-139.367"/>
<polygon fill="midnightblue" stroke="midnightblue" points="1298.85,-141.509 1302.98,-131.751 1293.67,-136.805 1298.85,-141.509"/>
</g>
<!-- Node19 -->
<g id="node20" class="node"><title>Node19</title>
<polygon fill="white" stroke="#bfbfbf" points="1428.42,-112.5 1428.42,-131.5 1501.42,-131.5 1501.42,-112.5 1428.42,-112.5"/>
<text text-anchor="middle" x="1464.92" y="-119.5" font-family="Helvetica,sans-Serif" font-size="10.00">TDirectory.h</text>
</g>
<!-- Node9&#45;&gt;Node19 -->
<g id="edge23" class="edge"><title>Node9&#45;&gt;Node19</title>
<path fill="none" stroke="midnightblue" d="M1294.09,-168.444C1328.98,-159.162 1384.81,-144.309 1423.09,-134.127"/>
<polygon fill="midnightblue" stroke="midnightblue" points="1424.14,-137.47 1432.9,-131.516 1422.34,-130.705 1424.14,-137.47"/>
</g>
<!-- Node20 -->
<g id="node21" class="node"><title>Node20</title>
<polygon fill="white" stroke="#bfbfbf" points="1519.42,-112.5 1519.42,-131.5 1572.42,-131.5 1572.42,-112.5 1519.42,-112.5"/>
<text text-anchor="middle" x="1545.92" y="-119.5" font-family="Helvetica,sans-Serif" font-size="10.00">TError.h</text>
</g>
<!-- Node9&#45;&gt;Node20 -->
<g id="edge24" class="edge"><title>Node9&#45;&gt;Node20</title>
<path fill="none" stroke="midnightblue" d="M1309.86,-169.402C1357.99,-161.536 1434.47,-148.391 1509.17,-132.27"/>
<polygon fill="midnightblue" stroke="midnightblue" points="1510.19,-135.629 1519.21,-130.081 1508.7,-128.79 1510.19,-135.629"/>
</g>
<!-- Node21 -->
<g id="node22" class="node"><title>Node21</title>
<polygon fill="white" stroke="#bfbfbf" points="1590.42,-112.5 1590.42,-131.5 1637.42,-131.5 1637.42,-112.5 1590.42,-112.5"/>
<text text-anchor="middle" x="1613.92" y="-119.5" font-family="Helvetica,sans-Serif" font-size="10.00">TList.h</text>
</g>
<!-- Node9&#45;&gt;Node21 -->
<g id="edge25" class="edge"><title>Node9&#45;&gt;Node21</title>
<path fill="none" stroke="midnightblue" d="M1309.44,-172.337C1370.27,-165.923 1479.04,-152.958 1580.45,-132.087"/>
<polygon fill="midnightblue" stroke="midnightblue" points="1581.17,-135.513 1590.24,-130.042 1579.74,-128.661 1581.17,-135.513"/>
</g>
<!-- Node22 -->
<g id="node23" class="node"><title>Node22</title>
<polygon fill="white" stroke="#bfbfbf" points="946.42,-112.5 946.42,-131.5 1023.42,-131.5 1023.42,-112.5 946.42,-112.5"/>
<text text-anchor="middle" x="984.92" y="-119.5" font-family="Helvetica,sans-Serif" font-size="10.00">TCollection.h</text>
</g>
<!-- Node9&#45;&gt;Node22 -->
<g id="edge26" class="edge"><title>Node9&#45;&gt;Node22</title>
<path fill="none" stroke="midnightblue" d="M1218.03,-168.444C1167.83,-158.657 1085.87,-142.679 1033.71,-132.511"/>
<polygon fill="midnightblue" stroke="midnightblue" points="1034.17,-129.036 1023.69,-130.558 1032.84,-135.907 1034.17,-129.036"/>
</g>
<!-- Node23 -->
<g id="node24" class="node"><title>Node23</title>
<polygon fill="white" stroke="#bfbfbf" points="1041.92,-112.5 1041.92,-131.5 1087.92,-131.5 1087.92,-112.5 1041.92,-112.5"/>
<text text-anchor="middle" x="1064.92" y="-119.5" font-family="Helvetica,sans-Serif" font-size="10.00">TKey.h</text>
</g>
<!-- Node9&#45;&gt;Node23 -->
<g id="edge27" class="edge"><title>Node9&#45;&gt;Node23</title>
<path fill="none" stroke="midnightblue" d="M1230.27,-168.447C1198.98,-159.977 1149.51,-146.533 1097.69,-132.197"/>
<polygon fill="midnightblue" stroke="midnightblue" points="1098.56,-128.807 1087.99,-129.511 1096.69,-135.553 1098.56,-128.807"/>
</g>
<!-- Node9&#45;&gt;Node24 -->
<g id="edge30" class="edge"><title>Node9&#45;&gt;Node24</title>
<path fill="none" stroke="midnightblue" d="M1214.27,-173.691C1145.24,-168.294 1013.67,-155.734 903.92,-132 902.645,-131.724 901.345,-131.418 900.037,-131.089"/>
<polygon fill="midnightblue" stroke="midnightblue" points="900.713,-127.642 890.137,-128.274 898.799,-134.375 900.713,-127.642"/>
</g>
<!-- Node25 -->
<g id="node26" class="node"><title>Node25</title>
<polygon fill="white" stroke="#bfbfbf" points="1105.92,-112.5 1105.92,-131.5 1137.92,-131.5 1137.92,-112.5 1105.92,-112.5"/>
<text text-anchor="middle" x="1121.92" y="-119.5" font-family="Helvetica,sans-Serif" font-size="10.00">set</text>
</g>
<!-- Node9&#45;&gt;Node25 -->
<g id="edge31" class="edge"><title>Node9&#45;&gt;Node25</title>
<path fill="none" stroke="midnightblue" d="M1239.74,-168.444C1214.71,-158.792 1174.08,-143.117 1147.67,-132.933"/>
<polygon fill="midnightblue" stroke="midnightblue" points="1148.9,-129.656 1138.31,-129.323 1146.38,-136.187 1148.9,-129.656"/>
</g>
<!-- Node10&#45;&gt;Node3 -->
<g id="edge13" class="edge"><title>Node10&#45;&gt;Node3</title>
<path fill="none" stroke="midnightblue" d="M780.81,-56.083C775.638,-48.5341 768.074,-37.4948 761.725,-28.2298"/>
<polygon fill="midnightblue" stroke="midnightblue" points="764.456,-26.0221 755.916,-19.7511 758.681,-29.9787 764.456,-26.0221"/>
</g>
<!-- Node10&#45;&gt;Node7 -->
<g id="edge12" class="edge"><title>Node10&#45;&gt;Node7</title>
<path fill="none" stroke="midnightblue" d="M728.304,-57.7734C637.134,-46.5333 463.876,-25.1727 387.138,-15.7119"/>
<polygon fill="midnightblue" stroke="midnightblue" points="387.323,-12.2082 376.97,-14.4582 386.466,-19.1556 387.323,-12.2082"/>
</g>
<!-- Node10&#45;&gt;Node11 -->
<g id="edge11" class="edge"><title>Node10&#45;&gt;Node11</title>
<path fill="none" stroke="midnightblue" d="M845.485,-59.4999C965.637,-48.2161 1236.54,-22.775 1329.72,-14.024"/>
<polygon fill="midnightblue" stroke="midnightblue" points="1330.05,-17.5081 1339.68,-13.0884 1329.4,-10.5388 1330.05,-17.5081"/>
</g>
<!-- Node12 -->
<g id="node13" class="node"><title>Node12</title>
<polygon fill="white" stroke="#bfbfbf" points="799.42,-0.5 799.42,-19.5 846.42,-19.5 846.42,-0.5 799.42,-0.5"/>
<text text-anchor="middle" x="822.92" y="-7.5" font-family="Helvetica,sans-Serif" font-size="10.00">vector</text>
</g>
<!-- Node10&#45;&gt;Node12 -->
<g id="edge14" class="edge"><title>Node10&#45;&gt;Node12</title>
<path fill="none" stroke="midnightblue" d="M792.865,-56.083C797.897,-48.5341 805.257,-37.4948 811.433,-28.2298"/>
<polygon fill="midnightblue" stroke="midnightblue" points="814.451,-30.0131 817.086,-19.7511 808.627,-26.1301 814.451,-30.0131"/>
</g>
<!-- Node13&#45;&gt;Node3 -->
<g id="edge16" class="edge"><title>Node13&#45;&gt;Node3</title>
<path fill="none" stroke="midnightblue" d="M1198.27,-112.41C1173.27,-98.1782 1120.37,-69.9041 1071.92,-56 953.555,-22.0322 916.248,-40.8745 791.257,-20.0647"/>
<polygon fill="midnightblue" stroke="midnightblue" points="791.755,-16.599 781.306,-18.3559 790.57,-23.498 791.755,-16.599"/>
</g>
<!-- Node13&#45;&gt;Node8 -->
<g id="edge18" class="edge"><title>Node13&#45;&gt;Node8</title>
<path fill="none" stroke="midnightblue" d="M1164.88,-112.494C1120.95,-104.487 1053.97,-91.7086 986.601,-76.025"/>
<polygon fill="midnightblue" stroke="midnightblue" points="987.197,-72.5698 976.662,-73.6901 985.596,-79.3843 987.197,-72.5698"/>
</g>
<!-- Node13&#45;&gt;Node14 -->
<g id="edge17" class="edge"><title>Node13&#45;&gt;Node14</title>
<path fill="none" stroke="midnightblue" d="M1246.04,-112.444C1282.46,-103.032 1341.05,-87.8948 1380.49,-77.7046"/>
<polygon fill="midnightblue" stroke="midnightblue" points="1381.52,-81.0533 1390.33,-75.1629 1379.77,-74.2759 1381.52,-81.0533"/>
</g>
<!-- Node15 -->
<g id="node16" class="node"><title>Node15</title>
<polygon fill="white" stroke="#bfbfbf" points="1184.92,-56.5 1184.92,-75.5 1240.92,-75.5 1240.92,-56.5 1184.92,-56.5"/>
<text text-anchor="middle" x="1212.92" y="-63.5" font-family="Helvetica,sans-Serif" font-size="10.00">cxxabi.h</text>
</g>
<!-- Node13&#45;&gt;Node15 -->
<g id="edge19" class="edge"><title>Node13&#45;&gt;Node15</title>
<path fill="none" stroke="midnightblue" d="M1212.92,-112.083C1212.92,-105.006 1212.92,-94.8611 1212.92,-85.9865"/>
<polygon fill="midnightblue" stroke="midnightblue" points="1216.42,-85.751 1212.92,-75.7511 1209.42,-85.7511 1216.42,-85.751"/>
</g>
<!-- Node16 -->
<g id="node17" class="node"><title>Node16</title>
<polygon fill="white" stroke="#bfbfbf" points="994.92,-56.5 994.92,-75.5 1062.92,-75.5 1062.92,-56.5 994.92,-56.5"/>
<text text-anchor="middle" x="1028.92" y="-63.5" font-family="Helvetica,sans-Serif" font-size="10.00">type_traits</text>
</g>
<!-- Node13&#45;&gt;Node16 -->
<g id="edge20" class="edge"><title>Node13&#45;&gt;Node16</title>
<path fill="none" stroke="midnightblue" d="M1183.76,-112.444C1152.41,-103.241 1102.39,-88.5617 1067.72,-78.3879"/>
<polygon fill="midnightblue" stroke="midnightblue" points="1068.52,-74.9742 1057.94,-75.5164 1066.55,-81.6909 1068.52,-74.9742"/>
</g>
<!-- Node13&#45;&gt;Node17 -->
<g id="edge21" class="edge"><title>Node13&#45;&gt;Node17</title>
<path fill="none" stroke="midnightblue" d="M1269.44,-113.219C1272.64,-112.8 1275.82,-112.391 1278.92,-112 1406.26,-95.9157 1557.46,-78.9512 1627.17,-71.2488"/>
<polygon fill="midnightblue" stroke="midnightblue" points="1627.7,-74.7125 1637.25,-70.1372 1626.93,-67.7547 1627.7,-74.7125"/>
</g>
<!-- Node26&#45;&gt;Node4 -->
<g id="edge43" class="edge"><title>Node26&#45;&gt;Node4</title>
<path fill="none" stroke="midnightblue" d="M647.246,-168.324C629.526,-159.625 602.017,-146.12 581.631,-136.113"/>
<polygon fill="midnightblue" stroke="midnightblue" points="583.068,-132.919 572.549,-131.655 579.984,-139.203 583.068,-132.919"/>
</g>
<!-- Node26&#45;&gt;Node16 -->
<g id="edge40" class="edge"><title>Node26&#45;&gt;Node16</title>
<path fill="none" stroke="midnightblue" d="M696.704,-169.205C727.091,-161.318 773.919,-148.023 812.92,-132 830.573,-124.747 833.099,-118.831 850.92,-112 875.081,-102.739 940.188,-87.1251 984.588,-76.9415"/>
<polygon fill="midnightblue" stroke="midnightblue" points="985.588,-80.3035 994.558,-74.6661 984.03,-73.479 985.588,-80.3035"/>
</g>
<!-- Node26&#45;&gt;Node24 -->
<g id="edge44" class="edge"><title>Node26&#45;&gt;Node24</title>
<path fill="none" stroke="midnightblue" d="M696.454,-169.738C732.681,-161.262 793.837,-146.543 845.92,-132 847.348,-131.601 848.812,-131.181 850.287,-130.75"/>
<polygon fill="midnightblue" stroke="midnightblue" points="851.36,-134.083 859.917,-127.835 849.332,-127.383 851.36,-134.083"/>
</g>
<!-- Node27 -->
<g id="node28" class="node"><title>Node27</title>
<polygon fill="white" stroke="#bfbfbf" points="745.92,-112.5 745.92,-131.5 803.92,-131.5 803.92,-112.5 745.92,-112.5"/>
<text text-anchor="middle" x="774.92" y="-119.5" font-family="Helvetica,sans-Serif" font-size="10.00">Rtypes.h</text>
</g>
<!-- Node26&#45;&gt;Node27 -->
<g id="edge35" class="edge"><title>Node26&#45;&gt;Node27</title>
<path fill="none" stroke="midnightblue" d="M682.593,-168.324C700.314,-159.625 727.823,-146.12 748.208,-136.113"/>
<polygon fill="midnightblue" stroke="midnightblue" points="749.856,-139.203 757.29,-131.655 746.771,-132.919 749.856,-139.203"/>
</g>
<!-- Node28 -->
<g id="node29" class="node"><title>Node28</title>
<g id="a_node29"><a xlink:href="base_2std__ext_2_time_8h.html" target="_top" xlink:title="base/std_ext/time.h">
<polygon fill="white" stroke="black" points="294.92,-112.5 294.92,-131.5 406.92,-131.5 406.92,-112.5 294.92,-112.5"/>
<text text-anchor="middle" x="350.92" y="-119.5" font-family="Helvetica,sans-Serif" font-size="10.00">base/std_ext/time.h</text>
</a>
</g>
</g>
<!-- Node26&#45;&gt;Node28 -->
<g id="edge36" class="edge"><title>Node26&#45;&gt;Node28</title>
<path fill="none" stroke="midnightblue" d="M633.375,-171.575C581.305,-162.62 476.55,-144.605 410.282,-133.209"/>
<polygon fill="midnightblue" stroke="midnightblue" points="410.841,-129.754 400.393,-131.508 409.655,-136.652 410.841,-129.754"/>
</g>
<!-- Node30 -->
<g id="node31" class="node"><title>Node30</title>
<polygon fill="white" stroke="#bfbfbf" points="259.92,-56.5 259.92,-75.5 303.92,-75.5 303.92,-56.5 259.92,-56.5"/>
<text text-anchor="middle" x="281.92" y="-63.5" font-family="Helvetica,sans-Serif" font-size="10.00">ctime</text>
</g>
<!-- Node26&#45;&gt;Node30 -->
<g id="edge46" class="edge"><title>Node26&#45;&gt;Node30</title>
<path fill="none" stroke="midnightblue" d="M633.38,-175.536C546.693,-171.2 309.668,-157.135 285.92,-132 274.535,-119.95 274.879,-100.381 277.252,-85.8579"/>
<polygon fill="midnightblue" stroke="midnightblue" points="280.704,-86.4458 279.301,-75.9443 273.849,-85.0289 280.704,-86.4458"/>
</g>
<!-- Node31 -->
<g id="node32" class="node"><title>Node31</title>
<polygon fill="white" stroke="#bfbfbf" points="463.42,-112.5 463.42,-131.5 504.42,-131.5 504.42,-112.5 463.42,-112.5"/>
<text text-anchor="middle" x="483.92" y="-119.5" font-family="Helvetica,sans-Serif" font-size="10.00">tuple</text>
</g>
<!-- Node26&#45;&gt;Node31 -->
<g id="edge41" class="edge"><title>Node26&#45;&gt;Node31</title>
<path fill="none" stroke="midnightblue" d="M636.248,-168.472C607.77,-159.999 562.604,-146.549 514.278,-132.103"/>
<polygon fill="midnightblue" stroke="midnightblue" points="515.159,-128.713 504.575,-129.202 513.153,-135.42 515.159,-128.713"/>
</g>
<!-- Node32 -->
<g id="node33" class="node"><title>Node32</title>
<polygon fill="white" stroke="#bfbfbf" points="605.42,-112.5 605.42,-131.5 654.42,-131.5 654.42,-112.5 605.42,-112.5"/>
<text text-anchor="middle" x="629.92" y="-119.5" font-family="Helvetica,sans-Serif" font-size="10.00">cstdint</text>
</g>
<!-- Node26&#45;&gt;Node32 -->
<g id="edge42" class="edge"><title>Node26&#45;&gt;Node32</title>
<path fill="none" stroke="midnightblue" d="M659.14,-168.083C654.247,-160.534 647.092,-149.495 641.087,-140.23"/>
<polygon fill="midnightblue" stroke="midnightblue" points="643.968,-138.239 635.592,-131.751 638.094,-142.046 643.968,-138.239"/>
</g>
<!-- Node33 -->
<g id="node34" class="node"><title>Node33</title>
<polygon fill="white" stroke="#bfbfbf" points="672.42,-112.5 672.42,-131.5 727.42,-131.5 727.42,-112.5 672.42,-112.5"/>
<text text-anchor="middle" x="699.92" y="-119.5" font-family="Helvetica,sans-Serif" font-size="10.00">iomanip</text>
</g>
<!-- Node26&#45;&gt;Node33 -->
<g id="edge45" class="edge"><title>Node26&#45;&gt;Node33</title>
<path fill="none" stroke="midnightblue" d="M670.699,-168.083C675.592,-160.534 682.747,-149.495 688.752,-140.23"/>
<polygon fill="midnightblue" stroke="midnightblue" points="691.746,-142.046 694.248,-131.751 685.872,-138.239 691.746,-142.046"/>
</g>
<!-- Node28&#45;&gt;Node10 -->
<g id="edge37" class="edge"><title>Node28&#45;&gt;Node10</title>
<path fill="none" stroke="midnightblue" d="M407.08,-113.752C411.762,-113.156 416.422,-112.566 420.92,-112 524.508,-98.9728 644.644,-84.2817 718.208,-75.3332"/>
<polygon fill="midnightblue" stroke="midnightblue" points="718.768,-78.7909 728.273,-74.1094 717.923,-71.8421 718.768,-78.7909"/>
</g>
<!-- Node29 -->
<g id="node30" class="node"><title>Node29</title>
<polygon fill="white" stroke="#bfbfbf" points="326.42,-56.5 326.42,-75.5 375.42,-75.5 375.42,-56.5 326.42,-56.5"/>
<text text-anchor="middle" x="350.92" y="-63.5" font-family="Helvetica,sans-Serif" font-size="10.00">cstring</text>
</g>
<!-- Node28&#45;&gt;Node29 -->
<g id="edge38" class="edge"><title>Node28&#45;&gt;Node29</title>
<path fill="none" stroke="midnightblue" d="M350.92,-112.083C350.92,-105.006 350.92,-94.8611 350.92,-85.9865"/>
<polygon fill="midnightblue" stroke="midnightblue" points="354.42,-85.751 350.92,-75.7511 347.42,-85.7511 354.42,-85.751"/>
</g>
<!-- Node28&#45;&gt;Node30 -->
<g id="edge39" class="edge"><title>Node28&#45;&gt;Node30</title>
<path fill="none" stroke="midnightblue" d="M339.834,-112.324C329.434,-104.185 313.659,-91.8395 301.198,-82.0874"/>
<polygon fill="midnightblue" stroke="midnightblue" points="303.24,-79.2407 293.208,-75.8339 298.926,-84.7533 303.24,-79.2407"/>
</g>
</g>
</svg>
