<?xml version="1.0" encoding="UTF-8" standalone="no"?>
<!DOCTYPE svg PUBLIC "-//W3C//DTD SVG 1.1//EN"
 "http://www.w3.org/Graphics/SVG/1.1/DTD/svg11.dtd">
<!-- Generated by graphviz version 2.38.0 (20140413.2041)
 -->
<!-- Title: src/analysis/utils/Matcher.h Pages: 1 -->
<svg width="1838pt" height="117pt"
 viewBox="0.00 0.00 1837.50 117.00" xmlns="http://www.w3.org/2000/svg" xmlns:xlink="http://www.w3.org/1999/xlink">
<g id="graph0" class="graph" transform="scale(1 1) rotate(0) translate(4 113)">
<title>src/analysis/utils/Matcher.h</title>
<polygon fill="white" stroke="none" points="-4,4 -4,-113 1833.5,-113 1833.5,4 -4,4"/>
<!-- Node12 -->
<g id="node1" class="node"><title>Node12</title>
<polygon fill="#bfbfbf" stroke="black" points="870,-78.5 870,-108.5 965,-108.5 965,-78.5 870,-78.5"/>
<text text-anchor="start" x="878" y="-96.5" font-family="Helvetica,sans-Serif" font-size="10.00">src/analysis/utils</text>
<text text-anchor="middle" x="917.5" y="-85.5" font-family="Helvetica,sans-Serif" font-size="10.00">/Matcher.h</text>
</g>
<!-- Node13 -->
<g id="node2" class="node"><title>Node13</title>
<g id="a_node2"><a xlink:href="_p_i_d___t_a_p_s_veto___kinfit_8cc.html" target="_top" xlink:title="src/analysis/physics\l/calibration/PID_TAPSVeto\l_Kinfit.cc">
<polygon fill="white" stroke="black" points="0,-0.5 0,-41.5 139,-41.5 139,-0.5 0,-0.5"/>
<text text-anchor="start" x="8" y="-29.5" font-family="Helvetica,sans-Serif" font-size="10.00">src/analysis/physics</text>
<text text-anchor="start" x="8" y="-18.5" font-family="Helvetica,sans-Serif" font-size="10.00">/calibration/PID_TAPSVeto</text>
<text text-anchor="middle" x="69.5" y="-7.5" font-family="Helvetica,sans-Serif" font-size="10.00">_Kinfit.cc</text>
</a>
</g>
</g>
<!-- Node12&#45;&gt;Node13 -->
<g id="edge1" class="edge"><title>Node12&#45;&gt;Node13</title>
<path fill="none" stroke="midnightblue" d="M859.9,-92.2931C731.415,-91.0523 411.95,-83.6415 148.5,-42 145.426,-41.5141 142.296,-40.9639 139.144,-40.3642"/>
<polygon fill="midnightblue" stroke="midnightblue" points="859.883,-95.793 869.913,-92.3809 859.945,-88.7932 859.883,-95.793"/>
</g>
<!-- Node14 -->
<g id="node3" class="node"><title>Node14</title>
<g id="a_node3"><a xlink:href="_etap_omega_g_8cc.html" target="_top" xlink:title="src/analysis/physics\l/etaprime/EtapOmegaG.cc">
<polygon fill="white" stroke="black" points="157.5,-6 157.5,-36 301.5,-36 301.5,-6 157.5,-6"/>
<text text-anchor="start" x="165.5" y="-24" font-family="Helvetica,sans-Serif" font-size="10.00">src/analysis/physics</text>
<text text-anchor="middle" x="229.5" y="-13" font-family="Helvetica,sans-Serif" font-size="10.00">/etaprime/EtapOmegaG.cc</text>
</a>
</g>
</g>
<!-- Node12&#45;&gt;Node14 -->
<g id="edge2" class="edge"><title>Node12&#45;&gt;Node14</title>
<path fill="none" stroke="midnightblue" d="M859.906,-90.7582C751.644,-86.8105 510.661,-74.8233 310.5,-42 300.923,-40.4295 290.811,-38.3112 281.099,-36.0393"/>
<polygon fill="midnightblue" stroke="midnightblue" points="859.845,-94.2582 869.963,-91.1156 860.093,-87.2626 859.845,-94.2582"/>
</g>
<!-- Node15 -->
<g id="node4" class="node"><title>Node15</title>
<g id="a_node4"><a xlink:href="_etap_omega_g__simple_8cc.html" target="_top" xlink:title="src/analysis/physics\l/etaprime/EtapOmegaG\l_simple.cc">
<polygon fill="white" stroke="black" points="320,-0.5 320,-41.5 451,-41.5 451,-0.5 320,-0.5"/>
<text text-anchor="start" x="328" y="-29.5" font-family="Helvetica,sans-Serif" font-size="10.00">src/analysis/physics</text>
<text text-anchor="start" x="328" y="-18.5" font-family="Helvetica,sans-Serif" font-size="10.00">/etaprime/EtapOmegaG</text>
<text text-anchor="middle" x="385.5" y="-7.5" font-family="Helvetica,sans-Serif" font-size="10.00">_simple.cc</text>
</a>
</g>
</g>
<!-- Node12&#45;&gt;Node15 -->
<g id="edge3" class="edge"><title>Node12&#45;&gt;Node15</title>
<path fill="none" stroke="midnightblue" d="M859.572,-88.9054C772.414,-82.8657 602.613,-68.6435 460.5,-42 457.454,-41.4289 454.349,-40.7989 451.222,-40.1253"/>
<polygon fill="midnightblue" stroke="midnightblue" points="859.569,-92.4132 869.784,-89.6016 860.045,-85.4294 859.569,-92.4132"/>
</g>
<!-- Node16 -->
<g id="node5" class="node"><title>Node16</title>
<g id="a_node5"><a xlink:href="_find_proton_8cc.html" target="_top" xlink:title="src/analysis/physics\l/omega/FindProton.cc">
<polygon fill="white" stroke="black" points="469.5,-6 469.5,-36 589.5,-36 589.5,-6 469.5,-6"/>
<text text-anchor="start" x="477.5" y="-24" font-family="Helvetica,sans-Serif" font-size="10.00">src/analysis/physics</text>
<text text-anchor="middle" x="529.5" y="-13" font-family="Helvetica,sans-Serif" font-size="10.00">/omega/FindProton.cc</text>
</a>
</g>
</g>
<!-- Node12&#45;&gt;Node16 -->
<g id="edge4" class="edge"><title>Node12&#45;&gt;Node16</title>
<path fill="none" stroke="midnightblue" d="M859.929,-85.5919C795.733,-77.3784 689.017,-62.1999 598.5,-42 590.831,-40.2886 582.758,-38.2083 574.944,-36.0443"/>
<polygon fill="midnightblue" stroke="midnightblue" points="859.498,-89.0651 869.858,-86.85 860.378,-82.1206 859.498,-89.0651"/>
</g>
<!-- Node17 -->
<g id="node6" class="node"><title>Node17</title>
<g id="a_node6"><a xlink:href="_geo_acceptance_8cc.html" target="_top" xlink:title="src/analysis/physics\l/omega/GeoAcceptance.cc">
<polygon fill="white" stroke="black" points="607.5,-6 607.5,-36 753.5,-36 753.5,-6 607.5,-6"/>
<text text-anchor="start" x="615.5" y="-24" font-family="Helvetica,sans-Serif" font-size="10.00">src/analysis/physics</text>
<text text-anchor="middle" x="680.5" y="-13" font-family="Helvetica,sans-Serif" font-size="10.00">/omega/GeoAcceptance.cc</text>
</a>
</g>
</g>
<!-- Node12&#45;&gt;Node17 -->
<g id="edge5" class="edge"><title>Node12&#45;&gt;Node17</title>
<path fill="none" stroke="midnightblue" d="M860.649,-75.5885C820.088,-63.5229 766.171,-47.4844 727.923,-36.1069"/>
<polygon fill="midnightblue" stroke="midnightblue" points="859.81,-78.9906 870.393,-78.4872 861.806,-72.2812 859.81,-78.9906"/>
</g>
<!-- Node18 -->
<g id="node7" class="node"><title>Node18</title>
<g id="a_node7"><a xlink:href="_omega___ep_em_8cc.html" target="_top" xlink:title="src/analysis/physics\l/omega/Omega_EpEm.cc">
<polygon fill="white" stroke="black" points="771.5,-6 771.5,-36 909.5,-36 909.5,-6 771.5,-6"/>
<text text-anchor="start" x="779.5" y="-24" font-family="Helvetica,sans-Serif" font-size="10.00">src/analysis/physics</text>
<text text-anchor="middle" x="840.5" y="-13" font-family="Helvetica,sans-Serif" font-size="10.00">/omega/Omega_EpEm.cc</text>
</a>
</g>
</g>
<!-- Node12&#45;&gt;Node18 -->
<g id="edge6" class="edge"><title>Node12&#45;&gt;Node18</title>
<path fill="none" stroke="midnightblue" d="M894.525,-71.464C882.008,-60.0043 866.862,-46.137 855.796,-36.0049"/>
<polygon fill="midnightblue" stroke="midnightblue" points="892.179,-74.0618 901.918,-78.2333 896.906,-68.8989 892.179,-74.0618"/>
</g>
<!-- Node19 -->
<g id="node8" class="node"><title>Node19</title>
<g id="a_node8"><a xlink:href="_omega___eta_g_8cc.html" target="_top" xlink:title="src/analysis/physics\l/omega/Omega_EtaG.cc">
<polygon fill="white" stroke="black" points="927.5,-6 927.5,-36 1061.5,-36 1061.5,-6 927.5,-6"/>
<text text-anchor="start" x="935.5" y="-24" font-family="Helvetica,sans-Serif" font-size="10.00">src/analysis/physics</text>
<text text-anchor="middle" x="994.5" y="-13" font-family="Helvetica,sans-Serif" font-size="10.00">/omega/Omega_EtaG.cc</text>
</a>
</g>
</g>
<!-- Node12&#45;&gt;Node19 -->
<g id="edge7" class="edge"><title>Node12&#45;&gt;Node19</title>
<path fill="none" stroke="midnightblue" d="M940.475,-71.464C952.992,-60.0043 968.138,-46.137 979.204,-36.0049"/>
<polygon fill="midnightblue" stroke="midnightblue" points="938.094,-68.8989 933.082,-78.2333 942.821,-74.0618 938.094,-68.8989"/>
</g>
<!-- Node20 -->
<g id="node9" class="node"><title>Node20</title>
<g id="a_node9"><a xlink:href="pi0eta_8cc.html" target="_top" xlink:title="src/analysis/physics\l/omega/pi0eta.cc">
<polygon fill="white" stroke="black" points="1079.5,-6 1079.5,-36 1189.5,-36 1189.5,-6 1079.5,-6"/>
<text text-anchor="start" x="1087.5" y="-24" font-family="Helvetica,sans-Serif" font-size="10.00">src/analysis/physics</text>
<text text-anchor="middle" x="1134.5" y="-13" font-family="Helvetica,sans-Serif" font-size="10.00">/omega/pi0eta.cc</text>
</a>
</g>
</g>
<!-- Node12&#45;&gt;Node20 -->
<g id="edge8" class="edge"><title>Node12&#45;&gt;Node20</title>
<path fill="none" stroke="midnightblue" d="M970.262,-75.3585C1007.32,-63.3196 1056.28,-47.4123 1091.08,-36.1069"/>
<polygon fill="midnightblue" stroke="midnightblue" points="969.061,-72.0685 960.632,-78.4872 971.224,-78.726 969.061,-72.0685"/>
</g>
<!-- Node21 -->
<g id="node10" class="node"><title>Node21</title>
<g id="a_node10"><a xlink:href="pi0eta__lost__g_8cc.html" target="_top" xlink:title="src/analysis/physics\l/omega/pi0eta_lost_g.cc">
<polygon fill="white" stroke="black" points="1207.5,-6 1207.5,-36 1341.5,-36 1341.5,-6 1207.5,-6"/>
<text text-anchor="start" x="1215.5" y="-24" font-family="Helvetica,sans-Serif" font-size="10.00">src/analysis/physics</text>
<text text-anchor="middle" x="1274.5" y="-13" font-family="Helvetica,sans-Serif" font-size="10.00">/omega/pi0eta_lost_g.cc</text>
</a>
</g>
</g>
<!-- Node12&#45;&gt;Node21 -->
<g id="edge9" class="edge"><title>Node12&#45;&gt;Node21</title>
<path fill="none" stroke="midnightblue" d="M975.368,-83.481C1032.37,-74.2729 1121.8,-58.9567 1198.5,-42 1206.63,-40.2035 1215.2,-38.1276 1223.53,-36.0074"/>
<polygon fill="midnightblue" stroke="midnightblue" points="974.78,-80.0306 965.461,-85.0726 975.89,-86.942 974.78,-80.0306"/>
</g>
<!-- Node22 -->
<g id="node11" class="node"><title>Node22</title>
<g id="a_node11"><a xlink:href="_just_pi0_8cc.html" target="_top" xlink:title="src/analysis/physics\l/pi0/JustPi0.cc">
<polygon fill="white" stroke="black" points="1359.5,-6 1359.5,-36 1469.5,-36 1469.5,-6 1359.5,-6"/>
<text text-anchor="start" x="1367.5" y="-24" font-family="Helvetica,sans-Serif" font-size="10.00">src/analysis/physics</text>
<text text-anchor="middle" x="1414.5" y="-13" font-family="Helvetica,sans-Serif" font-size="10.00">/pi0/JustPi0.cc</text>
</a>
</g>
</g>
<!-- Node12&#45;&gt;Node22 -->
<g id="edge10" class="edge"><title>Node12&#45;&gt;Node22</title>
<path fill="none" stroke="midnightblue" d="M975.108,-89.2141C1058.61,-83.679 1217.79,-70.2166 1350.5,-42 1358.02,-40.4022 1365.91,-38.2989 1373.49,-36.057"/>
<polygon fill="midnightblue" stroke="midnightblue" points="974.816,-85.7257 965.063,-89.8658 975.269,-92.711 974.816,-85.7257"/>
</g>
<!-- Node23 -->
<g id="node12" class="node"><title>Node23</title>
<g id="a_node12"><a xlink:href="_etap_dalitz_m_c_8cc.html" target="_top" xlink:title="src/analysis/physics\l/scratch/wagner/EtapDalitzMC.cc">
<polygon fill="white" stroke="black" points="1488,-6 1488,-36 1661,-36 1661,-6 1488,-6"/>
<text text-anchor="start" x="1496" y="-24" font-family="Helvetica,sans-Serif" font-size="10.00">src/analysis/physics</text>
<text text-anchor="middle" x="1574.5" y="-13" font-family="Helvetica,sans-Serif" font-size="10.00">/scratch/wagner/EtapDalitzMC.cc</text>
</a>
</g>
</g>
<!-- Node12&#45;&gt;Node23 -->
<g id="edge11" class="edge"><title>Node12&#45;&gt;Node23</title>
<path fill="none" stroke="midnightblue" d="M975.085,-89.519C1077.01,-83.7529 1295.68,-69.1795 1478.5,-42 1489.53,-40.3602 1501.2,-38.2503 1512.46,-36.0181"/>
<polygon fill="midnightblue" stroke="midnightblue" points="974.793,-86.0298 965.003,-90.0821 975.183,-93.0189 974.793,-86.0298"/>
</g>
<!-- Node24 -->
<g id="node13" class="node"><title>Node24</title>
<g id="a_node13"><a xlink:href="_test_matcher_8cc.html" target="_top" xlink:title="test/analysis/TestMatcher.cc">
<polygon fill="white" stroke="black" points="1679.5,-11.5 1679.5,-30.5 1829.5,-30.5 1829.5,-11.5 1679.5,-11.5"/>
<text text-anchor="middle" x="1754.5" y="-18.5" font-family="Helvetica,sans-Serif" font-size="10.00">test/analysis/TestMatcher.cc</text>
</a>
</g>
</g>
<!-- Node12&#45;&gt;Node24 -->
<g id="edge12" class="edge"><title>Node12&#45;&gt;Node24</title>
<path fill="none" stroke="midnightblue" d="M975.631,-91.895C1102.5,-89.8553 1413.46,-80.9416 1670.5,-42 1688.43,-39.283 1708.18,-34.6663 1724.02,-30.5528"/>
<polygon fill="midnightblue" stroke="midnightblue" points="975.318,-88.3993 965.373,-92.0513 975.425,-95.3985 975.318,-88.3993"/>
</g>
</g>
</svg>
