<?xml version="1.0" encoding="UTF-8" standalone="no"?>
<!DOCTYPE svg PUBLIC "-//W3C//DTD SVG 1.1//EN"
 "http://www.w3.org/Graphics/SVG/1.1/DTD/svg11.dtd">
<!-- Generated by graphviz version 2.38.0 (20140413.2041)
 -->
<!-- Title: src/expconfig/detectors/PID.h Pages: 1 -->
<svg width="4105pt" height="195pt"
 viewBox="0.00 0.00 4105.00 195.00" xmlns="http://www.w3.org/2000/svg" xmlns:xlink="http://www.w3.org/1999/xlink">
<g id="graph0" class="graph" transform="scale(1 1) rotate(0) translate(4 191)">
<title>src/expconfig/detectors/PID.h</title>
<polygon fill="white" stroke="none" points="-4,4 -4,-191 4101,-191 4101,4 -4,4"/>
<!-- Node56 -->
<g id="node1" class="node"><title>Node56</title>
<polygon fill="#bfbfbf" stroke="black" points="1950.5,-156.5 1950.5,-186.5 2078.5,-186.5 2078.5,-156.5 1950.5,-156.5"/>
<text text-anchor="start" x="1958.5" y="-174.5" font-family="Helvetica,sans-Serif" font-size="10.00">src/expconfig/detectors</text>
<text text-anchor="middle" x="2014.5" y="-163.5" font-family="Helvetica,sans-Serif" font-size="10.00">/PID.h</text>
</g>
<!-- Node57 -->
<g id="node2" class="node"><title>Node57</title>
<g id="a_node2"><a xlink:href="checkcb_8h.html" target="_top" xlink:title="src/analysis/physics\l/scratch/lheijken/checkcb.h">
<polygon fill="white" stroke="black" points="2,-84 2,-114 147,-114 147,-84 2,-84"/>
<text text-anchor="start" x="10" y="-102" font-family="Helvetica,sans-Serif" font-size="10.00">src/analysis/physics</text>
<text text-anchor="middle" x="74.5" y="-91" font-family="Helvetica,sans-Serif" font-size="10.00">/scratch/lheijken/checkcb.h</text>
</a>
</g>
</g>
<!-- Node56&#45;&gt;Node57 -->
<g id="edge1" class="edge"><title>Node56&#45;&gt;Node57</title>
<path fill="none" stroke="midnightblue" d="M1939.64,-170.582C1637.86,-170.584 509.919,-167.357 156.5,-120 146.188,-118.618 135.289,-116.465 124.921,-114.073"/>
<polygon fill="midnightblue" stroke="midnightblue" points="1940.03,-174.082 1950.03,-170.58 1940.03,-167.082 1940.03,-174.082"/>
</g>
<!-- Node59 -->
<g id="node4" class="node"><title>Node59</title>
<g id="a_node4"><a xlink:href="_m_c_fake_reconstructed_8cc.html" target="_top" xlink:title="src/analysis/utils\l/MCFakeReconstructed.cc">
<polygon fill="white" stroke="black" points="165.5,-84 165.5,-114 303.5,-114 303.5,-84 165.5,-84"/>
<text text-anchor="start" x="173.5" y="-102" font-family="Helvetica,sans-Serif" font-size="10.00">src/analysis/utils</text>
<text text-anchor="middle" x="234.5" y="-91" font-family="Helvetica,sans-Serif" font-size="10.00">/MCFakeReconstructed.cc</text>
</a>
</g>
</g>
<!-- Node56&#45;&gt;Node59 -->
<g id="edge3" class="edge"><title>Node56&#45;&gt;Node59</title>
<path fill="none" stroke="midnightblue" d="M1939.82,-170.48C1654.56,-170.063 633.623,-165.362 312.5,-120 302.672,-118.612 292.296,-116.455 282.431,-114.063"/>
<polygon fill="midnightblue" stroke="midnightblue" points="1940.05,-173.98 1950.06,-170.494 1940.06,-166.98 1940.05,-173.98"/>
</g>
<!-- Node60 -->
<g id="node5" class="node"><title>Node60</title>
<g id="a_node5"><a xlink:href="calibration_2modules_2_p_i_d___energy_8cc.html" target="_top" xlink:title="src/calibration/modules\l/PID_Energy.cc">
<polygon fill="white" stroke="black" points="321.5,-84 321.5,-114 449.5,-114 449.5,-84 321.5,-84"/>
<text text-anchor="start" x="329.5" y="-102" font-family="Helvetica,sans-Serif" font-size="10.00">src/calibration/modules</text>
<text text-anchor="middle" x="385.5" y="-91" font-family="Helvetica,sans-Serif" font-size="10.00">/PID_Energy.cc</text>
</a>
</g>
</g>
<!-- Node56&#45;&gt;Node60 -->
<g id="edge4" class="edge"><title>Node56&#45;&gt;Node60</title>
<path fill="none" stroke="midnightblue" d="M1940.43,-170.399C1671.84,-169.675 749.566,-163.969 458.5,-120 449.275,-118.606 439.552,-116.447 430.316,-114.055"/>
<polygon fill="midnightblue" stroke="midnightblue" points="1940.46,-173.899 1950.47,-170.425 1940.47,-166.899 1940.46,-173.899"/>
</g>
<!-- Node61 -->
<g id="node6" class="node"><title>Node61</title>
<g id="a_node6"><a xlink:href="calibration_2modules_2_p_i_d___phi_angle_8cc.html" target="_top" xlink:title="src/calibration/modules\l/PID_PhiAngle.cc">
<polygon fill="white" stroke="black" points="467.5,-84 467.5,-114 595.5,-114 595.5,-84 467.5,-84"/>
<text text-anchor="start" x="475.5" y="-102" font-family="Helvetica,sans-Serif" font-size="10.00">src/calibration/modules</text>
<text text-anchor="middle" x="531.5" y="-91" font-family="Helvetica,sans-Serif" font-size="10.00">/PID_PhiAngle.cc</text>
</a>
</g>
</g>
<!-- Node56&#45;&gt;Node61 -->
<g id="edge5" class="edge"><title>Node56&#45;&gt;Node61</title>
<path fill="none" stroke="midnightblue" d="M1940.3,-170.107C1688.18,-168.418 865.719,-159.908 604.5,-120 595.277,-118.591 585.555,-116.425 576.32,-114.031"/>
<polygon fill="midnightblue" stroke="midnightblue" points="1940.43,-173.608 1950.45,-170.174 1940.47,-166.608 1940.43,-173.608"/>
</g>
<!-- Node62 -->
<g id="node7" class="node"><title>Node62</title>
<g id="a_node7"><a xlink:href="_p_i_d__2004__elements_8h.html" target="_top" xlink:title="src/expconfig/detectors\l/detail/PID_2004_elements.h">
<polygon fill="white" stroke="black" points="614,-84 614,-114 767,-114 767,-84 614,-84"/>
<text text-anchor="start" x="622" y="-102" font-family="Helvetica,sans-Serif" font-size="10.00">src/expconfig/detectors</text>
<text text-anchor="middle" x="690.5" y="-91" font-family="Helvetica,sans-Serif" font-size="10.00">/detail/PID_2004_elements.h</text>
</a>
</g>
</g>
<!-- Node56&#45;&gt;Node62 -->
<g id="edge6" class="edge"><title>Node56&#45;&gt;Node62</title>
<path fill="none" stroke="midnightblue" d="M1940.1,-169.165C1709.31,-164.754 1007.5,-149.233 781.5,-120 770.271,-118.547 758.378,-116.394 747.025,-114.031"/>
<polygon fill="midnightblue" stroke="midnightblue" points="1940.34,-172.67 1950.41,-169.361 1940.47,-165.671 1940.34,-172.67"/>
</g>
<!-- Node63 -->
<g id="node8" class="node"><title>Node63</title>
<g id="a_node8"><a xlink:href="_p_i_d_8cc.html" target="_top" xlink:title="src/expconfig/detectors\l/PID.cc">
<polygon fill="white" stroke="black" points="935.5,-6 935.5,-36 1063.5,-36 1063.5,-6 935.5,-6"/>
<text text-anchor="start" x="943.5" y="-24" font-family="Helvetica,sans-Serif" font-size="10.00">src/expconfig/detectors</text>
<text text-anchor="middle" x="999.5" y="-13" font-family="Helvetica,sans-Serif" font-size="10.00">/PID.cc</text>
</a>
</g>
</g>
<!-- Node56&#45;&gt;Node63 -->
<g id="edge18" class="edge"><title>Node56&#45;&gt;Node63</title>
<path fill="none" stroke="midnightblue" d="M1939.96,-170.171C1683.85,-168.679 853.532,-160.709 814.5,-120 771.926,-75.5967 866.509,-47.0709 935.5,-32.8368"/>
<polygon fill="midnightblue" stroke="midnightblue" points="1940.25,-173.672 1950.27,-170.229 1940.29,-166.673 1940.25,-173.672"/>
</g>
<!-- Node64 -->
<g id="node9" class="node"><title>Node64</title>
<g id="a_node9"><a xlink:href="_p_i_d__2007__elements_8h.html" target="_top" xlink:title="src/expconfig/detectors\l/detail/PID_2007_elements.h">
<polygon fill="white" stroke="black" points="824,-84 824,-114 977,-114 977,-84 824,-84"/>
<text text-anchor="start" x="832" y="-102" font-family="Helvetica,sans-Serif" font-size="10.00">src/expconfig/detectors</text>
<text text-anchor="middle" x="900.5" y="-91" font-family="Helvetica,sans-Serif" font-size="10.00">/detail/PID_2007_elements.h</text>
</a>
</g>
</g>
<!-- Node56&#45;&gt;Node64 -->
<g id="edge8" class="edge"><title>Node56&#45;&gt;Node64</title>
<path fill="none" stroke="midnightblue" d="M1940.46,-168.59C1736.76,-163.059 1170.97,-145.769 986.5,-120 976.025,-118.537 964.949,-116.409 954.357,-114.082"/>
<polygon fill="midnightblue" stroke="midnightblue" points="1940.37,-172.088 1950.46,-168.86 1940.56,-165.091 1940.37,-172.088"/>
</g>
<!-- Node65 -->
<g id="node10" class="node"><title>Node65</title>
<g id="a_node10"><a xlink:href="_p_i_d__2009__05__elements_8h.html" target="_top" xlink:title="src/expconfig/detectors\l/detail/PID_2009_05_elements.h">
<polygon fill="white" stroke="black" points="995.5,-84 995.5,-114 1165.5,-114 1165.5,-84 995.5,-84"/>
<text text-anchor="start" x="1003.5" y="-102" font-family="Helvetica,sans-Serif" font-size="10.00">src/expconfig/detectors</text>
<text text-anchor="middle" x="1080.5" y="-91" font-family="Helvetica,sans-Serif" font-size="10.00">/detail/PID_2009_05_elements.h</text>
</a>
</g>
</g>
<!-- Node56&#45;&gt;Node65 -->
<g id="edge10" class="edge"><title>Node56&#45;&gt;Node65</title>
<path fill="none" stroke="midnightblue" d="M1940.18,-169.757C1793.25,-167.466 1455.49,-158.121 1174.5,-120 1163.26,-118.475 1151.36,-116.349 1139.94,-114.049"/>
<polygon fill="midnightblue" stroke="midnightblue" points="1940.38,-173.26 1950.43,-169.91 1940.48,-166.26 1940.38,-173.26"/>
</g>
<!-- Node66 -->
<g id="node11" class="node"><title>Node66</title>
<g id="a_node11"><a xlink:href="_p_i_d__2009__06__elements_8h.html" target="_top" xlink:title="src/expconfig/detectors\l/detail/PID_2009_06_elements.h">
<polygon fill="white" stroke="black" points="1183.5,-84 1183.5,-114 1353.5,-114 1353.5,-84 1183.5,-84"/>
<text text-anchor="start" x="1191.5" y="-102" font-family="Helvetica,sans-Serif" font-size="10.00">src/expconfig/detectors</text>
<text text-anchor="middle" x="1268.5" y="-91" font-family="Helvetica,sans-Serif" font-size="10.00">/detail/PID_2009_06_elements.h</text>
</a>
</g>
</g>
<!-- Node56&#45;&gt;Node66 -->
<g id="edge12" class="edge"><title>Node56&#45;&gt;Node66</title>
<path fill="none" stroke="midnightblue" d="M1940.04,-167.94C1818.58,-163.045 1570.5,-150.048 1362.5,-120 1351.52,-118.414 1339.9,-116.302 1328.71,-114.045"/>
<polygon fill="midnightblue" stroke="midnightblue" points="1940.2,-171.449 1950.33,-168.347 1940.48,-164.454 1940.2,-171.449"/>
</g>
<!-- Node67 -->
<g id="node12" class="node"><title>Node67</title>
<g id="a_node12"><a xlink:href="_p_i_d__2009__07__elements_8h.html" target="_top" xlink:title="src/expconfig/detectors\l/detail/PID_2009_07_elements.h">
<polygon fill="white" stroke="black" points="1371.5,-84 1371.5,-114 1541.5,-114 1541.5,-84 1371.5,-84"/>
<text text-anchor="start" x="1379.5" y="-102" font-family="Helvetica,sans-Serif" font-size="10.00">src/expconfig/detectors</text>
<text text-anchor="middle" x="1456.5" y="-91" font-family="Helvetica,sans-Serif" font-size="10.00">/detail/PID_2009_07_elements.h</text>
</a>
</g>
</g>
<!-- Node56&#45;&gt;Node67 -->
<g id="edge14" class="edge"><title>Node56&#45;&gt;Node67</title>
<path fill="none" stroke="midnightblue" d="M1940.4,-164.764C1848.55,-157.119 1687.38,-141.953 1550.5,-120 1539.96,-118.309 1528.81,-116.214 1518.02,-114.022"/>
<polygon fill="midnightblue" stroke="midnightblue" points="1940.18,-168.257 1950.43,-165.592 1940.75,-161.281 1940.18,-168.257"/>
</g>
<!-- Node68 -->
<g id="node13" class="node"><title>Node68</title>
<g id="a_node13"><a xlink:href="_p_i_d__2014__elements_8h.html" target="_top" xlink:title="src/expconfig/detectors\l/detail/PID_2014_elements.h">
<polygon fill="white" stroke="black" points="1560,-84 1560,-114 1713,-114 1713,-84 1560,-84"/>
<text text-anchor="start" x="1568" y="-102" font-family="Helvetica,sans-Serif" font-size="10.00">src/expconfig/detectors</text>
<text text-anchor="middle" x="1636.5" y="-91" font-family="Helvetica,sans-Serif" font-size="10.00">/detail/PID_2014_elements.h</text>
</a>
</g>
</g>
<!-- Node56&#45;&gt;Node68 -->
<g id="edge16" class="edge"><title>Node56&#45;&gt;Node68</title>
<path fill="none" stroke="midnightblue" d="M1940.22,-158.858C1881.07,-149.298 1796.26,-134.943 1722.5,-120 1713.49,-118.174 1703.97,-116.105 1694.69,-114.008"/>
<polygon fill="midnightblue" stroke="midnightblue" points="1939.79,-162.334 1950.22,-160.468 1940.9,-155.423 1939.79,-162.334"/>
</g>
<!-- Node69 -->
<g id="node14" class="node"><title>Node69</title>
<g id="a_node14"><a xlink:href="_setup__2007___base_8h.html" target="_top" xlink:title="src/expconfig/setups\l/Setup_2007_Base.h">
<polygon fill="white" stroke="black" points="1731.5,-84 1731.5,-114 1847.5,-114 1847.5,-84 1731.5,-84"/>
<text text-anchor="start" x="1739.5" y="-102" font-family="Helvetica,sans-Serif" font-size="10.00">src/expconfig/setups</text>
<text text-anchor="middle" x="1789.5" y="-91" font-family="Helvetica,sans-Serif" font-size="10.00">/Setup_2007_Base.h</text>
</a>
</g>
</g>
<!-- Node56&#45;&gt;Node69 -->
<g id="edge19" class="edge"><title>Node56&#45;&gt;Node69</title>
<path fill="none" stroke="midnightblue" d="M1959.79,-153.358C1921.37,-141.32 1870.6,-125.412 1834.52,-114.107"/>
<polygon fill="midnightblue" stroke="midnightblue" points="1959.19,-156.837 1969.78,-156.487 1961.28,-150.157 1959.19,-156.837"/>
</g>
<!-- Node73 -->
<g id="node18" class="node"><title>Node73</title>
<g id="a_node18"><a xlink:href="_setup__2010__03___base_8h.html" target="_top" xlink:title="src/expconfig/setups\l/Setup_2010_03_Base.h">
<polygon fill="white" stroke="black" points="1866,-84 1866,-114 1999,-114 1999,-84 1866,-84"/>
<text text-anchor="start" x="1874" y="-102" font-family="Helvetica,sans-Serif" font-size="10.00">src/expconfig/setups</text>
<text text-anchor="middle" x="1932.5" y="-91" font-family="Helvetica,sans-Serif" font-size="10.00">/Setup_2010_03_Base.h</text>
</a>
</g>
</g>
<!-- Node56&#45;&gt;Node73 -->
<g id="edge23" class="edge"><title>Node56&#45;&gt;Node73</title>
<path fill="none" stroke="midnightblue" d="M1990.03,-149.464C1976.7,-138.004 1960.57,-124.137 1948.79,-114.005"/>
<polygon fill="midnightblue" stroke="midnightblue" points="1988.04,-152.368 1997.91,-156.233 1992.61,-147.06 1988.04,-152.368"/>
</g>
<!-- Node76 -->
<g id="node21" class="node"><title>Node76</title>
<g id="a_node21"><a xlink:href="_setup__2012__12___compton_8cc.html" target="_top" xlink:title="src/expconfig/setups\l/Setup_2012_12_Compton.cc">
<polygon fill="white" stroke="black" points="2017.5,-84 2017.5,-114 2175.5,-114 2175.5,-84 2017.5,-84"/>
<text text-anchor="start" x="2025.5" y="-102" font-family="Helvetica,sans-Serif" font-size="10.00">src/expconfig/setups</text>
<text text-anchor="middle" x="2096.5" y="-91" font-family="Helvetica,sans-Serif" font-size="10.00">/Setup_2012_12_Compton.cc</text>
</a>
</g>
</g>
<!-- Node56&#45;&gt;Node76 -->
<g id="edge26" class="edge"><title>Node56&#45;&gt;Node76</title>
<path fill="none" stroke="midnightblue" d="M2038.97,-149.464C2052.3,-138.004 2068.43,-124.137 2080.21,-114.005"/>
<polygon fill="midnightblue" stroke="midnightblue" points="2036.39,-147.06 2031.09,-156.233 2040.96,-152.368 2036.39,-147.06"/>
</g>
<!-- Node77 -->
<g id="node22" class="node"><title>Node77</title>
<g id="a_node22"><a xlink:href="_setup__2014___e_p_t_8h.html" target="_top" xlink:title="src/expconfig/setups\l/Setup_2014_EPT.h">
<polygon fill="white" stroke="black" points="2193,-84 2193,-114 2308,-114 2308,-84 2193,-84"/>
<text text-anchor="start" x="2201" y="-102" font-family="Helvetica,sans-Serif" font-size="10.00">src/expconfig/setups</text>
<text text-anchor="middle" x="2250.5" y="-91" font-family="Helvetica,sans-Serif" font-size="10.00">/Setup_2014_EPT.h</text>
</a>
</g>
</g>
<!-- Node56&#45;&gt;Node77 -->
<g id="edge27" class="edge"><title>Node56&#45;&gt;Node77</title>
<path fill="none" stroke="midnightblue" d="M2072.06,-153.485C2105,-143.729 2147.08,-131.226 2184.5,-120 2190.92,-118.073 2197.69,-116.032 2204.35,-114.019"/>
<polygon fill="midnightblue" stroke="midnightblue" points="2070.75,-150.225 2062.15,-156.421 2072.73,-156.937 2070.75,-150.225"/>
</g>
<!-- Node82 -->
<g id="node27" class="node"><title>Node82</title>
<g id="a_node27"><a xlink:href="_setup__2015__01___pion_8cc.html" target="_top" xlink:title="src/expconfig/setups\l/Setup_2015_01_Pion.cc">
<polygon fill="white" stroke="black" points="2326.5,-84 2326.5,-114 2460.5,-114 2460.5,-84 2326.5,-84"/>
<text text-anchor="start" x="2334.5" y="-102" font-family="Helvetica,sans-Serif" font-size="10.00">src/expconfig/setups</text>
<text text-anchor="middle" x="2393.5" y="-91" font-family="Helvetica,sans-Serif" font-size="10.00">/Setup_2015_01_Pion.cc</text>
</a>
</g>
</g>
<!-- Node56&#45;&gt;Node82 -->
<g id="edge32" class="edge"><title>Node56&#45;&gt;Node82</title>
<path fill="none" stroke="midnightblue" d="M2088.71,-159.962C2150.06,-150.804 2239.3,-136.447 2316.5,-120 2324.74,-118.244 2333.43,-116.19 2341.88,-114.079"/>
<polygon fill="midnightblue" stroke="midnightblue" points="2088.11,-156.513 2078.73,-161.443 2089.14,-163.437 2088.11,-156.513"/>
</g>
<!-- Node83 -->
<g id="node28" class="node"><title>Node83</title>
<g id="a_node28"><a xlink:href="_setup__2017__03_8h.html" target="_top" xlink:title="src/expconfig/setups\l/Setup_2017_03.h">
<polygon fill="white" stroke="black" points="2479,-84 2479,-114 2594,-114 2594,-84 2479,-84"/>
<text text-anchor="start" x="2487" y="-102" font-family="Helvetica,sans-Serif" font-size="10.00">src/expconfig/setups</text>
<text text-anchor="middle" x="2536.5" y="-91" font-family="Helvetica,sans-Serif" font-size="10.00">/Setup_2017_03.h</text>
</a>
</g>
</g>
<!-- Node56&#45;&gt;Node83 -->
<g id="edge33" class="edge"><title>Node56&#45;&gt;Node83</title>
<path fill="none" stroke="midnightblue" d="M2088.91,-166.354C2179.54,-160.362 2336.94,-146.914 2469.5,-120 2477.35,-118.406 2485.61,-116.304 2493.54,-114.063"/>
<polygon fill="midnightblue" stroke="midnightblue" points="2088.49,-162.874 2078.74,-167.014 2088.94,-169.859 2088.49,-162.874"/>
</g>
<!-- Node85 -->
<g id="node30" class="node"><title>Node85</title>
<g id="a_node30"><a xlink:href="_setup__2017__05_8h.html" target="_top" xlink:title="src/expconfig/setups\l/Setup_2017_05.h">
<polygon fill="white" stroke="black" points="2612,-84 2612,-114 2727,-114 2727,-84 2612,-84"/>
<text text-anchor="start" x="2620" y="-102" font-family="Helvetica,sans-Serif" font-size="10.00">src/expconfig/setups</text>
<text text-anchor="middle" x="2669.5" y="-91" font-family="Helvetica,sans-Serif" font-size="10.00">/Setup_2017_05.h</text>
</a>
</g>
</g>
<!-- Node56&#45;&gt;Node85 -->
<g id="edge35" class="edge"><title>Node56&#45;&gt;Node85</title>
<path fill="none" stroke="midnightblue" d="M2088.79,-168.974C2200.99,-165.581 2419.97,-154.703 2602.5,-120 2610.61,-118.458 2619.14,-116.324 2627.29,-114.022"/>
<polygon fill="midnightblue" stroke="midnightblue" points="2088.49,-165.482 2078.6,-169.271 2088.7,-172.479 2088.49,-165.482"/>
</g>
<!-- Node87 -->
<g id="node32" class="node"><title>Node87</title>
<g id="a_node32"><a xlink:href="_setup__2017_plus___new_tagger___base_8h.html" target="_top" xlink:title="src/expconfig/setups\l/Setup_2017Plus_NewTagger\l_Base.h">
<polygon fill="white" stroke="black" points="2812.5,-78.5 2812.5,-119.5 2966.5,-119.5 2966.5,-78.5 2812.5,-78.5"/>
<text text-anchor="start" x="2820.5" y="-107.5" font-family="Helvetica,sans-Serif" font-size="10.00">src/expconfig/setups</text>
<text text-anchor="start" x="2820.5" y="-96.5" font-family="Helvetica,sans-Serif" font-size="10.00">/Setup_2017Plus_NewTagger</text>
<text text-anchor="middle" x="2889.5" y="-85.5" font-family="Helvetica,sans-Serif" font-size="10.00">_Base.h</text>
</a>
</g>
</g>
<!-- Node56&#45;&gt;Node87 -->
<g id="edge37" class="edge"><title>Node56&#45;&gt;Node87</title>
<path fill="none" stroke="midnightblue" d="M2089.06,-166.737C2220.05,-159.8 2499.96,-143.522 2735.5,-120 2760.58,-117.495 2787.89,-114.152 2812.44,-110.917"/>
<polygon fill="midnightblue" stroke="midnightblue" points="2088.55,-163.259 2078.75,-167.28 2088.92,-170.249 2088.55,-163.259"/>
</g>
<!-- Node93 -->
<g id="node38" class="node"><title>Node93</title>
<g id="a_node38"><a xlink:href="_setup__2018__11_8h.html" target="_top" xlink:title="src/expconfig/setups\l/Setup_2018_11.h">
<polygon fill="white" stroke="black" points="2985,-84 2985,-114 3100,-114 3100,-84 2985,-84"/>
<text text-anchor="start" x="2993" y="-102" font-family="Helvetica,sans-Serif" font-size="10.00">src/expconfig/setups</text>
<text text-anchor="middle" x="3042.5" y="-91" font-family="Helvetica,sans-Serif" font-size="10.00">/Setup_2018_11.h</text>
</a>
</g>
</g>
<!-- Node56&#45;&gt;Node93 -->
<g id="edge43" class="edge"><title>Node56&#45;&gt;Node93</title>
<path fill="none" stroke="midnightblue" d="M2088.83,-168.876C2283.58,-164.255 2805.38,-149.429 2975.5,-120 2983.87,-118.552 2992.68,-116.4 3001.05,-114.038"/>
<polygon fill="midnightblue" stroke="midnightblue" points="2088.61,-165.38 2078.69,-169.114 2088.77,-172.378 2088.61,-165.38"/>
</g>
<!-- Node95 -->
<g id="node40" class="node"><title>Node95</title>
<g id="a_node40"><a xlink:href="_setup__2019__01_8h.html" target="_top" xlink:title="src/expconfig/setups\l/Setup_2019_01.h">
<polygon fill="white" stroke="black" points="3118,-84 3118,-114 3233,-114 3233,-84 3118,-84"/>
<text text-anchor="start" x="3126" y="-102" font-family="Helvetica,sans-Serif" font-size="10.00">src/expconfig/setups</text>
<text text-anchor="middle" x="3175.5" y="-91" font-family="Helvetica,sans-Serif" font-size="10.00">/Setup_2019_01.h</text>
</a>
</g>
</g>
<!-- Node56&#45;&gt;Node95 -->
<g id="edge45" class="edge"><title>Node56&#45;&gt;Node95</title>
<path fill="none" stroke="midnightblue" d="M2088.9,-169.427C2301.97,-165.979 2911.73,-153.393 3108.5,-120 3116.88,-118.578 3125.68,-116.439 3134.06,-114.08"/>
<polygon fill="midnightblue" stroke="midnightblue" points="2088.7,-165.929 2078.76,-169.589 2088.81,-172.929 2088.7,-165.929"/>
</g>
<!-- Node97 -->
<g id="node42" class="node"><title>Node97</title>
<g id="a_node42"><a xlink:href="_setup__2019__06_8h.html" target="_top" xlink:title="src/expconfig/setups\l/Setup_2019_06.h">
<polygon fill="white" stroke="black" points="3251,-84 3251,-114 3366,-114 3366,-84 3251,-84"/>
<text text-anchor="start" x="3259" y="-102" font-family="Helvetica,sans-Serif" font-size="10.00">src/expconfig/setups</text>
<text text-anchor="middle" x="3308.5" y="-91" font-family="Helvetica,sans-Serif" font-size="10.00">/Setup_2019_06.h</text>
</a>
</g>
</g>
<!-- Node56&#45;&gt;Node97 -->
<g id="edge47" class="edge"><title>Node56&#45;&gt;Node97</title>
<path fill="none" stroke="midnightblue" d="M2089.04,-169.86C2319.42,-167.497 3017.96,-157.363 3241.5,-120 3250,-118.579 3258.94,-116.408 3267.42,-114.012"/>
<polygon fill="midnightblue" stroke="midnightblue" points="2088.72,-166.363 2078.75,-169.963 2088.79,-173.362 2088.72,-166.363"/>
</g>
<!-- Node99 -->
<g id="node44" class="node"><title>Node99</title>
<g id="a_node44"><a xlink:href="_setup__2019__07_8h.html" target="_top" xlink:title="src/expconfig/setups\l/Setup_2019_07.h">
<polygon fill="white" stroke="black" points="3384,-84 3384,-114 3499,-114 3499,-84 3384,-84"/>
<text text-anchor="start" x="3392" y="-102" font-family="Helvetica,sans-Serif" font-size="10.00">src/expconfig/setups</text>
<text text-anchor="middle" x="3441.5" y="-91" font-family="Helvetica,sans-Serif" font-size="10.00">/Setup_2019_07.h</text>
</a>
</g>
</g>
<!-- Node56&#45;&gt;Node99 -->
<g id="edge49" class="edge"><title>Node56&#45;&gt;Node99</title>
<path fill="none" stroke="midnightblue" d="M2088.99,-170.211C2335.61,-168.864 3124,-161.352 3374.5,-120 3383,-118.596 3391.94,-116.433 3400.42,-114.039"/>
<polygon fill="midnightblue" stroke="midnightblue" points="2088.69,-166.712 2078.71,-170.265 2088.72,-173.712 2088.69,-166.712"/>
</g>
<!-- Node101 -->
<g id="node46" class="node"><title>Node101</title>
<g id="a_node46"><a xlink:href="_setup__2019__09_8h.html" target="_top" xlink:title="src/expconfig/setups\l/Setup_2019_09.h">
<polygon fill="white" stroke="black" points="3517,-84 3517,-114 3632,-114 3632,-84 3517,-84"/>
<text text-anchor="start" x="3525" y="-102" font-family="Helvetica,sans-Serif" font-size="10.00">src/expconfig/setups</text>
<text text-anchor="middle" x="3574.5" y="-91" font-family="Helvetica,sans-Serif" font-size="10.00">/Setup_2019_09.h</text>
</a>
</g>
</g>
<!-- Node56&#45;&gt;Node101 -->
<g id="edge51" class="edge"><title>Node56&#45;&gt;Node101</title>
<path fill="none" stroke="midnightblue" d="M2089.09,-170.499C2351.32,-170.103 3229.98,-165.342 3507.5,-120 3516.01,-118.61 3524.95,-116.453 3533.43,-114.061"/>
<polygon fill="midnightblue" stroke="midnightblue" points="2088.91,-166.999 2078.91,-170.513 2088.92,-173.999 2088.91,-166.999"/>
</g>
<!-- Node103 -->
<g id="node48" class="node"><title>Node103</title>
<g id="a_node48"><a xlink:href="_candidate_builder_8cc.html" target="_top" xlink:title="src/reconstruct/Candidate\lBuilder.cc">
<polygon fill="white" stroke="black" points="3650.5,-84 3650.5,-114 3790.5,-114 3790.5,-84 3650.5,-84"/>
<text text-anchor="start" x="3658.5" y="-102" font-family="Helvetica,sans-Serif" font-size="10.00">src/reconstruct/Candidate</text>
<text text-anchor="middle" x="3720.5" y="-91" font-family="Helvetica,sans-Serif" font-size="10.00">Builder.cc</text>
</a>
</g>
</g>
<!-- Node56&#45;&gt;Node103 -->
<g id="edge53" class="edge"><title>Node56&#45;&gt;Node103</title>
<path fill="none" stroke="midnightblue" d="M2089.08,-170.331C2366.1,-169.369 3335.67,-162.94 3641.5,-120 3651.45,-118.603 3661.95,-116.443 3671.94,-114.05"/>
<polygon fill="midnightblue" stroke="midnightblue" points="2088.73,-166.832 2078.74,-170.365 2088.75,-173.832 2088.73,-166.832"/>
</g>
<!-- Node104 -->
<g id="node49" class="node"><title>Node104</title>
<g id="a_node49"><a xlink:href="expconfig__helpers_8cc.html" target="_top" xlink:title="test/expconfig_helpers.cc">
<polygon fill="white" stroke="black" points="3808.5,-89.5 3808.5,-108.5 3946.5,-108.5 3946.5,-89.5 3808.5,-89.5"/>
<text text-anchor="middle" x="3877.5" y="-96.5" font-family="Helvetica,sans-Serif" font-size="10.00">test/expconfig_helpers.cc</text>
</a>
</g>
</g>
<!-- Node56&#45;&gt;Node104 -->
<g id="edge54" class="edge"><title>Node56&#45;&gt;Node104</title>
<path fill="none" stroke="midnightblue" d="M2088.88,-170.601C2382.47,-170.657 3461.2,-167.55 3799.5,-120 3816.67,-117.587 3835.5,-112.819 3850.36,-108.544"/>
<polygon fill="midnightblue" stroke="midnightblue" points="2088.77,-167.101 2078.77,-170.597 2088.77,-174.101 2088.77,-167.101"/>
</g>
<!-- Node58 -->
<g id="node3" class="node"><title>Node58</title>
<g id="a_node3"><a xlink:href="checkcb_8cc.html" target="_top" xlink:title="src/analysis/physics\l/scratch/lheijken/checkcb.cc">
<polygon fill="white" stroke="black" points="0,-6 0,-36 149,-36 149,-6 0,-6"/>
<text text-anchor="start" x="8" y="-24" font-family="Helvetica,sans-Serif" font-size="10.00">src/analysis/physics</text>
<text text-anchor="middle" x="74.5" y="-13" font-family="Helvetica,sans-Serif" font-size="10.00">/scratch/lheijken/checkcb.cc</text>
</a>
</g>
</g>
<!-- Node57&#45;&gt;Node58 -->
<g id="edge2" class="edge"><title>Node57&#45;&gt;Node58</title>
<path fill="none" stroke="midnightblue" d="M74.5,-73.5898C74.5,-61.2565 74.5,-46.7237 74.5,-36.2309"/>
<polygon fill="midnightblue" stroke="midnightblue" points="71.0001,-73.7049 74.5,-83.705 78.0001,-73.705 71.0001,-73.7049"/>
</g>
<!-- Node62&#45;&gt;Node63 -->
<g id="edge7" class="edge"><title>Node62&#45;&gt;Node63</title>
<path fill="none" stroke="midnightblue" d="M757.58,-81.5015C812.816,-67.9159 890.272,-48.865 942.536,-36.0106"/>
<polygon fill="midnightblue" stroke="midnightblue" points="756.41,-78.1847 747.535,-83.9719 758.082,-84.9821 756.41,-78.1847"/>
</g>
<!-- Node64&#45;&gt;Node63 -->
<g id="edge9" class="edge"><title>Node64&#45;&gt;Node63</title>
<path fill="none" stroke="midnightblue" d="M927.06,-77.6108C944.091,-64.5359 965.775,-47.8895 980.962,-36.2309"/>
<polygon fill="midnightblue" stroke="midnightblue" points="924.922,-74.8393 919.121,-83.705 929.185,-80.3919 924.922,-74.8393"/>
</g>
<!-- Node65&#45;&gt;Node63 -->
<g id="edge11" class="edge"><title>Node65&#45;&gt;Node63</title>
<path fill="none" stroke="midnightblue" d="M1057.62,-76.5332C1043.87,-63.6316 1026.75,-47.5716 1014.67,-36.2309"/>
<polygon fill="midnightblue" stroke="midnightblue" points="1055.58,-79.415 1065.26,-83.705 1060.37,-74.3101 1055.58,-79.415"/>
</g>
<!-- Node66&#45;&gt;Node63 -->
<g id="edge13" class="edge"><title>Node66&#45;&gt;Node63</title>
<path fill="none" stroke="midnightblue" d="M1209.22,-81.2516C1161.27,-67.7058 1094.53,-48.8498 1049.32,-36.0749"/>
<polygon fill="midnightblue" stroke="midnightblue" points="1208.27,-84.6211 1218.85,-83.9719 1210.18,-77.8848 1208.27,-84.6211"/>
</g>
<!-- Node67&#45;&gt;Node63 -->
<g id="edge15" class="edge"><title>Node67&#45;&gt;Node63</title>
<path fill="none" stroke="midnightblue" d="M1384.24,-81.9706C1376.91,-80.5418 1369.57,-79.1887 1362.5,-78 1234.42,-56.4657 1199.91,-67.2245 1072.5,-42 1064.12,-40.3411 1055.29,-38.2353 1046.78,-36.0164"/>
<polygon fill="midnightblue" stroke="midnightblue" points="1383.71,-85.4326 1394.2,-83.9576 1385.08,-78.568 1383.71,-85.4326"/>
</g>
<!-- Node68&#45;&gt;Node63 -->
<g id="edge17" class="edge"><title>Node68&#45;&gt;Node63</title>
<path fill="none" stroke="midnightblue" d="M1571.44,-81.7645C1564.4,-80.3388 1557.32,-79.0437 1550.5,-78 1339.9,-45.7764 1282.43,-78.3148 1072.5,-42 1063.7,-40.4769 1054.42,-38.3518 1045.54,-36.052"/>
<polygon fill="midnightblue" stroke="midnightblue" points="1571.18,-85.2869 1581.69,-83.9328 1572.63,-78.4385 1571.18,-85.2869"/>
</g>
<!-- Node70 -->
<g id="node15" class="node"><title>Node70</title>
<g id="a_node15"><a xlink:href="_setup__2007__06_8cc.html" target="_top" xlink:title="src/expconfig/setups\l/Setup_2007_06.cc">
<polygon fill="white" stroke="black" points="1082,-6 1082,-36 1197,-36 1197,-6 1082,-6"/>
<text text-anchor="start" x="1090" y="-24" font-family="Helvetica,sans-Serif" font-size="10.00">src/expconfig/setups</text>
<text text-anchor="middle" x="1139.5" y="-13" font-family="Helvetica,sans-Serif" font-size="10.00">/Setup_2007_06.cc</text>
</a>
</g>
</g>
<!-- Node69&#45;&gt;Node70 -->
<g id="edge20" class="edge"><title>Node69&#45;&gt;Node70</title>
<path fill="none" stroke="midnightblue" d="M1737.07,-81.3595C1731.85,-80.0696 1726.59,-78.9154 1721.5,-78 1495.24,-37.3284 1431.6,-83.597 1205.5,-42 1197.38,-40.5052 1188.84,-38.3632 1180.69,-36.0316"/>
<polygon fill="midnightblue" stroke="midnightblue" points="1736.47,-84.821 1747.03,-83.9802 1738.25,-78.0513 1736.47,-84.821"/>
</g>
<!-- Node71 -->
<g id="node16" class="node"><title>Node71</title>
<g id="a_node16"><a xlink:href="_setup__2007__07_8cc.html" target="_top" xlink:title="src/expconfig/setups\l/Setup_2007_07.cc">
<polygon fill="white" stroke="black" points="1215,-6 1215,-36 1330,-36 1330,-6 1215,-6"/>
<text text-anchor="start" x="1223" y="-24" font-family="Helvetica,sans-Serif" font-size="10.00">src/expconfig/setups</text>
<text text-anchor="middle" x="1272.5" y="-13" font-family="Helvetica,sans-Serif" font-size="10.00">/Setup_2007_07.cc</text>
</a>
</g>
</g>
<!-- Node69&#45;&gt;Node71 -->
<g id="edge21" class="edge"><title>Node69&#45;&gt;Node71</title>
<path fill="none" stroke="midnightblue" d="M1736.59,-81.3749C1731.52,-80.1038 1726.43,-78.9489 1721.5,-78 1554.04,-45.7926 1506.9,-74.5452 1339.5,-42 1331.52,-40.4478 1323.12,-38.3381 1315.08,-36.0691"/>
<polygon fill="midnightblue" stroke="midnightblue" points="1735.71,-84.7619 1746.27,-83.9389 1737.5,-77.9952 1735.71,-84.7619"/>
</g>
<!-- Node72 -->
<g id="node17" class="node"><title>Node72</title>
<g id="a_node17"><a xlink:href="_setup__2007___base_8cc.html" target="_top" xlink:title="src/expconfig/setups\l/Setup_2007_Base.cc">
<polygon fill="white" stroke="black" points="1348.5,-6 1348.5,-36 1468.5,-36 1468.5,-6 1348.5,-6"/>
<text text-anchor="start" x="1356.5" y="-24" font-family="Helvetica,sans-Serif" font-size="10.00">src/expconfig/setups</text>
<text text-anchor="middle" x="1408.5" y="-13" font-family="Helvetica,sans-Serif" font-size="10.00">/Setup_2007_Base.cc</text>
</a>
</g>
</g>
<!-- Node69&#45;&gt;Node72 -->
<g id="edge22" class="edge"><title>Node69&#45;&gt;Node72</title>
<path fill="none" stroke="midnightblue" d="M1735.11,-81.2776C1730.53,-80.0894 1725.95,-78.977 1721.5,-78 1614.44,-54.4774 1584.61,-65.3123 1477.5,-42 1469.7,-40.3024 1461.49,-38.2037 1453.56,-36.0104"/>
<polygon fill="midnightblue" stroke="midnightblue" points="1734.54,-84.7476 1745.11,-83.9769 1736.36,-77.9898 1734.54,-84.7476"/>
</g>
<!-- Node74 -->
<g id="node19" class="node"><title>Node74</title>
<g id="a_node19"><a xlink:href="_setup__2010__03___base_8cc.html" target="_top" xlink:title="src/expconfig/setups\l/Setup_2010_03_Base.cc">
<polygon fill="white" stroke="black" points="1487,-6 1487,-36 1624,-36 1624,-6 1487,-6"/>
<text text-anchor="start" x="1495" y="-24" font-family="Helvetica,sans-Serif" font-size="10.00">src/expconfig/setups</text>
<text text-anchor="middle" x="1555.5" y="-13" font-family="Helvetica,sans-Serif" font-size="10.00">/Setup_2010_03_Base.cc</text>
</a>
</g>
</g>
<!-- Node73&#45;&gt;Node74 -->
<g id="edge24" class="edge"><title>Node73&#45;&gt;Node74</title>
<path fill="none" stroke="midnightblue" d="M1871.97,-81.5062C1866.75,-80.2563 1861.54,-79.0679 1856.5,-78 1758.28,-57.2006 1731.78,-62.4889 1633.5,-42 1625.01,-40.2311 1616.06,-38.1459 1607.37,-36.0014"/>
<polygon fill="midnightblue" stroke="midnightblue" points="1871.42,-84.9764 1881.97,-83.9704 1873.1,-78.1796 1871.42,-84.9764"/>
</g>
<!-- Node75 -->
<g id="node20" class="node"><title>Node75</title>
<g id="a_node20"><a xlink:href="_setup__2010__09___compton_8cc.html" target="_top" xlink:title="src/expconfig/setups\l/Setup_2010_09_Compton.cc">
<polygon fill="white" stroke="black" points="1642.5,-6 1642.5,-36 1800.5,-36 1800.5,-6 1642.5,-6"/>
<text text-anchor="start" x="1650.5" y="-24" font-family="Helvetica,sans-Serif" font-size="10.00">src/expconfig/setups</text>
<text text-anchor="middle" x="1721.5" y="-13" font-family="Helvetica,sans-Serif" font-size="10.00">/Setup_2010_09_Compton.cc</text>
</a>
</g>
</g>
<!-- Node73&#45;&gt;Node75 -->
<g id="edge25" class="edge"><title>Node73&#45;&gt;Node75</title>
<path fill="none" stroke="midnightblue" d="M1883.61,-80.3918C1846.17,-66.9049 1795.21,-48.5488 1760.48,-36.0413"/>
<polygon fill="midnightblue" stroke="midnightblue" points="1882.71,-83.7872 1893.31,-83.8831 1885.08,-77.2013 1882.71,-83.7872"/>
</g>
<!-- Node78 -->
<g id="node23" class="node"><title>Node78</title>
<g id="a_node23"><a xlink:href="_setup__2014__07___e_p_t___prod_8cc.html" target="_top" xlink:title="src/expconfig/setups\l/Setup_2014_07_EPT_Prod.cc">
<polygon fill="white" stroke="black" points="1818.5,-6 1818.5,-36 1976.5,-36 1976.5,-6 1818.5,-6"/>
<text text-anchor="start" x="1826.5" y="-24" font-family="Helvetica,sans-Serif" font-size="10.00">src/expconfig/setups</text>
<text text-anchor="middle" x="1897.5" y="-13" font-family="Helvetica,sans-Serif" font-size="10.00">/Setup_2014_07_EPT_Prod.cc</text>
</a>
</g>
</g>
<!-- Node77&#45;&gt;Node78 -->
<g id="edge28" class="edge"><title>Node77&#45;&gt;Node78</title>
<path fill="none" stroke="midnightblue" d="M2196.93,-81.2031C2192.74,-80.062 2188.56,-78.9787 2184.5,-78 2097.12,-56.9321 2073.57,-59.9641 1985.5,-42 1976.44,-40.1525 1966.89,-38.0942 1957.54,-36.0205"/>
<polygon fill="midnightblue" stroke="midnightblue" points="2196.1,-84.6055 2206.67,-83.9488 2198,-77.8679 2196.1,-84.6055"/>
</g>
<!-- Node79 -->
<g id="node24" class="node"><title>Node79</title>
<g id="a_node24"><a xlink:href="_setup__2014__10___e_p_t___prod_8cc.html" target="_top" xlink:title="src/expconfig/setups\l/Setup_2014_10_EPT_Prod.cc">
<polygon fill="white" stroke="black" points="1994.5,-6 1994.5,-36 2152.5,-36 2152.5,-6 1994.5,-6"/>
<text text-anchor="start" x="2002.5" y="-24" font-family="Helvetica,sans-Serif" font-size="10.00">src/expconfig/setups</text>
<text text-anchor="middle" x="2073.5" y="-13" font-family="Helvetica,sans-Serif" font-size="10.00">/Setup_2014_10_EPT_Prod.cc</text>
</a>
</g>
</g>
<!-- Node77&#45;&gt;Node79 -->
<g id="edge29" class="edge"><title>Node77&#45;&gt;Node79</title>
<path fill="none" stroke="midnightblue" d="M2208.28,-79.8729C2176.99,-66.4372 2134.96,-48.3891 2106.2,-36.0413"/>
<polygon fill="midnightblue" stroke="midnightblue" points="2207.05,-83.1536 2217.62,-83.8831 2209.81,-76.7215 2207.05,-83.1536"/>
</g>
<!-- Node80 -->
<g id="node25" class="node"><title>Node80</title>
<g id="a_node25"><a xlink:href="_setup__2014__12___e_p_t___prod_8cc.html" target="_top" xlink:title="src/expconfig/setups\l/Setup_2014_12_EPT_Prod.cc">
<polygon fill="white" stroke="black" points="2170.5,-6 2170.5,-36 2328.5,-36 2328.5,-6 2170.5,-6"/>
<text text-anchor="start" x="2178.5" y="-24" font-family="Helvetica,sans-Serif" font-size="10.00">src/expconfig/setups</text>
<text text-anchor="middle" x="2249.5" y="-13" font-family="Helvetica,sans-Serif" font-size="10.00">/Setup_2014_12_EPT_Prod.cc</text>
</a>
</g>
</g>
<!-- Node77&#45;&gt;Node80 -->
<g id="edge30" class="edge"><title>Node77&#45;&gt;Node80</title>
<path fill="none" stroke="midnightblue" d="M2250.18,-73.5898C2250.02,-61.2565 2249.83,-46.7237 2249.69,-36.2309"/>
<polygon fill="midnightblue" stroke="midnightblue" points="2246.68,-73.7519 2250.31,-83.705 2253.68,-73.6598 2246.68,-73.7519"/>
</g>
<!-- Node81 -->
<g id="node26" class="node"><title>Node81</title>
<g id="a_node26"><a xlink:href="_setup__2014___e_p_t_8cc.html" target="_top" xlink:title="src/expconfig/setups\l/Setup_2014_EPT.cc">
<polygon fill="white" stroke="black" points="2346,-6 2346,-36 2461,-36 2461,-6 2346,-6"/>
<text text-anchor="start" x="2354" y="-24" font-family="Helvetica,sans-Serif" font-size="10.00">src/expconfig/setups</text>
<text text-anchor="middle" x="2403.5" y="-13" font-family="Helvetica,sans-Serif" font-size="10.00">/Setup_2014_EPT.cc</text>
</a>
</g>
</g>
<!-- Node77&#45;&gt;Node81 -->
<g id="edge31" class="edge"><title>Node77&#45;&gt;Node81</title>
<path fill="none" stroke="midnightblue" d="M2288.05,-79.3494C2314.98,-65.9714 2350.7,-48.2295 2375.23,-36.0413"/>
<polygon fill="midnightblue" stroke="midnightblue" points="2286.32,-76.2997 2278.92,-83.8831 2289.43,-82.5689 2286.32,-76.2997"/>
</g>
<!-- Node84 -->
<g id="node29" class="node"><title>Node84</title>
<g id="a_node29"><a xlink:href="_setup__2017__03_8cc.html" target="_top" xlink:title="src/expconfig/setups\l/Setup_2017_03.cc">
<polygon fill="white" stroke="black" points="2479,-6 2479,-36 2594,-36 2594,-6 2479,-6"/>
<text text-anchor="start" x="2487" y="-24" font-family="Helvetica,sans-Serif" font-size="10.00">src/expconfig/setups</text>
<text text-anchor="middle" x="2536.5" y="-13" font-family="Helvetica,sans-Serif" font-size="10.00">/Setup_2017_03.cc</text>
</a>
</g>
</g>
<!-- Node83&#45;&gt;Node84 -->
<g id="edge34" class="edge"><title>Node83&#45;&gt;Node84</title>
<path fill="none" stroke="midnightblue" d="M2536.5,-73.5898C2536.5,-61.2565 2536.5,-46.7237 2536.5,-36.2309"/>
<polygon fill="midnightblue" stroke="midnightblue" points="2533,-73.7049 2536.5,-83.705 2540,-73.705 2533,-73.7049"/>
</g>
<!-- Node86 -->
<g id="node31" class="node"><title>Node86</title>
<g id="a_node31"><a xlink:href="_setup__2017__05_8cc.html" target="_top" xlink:title="src/expconfig/setups\l/Setup_2017_05.cc">
<polygon fill="white" stroke="black" points="2612,-6 2612,-36 2727,-36 2727,-6 2612,-6"/>
<text text-anchor="start" x="2620" y="-24" font-family="Helvetica,sans-Serif" font-size="10.00">src/expconfig/setups</text>
<text text-anchor="middle" x="2669.5" y="-13" font-family="Helvetica,sans-Serif" font-size="10.00">/Setup_2017_05.cc</text>
</a>
</g>
</g>
<!-- Node85&#45;&gt;Node86 -->
<g id="edge36" class="edge"><title>Node85&#45;&gt;Node86</title>
<path fill="none" stroke="midnightblue" d="M2669.5,-73.5898C2669.5,-61.2565 2669.5,-46.7237 2669.5,-36.2309"/>
<polygon fill="midnightblue" stroke="midnightblue" points="2666,-73.7049 2669.5,-83.705 2673,-73.705 2666,-73.7049"/>
</g>
<!-- Node88 -->
<g id="node33" class="node"><title>Node88</title>
<g id="a_node33"><a xlink:href="_setup__2017__12_8cc.html" target="_top" xlink:title="src/expconfig/setups\l/Setup_2017_12.cc">
<polygon fill="white" stroke="black" points="2745,-6 2745,-36 2860,-36 2860,-6 2745,-6"/>
<text text-anchor="start" x="2753" y="-24" font-family="Helvetica,sans-Serif" font-size="10.00">src/expconfig/setups</text>
<text text-anchor="middle" x="2802.5" y="-13" font-family="Helvetica,sans-Serif" font-size="10.00">/Setup_2017_12.cc</text>
</a>
</g>
</g>
<!-- Node87&#45;&gt;Node88 -->
<g id="edge38" class="edge"><title>Node87&#45;&gt;Node88</title>
<path fill="none" stroke="midnightblue" d="M2859.35,-71.6585C2845.73,-59.7612 2830.17,-46.1757 2818.78,-36.2254"/>
<polygon fill="midnightblue" stroke="midnightblue" points="2857.26,-74.4851 2867.1,-78.4281 2861.87,-69.2133 2857.26,-74.4851"/>
</g>
<!-- Node89 -->
<g id="node34" class="node"><title>Node89</title>
<g id="a_node34"><a xlink:href="_setup__2017_plus___new_tagger___base_8cc.html" target="_top" xlink:title="src/expconfig/setups\l/Setup_2017Plus_NewTagger\l_Base.cc">
<polygon fill="white" stroke="black" points="2878.5,-0.5 2878.5,-41.5 3032.5,-41.5 3032.5,-0.5 2878.5,-0.5"/>
<text text-anchor="start" x="2886.5" y="-29.5" font-family="Helvetica,sans-Serif" font-size="10.00">src/expconfig/setups</text>
<text text-anchor="start" x="2886.5" y="-18.5" font-family="Helvetica,sans-Serif" font-size="10.00">/Setup_2017Plus_NewTagger</text>
<text text-anchor="middle" x="2955.5" y="-7.5" font-family="Helvetica,sans-Serif" font-size="10.00">_Base.cc</text>
</a>
</g>
</g>
<!-- Node87&#45;&gt;Node89 -->
<g id="edge39" class="edge"><title>Node87&#45;&gt;Node89</title>
<path fill="none" stroke="midnightblue" d="M2913.27,-70.627C2921.64,-60.9901 2930.87,-50.3617 2938.56,-41.5056"/>
<polygon fill="midnightblue" stroke="midnightblue" points="2910.41,-68.5828 2906.5,-78.4281 2915.7,-73.1727 2910.41,-68.5828"/>
</g>
<!-- Node90 -->
<g id="node35" class="node"><title>Node90</title>
<g id="a_node35"><a xlink:href="_setup__2018__03_8cc.html" target="_top" xlink:title="src/expconfig/setups\l/Setup_2018_03.cc">
<polygon fill="white" stroke="black" points="3051,-6 3051,-36 3166,-36 3166,-6 3051,-6"/>
<text text-anchor="start" x="3059" y="-24" font-family="Helvetica,sans-Serif" font-size="10.00">src/expconfig/setups</text>
<text text-anchor="middle" x="3108.5" y="-13" font-family="Helvetica,sans-Serif" font-size="10.00">/Setup_2018_03.cc</text>
</a>
</g>
</g>
<!-- Node87&#45;&gt;Node90 -->
<g id="edge40" class="edge"><title>Node87&#45;&gt;Node90</title>
<path fill="none" stroke="midnightblue" d="M2955.5,-75.0959C2992.06,-62.4074 3036.35,-47.0376 3067.85,-36.1065"/>
<polygon fill="midnightblue" stroke="midnightblue" points="2954.2,-71.843 2945.9,-78.4281 2956.49,-78.4561 2954.2,-71.843"/>
</g>
<!-- Node91 -->
<g id="node36" class="node"><title>Node91</title>
<g id="a_node36"><a xlink:href="_setup__2018__05_8cc.html" target="_top" xlink:title="src/expconfig/setups\l/Setup_2018_05.cc">
<polygon fill="white" stroke="black" points="3184,-6 3184,-36 3299,-36 3299,-6 3184,-6"/>
<text text-anchor="start" x="3192" y="-24" font-family="Helvetica,sans-Serif" font-size="10.00">src/expconfig/setups</text>
<text text-anchor="middle" x="3241.5" y="-13" font-family="Helvetica,sans-Serif" font-size="10.00">/Setup_2018_05.cc</text>
</a>
</g>
</g>
<!-- Node87&#45;&gt;Node91 -->
<g id="edge41" class="edge"><title>Node87&#45;&gt;Node91</title>
<path fill="none" stroke="midnightblue" d="M2976.75,-77.802C3065.26,-60.0013 3090.15,-62.1524 3174.5,-42 3181.82,-40.251 3189.52,-38.1761 3197,-36.0357"/>
<polygon fill="midnightblue" stroke="midnightblue" points="2975.91,-74.4004 2966.82,-79.8293 2977.31,-81.259 2975.91,-74.4004"/>
</g>
<!-- Node92 -->
<g id="node37" class="node"><title>Node92</title>
<g id="a_node37"><a xlink:href="_setup__2018__09_8cc.html" target="_top" xlink:title="src/expconfig/setups\l/Setup_2018_09.cc">
<polygon fill="white" stroke="black" points="3317,-6 3317,-36 3432,-36 3432,-6 3317,-6"/>
<text text-anchor="start" x="3325" y="-24" font-family="Helvetica,sans-Serif" font-size="10.00">src/expconfig/setups</text>
<text text-anchor="middle" x="3374.5" y="-13" font-family="Helvetica,sans-Serif" font-size="10.00">/Setup_2018_09.cc</text>
</a>
</g>
</g>
<!-- Node87&#45;&gt;Node92 -->
<g id="edge42" class="edge"><title>Node87&#45;&gt;Node92</title>
<path fill="none" stroke="midnightblue" d="M2977.04,-77.8543C3123.68,-53.939 3165.28,-70.6891 3307.5,-42 3315.35,-40.4158 3323.61,-38.3191 3331.54,-36.0794"/>
<polygon fill="midnightblue" stroke="midnightblue" points="2976.05,-74.4708 2966.77,-79.5682 2977.21,-81.3754 2976.05,-74.4708"/>
</g>
<!-- Node94 -->
<g id="node39" class="node"><title>Node94</title>
<g id="a_node39"><a xlink:href="_setup__2018__11_8cc.html" target="_top" xlink:title="src/expconfig/setups\l/Setup_2018_11.cc">
<polygon fill="white" stroke="black" points="3450,-6 3450,-36 3565,-36 3565,-6 3450,-6"/>
<text text-anchor="start" x="3458" y="-24" font-family="Helvetica,sans-Serif" font-size="10.00">src/expconfig/setups</text>
<text text-anchor="middle" x="3507.5" y="-13" font-family="Helvetica,sans-Serif" font-size="10.00">/Setup_2018_11.cc</text>
</a>
</g>
</g>
<!-- Node93&#45;&gt;Node94 -->
<g id="edge44" class="edge"><title>Node93&#45;&gt;Node94</title>
<path fill="none" stroke="midnightblue" d="M3094.81,-81.183C3099.42,-79.9975 3104.02,-78.9126 3108.5,-78 3253.93,-48.35 3295.01,-71.3483 3440.5,-42 3448.35,-40.4158 3456.61,-38.3191 3464.54,-36.0794"/>
<polygon fill="midnightblue" stroke="midnightblue" points="3093.53,-77.9043 3084.81,-83.9113 3095.37,-84.6579 3093.53,-77.9043"/>
</g>
<!-- Node96 -->
<g id="node41" class="node"><title>Node96</title>
<g id="a_node41"><a xlink:href="_setup__2019__01_8cc.html" target="_top" xlink:title="src/expconfig/setups\l/Setup_2019_01.cc">
<polygon fill="white" stroke="black" points="3583,-6 3583,-36 3698,-36 3698,-6 3583,-6"/>
<text text-anchor="start" x="3591" y="-24" font-family="Helvetica,sans-Serif" font-size="10.00">src/expconfig/setups</text>
<text text-anchor="middle" x="3640.5" y="-13" font-family="Helvetica,sans-Serif" font-size="10.00">/Setup_2019_01.cc</text>
</a>
</g>
</g>
<!-- Node95&#45;&gt;Node96 -->
<g id="edge46" class="edge"><title>Node95&#45;&gt;Node96</title>
<path fill="none" stroke="midnightblue" d="M3227.81,-81.183C3232.42,-79.9975 3237.02,-78.9126 3241.5,-78 3386.93,-48.35 3428.01,-71.3483 3573.5,-42 3581.35,-40.4158 3589.61,-38.3191 3597.54,-36.0794"/>
<polygon fill="midnightblue" stroke="midnightblue" points="3226.53,-77.9043 3217.81,-83.9113 3228.37,-84.6579 3226.53,-77.9043"/>
</g>
<!-- Node98 -->
<g id="node43" class="node"><title>Node98</title>
<g id="a_node43"><a xlink:href="_setup__2019__06_8cc.html" target="_top" xlink:title="src/expconfig/setups\l/Setup_2019_06.cc">
<polygon fill="white" stroke="black" points="3716,-6 3716,-36 3831,-36 3831,-6 3716,-6"/>
<text text-anchor="start" x="3724" y="-24" font-family="Helvetica,sans-Serif" font-size="10.00">src/expconfig/setups</text>
<text text-anchor="middle" x="3773.5" y="-13" font-family="Helvetica,sans-Serif" font-size="10.00">/Setup_2019_06.cc</text>
</a>
</g>
</g>
<!-- Node97&#45;&gt;Node98 -->
<g id="edge48" class="edge"><title>Node97&#45;&gt;Node98</title>
<path fill="none" stroke="midnightblue" d="M3360.81,-81.1815C3365.42,-79.9963 3370.02,-78.9119 3374.5,-78 3520.37,-48.2852 3561.63,-71.7148 3707.5,-42 3715.24,-40.4226 3723.38,-38.3293 3731.19,-36.0908"/>
<polygon fill="midnightblue" stroke="midnightblue" points="3359.53,-77.9027 3350.81,-83.9092 3361.37,-84.6564 3359.53,-77.9027"/>
</g>
<!-- Node100 -->
<g id="node45" class="node"><title>Node100</title>
<g id="a_node45"><a xlink:href="_setup__2019__07_8cc.html" target="_top" xlink:title="src/expconfig/setups\l/Setup_2019_07.cc">
<polygon fill="white" stroke="black" points="3849,-6 3849,-36 3964,-36 3964,-6 3849,-6"/>
<text text-anchor="start" x="3857" y="-24" font-family="Helvetica,sans-Serif" font-size="10.00">src/expconfig/setups</text>
<text text-anchor="middle" x="3906.5" y="-13" font-family="Helvetica,sans-Serif" font-size="10.00">/Setup_2019_07.cc</text>
</a>
</g>
</g>
<!-- Node99&#45;&gt;Node100 -->
<g id="edge50" class="edge"><title>Node99&#45;&gt;Node100</title>
<path fill="none" stroke="midnightblue" d="M3493.81,-81.1815C3498.42,-79.9963 3503.02,-78.9119 3507.5,-78 3653.37,-48.2852 3694.63,-71.7148 3840.5,-42 3848.24,-40.4226 3856.38,-38.3293 3864.19,-36.0908"/>
<polygon fill="midnightblue" stroke="midnightblue" points="3492.53,-77.9027 3483.81,-83.9092 3494.37,-84.6564 3492.53,-77.9027"/>
</g>
<!-- Node102 -->
<g id="node47" class="node"><title>Node102</title>
<g id="a_node47"><a xlink:href="_setup__2019__09_8cc.html" target="_top" xlink:title="src/expconfig/setups\l/Setup_2019_09.cc">
<polygon fill="white" stroke="black" points="3982,-6 3982,-36 4097,-36 4097,-6 3982,-6"/>
<text text-anchor="start" x="3990" y="-24" font-family="Helvetica,sans-Serif" font-size="10.00">src/expconfig/setups</text>
<text text-anchor="middle" x="4039.5" y="-13" font-family="Helvetica,sans-Serif" font-size="10.00">/Setup_2019_09.cc</text>
</a>
</g>
</g>
<!-- Node101&#45;&gt;Node102 -->
<g id="edge52" class="edge"><title>Node101&#45;&gt;Node102</title>
<path fill="none" stroke="midnightblue" d="M3627.24,-81.2866C3632.03,-80.0619 3636.84,-78.9406 3641.5,-78 3786.99,-48.6517 3828.07,-71.65 3973.5,-42 3981.24,-40.4214 3989.38,-38.3274 3997.19,-36.0887"/>
<polygon fill="midnightblue" stroke="midnightblue" points="3626.2,-77.94 3617.46,-83.9206 3628.02,-84.6991 3626.2,-77.94"/>
</g>
</g>
</svg>
