<?xml version="1.0" encoding="UTF-8" standalone="no"?>
<!DOCTYPE svg PUBLIC "-//W3C//DTD SVG 1.1//EN"
 "http://www.w3.org/Graphics/SVG/1.1/DTD/svg11.dtd">
<!-- Generated by graphviz version 2.38.0 (20140413.2041)
 -->
<!-- Title: src/analysis/physics/pi0/Pi0Dalitz.h Pages: 1 -->
<svg width="280pt" height="106pt"
 viewBox="0.00 0.00 279.50 106.00" xmlns="http://www.w3.org/2000/svg" xmlns:xlink="http://www.w3.org/1999/xlink">
<g id="graph0" class="graph" transform="scale(1 1) rotate(0) translate(4 102)">
<title>src/analysis/physics/pi0/Pi0Dalitz.h</title>
<polygon fill="white" stroke="none" points="-4,4 -4,-102 275.5,-102 275.5,4 -4,4"/>
<!-- Node89 -->
<g id="node1" class="node"><title>Node89</title>
<polygon fill="#bfbfbf" stroke="black" points="88.5,-67.5 88.5,-97.5 198.5,-97.5 198.5,-67.5 88.5,-67.5"/>
<text text-anchor="start" x="96.5" y="-85.5" font-family="Helvetica,sans-Serif" font-size="10.00">src/analysis/physics</text>
<text text-anchor="middle" x="143.5" y="-74.5" font-family="Helvetica,sans-Serif" font-size="10.00">/pi0/Pi0Dalitz.h</text>
</g>
<!-- Node90 -->
<g id="node2" class="node"><title>Node90</title>
<g id="a_node2"><a xlink:href="_pi0_dalitz__anaplot_8cc.html" target="_top" xlink:title="progs/Pi0Dalitz_anaplot.cc">
<polygon fill="white" stroke="black" points="0,-6 0,-25 143,-25 143,-6 0,-6"/>
<text text-anchor="middle" x="71.5" y="-13" font-family="Helvetica,sans-Serif" font-size="10.00">progs/Pi0Dalitz_anaplot.cc</text>
</a>
</g>
</g>
<!-- Node89&#45;&gt;Node90 -->
<g id="edge1" class="edge"><title>Node89&#45;&gt;Node90</title>
<path fill="none" stroke="midnightblue" d="M120.429,-60.6722C107.135,-48.6707 91.1286,-34.2203 81.1309,-25.1945"/>
<polygon fill="midnightblue" stroke="midnightblue" points="118.109,-63.2929 127.877,-67.396 122.8,-58.097 118.109,-63.2929"/>
</g>
<!-- Node91 -->
<g id="node3" class="node"><title>Node91</title>
<g id="a_node3"><a xlink:href="_pi0_dalitz_8cc.html" target="_top" xlink:title="src/analysis/physics\l/pi0/Pi0Dalitz.cc">
<polygon fill="white" stroke="black" points="161.5,-0.5 161.5,-30.5 271.5,-30.5 271.5,-0.5 161.5,-0.5"/>
<text text-anchor="start" x="169.5" y="-18.5" font-family="Helvetica,sans-Serif" font-size="10.00">src/analysis/physics</text>
<text text-anchor="middle" x="216.5" y="-7.5" font-family="Helvetica,sans-Serif" font-size="10.00">/pi0/Pi0Dalitz.cc</text>
</a>
</g>
</g>
<!-- Node89&#45;&gt;Node91 -->
<g id="edge2" class="edge"><title>Node89&#45;&gt;Node91</title>
<path fill="none" stroke="midnightblue" d="M166.975,-60.5978C177.997,-50.7831 190.844,-39.3442 200.691,-30.5765"/>
<polygon fill="midnightblue" stroke="midnightblue" points="164.481,-58.132 159.34,-67.396 169.136,-63.3599 164.481,-58.132"/>
</g>
</g>
</svg>
