<?xml version="1.0" encoding="UTF-8" standalone="no"?>
<!DOCTYPE svg PUBLIC "-//W3C//DTD SVG 1.1//EN"
 "http://www.w3.org/Graphics/SVG/1.1/DTD/svg11.dtd">
<!-- Generated by graphviz version 2.38.0 (20140413.2041)
 -->
<!-- Title: src/analysis/physics/Plotter.cc Pages: 1 -->
<svg width="1457pt" height="319pt"
 viewBox="0.00 0.00 1456.55 319.00" xmlns="http://www.w3.org/2000/svg" xmlns:xlink="http://www.w3.org/1999/xlink">
<g id="graph0" class="graph" transform="scale(1 1) rotate(0) translate(4 315)">
<title>src/analysis/physics/Plotter.cc</title>
<polygon fill="white" stroke="none" points="-4,4 -4,-315 1452.55,-315 1452.55,4 -4,4"/>
<!-- Node0 -->
<g id="node1" class="node"><title>Node0</title>
<polygon fill="#bfbfbf" stroke="black" points="537.5,-280.5 537.5,-310.5 647.5,-310.5 647.5,-280.5 537.5,-280.5"/>
<text text-anchor="start" x="545.5" y="-298.5" font-family="Helvetica,sans-Serif" font-size="10.00">src/analysis/physics</text>
<text text-anchor="middle" x="592.5" y="-287.5" font-family="Helvetica,sans-Serif" font-size="10.00">/Plotter.cc</text>
</g>
<!-- Node1 -->
<g id="node2" class="node"><title>Node1</title>
<g id="a_node2"><a xlink:href="_plotter_8h.html" target="_top" xlink:title="Plotter.h">
<polygon fill="white" stroke="black" points="564.5,-224.5 564.5,-243.5 620.5,-243.5 620.5,-224.5 564.5,-224.5"/>
<text text-anchor="middle" x="592.5" y="-231.5" font-family="Helvetica,sans-Serif" font-size="10.00">Plotter.h</text>
</a>
</g>
</g>
<!-- Node0&#45;&gt;Node1 -->
<g id="edge1" class="edge"><title>Node0&#45;&gt;Node1</title>
<path fill="none" stroke="midnightblue" d="M592.5,-280.399C592.5,-272.466 592.5,-262.458 592.5,-253.858"/>
<polygon fill="midnightblue" stroke="midnightblue" points="596,-253.658 592.5,-243.658 589,-253.658 596,-253.658"/>
</g>
<!-- Node2 -->
<g id="node3" class="node"><title>Node2</title>
<g id="a_node3"><a xlink:href="_histogram_factory_8h.html" target="_top" xlink:title="analysis/plot/HistogramFactory.h">
<polygon fill="white" stroke="black" points="125,-168.5 125,-187.5 296,-187.5 296,-168.5 125,-168.5"/>
<text text-anchor="middle" x="210.5" y="-175.5" font-family="Helvetica,sans-Serif" font-size="10.00">analysis/plot/HistogramFactory.h</text>
</a>
</g>
</g>
<!-- Node1&#45;&gt;Node2 -->
<g id="edge2" class="edge"><title>Node1&#45;&gt;Node2</title>
<path fill="none" stroke="midnightblue" d="M564.411,-229.029C505.219,-220.662 366.129,-201 281.007,-188.967"/>
<polygon fill="midnightblue" stroke="midnightblue" points="281.295,-185.473 270.903,-187.539 280.315,-192.404 281.295,-185.473"/>
</g>
<!-- Node6 -->
<g id="node7" class="node"><title>Node6</title>
<polygon fill="white" stroke="#bfbfbf" points="765.5,-0.5 765.5,-19.5 829.5,-19.5 829.5,-0.5 765.5,-0.5"/>
<text text-anchor="middle" x="797.5" y="-7.5" font-family="Helvetica,sans-Serif" font-size="10.00">stdexcept</text>
</g>
<!-- Node1&#45;&gt;Node6 -->
<g id="edge56" class="edge"><title>Node1&#45;&gt;Node6</title>
<path fill="none" stroke="midnightblue" d="M620.76,-232.096C732.724,-228.365 1145.32,-213.167 1273.5,-188 1350.73,-172.837 1395.48,-195.849 1441.5,-132 1514.16,-31.1841 993.739,-14.3173 839.628,-11.5388"/>
<polygon fill="midnightblue" stroke="midnightblue" points="839.655,-8.03887 829.597,-11.3688 839.536,-15.0379 839.655,-8.03887"/>
</g>
<!-- Node12 -->
<g id="node13" class="node"><title>Node12</title>
<polygon fill="white" stroke="#bfbfbf" points="0,-56.5 0,-75.5 47,-75.5 47,-56.5 0,-56.5"/>
<text text-anchor="middle" x="23.5" y="-63.5" font-family="Helvetica,sans-Serif" font-size="10.00">vector</text>
</g>
<!-- Node1&#45;&gt;Node12 -->
<g id="edge55" class="edge"><title>Node1&#45;&gt;Node12</title>
<path fill="none" stroke="midnightblue" d="M564.25,-232.398C474.674,-230.168 198.041,-220.734 115.5,-188 77.8156,-173.055 66.5282,-165.364 43.5,-132 33.9638,-118.184 28.851,-99.6631 26.1897,-85.9262"/>
<polygon fill="midnightblue" stroke="midnightblue" points="29.585,-85.0085 24.4875,-75.7206 22.6804,-86.1602 29.585,-85.0085"/>
</g>
<!-- Node15 -->
<g id="node16" class="node"><title>Node15</title>
<g id="a_node16"><a xlink:href="_options_list_8h.html" target="_top" xlink:title="base/OptionsList.h">
<polygon fill="white" stroke="black" points="413,-112.5 413,-131.5 518,-131.5 518,-112.5 413,-112.5"/>
<text text-anchor="middle" x="465.5" y="-119.5" font-family="Helvetica,sans-Serif" font-size="10.00">base/OptionsList.h</text>
</a>
</g>
</g>
<!-- Node1&#45;&gt;Node15 -->
<g id="edge19" class="edge"><title>Node1&#45;&gt;Node15</title>
<path fill="none" stroke="midnightblue" d="M580.199,-224.47C567.819,-215.726 548.342,-201.53 532.5,-188 513.957,-172.163 494.066,-152.487 480.817,-138.956"/>
<polygon fill="midnightblue" stroke="midnightblue" points="483.321,-136.512 473.844,-131.775 478.299,-141.388 483.321,-136.512"/>
</g>
<!-- Node16 -->
<g id="node17" class="node"><title>Node16</title>
<polygon fill="white" stroke="#bfbfbf" points="605,-56.5 605,-75.5 662,-75.5 662,-56.5 605,-56.5"/>
<text text-anchor="middle" x="633.5" y="-63.5" font-family="Helvetica,sans-Serif" font-size="10.00">memory</text>
</g>
<!-- Node1&#45;&gt;Node16 -->
<g id="edge54" class="edge"><title>Node1&#45;&gt;Node16</title>
<path fill="none" stroke="midnightblue" d="M584.914,-224.419C575.066,-212.212 559.777,-188.984 565.5,-168 574.754,-134.069 600.702,-101.581 617.736,-82.9927"/>
<polygon fill="midnightblue" stroke="midnightblue" points="620.307,-85.3672 624.629,-75.6939 615.218,-80.5607 620.307,-85.3672"/>
</g>
<!-- Node19 -->
<g id="node20" class="node"><title>Node19</title>
<g id="a_node20"><a xlink:href="_wrap_t_file_8h.html" target="_top" xlink:title="base/WrapTFile.h">
<polygon fill="white" stroke="black" points="859,-168.5 859,-187.5 954,-187.5 954,-168.5 859,-168.5"/>
<text text-anchor="middle" x="906.5" y="-175.5" font-family="Helvetica,sans-Serif" font-size="10.00">base/WrapTFile.h</text>
</a>
</g>
</g>
<!-- Node1&#45;&gt;Node19 -->
<g id="edge25" class="edge"><title>Node1&#45;&gt;Node19</title>
<path fill="none" stroke="midnightblue" d="M620.642,-228.16C671.829,-219.357 781.114,-200.563 848.748,-188.932"/>
<polygon fill="midnightblue" stroke="midnightblue" points="849.559,-192.344 858.821,-187.2 848.373,-185.445 849.559,-192.344"/>
</g>
<!-- Node22 -->
<g id="node23" class="node"><title>Node22</title>
<polygon fill="white" stroke="#bfbfbf" points="1105,-56.5 1105,-75.5 1168,-75.5 1168,-56.5 1105,-56.5"/>
<text text-anchor="middle" x="1136.5" y="-63.5" font-family="Helvetica,sans-Serif" font-size="10.00">functional</text>
</g>
<!-- Node1&#45;&gt;Node22 -->
<g id="edge53" class="edge"><title>Node1&#45;&gt;Node22</title>
<path fill="none" stroke="midnightblue" d="M620.956,-231.745C760.811,-225.293 1370.79,-193.74 1425.5,-132 1431.39,-125.347 1431.28,-118.752 1425.5,-112 1394.18,-75.4228 1250.62,-68.3437 1178.34,-67.1309"/>
<polygon fill="midnightblue" stroke="midnightblue" points="1178.26,-63.6296 1168.21,-66.9917 1178.17,-70.6289 1178.26,-63.6296"/>
</g>
<!-- Node32 -->
<g id="node33" class="node"><title>Node32</title>
<g id="a_node33"><a xlink:href="memory_8h.html" target="_top" xlink:title="base/std_ext/memory.h">
<polygon fill="white" stroke="black" points="575,-168.5 575,-187.5 704,-187.5 704,-168.5 575,-168.5"/>
<text text-anchor="middle" x="639.5" y="-175.5" font-family="Helvetica,sans-Serif" font-size="10.00">base/std_ext/memory.h</text>
</a>
</g>
</g>
<!-- Node1&#45;&gt;Node32 -->
<g id="edge50" class="edge"><title>Node1&#45;&gt;Node32</title>
<path fill="none" stroke="midnightblue" d="M600.261,-224.083C607.037,-216.298 617.043,-204.801 625.255,-195.367"/>
<polygon fill="midnightblue" stroke="midnightblue" points="627.958,-197.592 631.883,-187.751 622.678,-192.996 627.958,-197.592"/>
</g>
<!-- Node3 -->
<g id="node4" class="node"><title>Node3</title>
<g id="a_node4"><a xlink:href="interval_8h.html" target="_top" xlink:title="base/interval.h">
<polygon fill="white" stroke="black" points="179,-56.5 179,-75.5 266,-75.5 266,-56.5 179,-56.5"/>
<text text-anchor="middle" x="222.5" y="-63.5" font-family="Helvetica,sans-Serif" font-size="10.00">base/interval.h</text>
</a>
</g>
</g>
<!-- Node2&#45;&gt;Node3 -->
<g id="edge3" class="edge"><title>Node2&#45;&gt;Node3</title>
<path fill="none" stroke="midnightblue" d="M211.442,-168.368C213.378,-150.617 217.845,-109.666 220.471,-85.5974"/>
<polygon fill="midnightblue" stroke="midnightblue" points="223.958,-85.912 221.563,-75.5914 216.999,-85.1528 223.958,-85.912"/>
</g>
<!-- Node11 -->
<g id="node12" class="node"><title>Node11</title>
<g id="a_node12"><a xlink:href="_bin_settings_8h.html" target="_top" xlink:title="base/BinSettings.h">
<polygon fill="white" stroke="black" points="75,-112.5 75,-131.5 182,-131.5 182,-112.5 75,-112.5"/>
<text text-anchor="middle" x="128.5" y="-119.5" font-family="Helvetica,sans-Serif" font-size="10.00">base/BinSettings.h</text>
</a>
</g>
</g>
<!-- Node2&#45;&gt;Node11 -->
<g id="edge11" class="edge"><title>Node2&#45;&gt;Node11</title>
<path fill="none" stroke="midnightblue" d="M197.325,-168.324C184.653,-159.979 165.267,-147.212 150.294,-137.352"/>
<polygon fill="midnightblue" stroke="midnightblue" points="151.919,-134.231 141.642,-131.655 148.069,-140.078 151.919,-134.231"/>
</g>
<!-- Node2&#45;&gt;Node12 -->
<g id="edge18" class="edge"><title>Node2&#45;&gt;Node12</title>
<path fill="none" stroke="midnightblue" d="M152.192,-168.5C123.855,-162.107 90.5935,-151.038 65.5,-132 49.4795,-119.846 37.8354,-99.6852 30.9265,-85.0347"/>
<polygon fill="midnightblue" stroke="midnightblue" points="33.9746,-83.2722 26.7378,-75.5341 27.5695,-86.0962 33.9746,-83.2722"/>
</g>
<!-- Node14 -->
<g id="node15" class="node"><title>Node14</title>
<polygon fill="white" stroke="#bfbfbf" points="398.5,-56.5 398.5,-75.5 442.5,-75.5 442.5,-56.5 398.5,-56.5"/>
<text text-anchor="middle" x="420.5" y="-63.5" font-family="Helvetica,sans-Serif" font-size="10.00">string</text>
</g>
<!-- Node2&#45;&gt;Node14 -->
<g id="edge17" class="edge"><title>Node2&#45;&gt;Node14</title>
<path fill="none" stroke="midnightblue" d="M267.576,-168.436C298.12,-161.927 335.341,-150.771 364.5,-132 383.61,-119.698 399.833,-98.9707 409.822,-84.231"/>
<polygon fill="midnightblue" stroke="midnightblue" points="412.943,-85.8513 415.454,-75.5582 407.072,-82.0389 412.943,-85.8513"/>
</g>
<!-- Node4 -->
<g id="node5" class="node"><title>Node4</title>
<g id="a_node5"><a xlink:href="types_8h.html" target="_top" xlink:title="types.h">
<polygon fill="white" stroke="black" points="196.5,-0.5 196.5,-19.5 248.5,-19.5 248.5,-0.5 196.5,-0.5"/>
<text text-anchor="middle" x="222.5" y="-7.5" font-family="Helvetica,sans-Serif" font-size="10.00">types.h</text>
</a>
</g>
</g>
<!-- Node3&#45;&gt;Node4 -->
<g id="edge4" class="edge"><title>Node3&#45;&gt;Node4</title>
<path fill="none" stroke="midnightblue" d="M222.5,-56.083C222.5,-49.0059 222.5,-38.8611 222.5,-29.9865"/>
<polygon fill="midnightblue" stroke="midnightblue" points="226,-29.751 222.5,-19.7511 219,-29.7511 226,-29.751"/>
</g>
<!-- Node5 -->
<g id="node6" class="node"><title>Node5</title>
<polygon fill="white" stroke="#bfbfbf" points="406.5,-0.5 406.5,-19.5 468.5,-19.5 468.5,-0.5 406.5,-0.5"/>
<text text-anchor="middle" x="437.5" y="-7.5" font-family="Helvetica,sans-Serif" font-size="10.00">algorithm</text>
</g>
<!-- Node3&#45;&gt;Node5 -->
<g id="edge5" class="edge"><title>Node3&#45;&gt;Node5</title>
<path fill="none" stroke="midnightblue" d="M256.567,-56.4435C294.554,-46.9028 355.973,-31.4766 396.545,-21.2863"/>
<polygon fill="midnightblue" stroke="midnightblue" points="397.538,-24.6457 406.384,-18.8151 395.833,-17.8566 397.538,-24.6457"/>
</g>
<!-- Node3&#45;&gt;Node6 -->
<g id="edge6" class="edge"><title>Node3&#45;&gt;Node6</title>
<path fill="none" stroke="midnightblue" d="M266.19,-60.8969C373.604,-50.8093 649.507,-24.8985 755.321,-14.9612"/>
<polygon fill="midnightblue" stroke="midnightblue" points="755.684,-18.4425 765.313,-14.0227 755.03,-11.4732 755.684,-18.4425"/>
</g>
<!-- Node7 -->
<g id="node8" class="node"><title>Node7</title>
<polygon fill="white" stroke="#bfbfbf" points="136.5,-0.5 136.5,-19.5 178.5,-19.5 178.5,-0.5 136.5,-0.5"/>
<text text-anchor="middle" x="157.5" y="-7.5" font-family="Helvetica,sans-Serif" font-size="10.00">limits</text>
</g>
<!-- Node3&#45;&gt;Node7 -->
<g id="edge7" class="edge"><title>Node3&#45;&gt;Node7</title>
<path fill="none" stroke="midnightblue" d="M212.057,-56.324C202.354,-48.2631 187.685,-36.0765 176,-26.3695"/>
<polygon fill="midnightblue" stroke="midnightblue" points="178.062,-23.532 168.133,-19.8339 173.589,-28.9163 178.062,-23.532"/>
</g>
<!-- Node8 -->
<g id="node9" class="node"><title>Node8</title>
<polygon fill="white" stroke="#bfbfbf" points="57,-0.5 57,-19.5 110,-19.5 110,-0.5 57,-0.5"/>
<text text-anchor="middle" x="83.5" y="-7.5" font-family="Helvetica,sans-Serif" font-size="10.00">istream</text>
</g>
<!-- Node3&#45;&gt;Node8 -->
<g id="edge8" class="edge"><title>Node3&#45;&gt;Node8</title>
<path fill="none" stroke="midnightblue" d="M200.475,-56.4435C177.396,-47.4776 140.938,-33.314 114.859,-23.1827"/>
<polygon fill="midnightblue" stroke="midnightblue" points="116.011,-19.8753 105.422,-19.5164 113.476,-26.4002 116.011,-19.8753"/>
</g>
<!-- Node9 -->
<g id="node10" class="node"><title>Node9</title>
<polygon fill="white" stroke="#bfbfbf" points="266.5,-0.5 266.5,-19.5 322.5,-19.5 322.5,-0.5 266.5,-0.5"/>
<text text-anchor="middle" x="294.5" y="-7.5" font-family="Helvetica,sans-Serif" font-size="10.00">sstream</text>
</g>
<!-- Node3&#45;&gt;Node9 -->
<g id="edge9" class="edge"><title>Node3&#45;&gt;Node9</title>
<path fill="none" stroke="midnightblue" d="M234.068,-56.324C244.92,-48.1849 261.381,-35.8395 274.383,-26.0874"/>
<polygon fill="midnightblue" stroke="midnightblue" points="276.821,-28.6339 282.721,-19.8339 272.621,-23.0339 276.821,-28.6339"/>
</g>
<!-- Node10 -->
<g id="node11" class="node"><title>Node10</title>
<polygon fill="white" stroke="#bfbfbf" points="341,-0.5 341,-19.5 388,-19.5 388,-0.5 341,-0.5"/>
<text text-anchor="middle" x="364.5" y="-7.5" font-family="Helvetica,sans-Serif" font-size="10.00">cmath</text>
</g>
<!-- Node3&#45;&gt;Node10 -->
<g id="edge10" class="edge"><title>Node3&#45;&gt;Node10</title>
<path fill="none" stroke="midnightblue" d="M245,-56.4435C268.577,-47.4776 305.822,-33.314 332.464,-23.1827"/>
<polygon fill="midnightblue" stroke="midnightblue" points="334.002,-26.3424 342.105,-19.5164 331.514,-19.7995 334.002,-26.3424"/>
</g>
<!-- Node11&#45;&gt;Node3 -->
<g id="edge12" class="edge"><title>Node11&#45;&gt;Node3</title>
<path fill="none" stroke="midnightblue" d="M143.603,-112.324C158.403,-103.822 181.194,-90.7288 198.482,-80.7975"/>
<polygon fill="midnightblue" stroke="midnightblue" points="200.507,-83.6707 207.435,-75.6545 197.02,-77.6009 200.507,-83.6707"/>
</g>
<!-- Node11&#45;&gt;Node6 -->
<g id="edge14" class="edge"><title>Node11&#45;&gt;Node6</title>
<path fill="none" stroke="midnightblue" d="M157.58,-112.396C205.495,-98.5277 304.231,-71.2491 389.5,-56 521.719,-32.3547 680.408,-19.1342 754.919,-13.8053"/>
<polygon fill="midnightblue" stroke="midnightblue" points="755.558,-17.269 765.288,-13.076 755.067,-10.2863 755.558,-17.269"/>
</g>
<!-- Node11&#45;&gt;Node8 -->
<g id="edge15" class="edge"><title>Node11&#45;&gt;Node8</title>
<path fill="none" stroke="midnightblue" d="M119.759,-112.185C111.853,-103.667 100.552,-90.0252 94.5,-76 88.1875,-61.3699 85.4875,-43.4289 84.3379,-30.1048"/>
<polygon fill="midnightblue" stroke="midnightblue" points="87.8088,-29.5385 83.6748,-19.7835 80.8232,-29.9873 87.8088,-29.5385"/>
</g>
<!-- Node11&#45;&gt;Node12 -->
<g id="edge13" class="edge"><title>Node11&#45;&gt;Node12</title>
<path fill="none" stroke="midnightblue" d="M111.63,-112.324C94.7912,-103.664 68.6935,-90.2424 49.262,-80.249"/>
<polygon fill="midnightblue" stroke="midnightblue" points="50.8218,-77.1155 40.3282,-75.6545 47.6204,-83.3405 50.8218,-77.1155"/>
</g>
<!-- Node13 -->
<g id="node14" class="node"><title>Node13</title>
<polygon fill="white" stroke="#bfbfbf" points="104,-56.5 104,-75.5 161,-75.5 161,-56.5 104,-56.5"/>
<text text-anchor="middle" x="132.5" y="-63.5" font-family="Helvetica,sans-Serif" font-size="10.00">ostream</text>
</g>
<!-- Node11&#45;&gt;Node13 -->
<g id="edge16" class="edge"><title>Node11&#45;&gt;Node13</title>
<path fill="none" stroke="midnightblue" d="M129.161,-112.083C129.685,-105.006 130.436,-94.8611 131.094,-85.9865"/>
<polygon fill="midnightblue" stroke="midnightblue" points="134.603,-85.9823 131.852,-75.7511 127.623,-85.4652 134.603,-85.9823"/>
</g>
<!-- Node15&#45;&gt;Node9 -->
<g id="edge24" class="edge"><title>Node15&#45;&gt;Node9</title>
<path fill="none" stroke="midnightblue" d="M466.243,-112.149C466.893,-98.3055 466.008,-71.5136 451.5,-56 447.325,-51.5355 377.526,-32.6643 332.414,-20.8229"/>
<polygon fill="midnightblue" stroke="midnightblue" points="333.201,-17.4112 322.641,-18.2661 331.429,-24.1833 333.201,-17.4112"/>
</g>
<!-- Node15&#45;&gt;Node14 -->
<g id="edge20" class="edge"><title>Node15&#45;&gt;Node14</title>
<path fill="none" stroke="midnightblue" d="M458.069,-112.083C451.647,-104.377 442.194,-93.0333 434.378,-83.6531"/>
<polygon fill="midnightblue" stroke="midnightblue" points="436.883,-81.1927 427.793,-75.7511 431.506,-85.674 436.883,-81.1927"/>
</g>
<!-- Node15&#45;&gt;Node16 -->
<g id="edge21" class="edge"><title>Node15&#45;&gt;Node16</title>
<path fill="none" stroke="midnightblue" d="M492.12,-112.444C520.506,-103.32 565.637,-88.8133 597.253,-78.6509"/>
<polygon fill="midnightblue" stroke="midnightblue" points="598.555,-81.9087 607.004,-75.5164 596.413,-75.2445 598.555,-81.9087"/>
</g>
<!-- Node17 -->
<g id="node18" class="node"><title>Node17</title>
<polygon fill="white" stroke="#bfbfbf" points="498.5,-56.5 498.5,-75.5 536.5,-75.5 536.5,-56.5 498.5,-56.5"/>
<text text-anchor="middle" x="517.5" y="-63.5" font-family="Helvetica,sans-Serif" font-size="10.00">map</text>
</g>
<!-- Node15&#45;&gt;Node17 -->
<g id="edge22" class="edge"><title>Node15&#45;&gt;Node17</title>
<path fill="none" stroke="midnightblue" d="M474.087,-112.083C481.659,-104.22 492.878,-92.5688 502.014,-83.0813"/>
<polygon fill="midnightblue" stroke="midnightblue" points="504.658,-85.3821 509.073,-75.7511 499.615,-80.5266 504.658,-85.3821"/>
</g>
<!-- Node18 -->
<g id="node19" class="node"><title>Node18</title>
<polygon fill="white" stroke="#bfbfbf" points="554.5,-56.5 554.5,-75.5 586.5,-75.5 586.5,-56.5 554.5,-56.5"/>
<text text-anchor="middle" x="570.5" y="-63.5" font-family="Helvetica,sans-Serif" font-size="10.00">set</text>
</g>
<!-- Node15&#45;&gt;Node18 -->
<g id="edge23" class="edge"><title>Node15&#45;&gt;Node18</title>
<path fill="none" stroke="midnightblue" d="M482.37,-112.324C499.408,-103.562 525.926,-89.924 545.425,-79.8957"/>
<polygon fill="midnightblue" stroke="midnightblue" points="547.069,-82.9858 554.361,-75.2998 543.868,-76.7608 547.069,-82.9858"/>
</g>
<!-- Node19&#45;&gt;Node6 -->
<g id="edge48" class="edge"><title>Node19&#45;&gt;Node6</title>
<path fill="none" stroke="midnightblue" d="M954.091,-176.733C988.59,-173.723 1033.13,-163.411 1056.5,-132 1069.4,-114.659 1061.24,-72.9255 1043.5,-56 1014.92,-28.7334 902.67,-17.493 840.144,-13.2723"/>
<polygon fill="midnightblue" stroke="midnightblue" points="840.021,-9.75732 829.817,-12.6085 839.572,-16.7429 840.021,-9.75732"/>
</g>
<!-- Node19&#45;&gt;Node14 -->
<g id="edge45" class="edge"><title>Node19&#45;&gt;Node14</title>
<path fill="none" stroke="midnightblue" d="M858.816,-172.15C812.925,-166.377 742.192,-154.538 684.5,-132 668.526,-125.759 667.498,-118.18 651.5,-112 615.59,-98.1285 507.385,-80.2963 452.772,-71.8501"/>
<polygon fill="midnightblue" stroke="midnightblue" points="453.017,-68.3467 442.602,-70.2899 451.955,-75.2657 453.017,-68.3467"/>
</g>
<!-- Node19&#45;&gt;Node16 -->
<g id="edge44" class="edge"><title>Node19&#45;&gt;Node16</title>
<path fill="none" stroke="midnightblue" d="M906.667,-168.352C906.435,-154.296 903.783,-126.597 887.5,-112 879.531,-104.856 741.799,-83.2842 672.568,-72.8191"/>
<polygon fill="midnightblue" stroke="midnightblue" points="672.884,-69.3274 662.474,-71.2987 671.842,-76.2493 672.884,-69.3274"/>
</g>
<!-- Node19&#45;&gt;Node18 -->
<g id="edge47" class="edge"><title>Node19&#45;&gt;Node18</title>
<path fill="none" stroke="midnightblue" d="M862.78,-168.43C826.111,-160.67 772.649,-148.013 727.5,-132 707.635,-124.955 703.867,-120.318 684.5,-112 654.526,-99.1268 619.567,-85.5331 596.344,-76.6989"/>
<polygon fill="midnightblue" stroke="midnightblue" points="597.451,-73.3756 586.859,-73.1075 594.972,-79.922 597.451,-73.3756"/>
</g>
<!-- Node20 -->
<g id="node21" class="node"><title>Node20</title>
<g id="a_node21"><a xlink:href="string_8h.html" target="_top" xlink:title="base/std_ext/string.h">
<polygon fill="white" stroke="black" points="239,-112.5 239,-131.5 356,-131.5 356,-112.5 239,-112.5"/>
<text text-anchor="middle" x="297.5" y="-119.5" font-family="Helvetica,sans-Serif" font-size="10.00">base/std_ext/string.h</text>
</a>
</g>
</g>
<!-- Node19&#45;&gt;Node20 -->
<g id="edge26" class="edge"><title>Node19&#45;&gt;Node20</title>
<path fill="none" stroke="midnightblue" d="M858.966,-172.785C751.824,-163.285 491.112,-140.168 366.302,-129.101"/>
<polygon fill="midnightblue" stroke="midnightblue" points="366.374,-125.593 356.104,-128.196 365.756,-132.566 366.374,-125.593"/>
</g>
<!-- Node21 -->
<g id="node22" class="node"><title>Node21</title>
<g id="a_node22"><a xlink:href="misc_8h.html" target="_top" xlink:title="base/std_ext/misc.h">
<polygon fill="white" stroke="black" points="935,-112.5 935,-131.5 1048,-131.5 1048,-112.5 935,-112.5"/>
<text text-anchor="middle" x="991.5" y="-119.5" font-family="Helvetica,sans-Serif" font-size="10.00">base/std_ext/misc.h</text>
</a>
</g>
</g>
<!-- Node19&#45;&gt;Node21 -->
<g id="edge31" class="edge"><title>Node19&#45;&gt;Node21</title>
<path fill="none" stroke="midnightblue" d="M920.157,-168.324C933.416,-159.9 953.768,-146.971 969.346,-137.074"/>
<polygon fill="midnightblue" stroke="midnightblue" points="971.313,-139.971 977.877,-131.655 967.56,-134.063 971.313,-139.971"/>
</g>
<!-- Node19&#45;&gt;Node22 -->
<g id="edge49" class="edge"><title>Node19&#45;&gt;Node22</title>
<path fill="none" stroke="midnightblue" d="M954.037,-174.515C993.553,-170.427 1049.71,-159.747 1090.5,-132 1107.77,-120.248 1120.68,-99.7193 1128.36,-84.8716"/>
<polygon fill="midnightblue" stroke="midnightblue" points="1131.61,-86.2016 1132.83,-75.6777 1125.31,-83.1411 1131.61,-86.2016"/>
</g>
<!-- Node25 -->
<g id="node26" class="node"><title>Node25</title>
<polygon fill="white" stroke="#bfbfbf" points="1142.5,-112.5 1142.5,-131.5 1188.5,-131.5 1188.5,-112.5 1142.5,-112.5"/>
<text text-anchor="middle" x="1165.5" y="-119.5" font-family="Helvetica,sans-Serif" font-size="10.00">TFile.h</text>
</g>
<!-- Node19&#45;&gt;Node25 -->
<g id="edge38" class="edge"><title>Node19&#45;&gt;Node25</title>
<path fill="none" stroke="midnightblue" d="M951.255,-168.455C996.167,-159.756 1067.28,-145.645 1128.5,-132 1129.77,-131.717 1131.06,-131.424 1132.37,-131.125"/>
<polygon fill="midnightblue" stroke="midnightblue" points="1133.51,-134.453 1142.44,-128.755 1131.9,-127.639 1133.51,-134.453"/>
</g>
<!-- Node26 -->
<g id="node27" class="node"><title>Node26</title>
<polygon fill="white" stroke="#bfbfbf" points="1207,-112.5 1207,-131.5 1280,-131.5 1280,-112.5 1207,-112.5"/>
<text text-anchor="middle" x="1243.5" y="-119.5" font-family="Helvetica,sans-Serif" font-size="10.00">TDirectory.h</text>
</g>
<!-- Node19&#45;&gt;Node26 -->
<g id="edge39" class="edge"><title>Node19&#45;&gt;Node26</title>
<path fill="none" stroke="midnightblue" d="M954.229,-170.214C1009.93,-162.163 1105.04,-148.005 1196.85,-132.054"/>
<polygon fill="midnightblue" stroke="midnightblue" points="1197.62,-135.473 1206.87,-130.304 1196.41,-128.577 1197.62,-135.473"/>
</g>
<!-- Node27 -->
<g id="node28" class="node"><title>Node27</title>
<polygon fill="white" stroke="#bfbfbf" points="1298,-112.5 1298,-131.5 1351,-131.5 1351,-112.5 1298,-112.5"/>
<text text-anchor="middle" x="1324.5" y="-119.5" font-family="Helvetica,sans-Serif" font-size="10.00">TError.h</text>
</g>
<!-- Node19&#45;&gt;Node27 -->
<g id="edge40" class="edge"><title>Node19&#45;&gt;Node27</title>
<path fill="none" stroke="midnightblue" d="M954.279,-173.468C1025.14,-167.773 1162.4,-154.999 1287.68,-132.133"/>
<polygon fill="midnightblue" stroke="midnightblue" points="1288.63,-135.516 1297.83,-130.253 1287.36,-128.633 1288.63,-135.516"/>
</g>
<!-- Node28 -->
<g id="node29" class="node"><title>Node28</title>
<polygon fill="white" stroke="#bfbfbf" points="1369,-112.5 1369,-131.5 1416,-131.5 1416,-112.5 1369,-112.5"/>
<text text-anchor="middle" x="1392.5" y="-119.5" font-family="Helvetica,sans-Serif" font-size="10.00">TList.h</text>
</g>
<!-- Node19&#45;&gt;Node28 -->
<g id="edge41" class="edge"><title>Node19&#45;&gt;Node28</title>
<path fill="none" stroke="midnightblue" d="M954.276,-175.022C1035.66,-171.053 1206.44,-160.128 1358.83,-132.028"/>
<polygon fill="midnightblue" stroke="midnightblue" points="1359.66,-135.434 1368.84,-130.152 1358.37,-128.554 1359.66,-135.434"/>
</g>
<!-- Node29 -->
<g id="node30" class="node"><title>Node29</title>
<polygon fill="white" stroke="#bfbfbf" points="737,-112.5 737,-131.5 814,-131.5 814,-112.5 737,-112.5"/>
<text text-anchor="middle" x="775.5" y="-119.5" font-family="Helvetica,sans-Serif" font-size="10.00">TCollection.h</text>
</g>
<!-- Node19&#45;&gt;Node29 -->
<g id="edge42" class="edge"><title>Node19&#45;&gt;Node29</title>
<path fill="none" stroke="midnightblue" d="M885.743,-168.444C864.184,-159.557 830.237,-145.563 805.706,-135.451"/>
<polygon fill="midnightblue" stroke="midnightblue" points="806.739,-132.092 796.16,-131.516 804.072,-138.563 806.739,-132.092"/>
</g>
<!-- Node30 -->
<g id="node31" class="node"><title>Node30</title>
<polygon fill="white" stroke="#bfbfbf" points="832.5,-112.5 832.5,-131.5 878.5,-131.5 878.5,-112.5 832.5,-112.5"/>
<text text-anchor="middle" x="855.5" y="-119.5" font-family="Helvetica,sans-Serif" font-size="10.00">TKey.h</text>
</g>
<!-- Node19&#45;&gt;Node30 -->
<g id="edge43" class="edge"><title>Node19&#45;&gt;Node30</title>
<path fill="none" stroke="midnightblue" d="M898.078,-168.083C890.652,-160.22 879.648,-148.569 870.688,-139.081"/>
<polygon fill="midnightblue" stroke="midnightblue" points="873.176,-136.618 863.765,-131.751 868.087,-141.424 873.176,-136.618"/>
</g>
<!-- Node31 -->
<g id="node32" class="node"><title>Node31</title>
<polygon fill="white" stroke="#bfbfbf" points="612.5,-112.5 612.5,-131.5 642.5,-131.5 642.5,-112.5 612.5,-112.5"/>
<text text-anchor="middle" x="627.5" y="-119.5" font-family="Helvetica,sans-Serif" font-size="10.00">list</text>
</g>
<!-- Node19&#45;&gt;Node31 -->
<g id="edge46" class="edge"><title>Node19&#45;&gt;Node31</title>
<path fill="none" stroke="midnightblue" d="M858.673,-170.18C808.085,-162.55 726.117,-149 656.5,-132 655.233,-131.69 653.939,-131.357 652.636,-131.006"/>
<polygon fill="midnightblue" stroke="midnightblue" points="653.333,-127.564 642.753,-128.119 651.37,-134.283 653.333,-127.564"/>
</g>
<!-- Node20&#45;&gt;Node5 -->
<g id="edge29" class="edge"><title>Node20&#45;&gt;Node5</title>
<path fill="none" stroke="midnightblue" d="M308.486,-112.368C332.305,-93.6531 388.944,-49.1509 418.622,-25.8324"/>
<polygon fill="midnightblue" stroke="midnightblue" points="420.865,-28.5218 426.565,-19.5914 416.54,-23.0176 420.865,-28.5218"/>
</g>
<!-- Node20&#45;&gt;Node9 -->
<g id="edge28" class="edge"><title>Node20&#45;&gt;Node9</title>
<path fill="none" stroke="midnightblue" d="M297.265,-112.368C296.78,-94.617 295.664,-53.6664 295.007,-29.5974"/>
<polygon fill="midnightblue" stroke="midnightblue" points="298.506,-29.4922 294.734,-19.5914 291.508,-29.6832 298.506,-29.4922"/>
</g>
<!-- Node20&#45;&gt;Node12 -->
<g id="edge30" class="edge"><title>Node20&#45;&gt;Node12</title>
<path fill="none" stroke="midnightblue" d="M254.084,-112.444C199.423,-101.671 106.689,-83.395 57.1152,-73.6249"/>
<polygon fill="midnightblue" stroke="midnightblue" points="57.709,-70.1747 47.2209,-71.6749 56.3554,-77.0426 57.709,-70.1747"/>
</g>
<!-- Node20&#45;&gt;Node14 -->
<g id="edge27" class="edge"><title>Node20&#45;&gt;Node14</title>
<path fill="none" stroke="midnightblue" d="M316.99,-112.444C337.142,-103.596 368.823,-89.6875 391.831,-79.5865"/>
<polygon fill="midnightblue" stroke="midnightblue" points="393.352,-82.7411 401.101,-75.5164 390.538,-76.3316 393.352,-82.7411"/>
</g>
<!-- Node21&#45;&gt;Node5 -->
<g id="edge32" class="edge"><title>Node21&#45;&gt;Node5</title>
<path fill="none" stroke="midnightblue" d="M961.167,-112.483C912.717,-99.0974 814.739,-72.9213 730.5,-56 641.437,-38.1097 535.895,-23.4965 478.941,-16.1466"/>
<polygon fill="midnightblue" stroke="midnightblue" points="479.251,-12.6577 468.887,-14.8596 478.362,-19.6011 479.251,-12.6577"/>
</g>
<!-- Node21&#45;&gt;Node10 -->
<g id="edge34" class="edge"><title>Node21&#45;&gt;Node10</title>
<path fill="none" stroke="midnightblue" d="M934.982,-113.769C881.768,-106.37 800.067,-93.4852 730.5,-76 703.239,-69.1481 697.892,-62.3105 670.5,-56 554.385,-29.2492 519.316,-43.3614 398.231,-19.8687"/>
<polygon fill="midnightblue" stroke="midnightblue" points="398.692,-16.3918 388.201,-17.8757 397.328,-23.2576 398.692,-16.3918"/>
</g>
<!-- Node21&#45;&gt;Node16 -->
<g id="edge37" class="edge"><title>Node21&#45;&gt;Node16</title>
<path fill="none" stroke="midnightblue" d="M934.774,-112.444C861.376,-101.372 735.437,-82.376 672.166,-72.8324"/>
<polygon fill="midnightblue" stroke="midnightblue" points="672.612,-69.3601 662.202,-71.3294 671.568,-76.2818 672.612,-69.3601"/>
</g>
<!-- Node21&#45;&gt;Node22 -->
<g id="edge33" class="edge"><title>Node21&#45;&gt;Node22</title>
<path fill="none" stroke="midnightblue" d="M1014.48,-112.444C1038.66,-103.438 1076.92,-89.1891 1104.15,-79.049"/>
<polygon fill="midnightblue" stroke="midnightblue" points="1105.48,-82.2864 1113.63,-75.5164 1103.04,-75.7265 1105.48,-82.2864"/>
</g>
<!-- Node23 -->
<g id="node24" class="node"><title>Node23</title>
<polygon fill="white" stroke="#bfbfbf" points="978.5,-56.5 978.5,-75.5 1034.5,-75.5 1034.5,-56.5 978.5,-56.5"/>
<text text-anchor="middle" x="1006.5" y="-63.5" font-family="Helvetica,sans-Serif" font-size="10.00">cxxabi.h</text>
</g>
<!-- Node21&#45;&gt;Node23 -->
<g id="edge35" class="edge"><title>Node21&#45;&gt;Node23</title>
<path fill="none" stroke="midnightblue" d="M993.977,-112.083C995.986,-104.849 998.886,-94.4087 1001.39,-85.3968"/>
<polygon fill="midnightblue" stroke="midnightblue" points="1004.76,-86.323 1004.07,-75.7511 998.02,-84.4495 1004.76,-86.323"/>
</g>
<!-- Node24 -->
<g id="node25" class="node"><title>Node24</title>
<polygon fill="white" stroke="#bfbfbf" points="892.5,-56.5 892.5,-75.5 960.5,-75.5 960.5,-56.5 892.5,-56.5"/>
<text text-anchor="middle" x="926.5" y="-63.5" font-family="Helvetica,sans-Serif" font-size="10.00">type_traits</text>
</g>
<!-- Node21&#45;&gt;Node24 -->
<g id="edge36" class="edge"><title>Node21&#45;&gt;Node24</title>
<path fill="none" stroke="midnightblue" d="M981.057,-112.324C971.354,-104.263 956.685,-92.0765 945,-82.3695"/>
<polygon fill="midnightblue" stroke="midnightblue" points="947.062,-79.532 937.133,-75.8339 942.589,-84.9163 947.062,-79.532"/>
</g>
<!-- Node32&#45;&gt;Node16 -->
<g id="edge51" class="edge"><title>Node32&#45;&gt;Node16</title>
<path fill="none" stroke="midnightblue" d="M629.338,-168.185C620.592,-159.87 608.6,-146.539 603.5,-132 597.55,-115.038 607.898,-96.496 618.027,-83.5725"/>
<polygon fill="midnightblue" stroke="midnightblue" points="620.987,-85.4955 624.803,-75.6116 615.656,-80.9587 620.987,-85.4955"/>
</g>
<!-- Node32&#45;&gt;Node31 -->
<g id="edge52" class="edge"><title>Node32&#45;&gt;Node31</title>
<path fill="none" stroke="midnightblue" d="M637.518,-168.083C635.928,-160.927 633.641,-150.635 631.654,-141.691"/>
<polygon fill="midnightblue" stroke="midnightblue" points="635.031,-140.754 629.445,-131.751 628.197,-142.272 635.031,-140.754"/>
</g>
</g>
</svg>
