<?xml version="1.0" encoding="UTF-8" standalone="no"?>
<!DOCTYPE svg PUBLIC "-//W3C//DTD SVG 1.1//EN"
 "http://www.w3.org/Graphics/SVG/1.1/DTD/svg11.dtd">
<!-- Generated by graphviz version 2.38.0 (20140413.2041)
 -->
<!-- Title: src/mc/pluto/PlutoGenerator.cc Pages: 1 -->
<svg width="1840pt" height="420pt"
 viewBox="0.00 0.00 1839.50 420.00" xmlns="http://www.w3.org/2000/svg" xmlns:xlink="http://www.w3.org/1999/xlink">
<g id="graph0" class="graph" transform="scale(1 1) rotate(0) translate(4 416)">
<title>src/mc/pluto/PlutoGenerator.cc</title>
<polygon fill="white" stroke="none" points="-4,4 -4,-416 1835.5,-416 1835.5,4 -4,4"/>
<!-- Node0 -->
<g id="node1" class="node"><title>Node0</title>
<polygon fill="#bfbfbf" stroke="black" points="1444,-392.5 1444,-411.5 1608,-411.5 1608,-392.5 1444,-392.5"/>
<text text-anchor="middle" x="1526" y="-399.5" font-family="Helvetica,sans-Serif" font-size="10.00">src/mc/pluto/PlutoGenerator.cc</text>
</g>
<!-- Node1 -->
<g id="node2" class="node"><title>Node1</title>
<g id="a_node2"><a xlink:href="_pluto_generator_8h.html" target="_top" xlink:title="PlutoGenerator.h">
<polygon fill="white" stroke="black" points="664,-336.5 664,-355.5 762,-355.5 762,-336.5 664,-336.5"/>
<text text-anchor="middle" x="713" y="-343.5" font-family="Helvetica,sans-Serif" font-size="10.00">PlutoGenerator.h</text>
</a>
</g>
</g>
<!-- Node0&#45;&gt;Node1 -->
<g id="edge1" class="edge"><title>Node0&#45;&gt;Node1</title>
<path fill="none" stroke="midnightblue" d="M1443.95,-395.55C1280.12,-384.669 915.956,-360.48 772.617,-350.96"/>
<polygon fill="midnightblue" stroke="midnightblue" points="772.488,-347.444 762.278,-350.273 772.024,-354.428 772.488,-347.444"/>
</g>
<!-- Node46 -->
<g id="node47" class="node"><title>Node46</title>
<g id="a_node47"><a xlink:href="_pluto_extensions_8h.html" target="_top" xlink:title="PlutoExtensions.h">
<polygon fill="white" stroke="black" points="1423.5,-336.5 1423.5,-355.5 1524.5,-355.5 1524.5,-336.5 1423.5,-336.5"/>
<text text-anchor="middle" x="1474" y="-343.5" font-family="Helvetica,sans-Serif" font-size="10.00">PlutoExtensions.h</text>
</a>
</g>
</g>
<!-- Node0&#45;&gt;Node46 -->
<g id="edge70" class="edge"><title>Node0&#45;&gt;Node46</title>
<path fill="none" stroke="midnightblue" d="M1517.41,-392.083C1509.84,-384.22 1498.62,-372.569 1489.49,-363.081"/>
<polygon fill="midnightblue" stroke="midnightblue" points="1491.88,-360.527 1482.43,-355.751 1486.84,-365.382 1491.88,-360.527"/>
</g>
<!-- Node53 -->
<g id="node54" class="node"><title>Node53</title>
<polygon fill="white" stroke="#bfbfbf" points="1543,-336.5 1543,-355.5 1615,-355.5 1615,-336.5 1543,-336.5"/>
<text text-anchor="middle" x="1579" y="-343.5" font-family="Helvetica,sans-Serif" font-size="10.00">PReaction.h</text>
</g>
<!-- Node0&#45;&gt;Node53 -->
<g id="edge77" class="edge"><title>Node0&#45;&gt;Node53</title>
<path fill="none" stroke="midnightblue" d="M1534.75,-392.083C1542.47,-384.22 1553.9,-372.569 1563.22,-363.081"/>
<polygon fill="midnightblue" stroke="midnightblue" points="1565.9,-365.34 1570.41,-355.751 1560.91,-360.436 1565.9,-365.34"/>
</g>
<!-- Node54 -->
<g id="node55" class="node"><title>Node54</title>
<polygon fill="white" stroke="#bfbfbf" points="1633,-336.5 1633,-355.5 1699,-355.5 1699,-336.5 1633,-336.5"/>
<text text-anchor="middle" x="1666" y="-343.5" font-family="Helvetica,sans-Serif" font-size="10.00">PParticle.h</text>
</g>
<!-- Node0&#45;&gt;Node54 -->
<g id="edge78" class="edge"><title>Node0&#45;&gt;Node54</title>
<path fill="none" stroke="midnightblue" d="M1548.18,-392.444C1571.43,-383.478 1608.15,-369.314 1634.42,-359.183"/>
<polygon fill="midnightblue" stroke="midnightblue" points="1635.85,-362.381 1643.92,-355.516 1633.33,-355.85 1635.85,-362.381"/>
</g>
<!-- Node2 -->
<g id="node3" class="node"><title>Node2</title>
<polygon fill="white" stroke="#bfbfbf" points="882,-56.5 882,-75.5 926,-75.5 926,-56.5 882,-56.5"/>
<text text-anchor="middle" x="904" y="-63.5" font-family="Helvetica,sans-Serif" font-size="10.00">string</text>
</g>
<!-- Node1&#45;&gt;Node2 -->
<g id="edge2" class="edge"><title>Node1&#45;&gt;Node2</title>
<path fill="none" stroke="midnightblue" d="M755.54,-336.439C778.616,-329.879 806.184,-318.672 825,-300 886.229,-239.239 900.017,-129.341 903.111,-85.6459"/>
<polygon fill="midnightblue" stroke="midnightblue" points="906.608,-85.7909 903.71,-75.6002 899.62,-85.3741 906.608,-85.7909"/>
</g>
<!-- Node3 -->
<g id="node4" class="node"><title>Node3</title>
<polygon fill="white" stroke="#bfbfbf" points="768.5,-56.5 768.5,-75.5 815.5,-75.5 815.5,-56.5 768.5,-56.5"/>
<text text-anchor="middle" x="792" y="-63.5" font-family="Helvetica,sans-Serif" font-size="10.00">vector</text>
</g>
<!-- Node1&#45;&gt;Node3 -->
<g id="edge3" class="edge"><title>Node1&#45;&gt;Node3</title>
<path fill="none" stroke="midnightblue" d="M706.371,-336.275C700.235,-327.607 691.542,-313.669 688,-300 680.652,-271.641 666.044,-280.479 696,-168 703.111,-141.3 704.758,-132.753 723,-112 734.431,-98.9956 750.481,-88.2273 764.225,-80.4883"/>
<polygon fill="midnightblue" stroke="midnightblue" points="766.131,-83.4375 773.287,-75.6243 762.821,-77.2698 766.131,-83.4375"/>
</g>
<!-- Node4 -->
<g id="node5" class="node"><title>Node4</title>
<g id="a_node5"><a xlink:href="_wrap_t_file_8h.html" target="_top" xlink:title="base/WrapTFile.h">
<polygon fill="white" stroke="black" points="1149.5,-168.5 1149.5,-187.5 1244.5,-187.5 1244.5,-168.5 1149.5,-168.5"/>
<text text-anchor="middle" x="1197" y="-175.5" font-family="Helvetica,sans-Serif" font-size="10.00">base/WrapTFile.h</text>
</a>
</g>
</g>
<!-- Node1&#45;&gt;Node4 -->
<g id="edge4" class="edge"><title>Node1&#45;&gt;Node4</title>
<path fill="none" stroke="midnightblue" d="M757.695,-336.495C796.548,-328.61 854.115,-315.74 903,-300 1003.94,-267.5 1118.95,-215.634 1170.07,-191.772"/>
<polygon fill="midnightblue" stroke="midnightblue" points="1171.57,-194.935 1179.14,-187.52 1168.6,-188.598 1171.57,-194.935"/>
</g>
<!-- Node14 -->
<g id="node15" class="node"><title>Node14</title>
<polygon fill="white" stroke="#bfbfbf" points="1754,-112.5 1754,-131.5 1800,-131.5 1800,-112.5 1754,-112.5"/>
<text text-anchor="middle" x="1777" y="-119.5" font-family="Helvetica,sans-Serif" font-size="10.00">TFile.h</text>
</g>
<!-- Node1&#45;&gt;Node14 -->
<g id="edge66" class="edge"><title>Node1&#45;&gt;Node14</title>
<path fill="none" stroke="midnightblue" d="M757.754,-336.482C804.318,-327.573 879.326,-313.09 944,-300 1300.09,-227.93 1390.81,-217.167 1744,-132 1744.1,-131.976 1744.2,-131.951 1744.3,-131.927"/>
<polygon fill="midnightblue" stroke="midnightblue" points="1745.14,-135.326 1753.97,-129.469 1743.41,-128.542 1745.14,-135.326"/>
</g>
<!-- Node23 -->
<g id="node24" class="node"><title>Node23</title>
<g id="a_node24"><a xlink:href="_query_8h.html" target="_top" xlink:title="mc/database/Query.h">
<polygon fill="white" stroke="black" points="697.5,-280.5 697.5,-299.5 816.5,-299.5 816.5,-280.5 697.5,-280.5"/>
<text text-anchor="middle" x="757" y="-287.5" font-family="Helvetica,sans-Serif" font-size="10.00">mc/database/Query.h</text>
</a>
</g>
</g>
<!-- Node1&#45;&gt;Node23 -->
<g id="edge29" class="edge"><title>Node1&#45;&gt;Node23</title>
<path fill="none" stroke="midnightblue" d="M720.266,-336.083C726.545,-328.377 735.788,-317.033 743.431,-307.653"/>
<polygon fill="midnightblue" stroke="midnightblue" points="746.266,-309.714 749.869,-299.751 740.839,-305.293 746.266,-309.714"/>
</g>
<!-- Node42 -->
<g id="node43" class="node"><title>Node42</title>
<g id="a_node43"><a xlink:href="_pluto_factory_8h.html" target="_top" xlink:title="PlutoFactory.h">
<polygon fill="white" stroke="black" points="355.5,-280.5 355.5,-299.5 438.5,-299.5 438.5,-280.5 355.5,-280.5"/>
<text text-anchor="middle" x="397" y="-287.5" font-family="Helvetica,sans-Serif" font-size="10.00">PlutoFactory.h</text>
</a>
</g>
</g>
<!-- Node1&#45;&gt;Node42 -->
<g id="edge63" class="edge"><title>Node1&#45;&gt;Node42</title>
<path fill="none" stroke="midnightblue" d="M663.972,-336.622C605.468,-326.624 508.1,-309.985 448.519,-299.804"/>
<polygon fill="midnightblue" stroke="midnightblue" points="449.019,-296.339 438.572,-298.104 447.84,-303.239 449.019,-296.339"/>
</g>
<!-- Node43 -->
<g id="node44" class="node"><title>Node43</title>
<polygon fill="white" stroke="#bfbfbf" points="435,-224.5 435,-243.5 477,-243.5 477,-224.5 435,-224.5"/>
<text text-anchor="middle" x="456" y="-231.5" font-family="Helvetica,sans-Serif" font-size="10.00">TF1.h</text>
</g>
<!-- Node1&#45;&gt;Node43 -->
<g id="edge67" class="edge"><title>Node1&#45;&gt;Node43</title>
<path fill="none" stroke="midnightblue" d="M663.978,-340.495C605.745,-334.266 513.067,-321.314 486,-300 471.527,-288.603 463.757,-268.614 459.779,-253.803"/>
<polygon fill="midnightblue" stroke="midnightblue" points="463.106,-252.659 457.429,-243.714 456.289,-254.247 463.106,-252.659"/>
</g>
<!-- Node44 -->
<g id="node45" class="node"><title>Node44</title>
<polygon fill="white" stroke="#bfbfbf" points="495,-280.5 495,-299.5 545,-299.5 545,-280.5 495,-280.5"/>
<text text-anchor="middle" x="520" y="-287.5" font-family="Helvetica,sans-Serif" font-size="10.00">TTree.h</text>
</g>
<!-- Node1&#45;&gt;Node44 -->
<g id="edge68" class="edge"><title>Node1&#45;&gt;Node44</title>
<path fill="none" stroke="midnightblue" d="M682.419,-336.444C647.734,-326.739 591.286,-310.945 554.905,-300.766"/>
<polygon fill="midnightblue" stroke="midnightblue" points="555.784,-297.378 545.21,-298.054 553.898,-304.119 555.784,-297.378"/>
</g>
<!-- Node45 -->
<g id="node46" class="node"><title>Node45</title>
<polygon fill="white" stroke="#bfbfbf" points="563.5,-280.5 563.5,-299.5 640.5,-299.5 640.5,-280.5 563.5,-280.5"/>
<text text-anchor="middle" x="602" y="-287.5" font-family="Helvetica,sans-Serif" font-size="10.00">TRandom3.h</text>
</g>
<!-- Node1&#45;&gt;Node45 -->
<g id="edge69" class="edge"><title>Node1&#45;&gt;Node45</title>
<path fill="none" stroke="midnightblue" d="M695.166,-336.324C677.284,-327.625 649.525,-314.12 628.954,-304.113"/>
<polygon fill="midnightblue" stroke="midnightblue" points="630.313,-300.882 619.79,-299.655 627.251,-307.177 630.313,-300.882"/>
</g>
<!-- Node4&#45;&gt;Node2 -->
<g id="edge24" class="edge"><title>Node4&#45;&gt;Node2</title>
<path fill="none" stroke="midnightblue" d="M1200.79,-168.208C1206.07,-154.446 1213.55,-127.764 1200,-112 1182.93,-92.1335 1009.2,-75.6514 936.12,-69.5423"/>
<polygon fill="midnightblue" stroke="midnightblue" points="936.352,-66.0496 926.099,-68.717 935.778,-73.026 936.352,-66.0496"/>
</g>
<!-- Node5 -->
<g id="node6" class="node"><title>Node5</title>
<g id="a_node6"><a xlink:href="string_8h.html" target="_top" xlink:title="base/std_ext/string.h">
<polygon fill="white" stroke="black" points="1247.5,-112.5 1247.5,-131.5 1364.5,-131.5 1364.5,-112.5 1247.5,-112.5"/>
<text text-anchor="middle" x="1306" y="-119.5" font-family="Helvetica,sans-Serif" font-size="10.00">base/std_ext/string.h</text>
</a>
</g>
</g>
<!-- Node4&#45;&gt;Node5 -->
<g id="edge5" class="edge"><title>Node4&#45;&gt;Node5</title>
<path fill="none" stroke="midnightblue" d="M1214.51,-168.324C1232.07,-159.625 1259.33,-146.12 1279.53,-136.113"/>
<polygon fill="midnightblue" stroke="midnightblue" points="1281.12,-139.23 1288.53,-131.655 1278.02,-132.958 1281.12,-139.23"/>
</g>
<!-- Node8 -->
<g id="node9" class="node"><title>Node8</title>
<g id="a_node9"><a xlink:href="misc_8h.html" target="_top" xlink:title="base/std_ext/misc.h">
<polygon fill="white" stroke="black" points="1622.5,-112.5 1622.5,-131.5 1735.5,-131.5 1735.5,-112.5 1622.5,-112.5"/>
<text text-anchor="middle" x="1679" y="-119.5" font-family="Helvetica,sans-Serif" font-size="10.00">base/std_ext/misc.h</text>
</a>
</g>
</g>
<!-- Node4&#45;&gt;Node8 -->
<g id="edge10" class="edge"><title>Node4&#45;&gt;Node8</title>
<path fill="none" stroke="midnightblue" d="M1244.7,-169.873C1249.53,-169.212 1254.36,-168.576 1259,-168 1413.75,-148.795 1453.09,-149.806 1608,-132 1609.47,-131.832 1610.95,-131.659 1612.44,-131.484"/>
<polygon fill="midnightblue" stroke="midnightblue" points="1612.92,-134.952 1622.43,-130.291 1612.09,-128.002 1612.92,-134.952"/>
</g>
<!-- Node9 -->
<g id="node10" class="node"><title>Node9</title>
<polygon fill="white" stroke="#bfbfbf" points="1531.5,-56.5 1531.5,-75.5 1594.5,-75.5 1594.5,-56.5 1531.5,-56.5"/>
<text text-anchor="middle" x="1563" y="-63.5" font-family="Helvetica,sans-Serif" font-size="10.00">functional</text>
</g>
<!-- Node4&#45;&gt;Node9 -->
<g id="edge28" class="edge"><title>Node4&#45;&gt;Node9</title>
<path fill="none" stroke="midnightblue" d="M1244.71,-169.926C1249.53,-169.255 1254.36,-168.602 1259,-168 1328.87,-158.938 1527.09,-184.572 1574,-132 1585.39,-119.233 1579.73,-99.2097 1573.04,-84.7596"/>
<polygon fill="midnightblue" stroke="midnightblue" points="1576.13,-83.1041 1568.45,-75.8037 1569.9,-86.2989 1576.13,-83.1041"/>
</g>
<!-- Node13 -->
<g id="node14" class="node"><title>Node13</title>
<polygon fill="white" stroke="#bfbfbf" points="1364.5,-56.5 1364.5,-75.5 1421.5,-75.5 1421.5,-56.5 1364.5,-56.5"/>
<text text-anchor="middle" x="1393" y="-63.5" font-family="Helvetica,sans-Serif" font-size="10.00">memory</text>
</g>
<!-- Node4&#45;&gt;Node13 -->
<g id="edge23" class="edge"><title>Node4&#45;&gt;Node13</title>
<path fill="none" stroke="midnightblue" d="M1244.56,-170.175C1290.15,-162.715 1354.68,-149.46 1373,-132 1385.54,-120.046 1390.28,-100.434 1392.04,-85.8746"/>
<polygon fill="midnightblue" stroke="midnightblue" points="1395.56,-85.7799 1392.9,-75.5238 1388.58,-85.1986 1395.56,-85.7799"/>
</g>
<!-- Node4&#45;&gt;Node14 -->
<g id="edge17" class="edge"><title>Node4&#45;&gt;Node14</title>
<path fill="none" stroke="midnightblue" d="M1244.68,-169.734C1249.51,-169.102 1254.35,-168.509 1259,-168 1470.61,-144.816 1529.21,-167.885 1743.69,-131.666"/>
<polygon fill="midnightblue" stroke="midnightblue" points="1744.42,-135.091 1753.69,-129.953 1743.24,-128.191 1744.42,-135.091"/>
</g>
<!-- Node15 -->
<g id="node16" class="node"><title>Node15</title>
<polygon fill="white" stroke="#bfbfbf" points="1421.5,-112.5 1421.5,-131.5 1494.5,-131.5 1494.5,-112.5 1421.5,-112.5"/>
<text text-anchor="middle" x="1458" y="-119.5" font-family="Helvetica,sans-Serif" font-size="10.00">TDirectory.h</text>
</g>
<!-- Node4&#45;&gt;Node15 -->
<g id="edge18" class="edge"><title>Node4&#45;&gt;Node15</title>
<path fill="none" stroke="midnightblue" d="M1238.36,-168.444C1285.46,-158.698 1362.24,-142.812 1411.42,-132.638"/>
<polygon fill="midnightblue" stroke="midnightblue" points="1412.39,-136.012 1421.47,-130.558 1410.97,-129.157 1412.39,-136.012"/>
</g>
<!-- Node16 -->
<g id="node17" class="node"><title>Node16</title>
<polygon fill="white" stroke="#bfbfbf" points="1512.5,-112.5 1512.5,-131.5 1565.5,-131.5 1565.5,-112.5 1512.5,-112.5"/>
<text text-anchor="middle" x="1539" y="-119.5" font-family="Helvetica,sans-Serif" font-size="10.00">TError.h</text>
</g>
<!-- Node4&#45;&gt;Node16 -->
<g id="edge19" class="edge"><title>Node4&#45;&gt;Node16</title>
<path fill="none" stroke="midnightblue" d="M1244.62,-170.059C1319.96,-159.069 1461.64,-138.37 1502.32,-131.726"/>
<polygon fill="midnightblue" stroke="midnightblue" points="1503.08,-135.147 1512.33,-129.98 1501.88,-128.251 1503.08,-135.147"/>
</g>
<!-- Node17 -->
<g id="node18" class="node"><title>Node17</title>
<polygon fill="white" stroke="#bfbfbf" points="934.5,-112.5 934.5,-131.5 981.5,-131.5 981.5,-112.5 934.5,-112.5"/>
<text text-anchor="middle" x="958" y="-119.5" font-family="Helvetica,sans-Serif" font-size="10.00">TList.h</text>
</g>
<!-- Node4&#45;&gt;Node17 -->
<g id="edge20" class="edge"><title>Node4&#45;&gt;Node17</title>
<path fill="none" stroke="midnightblue" d="M1154.01,-168.44C1114.15,-160.328 1052.99,-147.437 991.578,-132.293"/>
<polygon fill="midnightblue" stroke="midnightblue" points="992.272,-128.859 981.723,-129.843 990.584,-135.652 992.272,-128.859"/>
</g>
<!-- Node18 -->
<g id="node19" class="node"><title>Node18</title>
<polygon fill="white" stroke="#bfbfbf" points="999.5,-112.5 999.5,-131.5 1076.5,-131.5 1076.5,-112.5 999.5,-112.5"/>
<text text-anchor="middle" x="1038" y="-119.5" font-family="Helvetica,sans-Serif" font-size="10.00">TCollection.h</text>
</g>
<!-- Node4&#45;&gt;Node18 -->
<g id="edge21" class="edge"><title>Node4&#45;&gt;Node18</title>
<path fill="none" stroke="midnightblue" d="M1171.81,-168.444C1145.06,-159.359 1102.6,-144.939 1072.69,-134.783"/>
<polygon fill="midnightblue" stroke="midnightblue" points="1073.67,-131.418 1063.08,-131.516 1071.42,-138.046 1073.67,-131.418"/>
</g>
<!-- Node19 -->
<g id="node20" class="node"><title>Node19</title>
<polygon fill="white" stroke="#bfbfbf" points="1095,-112.5 1095,-131.5 1141,-131.5 1141,-112.5 1095,-112.5"/>
<text text-anchor="middle" x="1118" y="-119.5" font-family="Helvetica,sans-Serif" font-size="10.00">TKey.h</text>
</g>
<!-- Node4&#45;&gt;Node19 -->
<g id="edge22" class="edge"><title>Node4&#45;&gt;Node19</title>
<path fill="none" stroke="midnightblue" d="M1184.31,-168.324C1172.1,-159.979 1153.42,-147.212 1139,-137.352"/>
<polygon fill="midnightblue" stroke="midnightblue" points="1140.89,-134.408 1130.66,-131.655 1136.94,-140.187 1140.89,-134.408"/>
</g>
<!-- Node20 -->
<g id="node21" class="node"><title>Node20</title>
<polygon fill="white" stroke="#bfbfbf" points="834,-56.5 834,-75.5 864,-75.5 864,-56.5 834,-56.5"/>
<text text-anchor="middle" x="849" y="-63.5" font-family="Helvetica,sans-Serif" font-size="10.00">list</text>
</g>
<!-- Node4&#45;&gt;Node20 -->
<g id="edge25" class="edge"><title>Node4&#45;&gt;Node20</title>
<path fill="none" stroke="midnightblue" d="M1149.27,-174.667C1074.45,-170.237 933.778,-158.568 892,-132 874.745,-121.027 862.878,-100.358 856.05,-85.2639"/>
<polygon fill="midnightblue" stroke="midnightblue" points="859.216,-83.7636 852.123,-75.8928 852.76,-86.4685 859.216,-83.7636"/>
</g>
<!-- Node21 -->
<g id="node22" class="node"><title>Node21</title>
<polygon fill="white" stroke="#bfbfbf" points="1159,-112.5 1159,-131.5 1191,-131.5 1191,-112.5 1159,-112.5"/>
<text text-anchor="middle" x="1175" y="-119.5" font-family="Helvetica,sans-Serif" font-size="10.00">set</text>
</g>
<!-- Node4&#45;&gt;Node21 -->
<g id="edge26" class="edge"><title>Node4&#45;&gt;Node21</title>
<path fill="none" stroke="midnightblue" d="M1193.37,-168.083C1190.39,-160.77 1186.07,-150.181 1182.38,-141.103"/>
<polygon fill="midnightblue" stroke="midnightblue" points="1185.58,-139.691 1178.57,-131.751 1179.1,-142.333 1185.58,-139.691"/>
</g>
<!-- Node22 -->
<g id="node23" class="node"><title>Node22</title>
<polygon fill="white" stroke="#bfbfbf" points="712,-0.5 712,-19.5 776,-19.5 776,-0.5 712,-0.5"/>
<text text-anchor="middle" x="744" y="-7.5" font-family="Helvetica,sans-Serif" font-size="10.00">stdexcept</text>
</g>
<!-- Node4&#45;&gt;Node22 -->
<g id="edge27" class="edge"><title>Node4&#45;&gt;Node22</title>
<path fill="none" stroke="midnightblue" d="M1149.31,-176.23C1079.11,-173.972 953.212,-165.263 925,-132 902.963,-106.018 956.148,-82.7102 935,-56 925.737,-44.3009 839.687,-27.5371 786.295,-18.1213"/>
<polygon fill="midnightblue" stroke="midnightblue" points="786.861,-14.6672 776.408,-16.3956 785.658,-21.563 786.861,-14.6672"/>
</g>
<!-- Node5&#45;&gt;Node2 -->
<g id="edge6" class="edge"><title>Node5&#45;&gt;Node2</title>
<path fill="none" stroke="midnightblue" d="M1247.12,-113.09C1161,-101.522 1003.63,-80.3827 936.132,-71.3162"/>
<polygon fill="midnightblue" stroke="midnightblue" points="936.473,-67.8307 926.096,-69.9681 935.541,-74.7684 936.473,-67.8307"/>
</g>
<!-- Node5&#45;&gt;Node3 -->
<g id="edge9" class="edge"><title>Node5&#45;&gt;Node3</title>
<path fill="none" stroke="midnightblue" d="M1247.2,-115.772C1132.34,-105.525 884.838,-83.2622 825.875,-75.5179"/>
<polygon fill="midnightblue" stroke="midnightblue" points="826.09,-72.0109 815.681,-73.985 825.049,-78.9331 826.09,-72.0109"/>
</g>
<!-- Node6 -->
<g id="node7" class="node"><title>Node6</title>
<polygon fill="white" stroke="#bfbfbf" points="828,-0.5 828,-19.5 884,-19.5 884,-0.5 828,-0.5"/>
<text text-anchor="middle" x="856" y="-7.5" font-family="Helvetica,sans-Serif" font-size="10.00">sstream</text>
</g>
<!-- Node5&#45;&gt;Node6 -->
<g id="edge7" class="edge"><title>Node5&#45;&gt;Node6</title>
<path fill="none" stroke="midnightblue" d="M1289.64,-112.333C1262.33,-98.2487 1205.37,-70.5109 1154,-56 1048.51,-26.2028 1018.29,-37.0113 910,-20 904.851,-19.1911 899.429,-18.3157 894.089,-17.4395"/>
<polygon fill="midnightblue" stroke="midnightblue" points="894.448,-13.9514 884.011,-15.7706 893.305,-20.8574 894.448,-13.9514"/>
</g>
<!-- Node7 -->
<g id="node8" class="node"><title>Node7</title>
<polygon fill="white" stroke="#bfbfbf" points="919,-0.5 919,-19.5 981,-19.5 981,-0.5 919,-0.5"/>
<text text-anchor="middle" x="950" y="-7.5" font-family="Helvetica,sans-Serif" font-size="10.00">algorithm</text>
</g>
<!-- Node5&#45;&gt;Node7 -->
<g id="edge8" class="edge"><title>Node5&#45;&gt;Node7</title>
<path fill="none" stroke="midnightblue" d="M1299.13,-112.107C1287.46,-97.6982 1262.26,-69.5043 1234,-56 1154.07,-17.8075 1048.49,-10.9412 991.226,-10.3231"/>
<polygon fill="midnightblue" stroke="midnightblue" points="991.129,-6.82266 981.113,-10.2742 991.096,-13.8226 991.129,-6.82266"/>
</g>
<!-- Node8&#45;&gt;Node7 -->
<g id="edge11" class="edge"><title>Node8&#45;&gt;Node7</title>
<path fill="none" stroke="midnightblue" d="M1672.16,-112.293C1660.04,-97.6182 1633.21,-68.3544 1603,-56 1491.6,-10.4454 1117.47,-9.46873 991.668,-10.4881"/>
<polygon fill="midnightblue" stroke="midnightblue" points="991.282,-6.99129 981.314,-10.5812 991.345,-13.991 991.282,-6.99129"/>
</g>
<!-- Node8&#45;&gt;Node9 -->
<g id="edge12" class="edge"><title>Node8&#45;&gt;Node9</title>
<path fill="none" stroke="midnightblue" d="M1660.62,-112.444C1641.78,-103.675 1612.27,-89.9355 1590.62,-79.8579"/>
<polygon fill="midnightblue" stroke="midnightblue" points="1591.84,-76.5637 1581.29,-75.5164 1588.88,-82.9098 1591.84,-76.5637"/>
</g>
<!-- Node10 -->
<g id="node11" class="node"><title>Node10</title>
<polygon fill="white" stroke="#bfbfbf" points="1460.5,-0.5 1460.5,-19.5 1507.5,-19.5 1507.5,-0.5 1460.5,-0.5"/>
<text text-anchor="middle" x="1484" y="-7.5" font-family="Helvetica,sans-Serif" font-size="10.00">cmath</text>
</g>
<!-- Node8&#45;&gt;Node10 -->
<g id="edge13" class="edge"><title>Node8&#45;&gt;Node10</title>
<path fill="none" stroke="midnightblue" d="M1690.26,-112.417C1705.99,-99.3937 1731.04,-74.2324 1716,-56 1691.3,-26.0523 1576.36,-15.7909 1518.08,-12.4752"/>
<polygon fill="midnightblue" stroke="midnightblue" points="1518.06,-8.96944 1507.89,-11.9337 1517.69,-15.9596 1518.06,-8.96944"/>
</g>
<!-- Node11 -->
<g id="node12" class="node"><title>Node11</title>
<polygon fill="white" stroke="#bfbfbf" points="1651,-56.5 1651,-75.5 1707,-75.5 1707,-56.5 1651,-56.5"/>
<text text-anchor="middle" x="1679" y="-63.5" font-family="Helvetica,sans-Serif" font-size="10.00">cxxabi.h</text>
</g>
<!-- Node8&#45;&gt;Node11 -->
<g id="edge14" class="edge"><title>Node8&#45;&gt;Node11</title>
<path fill="none" stroke="midnightblue" d="M1679,-112.083C1679,-105.006 1679,-94.8611 1679,-85.9865"/>
<polygon fill="midnightblue" stroke="midnightblue" points="1682.5,-85.751 1679,-75.7511 1675.5,-85.7511 1682.5,-85.751"/>
</g>
<!-- Node12 -->
<g id="node13" class="node"><title>Node12</title>
<polygon fill="white" stroke="#bfbfbf" points="1077,-56.5 1077,-75.5 1145,-75.5 1145,-56.5 1077,-56.5"/>
<text text-anchor="middle" x="1111" y="-63.5" font-family="Helvetica,sans-Serif" font-size="10.00">type_traits</text>
</g>
<!-- Node8&#45;&gt;Node12 -->
<g id="edge15" class="edge"><title>Node8&#45;&gt;Node12</title>
<path fill="none" stroke="midnightblue" d="M1622.46,-115.625C1509.33,-104.87 1257.25,-80.9039 1155.18,-71.2001"/>
<polygon fill="midnightblue" stroke="midnightblue" points="1155.49,-67.7142 1145.21,-70.2519 1154.83,-74.6828 1155.49,-67.7142"/>
</g>
<!-- Node8&#45;&gt;Node13 -->
<g id="edge16" class="edge"><title>Node8&#45;&gt;Node13</title>
<path fill="none" stroke="midnightblue" d="M1633.68,-112.444C1577.87,-101.905 1484.01,-84.1845 1431.52,-74.2727"/>
<polygon fill="midnightblue" stroke="midnightblue" points="1432.07,-70.815 1421.59,-72.3989 1430.77,-77.6935 1432.07,-70.815"/>
</g>
<!-- Node23&#45;&gt;Node3 -->
<g id="edge30" class="edge"><title>Node23&#45;&gt;Node3</title>
<path fill="none" stroke="midnightblue" d="M741.266,-280.236C729.111,-272.481 713.188,-259.929 706,-244 692.106,-213.212 694.333,-199.699 706,-168 719.214,-132.098 751.489,-100.263 772.525,-82.3329"/>
<polygon fill="midnightblue" stroke="midnightblue" points="775.024,-84.8087 780.501,-75.7394 770.563,-79.4136 775.024,-84.8087"/>
</g>
<!-- Node24 -->
<g id="node25" class="node"><title>Node24</title>
<g id="a_node25"><a xlink:href="_production_data_base_8h.html" target="_top" xlink:title="ProductionDataBase.h">
<polygon fill="white" stroke="black" points="715,-224.5 715,-243.5 839,-243.5 839,-224.5 715,-224.5"/>
<text text-anchor="middle" x="777" y="-231.5" font-family="Helvetica,sans-Serif" font-size="10.00">ProductionDataBase.h</text>
</a>
</g>
</g>
<!-- Node23&#45;&gt;Node24 -->
<g id="edge31" class="edge"><title>Node23&#45;&gt;Node24</title>
<path fill="none" stroke="midnightblue" d="M760.303,-280.083C762.982,-272.849 766.849,-262.409 770.186,-253.397"/>
<polygon fill="midnightblue" stroke="midnightblue" points="773.568,-254.344 773.759,-243.751 767.004,-251.913 773.568,-254.344"/>
</g>
<!-- Node24&#45;&gt;Node3 -->
<g id="edge32" class="edge"><title>Node24&#45;&gt;Node3</title>
<path fill="none" stroke="midnightblue" d="M793.633,-224.464C806.488,-216.841 823.339,-204.356 831,-188 834.77,-179.95 832.743,-176.716 831,-168 827.601,-151.003 822.337,-148.134 816,-132 809.885,-116.43 803.331,-98.595 798.62,-85.5507"/>
<polygon fill="midnightblue" stroke="midnightblue" points="801.82,-84.1041 795.146,-75.875 795.231,-86.4695 801.82,-84.1041"/>
</g>
<!-- Node25 -->
<g id="node26" class="node"><title>Node25</title>
<g id="a_node26"><a xlink:href="_particle_type_tree_8h.html" target="_top" xlink:title="base/ParticleTypeTree.h">
<polygon fill="white" stroke="black" points="333.5,-168.5 333.5,-187.5 460.5,-187.5 460.5,-168.5 333.5,-168.5"/>
<text text-anchor="middle" x="397" y="-175.5" font-family="Helvetica,sans-Serif" font-size="10.00">base/ParticleTypeTree.h</text>
</a>
</g>
</g>
<!-- Node24&#45;&gt;Node25 -->
<g id="edge33" class="edge"><title>Node24&#45;&gt;Node25</title>
<path fill="none" stroke="midnightblue" d="M716.788,-224.444C648.969,-214.806 538.891,-199.163 467.217,-188.978"/>
<polygon fill="midnightblue" stroke="midnightblue" points="467.323,-185.458 456.93,-187.516 466.339,-192.389 467.323,-185.458"/>
</g>
<!-- Node41 -->
<g id="node42" class="node"><title>Node41</title>
<polygon fill="white" stroke="#bfbfbf" points="715.5,-168.5 715.5,-187.5 822.5,-187.5 822.5,-168.5 715.5,-168.5"/>
<text text-anchor="middle" x="769" y="-175.5" font-family="Helvetica,sans-Serif" font-size="10.00">Math/Interpolator.h</text>
</g>
<!-- Node24&#45;&gt;Node41 -->
<g id="edge62" class="edge"><title>Node24&#45;&gt;Node41</title>
<path fill="none" stroke="midnightblue" d="M775.679,-224.083C774.619,-216.927 773.094,-206.635 771.769,-197.691"/>
<polygon fill="midnightblue" stroke="midnightblue" points="775.224,-197.13 770.296,-187.751 768.3,-198.156 775.224,-197.13"/>
</g>
<!-- Node26 -->
<g id="node27" class="node"><title>Node26</title>
<g id="a_node27"><a xlink:href="_particle_type_8h.html" target="_top" xlink:title="ParticleType.h">
<polygon fill="white" stroke="black" points="283.5,-112.5 283.5,-131.5 364.5,-131.5 364.5,-112.5 283.5,-112.5"/>
<text text-anchor="middle" x="324" y="-119.5" font-family="Helvetica,sans-Serif" font-size="10.00">ParticleType.h</text>
</a>
</g>
</g>
<!-- Node25&#45;&gt;Node26 -->
<g id="edge34" class="edge"><title>Node25&#45;&gt;Node26</title>
<path fill="none" stroke="midnightblue" d="M385.271,-168.324C374.163,-160.107 357.258,-147.602 344.017,-137.807"/>
<polygon fill="midnightblue" stroke="midnightblue" points="346.063,-134.967 335.942,-131.834 341.9,-140.595 346.063,-134.967"/>
</g>
<!-- Node32 -->
<g id="node33" class="node"><title>Node32</title>
<polygon fill="white" stroke="#bfbfbf" points="0,-56.5 0,-75.5 38,-75.5 38,-56.5 0,-56.5"/>
<text text-anchor="middle" x="19" y="-63.5" font-family="Helvetica,sans-Serif" font-size="10.00">map</text>
</g>
<!-- Node25&#45;&gt;Node32 -->
<g id="edge61" class="edge"><title>Node25&#45;&gt;Node32</title>
<path fill="none" stroke="midnightblue" d="M367.654,-168.46C297.037,-147.91 118.293,-95.8948 48.0155,-75.4437"/>
<polygon fill="midnightblue" stroke="midnightblue" points="48.659,-71.9858 38.0793,-72.5522 46.703,-78.707 48.659,-71.9858"/>
</g>
<!-- Node34 -->
<g id="node35" class="node"><title>Node34</title>
<g id="a_node35"><a xlink:href="_tree_8h.html" target="_top" xlink:title="Tree.h">
<polygon fill="white" stroke="black" points="575.5,-112.5 575.5,-131.5 620.5,-131.5 620.5,-112.5 575.5,-112.5"/>
<text text-anchor="middle" x="598" y="-119.5" font-family="Helvetica,sans-Serif" font-size="10.00">Tree.h</text>
</a>
</g>
</g>
<!-- Node25&#45;&gt;Node34 -->
<g id="edge49" class="edge"><title>Node25&#45;&gt;Node34</title>
<path fill="none" stroke="midnightblue" d="M428.849,-168.444C466.186,-158.413 527.737,-141.877 565.397,-131.759"/>
<polygon fill="midnightblue" stroke="midnightblue" points="566.595,-135.061 575.345,-129.086 564.779,-128.301 566.595,-135.061"/>
</g>
<!-- Node26&#45;&gt;Node2 -->
<g id="edge44" class="edge"><title>Node26&#45;&gt;Node2</title>
<path fill="none" stroke="midnightblue" d="M364.659,-120.449C454.632,-118.637 677.351,-110.878 871.668,-75.8814"/>
<polygon fill="midnightblue" stroke="midnightblue" points="872.571,-79.2744 881.777,-74.0311 871.31,-72.3888 872.571,-79.2744"/>
</g>
<!-- Node26&#45;&gt;Node3 -->
<g id="edge48" class="edge"><title>Node26&#45;&gt;Node3</title>
<path fill="none" stroke="midnightblue" d="M364.598,-116.577C436.478,-108.707 590.835,-91.6263 721,-76 733.213,-74.5338 746.598,-72.8557 758.423,-71.3488"/>
<polygon fill="midnightblue" stroke="midnightblue" points="758.869,-74.8203 768.343,-70.0782 757.979,-67.877 758.869,-74.8203"/>
</g>
<!-- Node27 -->
<g id="node28" class="node"><title>Node27</title>
<g id="a_node28"><a xlink:href="types_8h.html" target="_top" xlink:title="base/types.h">
<polygon fill="white" stroke="black" points="78,-0.5 78,-19.5 156,-19.5 156,-0.5 78,-0.5"/>
<text text-anchor="middle" x="117" y="-7.5" font-family="Helvetica,sans-Serif" font-size="10.00">base/types.h</text>
</a>
</g>
</g>
<!-- Node26&#45;&gt;Node27 -->
<g id="edge35" class="edge"><title>Node26&#45;&gt;Node27</title>
<path fill="none" stroke="midnightblue" d="M283.301,-119.392C221.804,-116.011 109.729,-105.819 85,-76 72.7844,-61.2697 86.3904,-41.0904 99.4409,-27.1413"/>
<polygon fill="midnightblue" stroke="midnightblue" points="102.255,-29.2777 106.861,-19.7366 97.3104,-24.3227 102.255,-29.2777"/>
</g>
<!-- Node28 -->
<g id="node29" class="node"><title>Node28</title>
<g id="a_node29"><a xlink:href="interval_8h.html" target="_top" xlink:title="base/interval.h">
<polygon fill="white" stroke="black" points="359.5,-56.5 359.5,-75.5 446.5,-75.5 446.5,-56.5 359.5,-56.5"/>
<text text-anchor="middle" x="403" y="-63.5" font-family="Helvetica,sans-Serif" font-size="10.00">base/interval.h</text>
</a>
</g>
</g>
<!-- Node26&#45;&gt;Node28 -->
<g id="edge36" class="edge"><title>Node26&#45;&gt;Node28</title>
<path fill="none" stroke="midnightblue" d="M336.693,-112.324C348.901,-103.979 367.578,-91.2122 382.003,-81.3524"/>
<polygon fill="midnightblue" stroke="midnightblue" points="384.058,-84.1871 390.339,-75.6545 380.108,-78.4082 384.058,-84.1871"/>
</g>
<!-- Node31 -->
<g id="node32" class="node"><title>Node31</title>
<polygon fill="white" stroke="#bfbfbf" points="94.5,-56.5 94.5,-75.5 151.5,-75.5 151.5,-56.5 94.5,-56.5"/>
<text text-anchor="middle" x="123" y="-63.5" font-family="Helvetica,sans-Serif" font-size="10.00">ostream</text>
</g>
<!-- Node26&#45;&gt;Node31 -->
<g id="edge45" class="edge"><title>Node26&#45;&gt;Node31</title>
<path fill="none" stroke="midnightblue" d="M292.151,-112.444C256.687,-102.916 199.376,-87.5191 161.445,-77.3284"/>
<polygon fill="midnightblue" stroke="midnightblue" points="162.335,-73.9435 151.769,-74.729 160.519,-80.7038 162.335,-73.9435"/>
</g>
<!-- Node26&#45;&gt;Node32 -->
<g id="edge46" class="edge"><title>Node26&#45;&gt;Node32</title>
<path fill="none" stroke="midnightblue" d="M283.2,-115.578C229.781,-108.177 133.364,-93.7768 52,-76 50.7273,-75.7219 49.4304,-75.4254 48.1227,-75.1157"/>
<polygon fill="midnightblue" stroke="midnightblue" points="48.6673,-71.6428 38.113,-72.5686 46.941,-78.4266 48.6673,-71.6428"/>
</g>
<!-- Node33 -->
<g id="node34" class="node"><title>Node33</title>
<polygon fill="white" stroke="#bfbfbf" points="170,-56.5 170,-75.5 222,-75.5 222,-56.5 170,-56.5"/>
<text text-anchor="middle" x="196" y="-63.5" font-family="Helvetica,sans-Serif" font-size="10.00">iterator</text>
</g>
<!-- Node26&#45;&gt;Node33 -->
<g id="edge47" class="edge"><title>Node26&#45;&gt;Node33</title>
<path fill="none" stroke="midnightblue" d="M303.718,-112.444C282.653,-103.557 249.483,-89.5632 225.514,-79.4514"/>
<polygon fill="midnightblue" stroke="midnightblue" points="226.761,-76.1787 216.187,-75.5164 224.04,-82.6283 226.761,-76.1787"/>
</g>
<!-- Node28&#45;&gt;Node6 -->
<g id="edge42" class="edge"><title>Node28&#45;&gt;Node6</title>
<path fill="none" stroke="midnightblue" d="M446.662,-57.2387C449.48,-56.8009 452.278,-56.3836 455,-56 601.093,-35.4093 638.478,-37.2773 785,-20 795.55,-18.7559 806.973,-17.339 817.509,-16.0033"/>
<polygon fill="midnightblue" stroke="midnightblue" points="818.207,-19.4427 827.683,-14.7043 817.321,-12.499 818.207,-19.4427"/>
</g>
<!-- Node28&#45;&gt;Node7 -->
<g id="edge38" class="edge"><title>Node28&#45;&gt;Node7</title>
<path fill="none" stroke="midnightblue" d="M446.65,-57.1538C449.472,-56.7368 452.273,-56.3473 455,-56 648.758,-31.32 699.065,-43.2477 893,-20 898.152,-19.3824 903.553,-18.6462 908.891,-17.8648"/>
<polygon fill="midnightblue" stroke="midnightblue" points="909.638,-21.2916 918.997,-16.3256 908.583,-14.3714 909.638,-21.2916"/>
</g>
<!-- Node28&#45;&gt;Node10 -->
<g id="edge43" class="edge"><title>Node28&#45;&gt;Node10</title>
<path fill="none" stroke="midnightblue" d="M446.636,-57.0316C449.461,-56.6445 452.267,-56.295 455,-56 654.442,-34.4686 1294.69,-16.113 1449.88,-11.9053"/>
<polygon fill="midnightblue" stroke="midnightblue" points="1450.3,-15.3953 1460.2,-11.6269 1450.11,-8.39786 1450.3,-15.3953"/>
</g>
<!-- Node28&#45;&gt;Node22 -->
<g id="edge39" class="edge"><title>Node28&#45;&gt;Node22</title>
<path fill="none" stroke="midnightblue" d="M446.684,-57.3842C449.497,-56.9108 452.288,-56.4458 455,-56 542.736,-41.5779 645.657,-25.832 701.944,-17.3205"/>
<polygon fill="midnightblue" stroke="midnightblue" points="702.532,-20.7715 711.897,-15.8174 701.487,-13.85 702.532,-20.7715"/>
</g>
<!-- Node28&#45;&gt;Node27 -->
<g id="edge37" class="edge"><title>Node28&#45;&gt;Node27</title>
<path fill="none" stroke="midnightblue" d="M359.251,-56.7398C307.212,-46.9141 220.569,-30.5549 166.231,-20.2953"/>
<polygon fill="midnightblue" stroke="midnightblue" points="166.621,-16.8072 156.145,-18.3911 165.322,-23.6857 166.621,-16.8072"/>
</g>
<!-- Node29 -->
<g id="node30" class="node"><title>Node29</title>
<polygon fill="white" stroke="#bfbfbf" points="425,-0.5 425,-19.5 467,-19.5 467,-0.5 425,-0.5"/>
<text text-anchor="middle" x="446" y="-7.5" font-family="Helvetica,sans-Serif" font-size="10.00">limits</text>
</g>
<!-- Node28&#45;&gt;Node29 -->
<g id="edge40" class="edge"><title>Node28&#45;&gt;Node29</title>
<path fill="none" stroke="midnightblue" d="M410.101,-56.083C416.237,-48.3768 425.27,-37.0333 432.739,-27.6531"/>
<polygon fill="midnightblue" stroke="midnightblue" points="435.54,-29.7542 439.032,-19.7511 430.064,-25.3936 435.54,-29.7542"/>
</g>
<!-- Node30 -->
<g id="node31" class="node"><title>Node30</title>
<polygon fill="white" stroke="#bfbfbf" points="353.5,-0.5 353.5,-19.5 406.5,-19.5 406.5,-0.5 353.5,-0.5"/>
<text text-anchor="middle" x="380" y="-7.5" font-family="Helvetica,sans-Serif" font-size="10.00">istream</text>
</g>
<!-- Node28&#45;&gt;Node30 -->
<g id="edge41" class="edge"><title>Node28&#45;&gt;Node30</title>
<path fill="none" stroke="midnightblue" d="M399.202,-56.083C396.087,-48.77 391.577,-38.1814 387.711,-29.1034"/>
<polygon fill="midnightblue" stroke="midnightblue" points="390.866,-27.5798 383.727,-19.7511 384.426,-30.3229 390.866,-27.5798"/>
</g>
<!-- Node34&#45;&gt;Node3 -->
<g id="edge56" class="edge"><title>Node34&#45;&gt;Node3</title>
<path fill="none" stroke="midnightblue" d="M620.634,-114.7C654.654,-105.23 719.176,-87.2706 758.61,-76.2941"/>
<polygon fill="midnightblue" stroke="midnightblue" points="759.606,-79.65 768.301,-73.5966 757.729,-72.9064 759.606,-79.65"/>
</g>
<!-- Node34&#45;&gt;Node7 -->
<g id="edge57" class="edge"><title>Node34&#45;&gt;Node7</title>
<path fill="none" stroke="midnightblue" d="M620.577,-113.752C645.522,-105.512 686.706,-91.2164 721,-76 738.445,-68.2596 741.124,-62.6863 759,-56 809.088,-37.2651 869.563,-24.5865 908.855,-17.5811"/>
<polygon fill="midnightblue" stroke="midnightblue" points="909.608,-21.0028 918.859,-15.8386 908.407,-14.1066 909.608,-21.0028"/>
</g>
<!-- Node34&#45;&gt;Node12 -->
<g id="edge60" class="edge"><title>Node34&#45;&gt;Node12</title>
<path fill="none" stroke="midnightblue" d="M620.705,-118.61C699.428,-110.323 961.575,-82.7289 1066.76,-71.6563"/>
<polygon fill="midnightblue" stroke="midnightblue" points="1067.16,-75.1342 1076.74,-70.6065 1066.43,-68.1726 1067.16,-75.1342"/>
</g>
<!-- Node34&#45;&gt;Node13 -->
<g id="edge54" class="edge"><title>Node34&#45;&gt;Node13</title>
<path fill="none" stroke="midnightblue" d="M620.512,-119.471C730.596,-111.994 1212.62,-79.2521 1353.93,-69.6536"/>
<polygon fill="midnightblue" stroke="midnightblue" points="1354.53,-73.1211 1364.27,-68.9514 1354.06,-66.1372 1354.53,-73.1211"/>
</g>
<!-- Node34&#45;&gt;Node20 -->
<g id="edge55" class="edge"><title>Node34&#45;&gt;Node20</title>
<path fill="none" stroke="midnightblue" d="M620.716,-117.627C661.747,-111.282 750.763,-96.3517 824,-76 824.1,-75.9722 824.2,-75.9442 824.301,-75.916"/>
<polygon fill="midnightblue" stroke="midnightblue" points="825.32,-79.2647 833.78,-72.8865 823.189,-72.597 825.32,-79.2647"/>
</g>
<!-- Node35 -->
<g id="node36" class="node"><title>Node35</title>
<polygon fill="white" stroke="#bfbfbf" points="464.5,-56.5 464.5,-75.5 567.5,-75.5 567.5,-56.5 464.5,-56.5"/>
<text text-anchor="middle" x="516" y="-63.5" font-family="Helvetica,sans-Serif" font-size="10.00">cereal/access.hpp</text>
</g>
<!-- Node34&#45;&gt;Node35 -->
<g id="edge50" class="edge"><title>Node34&#45;&gt;Node35</title>
<path fill="none" stroke="midnightblue" d="M584.825,-112.324C572.153,-103.979 552.767,-91.2122 537.794,-81.3524"/>
<polygon fill="midnightblue" stroke="midnightblue" points="539.419,-78.2313 529.142,-75.6545 535.569,-84.0776 539.419,-78.2313"/>
</g>
<!-- Node36 -->
<g id="node37" class="node"><title>Node36</title>
<g id="a_node37"><a xlink:href="variadic_8h.html" target="_top" xlink:title="std_ext/variadic.h">
<polygon fill="white" stroke="black" points="240.5,-56.5 240.5,-75.5 341.5,-75.5 341.5,-56.5 240.5,-56.5"/>
<text text-anchor="middle" x="291" y="-63.5" font-family="Helvetica,sans-Serif" font-size="10.00">std_ext/variadic.h</text>
</a>
</g>
</g>
<!-- Node34&#45;&gt;Node36 -->
<g id="edge51" class="edge"><title>Node34&#45;&gt;Node36</title>
<path fill="none" stroke="midnightblue" d="M575.426,-117.029C528.339,-108.747 418.339,-89.3984 349.763,-77.3362"/>
<polygon fill="midnightblue" stroke="midnightblue" points="349.999,-73.824 339.544,-75.5386 348.786,-80.7182 349.999,-73.824"/>
</g>
<!-- Node39 -->
<g id="node40" class="node"><title>Node39</title>
<polygon fill="white" stroke="#bfbfbf" points="586,-56.5 586,-75.5 638,-75.5 638,-56.5 586,-56.5"/>
<text text-anchor="middle" x="612" y="-63.5" font-family="Helvetica,sans-Serif" font-size="10.00">cassert</text>
</g>
<!-- Node34&#45;&gt;Node39 -->
<g id="edge58" class="edge"><title>Node34&#45;&gt;Node39</title>
<path fill="none" stroke="midnightblue" d="M600.312,-112.083C602.167,-104.927 604.835,-94.6353 607.154,-85.6911"/>
<polygon fill="midnightblue" stroke="midnightblue" points="610.609,-86.3094 609.731,-75.7511 603.834,-84.5527 610.609,-86.3094"/>
</g>
<!-- Node40 -->
<g id="node41" class="node"><title>Node40</title>
<polygon fill="white" stroke="#bfbfbf" points="656,-56.5 656,-75.5 712,-75.5 712,-56.5 656,-56.5"/>
<text text-anchor="middle" x="684" y="-63.5" font-family="Helvetica,sans-Serif" font-size="10.00">numeric</text>
</g>
<!-- Node34&#45;&gt;Node40 -->
<g id="edge59" class="edge"><title>Node34&#45;&gt;Node40</title>
<path fill="none" stroke="midnightblue" d="M611.817,-112.324C625.233,-103.9 645.824,-90.9709 661.586,-81.0741"/>
<polygon fill="midnightblue" stroke="midnightblue" points="663.609,-83.9364 670.217,-75.6545 659.887,-78.0081 663.609,-83.9364"/>
</g>
<!-- Node37 -->
<g id="node38" class="node"><title>Node37</title>
<polygon fill="white" stroke="#bfbfbf" points="212,-0.5 212,-19.5 264,-19.5 264,-0.5 212,-0.5"/>
<text text-anchor="middle" x="238" y="-7.5" font-family="Helvetica,sans-Serif" font-size="10.00">cstddef</text>
</g>
<!-- Node36&#45;&gt;Node37 -->
<g id="edge52" class="edge"><title>Node36&#45;&gt;Node37</title>
<path fill="none" stroke="midnightblue" d="M282.248,-56.083C274.53,-48.2195 263.095,-36.5688 253.783,-27.0813"/>
<polygon fill="midnightblue" stroke="midnightblue" points="256.092,-24.4363 246.589,-19.7511 251.096,-29.3396 256.092,-24.4363"/>
</g>
<!-- Node38 -->
<g id="node39" class="node"><title>Node38</title>
<polygon fill="white" stroke="#bfbfbf" points="282.5,-0.5 282.5,-19.5 323.5,-19.5 323.5,-0.5 282.5,-0.5"/>
<text text-anchor="middle" x="303" y="-7.5" font-family="Helvetica,sans-Serif" font-size="10.00">tuple</text>
</g>
<!-- Node36&#45;&gt;Node38 -->
<g id="edge53" class="edge"><title>Node36&#45;&gt;Node38</title>
<path fill="none" stroke="midnightblue" d="M292.982,-56.083C294.572,-48.9272 296.859,-38.6353 298.846,-29.6911"/>
<polygon fill="midnightblue" stroke="midnightblue" points="302.303,-30.2722 301.055,-19.7511 295.469,-28.7537 302.303,-30.2722"/>
</g>
<!-- Node42&#45;&gt;Node25 -->
<g id="edge64" class="edge"><title>Node42&#45;&gt;Node25</title>
<path fill="none" stroke="midnightblue" d="M397,-280.368C397,-262.617 397,-221.666 397,-197.597"/>
<polygon fill="midnightblue" stroke="midnightblue" points="400.5,-197.591 397,-187.591 393.5,-197.591 400.5,-197.591"/>
</g>
<!-- Node42&#45;&gt;Node43 -->
<g id="edge65" class="edge"><title>Node42&#45;&gt;Node43</title>
<path fill="none" stroke="midnightblue" d="M406.479,-280.324C415.201,-272.341 428.343,-260.313 438.898,-250.653"/>
<polygon fill="midnightblue" stroke="midnightblue" points="441.334,-253.167 446.348,-243.834 436.608,-248.004 441.334,-253.167"/>
</g>
<!-- Node47 -->
<g id="node48" class="node"><title>Node47</title>
<polygon fill="white" stroke="#bfbfbf" points="1378.5,-280.5 1378.5,-299.5 1461.5,-299.5 1461.5,-280.5 1378.5,-280.5"/>
<text text-anchor="middle" x="1420" y="-287.5" font-family="Helvetica,sans-Serif" font-size="10.00">PStaticData.h</text>
</g>
<!-- Node46&#45;&gt;Node47 -->
<g id="edge71" class="edge"><title>Node46&#45;&gt;Node47</title>
<path fill="none" stroke="midnightblue" d="M1465.08,-336.083C1457.22,-328.22 1445.57,-316.569 1436.08,-307.081"/>
<polygon fill="midnightblue" stroke="midnightblue" points="1438.3,-304.347 1428.75,-299.751 1433.35,-309.297 1438.3,-304.347"/>
</g>
<!-- Node48 -->
<g id="node49" class="node"><title>Node48</title>
<polygon fill="white" stroke="#bfbfbf" points="1480,-280.5 1480,-299.5 1576,-299.5 1576,-280.5 1480,-280.5"/>
<text text-anchor="middle" x="1528" y="-287.5" font-family="Helvetica,sans-Serif" font-size="10.00">PSimpleVMDFF.h</text>
</g>
<!-- Node46&#45;&gt;Node48 -->
<g id="edge72" class="edge"><title>Node46&#45;&gt;Node48</title>
<path fill="none" stroke="midnightblue" d="M1482.92,-336.083C1490.78,-328.22 1502.43,-316.569 1511.92,-307.081"/>
<polygon fill="midnightblue" stroke="midnightblue" points="1514.65,-309.297 1519.25,-299.751 1509.7,-304.347 1514.65,-309.297"/>
</g>
<!-- Node49 -->
<g id="node50" class="node"><title>Node49</title>
<polygon fill="white" stroke="#bfbfbf" points="1594,-280.5 1594,-299.5 1722,-299.5 1722,-280.5 1594,-280.5"/>
<text text-anchor="middle" x="1658" y="-287.5" font-family="Helvetica,sans-Serif" font-size="10.00">PDistributionManager.h</text>
</g>
<!-- Node46&#45;&gt;Node49 -->
<g id="edge73" class="edge"><title>Node46&#45;&gt;Node49</title>
<path fill="none" stroke="midnightblue" d="M1503.16,-336.444C1534.51,-327.241 1584.53,-312.562 1619.2,-302.388"/>
<polygon fill="midnightblue" stroke="midnightblue" points="1620.37,-305.691 1628.98,-299.516 1618.4,-298.974 1620.37,-305.691"/>
</g>
<!-- Node50 -->
<g id="node51" class="node"><title>Node50</title>
<g id="a_node51"><a xlink:href="_logger_8h.html" target="_top" xlink:title="base/Logger.h">
<polygon fill="white" stroke="black" points="1740,-280.5 1740,-299.5 1824,-299.5 1824,-280.5 1740,-280.5"/>
<text text-anchor="middle" x="1782" y="-287.5" font-family="Helvetica,sans-Serif" font-size="10.00">base/Logger.h</text>
</a>
</g>
</g>
<!-- Node46&#45;&gt;Node50 -->
<g id="edge74" class="edge"><title>Node46&#45;&gt;Node50</title>
<path fill="none" stroke="midnightblue" d="M1522.79,-336.476C1572.37,-327.811 1651.67,-313.94 1729.94,-300.184"/>
<polygon fill="midnightblue" stroke="midnightblue" points="1730.73,-303.599 1739.98,-298.421 1729.52,-296.705 1730.73,-303.599"/>
</g>
<!-- Node52 -->
<g id="node53" class="node"><title>Node52</title>
<polygon fill="white" stroke="#bfbfbf" points="1301.5,-280.5 1301.5,-299.5 1360.5,-299.5 1360.5,-280.5 1301.5,-280.5"/>
<text text-anchor="middle" x="1331" y="-287.5" font-family="Helvetica,sans-Serif" font-size="10.00">iostream</text>
</g>
<!-- Node46&#45;&gt;Node52 -->
<g id="edge76" class="edge"><title>Node46&#45;&gt;Node52</title>
<path fill="none" stroke="midnightblue" d="M1451.34,-336.444C1427.6,-327.478 1390.09,-313.314 1363.26,-303.183"/>
<polygon fill="midnightblue" stroke="midnightblue" points="1364.14,-299.775 1353.55,-299.516 1361.67,-306.324 1364.14,-299.775"/>
</g>
<!-- Node51 -->
<g id="node52" class="node"><title>Node51</title>
<polygon fill="white" stroke="#bfbfbf" points="1732.5,-224.5 1732.5,-243.5 1831.5,-243.5 1831.5,-224.5 1732.5,-224.5"/>
<text text-anchor="middle" x="1782" y="-231.5" font-family="Helvetica,sans-Serif" font-size="10.00">easylogging++.h</text>
</g>
<!-- Node50&#45;&gt;Node51 -->
<g id="edge75" class="edge"><title>Node50&#45;&gt;Node51</title>
<path fill="none" stroke="midnightblue" d="M1782,-280.083C1782,-273.006 1782,-262.861 1782,-253.986"/>
<polygon fill="midnightblue" stroke="midnightblue" points="1785.5,-253.751 1782,-243.751 1778.5,-253.751 1785.5,-253.751"/>
</g>
</g>
</svg>
