<?xml version="1.0" encoding="UTF-8" standalone="no"?>
<!DOCTYPE svg PUBLIC "-//W3C//DTD SVG 1.1//EN"
 "http://www.w3.org/Graphics/SVG/1.1/DTD/svg11.dtd">
<!-- Generated by graphviz version 2.38.0 (20140413.2041)
 -->
<!-- Title: src/mc/pluto/PlutoGenerator.h Pages: 1 -->
<svg width="1664pt" height="364pt"
 viewBox="0.00 0.00 1664.27 364.00" xmlns="http://www.w3.org/2000/svg" xmlns:xlink="http://www.w3.org/1999/xlink">
<g id="graph0" class="graph" transform="scale(1 1) rotate(0) translate(4 360)">
<title>src/mc/pluto/PlutoGenerator.h</title>
<polygon fill="white" stroke="none" points="-4,4 -4,-360 1660.27,-360 1660.27,4 -4,4"/>
<!-- Node0 -->
<g id="node1" class="node"><title>Node0</title>
<polygon fill="#bfbfbf" stroke="black" points="978.269,-336.5 978.269,-355.5 1138.27,-355.5 1138.27,-336.5 978.269,-336.5"/>
<text text-anchor="middle" x="1058.27" y="-343.5" font-family="Helvetica,sans-Serif" font-size="10.00">src/mc/pluto/PlutoGenerator.h</text>
</g>
<!-- Node1 -->
<g id="node2" class="node"><title>Node1</title>
<polygon fill="white" stroke="#bfbfbf" points="777.269,-56.5 777.269,-75.5 821.269,-75.5 821.269,-56.5 777.269,-56.5"/>
<text text-anchor="middle" x="799.269" y="-63.5" font-family="Helvetica,sans-Serif" font-size="10.00">string</text>
</g>
<!-- Node0&#45;&gt;Node1 -->
<g id="edge1" class="edge"><title>Node0&#45;&gt;Node1</title>
<path fill="none" stroke="midnightblue" d="M1032.07,-336.407C993.845,-322.025 927.269,-289.198 927.269,-235 927.269,-235 927.269,-235 927.269,-177 927.269,-146.902 928.381,-134.391 908.269,-112 897.608,-100.131 859.525,-86.0339 831.363,-76.8216"/>
<polygon fill="midnightblue" stroke="midnightblue" points="832.096,-73.3813 821.505,-73.6617 829.96,-80.0473 832.096,-73.3813"/>
</g>
<!-- Node2 -->
<g id="node3" class="node"><title>Node2</title>
<polygon fill="white" stroke="#bfbfbf" points="839.769,-56.5 839.769,-75.5 886.769,-75.5 886.769,-56.5 839.769,-56.5"/>
<text text-anchor="middle" x="863.269" y="-63.5" font-family="Helvetica,sans-Serif" font-size="10.00">vector</text>
</g>
<!-- Node0&#45;&gt;Node2 -->
<g id="edge2" class="edge"><title>Node0&#45;&gt;Node2</title>
<path fill="none" stroke="midnightblue" d="M1038.52,-336.412C1023.18,-328.833 1002.38,-316.435 989.269,-300 970.066,-275.925 965.269,-265.795 965.269,-235 965.269,-235 965.269,-235 965.269,-177 965.269,-146.205 961.122,-135.541 941.269,-112 929.334,-97.8472 911.75,-87.1589 896.297,-79.7582"/>
<polygon fill="midnightblue" stroke="midnightblue" points="897.575,-76.4952 887.02,-75.5735 894.697,-82.876 897.575,-76.4952"/>
</g>
<!-- Node3 -->
<g id="node4" class="node"><title>Node3</title>
<g id="a_node4"><a xlink:href="_wrap_t_file_8h.html" target="_top" xlink:title="base/WrapTFile.h">
<polygon fill="white" stroke="black" points="375.769,-168.5 375.769,-187.5 470.769,-187.5 470.769,-168.5 375.769,-168.5"/>
<text text-anchor="middle" x="423.269" y="-175.5" font-family="Helvetica,sans-Serif" font-size="10.00">base/WrapTFile.h</text>
</a>
</g>
</g>
<!-- Node0&#45;&gt;Node3 -->
<g id="edge3" class="edge"><title>Node0&#45;&gt;Node3</title>
<path fill="none" stroke="midnightblue" d="M1020.89,-336.462C982.701,-327.655 921.731,-313.359 869.269,-300 718.965,-261.728 541.33,-212.257 463.356,-190.326"/>
<polygon fill="midnightblue" stroke="midnightblue" points="464.041,-186.883 453.467,-187.542 462.144,-193.621 464.041,-186.883"/>
</g>
<!-- Node13 -->
<g id="node14" class="node"><title>Node13</title>
<polygon fill="white" stroke="#bfbfbf" points="853.269,-112.5 853.269,-131.5 899.269,-131.5 899.269,-112.5 853.269,-112.5"/>
<text text-anchor="middle" x="876.269" y="-119.5" font-family="Helvetica,sans-Serif" font-size="10.00">TFile.h</text>
</g>
<!-- Node0&#45;&gt;Node13 -->
<g id="edge65" class="edge"><title>Node0&#45;&gt;Node13</title>
<path fill="none" stroke="midnightblue" d="M980.23,-336.475C955.712,-330.071 930.559,-319.013 913.269,-300 872.66,-255.345 872.179,-177.927 874.456,-142.146"/>
<polygon fill="midnightblue" stroke="midnightblue" points="877.982,-141.961 875.28,-131.716 871.003,-141.409 877.982,-141.961"/>
</g>
<!-- Node22 -->
<g id="node23" class="node"><title>Node22</title>
<g id="a_node23"><a xlink:href="_query_8h.html" target="_top" xlink:title="mc/database/Query.h">
<polygon fill="white" stroke="black" points="998.769,-280.5 998.769,-299.5 1117.77,-299.5 1117.77,-280.5 998.769,-280.5"/>
<text text-anchor="middle" x="1058.27" y="-287.5" font-family="Helvetica,sans-Serif" font-size="10.00">mc/database/Query.h</text>
</a>
</g>
</g>
<!-- Node0&#45;&gt;Node22 -->
<g id="edge28" class="edge"><title>Node0&#45;&gt;Node22</title>
<path fill="none" stroke="midnightblue" d="M1058.27,-336.083C1058.27,-329.006 1058.27,-318.861 1058.27,-309.986"/>
<polygon fill="midnightblue" stroke="midnightblue" points="1061.77,-309.751 1058.27,-299.751 1054.77,-309.751 1061.77,-309.751"/>
</g>
<!-- Node41 -->
<g id="node42" class="node"><title>Node41</title>
<g id="a_node42"><a xlink:href="_pluto_factory_8h.html" target="_top" xlink:title="PlutoFactory.h">
<polygon fill="white" stroke="black" points="1174.77,-280.5 1174.77,-299.5 1257.77,-299.5 1257.77,-280.5 1174.77,-280.5"/>
<text text-anchor="middle" x="1216.27" y="-287.5" font-family="Helvetica,sans-Serif" font-size="10.00">PlutoFactory.h</text>
</a>
</g>
</g>
<!-- Node0&#45;&gt;Node41 -->
<g id="edge62" class="edge"><title>Node0&#45;&gt;Node41</title>
<path fill="none" stroke="midnightblue" d="M1083.3,-336.444C1109.89,-327.359 1152.08,-312.939 1181.79,-302.783"/>
<polygon fill="midnightblue" stroke="midnightblue" points="1183.02,-306.062 1191.35,-299.516 1180.76,-299.439 1183.02,-306.062"/>
</g>
<!-- Node42 -->
<g id="node43" class="node"><title>Node42</title>
<polygon fill="white" stroke="#bfbfbf" points="1195.27,-224.5 1195.27,-243.5 1237.27,-243.5 1237.27,-224.5 1195.27,-224.5"/>
<text text-anchor="middle" x="1216.27" y="-231.5" font-family="Helvetica,sans-Serif" font-size="10.00">TF1.h</text>
</g>
<!-- Node0&#45;&gt;Node42 -->
<g id="edge66" class="edge"><title>Node0&#45;&gt;Node42</title>
<path fill="none" stroke="midnightblue" d="M1071.67,-336.364C1085.46,-327.42 1107.52,-312.964 1126.27,-300 1150.79,-283.042 1178.54,-262.845 1196.66,-249.515"/>
<polygon fill="midnightblue" stroke="midnightblue" points="1198.76,-252.319 1204.73,-243.567 1194.6,-246.685 1198.76,-252.319"/>
</g>
<!-- Node43 -->
<g id="node44" class="node"><title>Node43</title>
<polygon fill="white" stroke="#bfbfbf" points="1276.27,-280.5 1276.27,-299.5 1326.27,-299.5 1326.27,-280.5 1276.27,-280.5"/>
<text text-anchor="middle" x="1301.27" y="-287.5" font-family="Helvetica,sans-Serif" font-size="10.00">TTree.h</text>
</g>
<!-- Node0&#45;&gt;Node43 -->
<g id="edge67" class="edge"><title>Node0&#45;&gt;Node43</title>
<path fill="none" stroke="midnightblue" d="M1100.21,-336.423C1142.29,-327.7 1208.92,-313.571 1266.27,-300 1266.37,-299.977 1266.47,-299.953 1266.57,-299.929"/>
<polygon fill="midnightblue" stroke="midnightblue" points="1267.18,-303.382 1276.06,-297.606 1265.52,-296.583 1267.18,-303.382"/>
</g>
<!-- Node44 -->
<g id="node45" class="node"><title>Node44</title>
<polygon fill="white" stroke="#bfbfbf" points="1344.77,-280.5 1344.77,-299.5 1421.77,-299.5 1421.77,-280.5 1344.77,-280.5"/>
<text text-anchor="middle" x="1383.27" y="-287.5" font-family="Helvetica,sans-Serif" font-size="10.00">TRandom3.h</text>
</g>
<!-- Node0&#45;&gt;Node44 -->
<g id="edge68" class="edge"><title>Node0&#45;&gt;Node44</title>
<path fill="none" stroke="midnightblue" d="M1113.26,-336.47C1167.07,-328.032 1251.62,-314.532 1334.66,-300.072"/>
<polygon fill="midnightblue" stroke="midnightblue" points="1335.26,-303.52 1344.51,-298.351 1334.06,-296.624 1335.26,-303.52"/>
</g>
<!-- Node3&#45;&gt;Node1 -->
<g id="edge23" class="edge"><title>Node3&#45;&gt;Node1</title>
<path fill="none" stroke="midnightblue" d="M445.842,-168.418C468.249,-159.748 503.463,-145.709 533.269,-132 550.967,-123.86 553.826,-118.271 572.269,-112 653.175,-84.491 680.179,-95.518 767.229,-76.0165"/>
<polygon fill="midnightblue" stroke="midnightblue" points="768.035,-79.4227 776.989,-73.7598 766.458,-72.6026 768.035,-79.4227"/>
</g>
<!-- Node4 -->
<g id="node5" class="node"><title>Node4</title>
<g id="a_node5"><a xlink:href="string_8h.html" target="_top" xlink:title="base/std_ext/string.h">
<polygon fill="white" stroke="black" points="717.769,-112.5 717.769,-131.5 834.769,-131.5 834.769,-112.5 717.769,-112.5"/>
<text text-anchor="middle" x="776.269" y="-119.5" font-family="Helvetica,sans-Serif" font-size="10.00">base/std_ext/string.h</text>
</a>
</g>
</g>
<!-- Node3&#45;&gt;Node4 -->
<g id="edge4" class="edge"><title>Node3&#45;&gt;Node4</title>
<path fill="none" stroke="midnightblue" d="M470.876,-169.717C532.669,-160.265 640.807,-143.722 710.433,-133.071"/>
<polygon fill="midnightblue" stroke="midnightblue" points="711.06,-136.516 720.416,-131.544 710.002,-129.597 711.06,-136.516"/>
</g>
<!-- Node7 -->
<g id="node8" class="node"><title>Node7</title>
<g id="a_node8"><a xlink:href="misc_8h.html" target="_top" xlink:title="base/std_ext/misc.h">
<polygon fill="white" stroke="black" points="243.769,-112.5 243.769,-131.5 356.769,-131.5 356.769,-112.5 243.769,-112.5"/>
<text text-anchor="middle" x="300.269" y="-119.5" font-family="Helvetica,sans-Serif" font-size="10.00">base/std_ext/misc.h</text>
</a>
</g>
</g>
<!-- Node3&#45;&gt;Node7 -->
<g id="edge9" class="edge"><title>Node3&#45;&gt;Node7</title>
<path fill="none" stroke="midnightblue" d="M403.779,-168.444C383.627,-159.596 351.946,-145.687 328.938,-135.586"/>
<polygon fill="midnightblue" stroke="midnightblue" points="330.231,-132.332 319.668,-131.516 327.417,-138.741 330.231,-132.332"/>
</g>
<!-- Node8 -->
<g id="node9" class="node"><title>Node8</title>
<polygon fill="white" stroke="#bfbfbf" points="102.769,-56.5 102.769,-75.5 165.769,-75.5 165.769,-56.5 102.769,-56.5"/>
<text text-anchor="middle" x="134.269" y="-63.5" font-family="Helvetica,sans-Serif" font-size="10.00">functional</text>
</g>
<!-- Node3&#45;&gt;Node8 -->
<g id="edge27" class="edge"><title>Node3&#45;&gt;Node8</title>
<path fill="none" stroke="midnightblue" d="M375.412,-175.113C274.515,-170.643 47.319,-157.796 24.269,-132 -0.0355996,-104.8 52.2713,-85.7241 92.7954,-75.5582"/>
<polygon fill="midnightblue" stroke="midnightblue" points="93.6203,-78.9597 102.529,-73.2258 91.9891,-72.1524 93.6203,-78.9597"/>
</g>
<!-- Node12 -->
<g id="node13" class="node"><title>Node12</title>
<polygon fill="white" stroke="#bfbfbf" points="412.769,-56.5 412.769,-75.5 469.769,-75.5 469.769,-56.5 412.769,-56.5"/>
<text text-anchor="middle" x="441.269" y="-63.5" font-family="Helvetica,sans-Serif" font-size="10.00">memory</text>
</g>
<!-- Node3&#45;&gt;Node12 -->
<g id="edge22" class="edge"><title>Node3&#45;&gt;Node12</title>
<path fill="none" stroke="midnightblue" d="M418.629,-168.449C412.438,-155.888 402.949,-131.794 409.269,-112 412.61,-101.538 419.369,-91.4277 425.818,-83.4496"/>
<polygon fill="midnightblue" stroke="midnightblue" points="428.617,-85.5641 432.518,-75.7136 423.325,-80.9815 428.617,-85.5641"/>
</g>
<!-- Node3&#45;&gt;Node13 -->
<g id="edge16" class="edge"><title>Node3&#45;&gt;Node13</title>
<path fill="none" stroke="midnightblue" d="M470.87,-174.38C547.284,-169.634 702.116,-157.795 842.834,-131.756"/>
<polygon fill="midnightblue" stroke="midnightblue" points="843.759,-135.144 852.94,-129.857 842.466,-128.264 843.759,-135.144"/>
</g>
<!-- Node14 -->
<g id="node15" class="node"><title>Node14</title>
<polygon fill="white" stroke="#bfbfbf" points="451.769,-112.5 451.769,-131.5 524.769,-131.5 524.769,-112.5 451.769,-112.5"/>
<text text-anchor="middle" x="488.269" y="-119.5" font-family="Helvetica,sans-Serif" font-size="10.00">TDirectory.h</text>
</g>
<!-- Node3&#45;&gt;Node14 -->
<g id="edge17" class="edge"><title>Node3&#45;&gt;Node14</title>
<path fill="none" stroke="midnightblue" d="M433.712,-168.324C443.415,-160.263 458.084,-148.077 469.769,-138.369"/>
<polygon fill="midnightblue" stroke="midnightblue" points="472.18,-140.916 477.636,-131.834 467.707,-135.532 472.18,-140.916"/>
</g>
<!-- Node15 -->
<g id="node16" class="node"><title>Node15</title>
<polygon fill="white" stroke="#bfbfbf" points="581.769,-112.5 581.769,-131.5 634.769,-131.5 634.769,-112.5 581.769,-112.5"/>
<text text-anchor="middle" x="608.269" y="-119.5" font-family="Helvetica,sans-Serif" font-size="10.00">TError.h</text>
</g>
<!-- Node3&#45;&gt;Node15 -->
<g id="edge18" class="edge"><title>Node3&#45;&gt;Node15</title>
<path fill="none" stroke="midnightblue" d="M452.583,-168.444C484.853,-159.024 536.777,-143.868 571.689,-133.677"/>
<polygon fill="midnightblue" stroke="midnightblue" points="572.876,-136.977 581.495,-130.815 570.915,-130.257 572.876,-136.977"/>
</g>
<!-- Node16 -->
<g id="node17" class="node"><title>Node16</title>
<polygon fill="white" stroke="#bfbfbf" points="652.769,-112.5 652.769,-131.5 699.769,-131.5 699.769,-112.5 652.769,-112.5"/>
<text text-anchor="middle" x="676.269" y="-119.5" font-family="Helvetica,sans-Serif" font-size="10.00">TList.h</text>
</g>
<!-- Node3&#45;&gt;Node16 -->
<g id="edge19" class="edge"><title>Node3&#45;&gt;Node16</title>
<path fill="none" stroke="midnightblue" d="M469.388,-168.464C511.853,-160.403 576.812,-147.568 642.417,-132.079"/>
<polygon fill="midnightblue" stroke="midnightblue" points="643.606,-135.394 652.523,-129.673 641.984,-128.584 643.606,-135.394"/>
</g>
<!-- Node17 -->
<g id="node18" class="node"><title>Node17</title>
<polygon fill="white" stroke="#bfbfbf" points="33.769,-112.5 33.769,-131.5 110.769,-131.5 110.769,-112.5 33.769,-112.5"/>
<text text-anchor="middle" x="72.269" y="-119.5" font-family="Helvetica,sans-Serif" font-size="10.00">TCollection.h</text>
</g>
<!-- Node3&#45;&gt;Node17 -->
<g id="edge20" class="edge"><title>Node3&#45;&gt;Node17</title>
<path fill="none" stroke="midnightblue" d="M375.686,-170.502C317.924,-162.487 217.308,-148.122 120.932,-132.057"/>
<polygon fill="midnightblue" stroke="midnightblue" points="121.46,-128.597 111.019,-130.396 120.303,-135.501 121.46,-128.597"/>
</g>
<!-- Node18 -->
<g id="node19" class="node"><title>Node18</title>
<polygon fill="white" stroke="#bfbfbf" points="129.269,-112.5 129.269,-131.5 175.269,-131.5 175.269,-112.5 129.269,-112.5"/>
<text text-anchor="middle" x="152.269" y="-119.5" font-family="Helvetica,sans-Serif" font-size="10.00">TKey.h</text>
</g>
<!-- Node3&#45;&gt;Node18 -->
<g id="edge21" class="edge"><title>Node3&#45;&gt;Node18</title>
<path fill="none" stroke="midnightblue" d="M375.397,-169.263C329.135,-161.501 256.896,-148.632 185.364,-132.091"/>
<polygon fill="midnightblue" stroke="midnightblue" points="185.813,-128.601 175.278,-129.733 184.219,-135.418 185.813,-128.601"/>
</g>
<!-- Node19 -->
<g id="node20" class="node"><title>Node19</title>
<polygon fill="white" stroke="#bfbfbf" points="729.269,-56.5 729.269,-75.5 759.269,-75.5 759.269,-56.5 729.269,-56.5"/>
<text text-anchor="middle" x="744.269" y="-63.5" font-family="Helvetica,sans-Serif" font-size="10.00">list</text>
</g>
<!-- Node3&#45;&gt;Node19 -->
<g id="edge24" class="edge"><title>Node3&#45;&gt;Node19</title>
<path fill="none" stroke="midnightblue" d="M423.057,-168.302C423.226,-154.173 425.788,-126.373 442.269,-112 463.079,-93.8522 650.061,-75.4366 718.942,-69.2103"/>
<polygon fill="midnightblue" stroke="midnightblue" points="719.29,-72.6932 728.939,-68.3175 718.667,-65.7209 719.29,-72.6932"/>
</g>
<!-- Node20 -->
<g id="node21" class="node"><title>Node20</title>
<polygon fill="white" stroke="#bfbfbf" points="193.269,-112.5 193.269,-131.5 225.269,-131.5 225.269,-112.5 193.269,-112.5"/>
<text text-anchor="middle" x="209.269" y="-119.5" font-family="Helvetica,sans-Serif" font-size="10.00">set</text>
</g>
<!-- Node3&#45;&gt;Node20 -->
<g id="edge25" class="edge"><title>Node3&#45;&gt;Node20</title>
<path fill="none" stroke="midnightblue" d="M381.622,-168.486C345.197,-160.728 290.734,-148.377 235.001,-131.966"/>
<polygon fill="midnightblue" stroke="midnightblue" points="235.902,-128.582 225.319,-129.077 233.901,-135.29 235.902,-128.582"/>
</g>
<!-- Node21 -->
<g id="node22" class="node"><title>Node21</title>
<polygon fill="white" stroke="#bfbfbf" points="256.269,-0.5 256.269,-19.5 320.269,-19.5 320.269,-0.5 256.269,-0.5"/>
<text text-anchor="middle" x="288.269" y="-7.5" font-family="Helvetica,sans-Serif" font-size="10.00">stdexcept</text>
</g>
<!-- Node3&#45;&gt;Node21 -->
<g id="edge26" class="edge"><title>Node3&#45;&gt;Node21</title>
<path fill="none" stroke="midnightblue" d="M375.384,-175.253C272.562,-171.01 38.0149,-158.502 14.269,-132 -55.3989,-54.2465 152.719,-24.0293 245.774,-14.6092"/>
<polygon fill="midnightblue" stroke="midnightblue" points="246.385,-18.0663 255.997,-13.6112 245.705,-11.0994 246.385,-18.0663"/>
</g>
<!-- Node4&#45;&gt;Node1 -->
<g id="edge5" class="edge"><title>Node4&#45;&gt;Node1</title>
<path fill="none" stroke="midnightblue" d="M780.067,-112.083C783.182,-104.77 787.692,-94.1814 791.558,-85.1034"/>
<polygon fill="midnightblue" stroke="midnightblue" points="794.843,-86.3229 795.542,-75.7511 788.403,-83.5798 794.843,-86.3229"/>
</g>
<!-- Node4&#45;&gt;Node2 -->
<g id="edge8" class="edge"><title>Node4&#45;&gt;Node2</title>
<path fill="none" stroke="midnightblue" d="M790.247,-112.324C803.819,-103.9 824.649,-90.9709 840.594,-81.0741"/>
<polygon fill="midnightblue" stroke="midnightblue" points="842.675,-83.9019 849.326,-75.6545 838.983,-77.9544 842.675,-83.9019"/>
</g>
<!-- Node5 -->
<g id="node6" class="node"><title>Node5</title>
<polygon fill="white" stroke="#bfbfbf" points="896.269,-0.5 896.269,-19.5 952.269,-19.5 952.269,-0.5 896.269,-0.5"/>
<text text-anchor="middle" x="924.269" y="-7.5" font-family="Helvetica,sans-Serif" font-size="10.00">sstream</text>
</g>
<!-- Node4&#45;&gt;Node5 -->
<g id="edge6" class="edge"><title>Node4&#45;&gt;Node5</title>
<path fill="none" stroke="midnightblue" d="M759.216,-112.331C737.223,-100.02 703.663,-76.6687 720.269,-56 740.66,-30.6206 832.781,-18.7064 885.995,-13.8533"/>
<polygon fill="midnightblue" stroke="midnightblue" points="886.428,-17.3289 896.087,-12.9749 885.821,-10.3553 886.428,-17.3289"/>
</g>
<!-- Node6 -->
<g id="node7" class="node"><title>Node6</title>
<polygon fill="white" stroke="#bfbfbf" points="724.269,-0.5 724.269,-19.5 786.269,-19.5 786.269,-0.5 724.269,-0.5"/>
<text text-anchor="middle" x="755.269" y="-7.5" font-family="Helvetica,sans-Serif" font-size="10.00">algorithm</text>
</g>
<!-- Node4&#45;&gt;Node6 -->
<g id="edge7" class="edge"><title>Node4&#45;&gt;Node6</title>
<path fill="none" stroke="midnightblue" d="M739.567,-112.349C720.435,-105.775 698.697,-94.5833 687.269,-76 674.279,-54.8761 700.622,-35.9431 724.209,-24.0337"/>
<polygon fill="midnightblue" stroke="midnightblue" points="725.836,-27.1354 733.357,-19.6736 722.824,-20.8164 725.836,-27.1354"/>
</g>
<!-- Node7&#45;&gt;Node6 -->
<g id="edge10" class="edge"><title>Node7&#45;&gt;Node6</title>
<path fill="none" stroke="midnightblue" d="M312.424,-112.382C335.275,-96.3414 384.067,-62.9018 403.269,-56 510.583,-17.428 646.733,-11.1088 713.918,-10.5672"/>
<polygon fill="midnightblue" stroke="midnightblue" points="714.108,-14.0665 724.093,-10.5258 714.079,-7.06658 714.108,-14.0665"/>
</g>
<!-- Node7&#45;&gt;Node8 -->
<g id="edge11" class="edge"><title>Node7&#45;&gt;Node8</title>
<path fill="none" stroke="midnightblue" d="M273.966,-112.444C245.918,-103.32 201.325,-88.8133 170.085,-78.6509"/>
<polygon fill="midnightblue" stroke="midnightblue" points="171.041,-75.2816 160.449,-75.5164 168.876,-81.9383 171.041,-75.2816"/>
</g>
<!-- Node9 -->
<g id="node10" class="node"><title>Node9</title>
<polygon fill="white" stroke="#bfbfbf" points="453.769,-0.5 453.769,-19.5 500.769,-19.5 500.769,-0.5 453.769,-0.5"/>
<text text-anchor="middle" x="477.269" y="-7.5" font-family="Helvetica,sans-Serif" font-size="10.00">cmath</text>
</g>
<!-- Node7&#45;&gt;Node9 -->
<g id="edge12" class="edge"><title>Node7&#45;&gt;Node9</title>
<path fill="none" stroke="midnightblue" d="M295.458,-112.377C288.627,-98.8453 278.306,-72.4732 291.269,-56 309.884,-32.3448 395.336,-19.6313 443.681,-14.2216"/>
<polygon fill="midnightblue" stroke="midnightblue" points="444.113,-17.6953 453.682,-13.1473 443.366,-10.7354 444.113,-17.6953"/>
</g>
<!-- Node10 -->
<g id="node11" class="node"><title>Node10</title>
<polygon fill="white" stroke="#bfbfbf" points="300.269,-56.5 300.269,-75.5 356.269,-75.5 356.269,-56.5 300.269,-56.5"/>
<text text-anchor="middle" x="328.269" y="-63.5" font-family="Helvetica,sans-Serif" font-size="10.00">cxxabi.h</text>
</g>
<!-- Node7&#45;&gt;Node10 -->
<g id="edge13" class="edge"><title>Node7&#45;&gt;Node10</title>
<path fill="none" stroke="midnightblue" d="M304.893,-112.083C308.725,-104.691 314.293,-93.9533 319.034,-84.8111"/>
<polygon fill="midnightblue" stroke="midnightblue" points="322.235,-86.2398 323.731,-75.7511 316.021,-83.0175 322.235,-86.2398"/>
</g>
<!-- Node11 -->
<g id="node12" class="node"><title>Node11</title>
<polygon fill="white" stroke="#bfbfbf" points="525.269,-56.5 525.269,-75.5 593.269,-75.5 593.269,-56.5 525.269,-56.5"/>
<text text-anchor="middle" x="559.269" y="-63.5" font-family="Helvetica,sans-Serif" font-size="10.00">type_traits</text>
</g>
<!-- Node7&#45;&gt;Node11 -->
<g id="edge14" class="edge"><title>Node7&#45;&gt;Node11</title>
<path fill="none" stroke="midnightblue" d="M341.308,-112.444C388.716,-102.559 466.42,-86.3585 515.11,-76.2068"/>
<polygon fill="midnightblue" stroke="midnightblue" points="515.964,-79.6043 525.039,-74.1368 514.535,-72.7516 515.964,-79.6043"/>
</g>
<!-- Node7&#45;&gt;Node12 -->
<g id="edge15" class="edge"><title>Node7&#45;&gt;Node12</title>
<path fill="none" stroke="midnightblue" d="M322.611,-112.444C346.022,-103.478 383.005,-89.314 409.459,-79.1827"/>
<polygon fill="midnightblue" stroke="midnightblue" points="410.945,-82.3615 419.032,-75.5164 408.441,-75.8245 410.945,-82.3615"/>
</g>
<!-- Node22&#45;&gt;Node2 -->
<g id="edge29" class="edge"><title>Node22&#45;&gt;Node2</title>
<path fill="none" stroke="midnightblue" d="M1086.8,-280.487C1104.78,-273.596 1126.87,-262.022 1139.27,-244 1158.53,-216.022 1166.48,-196.011 1147.27,-168 1142.39,-160.878 1010.41,-114.887 1002.27,-112 997.128,-110.177 936.131,-90.4842 896.667,-77.761"/>
<polygon fill="midnightblue" stroke="midnightblue" points="897.493,-74.35 886.902,-74.6132 895.346,-81.0124 897.493,-74.35"/>
</g>
<!-- Node23 -->
<g id="node24" class="node"><title>Node23</title>
<g id="a_node24"><a xlink:href="_production_data_base_8h.html" target="_top" xlink:title="ProductionDataBase.h">
<polygon fill="white" stroke="black" points="1006.27,-224.5 1006.27,-243.5 1130.27,-243.5 1130.27,-224.5 1006.27,-224.5"/>
<text text-anchor="middle" x="1068.27" y="-231.5" font-family="Helvetica,sans-Serif" font-size="10.00">ProductionDataBase.h</text>
</a>
</g>
</g>
<!-- Node22&#45;&gt;Node23 -->
<g id="edge30" class="edge"><title>Node22&#45;&gt;Node23</title>
<path fill="none" stroke="midnightblue" d="M1059.92,-280.083C1061.25,-272.927 1063.15,-262.635 1064.81,-253.691"/>
<polygon fill="midnightblue" stroke="midnightblue" points="1068.27,-254.221 1066.65,-243.751 1061.39,-252.947 1068.27,-254.221"/>
</g>
<!-- Node23&#45;&gt;Node2 -->
<g id="edge31" class="edge"><title>Node23&#45;&gt;Node2</title>
<path fill="none" stroke="midnightblue" d="M1057.94,-224.417C1048.03,-215.854 1033.03,-201.992 1022.27,-188 998.608,-157.237 1008.62,-137.385 979.269,-112 972.68,-106.302 928.336,-89.9172 896.434,-78.5762"/>
<polygon fill="midnightblue" stroke="midnightblue" points="897.583,-75.2702 886.988,-75.2359 895.249,-81.8697 897.583,-75.2702"/>
</g>
<!-- Node24 -->
<g id="node25" class="node"><title>Node24</title>
<g id="a_node25"><a xlink:href="_particle_type_tree_8h.html" target="_top" xlink:title="base/ParticleTypeTree.h">
<polygon fill="white" stroke="black" points="1201.77,-168.5 1201.77,-187.5 1328.77,-187.5 1328.77,-168.5 1201.77,-168.5"/>
<text text-anchor="middle" x="1265.27" y="-175.5" font-family="Helvetica,sans-Serif" font-size="10.00">base/ParticleTypeTree.h</text>
</a>
</g>
</g>
<!-- Node23&#45;&gt;Node24 -->
<g id="edge32" class="edge"><title>Node23&#45;&gt;Node24</title>
<path fill="none" stroke="midnightblue" d="M1099.48,-224.444C1133.2,-215.201 1187.07,-200.436 1224.2,-190.257"/>
<polygon fill="midnightblue" stroke="midnightblue" points="1225.48,-193.536 1234.2,-187.516 1223.63,-186.785 1225.48,-193.536"/>
</g>
<!-- Node40 -->
<g id="node41" class="node"><title>Node40</title>
<polygon fill="white" stroke="#bfbfbf" points="1031.77,-168.5 1031.77,-187.5 1138.77,-187.5 1138.77,-168.5 1031.77,-168.5"/>
<text text-anchor="middle" x="1085.27" y="-175.5" font-family="Helvetica,sans-Serif" font-size="10.00">Math/Interpolator.h</text>
</g>
<!-- Node23&#45;&gt;Node40 -->
<g id="edge61" class="edge"><title>Node23&#45;&gt;Node40</title>
<path fill="none" stroke="midnightblue" d="M1071.08,-224.083C1073.35,-216.849 1076.64,-206.409 1079.48,-197.397"/>
<polygon fill="midnightblue" stroke="midnightblue" points="1082.85,-198.341 1082.51,-187.751 1076.17,-196.239 1082.85,-198.341"/>
</g>
<!-- Node25 -->
<g id="node26" class="node"><title>Node25</title>
<g id="a_node26"><a xlink:href="_particle_type_8h.html" target="_top" xlink:title="ParticleType.h">
<polygon fill="white" stroke="black" points="1266.77,-112.5 1266.77,-131.5 1347.77,-131.5 1347.77,-112.5 1266.77,-112.5"/>
<text text-anchor="middle" x="1307.27" y="-119.5" font-family="Helvetica,sans-Serif" font-size="10.00">ParticleType.h</text>
</a>
</g>
</g>
<!-- Node24&#45;&gt;Node25 -->
<g id="edge33" class="edge"><title>Node24&#45;&gt;Node25</title>
<path fill="none" stroke="midnightblue" d="M1272.2,-168.083C1278.2,-160.377 1287.02,-149.033 1294.32,-139.653"/>
<polygon fill="midnightblue" stroke="midnightblue" points="1297.09,-141.793 1300.46,-131.751 1291.56,-137.496 1297.09,-141.793"/>
</g>
<!-- Node31 -->
<g id="node32" class="node"><title>Node31</title>
<polygon fill="white" stroke="#bfbfbf" points="1618.27,-56.5 1618.27,-75.5 1656.27,-75.5 1656.27,-56.5 1618.27,-56.5"/>
<text text-anchor="middle" x="1637.27" y="-63.5" font-family="Helvetica,sans-Serif" font-size="10.00">map</text>
</g>
<!-- Node24&#45;&gt;Node31 -->
<g id="edge60" class="edge"><title>Node24&#45;&gt;Node31</title>
<path fill="none" stroke="midnightblue" d="M1295.25,-168.474C1353.52,-151.846 1486.31,-113.663 1608.14,-76.2951"/>
<polygon fill="midnightblue" stroke="midnightblue" points="1609.48,-79.5445 1618.01,-73.2615 1607.42,-72.8533 1609.48,-79.5445"/>
</g>
<!-- Node33 -->
<g id="node34" class="node"><title>Node33</title>
<g id="a_node34"><a xlink:href="_tree_8h.html" target="_top" xlink:title="Tree.h">
<polygon fill="white" stroke="black" points="1069.77,-112.5 1069.77,-131.5 1114.77,-131.5 1114.77,-112.5 1069.77,-112.5"/>
<text text-anchor="middle" x="1092.27" y="-119.5" font-family="Helvetica,sans-Serif" font-size="10.00">Tree.h</text>
</a>
</g>
</g>
<!-- Node24&#45;&gt;Node33 -->
<g id="edge48" class="edge"><title>Node24&#45;&gt;Node33</title>
<path fill="none" stroke="midnightblue" d="M1237.86,-168.444C1207.16,-158.863 1157.46,-143.349 1124.82,-133.16"/>
<polygon fill="midnightblue" stroke="midnightblue" points="1125.46,-129.692 1114.87,-130.054 1123.37,-136.374 1125.46,-129.692"/>
</g>
<!-- Node25&#45;&gt;Node1 -->
<g id="edge43" class="edge"><title>Node25&#45;&gt;Node1</title>
<path fill="none" stroke="midnightblue" d="M1266.7,-119.749C1185.57,-116.693 997.545,-106.837 831.4,-75.8733"/>
<polygon fill="midnightblue" stroke="midnightblue" points="831.975,-72.42 821.498,-73.9976 830.672,-79.2977 831.975,-72.42"/>
</g>
<!-- Node25&#45;&gt;Node2 -->
<g id="edge47" class="edge"><title>Node25&#45;&gt;Node2</title>
<path fill="none" stroke="midnightblue" d="M1266.69,-116.186C1198.17,-108.038 1055.16,-90.9541 934.269,-76 922.061,-74.4899 908.677,-72.8018 896.853,-71.2992"/>
<polygon fill="midnightblue" stroke="midnightblue" points="897.293,-67.8272 886.931,-70.0357 896.409,-74.7711 897.293,-67.8272"/>
</g>
<!-- Node26 -->
<g id="node27" class="node"><title>Node26</title>
<g id="a_node27"><a xlink:href="types_8h.html" target="_top" xlink:title="base/types.h">
<polygon fill="white" stroke="black" points="1286.27,-0.5 1286.27,-19.5 1364.27,-19.5 1364.27,-0.5 1286.27,-0.5"/>
<text text-anchor="middle" x="1325.27" y="-7.5" font-family="Helvetica,sans-Serif" font-size="10.00">base/types.h</text>
</a>
</g>
</g>
<!-- Node25&#45;&gt;Node26 -->
<g id="edge34" class="edge"><title>Node25&#45;&gt;Node26</title>
<path fill="none" stroke="midnightblue" d="M1308.68,-112.368C1311.59,-94.617 1318.29,-53.6664 1322.23,-29.5974"/>
<polygon fill="midnightblue" stroke="midnightblue" points="1325.7,-30.0254 1323.86,-19.5914 1318.79,-28.8949 1325.7,-30.0254"/>
</g>
<!-- Node27 -->
<g id="node28" class="node"><title>Node27</title>
<g id="a_node28"><a xlink:href="interval_8h.html" target="_top" xlink:title="base/interval.h">
<polygon fill="white" stroke="black" points="1209.77,-56.5 1209.77,-75.5 1296.77,-75.5 1296.77,-56.5 1209.77,-56.5"/>
<text text-anchor="middle" x="1253.27" y="-63.5" font-family="Helvetica,sans-Serif" font-size="10.00">base/interval.h</text>
</a>
</g>
</g>
<!-- Node25&#45;&gt;Node27 -->
<g id="edge35" class="edge"><title>Node25&#45;&gt;Node27</title>
<path fill="none" stroke="midnightblue" d="M1298.35,-112.083C1290.49,-104.22 1278.84,-92.5688 1269.35,-83.0813"/>
<polygon fill="midnightblue" stroke="midnightblue" points="1271.57,-80.3473 1262.02,-75.7511 1266.62,-85.2971 1271.57,-80.3473"/>
</g>
<!-- Node30 -->
<g id="node31" class="node"><title>Node30</title>
<polygon fill="white" stroke="#bfbfbf" points="1472.77,-56.5 1472.77,-75.5 1529.77,-75.5 1529.77,-56.5 1472.77,-56.5"/>
<text text-anchor="middle" x="1501.27" y="-63.5" font-family="Helvetica,sans-Serif" font-size="10.00">ostream</text>
</g>
<!-- Node25&#45;&gt;Node30 -->
<g id="edge44" class="edge"><title>Node25&#45;&gt;Node30</title>
<path fill="none" stroke="midnightblue" d="M1338.01,-112.444C1371.8,-103.038 1426.14,-87.9127 1462.75,-77.7227"/>
<polygon fill="midnightblue" stroke="midnightblue" points="1463.88,-81.0418 1472.57,-74.9883 1462,-74.2981 1463.88,-81.0418"/>
</g>
<!-- Node25&#45;&gt;Node31 -->
<g id="edge45" class="edge"><title>Node25&#45;&gt;Node31</title>
<path fill="none" stroke="midnightblue" d="M1348.21,-117.042C1404.77,-111.106 1510.06,-98.377 1608.32,-75.8932"/>
<polygon fill="midnightblue" stroke="midnightblue" points="1609.16,-79.2905 1618.11,-73.6146 1607.57,-72.4727 1609.16,-79.2905"/>
</g>
<!-- Node32 -->
<g id="node33" class="node"><title>Node32</title>
<polygon fill="white" stroke="#bfbfbf" points="1548.27,-56.5 1548.27,-75.5 1600.27,-75.5 1600.27,-56.5 1548.27,-56.5"/>
<text text-anchor="middle" x="1574.27" y="-63.5" font-family="Helvetica,sans-Serif" font-size="10.00">iterator</text>
</g>
<!-- Node25&#45;&gt;Node32 -->
<g id="edge46" class="edge"><title>Node25&#45;&gt;Node32</title>
<path fill="none" stroke="midnightblue" d="M1347.88,-113.757C1392.13,-105.716 1465.24,-92.0016 1538.14,-75.9259"/>
<polygon fill="midnightblue" stroke="midnightblue" points="1538.96,-79.3308 1547.96,-73.7466 1537.44,-72.4972 1538.96,-79.3308"/>
</g>
<!-- Node27&#45;&gt;Node5 -->
<g id="edge41" class="edge"><title>Node27&#45;&gt;Node5</title>
<path fill="none" stroke="midnightblue" d="M1209.6,-57.5611C1206.44,-57.0304 1203.31,-56.5056 1200.27,-56 1115.41,-41.8777 1015.8,-25.7471 962.511,-17.1536"/>
<polygon fill="midnightblue" stroke="midnightblue" points="962.919,-13.6741 952.489,-15.5382 961.805,-20.5849 962.919,-13.6741"/>
</g>
<!-- Node27&#45;&gt;Node6 -->
<g id="edge37" class="edge"><title>Node27&#45;&gt;Node6</title>
<path fill="none" stroke="midnightblue" d="M1209.63,-57.3502C1206.47,-56.869 1203.32,-56.413 1200.27,-56 1052.06,-35.946 874.977,-20.5958 796.358,-14.2228"/>
<polygon fill="midnightblue" stroke="midnightblue" points="796.624,-10.733 786.375,-13.4191 796.062,-17.7104 796.624,-10.733"/>
</g>
<!-- Node27&#45;&gt;Node9 -->
<g id="edge42" class="edge"><title>Node27&#45;&gt;Node9</title>
<path fill="none" stroke="midnightblue" d="M1209.65,-57.2159C1206.48,-56.7662 1203.33,-56.354 1200.27,-56 1064.01,-40.235 634.994,-18.6626 511.087,-12.627"/>
<polygon fill="midnightblue" stroke="midnightblue" points="511.203,-9.12859 501.045,-12.1394 510.864,-16.1203 511.203,-9.12859"/>
</g>
<!-- Node27&#45;&gt;Node21 -->
<g id="edge38" class="edge"><title>Node27&#45;&gt;Node21</title>
<path fill="none" stroke="midnightblue" d="M1209.65,-57.1651C1206.48,-56.7274 1203.33,-56.3317 1200.27,-56 865.844,-19.7766 780.184,-37.6874 444.269,-20 405.813,-17.9751 362.039,-15.4286 330.669,-13.5615"/>
<polygon fill="midnightblue" stroke="midnightblue" points="330.722,-10.0585 320.531,-12.9561 330.305,-17.0461 330.722,-10.0585"/>
</g>
<!-- Node27&#45;&gt;Node26 -->
<g id="edge36" class="edge"><title>Node27&#45;&gt;Node26</title>
<path fill="none" stroke="midnightblue" d="M1264.84,-56.324C1275.69,-48.1849 1292.15,-35.8395 1305.15,-26.0874"/>
<polygon fill="midnightblue" stroke="midnightblue" points="1307.59,-28.6339 1313.49,-19.8339 1303.39,-23.0339 1307.59,-28.6339"/>
</g>
<!-- Node28 -->
<g id="node29" class="node"><title>Node28</title>
<polygon fill="white" stroke="#bfbfbf" points="1154.27,-0.5 1154.27,-19.5 1196.27,-19.5 1196.27,-0.5 1154.27,-0.5"/>
<text text-anchor="middle" x="1175.27" y="-7.5" font-family="Helvetica,sans-Serif" font-size="10.00">limits</text>
</g>
<!-- Node27&#45;&gt;Node28 -->
<g id="edge39" class="edge"><title>Node27&#45;&gt;Node28</title>
<path fill="none" stroke="midnightblue" d="M1240.74,-56.324C1228.68,-47.979 1210.24,-35.2122 1196,-25.3524"/>
<polygon fill="midnightblue" stroke="midnightblue" points="1197.98,-22.469 1187.77,-19.6545 1194,-28.2243 1197.98,-22.469"/>
</g>
<!-- Node29 -->
<g id="node30" class="node"><title>Node29</title>
<polygon fill="white" stroke="#bfbfbf" points="1214.77,-0.5 1214.77,-19.5 1267.77,-19.5 1267.77,-0.5 1214.77,-0.5"/>
<text text-anchor="middle" x="1241.27" y="-7.5" font-family="Helvetica,sans-Serif" font-size="10.00">istream</text>
</g>
<!-- Node27&#45;&gt;Node29 -->
<g id="edge40" class="edge"><title>Node27&#45;&gt;Node29</title>
<path fill="none" stroke="midnightblue" d="M1251.29,-56.083C1249.7,-48.9272 1247.41,-38.6353 1245.42,-29.6911"/>
<polygon fill="midnightblue" stroke="midnightblue" points="1248.8,-28.7537 1243.21,-19.7511 1241.97,-30.2722 1248.8,-28.7537"/>
</g>
<!-- Node33&#45;&gt;Node2 -->
<g id="edge55" class="edge"><title>Node33&#45;&gt;Node2</title>
<path fill="none" stroke="midnightblue" d="M1069.58,-115.447C1064.85,-114.299 1059.9,-113.104 1055.27,-112 986.897,-95.6933 969.69,-92.0997 901.269,-76 899.825,-75.6603 898.351,-75.313 896.862,-74.9617"/>
<polygon fill="midnightblue" stroke="midnightblue" points="897.52,-71.521 886.983,-72.6278 895.91,-78.3334 897.52,-71.521"/>
</g>
<!-- Node33&#45;&gt;Node6 -->
<g id="edge56" class="edge"><title>Node33&#45;&gt;Node6</title>
<path fill="none" stroke="midnightblue" d="M1069.73,-115.166C1032.34,-105.39 959.143,-85.81 934.269,-76 916.148,-68.8532 913.268,-63.4496 895.269,-56 862.704,-42.5217 824.55,-30.4943 796.304,-22.2723"/>
<polygon fill="midnightblue" stroke="midnightblue" points="796.953,-18.817 786.375,-19.4196 795.02,-25.5449 796.953,-18.817"/>
</g>
<!-- Node33&#45;&gt;Node11 -->
<g id="edge59" class="edge"><title>Node33&#45;&gt;Node11</title>
<path fill="none" stroke="midnightblue" d="M1069.71,-118.714C988.704,-110.508 711.631,-82.4363 603.24,-71.4548"/>
<polygon fill="midnightblue" stroke="midnightblue" points="603.591,-67.9726 593.289,-70.4467 602.886,-74.937 603.591,-67.9726"/>
</g>
<!-- Node33&#45;&gt;Node12 -->
<g id="edge53" class="edge"><title>Node33&#45;&gt;Node12</title>
<path fill="none" stroke="midnightblue" d="M1069.73,-119.577C992.496,-114.627 731.374,-97.2996 516.269,-76 504.579,-74.8424 491.887,-73.393 480.325,-71.9977"/>
<polygon fill="midnightblue" stroke="midnightblue" points="480.438,-68.4854 470.087,-70.7414 479.586,-75.4333 480.438,-68.4854"/>
</g>
<!-- Node33&#45;&gt;Node19 -->
<g id="edge54" class="edge"><title>Node33&#45;&gt;Node19</title>
<path fill="none" stroke="midnightblue" d="M1069.55,-119.575C1017.69,-115.959 886.621,-104.767 769.211,-75.721"/>
<polygon fill="midnightblue" stroke="midnightblue" points="769.896,-72.2842 759.343,-73.2287 768.181,-79.071 769.896,-72.2842"/>
</g>
<!-- Node34 -->
<g id="node35" class="node"><title>Node34</title>
<polygon fill="white" stroke="#bfbfbf" points="1017.77,-56.5 1017.77,-75.5 1120.77,-75.5 1120.77,-56.5 1017.77,-56.5"/>
<text text-anchor="middle" x="1069.27" y="-63.5" font-family="Helvetica,sans-Serif" font-size="10.00">cereal/access.hpp</text>
</g>
<!-- Node33&#45;&gt;Node34 -->
<g id="edge49" class="edge"><title>Node33&#45;&gt;Node34</title>
<path fill="none" stroke="midnightblue" d="M1088.47,-112.083C1085.36,-104.77 1080.85,-94.1814 1076.98,-85.1034"/>
<polygon fill="midnightblue" stroke="midnightblue" points="1080.14,-83.5798 1073,-75.7511 1073.69,-86.3229 1080.14,-83.5798"/>
</g>
<!-- Node35 -->
<g id="node36" class="node"><title>Node35</title>
<g id="a_node36"><a xlink:href="variadic_8h.html" target="_top" xlink:title="std_ext/variadic.h">
<polygon fill="white" stroke="black" points="1353.77,-56.5 1353.77,-75.5 1454.77,-75.5 1454.77,-56.5 1353.77,-56.5"/>
<text text-anchor="middle" x="1404.27" y="-63.5" font-family="Helvetica,sans-Serif" font-size="10.00">std_ext/variadic.h</text>
</a>
</g>
</g>
<!-- Node33&#45;&gt;Node35 -->
<g id="edge50" class="edge"><title>Node33&#45;&gt;Node35</title>
<path fill="none" stroke="midnightblue" d="M1114.96,-117.073C1162.81,-108.792 1275.38,-89.3086 1345.15,-77.2326"/>
<polygon fill="midnightblue" stroke="midnightblue" points="1345.86,-80.6611 1355.12,-75.5069 1344.67,-73.7637 1345.86,-80.6611"/>
</g>
<!-- Node38 -->
<g id="node39" class="node"><title>Node38</title>
<polygon fill="white" stroke="#bfbfbf" points="1139.27,-56.5 1139.27,-75.5 1191.27,-75.5 1191.27,-56.5 1139.27,-56.5"/>
<text text-anchor="middle" x="1165.27" y="-63.5" font-family="Helvetica,sans-Serif" font-size="10.00">cassert</text>
</g>
<!-- Node33&#45;&gt;Node38 -->
<g id="edge57" class="edge"><title>Node33&#45;&gt;Node38</title>
<path fill="none" stroke="midnightblue" d="M1104,-112.324C1115.11,-104.107 1132.01,-91.6017 1145.25,-81.8069"/>
<polygon fill="midnightblue" stroke="midnightblue" points="1147.37,-84.5948 1153.33,-75.8339 1143.21,-78.9671 1147.37,-84.5948"/>
</g>
<!-- Node39 -->
<g id="node40" class="node"><title>Node39</title>
<polygon fill="white" stroke="#bfbfbf" points="943.269,-56.5 943.269,-75.5 999.269,-75.5 999.269,-56.5 943.269,-56.5"/>
<text text-anchor="middle" x="971.269" y="-63.5" font-family="Helvetica,sans-Serif" font-size="10.00">numeric</text>
</g>
<!-- Node33&#45;&gt;Node39 -->
<g id="edge58" class="edge"><title>Node33&#45;&gt;Node39</title>
<path fill="none" stroke="midnightblue" d="M1073.1,-112.444C1053.36,-103.636 1022.38,-89.8116 999.776,-79.722"/>
<polygon fill="midnightblue" stroke="midnightblue" points="1000.91,-76.3957 990.352,-75.5164 998.058,-82.788 1000.91,-76.3957"/>
</g>
<!-- Node36 -->
<g id="node37" class="node"><title>Node36</title>
<polygon fill="white" stroke="#bfbfbf" points="1442.27,-0.5 1442.27,-19.5 1494.27,-19.5 1494.27,-0.5 1442.27,-0.5"/>
<text text-anchor="middle" x="1468.27" y="-7.5" font-family="Helvetica,sans-Serif" font-size="10.00">cstddef</text>
</g>
<!-- Node35&#45;&gt;Node36 -->
<g id="edge51" class="edge"><title>Node35&#45;&gt;Node36</title>
<path fill="none" stroke="midnightblue" d="M1414.55,-56.324C1424.11,-48.2631 1438.55,-36.0765 1450.05,-26.3695"/>
<polygon fill="midnightblue" stroke="midnightblue" points="1452.41,-28.9577 1457.8,-19.8339 1447.9,-23.6076 1452.41,-28.9577"/>
</g>
<!-- Node37 -->
<g id="node38" class="node"><title>Node37</title>
<polygon fill="white" stroke="#bfbfbf" points="1382.77,-0.5 1382.77,-19.5 1423.77,-19.5 1423.77,-0.5 1382.77,-0.5"/>
<text text-anchor="middle" x="1403.27" y="-7.5" font-family="Helvetica,sans-Serif" font-size="10.00">tuple</text>
</g>
<!-- Node35&#45;&gt;Node37 -->
<g id="edge52" class="edge"><title>Node35&#45;&gt;Node37</title>
<path fill="none" stroke="midnightblue" d="M1404.1,-56.083C1403.97,-49.0059 1403.78,-38.8611 1403.62,-29.9865"/>
<polygon fill="midnightblue" stroke="midnightblue" points="1407.12,-29.6845 1403.43,-19.7511 1400.12,-29.8142 1407.12,-29.6845"/>
</g>
<!-- Node41&#45;&gt;Node24 -->
<g id="edge63" class="edge"><title>Node41&#45;&gt;Node24</title>
<path fill="none" stroke="midnightblue" d="M1223.34,-280.177C1230.04,-271.436 1240,-257.446 1246.27,-244 1253.25,-229.015 1258.3,-210.879 1261.43,-197.576"/>
<polygon fill="midnightblue" stroke="midnightblue" points="1264.87,-198.233 1263.6,-187.713 1258.03,-196.724 1264.87,-198.233"/>
</g>
<!-- Node41&#45;&gt;Node42 -->
<g id="edge64" class="edge"><title>Node41&#45;&gt;Node42</title>
<path fill="none" stroke="midnightblue" d="M1216.27,-280.083C1216.27,-273.006 1216.27,-262.861 1216.27,-253.986"/>
<polygon fill="midnightblue" stroke="midnightblue" points="1219.77,-253.751 1216.27,-243.751 1212.77,-253.751 1219.77,-253.751"/>
</g>
</g>
</svg>
