<?xml version="1.0" encoding="UTF-8" standalone="no"?>
<!DOCTYPE svg PUBLIC "-//W3C//DTD SVG 1.1//EN"
 "http://www.w3.org/Graphics/SVG/1.1/DTD/svg11.dtd">
<!-- Generated by graphviz version 2.38.0 (20140413.2041)
 -->
<!-- Title: src/mc/pluto/utils/PlutoTID.cc Pages: 1 -->
<svg width="1739pt" height="263pt"
 viewBox="0.00 0.00 1739.03 263.00" xmlns="http://www.w3.org/2000/svg" xmlns:xlink="http://www.w3.org/1999/xlink">
<g id="graph0" class="graph" transform="scale(1 1) rotate(0) translate(4 259)">
<title>src/mc/pluto/utils/PlutoTID.cc</title>
<polygon fill="white" stroke="none" points="-4,4 -4,-259 1735.03,-259 1735.03,4 -4,4"/>
<!-- Node0 -->
<g id="node1" class="node"><title>Node0</title>
<polygon fill="#bfbfbf" stroke="black" points="1204.53,-224.5 1204.53,-254.5 1302.53,-254.5 1302.53,-224.5 1204.53,-224.5"/>
<text text-anchor="start" x="1212.53" y="-242.5" font-family="Helvetica,sans-Serif" font-size="10.00">src/mc/pluto/utils</text>
<text text-anchor="middle" x="1253.53" y="-231.5" font-family="Helvetica,sans-Serif" font-size="10.00">/PlutoTID.cc</text>
</g>
<!-- Node1 -->
<g id="node2" class="node"><title>Node1</title>
<g id="a_node2"><a xlink:href="_pluto_t_i_d_8h.html" target="_top" xlink:title="PlutoTID.h">
<polygon fill="white" stroke="black" points="177.032,-168.5 177.032,-187.5 242.032,-187.5 242.032,-168.5 177.032,-168.5"/>
<text text-anchor="middle" x="209.532" y="-175.5" font-family="Helvetica,sans-Serif" font-size="10.00">PlutoTID.h</text>
</a>
</g>
</g>
<!-- Node0&#45;&gt;Node1 -->
<g id="edge1" class="edge"><title>Node0&#45;&gt;Node1</title>
<path fill="none" stroke="midnightblue" d="M1204.23,-235.69C1026.45,-225.558 420.037,-190.997 252.64,-181.457"/>
<polygon fill="midnightblue" stroke="midnightblue" points="252.441,-177.94 242.258,-180.865 252.043,-184.929 252.441,-177.94"/>
</g>
<!-- Node3 -->
<g id="node4" class="node"><title>Node3</title>
<g id="a_node4"><a xlink:href="_wrap_t_file_8h.html" target="_top" xlink:title="base/WrapTFile.h">
<polygon fill="white" stroke="black" points="480.032,-168.5 480.032,-187.5 575.032,-187.5 575.032,-168.5 480.032,-168.5"/>
<text text-anchor="middle" x="527.532" y="-175.5" font-family="Helvetica,sans-Serif" font-size="10.00">base/WrapTFile.h</text>
</a>
</g>
</g>
<!-- Node0&#45;&gt;Node3 -->
<g id="edge3" class="edge"><title>Node0&#45;&gt;Node3</title>
<path fill="none" stroke="midnightblue" d="M1204.49,-234.48C1074.9,-223.86 723.856,-195.09 585.094,-183.718"/>
<polygon fill="midnightblue" stroke="midnightblue" points="585.335,-180.226 575.082,-182.897 584.763,-187.202 585.335,-180.226"/>
</g>
<!-- Node23 -->
<g id="node24" class="node"><title>Node23</title>
<g id="a_node24"><a xlink:href="_logger_8h.html" target="_top" xlink:title="base/Logger.h">
<polygon fill="white" stroke="black" points="1037.53,-168.5 1037.53,-187.5 1121.53,-187.5 1121.53,-168.5 1037.53,-168.5"/>
<text text-anchor="middle" x="1079.53" y="-175.5" font-family="Helvetica,sans-Serif" font-size="10.00">base/Logger.h</text>
</a>
</g>
</g>
<!-- Node0&#45;&gt;Node23 -->
<g id="edge28" class="edge"><title>Node0&#45;&gt;Node23</title>
<path fill="none" stroke="midnightblue" d="M1212.3,-224.399C1182.36,-214.163 1142.32,-200.47 1114.06,-190.808"/>
<polygon fill="midnightblue" stroke="midnightblue" points="1115.19,-187.495 1104.6,-187.571 1112.93,-194.118 1115.19,-187.495"/>
</g>
<!-- Node25 -->
<g id="node26" class="node"><title>Node25</title>
<g id="a_node26"><a xlink:href="_t_i_d_8h.html" target="_top" xlink:title="tree/TID.h">
<polygon fill="white" stroke="black" points="1222.03,-168.5 1222.03,-187.5 1285.03,-187.5 1285.03,-168.5 1222.03,-168.5"/>
<text text-anchor="middle" x="1253.53" y="-175.5" font-family="Helvetica,sans-Serif" font-size="10.00">tree/TID.h</text>
</a>
</g>
</g>
<!-- Node0&#45;&gt;Node25 -->
<g id="edge30" class="edge"><title>Node0&#45;&gt;Node25</title>
<path fill="none" stroke="midnightblue" d="M1253.53,-224.399C1253.53,-216.466 1253.53,-206.458 1253.53,-197.858"/>
<polygon fill="midnightblue" stroke="midnightblue" points="1257.03,-197.658 1253.53,-187.658 1250.03,-197.658 1257.03,-197.658"/>
</g>
<!-- Node29 -->
<g id="node30" class="node"><title>Node29</title>
<polygon fill="white" stroke="#bfbfbf" points="1347.53,-56.5 1347.53,-75.5 1391.53,-75.5 1391.53,-56.5 1347.53,-56.5"/>
<text text-anchor="middle" x="1369.53" y="-63.5" font-family="Helvetica,sans-Serif" font-size="10.00">ctime</text>
</g>
<!-- Node0&#45;&gt;Node29 -->
<g id="edge45" class="edge"><title>Node0&#45;&gt;Node29</title>
<path fill="none" stroke="midnightblue" d="M1302.7,-236.304C1369.07,-230.381 1485.16,-208.922 1538.53,-132 1573.03,-82.2777 1460.07,-70.58 1401.92,-67.8361"/>
<polygon fill="midnightblue" stroke="midnightblue" points="1401.88,-64.3317 1391.75,-67.4208 1401.6,-71.3259 1401.88,-64.3317"/>
</g>
<!-- Node33 -->
<g id="node34" class="node"><title>Node33</title>
<polygon fill="white" stroke="#bfbfbf" points="1585.53,-168.5 1585.53,-187.5 1635.53,-187.5 1635.53,-168.5 1585.53,-168.5"/>
<text text-anchor="middle" x="1610.53" y="-175.5" font-family="Helvetica,sans-Serif" font-size="10.00">TTree.h</text>
</g>
<!-- Node0&#45;&gt;Node33 -->
<g id="edge43" class="edge"><title>Node0&#45;&gt;Node33</title>
<path fill="none" stroke="midnightblue" d="M1302.75,-231.764C1365.4,-222.942 1476.88,-206.414 1571.53,-188 1572.8,-187.754 1574.09,-187.496 1575.39,-187.229"/>
<polygon fill="midnightblue" stroke="midnightblue" points="1576.37,-190.596 1585.41,-185.067 1574.9,-183.754 1576.37,-190.596"/>
</g>
<!-- Node34 -->
<g id="node35" class="node"><title>Node34</title>
<polygon fill="white" stroke="#bfbfbf" points="1654.03,-168.5 1654.03,-187.5 1731.03,-187.5 1731.03,-168.5 1654.03,-168.5"/>
<text text-anchor="middle" x="1692.53" y="-175.5" font-family="Helvetica,sans-Serif" font-size="10.00">TRandom2.h</text>
</g>
<!-- Node0&#45;&gt;Node34 -->
<g id="edge44" class="edge"><title>Node0&#45;&gt;Node34</title>
<path fill="none" stroke="midnightblue" d="M1302.73,-233.056C1375.09,-224.848 1514.68,-208.255 1643.73,-188.046"/>
<polygon fill="midnightblue" stroke="midnightblue" points="1644.46,-191.474 1653.79,-186.459 1643.37,-184.56 1644.46,-191.474"/>
</g>
<!-- Node2 -->
<g id="node3" class="node"><title>Node2</title>
<polygon fill="white" stroke="#bfbfbf" points="4.53219,-0.5 4.53219,-19.5 48.5322,-19.5 48.5322,-0.5 4.53219,-0.5"/>
<text text-anchor="middle" x="26.5322" y="-7.5" font-family="Helvetica,sans-Serif" font-size="10.00">string</text>
</g>
<!-- Node1&#45;&gt;Node2 -->
<g id="edge2" class="edge"><title>Node1&#45;&gt;Node2</title>
<path fill="none" stroke="midnightblue" d="M176.736,-174.352C126.127,-169.509 32.7083,-157.305 12.5322,-132 -11.1055,-102.354 5.23488,-54.8807 17.1488,-29.0941"/>
<polygon fill="midnightblue" stroke="midnightblue" points="20.4574,-30.2951 21.705,-19.774 14.1687,-27.2208 20.4574,-30.2951"/>
</g>
<!-- Node3&#45;&gt;Node2 -->
<g id="edge23" class="edge"><title>Node3&#45;&gt;Node2</title>
<path fill="none" stroke="midnightblue" d="M480.012,-177.169C379.565,-176.737 149.491,-171.341 83.5322,-132 47.0737,-110.254 33.6186,-57.8618 28.9051,-29.6822"/>
<polygon fill="midnightblue" stroke="midnightblue" points="32.334,-28.942 27.4174,-19.557 25.4084,-29.9596 32.334,-28.942"/>
</g>
<!-- Node4 -->
<g id="node5" class="node"><title>Node4</title>
<g id="a_node5"><a xlink:href="string_8h.html" target="_top" xlink:title="base/std_ext/string.h">
<polygon fill="white" stroke="black" points="666.032,-56.5 666.032,-75.5 783.032,-75.5 783.032,-56.5 666.032,-56.5"/>
<text text-anchor="middle" x="724.532" y="-63.5" font-family="Helvetica,sans-Serif" font-size="10.00">base/std_ext/string.h</text>
</a>
</g>
</g>
<!-- Node3&#45;&gt;Node4 -->
<g id="edge4" class="edge"><title>Node3&#45;&gt;Node4</title>
<path fill="none" stroke="midnightblue" d="M575.271,-175.113C638.625,-171.492 745.323,-161.126 769.532,-132 783.179,-115.582 763.629,-95.1183 746.185,-81.5866"/>
<polygon fill="midnightblue" stroke="midnightblue" points="748.08,-78.6364 737.945,-75.5487 743.942,-84.2827 748.08,-78.6364"/>
</g>
<!-- Node8 -->
<g id="node9" class="node"><title>Node8</title>
<g id="a_node9"><a xlink:href="misc_8h.html" target="_top" xlink:title="base/std_ext/misc.h">
<polygon fill="white" stroke="black" points="108.032,-112.5 108.032,-131.5 221.032,-131.5 221.032,-112.5 108.032,-112.5"/>
<text text-anchor="middle" x="164.532" y="-119.5" font-family="Helvetica,sans-Serif" font-size="10.00">base/std_ext/misc.h</text>
</a>
</g>
</g>
<!-- Node3&#45;&gt;Node8 -->
<g id="edge9" class="edge"><title>Node3&#45;&gt;Node8</title>
<path fill="none" stroke="midnightblue" d="M479.703,-169.885C416.122,-160.427 303.432,-143.663 231.441,-132.953"/>
<polygon fill="midnightblue" stroke="midnightblue" points="231.531,-129.428 221.125,-131.419 230.501,-136.352 231.531,-129.428"/>
</g>
<!-- Node9 -->
<g id="node10" class="node"><title>Node9</title>
<polygon fill="white" stroke="#bfbfbf" points="55.0322,-56.5 55.0322,-75.5 118.032,-75.5 118.032,-56.5 55.0322,-56.5"/>
<text text-anchor="middle" x="86.5322" y="-63.5" font-family="Helvetica,sans-Serif" font-size="10.00">functional</text>
</g>
<!-- Node3&#45;&gt;Node9 -->
<g id="edge27" class="edge"><title>Node3&#45;&gt;Node9</title>
<path fill="none" stroke="midnightblue" d="M479.671,-175.166C373.633,-170.654 126.091,-157.487 98.5322,-132 86.0452,-120.451 83.995,-100.486 84.4821,-85.7223"/>
<polygon fill="midnightblue" stroke="midnightblue" points="87.9783,-85.9003 85.2183,-75.6713 80.997,-85.3889 87.9783,-85.9003"/>
</g>
<!-- Node13 -->
<g id="node14" class="node"><title>Node13</title>
<polygon fill="white" stroke="#bfbfbf" points="314.032,-56.5 314.032,-75.5 371.032,-75.5 371.032,-56.5 314.032,-56.5"/>
<text text-anchor="middle" x="342.532" y="-63.5" font-family="Helvetica,sans-Serif" font-size="10.00">memory</text>
</g>
<!-- Node3&#45;&gt;Node13 -->
<g id="edge22" class="edge"><title>Node3&#45;&gt;Node13</title>
<path fill="none" stroke="midnightblue" d="M479.877,-175.779C412.604,-172.936 295.011,-163.476 268.532,-132 251.3,-111.516 282.813,-91.7784 309.9,-79.534"/>
<polygon fill="midnightblue" stroke="midnightblue" points="311.408,-82.6954 319.21,-75.5266 308.641,-76.2659 311.408,-82.6954"/>
</g>
<!-- Node14 -->
<g id="node15" class="node"><title>Node14</title>
<polygon fill="white" stroke="#bfbfbf" points="277.532,-112.5 277.532,-131.5 323.532,-131.5 323.532,-112.5 277.532,-112.5"/>
<text text-anchor="middle" x="300.532" y="-119.5" font-family="Helvetica,sans-Serif" font-size="10.00">TFile.h</text>
</g>
<!-- Node3&#45;&gt;Node14 -->
<g id="edge16" class="edge"><title>Node3&#45;&gt;Node14</title>
<path fill="none" stroke="midnightblue" d="M488.183,-168.493C450.786,-160.281 392.746,-147.207 333.476,-132.152"/>
<polygon fill="midnightblue" stroke="midnightblue" points="334.124,-128.705 323.569,-129.62 332.391,-135.487 334.124,-128.705"/>
</g>
<!-- Node15 -->
<g id="node16" class="node"><title>Node15</title>
<polygon fill="white" stroke="#bfbfbf" points="342.032,-112.5 342.032,-131.5 415.032,-131.5 415.032,-112.5 342.032,-112.5"/>
<text text-anchor="middle" x="378.532" y="-119.5" font-family="Helvetica,sans-Serif" font-size="10.00">TDirectory.h</text>
</g>
<!-- Node3&#45;&gt;Node15 -->
<g id="edge17" class="edge"><title>Node3&#45;&gt;Node15</title>
<path fill="none" stroke="midnightblue" d="M503.923,-168.444C479.074,-159.438 439.758,-145.189 411.779,-135.049"/>
<polygon fill="midnightblue" stroke="midnightblue" points="412.625,-131.633 402.031,-131.516 410.24,-138.214 412.625,-131.633"/>
</g>
<!-- Node16 -->
<g id="node17" class="node"><title>Node16</title>
<polygon fill="white" stroke="#bfbfbf" points="433.032,-112.5 433.032,-131.5 486.032,-131.5 486.032,-112.5 433.032,-112.5"/>
<text text-anchor="middle" x="459.532" y="-119.5" font-family="Helvetica,sans-Serif" font-size="10.00">TError.h</text>
</g>
<!-- Node3&#45;&gt;Node16 -->
<g id="edge18" class="edge"><title>Node3&#45;&gt;Node16</title>
<path fill="none" stroke="midnightblue" d="M516.607,-168.324C506.358,-160.185 490.812,-147.839 478.531,-138.087"/>
<polygon fill="midnightblue" stroke="midnightblue" points="480.664,-135.312 470.656,-131.834 476.311,-140.794 480.664,-135.312"/>
</g>
<!-- Node17 -->
<g id="node18" class="node"><title>Node17</title>
<polygon fill="white" stroke="#bfbfbf" points="504.032,-112.5 504.032,-131.5 551.032,-131.5 551.032,-112.5 504.032,-112.5"/>
<text text-anchor="middle" x="527.532" y="-119.5" font-family="Helvetica,sans-Serif" font-size="10.00">TList.h</text>
</g>
<!-- Node3&#45;&gt;Node17 -->
<g id="edge19" class="edge"><title>Node3&#45;&gt;Node17</title>
<path fill="none" stroke="midnightblue" d="M527.532,-168.083C527.532,-161.006 527.532,-150.861 527.532,-141.986"/>
<polygon fill="midnightblue" stroke="midnightblue" points="531.032,-141.751 527.532,-131.751 524.032,-141.751 531.032,-141.751"/>
</g>
<!-- Node18 -->
<g id="node19" class="node"><title>Node18</title>
<polygon fill="white" stroke="#bfbfbf" points="569.032,-112.5 569.032,-131.5 646.032,-131.5 646.032,-112.5 569.032,-112.5"/>
<text text-anchor="middle" x="607.532" y="-119.5" font-family="Helvetica,sans-Serif" font-size="10.00">TCollection.h</text>
</g>
<!-- Node3&#45;&gt;Node18 -->
<g id="edge20" class="edge"><title>Node3&#45;&gt;Node18</title>
<path fill="none" stroke="midnightblue" d="M540.386,-168.324C552.749,-159.979 571.662,-147.212 586.269,-137.352"/>
<polygon fill="midnightblue" stroke="midnightblue" points="588.38,-140.15 594.711,-131.655 584.464,-134.348 588.38,-140.15"/>
</g>
<!-- Node19 -->
<g id="node20" class="node"><title>Node19</title>
<polygon fill="white" stroke="#bfbfbf" points="664.532,-112.5 664.532,-131.5 710.532,-131.5 710.532,-112.5 664.532,-112.5"/>
<text text-anchor="middle" x="687.532" y="-119.5" font-family="Helvetica,sans-Serif" font-size="10.00">TKey.h</text>
</g>
<!-- Node3&#45;&gt;Node19 -->
<g id="edge21" class="edge"><title>Node3&#45;&gt;Node19</title>
<path fill="none" stroke="midnightblue" d="M552.885,-168.444C580.435,-159.145 624.548,-144.257 654.722,-134.073"/>
<polygon fill="midnightblue" stroke="midnightblue" points="656.021,-137.329 664.376,-130.815 653.782,-130.697 656.021,-137.329"/>
</g>
<!-- Node20 -->
<g id="node21" class="node"><title>Node20</title>
<polygon fill="white" stroke="#bfbfbf" points="816.532,-112.5 816.532,-131.5 846.532,-131.5 846.532,-112.5 816.532,-112.5"/>
<text text-anchor="middle" x="831.532" y="-119.5" font-family="Helvetica,sans-Serif" font-size="10.00">list</text>
</g>
<!-- Node3&#45;&gt;Node20 -->
<g id="edge24" class="edge"><title>Node3&#45;&gt;Node20</title>
<path fill="none" stroke="midnightblue" d="M575.128,-171.252C630.272,-164.123 723.662,-150.597 802.532,-132 803.802,-131.701 805.098,-131.375 806.402,-131.031"/>
<polygon fill="midnightblue" stroke="midnightblue" points="807.66,-134.31 816.29,-128.165 805.711,-127.587 807.66,-134.31"/>
</g>
<!-- Node21 -->
<g id="node22" class="node"><title>Node21</title>
<polygon fill="white" stroke="#bfbfbf" points="728.532,-112.5 728.532,-131.5 760.532,-131.5 760.532,-112.5 728.532,-112.5"/>
<text text-anchor="middle" x="744.532" y="-119.5" font-family="Helvetica,sans-Serif" font-size="10.00">set</text>
</g>
<!-- Node3&#45;&gt;Node21 -->
<g id="edge25" class="edge"><title>Node3&#45;&gt;Node21</title>
<path fill="none" stroke="midnightblue" d="M570.227,-168.47C607.24,-160.746 662.374,-148.456 718.7,-131.986"/>
<polygon fill="midnightblue" stroke="midnightblue" points="719.892,-135.283 728.485,-129.085 717.902,-128.572 719.892,-135.283"/>
</g>
<!-- Node22 -->
<g id="node23" class="node"><title>Node22</title>
<polygon fill="white" stroke="#bfbfbf" points="864.532,-112.5 864.532,-131.5 928.532,-131.5 928.532,-112.5 864.532,-112.5"/>
<text text-anchor="middle" x="896.532" y="-119.5" font-family="Helvetica,sans-Serif" font-size="10.00">stdexcept</text>
</g>
<!-- Node3&#45;&gt;Node22 -->
<g id="edge26" class="edge"><title>Node3&#45;&gt;Node22</title>
<path fill="none" stroke="midnightblue" d="M575.247,-171.663C637.257,-164.461 749.095,-150.562 854.203,-132.117"/>
<polygon fill="midnightblue" stroke="midnightblue" points="855.116,-135.51 864.352,-130.318 853.894,-128.617 855.116,-135.51"/>
</g>
<!-- Node4&#45;&gt;Node2 -->
<g id="edge5" class="edge"><title>Node4&#45;&gt;Node2</title>
<path fill="none" stroke="midnightblue" d="M665.922,-60.4657C524.438,-49.52 167.848,-21.9328 58.7488,-13.4924"/>
<polygon fill="midnightblue" stroke="midnightblue" points="58.9304,-9.99608 48.6902,-12.7142 58.3904,-16.9752 58.9304,-9.99608"/>
</g>
<!-- Node5 -->
<g id="node6" class="node"><title>Node5</title>
<polygon fill="white" stroke="#bfbfbf" points="661.532,-0.5 661.532,-19.5 717.532,-19.5 717.532,-0.5 661.532,-0.5"/>
<text text-anchor="middle" x="689.532" y="-7.5" font-family="Helvetica,sans-Serif" font-size="10.00">sstream</text>
</g>
<!-- Node4&#45;&gt;Node5 -->
<g id="edge6" class="edge"><title>Node4&#45;&gt;Node5</title>
<path fill="none" stroke="midnightblue" d="M718.753,-56.083C713.86,-48.5341 706.705,-37.4948 700.7,-28.2298"/>
<polygon fill="midnightblue" stroke="midnightblue" points="703.58,-26.239 695.204,-19.7511 697.706,-30.0463 703.58,-26.239"/>
</g>
<!-- Node6 -->
<g id="node7" class="node"><title>Node6</title>
<polygon fill="white" stroke="#bfbfbf" points="385.532,-0.5 385.532,-19.5 447.532,-19.5 447.532,-0.5 385.532,-0.5"/>
<text text-anchor="middle" x="416.532" y="-7.5" font-family="Helvetica,sans-Serif" font-size="10.00">algorithm</text>
</g>
<!-- Node4&#45;&gt;Node6 -->
<g id="edge7" class="edge"><title>Node4&#45;&gt;Node6</title>
<path fill="none" stroke="midnightblue" d="M675.729,-56.4435C615.527,-45.8887 514.242,-28.131 457.758,-18.2278"/>
<polygon fill="midnightblue" stroke="midnightblue" points="458.206,-14.7532 447.752,-16.4736 456.997,-21.648 458.206,-14.7532"/>
</g>
<!-- Node7 -->
<g id="node8" class="node"><title>Node7</title>
<polygon fill="white" stroke="#bfbfbf" points="736.032,-0.5 736.032,-19.5 783.032,-19.5 783.032,-0.5 736.032,-0.5"/>
<text text-anchor="middle" x="759.532" y="-7.5" font-family="Helvetica,sans-Serif" font-size="10.00">vector</text>
</g>
<!-- Node4&#45;&gt;Node7 -->
<g id="edge8" class="edge"><title>Node4&#45;&gt;Node7</title>
<path fill="none" stroke="midnightblue" d="M730.312,-56.083C735.205,-48.5341 742.36,-37.4948 748.365,-28.2298"/>
<polygon fill="midnightblue" stroke="midnightblue" points="751.358,-30.0463 753.86,-19.7511 745.484,-26.239 751.358,-30.0463"/>
</g>
<!-- Node8&#45;&gt;Node6 -->
<g id="edge10" class="edge"><title>Node8&#45;&gt;Node6</title>
<path fill="none" stroke="midnightblue" d="M171.917,-112.407C184.407,-98.4302 211.128,-70.8427 239.532,-56 282.814,-33.3831 338.084,-21.692 375.251,-15.9665"/>
<polygon fill="midnightblue" stroke="midnightblue" points="375.841,-19.4175 385.229,-14.5057 374.827,-12.4913 375.841,-19.4175"/>
</g>
<!-- Node8&#45;&gt;Node9 -->
<g id="edge11" class="edge"><title>Node8&#45;&gt;Node9</title>
<path fill="none" stroke="midnightblue" d="M152,-112.324C139.946,-103.979 121.505,-91.2122 107.263,-81.3524"/>
<polygon fill="midnightblue" stroke="midnightblue" points="109.247,-78.469 99.0331,-75.6545 105.263,-84.2243 109.247,-78.469"/>
</g>
<!-- Node10 -->
<g id="node11" class="node"><title>Node10</title>
<polygon fill="white" stroke="#bfbfbf" points="249.032,-56.5 249.032,-75.5 296.032,-75.5 296.032,-56.5 249.032,-56.5"/>
<text text-anchor="middle" x="272.532" y="-63.5" font-family="Helvetica,sans-Serif" font-size="10.00">cmath</text>
</g>
<!-- Node8&#45;&gt;Node10 -->
<g id="edge12" class="edge"><title>Node8&#45;&gt;Node10</title>
<path fill="none" stroke="midnightblue" d="M181.884,-112.324C199.204,-103.664 226.047,-90.2424 246.034,-80.249"/>
<polygon fill="midnightblue" stroke="midnightblue" points="247.844,-83.2572 255.223,-75.6545 244.714,-76.9962 247.844,-83.2572"/>
</g>
<!-- Node11 -->
<g id="node12" class="node"><title>Node11</title>
<polygon fill="white" stroke="#bfbfbf" points="136.532,-56.5 136.532,-75.5 192.532,-75.5 192.532,-56.5 136.532,-56.5"/>
<text text-anchor="middle" x="164.532" y="-63.5" font-family="Helvetica,sans-Serif" font-size="10.00">cxxabi.h</text>
</g>
<!-- Node8&#45;&gt;Node11 -->
<g id="edge13" class="edge"><title>Node8&#45;&gt;Node11</title>
<path fill="none" stroke="midnightblue" d="M164.532,-112.083C164.532,-105.006 164.532,-94.8611 164.532,-85.9865"/>
<polygon fill="midnightblue" stroke="midnightblue" points="168.032,-85.751 164.532,-75.7511 161.032,-85.7511 168.032,-85.751"/>
</g>
<!-- Node12 -->
<g id="node13" class="node"><title>Node12</title>
<polygon fill="white" stroke="#bfbfbf" points="516.532,-56.5 516.532,-75.5 584.532,-75.5 584.532,-56.5 516.532,-56.5"/>
<text text-anchor="middle" x="550.532" y="-63.5" font-family="Helvetica,sans-Serif" font-size="10.00">type_traits</text>
</g>
<!-- Node8&#45;&gt;Node12 -->
<g id="edge14" class="edge"><title>Node8&#45;&gt;Node12</title>
<path fill="none" stroke="midnightblue" d="M221.073,-113.09C298.455,-102.265 435.755,-83.0569 506.174,-73.2055"/>
<polygon fill="midnightblue" stroke="midnightblue" points="507.055,-76.6165 516.473,-71.7647 506.085,-69.684 507.055,-76.6165"/>
</g>
<!-- Node8&#45;&gt;Node13 -->
<g id="edge15" class="edge"><title>Node8&#45;&gt;Node13</title>
<path fill="none" stroke="midnightblue" d="M192.737,-112.444C222.942,-103.28 271.044,-88.6876 304.562,-78.5192"/>
<polygon fill="midnightblue" stroke="midnightblue" points="305.906,-81.7688 314.46,-75.5164 303.874,-75.0703 305.906,-81.7688"/>
</g>
<!-- Node24 -->
<g id="node25" class="node"><title>Node24</title>
<polygon fill="white" stroke="#bfbfbf" points="947.032,-112.5 947.032,-131.5 1046.03,-131.5 1046.03,-112.5 947.032,-112.5"/>
<text text-anchor="middle" x="996.532" y="-119.5" font-family="Helvetica,sans-Serif" font-size="10.00">easylogging++.h</text>
</g>
<!-- Node23&#45;&gt;Node24 -->
<g id="edge29" class="edge"><title>Node23&#45;&gt;Node24</title>
<path fill="none" stroke="midnightblue" d="M1066.2,-168.324C1053.37,-159.979 1033.75,-147.212 1018.59,-137.352"/>
<polygon fill="midnightblue" stroke="midnightblue" points="1020.13,-134.174 1009.83,-131.655 1016.31,-140.042 1020.13,-134.174"/>
</g>
<!-- Node25&#45;&gt;Node12 -->
<g id="edge36" class="edge"><title>Node25&#45;&gt;Node12</title>
<path fill="none" stroke="midnightblue" d="M1221.95,-170.091C1189.24,-162.479 1136.91,-149.026 1093.53,-132 1075.4,-124.883 1073.25,-117.41 1054.53,-112 1049.02,-110.407 716.865,-81.4461 594.857,-70.8458"/>
<polygon fill="midnightblue" stroke="midnightblue" points="595.003,-67.3454 584.738,-69.9669 594.397,-74.3192 595.003,-67.3454"/>
</g>
<!-- Node25&#45;&gt;Node20 -->
<g id="edge40" class="edge"><title>Node25&#45;&gt;Node20</title>
<path fill="none" stroke="midnightblue" d="M1221.89,-174.435C1143.63,-167.936 941.79,-150.186 856.41,-131.564"/>
<polygon fill="midnightblue" stroke="midnightblue" points="857.123,-128.136 846.591,-129.289 855.543,-134.956 857.123,-128.136"/>
</g>
<!-- Node25&#45;&gt;Node22 -->
<g id="edge39" class="edge"><title>Node25&#45;&gt;Node22</title>
<path fill="none" stroke="midnightblue" d="M1222.01,-173.302C1166.69,-166.643 1048.34,-151.636 938.624,-132.085"/>
<polygon fill="midnightblue" stroke="midnightblue" points="939.177,-128.628 928.716,-130.302 937.938,-135.518 939.177,-128.628"/>
</g>
<!-- Node26 -->
<g id="node27" class="node"><title>Node26</title>
<polygon fill="white" stroke="#bfbfbf" points="1471.53,-112.5 1471.53,-131.5 1529.53,-131.5 1529.53,-112.5 1471.53,-112.5"/>
<text text-anchor="middle" x="1500.53" y="-119.5" font-family="Helvetica,sans-Serif" font-size="10.00">Rtypes.h</text>
</g>
<!-- Node25&#45;&gt;Node26 -->
<g id="edge31" class="edge"><title>Node25&#45;&gt;Node26</title>
<path fill="none" stroke="midnightblue" d="M1285.28,-170.274C1324.18,-162 1392.38,-147.396 1461.03,-132.088"/>
<polygon fill="midnightblue" stroke="midnightblue" points="1462.16,-135.421 1471.15,-129.825 1460.63,-128.59 1462.16,-135.421"/>
</g>
<!-- Node27 -->
<g id="node28" class="node"><title>Node27</title>
<g id="a_node28"><a xlink:href="base_2std__ext_2_time_8h.html" target="_top" xlink:title="base/std_ext/time.h">
<polygon fill="white" stroke="black" points="1102.53,-112.5 1102.53,-131.5 1214.53,-131.5 1214.53,-112.5 1102.53,-112.5"/>
<text text-anchor="middle" x="1158.53" y="-119.5" font-family="Helvetica,sans-Serif" font-size="10.00">base/std_ext/time.h</text>
</a>
</g>
</g>
<!-- Node25&#45;&gt;Node27 -->
<g id="edge32" class="edge"><title>Node25&#45;&gt;Node27</title>
<path fill="none" stroke="midnightblue" d="M1238.27,-168.324C1223.31,-159.822 1200.28,-146.729 1182.81,-136.797"/>
<polygon fill="midnightblue" stroke="midnightblue" points="1184.18,-133.553 1173.76,-131.655 1180.72,-139.639 1184.18,-133.553"/>
</g>
<!-- Node25&#45;&gt;Node29 -->
<g id="edge42" class="edge"><title>Node25&#45;&gt;Node29</title>
<path fill="none" stroke="midnightblue" d="M1285.3,-169.352C1306.27,-162.751 1332.87,-151.173 1349.53,-132 1360.78,-119.062 1365.7,-99.8919 1367.86,-85.7205"/>
<polygon fill="midnightblue" stroke="midnightblue" points="1371.35,-85.9858 1369.06,-75.6415 1364.4,-85.1563 1371.35,-85.9858"/>
</g>
<!-- Node30 -->
<g id="node31" class="node"><title>Node30</title>
<polygon fill="white" stroke="#bfbfbf" points="1233.03,-112.5 1233.03,-131.5 1274.03,-131.5 1274.03,-112.5 1233.03,-112.5"/>
<text text-anchor="middle" x="1253.53" y="-119.5" font-family="Helvetica,sans-Serif" font-size="10.00">tuple</text>
</g>
<!-- Node25&#45;&gt;Node30 -->
<g id="edge37" class="edge"><title>Node25&#45;&gt;Node30</title>
<path fill="none" stroke="midnightblue" d="M1253.53,-168.083C1253.53,-161.006 1253.53,-150.861 1253.53,-141.986"/>
<polygon fill="midnightblue" stroke="midnightblue" points="1257.03,-141.751 1253.53,-131.751 1250.03,-141.751 1257.03,-141.751"/>
</g>
<!-- Node31 -->
<g id="node32" class="node"><title>Node31</title>
<polygon fill="white" stroke="#bfbfbf" points="1292.03,-112.5 1292.03,-131.5 1341.03,-131.5 1341.03,-112.5 1292.03,-112.5"/>
<text text-anchor="middle" x="1316.53" y="-119.5" font-family="Helvetica,sans-Serif" font-size="10.00">cstdint</text>
</g>
<!-- Node25&#45;&gt;Node31 -->
<g id="edge38" class="edge"><title>Node25&#45;&gt;Node31</title>
<path fill="none" stroke="midnightblue" d="M1263.65,-168.324C1273.06,-160.263 1287.28,-148.077 1298.6,-138.369"/>
<polygon fill="midnightblue" stroke="midnightblue" points="1300.91,-140.999 1306.23,-131.834 1296.36,-135.684 1300.91,-140.999"/>
</g>
<!-- Node32 -->
<g id="node33" class="node"><title>Node32</title>
<polygon fill="white" stroke="#bfbfbf" points="1398.03,-112.5 1398.03,-131.5 1453.03,-131.5 1453.03,-112.5 1398.03,-112.5"/>
<text text-anchor="middle" x="1425.53" y="-119.5" font-family="Helvetica,sans-Serif" font-size="10.00">iomanip</text>
</g>
<!-- Node25&#45;&gt;Node32 -->
<g id="edge41" class="edge"><title>Node25&#45;&gt;Node32</title>
<path fill="none" stroke="midnightblue" d="M1280.79,-168.444C1309.97,-159.28 1356.45,-144.688 1388.84,-134.519"/>
<polygon fill="midnightblue" stroke="midnightblue" points="1389.91,-137.851 1398.41,-131.516 1387.82,-131.173 1389.91,-137.851"/>
</g>
<!-- Node27&#45;&gt;Node4 -->
<g id="edge33" class="edge"><title>Node27&#45;&gt;Node4</title>
<path fill="none" stroke="midnightblue" d="M1102.37,-113.755C1097.69,-113.158 1093.03,-112.567 1088.53,-112 985.657,-99.0276 866.378,-84.3508 793.189,-75.3867"/>
<polygon fill="midnightblue" stroke="midnightblue" points="793.525,-71.9019 783.174,-74.1605 792.674,-78.85 793.525,-71.9019"/>
</g>
<!-- Node28 -->
<g id="node29" class="node"><title>Node28</title>
<polygon fill="white" stroke="#bfbfbf" points="1134.03,-56.5 1134.03,-75.5 1183.03,-75.5 1183.03,-56.5 1134.03,-56.5"/>
<text text-anchor="middle" x="1158.53" y="-63.5" font-family="Helvetica,sans-Serif" font-size="10.00">cstring</text>
</g>
<!-- Node27&#45;&gt;Node28 -->
<g id="edge34" class="edge"><title>Node27&#45;&gt;Node28</title>
<path fill="none" stroke="midnightblue" d="M1158.53,-112.083C1158.53,-105.006 1158.53,-94.8611 1158.53,-85.9865"/>
<polygon fill="midnightblue" stroke="midnightblue" points="1162.03,-85.751 1158.53,-75.7511 1155.03,-85.7511 1162.03,-85.751"/>
</g>
<!-- Node27&#45;&gt;Node29 -->
<g id="edge35" class="edge"><title>Node27&#45;&gt;Node29</title>
<path fill="none" stroke="midnightblue" d="M1191.97,-112.444C1231.86,-102.233 1298.09,-85.2831 1337.4,-75.2226"/>
<polygon fill="midnightblue" stroke="midnightblue" points="1338.44,-78.5705 1347.26,-72.7003 1336.7,-71.789 1338.44,-78.5705"/>
</g>
</g>
</svg>
