<?xml version="1.0" encoding="UTF-8" standalone="no"?>
<!DOCTYPE svg PUBLIC "-//W3C//DTD SVG 1.1//EN"
 "http://www.w3.org/Graphics/SVG/1.1/DTD/svg11.dtd">
<!-- Generated by graphviz version 2.38.0 (20140413.2041)
 -->
<!-- Title: src/analysis/utils/ProtonPhotonCombs.h Pages: 1 -->
<svg width="2164pt" height="262pt"
 viewBox="0.00 0.00 2163.50 262.00" xmlns="http://www.w3.org/2000/svg" xmlns:xlink="http://www.w3.org/1999/xlink">
<g id="graph0" class="graph" transform="scale(1 1) rotate(0) translate(4 258)">
<title>src/analysis/utils/ProtonPhotonCombs.h</title>
<polygon fill="white" stroke="none" points="-4,4 -4,-258 2159.5,-258 2159.5,4 -4,4"/>
<!-- Node48 -->
<g id="node1" class="node"><title>Node48</title>
<polygon fill="#bfbfbf" stroke="black" points="1294.5,-223.5 1294.5,-253.5 1422.5,-253.5 1422.5,-223.5 1294.5,-223.5"/>
<text text-anchor="start" x="1302.5" y="-241.5" font-family="Helvetica,sans-Serif" font-size="10.00">src/analysis/utils</text>
<text text-anchor="middle" x="1358.5" y="-230.5" font-family="Helvetica,sans-Serif" font-size="10.00">/ProtonPhotonCombs.h</text>
</g>
<!-- Node49 -->
<g id="node2" class="node"><title>Node49</title>
<g id="a_node2"><a xlink:href="_kin_fit_i_m_check_8cc.html" target="_top" xlink:title="src/analysis/physics\l/check/KinFitIMCheck.cc">
<polygon fill="white" stroke="black" points="229.5,-151 229.5,-181 357.5,-181 357.5,-151 229.5,-151"/>
<text text-anchor="start" x="237.5" y="-169" font-family="Helvetica,sans-Serif" font-size="10.00">src/analysis/physics</text>
<text text-anchor="middle" x="293.5" y="-158" font-family="Helvetica,sans-Serif" font-size="10.00">/check/KinFitIMCheck.cc</text>
</a>
</g>
</g>
<!-- Node48&#45;&gt;Node49 -->
<g id="edge1" class="edge"><title>Node48&#45;&gt;Node49</title>
<path fill="none" stroke="midnightblue" d="M1284.25,-235.803C1085.25,-230.923 543.166,-215.354 366.5,-187 357.418,-185.542 347.844,-183.386 338.727,-181.023"/>
<polygon fill="midnightblue" stroke="midnightblue" points="1284.23,-239.304 1294.31,-236.048 1284.4,-232.306 1284.23,-239.304"/>
</g>
<!-- Node50 -->
<g id="node3" class="node"><title>Node50</title>
<g id="a_node3"><a xlink:href="etaprime__dalitz_8h.html" target="_top" xlink:title="src/analysis/physics\l/etaprime/etaprime_dalitz.h">
<polygon fill="white" stroke="black" points="376,-151 376,-181 525,-181 525,-151 376,-151"/>
<text text-anchor="start" x="384" y="-169" font-family="Helvetica,sans-Serif" font-size="10.00">src/analysis/physics</text>
<text text-anchor="middle" x="450.5" y="-158" font-family="Helvetica,sans-Serif" font-size="10.00">/etaprime/etaprime_dalitz.h</text>
</a>
</g>
</g>
<!-- Node48&#45;&gt;Node50 -->
<g id="edge2" class="edge"><title>Node48&#45;&gt;Node50</title>
<path fill="none" stroke="midnightblue" d="M1284.15,-231.727C1113.64,-218.488 695.979,-186.06 525.161,-172.797"/>
<polygon fill="midnightblue" stroke="midnightblue" points="1284.05,-235.23 1294.29,-232.514 1284.59,-228.251 1284.05,-235.23"/>
</g>
<!-- Node57 -->
<g id="node10" class="node"><title>Node57</title>
<g id="a_node10"><a xlink:href="_etap_omega_g_8h.html" target="_top" xlink:title="src/analysis/physics\l/etaprime/EtapOmegaG.h">
<polygon fill="white" stroke="black" points="889.5,-151 889.5,-181 1029.5,-181 1029.5,-151 889.5,-151"/>
<text text-anchor="start" x="897.5" y="-169" font-family="Helvetica,sans-Serif" font-size="10.00">src/analysis/physics</text>
<text text-anchor="middle" x="959.5" y="-158" font-family="Helvetica,sans-Serif" font-size="10.00">/etaprime/EtapOmegaG.h</text>
</a>
</g>
</g>
<!-- Node48&#45;&gt;Node57 -->
<g id="edge9" class="edge"><title>Node48&#45;&gt;Node57</title>
<path fill="none" stroke="midnightblue" d="M1284.46,-225.82C1223.45,-216.019 1134.73,-201.355 1057.5,-187 1047.51,-185.144 1036.97,-183.091 1026.65,-181.03"/>
<polygon fill="midnightblue" stroke="midnightblue" points="1283.95,-229.284 1294.38,-227.411 1285.06,-222.373 1283.95,-229.284"/>
</g>
<!-- Node60 -->
<g id="node13" class="node"><title>Node60</title>
<g id="a_node13"><a xlink:href="_etap_omega_g__simple_8cc.html" target="_top" xlink:title="src/analysis/physics\l/etaprime/EtapOmegaG\l_simple.cc">
<polygon fill="white" stroke="black" points="1067,-145.5 1067,-186.5 1198,-186.5 1198,-145.5 1067,-145.5"/>
<text text-anchor="start" x="1075" y="-174.5" font-family="Helvetica,sans-Serif" font-size="10.00">src/analysis/physics</text>
<text text-anchor="start" x="1075" y="-163.5" font-family="Helvetica,sans-Serif" font-size="10.00">/etaprime/EtapOmegaG</text>
<text text-anchor="middle" x="1132.5" y="-152.5" font-family="Helvetica,sans-Serif" font-size="10.00">_simple.cc</text>
</a>
</g>
</g>
<!-- Node48&#45;&gt;Node60 -->
<g id="edge12" class="edge"><title>Node48&#45;&gt;Node60</title>
<path fill="none" stroke="midnightblue" d="M1303.73,-220.416C1271.02,-210.211 1229.35,-197.212 1195.31,-186.592"/>
<polygon fill="midnightblue" stroke="midnightblue" points="1302.99,-223.85 1313.58,-223.487 1305.08,-217.168 1302.99,-223.85"/>
</g>
<!-- Node61 -->
<g id="node14" class="node"><title>Node61</title>
<g id="a_node14"><a xlink:href="sigma_plus_8h.html" target="_top" xlink:title="src/analysis/physics\l/production/sigmaPlus.h">
<polygon fill="white" stroke="black" points="1216,-151 1216,-181 1347,-181 1347,-151 1216,-151"/>
<text text-anchor="start" x="1224" y="-169" font-family="Helvetica,sans-Serif" font-size="10.00">src/analysis/physics</text>
<text text-anchor="middle" x="1281.5" y="-158" font-family="Helvetica,sans-Serif" font-size="10.00">/production/sigmaPlus.h</text>
</a>
</g>
</g>
<!-- Node48&#45;&gt;Node61 -->
<g id="edge13" class="edge"><title>Node48&#45;&gt;Node61</title>
<path fill="none" stroke="midnightblue" d="M1335.52,-216.464C1323.01,-205.004 1307.86,-191.137 1296.8,-181.005"/>
<polygon fill="midnightblue" stroke="midnightblue" points="1333.18,-219.062 1342.92,-223.233 1337.91,-213.899 1333.18,-219.062"/>
</g>
<!-- Node64 -->
<g id="node17" class="node"><title>Node64</title>
<g id="a_node17"><a xlink:href="single_pi0_8h.html" target="_top" xlink:title="src/analysis/physics\l/production/singlePi0.h">
<polygon fill="white" stroke="black" points="1373,-151 1373,-181 1498,-181 1498,-151 1373,-151"/>
<text text-anchor="start" x="1381" y="-169" font-family="Helvetica,sans-Serif" font-size="10.00">src/analysis/physics</text>
<text text-anchor="middle" x="1435.5" y="-158" font-family="Helvetica,sans-Serif" font-size="10.00">/production/singlePi0.h</text>
</a>
</g>
</g>
<!-- Node48&#45;&gt;Node64 -->
<g id="edge16" class="edge"><title>Node48&#45;&gt;Node64</title>
<path fill="none" stroke="midnightblue" d="M1381.48,-216.464C1393.99,-205.004 1409.14,-191.137 1420.2,-181.005"/>
<polygon fill="midnightblue" stroke="midnightblue" points="1379.09,-213.899 1374.08,-223.233 1383.82,-219.062 1379.09,-213.899"/>
</g>
<!-- Node67 -->
<g id="node20" class="node"><title>Node67</title>
<g id="a_node20"><a xlink:href="triple_pi0_8h.html" target="_top" xlink:title="src/analysis/physics\l/production/triplePi0.h">
<polygon fill="white" stroke="black" points="1516,-151 1516,-181 1637,-181 1637,-151 1516,-151"/>
<text text-anchor="start" x="1524" y="-169" font-family="Helvetica,sans-Serif" font-size="10.00">src/analysis/physics</text>
<text text-anchor="middle" x="1576.5" y="-158" font-family="Helvetica,sans-Serif" font-size="10.00">/production/triplePi0.h</text>
</a>
</g>
</g>
<!-- Node48&#45;&gt;Node67 -->
<g id="edge19" class="edge"><title>Node48&#45;&gt;Node67</title>
<path fill="none" stroke="midnightblue" d="M1411.51,-220.358C1448.73,-208.32 1497.92,-192.412 1532.88,-181.107"/>
<polygon fill="midnightblue" stroke="midnightblue" points="1410.27,-217.08 1401.83,-223.487 1412.42,-223.74 1410.27,-217.08"/>
</g>
<!-- Node71 -->
<g id="node24" class="node"><title>Node71</title>
<g id="a_node24"><a xlink:href="analysis_2physics_2tunings_2_interpolated_pulls_8cc.html" target="_top" xlink:title="src/analysis/physics\l/tunings/InterpolatedPulls.cc">
<polygon fill="white" stroke="black" points="1655,-151 1655,-181 1806,-181 1806,-151 1655,-151"/>
<text text-anchor="start" x="1663" y="-169" font-family="Helvetica,sans-Serif" font-size="10.00">src/analysis/physics</text>
<text text-anchor="middle" x="1730.5" y="-158" font-family="Helvetica,sans-Serif" font-size="10.00">/tunings/InterpolatedPulls.cc</text>
</a>
</g>
</g>
<!-- Node48&#45;&gt;Node71 -->
<g id="edge23" class="edge"><title>Node48&#45;&gt;Node71</title>
<path fill="none" stroke="midnightblue" d="M1432.99,-225.702C1491.28,-216.166 1574.28,-201.916 1646.5,-187 1655.31,-185.181 1664.6,-183.116 1673.67,-181.02"/>
<polygon fill="midnightblue" stroke="midnightblue" points="1432.07,-222.305 1422.77,-227.368 1433.2,-229.214 1432.07,-222.305"/>
</g>
<!-- Node72 -->
<g id="node25" class="node"><title>Node72</title>
<g id="a_node25"><a xlink:href="physics_2tunings_2_trigger_simulation_8cc.html" target="_top" xlink:title="src/analysis/physics\l/tunings/TriggerSimulation.cc">
<polygon fill="white" stroke="black" points="1824.5,-151 1824.5,-181 1978.5,-181 1978.5,-151 1824.5,-151"/>
<text text-anchor="start" x="1832.5" y="-169" font-family="Helvetica,sans-Serif" font-size="10.00">src/analysis/physics</text>
<text text-anchor="middle" x="1901.5" y="-158" font-family="Helvetica,sans-Serif" font-size="10.00">/tunings/TriggerSimulation.cc</text>
</a>
</g>
</g>
<!-- Node48&#45;&gt;Node72 -->
<g id="edge24" class="edge"><title>Node48&#45;&gt;Node72</title>
<path fill="none" stroke="midnightblue" d="M1432.98,-231.996C1523.75,-224.662 1681.59,-209.887 1815.5,-187 1825.17,-185.347 1835.38,-183.271 1845.26,-181.086"/>
<polygon fill="midnightblue" stroke="midnightblue" points="1432.48,-228.525 1422.79,-232.811 1433.04,-235.503 1432.48,-228.525"/>
</g>
<!-- Node73 -->
<g id="node26" class="node"><title>Node73</title>
<g id="a_node26"><a xlink:href="_proton_photon_combs_8cc.html" target="_top" xlink:title="src/analysis/utils\l/ProtonPhotonCombs.cc">
<polygon fill="white" stroke="black" points="1996.5,-151 1996.5,-181 2128.5,-181 2128.5,-151 1996.5,-151"/>
<text text-anchor="start" x="2004.5" y="-169" font-family="Helvetica,sans-Serif" font-size="10.00">src/analysis/utils</text>
<text text-anchor="middle" x="2062.5" y="-158" font-family="Helvetica,sans-Serif" font-size="10.00">/ProtonPhotonCombs.cc</text>
</a>
</g>
</g>
<!-- Node48&#45;&gt;Node73 -->
<g id="edge25" class="edge"><title>Node48&#45;&gt;Node73</title>
<path fill="none" stroke="midnightblue" d="M1432.85,-235.866C1551.1,-232.298 1788.96,-221.154 1987.5,-187 1996.53,-185.446 2006.06,-183.307 2015.18,-181.003"/>
<polygon fill="midnightblue" stroke="midnightblue" points="1432.71,-232.369 1422.82,-236.16 1432.91,-239.366 1432.71,-232.369"/>
</g>
<!-- Node51 -->
<g id="node4" class="node"><title>Node51</title>
<g id="a_node4"><a xlink:href="_etap_dalitz__fit_8cc.html" target="_top" xlink:title="progs/EtapDalitz_fit.cc">
<polygon fill="white" stroke="black" points="0,-78.5 0,-97.5 123,-97.5 123,-78.5 0,-78.5"/>
<text text-anchor="middle" x="61.5" y="-85.5" font-family="Helvetica,sans-Serif" font-size="10.00">progs/EtapDalitz_fit.cc</text>
</a>
</g>
</g>
<!-- Node50&#45;&gt;Node51 -->
<g id="edge3" class="edge"><title>Node50&#45;&gt;Node51</title>
<path fill="none" stroke="midnightblue" d="M384.158,-148.679C378.201,-147.372 372.249,-146.125 366.5,-145 263.234,-124.797 235.332,-131.307 132.5,-109 117.983,-105.851 102.044,-101.449 88.9523,-97.5767"/>
<polygon fill="midnightblue" stroke="midnightblue" points="383.633,-152.148 394.156,-150.922 385.165,-145.317 383.633,-152.148"/>
</g>
<!-- Node52 -->
<g id="node5" class="node"><title>Node52</title>
<g id="a_node5"><a xlink:href="_p_c_a_8cc.html" target="_top" xlink:title="Tool to perform a Principal Component Analysis, based on ROOTs TPrincipal class, to create principal ...">
<polygon fill="white" stroke="black" points="141.5,-78.5 141.5,-97.5 221.5,-97.5 221.5,-78.5 141.5,-78.5"/>
<text text-anchor="middle" x="181.5" y="-85.5" font-family="Helvetica,sans-Serif" font-size="10.00">progs/PCA.cc</text>
</a>
</g>
</g>
<!-- Node50&#45;&gt;Node52 -->
<g id="edge4" class="edge"><title>Node50&#45;&gt;Node52</title>
<path fill="none" stroke="midnightblue" d="M381.664,-148.578C328.097,-135.594 258.338,-118.176 230.5,-109 220.552,-105.721 209.747,-101.396 200.821,-97.6075"/>
<polygon fill="midnightblue" stroke="midnightblue" points="380.922,-152 391.464,-150.948 382.567,-145.196 380.922,-152"/>
</g>
<!-- Node53 -->
<g id="node6" class="node"><title>Node53</title>
<g id="a_node6"><a xlink:href="_etap_dalitz__plot_8cc.html" target="_top" xlink:title="src/analysis/physics\l/etaprime/EtapDalitz\l_plot.cc">
<polygon fill="white" stroke="black" points="240,-67.5 240,-108.5 355,-108.5 355,-67.5 240,-67.5"/>
<text text-anchor="start" x="248" y="-96.5" font-family="Helvetica,sans-Serif" font-size="10.00">src/analysis/physics</text>
<text text-anchor="start" x="248" y="-85.5" font-family="Helvetica,sans-Serif" font-size="10.00">/etaprime/EtapDalitz</text>
<text text-anchor="middle" x="297.5" y="-74.5" font-family="Helvetica,sans-Serif" font-size="10.00">_plot.cc</text>
</a>
</g>
</g>
<!-- Node50&#45;&gt;Node53 -->
<g id="edge5" class="edge"><title>Node50&#45;&gt;Node53</title>
<path fill="none" stroke="midnightblue" d="M412.952,-146.349C389.902,-134.899 360.417,-120.253 337.014,-108.628"/>
<polygon fill="midnightblue" stroke="midnightblue" points="411.567,-149.569 422.08,-150.883 414.682,-143.3 411.567,-149.569"/>
</g>
<!-- Node54 -->
<g id="node7" class="node"><title>Node54</title>
<g id="a_node7"><a xlink:href="etaprime__dalitz_8cc.html" target="_top" xlink:title="src/analysis/physics\l/etaprime/etaprime_dalitz.cc">
<polygon fill="white" stroke="black" points="373.5,-73 373.5,-103 527.5,-103 527.5,-73 373.5,-73"/>
<text text-anchor="start" x="381.5" y="-91" font-family="Helvetica,sans-Serif" font-size="10.00">src/analysis/physics</text>
<text text-anchor="middle" x="450.5" y="-80" font-family="Helvetica,sans-Serif" font-size="10.00">/etaprime/etaprime_dalitz.cc</text>
</a>
</g>
</g>
<!-- Node50&#45;&gt;Node54 -->
<g id="edge6" class="edge"><title>Node50&#45;&gt;Node54</title>
<path fill="none" stroke="midnightblue" d="M450.5,-140.59C450.5,-128.257 450.5,-113.724 450.5,-103.231"/>
<polygon fill="midnightblue" stroke="midnightblue" points="447,-140.705 450.5,-150.705 454,-140.705 447,-140.705"/>
</g>
<!-- Node55 -->
<g id="node8" class="node"><title>Node55</title>
<g id="a_node8"><a xlink:href="_etap_dalitz_m_c_8h.html" target="_top" xlink:title="src/analysis/physics\l/scratch/wagner/EtapDalitzMC.h">
<polygon fill="white" stroke="black" points="545.5,-73 545.5,-103 713.5,-103 713.5,-73 545.5,-73"/>
<text text-anchor="start" x="553.5" y="-91" font-family="Helvetica,sans-Serif" font-size="10.00">src/analysis/physics</text>
<text text-anchor="middle" x="629.5" y="-80" font-family="Helvetica,sans-Serif" font-size="10.00">/scratch/wagner/EtapDalitzMC.h</text>
</a>
</g>
</g>
<!-- Node50&#45;&gt;Node55 -->
<g id="edge7" class="edge"><title>Node50&#45;&gt;Node55</title>
<path fill="none" stroke="midnightblue" d="M493.194,-146.873C524.839,-133.437 567.347,-115.389 596.429,-103.041"/>
<polygon fill="midnightblue" stroke="midnightblue" points="491.586,-143.753 483.749,-150.883 494.322,-150.197 491.586,-143.753"/>
</g>
<!-- Node56 -->
<g id="node9" class="node"><title>Node56</title>
<g id="a_node9"><a xlink:href="_etap_dalitz_m_c_8cc.html" target="_top" xlink:title="src/analysis/physics\l/scratch/wagner/EtapDalitzMC.cc">
<polygon fill="white" stroke="black" points="543,-0.5 543,-30.5 716,-30.5 716,-0.5 543,-0.5"/>
<text text-anchor="start" x="551" y="-18.5" font-family="Helvetica,sans-Serif" font-size="10.00">src/analysis/physics</text>
<text text-anchor="middle" x="629.5" y="-7.5" font-family="Helvetica,sans-Serif" font-size="10.00">/scratch/wagner/EtapDalitzMC.cc</text>
</a>
</g>
</g>
<!-- Node55&#45;&gt;Node56 -->
<g id="edge8" class="edge"><title>Node55&#45;&gt;Node56</title>
<path fill="none" stroke="midnightblue" d="M629.5,-62.7317C629.5,-52.0679 629.5,-39.9145 629.5,-30.7455"/>
<polygon fill="midnightblue" stroke="midnightblue" points="626,-62.7332 629.5,-72.7333 633,-62.7333 626,-62.7332"/>
</g>
<!-- Node58 -->
<g id="node11" class="node"><title>Node58</title>
<g id="a_node11"><a xlink:href="_etap_omega_g_8cc.html" target="_top" xlink:title="src/analysis/physics\l/etaprime/EtapOmegaG.cc">
<polygon fill="white" stroke="black" points="731.5,-73 731.5,-103 875.5,-103 875.5,-73 731.5,-73"/>
<text text-anchor="start" x="739.5" y="-91" font-family="Helvetica,sans-Serif" font-size="10.00">src/analysis/physics</text>
<text text-anchor="middle" x="803.5" y="-80" font-family="Helvetica,sans-Serif" font-size="10.00">/etaprime/EtapOmegaG.cc</text>
</a>
</g>
</g>
<!-- Node57&#45;&gt;Node58 -->
<g id="edge10" class="edge"><title>Node57&#45;&gt;Node58</title>
<path fill="none" stroke="midnightblue" d="M921.217,-146.349C893.757,-132.971 857.339,-115.229 832.322,-103.041"/>
<polygon fill="midnightblue" stroke="midnightblue" points="920,-149.65 930.523,-150.883 923.066,-143.357 920,-149.65"/>
</g>
<!-- Node59 -->
<g id="node12" class="node"><title>Node59</title>
<g id="a_node12"><a xlink:href="_etap_omega_g__plot_8cc.html" target="_top" xlink:title="src/analysis/physics\l/etaprime/EtapOmegaG\l_plot.cc">
<polygon fill="white" stroke="black" points="894,-67.5 894,-108.5 1025,-108.5 1025,-67.5 894,-67.5"/>
<text text-anchor="start" x="902" y="-96.5" font-family="Helvetica,sans-Serif" font-size="10.00">src/analysis/physics</text>
<text text-anchor="start" x="902" y="-85.5" font-family="Helvetica,sans-Serif" font-size="10.00">/etaprime/EtapOmegaG</text>
<text text-anchor="middle" x="959.5" y="-74.5" font-family="Helvetica,sans-Serif" font-size="10.00">_plot.cc</text>
</a>
</g>
</g>
<!-- Node57&#45;&gt;Node59 -->
<g id="edge11" class="edge"><title>Node57&#45;&gt;Node59</title>
<path fill="none" stroke="midnightblue" d="M959.5,-140.656C959.5,-130.326 959.5,-118.443 959.5,-108.68"/>
<polygon fill="midnightblue" stroke="midnightblue" points="956,-140.705 959.5,-150.705 963,-140.705 956,-140.705"/>
</g>
<!-- Node62 -->
<g id="node15" class="node"><title>Node62</title>
<g id="a_node15"><a xlink:href="sigma_plus_8cc.html" target="_top" xlink:title="src/analysis/physics\l/production/sigmaPlus.cc">
<polygon fill="white" stroke="black" points="1043.5,-73 1043.5,-103 1179.5,-103 1179.5,-73 1043.5,-73"/>
<text text-anchor="start" x="1051.5" y="-91" font-family="Helvetica,sans-Serif" font-size="10.00">src/analysis/physics</text>
<text text-anchor="middle" x="1111.5" y="-80" font-family="Helvetica,sans-Serif" font-size="10.00">/production/sigmaPlus.cc</text>
</a>
</g>
</g>
<!-- Node61&#45;&gt;Node62 -->
<g id="edge14" class="edge"><title>Node61&#45;&gt;Node62</title>
<path fill="none" stroke="midnightblue" d="M1240.56,-146.699C1210.55,-133.282 1170.41,-115.336 1142.91,-103.041"/>
<polygon fill="midnightblue" stroke="midnightblue" points="1239.36,-149.997 1249.92,-150.883 1242.22,-143.606 1239.36,-149.997"/>
</g>
<!-- Node63 -->
<g id="node16" class="node"><title>Node63</title>
<g id="a_node16"><a xlink:href="sigma_plus_plots_8cc.html" target="_top" xlink:title="src/analysis/physics\l/production/sigmaPlusPlots.cc">
<polygon fill="white" stroke="black" points="1198,-73 1198,-103 1357,-103 1357,-73 1198,-73"/>
<text text-anchor="start" x="1206" y="-91" font-family="Helvetica,sans-Serif" font-size="10.00">src/analysis/physics</text>
<text text-anchor="middle" x="1277.5" y="-80" font-family="Helvetica,sans-Serif" font-size="10.00">/production/sigmaPlusPlots.cc</text>
</a>
</g>
</g>
<!-- Node61&#45;&gt;Node63 -->
<g id="edge15" class="edge"><title>Node61&#45;&gt;Node63</title>
<path fill="none" stroke="midnightblue" d="M1280.22,-140.59C1279.57,-128.257 1278.8,-113.724 1278.25,-103.231"/>
<polygon fill="midnightblue" stroke="midnightblue" points="1276.73,-140.903 1280.75,-150.705 1283.72,-140.535 1276.73,-140.903"/>
</g>
<!-- Node65 -->
<g id="node18" class="node"><title>Node65</title>
<g id="a_node18"><a xlink:href="single_pi0_8cc.html" target="_top" xlink:title="src/analysis/physics\l/production/singlePi0.cc">
<polygon fill="white" stroke="black" points="1375,-73 1375,-103 1504,-103 1504,-73 1375,-73"/>
<text text-anchor="start" x="1383" y="-91" font-family="Helvetica,sans-Serif" font-size="10.00">src/analysis/physics</text>
<text text-anchor="middle" x="1439.5" y="-80" font-family="Helvetica,sans-Serif" font-size="10.00">/production/singlePi0.cc</text>
</a>
</g>
</g>
<!-- Node64&#45;&gt;Node65 -->
<g id="edge17" class="edge"><title>Node64&#45;&gt;Node65</title>
<path fill="none" stroke="midnightblue" d="M1436.78,-140.59C1437.43,-128.257 1438.2,-113.724 1438.75,-103.231"/>
<polygon fill="midnightblue" stroke="midnightblue" points="1433.28,-140.535 1436.25,-150.705 1440.27,-140.903 1433.28,-140.535"/>
</g>
<!-- Node66 -->
<g id="node19" class="node"><title>Node66</title>
<g id="a_node19"><a xlink:href="single_pi0_plots_8cc.html" target="_top" xlink:title="src/analysis/physics\l/production/singlePi0Plots.cc">
<polygon fill="white" stroke="black" points="1522.5,-73 1522.5,-103 1674.5,-103 1674.5,-73 1522.5,-73"/>
<text text-anchor="start" x="1530.5" y="-91" font-family="Helvetica,sans-Serif" font-size="10.00">src/analysis/physics</text>
<text text-anchor="middle" x="1598.5" y="-80" font-family="Helvetica,sans-Serif" font-size="10.00">/production/singlePi0Plots.cc</text>
</a>
</g>
</g>
<!-- Node64&#45;&gt;Node66 -->
<g id="edge18" class="edge"><title>Node64&#45;&gt;Node66</title>
<path fill="none" stroke="midnightblue" d="M1475.13,-146.524C1503.86,-133.126 1542.13,-115.283 1568.39,-103.041"/>
<polygon fill="midnightblue" stroke="midnightblue" points="1473.36,-143.485 1465.78,-150.883 1476.32,-149.829 1473.36,-143.485"/>
</g>
<!-- Node68 -->
<g id="node21" class="node"><title>Node68</title>
<g id="a_node21"><a xlink:href="triple_pi0_8cc.html" target="_top" xlink:title="src/analysis/physics\l/production/triplePi0.cc">
<polygon fill="white" stroke="black" points="1693,-73 1693,-103 1818,-103 1818,-73 1693,-73"/>
<text text-anchor="start" x="1701" y="-91" font-family="Helvetica,sans-Serif" font-size="10.00">src/analysis/physics</text>
<text text-anchor="middle" x="1755.5" y="-80" font-family="Helvetica,sans-Serif" font-size="10.00">/production/triplePi0.cc</text>
</a>
</g>
</g>
<!-- Node67&#45;&gt;Node68 -->
<g id="edge20" class="edge"><title>Node67&#45;&gt;Node68</title>
<path fill="none" stroke="midnightblue" d="M1619.19,-146.873C1650.84,-133.437 1693.35,-115.389 1722.43,-103.041"/>
<polygon fill="midnightblue" stroke="midnightblue" points="1617.59,-143.753 1609.75,-150.883 1620.32,-150.197 1617.59,-143.753"/>
</g>
<!-- Node69 -->
<g id="node22" class="node"><title>Node69</title>
<g id="a_node22"><a xlink:href="triple_pi0_plots_8cc.html" target="_top" xlink:title="src/analysis/physics\l/production/triplePi0Plots.cc">
<polygon fill="white" stroke="black" points="1836,-73 1836,-103 1985,-103 1985,-73 1836,-73"/>
<text text-anchor="start" x="1844" y="-91" font-family="Helvetica,sans-Serif" font-size="10.00">src/analysis/physics</text>
<text text-anchor="middle" x="1910.5" y="-80" font-family="Helvetica,sans-Serif" font-size="10.00">/production/triplePi0Plots.cc</text>
</a>
</g>
</g>
<!-- Node67&#45;&gt;Node69 -->
<g id="edge21" class="edge"><title>Node67&#45;&gt;Node69</title>
<path fill="none" stroke="midnightblue" d="M1633.8,-148.219C1638.08,-147.089 1642.35,-146.003 1646.5,-145 1726.22,-125.717 1747.39,-126.611 1827.5,-109 1835.9,-107.154 1844.75,-105.118 1853.42,-103.073"/>
<polygon fill="midnightblue" stroke="midnightblue" points="1632.55,-144.931 1623.8,-150.916 1634.37,-151.689 1632.55,-144.931"/>
</g>
<!-- Node70 -->
<g id="node23" class="node"><title>Node70</title>
<g id="a_node23"><a xlink:href="_proton_vertex_test_8cc.html" target="_top" xlink:title="src/analysis/physics\l/scratch/wolfes/ProtonVertex\lTest.cc">
<polygon fill="white" stroke="black" points="2003.5,-67.5 2003.5,-108.5 2155.5,-108.5 2155.5,-67.5 2003.5,-67.5"/>
<text text-anchor="start" x="2011.5" y="-96.5" font-family="Helvetica,sans-Serif" font-size="10.00">src/analysis/physics</text>
<text text-anchor="start" x="2011.5" y="-85.5" font-family="Helvetica,sans-Serif" font-size="10.00">/scratch/wolfes/ProtonVertex</text>
<text text-anchor="middle" x="2079.5" y="-74.5" font-family="Helvetica,sans-Serif" font-size="10.00">Test.cc</text>
</a>
</g>
</g>
<!-- Node67&#45;&gt;Node70 -->
<g id="edge22" class="edge"><title>Node67&#45;&gt;Node70</title>
<path fill="none" stroke="midnightblue" d="M1631.22,-148.379C1636.36,-147.118 1641.51,-145.963 1646.5,-145 1799.17,-115.528 1841.17,-134.86 1994.5,-109 1997.34,-108.521 2000.23,-108.003 2003.14,-107.454"/>
<polygon fill="midnightblue" stroke="midnightblue" points="1630.21,-145.025 1621.41,-150.915 1631.96,-151.803 1630.21,-145.025"/>
</g>
</g>
</svg>
