<?xml version="1.0" encoding="UTF-8" standalone="no"?>
<!DOCTYPE svg PUBLIC "-//W3C//DTD SVG 1.1//EN"
 "http://www.w3.org/Graphics/SVG/1.1/DTD/svg11.dtd">
<!-- Generated by graphviz version 2.38.0 (20140413.2041)
 -->
<!-- Title: src/analysis/utils/PullsWriter.h Pages: 1 -->
<svg width="716pt" height="195pt"
 viewBox="0.00 0.00 716.00 195.00" xmlns="http://www.w3.org/2000/svg" xmlns:xlink="http://www.w3.org/1999/xlink">
<g id="graph0" class="graph" transform="scale(1 1) rotate(0) translate(4 191)">
<title>src/analysis/utils/PullsWriter.h</title>
<polygon fill="white" stroke="none" points="-4,4 -4,-191 712,-191 712,4 -4,4"/>
<!-- Node48 -->
<g id="node1" class="node"><title>Node48</title>
<polygon fill="#bfbfbf" stroke="black" points="254,-156.5 254,-186.5 349,-186.5 349,-156.5 254,-156.5"/>
<text text-anchor="start" x="262" y="-174.5" font-family="Helvetica,sans-Serif" font-size="10.00">src/analysis/utils</text>
<text text-anchor="middle" x="301.5" y="-163.5" font-family="Helvetica,sans-Serif" font-size="10.00">/PullsWriter.h</text>
</g>
<!-- Node49 -->
<g id="node2" class="node"><title>Node49</title>
<g id="a_node2"><a xlink:href="_ant-make_sigmas_8cc.html" target="_top" xlink:title="progs/Ant&#45;makeSigmas.cc">
<polygon fill="white" stroke="black" points="0,-89.5 0,-108.5 143,-108.5 143,-89.5 0,-89.5"/>
<text text-anchor="middle" x="71.5" y="-96.5" font-family="Helvetica,sans-Serif" font-size="10.00">progs/Ant&#45;makeSigmas.cc</text>
</a>
</g>
</g>
<!-- Node48&#45;&gt;Node49 -->
<g id="edge1" class="edge"><title>Node48&#45;&gt;Node49</title>
<path fill="none" stroke="midnightblue" d="M246.189,-153.546C199.874,-139.35 135.69,-119.676 99.4098,-108.555"/>
<polygon fill="midnightblue" stroke="midnightblue" points="245.198,-156.903 255.784,-156.487 247.249,-150.21 245.198,-156.903"/>
</g>
<!-- Node50 -->
<g id="node3" class="node"><title>Node50</title>
<g id="a_node3"><a xlink:href="_p_i_d___t_a_p_s_veto___kinfit_8h.html" target="_top" xlink:title="src/analysis/physics\l/calibration/PID_TAPSVeto\l_Kinfit.h">
<polygon fill="white" stroke="black" points="161,-78.5 161,-119.5 300,-119.5 300,-78.5 161,-78.5"/>
<text text-anchor="start" x="169" y="-107.5" font-family="Helvetica,sans-Serif" font-size="10.00">src/analysis/physics</text>
<text text-anchor="start" x="169" y="-96.5" font-family="Helvetica,sans-Serif" font-size="10.00">/calibration/PID_TAPSVeto</text>
<text text-anchor="middle" x="230.5" y="-85.5" font-family="Helvetica,sans-Serif" font-size="10.00">_Kinfit.h</text>
</a>
</g>
</g>
<!-- Node48&#45;&gt;Node50 -->
<g id="edge2" class="edge"><title>Node48&#45;&gt;Node50</title>
<path fill="none" stroke="midnightblue" d="M279.949,-149.101C270.492,-139.711 259.466,-128.762 250.227,-119.588"/>
<polygon fill="midnightblue" stroke="midnightblue" points="277.57,-151.671 287.132,-156.233 282.502,-146.704 277.57,-151.671"/>
</g>
<!-- Node52 -->
<g id="node5" class="node"><title>Node52</title>
<g id="a_node5"><a xlink:href="_just_pi0_8h.html" target="_top" xlink:title="src/analysis/physics\l/pi0/JustPi0.h">
<polygon fill="white" stroke="black" points="318.5,-84 318.5,-114 428.5,-114 428.5,-84 318.5,-84"/>
<text text-anchor="start" x="326.5" y="-102" font-family="Helvetica,sans-Serif" font-size="10.00">src/analysis/physics</text>
<text text-anchor="middle" x="373.5" y="-91" font-family="Helvetica,sans-Serif" font-size="10.00">/pi0/JustPi0.h</text>
</a>
</g>
</g>
<!-- Node48&#45;&gt;Node52 -->
<g id="edge4" class="edge"><title>Node48&#45;&gt;Node52</title>
<path fill="none" stroke="midnightblue" d="M323.265,-149.188C334.821,-137.873 348.709,-124.274 358.951,-114.246"/>
<polygon fill="midnightblue" stroke="midnightblue" points="320.767,-146.736 316.07,-156.233 325.664,-151.738 320.767,-146.736"/>
</g>
<!-- Node55 -->
<g id="node8" class="node"><title>Node55</title>
<g id="a_node8"><a xlink:href="analysis_2physics_2tunings_2_interpolated_pulls_8h.html" target="_top" xlink:title="src/analysis/physics\l/tunings/InterpolatedPulls.h">
<polygon fill="white" stroke="black" points="521.5,-84 521.5,-114 667.5,-114 667.5,-84 521.5,-84"/>
<text text-anchor="start" x="529.5" y="-102" font-family="Helvetica,sans-Serif" font-size="10.00">src/analysis/physics</text>
<text text-anchor="middle" x="594.5" y="-91" font-family="Helvetica,sans-Serif" font-size="10.00">/tunings/InterpolatedPulls.h</text>
</a>
</g>
</g>
<!-- Node48&#45;&gt;Node55 -->
<g id="edge7" class="edge"><title>Node48&#45;&gt;Node55</title>
<path fill="none" stroke="midnightblue" d="M359.143,-156.63C410.338,-144.312 484.8,-126.395 536.195,-114.029"/>
<polygon fill="midnightblue" stroke="midnightblue" points="358.131,-153.274 349.228,-159.016 359.769,-160.079 358.131,-153.274"/>
</g>
<!-- Node51 -->
<g id="node4" class="node"><title>Node51</title>
<g id="a_node4"><a xlink:href="_p_i_d___t_a_p_s_veto___kinfit_8cc.html" target="_top" xlink:title="src/analysis/physics\l/calibration/PID_TAPSVeto\l_Kinfit.cc">
<polygon fill="white" stroke="black" points="106,-0.5 106,-41.5 245,-41.5 245,-0.5 106,-0.5"/>
<text text-anchor="start" x="114" y="-29.5" font-family="Helvetica,sans-Serif" font-size="10.00">src/analysis/physics</text>
<text text-anchor="start" x="114" y="-18.5" font-family="Helvetica,sans-Serif" font-size="10.00">/calibration/PID_TAPSVeto</text>
<text text-anchor="middle" x="175.5" y="-7.5" font-family="Helvetica,sans-Serif" font-size="10.00">_Kinfit.cc</text>
</a>
</g>
</g>
<!-- Node50&#45;&gt;Node51 -->
<g id="edge3" class="edge"><title>Node50&#45;&gt;Node51</title>
<path fill="none" stroke="midnightblue" d="M210.271,-70.0476C203.409,-60.5657 195.897,-50.1845 189.616,-41.5056"/>
<polygon fill="midnightblue" stroke="midnightblue" points="207.638,-72.3789 216.336,-78.4281 213.309,-68.275 207.638,-72.3789"/>
</g>
<!-- Node53 -->
<g id="node6" class="node"><title>Node53</title>
<g id="a_node6"><a xlink:href="_ant-alt_veto_cal_tool_8cc.html" target="_top" xlink:title="progs/Ant&#45;altVetoCalTool.cc">
<polygon fill="white" stroke="black" points="263,-11.5 263,-30.5 410,-30.5 410,-11.5 263,-11.5"/>
<text text-anchor="middle" x="336.5" y="-18.5" font-family="Helvetica,sans-Serif" font-size="10.00">progs/Ant&#45;altVetoCalTool.cc</text>
</a>
</g>
</g>
<!-- Node52&#45;&gt;Node53 -->
<g id="edge5" class="edge"><title>Node52&#45;&gt;Node53</title>
<path fill="none" stroke="midnightblue" d="M362.07,-74.5221C354.803,-59.5954 345.823,-41.1499 340.669,-30.5635"/>
<polygon fill="midnightblue" stroke="midnightblue" points="359.016,-76.2459 366.541,-83.705 365.31,-73.1818 359.016,-76.2459"/>
</g>
<!-- Node54 -->
<g id="node7" class="node"><title>Node54</title>
<g id="a_node7"><a xlink:href="_just_pi0_8cc.html" target="_top" xlink:title="src/analysis/physics\l/pi0/JustPi0.cc">
<polygon fill="white" stroke="black" points="428.5,-6 428.5,-36 538.5,-36 538.5,-6 428.5,-6"/>
<text text-anchor="start" x="436.5" y="-24" font-family="Helvetica,sans-Serif" font-size="10.00">src/analysis/physics</text>
<text text-anchor="middle" x="483.5" y="-13" font-family="Helvetica,sans-Serif" font-size="10.00">/pi0/JustPi0.cc</text>
</a>
</g>
</g>
<!-- Node52&#45;&gt;Node54 -->
<g id="edge6" class="edge"><title>Node52&#45;&gt;Node54</title>
<path fill="none" stroke="midnightblue" d="M402.287,-78.1106C421.42,-64.8919 446.076,-47.8569 463.177,-36.0413"/>
<polygon fill="midnightblue" stroke="midnightblue" points="400.17,-75.3192 393.932,-83.8831 404.149,-81.0783 400.17,-75.3192"/>
</g>
<!-- Node56 -->
<g id="node9" class="node"><title>Node56</title>
<g id="a_node9"><a xlink:href="analysis_2physics_2tunings_2_interpolated_pulls_8cc.html" target="_top" xlink:title="src/analysis/physics\l/tunings/InterpolatedPulls.cc">
<polygon fill="white" stroke="black" points="557,-6 557,-36 708,-36 708,-6 557,-6"/>
<text text-anchor="start" x="565" y="-24" font-family="Helvetica,sans-Serif" font-size="10.00">src/analysis/physics</text>
<text text-anchor="middle" x="632.5" y="-13" font-family="Helvetica,sans-Serif" font-size="10.00">/tunings/InterpolatedPulls.cc</text>
</a>
</g>
</g>
<!-- Node55&#45;&gt;Node56 -->
<g id="edge8" class="edge"><title>Node55&#45;&gt;Node56</title>
<path fill="none" stroke="midnightblue" d="M606.148,-74.7047C612.429,-62.141 619.979,-47.0416 625.385,-36.2309"/>
<polygon fill="midnightblue" stroke="midnightblue" points="602.989,-73.1954 601.648,-83.705 609.25,-76.326 602.989,-73.1954"/>
</g>
</g>
</svg>
