<?xml version="1.0" encoding="UTF-8" standalone="no"?>
<!DOCTYPE svg PUBLIC "-//W3C//DTD SVG 1.1//EN"
 "http://www.w3.org/Graphics/SVG/1.1/DTD/svg11.dtd">
<!-- Generated by graphviz version 2.38.0 (20140413.2041)
 -->
<!-- Title: src/expconfig/setups/Setup_2012_12_Compton.cc Pages: 1 -->
<svg width="3805pt" height="576pt"
 viewBox="0.00 0.00 3805.06 576.00" xmlns="http://www.w3.org/2000/svg" xmlns:xlink="http://www.w3.org/1999/xlink">
<g id="graph0" class="graph" transform="scale(1 1) rotate(0) translate(4 572)">
<title>src/expconfig/setups/Setup_2012_12_Compton.cc</title>
<polygon fill="white" stroke="none" points="-4,4 -4,-572 3801.06,-572 3801.06,4 -4,4"/>
<!-- Node0 -->
<g id="node1" class="node"><title>Node0</title>
<polygon fill="#bfbfbf" stroke="black" points="3053.06,-537.5 3053.06,-567.5 3211.06,-567.5 3211.06,-537.5 3053.06,-537.5"/>
<text text-anchor="start" x="3061.06" y="-555.5" font-family="Helvetica,sans-Serif" font-size="10.00">src/expconfig/setups</text>
<text text-anchor="middle" x="3132.06" y="-544.5" font-family="Helvetica,sans-Serif" font-size="10.00">/Setup_2012_12_Compton.cc</text>
</g>
<!-- Node1 -->
<g id="node2" class="node"><title>Node1</title>
<g id="a_node2"><a xlink:href="_setup_8h.html" target="_top" xlink:title="Setup.h">
<polygon fill="white" stroke="black" points="1423.06,-481.5 1423.06,-500.5 1477.06,-500.5 1477.06,-481.5 1423.06,-481.5"/>
<text text-anchor="middle" x="1450.06" y="-488.5" font-family="Helvetica,sans-Serif" font-size="10.00">Setup.h</text>
</a>
</g>
</g>
<!-- Node0&#45;&gt;Node1 -->
<g id="edge1" class="edge"><title>Node0&#45;&gt;Node1</title>
<path fill="none" stroke="midnightblue" d="M3052.91,-548.7C2753.92,-538.123 1699.46,-500.822 1487.38,-493.32"/>
<polygon fill="midnightblue" stroke="midnightblue" points="1487.21,-489.812 1477.09,-492.956 1486.96,-496.808 1487.21,-489.812"/>
</g>
<!-- Node10 -->
<g id="node11" class="node"><title>Node10</title>
<g id="a_node11"><a xlink:href="base_2std__ext_2math_8h.html" target="_top" xlink:title="base/std_ext/math.h">
<polygon fill="white" stroke="black" points="3681.06,-118 3681.06,-137 3797.06,-137 3797.06,-118 3681.06,-118"/>
<text text-anchor="middle" x="3739.06" y="-125" font-family="Helvetica,sans-Serif" font-size="10.00">base/std_ext/math.h</text>
</a>
</g>
</g>
<!-- Node0&#45;&gt;Node10 -->
<g id="edge163" class="edge"><title>Node0&#45;&gt;Node10</title>
<path fill="none" stroke="midnightblue" d="M3211.29,-552.115C3370.7,-551.209 3715.06,-537.506 3715.06,-436 3715.06,-436 3715.06,-436 3715.06,-260.5 3715.06,-219.312 3726.51,-172.043 3733.6,-146.747"/>
<polygon fill="midnightblue" stroke="midnightblue" points="3736.98,-147.63 3736.4,-137.051 3730.26,-145.683 3736.98,-147.63"/>
</g>
<!-- Node62 -->
<g id="node63" class="node"><title>Node62</title>
<g id="a_node63"><a xlink:href="_c_b_8h.html" target="_top" xlink:title="detectors/CB.h">
<polygon fill="white" stroke="black" points="3142.06,-481.5 3142.06,-500.5 3230.06,-500.5 3230.06,-481.5 3142.06,-481.5"/>
<text text-anchor="middle" x="3186.06" y="-488.5" font-family="Helvetica,sans-Serif" font-size="10.00">detectors/CB.h</text>
</a>
</g>
</g>
<!-- Node0&#45;&gt;Node62 -->
<g id="edge157" class="edge"><title>Node0&#45;&gt;Node62</title>
<path fill="none" stroke="midnightblue" d="M3144.86,-537.399C3152.79,-528.664 3163,-517.413 3171.27,-508.296"/>
<polygon fill="midnightblue" stroke="midnightblue" points="3174.08,-510.415 3178.2,-500.658 3168.89,-505.711 3174.08,-510.415"/>
</g>
<!-- Node63 -->
<g id="node64" class="node"><title>Node63</title>
<g id="a_node64"><a xlink:href="_p_i_d_8h.html" target="_top" xlink:title="detectors/PID.h">
<polygon fill="white" stroke="black" points="3034.06,-481.5 3034.06,-500.5 3124.06,-500.5 3124.06,-481.5 3034.06,-481.5"/>
<text text-anchor="middle" x="3079.06" y="-488.5" font-family="Helvetica,sans-Serif" font-size="10.00">detectors/PID.h</text>
</a>
</g>
</g>
<!-- Node0&#45;&gt;Node63 -->
<g id="edge160" class="edge"><title>Node0&#45;&gt;Node63</title>
<path fill="none" stroke="midnightblue" d="M3119.5,-537.399C3111.72,-528.664 3101.7,-517.413 3093.58,-508.296"/>
<polygon fill="midnightblue" stroke="midnightblue" points="3096.04,-505.797 3086.77,-500.658 3090.81,-510.453 3096.04,-505.797"/>
</g>
<!-- Node2 -->
<g id="node3" class="node"><title>Node2</title>
<g id="a_node3"><a xlink:href="_exp_config_8h.html" target="_top" xlink:title="expconfig/ExpConfig.h">
<polygon fill="white" stroke="black" points="1846.06,-369.5 1846.06,-388.5 1968.06,-388.5 1968.06,-369.5 1846.06,-369.5"/>
<text text-anchor="middle" x="1907.06" y="-376.5" font-family="Helvetica,sans-Serif" font-size="10.00">expconfig/ExpConfig.h</text>
</a>
</g>
</g>
<!-- Node1&#45;&gt;Node2 -->
<g id="edge2" class="edge"><title>Node1&#45;&gt;Node2</title>
<path fill="none" stroke="midnightblue" d="M1477.28,-483.448C1553.2,-465.174 1767.88,-413.5 1861.95,-390.857"/>
<polygon fill="midnightblue" stroke="midnightblue" points="1862.84,-394.244 1871.74,-388.501 1861.2,-387.438 1862.84,-394.244"/>
</g>
<!-- Node15 -->
<g id="node16" class="node"><title>Node15</title>
<polygon fill="white" stroke="#bfbfbf" points="307.062,-0.5 307.062,-19.5 351.062,-19.5 351.062,-0.5 307.062,-0.5"/>
<text text-anchor="middle" x="329.062" y="-7.5" font-family="Helvetica,sans-Serif" font-size="10.00">string</text>
</g>
<!-- Node1&#45;&gt;Node15 -->
<g id="edge156" class="edge"><title>Node1&#45;&gt;Node15</title>
<path fill="none" stroke="midnightblue" d="M1422.8,-489.351C1226.64,-484.509 38.0616,-452.189 38.0616,-380 38.0616,-380 38.0616,-380 38.0616,-126.5 38.0616,-77.7603 78.3054,-77.4696 122.062,-56 179.588,-27.7739 254.696,-17.1244 296.806,-13.2011"/>
<polygon fill="midnightblue" stroke="midnightblue" points="297.107,-16.6881 306.77,-12.3419 296.506,-9.714 297.107,-16.6881"/>
</g>
<!-- Node23 -->
<g id="node24" class="node"><title>Node23</title>
<polygon fill="white" stroke="#bfbfbf" points="272.562,-56.5 272.562,-75.5 335.562,-75.5 335.562,-56.5 272.562,-56.5"/>
<text text-anchor="middle" x="304.062" y="-63.5" font-family="Helvetica,sans-Serif" font-size="10.00">functional</text>
</g>
<!-- Node1&#45;&gt;Node23 -->
<g id="edge155" class="edge"><title>Node1&#45;&gt;Node23</title>
<path fill="none" stroke="midnightblue" d="M1422.82,-489.999C1230.49,-489.888 82.9704,-487.441 24.0616,-445 -0.924413,-426.999 0.0616275,-410.795 0.0616275,-380 0.0616275,-380 0.0616275,-380 0.0616275,-260.5 0.0616275,-137.533 179.266,-89.3234 262.495,-73.5643"/>
<polygon fill="midnightblue" stroke="midnightblue" points="263.18,-76.9973 272.389,-71.7587 261.923,-70.1111 263.18,-76.9973"/>
</g>
<!-- Node26 -->
<g id="node27" class="node"><title>Node26</title>
<g id="a_node27"><a xlink:href="_calibration_8h.html" target="_top" xlink:title="calibration/Calibration.h">
<polygon fill="white" stroke="black" points="1306.56,-313.5 1306.56,-332.5 1435.56,-332.5 1435.56,-313.5 1306.56,-313.5"/>
<text text-anchor="middle" x="1371.06" y="-320.5" font-family="Helvetica,sans-Serif" font-size="10.00">calibration/Calibration.h</text>
</a>
</g>
</g>
<!-- Node1&#45;&gt;Node26 -->
<g id="edge147" class="edge"><title>Node1&#45;&gt;Node26</title>
<path fill="none" stroke="midnightblue" d="M1445.81,-481.075C1433.27,-454.719 1396.23,-376.878 1379.47,-341.661"/>
<polygon fill="midnightblue" stroke="midnightblue" points="1382.6,-340.094 1375.14,-332.568 1376.28,-343.102 1382.6,-340.094"/>
</g>
<!-- Node43 -->
<g id="node44" class="node"><title>Node43</title>
<g id="a_node44"><a xlink:href="_t_i_d_8h.html" target="_top" xlink:title="tree/TID.h">
<polygon fill="white" stroke="black" points="2551.56,-185 2551.56,-204 2614.56,-204 2614.56,-185 2551.56,-185"/>
<text text-anchor="middle" x="2583.06" y="-192" font-family="Helvetica,sans-Serif" font-size="10.00">tree/TID.h</text>
</a>
</g>
</g>
<!-- Node1&#45;&gt;Node43 -->
<g id="edge146" class="edge"><title>Node1&#45;&gt;Node43</title>
<path fill="none" stroke="midnightblue" d="M1477.3,-490.187C1618.62,-490.721 2268.32,-487.693 2438.06,-389 2510.35,-346.967 2557.93,-253.189 2575.49,-213.643"/>
<polygon fill="midnightblue" stroke="midnightblue" points="2578.72,-214.984 2579.47,-204.416 2572.3,-212.21 2578.72,-214.984"/>
</g>
<!-- Node50 -->
<g id="node51" class="node"><title>Node50</title>
<g id="a_node51"><a xlink:href="_options_list_8h.html" target="_top" xlink:title="base/OptionsList.h">
<polygon fill="white" stroke="black" points="618.562,-252 618.562,-271 723.562,-271 723.562,-252 618.562,-252"/>
<text text-anchor="middle" x="671.062" y="-259" font-family="Helvetica,sans-Serif" font-size="10.00">base/OptionsList.h</text>
</a>
</g>
</g>
<!-- Node1&#45;&gt;Node50 -->
<g id="edge154" class="edge"><title>Node1&#45;&gt;Node50</title>
<path fill="none" stroke="midnightblue" d="M1422.94,-484.998C1383.04,-477.445 1306.31,-462.174 1242.06,-445 1035.34,-389.74 792.346,-305.52 704.694,-274.506"/>
<polygon fill="midnightblue" stroke="midnightblue" points="705.62,-271.121 695.026,-271.078 703.281,-277.719 705.62,-271.121"/>
</g>
<!-- Node51 -->
<g id="node52" class="node"><title>Node51</title>
<g id="a_node52"><a xlink:href="piecewise__interval_8h.html" target="_top" xlink:title="base/piecewise_interval.h">
<polygon fill="white" stroke="black" points="2633.06,-185 2633.06,-204 2771.06,-204 2771.06,-185 2633.06,-185"/>
<text text-anchor="middle" x="2702.06" y="-192" font-family="Helvetica,sans-Serif" font-size="10.00">base/piecewise_interval.h</text>
</a>
</g>
</g>
<!-- Node1&#45;&gt;Node51 -->
<g id="edge153" class="edge"><title>Node1&#45;&gt;Node51</title>
<path fill="none" stroke="midnightblue" d="M1477.14,-489.192C1664.54,-483.428 2761.06,-446.844 2761.06,-380 2761.06,-380 2761.06,-380 2761.06,-322 2761.06,-279.214 2733,-235.273 2715.58,-212.123"/>
<polygon fill="midnightblue" stroke="midnightblue" points="2718.2,-209.794 2709.3,-204.054 2712.68,-214.094 2718.2,-209.794"/>
</g>
<!-- Node55 -->
<g id="node56" class="node"><title>Node55</title>
<g id="a_node56"><a xlink:href="_setup_registry_8h.html" target="_top" xlink:title="SetupRegistry.h">
<polygon fill="white" stroke="black" points="1033.06,-313.5 1033.06,-332.5 1123.06,-332.5 1123.06,-313.5 1033.06,-313.5"/>
<text text-anchor="middle" x="1078.06" y="-320.5" font-family="Helvetica,sans-Serif" font-size="10.00">SetupRegistry.h</text>
</a>
</g>
</g>
<!-- Node1&#45;&gt;Node55 -->
<g id="edge112" class="edge"><title>Node1&#45;&gt;Node55</title>
<path fill="none" stroke="midnightblue" d="M1422.89,-483.715C1370.72,-470.934 1253.91,-438.835 1166.06,-389 1140.32,-374.395 1113.31,-353.485 1096.11,-339.358"/>
<polygon fill="midnightblue" stroke="midnightblue" points="1098,-336.372 1088.07,-332.658 1093.51,-341.749 1098,-336.372"/>
</g>
<!-- Node56 -->
<g id="node57" class="node"><title>Node56</title>
<g id="a_node57"><a xlink:href="_unpacker_acqu_8h.html" target="_top" xlink:title="unpacker/UnpackerAcqu.h">
<polygon fill="white" stroke="black" points="2866.56,-425.5 2866.56,-444.5 3009.56,-444.5 3009.56,-425.5 2866.56,-425.5"/>
<text text-anchor="middle" x="2938.06" y="-432.5" font-family="Helvetica,sans-Serif" font-size="10.00">unpacker/UnpackerAcqu.h</text>
</a>
</g>
</g>
<!-- Node1&#45;&gt;Node56 -->
<g id="edge118" class="edge"><title>Node1&#45;&gt;Node56</title>
<path fill="none" stroke="midnightblue" d="M1477.12,-489.294C1615,-485.654 2253.1,-468.271 2775.06,-445 2801.43,-443.824 2830.19,-442.313 2856.11,-440.866"/>
<polygon fill="midnightblue" stroke="midnightblue" points="2856.48,-444.35 2866.27,-440.293 2856.08,-437.361 2856.48,-444.35"/>
</g>
<!-- Node58 -->
<g id="node59" class="node"><title>Node58</title>
<g id="a_node59"><a xlink:href="_unpacker_a2_geant_8h.html" target="_top" xlink:title="unpacker/UnpackerA2Geant.h">
<polygon fill="white" stroke="black" points="1826.56,-425.5 1826.56,-444.5 1987.56,-444.5 1987.56,-425.5 1826.56,-425.5"/>
<text text-anchor="middle" x="1907.06" y="-432.5" font-family="Helvetica,sans-Serif" font-size="10.00">unpacker/UnpackerA2Geant.h</text>
</a>
</g>
</g>
<!-- Node1&#45;&gt;Node58 -->
<g id="edge130" class="edge"><title>Node1&#45;&gt;Node58</title>
<path fill="none" stroke="midnightblue" d="M1477.28,-486.784C1544.41,-478.851 1720.04,-458.099 1824.84,-445.716"/>
<polygon fill="midnightblue" stroke="midnightblue" points="1825.55,-449.156 1835.07,-444.507 1824.72,-442.205 1825.55,-449.156"/>
</g>
<!-- Node61 -->
<g id="node62" class="node"><title>Node61</title>
<g id="a_node62"><a xlink:href="_data_manager_8h.html" target="_top" xlink:title="calibration/DataManager.h">
<polygon fill="white" stroke="black" points="1175.56,-369.5 1175.56,-388.5 1318.56,-388.5 1318.56,-369.5 1175.56,-369.5"/>
<text text-anchor="middle" x="1247.06" y="-376.5" font-family="Helvetica,sans-Serif" font-size="10.00">calibration/DataManager.h</text>
</a>
</g>
</g>
<!-- Node1&#45;&gt;Node61 -->
<g id="edge148" class="edge"><title>Node1&#45;&gt;Node61</title>
<path fill="none" stroke="midnightblue" d="M1422.62,-481.862C1398.27,-474.088 1362.17,-461.173 1333.06,-445 1307.43,-430.756 1280.96,-409.598 1264.27,-395.326"/>
<polygon fill="midnightblue" stroke="midnightblue" points="1266.34,-392.486 1256.5,-388.563 1261.75,-397.767 1266.34,-392.486"/>
</g>
<!-- Node3 -->
<g id="node4" class="node"><title>Node3</title>
<g id="a_node4"><a xlink:href="_detector__t_8h.html" target="_top" xlink:title="base/Detector_t.h">
<polygon fill="white" stroke="black" points="3237.56,-185 3237.56,-204 3340.56,-204 3340.56,-185 3237.56,-185"/>
<text text-anchor="middle" x="3289.06" y="-192" font-family="Helvetica,sans-Serif" font-size="10.00">base/Detector_t.h</text>
</a>
</g>
</g>
<!-- Node2&#45;&gt;Node3 -->
<g id="edge3" class="edge"><title>Node2&#45;&gt;Node3</title>
<path fill="none" stroke="midnightblue" d="M1968.26,-373.186C2057.91,-365.894 2230.13,-350.976 2376.06,-333 2698.44,-293.288 3082.5,-230.293 3228.61,-205.756"/>
<polygon fill="midnightblue" stroke="midnightblue" points="3229.43,-209.167 3238.71,-204.057 3228.27,-202.264 3229.43,-209.167"/>
</g>
<!-- Node17 -->
<g id="node18" class="node"><title>Node17</title>
<g id="a_node18"><a xlink:href="_reconstruct__traits_8h.html" target="_top" xlink:title="reconstruct/Reconstruct\l_traits.h">
<polygon fill="white" stroke="black" points="2006.56,-246.5 2006.56,-276.5 2137.56,-276.5 2137.56,-246.5 2006.56,-246.5"/>
<text text-anchor="start" x="2014.56" y="-264.5" font-family="Helvetica,sans-Serif" font-size="10.00">reconstruct/Reconstruct</text>
<text text-anchor="middle" x="2072.06" y="-253.5" font-family="Helvetica,sans-Serif" font-size="10.00">_traits.h</text>
</a>
</g>
</g>
<!-- Node2&#45;&gt;Node17 -->
<g id="edge20" class="edge"><title>Node2&#45;&gt;Node17</title>
<path fill="none" stroke="midnightblue" d="M1919.46,-369.319C1945.69,-350.96 2007.35,-307.796 2043.76,-282.312"/>
<polygon fill="midnightblue" stroke="midnightblue" points="2045.81,-285.147 2052,-276.545 2041.8,-279.413 2045.81,-285.147"/>
</g>
<!-- Node20 -->
<g id="node21" class="node"><title>Node20</title>
<polygon fill="white" stroke="#bfbfbf" points="1236.56,-56.5 1236.56,-75.5 1293.56,-75.5 1293.56,-56.5 1236.56,-56.5"/>
<text text-anchor="middle" x="1265.06" y="-63.5" font-family="Helvetica,sans-Serif" font-size="10.00">memory</text>
</g>
<!-- Node2&#45;&gt;Node20 -->
<g id="edge109" class="edge"><title>Node2&#45;&gt;Node20</title>
<path fill="none" stroke="midnightblue" d="M1907.74,-369.41C1909.69,-337.958 1911.77,-228.352 1851.06,-179 1760.49,-105.378 1430.72,-196.644 1327.06,-143 1302.31,-130.19 1283.86,-102.69 1273.78,-84.5225"/>
<polygon fill="midnightblue" stroke="midnightblue" points="1276.8,-82.7596 1269.05,-75.5424 1270.61,-86.0214 1276.8,-82.7596"/>
</g>
<!-- Node21 -->
<g id="node22" class="node"><title>Node21</title>
<polygon fill="white" stroke="#bfbfbf" points="2258.06,-56.5 2258.06,-75.5 2288.06,-75.5 2288.06,-56.5 2258.06,-56.5"/>
<text text-anchor="middle" x="2273.06" y="-63.5" font-family="Helvetica,sans-Serif" font-size="10.00">list</text>
</g>
<!-- Node2&#45;&gt;Node21 -->
<g id="edge110" class="edge"><title>Node2&#45;&gt;Node21</title>
<path fill="none" stroke="midnightblue" d="M1968.06,-377.859C2046.8,-374.292 2183.03,-356.099 2262.06,-277 2314.63,-224.382 2303.42,-185.172 2290.06,-112 2288.37,-102.757 2284.89,-92.9479 2281.51,-84.8546"/>
<polygon fill="midnightblue" stroke="midnightblue" points="2284.69,-83.4045 2277.43,-75.6928 2278.3,-86.2518 2284.69,-83.4045"/>
</g>
<!-- Node25 -->
<g id="node26" class="node"><title>Node25</title>
<polygon fill="white" stroke="#bfbfbf" points="1804.06,-185 1804.06,-204 1842.06,-204 1842.06,-185 1804.06,-185"/>
<text text-anchor="middle" x="1823.06" y="-192" font-family="Helvetica,sans-Serif" font-size="10.00">map</text>
</g>
<!-- Node2&#45;&gt;Node25 -->
<g id="edge111" class="edge"><title>Node2&#45;&gt;Node25</title>
<path fill="none" stroke="midnightblue" d="M1903.02,-369.382C1898.78,-360.33 1891.92,-345.677 1886.06,-333 1866.3,-290.268 1843.32,-239.945 1831.32,-213.626"/>
<polygon fill="midnightblue" stroke="midnightblue" points="1834.35,-211.845 1827.02,-204.197 1827.98,-214.748 1834.35,-211.845"/>
</g>
<!-- Node2&#45;&gt;Node26 -->
<g id="edge38" class="edge"><title>Node2&#45;&gt;Node26</title>
<path fill="none" stroke="midnightblue" d="M1845.68,-370.522C1841.07,-369.995 1836.49,-369.482 1832.06,-369 1695.87,-354.183 1536.78,-339.158 1445.59,-330.764"/>
<polygon fill="midnightblue" stroke="midnightblue" points="1445.9,-327.278 1435.62,-329.848 1445.26,-334.248 1445.9,-327.278"/>
</g>
<!-- Node2&#45;&gt;Node51 -->
<g id="edge98" class="edge"><title>Node2&#45;&gt;Node51</title>
<path fill="none" stroke="midnightblue" d="M1968.15,-376.166C2050.77,-372.627 2202.26,-362.376 2328.06,-333 2462.07,-301.707 2613.64,-236.023 2674.56,-208.29"/>
<polygon fill="midnightblue" stroke="midnightblue" points="2676.24,-211.37 2683.88,-204.023 2673.33,-205.006 2676.24,-211.37"/>
</g>
<!-- Node4 -->
<g id="node5" class="node"><title>Node4</title>
<g id="a_node5"><a xlink:href="bitflag_8h.html" target="_top" xlink:title="base/bitflag.h">
<polygon fill="white" stroke="black" points="3393.56,-118 3393.56,-137 3474.56,-137 3474.56,-118 3393.56,-118"/>
<text text-anchor="middle" x="3434.06" y="-125" font-family="Helvetica,sans-Serif" font-size="10.00">base/bitflag.h</text>
</a>
</g>
</g>
<!-- Node3&#45;&gt;Node4 -->
<g id="edge4" class="edge"><title>Node3&#45;&gt;Node4</title>
<path fill="none" stroke="midnightblue" d="M3308.32,-184.869C3333.23,-173.699 3376.85,-154.147 3405.6,-141.26"/>
<polygon fill="midnightblue" stroke="midnightblue" points="3407.03,-144.452 3414.73,-137.167 3404.17,-138.064 3407.03,-144.452"/>
</g>
<!-- Node6 -->
<g id="node7" class="node"><title>Node6</title>
<g id="a_node7"><a xlink:href="vec3_8h.html" target="_top" xlink:title="base/vec/vec3.h">
<polygon fill="white" stroke="black" points="3493.06,-118 3493.06,-137 3587.06,-137 3587.06,-118 3493.06,-118"/>
<text text-anchor="middle" x="3540.06" y="-125" font-family="Helvetica,sans-Serif" font-size="10.00">base/vec/vec3.h</text>
</a>
</g>
</g>
<!-- Node3&#45;&gt;Node6 -->
<g id="edge6" class="edge"><title>Node3&#45;&gt;Node6</title>
<path fill="none" stroke="midnightblue" d="M3322.13,-184.936C3367.09,-173.293 3447.56,-152.454 3497.13,-139.617"/>
<polygon fill="midnightblue" stroke="midnightblue" points="3498.11,-142.979 3506.92,-137.083 3496.36,-136.202 3498.11,-142.979"/>
</g>
<!-- Node3&#45;&gt;Node10 -->
<g id="edge11" class="edge"><title>Node3&#45;&gt;Node10</title>
<path fill="none" stroke="midnightblue" d="M3340.68,-186.044C3422.04,-174.292 3580.14,-151.455 3670.79,-138.361"/>
<polygon fill="midnightblue" stroke="midnightblue" points="3671.57,-141.785 3680.97,-136.892 3670.57,-134.857 3671.57,-141.785"/>
</g>
<!-- Node12 -->
<g id="node13" class="node"><title>Node12</title>
<polygon fill="white" stroke="#bfbfbf" points="2640.56,-0.5 2640.56,-19.5 2687.56,-19.5 2687.56,-0.5 2640.56,-0.5"/>
<text text-anchor="middle" x="2664.06" y="-7.5" font-family="Helvetica,sans-Serif" font-size="10.00">vector</text>
</g>
<!-- Node3&#45;&gt;Node12 -->
<g id="edge19" class="edge"><title>Node3&#45;&gt;Node12</title>
<path fill="none" stroke="midnightblue" d="M3297.16,-184.906C3310.16,-170.013 3333.16,-138.465 3322.06,-112 3308.33,-79.2499 3297.41,-70.6639 3265.06,-56 3162.81,-9.64204 2809.64,-9.38415 2698.1,-10.5129"/>
<polygon fill="midnightblue" stroke="midnightblue" points="2697.74,-7.01666 2687.78,-10.6287 2697.82,-14.0162 2697.74,-7.01666"/>
</g>
<!-- Node13 -->
<g id="node14" class="node"><title>Node13</title>
<polygon fill="white" stroke="#bfbfbf" points="3173.56,-118 3173.56,-137 3222.56,-137 3222.56,-118 3173.56,-118"/>
<text text-anchor="middle" x="3198.06" y="-125" font-family="Helvetica,sans-Serif" font-size="10.00">cstdint</text>
</g>
<!-- Node3&#45;&gt;Node13 -->
<g id="edge15" class="edge"><title>Node3&#45;&gt;Node13</title>
<path fill="none" stroke="midnightblue" d="M3276.79,-184.734C3261.92,-174.111 3236.63,-156.049 3218.73,-143.264"/>
<polygon fill="midnightblue" stroke="midnightblue" points="3220.31,-140.092 3210.14,-137.127 3216.24,-145.788 3220.31,-140.092"/>
</g>
<!-- Node14 -->
<g id="node15" class="node"><title>Node14</title>
<polygon fill="white" stroke="#bfbfbf" points="2692.06,-56.5 2692.06,-75.5 2756.06,-75.5 2756.06,-56.5 2692.06,-56.5"/>
<text text-anchor="middle" x="2724.06" y="-63.5" font-family="Helvetica,sans-Serif" font-size="10.00">stdexcept</text>
</g>
<!-- Node3&#45;&gt;Node14 -->
<g id="edge16" class="edge"><title>Node3&#45;&gt;Node14</title>
<path fill="none" stroke="midnightblue" d="M3285.88,-184.929C3278.95,-167.628 3260.69,-128.756 3231.06,-112 3143.3,-62.3688 2883.64,-89.4657 2766.43,-75.8476"/>
<polygon fill="midnightblue" stroke="midnightblue" points="2766.58,-72.3381 2756.21,-74.5001 2765.67,-79.2779 2766.58,-72.3381"/>
</g>
<!-- Node3&#45;&gt;Node15 -->
<g id="edge17" class="edge"><title>Node3&#45;&gt;Node15</title>
<path fill="none" stroke="midnightblue" d="M3237.4,-192.013C3145.44,-189.369 2947.3,-183.687 2780.06,-179 2634.95,-174.933 1611.58,-189.504 1474.06,-143 1451.74,-135.453 1451.54,-123.647 1431.06,-112 1376.73,-81.1013 1362.95,-70.1206 1302.06,-56 1117.24,-13.1379 508.898,-10.8417 361.459,-10.9283"/>
<polygon fill="midnightblue" stroke="midnightblue" points="361.266,-7.4284 351.27,-10.9387 361.274,-14.4284 361.266,-7.4284"/>
</g>
<!-- Node16 -->
<g id="node17" class="node"><title>Node16</title>
<polygon fill="white" stroke="#bfbfbf" points="2774.06,-56.5 2774.06,-75.5 2842.06,-75.5 2842.06,-56.5 2774.06,-56.5"/>
<text text-anchor="middle" x="2808.06" y="-63.5" font-family="Helvetica,sans-Serif" font-size="10.00">type_traits</text>
</g>
<!-- Node3&#45;&gt;Node16 -->
<g id="edge18" class="edge"><title>Node3&#45;&gt;Node16</title>
<path fill="none" stroke="midnightblue" d="M3294.76,-184.563C3304.54,-167.969 3321.76,-132.25 3303.06,-112 3270.48,-76.7228 2934.69,-82.5068 2852.48,-75.6723"/>
<polygon fill="midnightblue" stroke="midnightblue" points="2852.58,-72.1623 2842.26,-74.566 2851.83,-79.1217 2852.58,-72.1623"/>
</g>
<!-- Node5 -->
<g id="node6" class="node"><title>Node5</title>
<polygon fill="white" stroke="#bfbfbf" points="3412.06,-56.5 3412.06,-75.5 3456.06,-75.5 3456.06,-56.5 3412.06,-56.5"/>
<text text-anchor="middle" x="3434.06" y="-63.5" font-family="Helvetica,sans-Serif" font-size="10.00">bitset</text>
</g>
<!-- Node4&#45;&gt;Node5 -->
<g id="edge5" class="edge"><title>Node4&#45;&gt;Node5</title>
<path fill="none" stroke="midnightblue" d="M3434.06,-117.975C3434.06,-109.58 3434.06,-96.4806 3434.06,-85.6631"/>
<polygon fill="midnightblue" stroke="midnightblue" points="3437.56,-85.5091 3434.06,-75.5091 3430.56,-85.5091 3437.56,-85.5091"/>
</g>
<!-- Node7 -->
<g id="node8" class="node"><title>Node7</title>
<g id="a_node8"><a xlink:href="vec2_8h.html" target="_top" xlink:title="vec2.h">
<polygon fill="white" stroke="black" points="3566.06,-56.5 3566.06,-75.5 3614.06,-75.5 3614.06,-56.5 3566.06,-56.5"/>
<text text-anchor="middle" x="3590.06" y="-63.5" font-family="Helvetica,sans-Serif" font-size="10.00">vec2.h</text>
</a>
</g>
</g>
<!-- Node6&#45;&gt;Node7 -->
<g id="edge7" class="edge"><title>Node6&#45;&gt;Node7</title>
<path fill="none" stroke="midnightblue" d="M3547.23,-117.975C3554.8,-108.962 3566.93,-94.5246 3576.35,-83.3118"/>
<polygon fill="midnightblue" stroke="midnightblue" points="3579.16,-85.4166 3582.91,-75.5091 3573.8,-80.9132 3579.16,-85.4166"/>
</g>
<!-- Node8 -->
<g id="node9" class="node"><title>Node8</title>
<polygon fill="white" stroke="#bfbfbf" points="3476.56,-0.5 3476.56,-19.5 3523.56,-19.5 3523.56,-0.5 3476.56,-0.5"/>
<text text-anchor="middle" x="3500.06" y="-7.5" font-family="Helvetica,sans-Serif" font-size="10.00">cmath</text>
</g>
<!-- Node6&#45;&gt;Node8 -->
<g id="edge10" class="edge"><title>Node6&#45;&gt;Node8</title>
<path fill="none" stroke="midnightblue" d="M3537.06,-117.819C3530.57,-99.0896 3515.14,-54.5458 3506.4,-29.2924"/>
<polygon fill="midnightblue" stroke="midnightblue" points="3509.68,-28.086 3503.1,-19.782 3503.07,-30.3768 3509.68,-28.086"/>
</g>
<!-- Node9 -->
<g id="node10" class="node"><title>Node9</title>
<polygon fill="white" stroke="#bfbfbf" points="3021.56,-56.5 3021.56,-75.5 3078.56,-75.5 3078.56,-56.5 3021.56,-56.5"/>
<text text-anchor="middle" x="3050.06" y="-63.5" font-family="Helvetica,sans-Serif" font-size="10.00">ostream</text>
</g>
<!-- Node6&#45;&gt;Node9 -->
<g id="edge9" class="edge"><title>Node6&#45;&gt;Node9</title>
<path fill="none" stroke="midnightblue" d="M3510.07,-117.999C3501.41,-115.782 3491.91,-113.576 3483.06,-112 3338.8,-86.2959 3164.69,-73.7148 3088.69,-69.1226"/>
<polygon fill="midnightblue" stroke="midnightblue" points="3088.82,-65.6242 3078.63,-68.5271 3088.41,-72.612 3088.82,-65.6242"/>
</g>
<!-- Node7&#45;&gt;Node8 -->
<g id="edge8" class="edge"><title>Node7&#45;&gt;Node8</title>
<path fill="none" stroke="midnightblue" d="M3575.6,-56.324C3561.56,-47.9002 3540.01,-34.9709 3523.52,-25.0741"/>
<polygon fill="midnightblue" stroke="midnightblue" points="3524.86,-21.7983 3514.49,-19.6545 3521.26,-27.8007 3524.86,-21.7983"/>
</g>
<!-- Node10&#45;&gt;Node8 -->
<g id="edge12" class="edge"><title>Node10&#45;&gt;Node8</title>
<path fill="none" stroke="midnightblue" d="M3738.87,-117.638C3738.04,-102.6 3734.09,-72.1485 3716.06,-56 3689.51,-32.2205 3587.42,-19.2338 3533.65,-13.9145"/>
<polygon fill="midnightblue" stroke="midnightblue" points="3533.86,-10.419 3523.57,-12.9519 3533.19,-17.3873 3533.86,-10.419"/>
</g>
<!-- Node11 -->
<g id="node12" class="node"><title>Node11</title>
<polygon fill="white" stroke="#bfbfbf" points="3632.06,-56.5 3632.06,-75.5 3674.06,-75.5 3674.06,-56.5 3632.06,-56.5"/>
<text text-anchor="middle" x="3653.06" y="-63.5" font-family="Helvetica,sans-Serif" font-size="10.00">limits</text>
</g>
<!-- Node10&#45;&gt;Node11 -->
<g id="edge13" class="edge"><title>Node10&#45;&gt;Node11</title>
<path fill="none" stroke="midnightblue" d="M3726.74,-117.975C3712.95,-108.431 3690.36,-92.8073 3673.83,-81.3683"/>
<polygon fill="midnightblue" stroke="midnightblue" points="3675.58,-78.3205 3665.36,-75.5091 3671.59,-84.077 3675.58,-78.3205"/>
</g>
<!-- Node10&#45;&gt;Node12 -->
<g id="edge14" class="edge"><title>Node10&#45;&gt;Node12</title>
<path fill="none" stroke="midnightblue" d="M3735.21,-117.797C3727.74,-102.135 3709.65,-69.5697 3683.06,-56 3593.73,-10.4192 2864.62,-10.2698 2697.92,-10.8396"/>
<polygon fill="midnightblue" stroke="midnightblue" points="2697.75,-7.34006 2687.77,-10.8777 2697.78,-14.34 2697.75,-7.34006"/>
</g>
<!-- Node17&#45;&gt;Node3 -->
<g id="edge21" class="edge"><title>Node17&#45;&gt;Node3</title>
<path fill="none" stroke="midnightblue" d="M2137.92,-256.982C2351.08,-245.598 3020.29,-209.855 3227.37,-198.795"/>
<polygon fill="midnightblue" stroke="midnightblue" points="3227.66,-202.285 3237.46,-198.256 3227.28,-195.295 3227.66,-202.285"/>
</g>
<!-- Node18 -->
<g id="node19" class="node"><title>Node18</title>
<g id="a_node19"><a xlink:href="mapped__vectors_8h.html" target="_top" xlink:title="base/std_ext/mapped\l_vectors.h">
<polygon fill="white" stroke="black" points="2012.56,-179.5 2012.56,-209.5 2133.56,-209.5 2133.56,-179.5 2012.56,-179.5"/>
<text text-anchor="start" x="2020.56" y="-197.5" font-family="Helvetica,sans-Serif" font-size="10.00">base/std_ext/mapped</text>
<text text-anchor="middle" x="2073.06" y="-186.5" font-family="Helvetica,sans-Serif" font-size="10.00">_vectors.h</text>
</a>
</g>
</g>
<!-- Node17&#45;&gt;Node18 -->
<g id="edge22" class="edge"><title>Node17&#45;&gt;Node18</title>
<path fill="none" stroke="midnightblue" d="M2072.28,-246.396C2072.4,-238.645 2072.55,-228.812 2072.69,-219.86"/>
<polygon fill="midnightblue" stroke="midnightblue" points="2076.19,-219.629 2072.85,-209.577 2069.19,-219.521 2076.19,-219.629"/>
</g>
<!-- Node17&#45;&gt;Node20 -->
<g id="edge34" class="edge"><title>Node17&#45;&gt;Node20</title>
<path fill="none" stroke="midnightblue" d="M2034.51,-246.442C2012.16,-237.381 1983.64,-224.586 1960.06,-210 1941.53,-198.534 1942.33,-187.006 1922.06,-179 1702.88,-92.4402 1612.24,-229.56 1393.06,-143 1372.79,-134.994 1373.36,-123.835 1355.06,-112 1335.88,-99.595 1312.8,-88.1203 1294.82,-79.8629"/>
<polygon fill="midnightblue" stroke="midnightblue" points="1295.97,-76.5407 1285.42,-75.621 1293.09,-82.9221 1295.97,-76.5407"/>
</g>
<!-- Node17&#45;&gt;Node21 -->
<g id="edge36" class="edge"><title>Node17&#45;&gt;Node21</title>
<path fill="none" stroke="midnightblue" d="M2097.97,-246.4C2112.44,-237.492 2129.94,-224.867 2142.06,-210 2172.23,-172.993 2153.25,-146.681 2186.06,-112 2203.2,-93.8858 2229.25,-81.7583 2248.38,-74.7026"/>
<polygon fill="midnightblue" stroke="midnightblue" points="2249.63,-77.9724 2257.93,-71.3846 2247.34,-71.36 2249.63,-77.9724"/>
</g>
<!-- Node22 -->
<g id="node23" class="node"><title>Node22</title>
<g id="a_node23"><a xlink:href="shared__ptr__container_8h.html" target="_top" xlink:title="base/std_ext/shared\l_ptr_container.h">
<polygon fill="white" stroke="black" points="1653.06,-112.5 1653.06,-142.5 1767.06,-142.5 1767.06,-112.5 1653.06,-112.5"/>
<text text-anchor="start" x="1661.06" y="-130.5" font-family="Helvetica,sans-Serif" font-size="10.00">base/std_ext/shared</text>
<text text-anchor="middle" x="1710.06" y="-119.5" font-family="Helvetica,sans-Serif" font-size="10.00">_ptr_container.h</text>
</a>
</g>
</g>
<!-- Node17&#45;&gt;Node22 -->
<g id="edge29" class="edge"><title>Node17&#45;&gt;Node22</title>
<path fill="none" stroke="midnightblue" d="M2052.83,-246.424C2021.15,-223.256 1961.35,-179.569 1960.06,-179 1927.95,-164.884 1839.84,-148.898 1777.33,-138.764"/>
<polygon fill="midnightblue" stroke="midnightblue" points="1777.58,-135.258 1767.15,-137.127 1776.46,-142.169 1777.58,-135.258"/>
</g>
<!-- Node17&#45;&gt;Node23 -->
<g id="edge37" class="edge"><title>Node17&#45;&gt;Node23</title>
<path fill="none" stroke="midnightblue" d="M2006.13,-258.903C1741.58,-252.398 764.653,-227.419 627.062,-210 489.804,-192.623 422.255,-239.449 323.062,-143 307.784,-128.145 304.09,-103.005 303.523,-85.7343"/>
<polygon fill="midnightblue" stroke="midnightblue" points="307.023,-85.7044 303.512,-75.7083 300.023,-85.7122 307.023,-85.7044"/>
</g>
<!-- Node17&#45;&gt;Node25 -->
<g id="edge35" class="edge"><title>Node17&#45;&gt;Node25</title>
<path fill="none" stroke="midnightblue" d="M2018.34,-246.476C1967.31,-233.155 1892.53,-213.633 1851.91,-203.03"/>
<polygon fill="midnightblue" stroke="midnightblue" points="1852.67,-199.613 1842.11,-200.474 1850.91,-206.386 1852.67,-199.613"/>
</g>
<!-- Node18&#45;&gt;Node12 -->
<g id="edge26" class="edge"><title>Node18&#45;&gt;Node12</title>
<path fill="none" stroke="midnightblue" d="M2133.64,-191.513C2267.48,-186.609 2579.54,-172.156 2617.06,-143 2652.5,-115.458 2661.27,-59.0487 2663.4,-29.6901"/>
<polygon fill="midnightblue" stroke="midnightblue" points="2666.91,-29.7333 2663.95,-19.5594 2659.92,-29.3566 2666.91,-29.7333"/>
</g>
<!-- Node18&#45;&gt;Node16 -->
<g id="edge28" class="edge"><title>Node18&#45;&gt;Node16</title>
<path fill="none" stroke="midnightblue" d="M2121.87,-179.425C2186.87,-161.2 2305.67,-129.681 2409.06,-112 2562.6,-85.7432 2606.13,-99.7205 2763.8,-76.0374"/>
<polygon fill="midnightblue" stroke="midnightblue" points="2764.5,-79.4712 2773.85,-74.4996 2763.44,-72.5516 2764.5,-79.4712"/>
</g>
<!-- Node19 -->
<g id="node20" class="node"><title>Node19</title>
<g id="a_node20"><a xlink:href="memory_8h.html" target="_top" xlink:title="base/std_ext/memory.h">
<polygon fill="white" stroke="black" points="1823.56,-118 1823.56,-137 1952.56,-137 1952.56,-118 1823.56,-118"/>
<text text-anchor="middle" x="1888.06" y="-125" font-family="Helvetica,sans-Serif" font-size="10.00">base/std_ext/memory.h</text>
</a>
</g>
</g>
<!-- Node18&#45;&gt;Node19 -->
<g id="edge23" class="edge"><title>Node18&#45;&gt;Node19</title>
<path fill="none" stroke="midnightblue" d="M2032.92,-179.396C1999.74,-167.739 1953.16,-151.373 1921.86,-140.376"/>
<polygon fill="midnightblue" stroke="midnightblue" points="1922.87,-137.02 1912.27,-137.007 1920.55,-143.624 1922.87,-137.02"/>
</g>
<!-- Node18&#45;&gt;Node20 -->
<g id="edge27" class="edge"><title>Node18&#45;&gt;Node20</title>
<path fill="none" stroke="midnightblue" d="M2012.44,-185.059C1995.51,-182.882 1977.09,-180.681 1960.06,-179 1845.01,-167.638 1550.75,-179.515 1441.06,-143 1416.97,-134.979 1415.87,-123.178 1393.06,-112 1364.12,-97.8133 1329.55,-85.9358 1303.63,-77.9521"/>
<polygon fill="midnightblue" stroke="midnightblue" points="1304.39,-74.5243 1293.8,-74.9824 1302.36,-81.2251 1304.39,-74.5243"/>
</g>
<!-- Node19&#45;&gt;Node20 -->
<g id="edge24" class="edge"><title>Node19&#45;&gt;Node20</title>
<path fill="none" stroke="midnightblue" d="M1825.91,-117.994C1809.7,-115.901 1792.24,-113.759 1776.06,-112 1599.92,-92.8499 1388.93,-76.2863 1303.64,-69.8551"/>
<polygon fill="midnightblue" stroke="midnightblue" points="1303.87,-66.3626 1293.63,-69.1038 1303.34,-73.3429 1303.87,-66.3626"/>
</g>
<!-- Node19&#45;&gt;Node21 -->
<g id="edge25" class="edge"><title>Node19&#45;&gt;Node21</title>
<path fill="none" stroke="midnightblue" d="M1928.92,-117.989C1939.38,-115.92 1950.62,-113.789 1961.06,-112 2067.07,-93.8403 2194.18,-77.0429 2247.53,-70.2178"/>
<polygon fill="midnightblue" stroke="midnightblue" points="2248.28,-73.6505 2257.76,-68.9159 2247.4,-66.7065 2248.28,-73.6505"/>
</g>
<!-- Node22&#45;&gt;Node12 -->
<g id="edge30" class="edge"><title>Node22&#45;&gt;Node12</title>
<path fill="none" stroke="midnightblue" d="M1767.37,-114.587C1772,-113.689 1776.61,-112.816 1781.06,-112 1879.38,-93.996 1906.94,-103.41 2003.06,-76 2025.29,-69.6625 2028.58,-61.3596 2051.06,-56 2162.55,-29.4198 2518.58,-15.7616 2630.23,-12.0553"/>
<polygon fill="midnightblue" stroke="midnightblue" points="2630.38,-15.5525 2640.26,-11.7275 2630.15,-8.55619 2630.38,-15.5525"/>
</g>
<!-- Node22&#45;&gt;Node20 -->
<g id="edge31" class="edge"><title>Node22&#45;&gt;Node20</title>
<path fill="none" stroke="midnightblue" d="M1652.85,-118.54C1637.35,-116.399 1620.56,-114.096 1605.06,-112 1496.01,-97.2543 1367.22,-80.3469 1304.02,-72.0836"/>
<polygon fill="midnightblue" stroke="midnightblue" points="1304.1,-68.5638 1293.73,-70.7383 1303.19,-75.5048 1304.1,-68.5638"/>
</g>
<!-- Node22&#45;&gt;Node23 -->
<g id="edge32" class="edge"><title>Node22&#45;&gt;Node23</title>
<path fill="none" stroke="midnightblue" d="M1652.96,-117.53C1637.46,-115.391 1620.65,-113.342 1605.06,-112 1351.9,-90.1995 539.711,-71.9778 345.884,-67.8677"/>
<polygon fill="midnightblue" stroke="midnightblue" points="345.893,-64.3672 335.821,-67.6552 345.745,-71.3656 345.893,-64.3672"/>
</g>
<!-- Node24 -->
<g id="node25" class="node"><title>Node24</title>
<polygon fill="white" stroke="#bfbfbf" points="1680.06,-0.5 1680.06,-19.5 1742.06,-19.5 1742.06,-0.5 1680.06,-0.5"/>
<text text-anchor="middle" x="1711.06" y="-7.5" font-family="Helvetica,sans-Serif" font-size="10.00">algorithm</text>
</g>
<!-- Node22&#45;&gt;Node24 -->
<g id="edge33" class="edge"><title>Node22&#45;&gt;Node24</title>
<path fill="none" stroke="midnightblue" d="M1719.39,-112.154C1725.16,-102.398 1732.03,-88.9548 1735.06,-76 1737.09,-67.3449 1737.22,-64.6235 1735.06,-56 1732.62,-46.2452 1727.63,-36.2896 1722.82,-28.231"/>
<polygon fill="midnightblue" stroke="midnightblue" points="1725.75,-26.3225 1717.43,-19.768 1719.85,-30.0828 1725.75,-26.3225"/>
</g>
<!-- Node26&#45;&gt;Node12 -->
<g id="edge97" class="edge"><title>Node26&#45;&gt;Node12</title>
<path fill="none" stroke="midnightblue" d="M1396.4,-313.495C1461.96,-290.934 1641.4,-225.603 1776.06,-143 1794.64,-131.603 1794.17,-120.903 1814.06,-112 1907.3,-70.2739 1940.94,-96.2616 2041.06,-76 2077.41,-68.6449 2085.47,-61.9975 2122.06,-56 2312.61,-24.7689 2544.6,-14.7186 2630.22,-11.9389"/>
<polygon fill="midnightblue" stroke="midnightblue" points="2630.5,-15.4319 2640.39,-11.621 2630.29,-8.43528 2630.5,-15.4319"/>
</g>
<!-- Node26&#45;&gt;Node17 -->
<g id="edge39" class="edge"><title>Node26&#45;&gt;Node17</title>
<path fill="none" stroke="midnightblue" d="M1435.75,-316.509C1565.71,-305.479 1857.85,-280.682 1996.4,-268.922"/>
<polygon fill="midnightblue" stroke="midnightblue" points="1996.84,-272.397 2006.51,-268.064 1996.25,-265.423 1996.84,-272.397"/>
</g>
<!-- Node27 -->
<g id="node28" class="node"><title>Node27</title>
<g id="a_node28"><a xlink:href="_manager__traits_8h.html" target="_top" xlink:title="calibration/gui/Manager\l_traits.h">
<polygon fill="white" stroke="black" points="1281.06,-246.5 1281.06,-276.5 1409.06,-276.5 1409.06,-246.5 1281.06,-246.5"/>
<text text-anchor="start" x="1289.06" y="-264.5" font-family="Helvetica,sans-Serif" font-size="10.00">calibration/gui/Manager</text>
<text text-anchor="middle" x="1345.06" y="-253.5" font-family="Helvetica,sans-Serif" font-size="10.00">_traits.h</text>
</a>
</g>
</g>
<!-- Node26&#45;&gt;Node27 -->
<g id="edge40" class="edge"><title>Node26&#45;&gt;Node27</title>
<path fill="none" stroke="midnightblue" d="M1367.34,-313.475C1364.18,-306.245 1359.49,-295.525 1355.23,-285.779"/>
<polygon fill="midnightblue" stroke="midnightblue" points="1358.4,-284.285 1351.19,-276.523 1351.99,-287.088 1358.4,-284.285"/>
</g>
<!-- Node26&#45;&gt;Node50 -->
<g id="edge91" class="edge"><title>Node26&#45;&gt;Node50</title>
<path fill="none" stroke="midnightblue" d="M1306.5,-313.992C1303.31,-313.645 1300.15,-313.312 1297.06,-313 1091.4,-292.207 847.036,-274.515 734.08,-266.735"/>
<polygon fill="midnightblue" stroke="midnightblue" points="734.106,-263.229 723.89,-266.036 733.627,-270.212 734.106,-263.229"/>
</g>
<!-- Node27&#45;&gt;Node15 -->
<g id="edge87" class="edge"><title>Node27&#45;&gt;Node15</title>
<path fill="none" stroke="midnightblue" d="M1280.74,-259.545C1057.99,-255.963 330.954,-241.868 293.062,-210 239.695,-165.118 230.479,-117.651 263.062,-56 270.538,-41.8536 284.681,-31.3181 297.963,-24.0121"/>
<polygon fill="midnightblue" stroke="midnightblue" points="299.593,-27.1101 306.928,-19.4654 296.427,-20.867 299.593,-27.1101"/>
</g>
<!-- Node27&#45;&gt;Node20 -->
<g id="edge89" class="edge"><title>Node27&#45;&gt;Node20</title>
<path fill="none" stroke="midnightblue" d="M1337.51,-246.314C1326.08,-224.51 1304.14,-181.265 1289.06,-143 1281.47,-123.732 1274.55,-101.016 1270.11,-85.4696"/>
<polygon fill="midnightblue" stroke="midnightblue" points="1273.41,-84.2577 1267.35,-75.5686 1266.67,-86.1417 1273.41,-84.2577"/>
</g>
<!-- Node27&#45;&gt;Node21 -->
<g id="edge88" class="edge"><title>Node27&#45;&gt;Node21</title>
<path fill="none" stroke="midnightblue" d="M1409.36,-254.382C1480.18,-246.919 1597.15,-232.449 1696.06,-210 1741.02,-199.795 1749.97,-188.616 1795.06,-179 1929.42,-150.349 1970.43,-182.309 2102.06,-143 2131.58,-134.185 2136.03,-124.775 2164.06,-112 2192.66,-98.9691 2226.15,-85.387 2248.38,-76.5993"/>
<polygon fill="midnightblue" stroke="midnightblue" points="2249.72,-79.8335 2257.75,-72.9182 2247.16,-73.3186 2249.72,-79.8335"/>
</g>
<!-- Node27&#45;&gt;Node23 -->
<g id="edge90" class="edge"><title>Node27&#45;&gt;Node23</title>
<path fill="none" stroke="midnightblue" d="M1280.93,-259.011C1063.97,-253.755 368.674,-235.025 328.062,-210 288.291,-185.493 283.043,-158.185 290.062,-112 291.429,-103.001 294.252,-93.3251 297.007,-85.2601"/>
<polygon fill="midnightblue" stroke="midnightblue" points="300.327,-86.3722 300.462,-75.7782 293.75,-83.9759 300.327,-86.3722"/>
</g>
<!-- Node28 -->
<g id="node29" class="node"><title>Node28</title>
<g id="a_node29"><a xlink:href="interval_8h.html" target="_top" xlink:title="base/interval.h">
<polygon fill="white" stroke="black" points="1970.56,-118 1970.56,-137 2057.56,-137 2057.56,-118 1970.56,-118"/>
<text text-anchor="middle" x="2014.06" y="-125" font-family="Helvetica,sans-Serif" font-size="10.00">base/interval.h</text>
</a>
</g>
</g>
<!-- Node27&#45;&gt;Node28 -->
<g id="edge41" class="edge"><title>Node27&#45;&gt;Node28</title>
<path fill="none" stroke="midnightblue" d="M1409.3,-247.654C1491.15,-231.354 1637.01,-202.53 1762.06,-179 1850.39,-162.379 1873.41,-162.878 1961.06,-143 1965.53,-141.988 1970.18,-140.845 1974.79,-139.657"/>
<polygon fill="midnightblue" stroke="midnightblue" points="1975.97,-142.965 1984.74,-137.017 1974.18,-136.199 1975.97,-142.965"/>
</g>
<!-- Node32 -->
<g id="node33" class="node"><title>Node32</title>
<g id="a_node33"><a xlink:href="_wrap_t_file_8h.html" target="_top" xlink:title="base/WrapTFile.h">
<polygon fill="white" stroke="black" points="636.562,-185 636.562,-204 731.562,-204 731.562,-185 636.562,-185"/>
<text text-anchor="middle" x="684.062" y="-192" font-family="Helvetica,sans-Serif" font-size="10.00">base/WrapTFile.h</text>
</a>
</g>
</g>
<!-- Node27&#45;&gt;Node32 -->
<g id="edge49" class="edge"><title>Node27&#45;&gt;Node32</title>
<path fill="none" stroke="midnightblue" d="M1280.78,-254.179C1152.19,-241.534 865.088,-213.301 741.955,-201.193"/>
<polygon fill="midnightblue" stroke="midnightblue" points="742.261,-197.706 731.966,-200.211 741.576,-204.673 742.261,-197.706"/>
</g>
<!-- Node27&#45;&gt;Node43 -->
<g id="edge74" class="edge"><title>Node27&#45;&gt;Node43</title>
<path fill="none" stroke="midnightblue" d="M1409.45,-257.12C1631.1,-245.482 2358.95,-207.267 2541.33,-197.691"/>
<polygon fill="midnightblue" stroke="midnightblue" points="2541.53,-201.186 2551.33,-197.166 2541.16,-194.195 2541.53,-201.186"/>
</g>
<!-- Node28&#45;&gt;Node8 -->
<g id="edge48" class="edge"><title>Node28&#45;&gt;Node8</title>
<path fill="none" stroke="midnightblue" d="M2046.92,-117.948C2082.98,-108.399 2142.46,-92.1529 2193.06,-76 2218.24,-67.9629 2223.11,-60.978 2249.06,-56 2491.83,-9.43859 3290.99,-10.094 3466,-10.8175"/>
<polygon fill="midnightblue" stroke="midnightblue" points="3466.14,-14.3181 3476.16,-10.8626 3466.17,-7.31819 3466.14,-14.3181"/>
</g>
<!-- Node28&#45;&gt;Node11 -->
<g id="edge45" class="edge"><title>Node28&#45;&gt;Node11</title>
<path fill="none" stroke="midnightblue" d="M2057.6,-124.801C2130.38,-121.985 2281.32,-116.239 2409.06,-112 2675.52,-103.159 3340.15,-118.757 3621.66,-75.7136"/>
<polygon fill="midnightblue" stroke="midnightblue" points="3622.59,-79.1102 3631.92,-74.0908 3621.49,-72.1962 3622.59,-79.1102"/>
</g>
<!-- Node28&#45;&gt;Node14 -->
<g id="edge44" class="edge"><title>Node28&#45;&gt;Node14</title>
<path fill="none" stroke="midnightblue" d="M2057.67,-122.845C2185.18,-112.16 2556.22,-81.0654 2681.88,-70.5346"/>
<polygon fill="midnightblue" stroke="midnightblue" points="2682.22,-74.0191 2691.89,-69.6961 2681.63,-67.0435 2682.22,-74.0191"/>
</g>
<!-- Node28&#45;&gt;Node24 -->
<g id="edge43" class="edge"><title>Node28&#45;&gt;Node24</title>
<path fill="none" stroke="midnightblue" d="M1983.55,-117.986C1976.2,-115.98 1968.36,-113.88 1961.06,-112 1895.09,-95.0091 1874.69,-102.809 1812.06,-76 1781.31,-62.8357 1749.43,-40.6438 1729.92,-25.909"/>
<polygon fill="midnightblue" stroke="midnightblue" points="1731.94,-23.043 1721.88,-19.723 1727.67,-28.5926 1731.94,-23.043"/>
</g>
<!-- Node29 -->
<g id="node30" class="node"><title>Node29</title>
<g id="a_node30"><a xlink:href="types_8h.html" target="_top" xlink:title="types.h">
<polygon fill="white" stroke="black" points="1821.06,-56.5 1821.06,-75.5 1873.06,-75.5 1873.06,-56.5 1821.06,-56.5"/>
<text text-anchor="middle" x="1847.06" y="-63.5" font-family="Helvetica,sans-Serif" font-size="10.00">types.h</text>
</a>
</g>
</g>
<!-- Node28&#45;&gt;Node29 -->
<g id="edge42" class="edge"><title>Node28&#45;&gt;Node29</title>
<path fill="none" stroke="midnightblue" d="M1990.13,-117.975C1961.36,-107.725 1912.91,-90.4593 1880.46,-78.8994"/>
<polygon fill="midnightblue" stroke="midnightblue" points="1881.54,-75.5684 1870.94,-75.5091 1879.19,-82.1624 1881.54,-75.5684"/>
</g>
<!-- Node30 -->
<g id="node31" class="node"><title>Node30</title>
<polygon fill="white" stroke="#bfbfbf" points="2131.56,-56.5 2131.56,-75.5 2184.56,-75.5 2184.56,-56.5 2131.56,-56.5"/>
<text text-anchor="middle" x="2158.06" y="-63.5" font-family="Helvetica,sans-Serif" font-size="10.00">istream</text>
</g>
<!-- Node28&#45;&gt;Node30 -->
<g id="edge46" class="edge"><title>Node28&#45;&gt;Node30</title>
<path fill="none" stroke="midnightblue" d="M2034.69,-117.975C2059.18,-107.857 2100.21,-90.9046 2128.17,-79.3507"/>
<polygon fill="midnightblue" stroke="midnightblue" points="2129.56,-82.5627 2137.47,-75.5091 2126.89,-76.0932 2129.56,-82.5627"/>
</g>
<!-- Node31 -->
<g id="node32" class="node"><title>Node31</title>
<polygon fill="white" stroke="#bfbfbf" points="1553.06,-0.5 1553.06,-19.5 1609.06,-19.5 1609.06,-0.5 1553.06,-0.5"/>
<text text-anchor="middle" x="1581.06" y="-7.5" font-family="Helvetica,sans-Serif" font-size="10.00">sstream</text>
</g>
<!-- Node28&#45;&gt;Node31 -->
<g id="edge47" class="edge"><title>Node28&#45;&gt;Node31</title>
<path fill="none" stroke="midnightblue" d="M1986.21,-117.938C1978.16,-115.721 1969.32,-113.53 1961.06,-112 1881.79,-97.3111 1662.09,-127.498 1600.06,-76 1586.65,-64.8687 1582.4,-44.8379 1581.2,-29.9442"/>
<polygon fill="midnightblue" stroke="midnightblue" points="1584.69,-29.6328 1580.77,-19.7888 1577.7,-29.927 1584.69,-29.6328"/>
</g>
<!-- Node32&#45;&gt;Node14 -->
<g id="edge72" class="edge"><title>Node32&#45;&gt;Node14</title>
<path fill="none" stroke="midnightblue" d="M731.778,-192.771C946.875,-189.336 1827.72,-173.636 2102.06,-143 2175.78,-134.768 2192.63,-122.526 2266.06,-112 2418.39,-90.1641 2600.75,-75.7132 2681.73,-69.895"/>
<polygon fill="midnightblue" stroke="midnightblue" points="2682.29,-73.3643 2692.02,-69.1636 2681.79,-66.382 2682.29,-73.3643"/>
</g>
<!-- Node32&#45;&gt;Node15 -->
<g id="edge69" class="edge"><title>Node32&#45;&gt;Node15</title>
<path fill="none" stroke="midnightblue" d="M636.435,-191.75C586.679,-188.06 507.831,-176.831 449.062,-143 422.932,-127.958 367.139,-59.4467 341.915,-27.496"/>
<polygon fill="midnightblue" stroke="midnightblue" points="344.589,-25.2339 335.662,-19.5286 339.083,-29.5559 344.589,-25.2339"/>
</g>
<!-- Node32&#45;&gt;Node20 -->
<g id="edge68" class="edge"><title>Node32&#45;&gt;Node20</title>
<path fill="none" stroke="midnightblue" d="M731.829,-193.259C798.382,-191.392 921.678,-182.32 1018.06,-143 1039.88,-134.101 1039.56,-121.626 1061.06,-112 1115.53,-87.6169 1184.27,-75.9872 1226.42,-70.7899"/>
<polygon fill="midnightblue" stroke="midnightblue" points="1227.01,-74.2442 1236.54,-69.6033 1226.2,-67.2918 1227.01,-74.2442"/>
</g>
<!-- Node32&#45;&gt;Node21 -->
<g id="edge70" class="edge"><title>Node32&#45;&gt;Node21</title>
<path fill="none" stroke="midnightblue" d="M731.633,-193.366C959.944,-192.507 1937.59,-186.31 2066.06,-143 2088.73,-135.358 2088.43,-122.223 2110.06,-112 2122.6,-106.073 2205.46,-84.373 2247.98,-73.4182"/>
<polygon fill="midnightblue" stroke="midnightblue" points="2249.04,-76.7597 2257.85,-70.8807 2247.29,-69.98 2249.04,-76.7597"/>
</g>
<!-- Node32&#45;&gt;Node23 -->
<g id="edge73" class="edge"><title>Node32&#45;&gt;Node23</title>
<path fill="none" stroke="midnightblue" d="M636.248,-190.782C581.181,-186.247 488.938,-174.28 416.062,-143 394.412,-133.707 392.489,-125.327 373.062,-112 357.634,-101.417 339.957,-89.8997 326.357,-81.1662"/>
<polygon fill="midnightblue" stroke="midnightblue" points="327.981,-78.0503 317.671,-75.6104 324.209,-83.9472 327.981,-78.0503"/>
</g>
<!-- Node33 -->
<g id="node34" class="node"><title>Node33</title>
<g id="a_node34"><a xlink:href="string_8h.html" target="_top" xlink:title="base/std_ext/string.h">
<polygon fill="white" stroke="black" points="1609.56,-56.5 1609.56,-75.5 1726.56,-75.5 1726.56,-56.5 1609.56,-56.5"/>
<text text-anchor="middle" x="1668.06" y="-63.5" font-family="Helvetica,sans-Serif" font-size="10.00">base/std_ext/string.h</text>
</a>
</g>
</g>
<!-- Node32&#45;&gt;Node33 -->
<g id="edge50" class="edge"><title>Node32&#45;&gt;Node33</title>
<path fill="none" stroke="midnightblue" d="M731.614,-193.109C909.122,-191.35 1526.81,-182.427 1605.06,-143 1630.11,-130.377 1648.89,-102.825 1659.17,-84.5957"/>
<polygon fill="midnightblue" stroke="midnightblue" points="1662.36,-86.0499 1663.99,-75.5816 1656.19,-82.7472 1662.36,-86.0499"/>
</g>
<!-- Node34 -->
<g id="node35" class="node"><title>Node34</title>
<g id="a_node35"><a xlink:href="misc_8h.html" target="_top" xlink:title="base/std_ext/misc.h">
<polygon fill="white" stroke="black" points="1483.56,-118 1483.56,-137 1596.56,-137 1596.56,-118 1483.56,-118"/>
<text text-anchor="middle" x="1540.06" y="-125" font-family="Helvetica,sans-Serif" font-size="10.00">base/std_ext/misc.h</text>
</a>
</g>
</g>
<!-- Node32&#45;&gt;Node34 -->
<g id="edge55" class="edge"><title>Node32&#45;&gt;Node34</title>
<path fill="none" stroke="midnightblue" d="M731.61,-189.889C875.524,-178.961 1306.73,-146.218 1473.34,-133.567"/>
<polygon fill="midnightblue" stroke="midnightblue" points="1473.74,-137.046 1483.45,-132.799 1473.21,-130.066 1473.74,-137.046"/>
</g>
<!-- Node36 -->
<g id="node37" class="node"><title>Node36</title>
<polygon fill="white" stroke="#bfbfbf" points="845.062,-118 845.062,-137 891.062,-137 891.062,-118 845.062,-118"/>
<text text-anchor="middle" x="868.062" y="-125" font-family="Helvetica,sans-Serif" font-size="10.00">TFile.h</text>
</g>
<!-- Node32&#45;&gt;Node36 -->
<g id="edge62" class="edge"><title>Node32&#45;&gt;Node36</title>
<path fill="none" stroke="midnightblue" d="M712.673,-184.976C743.466,-175.575 793.725,-159.572 836.062,-143 837.482,-142.444 838.929,-141.859 840.386,-141.254"/>
<polygon fill="midnightblue" stroke="midnightblue" points="842.146,-144.306 849.926,-137.115 839.36,-137.885 842.146,-144.306"/>
</g>
<!-- Node37 -->
<g id="node38" class="node"><title>Node37</title>
<polygon fill="white" stroke="#bfbfbf" points="458.562,-118 458.562,-137 531.562,-137 531.562,-118 458.562,-118"/>
<text text-anchor="middle" x="495.062" y="-125" font-family="Helvetica,sans-Serif" font-size="10.00">TDirectory.h</text>
</g>
<!-- Node32&#45;&gt;Node37 -->
<g id="edge63" class="edge"><title>Node32&#45;&gt;Node37</title>
<path fill="none" stroke="midnightblue" d="M658.964,-184.869C625.688,-173.424 566.825,-153.181 529.437,-140.322"/>
<polygon fill="midnightblue" stroke="midnightblue" points="530.557,-137.006 519.962,-137.064 528.28,-143.626 530.557,-137.006"/>
</g>
<!-- Node38 -->
<g id="node39" class="node"><title>Node38</title>
<polygon fill="white" stroke="#bfbfbf" points="549.562,-118 549.562,-137 602.562,-137 602.562,-118 549.562,-118"/>
<text text-anchor="middle" x="576.062" y="-125" font-family="Helvetica,sans-Serif" font-size="10.00">TError.h</text>
</g>
<!-- Node32&#45;&gt;Node38 -->
<g id="edge64" class="edge"><title>Node32&#45;&gt;Node38</title>
<path fill="none" stroke="midnightblue" d="M669.496,-184.734C651.441,-173.867 620.451,-155.216 599.145,-142.393"/>
<polygon fill="midnightblue" stroke="midnightblue" points="600.769,-139.285 590.396,-137.127 597.159,-145.283 600.769,-139.285"/>
</g>
<!-- Node39 -->
<g id="node40" class="node"><title>Node39</title>
<polygon fill="white" stroke="#bfbfbf" points="620.562,-118 620.562,-137 667.562,-137 667.562,-118 620.562,-118"/>
<text text-anchor="middle" x="644.062" y="-125" font-family="Helvetica,sans-Serif" font-size="10.00">TList.h</text>
</g>
<!-- Node32&#45;&gt;Node39 -->
<g id="edge65" class="edge"><title>Node32&#45;&gt;Node39</title>
<path fill="none" stroke="midnightblue" d="M678.667,-184.734C672.55,-174.793 662.423,-158.338 654.701,-145.789"/>
<polygon fill="midnightblue" stroke="midnightblue" points="657.593,-143.81 649.371,-137.127 651.631,-147.478 657.593,-143.81"/>
</g>
<!-- Node40 -->
<g id="node41" class="node"><title>Node40</title>
<polygon fill="white" stroke="#bfbfbf" points="685.562,-118 685.562,-137 762.562,-137 762.562,-118 685.562,-118"/>
<text text-anchor="middle" x="724.062" y="-125" font-family="Helvetica,sans-Serif" font-size="10.00">TCollection.h</text>
</g>
<!-- Node32&#45;&gt;Node40 -->
<g id="edge66" class="edge"><title>Node32&#45;&gt;Node40</title>
<path fill="none" stroke="midnightblue" d="M689.456,-184.734C695.574,-174.793 705.7,-158.338 713.422,-145.789"/>
<polygon fill="midnightblue" stroke="midnightblue" points="716.492,-147.478 718.753,-137.127 710.531,-143.81 716.492,-147.478"/>
</g>
<!-- Node41 -->
<g id="node42" class="node"><title>Node41</title>
<polygon fill="white" stroke="#bfbfbf" points="781.062,-118 781.062,-137 827.062,-137 827.062,-118 781.062,-118"/>
<text text-anchor="middle" x="804.062" y="-125" font-family="Helvetica,sans-Serif" font-size="10.00">TKey.h</text>
</g>
<!-- Node32&#45;&gt;Node41 -->
<g id="edge67" class="edge"><title>Node32&#45;&gt;Node41</title>
<path fill="none" stroke="midnightblue" d="M700.245,-184.734C720.487,-173.769 755.358,-154.881 779.047,-142.049"/>
<polygon fill="midnightblue" stroke="midnightblue" points="781.008,-144.968 788.134,-137.127 777.674,-138.813 781.008,-144.968"/>
</g>
<!-- Node42 -->
<g id="node43" class="node"><title>Node42</title>
<polygon fill="white" stroke="#bfbfbf" points="332.062,-118 332.062,-137 364.062,-137 364.062,-118 332.062,-118"/>
<text text-anchor="middle" x="348.062" y="-125" font-family="Helvetica,sans-Serif" font-size="10.00">set</text>
</g>
<!-- Node32&#45;&gt;Node42 -->
<g id="edge71" class="edge"><title>Node32&#45;&gt;Node42</title>
<path fill="none" stroke="midnightblue" d="M636.424,-189.891C575.385,-184.31 466.859,-171.14 378.062,-143 376.393,-142.471 374.701,-141.865 373.012,-141.207"/>
<polygon fill="midnightblue" stroke="midnightblue" points="374.156,-137.886 363.594,-137.051 371.33,-144.29 374.156,-137.886"/>
</g>
<!-- Node33&#45;&gt;Node12 -->
<g id="edge54" class="edge"><title>Node33&#45;&gt;Node12</title>
<path fill="none" stroke="midnightblue" d="M1726.91,-61.1935C1752.99,-59.5394 1784.05,-57.6149 1812.06,-56 2130.09,-37.6634 2515.07,-18.3769 2630.07,-12.6775"/>
<polygon fill="midnightblue" stroke="midnightblue" points="2630.53,-16.1591 2640.34,-12.1688 2630.18,-9.16766 2630.53,-16.1591"/>
</g>
<!-- Node33&#45;&gt;Node15 -->
<g id="edge51" class="edge"><title>Node33&#45;&gt;Node15</title>
<path fill="none" stroke="midnightblue" d="M1609.23,-60.9924C1583.15,-59.301 1552.08,-57.403 1524.06,-56 1062.75,-32.902 500.732,-15.9647 361.442,-11.9247"/>
<polygon fill="midnightblue" stroke="midnightblue" points="361.163,-8.41528 351.066,-11.625 360.961,-15.4124 361.163,-8.41528"/>
</g>
<!-- Node33&#45;&gt;Node24 -->
<g id="edge53" class="edge"><title>Node33&#45;&gt;Node24</title>
<path fill="none" stroke="midnightblue" d="M1675.16,-56.083C1681.3,-48.3768 1690.33,-37.0333 1697.8,-27.6531"/>
<polygon fill="midnightblue" stroke="midnightblue" points="1700.6,-29.7542 1704.09,-19.7511 1695.13,-25.3936 1700.6,-29.7542"/>
</g>
<!-- Node33&#45;&gt;Node31 -->
<g id="edge52" class="edge"><title>Node33&#45;&gt;Node31</title>
<path fill="none" stroke="midnightblue" d="M1654.08,-56.324C1640.51,-47.9002 1619.68,-34.9709 1603.74,-25.0741"/>
<polygon fill="midnightblue" stroke="midnightblue" points="1605.35,-21.9544 1595,-19.6545 1601.66,-27.9019 1605.35,-21.9544"/>
</g>
<!-- Node34&#45;&gt;Node8 -->
<g id="edge58" class="edge"><title>Node34&#45;&gt;Node8</title>
<path fill="none" stroke="midnightblue" d="M1596.69,-118.207C1612.04,-116.067 1628.68,-113.848 1644.06,-112 1802.4,-92.9861 1842.98,-97.0135 2001.06,-76 2055.09,-68.8176 2067.82,-61.3455 2122.06,-56 2394.74,-29.1294 3281.78,-14.3299 3466.27,-11.5014"/>
<polygon fill="midnightblue" stroke="midnightblue" points="3466.5,-14.9984 3476.44,-11.3466 3466.39,-7.99919 3466.5,-14.9984"/>
</g>
<!-- Node34&#45;&gt;Node16 -->
<g id="edge60" class="edge"><title>Node34&#45;&gt;Node16</title>
<path fill="none" stroke="midnightblue" d="M1593.11,-117.994C1609.42,-115.679 1627.44,-113.421 1644.06,-112 2137.33,-69.8134 2268.33,-134.391 2763.6,-75.9386"/>
<polygon fill="midnightblue" stroke="midnightblue" points="2764.37,-79.3725 2773.88,-74.7141 2763.54,-72.4217 2764.37,-79.3725"/>
</g>
<!-- Node34&#45;&gt;Node20 -->
<g id="edge61" class="edge"><title>Node34&#45;&gt;Node20</title>
<path fill="none" stroke="midnightblue" d="M1500.66,-117.975C1448.17,-106.618 1355.88,-86.6498 1303.75,-75.371"/>
<polygon fill="midnightblue" stroke="midnightblue" points="1304.4,-71.9302 1293.88,-73.2363 1302.92,-78.7719 1304.4,-71.9302"/>
</g>
<!-- Node34&#45;&gt;Node23 -->
<g id="edge57" class="edge"><title>Node34&#45;&gt;Node23</title>
<path fill="none" stroke="midnightblue" d="M1483.33,-123.769C1271.64,-113.578 530.501,-77.9006 345.933,-69.0156"/>
<polygon fill="midnightblue" stroke="midnightblue" points="345.978,-65.5138 335.821,-68.5289 345.641,-72.5058 345.978,-65.5138"/>
</g>
<!-- Node34&#45;&gt;Node24 -->
<g id="edge56" class="edge"><title>Node34&#45;&gt;Node24</title>
<path fill="none" stroke="midnightblue" d="M1545.33,-117.964C1554.69,-103.419 1575.57,-73.6894 1600.06,-56 1621.11,-40.798 1648.04,-29.7195 1670.1,-22.3588"/>
<polygon fill="midnightblue" stroke="midnightblue" points="1671.4,-25.6186 1679.85,-19.2371 1669.26,-18.9517 1671.4,-25.6186"/>
</g>
<!-- Node35 -->
<g id="node36" class="node"><title>Node35</title>
<polygon fill="white" stroke="#bfbfbf" points="1459.06,-56.5 1459.06,-75.5 1515.06,-75.5 1515.06,-56.5 1459.06,-56.5"/>
<text text-anchor="middle" x="1487.06" y="-63.5" font-family="Helvetica,sans-Serif" font-size="10.00">cxxabi.h</text>
</g>
<!-- Node34&#45;&gt;Node35 -->
<g id="edge59" class="edge"><title>Node34&#45;&gt;Node35</title>
<path fill="none" stroke="midnightblue" d="M1532.47,-117.975C1524.36,-108.873 1511.33,-94.241 1501.3,-82.983"/>
<polygon fill="midnightblue" stroke="midnightblue" points="1503.91,-80.6483 1494.64,-75.5091 1498.68,-85.3043 1503.91,-80.6483"/>
</g>
<!-- Node43&#45;&gt;Node13 -->
<g id="edge82" class="edge"><title>Node43&#45;&gt;Node13</title>
<path fill="none" stroke="midnightblue" d="M2604.03,-184.871C2610.37,-182.596 2617.41,-180.391 2624.06,-179 2840.84,-133.674 2901.44,-171.538 3121.06,-143 3135.01,-141.188 3150.24,-138.475 3163.46,-135.885"/>
<polygon fill="midnightblue" stroke="midnightblue" points="3164.44,-139.257 3173.55,-133.853 3163.06,-132.394 3164.44,-139.257"/>
</g>
<!-- Node43&#45;&gt;Node14 -->
<g id="edge83" class="edge"><title>Node43&#45;&gt;Node14</title>
<path fill="none" stroke="midnightblue" d="M2605.36,-184.974C2632.62,-174.2 2676.67,-155.549 2689.06,-143 2704.97,-126.887 2714.48,-102.223 2719.49,-85.3929"/>
<polygon fill="midnightblue" stroke="midnightblue" points="2722.89,-86.2016 2722.15,-75.633 2716.14,-84.3594 2722.89,-86.2016"/>
</g>
<!-- Node43&#45;&gt;Node16 -->
<g id="edge80" class="edge"><title>Node43&#45;&gt;Node16</title>
<path fill="none" stroke="midnightblue" d="M2606.3,-184.989C2641.27,-172.115 2704.38,-148.594 2714.06,-143 2744,-125.701 2774.34,-99.1877 2792.16,-82.4867"/>
<polygon fill="midnightblue" stroke="midnightblue" points="2794.6,-85.0029 2799.42,-75.5722 2789.77,-79.9336 2794.6,-85.0029"/>
</g>
<!-- Node43&#45;&gt;Node21 -->
<g id="edge84" class="edge"><title>Node43&#45;&gt;Node21</title>
<path fill="none" stroke="midnightblue" d="M2592.01,-184.914C2607.65,-168.905 2636.48,-134.123 2617.06,-112 2596.04,-88.0541 2374.76,-72.9502 2298.63,-68.4308"/>
<polygon fill="midnightblue" stroke="midnightblue" points="2298.67,-64.9277 2288.49,-67.841 2298.27,-71.9159 2298.67,-64.9277"/>
</g>
<!-- Node44 -->
<g id="node45" class="node"><title>Node44</title>
<polygon fill="white" stroke="#bfbfbf" points="2418.06,-118 2418.06,-137 2476.06,-137 2476.06,-118 2418.06,-118"/>
<text text-anchor="middle" x="2447.06" y="-125" font-family="Helvetica,sans-Serif" font-size="10.00">Rtypes.h</text>
</g>
<!-- Node43&#45;&gt;Node44 -->
<g id="edge75" class="edge"><title>Node43&#45;&gt;Node44</title>
<path fill="none" stroke="midnightblue" d="M2565,-184.869C2541.84,-173.796 2501.43,-154.486 2474.47,-141.598"/>
<polygon fill="midnightblue" stroke="midnightblue" points="2475.73,-138.322 2465.2,-137.167 2472.71,-144.637 2475.73,-138.322"/>
</g>
<!-- Node45 -->
<g id="node46" class="node"><title>Node45</title>
<g id="a_node46"><a xlink:href="base_2std__ext_2_time_8h.html" target="_top" xlink:title="base/std_ext/time.h">
<polygon fill="white" stroke="black" points="2779.06,-118 2779.06,-137 2891.06,-137 2891.06,-118 2779.06,-118"/>
<text text-anchor="middle" x="2835.06" y="-125" font-family="Helvetica,sans-Serif" font-size="10.00">base/std_ext/time.h</text>
</a>
</g>
</g>
<!-- Node43&#45;&gt;Node45 -->
<g id="edge76" class="edge"><title>Node43&#45;&gt;Node45</title>
<path fill="none" stroke="midnightblue" d="M2605.91,-184.942C2611.78,-182.873 2618.12,-180.755 2624.06,-179 2678.07,-163.035 2740.96,-148.493 2783.94,-139.157"/>
<polygon fill="midnightblue" stroke="midnightblue" points="2784.84,-142.544 2793.88,-137.014 2783.37,-135.701 2784.84,-142.544"/>
</g>
<!-- Node47 -->
<g id="node48" class="node"><title>Node47</title>
<polygon fill="white" stroke="#bfbfbf" points="2957.06,-56.5 2957.06,-75.5 3001.06,-75.5 3001.06,-56.5 2957.06,-56.5"/>
<text text-anchor="middle" x="2979.06" y="-63.5" font-family="Helvetica,sans-Serif" font-size="10.00">ctime</text>
</g>
<!-- Node43&#45;&gt;Node47 -->
<g id="edge86" class="edge"><title>Node43&#45;&gt;Node47</title>
<path fill="none" stroke="midnightblue" d="M2604.04,-184.892C2610.37,-182.618 2617.41,-180.408 2624.06,-179 2674.65,-168.287 3052.94,-180.953 3088.06,-143 3097.42,-132.888 3095.72,-123.451 3088.06,-112 3079.1,-98.6053 3039.94,-84.6662 3011.11,-75.9184"/>
<polygon fill="midnightblue" stroke="midnightblue" points="3011.99,-72.5296 3001.41,-73.0501 3010,-79.2422 3011.99,-72.5296"/>
</g>
<!-- Node48 -->
<g id="node49" class="node"><title>Node48</title>
<polygon fill="white" stroke="#bfbfbf" points="2494.56,-118 2494.56,-137 2535.56,-137 2535.56,-118 2494.56,-118"/>
<text text-anchor="middle" x="2515.06" y="-125" font-family="Helvetica,sans-Serif" font-size="10.00">tuple</text>
</g>
<!-- Node43&#45;&gt;Node48 -->
<g id="edge81" class="edge"><title>Node43&#45;&gt;Node48</title>
<path fill="none" stroke="midnightblue" d="M2573.89,-184.734C2563.08,-174.403 2544.92,-157.037 2531.62,-144.332"/>
<polygon fill="midnightblue" stroke="midnightblue" points="2533.73,-141.507 2524.09,-137.127 2528.9,-146.567 2533.73,-141.507"/>
</g>
<!-- Node49 -->
<g id="node50" class="node"><title>Node49</title>
<polygon fill="white" stroke="#bfbfbf" points="2553.56,-118 2553.56,-137 2608.56,-137 2608.56,-118 2553.56,-118"/>
<text text-anchor="middle" x="2581.06" y="-125" font-family="Helvetica,sans-Serif" font-size="10.00">iomanip</text>
</g>
<!-- Node43&#45;&gt;Node49 -->
<g id="edge85" class="edge"><title>Node43&#45;&gt;Node49</title>
<path fill="none" stroke="midnightblue" d="M2582.79,-184.734C2582.5,-175.183 2582.02,-159.618 2581.64,-147.283"/>
<polygon fill="midnightblue" stroke="midnightblue" points="2585.13,-147.015 2581.33,-137.127 2578.14,-147.23 2585.13,-147.015"/>
</g>
<!-- Node45&#45;&gt;Node33 -->
<g id="edge77" class="edge"><title>Node45&#45;&gt;Node33</title>
<path fill="none" stroke="midnightblue" d="M2778.62,-122.408C2734.62,-119.3 2671.98,-115.054 2617.06,-112 2259.48,-92.1146 2169.68,-95.1707 1812.06,-76 1787.55,-74.686 1760.7,-73.0591 1736.9,-71.5514"/>
<polygon fill="midnightblue" stroke="midnightblue" points="1737.1,-68.0574 1726.9,-70.9139 1736.66,-75.0432 1737.1,-68.0574"/>
</g>
<!-- Node46 -->
<g id="node47" class="node"><title>Node46</title>
<polygon fill="white" stroke="#bfbfbf" points="2860.56,-56.5 2860.56,-75.5 2909.56,-75.5 2909.56,-56.5 2860.56,-56.5"/>
<text text-anchor="middle" x="2885.06" y="-63.5" font-family="Helvetica,sans-Serif" font-size="10.00">cstring</text>
</g>
<!-- Node45&#45;&gt;Node46 -->
<g id="edge78" class="edge"><title>Node45&#45;&gt;Node46</title>
<path fill="none" stroke="midnightblue" d="M2842.23,-117.975C2849.8,-108.962 2861.93,-94.5246 2871.35,-83.3118"/>
<polygon fill="midnightblue" stroke="midnightblue" points="2874.16,-85.4166 2877.91,-75.5091 2868.8,-80.9132 2874.16,-85.4166"/>
</g>
<!-- Node45&#45;&gt;Node47 -->
<g id="edge79" class="edge"><title>Node45&#45;&gt;Node47</title>
<path fill="none" stroke="midnightblue" d="M2855.69,-117.975C2880.18,-107.857 2921.21,-90.9046 2949.17,-79.3507"/>
<polygon fill="midnightblue" stroke="midnightblue" points="2950.56,-82.5627 2958.47,-75.5091 2947.89,-76.0932 2950.56,-82.5627"/>
</g>
<!-- Node50&#45;&gt;Node15 -->
<g id="edge92" class="edge"><title>Node50&#45;&gt;Node15</title>
<path fill="none" stroke="midnightblue" d="M618.229,-261.094C505.923,-261.413 247.858,-256.861 176.062,-210 117.026,-171.468 94.3,-111.27 138.062,-56 157.517,-31.4277 247.675,-18.9311 296.851,-13.8454"/>
<polygon fill="midnightblue" stroke="midnightblue" points="297.363,-17.3119 306.97,-12.8438 296.674,-10.3459 297.363,-17.3119"/>
</g>
<!-- Node50&#45;&gt;Node20 -->
<g id="edge93" class="edge"><title>Node50&#45;&gt;Node20</title>
<path fill="none" stroke="midnightblue" d="M713.436,-251.959C785.776,-236.416 936.66,-199.777 1054.06,-143 1075.93,-132.426 1077.03,-122.212 1099.06,-112 1140.55,-92.7706 1191.81,-80.4433 1226.3,-73.6421"/>
<polygon fill="midnightblue" stroke="midnightblue" points="1227.27,-77.0203 1236.44,-71.7073 1225.96,-70.1445 1227.27,-77.0203"/>
</g>
<!-- Node50&#45;&gt;Node25 -->
<g id="edge94" class="edge"><title>Node50&#45;&gt;Node25</title>
<path fill="none" stroke="midnightblue" d="M723.934,-257.517C925.208,-246.16 1639.97,-205.831 1793.77,-197.153"/>
<polygon fill="midnightblue" stroke="midnightblue" points="1794.07,-200.641 1803.86,-196.583 1793.68,-193.652 1794.07,-200.641"/>
</g>
<!-- Node50&#45;&gt;Node31 -->
<g id="edge96" class="edge"><title>Node50&#45;&gt;Node31</title>
<path fill="none" stroke="midnightblue" d="M618.445,-253.716C484.564,-234.56 149.359,-173.651 263.062,-56 308.681,-8.79607 1330.68,-10.055 1542.75,-10.8273"/>
<polygon fill="midnightblue" stroke="midnightblue" points="1542.77,-14.3273 1552.78,-10.8657 1542.8,-7.32735 1542.77,-14.3273"/>
</g>
<!-- Node50&#45;&gt;Node42 -->
<g id="edge95" class="edge"><title>Node50&#45;&gt;Node42</title>
<path fill="none" stroke="midnightblue" d="M648.044,-251.889C598.317,-233.151 477.331,-186.833 378.062,-143 376.497,-142.309 374.894,-141.585 373.282,-140.843"/>
<polygon fill="midnightblue" stroke="midnightblue" points="374.695,-137.64 364.159,-136.532 371.705,-143.969 374.695,-137.64"/>
</g>
<!-- Node51&#45;&gt;Node12 -->
<g id="edge108" class="edge"><title>Node51&#45;&gt;Node12</title>
<path fill="none" stroke="midnightblue" d="M2748.08,-184.944C2760.09,-182.852 2773.04,-180.722 2785.06,-179 2856.12,-168.819 3058.22,-196.51 3106.06,-143 3115.25,-132.729 3108.3,-125.594 3106.06,-112 3101.78,-86.0683 3107.58,-72.4206 3087.06,-56 3056.87,-31.842 2792.98,-17.0939 2697.97,-12.5274"/>
<polygon fill="midnightblue" stroke="midnightblue" points="2697.91,-9.02098 2687.76,-12.0449 2697.58,-16.0132 2697.91,-9.02098"/>
</g>
<!-- Node51&#45;&gt;Node28 -->
<g id="edge99" class="edge"><title>Node51&#45;&gt;Node28</title>
<path fill="none" stroke="midnightblue" d="M2659.96,-184.975C2648.06,-182.785 2635.09,-180.598 2623.06,-179 2419,-151.879 2174.4,-136.859 2067.96,-131.177"/>
<polygon fill="midnightblue" stroke="midnightblue" points="2067.96,-127.672 2057.79,-130.64 2067.59,-134.662 2067.96,-127.672"/>
</g>
<!-- Node52 -->
<g id="node53" class="node"><title>Node52</title>
<g id="a_node53"><a xlink:href="printable_8h.html" target="_top" xlink:title="base/std_ext/printable.h">
<polygon fill="white" stroke="black" points="2947.06,-118 2947.06,-137 3079.06,-137 3079.06,-118 2947.06,-118"/>
<text text-anchor="middle" x="3013.06" y="-125" font-family="Helvetica,sans-Serif" font-size="10.00">base/std_ext/printable.h</text>
</a>
</g>
</g>
<!-- Node51&#45;&gt;Node52 -->
<g id="edge100" class="edge"><title>Node51&#45;&gt;Node52</title>
<path fill="none" stroke="midnightblue" d="M2743.04,-184.936C2799.44,-173.147 2900.96,-151.93 2962.16,-139.138"/>
<polygon fill="midnightblue" stroke="midnightblue" points="2962.92,-142.555 2971.99,-137.083 2961.49,-135.703 2962.92,-142.555"/>
</g>
<!-- Node52&#45;&gt;Node9 -->
<g id="edge107" class="edge"><title>Node52&#45;&gt;Node9</title>
<path fill="none" stroke="midnightblue" d="M3018.36,-117.975C3023.8,-109.227 3032.42,-95.3691 3039.3,-84.3093"/>
<polygon fill="midnightblue" stroke="midnightblue" points="3042.46,-85.8494 3044.77,-75.5091 3036.52,-82.1528 3042.46,-85.8494"/>
</g>
<!-- Node52&#45;&gt;Node16 -->
<g id="edge106" class="edge"><title>Node52&#45;&gt;Node16</title>
<path fill="none" stroke="midnightblue" d="M2983.69,-117.975C2947.76,-107.548 2886.83,-89.8618 2847.02,-78.3066"/>
<polygon fill="midnightblue" stroke="midnightblue" points="2847.96,-74.9353 2837.38,-75.5091 2846.01,-81.6578 2847.96,-74.9353"/>
</g>
<!-- Node53 -->
<g id="node54" class="node"><title>Node53</title>
<g id="a_node54"><a xlink:href="container_8h.html" target="_top" xlink:title="container.h">
<polygon fill="white" stroke="black" points="1891.06,-56.5 1891.06,-75.5 1961.06,-75.5 1961.06,-56.5 1891.06,-56.5"/>
<text text-anchor="middle" x="1926.06" y="-63.5" font-family="Helvetica,sans-Serif" font-size="10.00">container.h</text>
</a>
</g>
</g>
<!-- Node52&#45;&gt;Node53 -->
<g id="edge101" class="edge"><title>Node52&#45;&gt;Node53</title>
<path fill="none" stroke="midnightblue" d="M2953.93,-117.989C2936.6,-115.746 2917.6,-113.528 2900.06,-112 2894.2,-111.489 2162.48,-77.8602 1971.32,-69.0788"/>
<polygon fill="midnightblue" stroke="midnightblue" points="1971.22,-65.5704 1961.07,-68.6078 1970.9,-72.5631 1971.22,-65.5704"/>
</g>
<!-- Node53&#45;&gt;Node12 -->
<g id="edge102" class="edge"><title>Node53&#45;&gt;Node12</title>
<path fill="none" stroke="midnightblue" d="M1961.31,-58.0181C1965.93,-57.2539 1970.6,-56.5537 1975.06,-56 2225.57,-24.9212 2530.15,-14.5235 2630.34,-11.8121"/>
<polygon fill="midnightblue" stroke="midnightblue" points="2630.57,-15.3076 2640.47,-11.5457 2630.38,-8.30997 2630.57,-15.3076"/>
</g>
<!-- Node53&#45;&gt;Node15 -->
<g id="edge105" class="edge"><title>Node53&#45;&gt;Node15</title>
<path fill="none" stroke="midnightblue" d="M1890.6,-57.1997C1887.72,-56.7333 1884.85,-56.3231 1882.06,-56 1572.42,-20.1186 555.982,-12.347 361.417,-11.1757"/>
<polygon fill="midnightblue" stroke="midnightblue" points="361.294,-7.67497 351.273,-11.1162 361.252,-14.6749 361.294,-7.67497"/>
</g>
<!-- Node53&#45;&gt;Node24 -->
<g id="edge103" class="edge"><title>Node53&#45;&gt;Node24</title>
<path fill="none" stroke="midnightblue" d="M1891.99,-56.4435C1854.01,-46.9028 1792.59,-31.4766 1752.02,-21.2863"/>
<polygon fill="midnightblue" stroke="midnightblue" points="1752.73,-17.8566 1742.18,-18.8151 1751.02,-24.6457 1752.73,-17.8566"/>
</g>
<!-- Node54 -->
<g id="node55" class="node"><title>Node54</title>
<polygon fill="white" stroke="#bfbfbf" points="1898.06,-0.5 1898.06,-19.5 1954.06,-19.5 1954.06,-0.5 1898.06,-0.5"/>
<text text-anchor="middle" x="1926.06" y="-7.5" font-family="Helvetica,sans-Serif" font-size="10.00">numeric</text>
</g>
<!-- Node53&#45;&gt;Node54 -->
<g id="edge104" class="edge"><title>Node53&#45;&gt;Node54</title>
<path fill="none" stroke="midnightblue" d="M1926.06,-56.083C1926.06,-49.0059 1926.06,-38.8611 1926.06,-29.9865"/>
<polygon fill="midnightblue" stroke="midnightblue" points="1929.56,-29.751 1926.06,-19.7511 1922.56,-29.7511 1929.56,-29.751"/>
</g>
<!-- Node55&#45;&gt;Node20 -->
<g id="edge116" class="edge"><title>Node55&#45;&gt;Node20</title>
<path fill="none" stroke="midnightblue" d="M1077.84,-313.473C1077.51,-282.161 1080.59,-172.219 1137.06,-112 1160.31,-87.2095 1198.01,-76.0688 1226.49,-71.0665"/>
<polygon fill="midnightblue" stroke="midnightblue" points="1227.19,-74.5 1236.52,-69.4873 1226.1,-67.5852 1227.19,-74.5"/>
</g>
<!-- Node55&#45;&gt;Node21 -->
<g id="edge115" class="edge"><title>Node55&#45;&gt;Node21</title>
<path fill="none" stroke="midnightblue" d="M1123.16,-318.535C1148.17,-316.7 1179.82,-314.519 1208.06,-313 1260.14,-310.199 2101.14,-303.481 2146.06,-277 2220.01,-233.412 2256.22,-128.373 2268.29,-85.5967"/>
<polygon fill="midnightblue" stroke="midnightblue" points="2271.68,-86.4896 2270.91,-75.9229 2264.92,-84.6642 2271.68,-86.4896"/>
</g>
<!-- Node55&#45;&gt;Node23 -->
<g id="edge117" class="edge"><title>Node55&#45;&gt;Node23</title>
<path fill="none" stroke="midnightblue" d="M1033.03,-322.061C948.597,-321.218 761.287,-314.795 609.062,-277 457.425,-239.351 370.97,-272.838 284.062,-143 272.135,-125.181 282.389,-100.599 292.085,-84.2718"/>
<polygon fill="midnightblue" stroke="midnightblue" points="295.112,-86.035 297.558,-75.7263 289.217,-82.2598 295.112,-86.035"/>
</g>
<!-- Node55&#45;&gt;Node25 -->
<g id="edge114" class="edge"><title>Node55&#45;&gt;Node25</title>
<path fill="none" stroke="midnightblue" d="M1123.2,-319.291C1237.24,-311.512 1545.3,-284.667 1790.06,-210 1791.99,-209.411 1793.96,-208.74 1795.92,-208.018"/>
<polygon fill="midnightblue" stroke="midnightblue" points="1797.59,-211.118 1805.54,-204.113 1794.96,-204.632 1797.59,-211.118"/>
</g>
<!-- Node55&#45;&gt;Node50 -->
<g id="edge113" class="edge"><title>Node55&#45;&gt;Node50</title>
<path fill="none" stroke="midnightblue" d="M1032.95,-315.405C960.134,-304.76 816.511,-283.763 733.775,-271.668"/>
<polygon fill="midnightblue" stroke="midnightblue" points="734.151,-268.186 723.75,-270.203 733.139,-275.112 734.151,-268.186"/>
</g>
<!-- Node56&#45;&gt;Node2 -->
<g id="edge122" class="edge"><title>Node56&#45;&gt;Node2</title>
<path fill="none" stroke="midnightblue" d="M2866.29,-432.397C2706.97,-428.448 2311.77,-416.506 1982.06,-389 1980.95,-388.907 1979.83,-388.811 1978.7,-388.711"/>
<polygon fill="midnightblue" stroke="midnightblue" points="1978.71,-385.195 1968.42,-387.73 1978.04,-392.164 1978.71,-385.195"/>
</g>
<!-- Node56&#45;&gt;Node3 -->
<g id="edge123" class="edge"><title>Node56&#45;&gt;Node3</title>
<path fill="none" stroke="midnightblue" d="M2967.85,-425.352C2992.01,-417.664 3026.47,-405.147 3054.06,-389 3145.24,-335.647 3237.3,-247.644 3273.28,-211.627"/>
<polygon fill="midnightblue" stroke="midnightblue" points="3275.9,-213.951 3280.46,-204.384 3270.93,-209.024 3275.9,-213.951"/>
</g>
<!-- Node56&#45;&gt;Node11 -->
<g id="edge129" class="edge"><title>Node56&#45;&gt;Node11</title>
<path fill="none" stroke="midnightblue" d="M3009.56,-430.435C3190.65,-420.454 3653.06,-388.641 3653.06,-324 3653.06,-324 3653.06,-324 3653.06,-193.5 3653.06,-155.202 3653.06,-110.383 3653.06,-85.6971"/>
<polygon fill="midnightblue" stroke="midnightblue" points="3656.56,-85.5894 3653.06,-75.5894 3649.56,-85.5895 3656.56,-85.5894"/>
</g>
<!-- Node56&#45;&gt;Node12 -->
<g id="edge127" class="edge"><title>Node56&#45;&gt;Node12</title>
<path fill="none" stroke="midnightblue" d="M3009.83,-427.998C3208.71,-408.43 3742.84,-334.371 3596.06,-112 3578.62,-85.5774 3495.89,-63.219 3465.06,-56 3315.84,-21.0547 2831.27,-12.9361 2698.16,-11.3454"/>
<polygon fill="midnightblue" stroke="midnightblue" points="2697.82,-7.84143 2687.78,-11.2263 2697.74,-14.841 2697.82,-7.84143"/>
</g>
<!-- Node56&#45;&gt;Node13 -->
<g id="edge128" class="edge"><title>Node56&#45;&gt;Node13</title>
<path fill="none" stroke="midnightblue" d="M2943.76,-425.288C2955.03,-407.205 2979.06,-363.946 2979.06,-324 2979.06,-324 2979.06,-324 2979.06,-260.5 2979.06,-217.607 3103.85,-164.256 3165.03,-140.676"/>
<polygon fill="midnightblue" stroke="midnightblue" points="3166.53,-143.852 3174.62,-137.021 3164.03,-137.31 3166.53,-143.852"/>
</g>
<!-- Node56&#45;&gt;Node20 -->
<g id="edge124" class="edge"><title>Node56&#45;&gt;Node20</title>
<path fill="none" stroke="midnightblue" d="M2866.26,-434.451C2703.81,-432.883 2298.74,-414.308 1997.06,-277 1965.88,-262.809 1909.89,-191.669 1878.06,-179 1661.59,-92.8319 1567.13,-239.506 1355.06,-143 1337.33,-134.929 1338.73,-124.826 1324.06,-112 1311.7,-101.188 1297.01,-89.9837 1285.39,-81.4595"/>
<polygon fill="midnightblue" stroke="midnightblue" points="1287.33,-78.5478 1277.18,-75.5144 1283.23,-84.2161 1287.33,-78.5478"/>
</g>
<!-- Node56&#45;&gt;Node21 -->
<g id="edge125" class="edge"><title>Node56&#45;&gt;Node21</title>
<path fill="none" stroke="midnightblue" d="M2935.5,-425.249C2930.31,-406.738 2919.06,-362.179 2919.06,-324 2919.06,-324 2919.06,-324 2919.06,-193.5 2919.06,-156.306 2928.35,-136.151 2900.06,-112 2853.67,-72.392 2410.1,-67.644 2298.46,-67.0766"/>
<polygon fill="midnightblue" stroke="midnightblue" points="2298.18,-63.5755 2288.16,-67.0317 2298.15,-70.5754 2298.18,-63.5755"/>
</g>
<!-- Node56&#45;&gt;Node25 -->
<g id="edge126" class="edge"><title>Node56&#45;&gt;Node25</title>
<path fill="none" stroke="midnightblue" d="M2866.29,-428.731C2706.81,-415.581 2312.17,-375.055 1997.06,-277 1940.82,-259.499 1879.39,-227.368 1846.68,-209.115"/>
<polygon fill="midnightblue" stroke="midnightblue" points="1848.29,-206.007 1837.86,-204.142 1844.85,-212.104 1848.29,-206.007"/>
</g>
<!-- Node57 -->
<g id="node58" class="node"><title>Node57</title>
<g id="a_node58"><a xlink:href="_unpacker_8h.html" target="_top" xlink:title="Unpacker.h">
<polygon fill="white" stroke="black" points="1217.56,-313.5 1217.56,-332.5 1288.56,-332.5 1288.56,-313.5 1217.56,-313.5"/>
<text text-anchor="middle" x="1253.06" y="-320.5" font-family="Helvetica,sans-Serif" font-size="10.00">Unpacker.h</text>
</a>
</g>
</g>
<!-- Node56&#45;&gt;Node57 -->
<g id="edge119" class="edge"><title>Node56&#45;&gt;Node57</title>
<path fill="none" stroke="midnightblue" d="M2866.48,-432.623C2690.9,-428.908 2224.88,-417.007 1837.06,-389 1719.79,-380.531 1431.44,-352.791 1299.05,-333.173"/>
<polygon fill="midnightblue" stroke="midnightblue" points="1299.44,-329.692 1289.03,-331.657 1298.39,-336.613 1299.44,-329.692"/>
</g>
<!-- Node57&#45;&gt;Node15 -->
<g id="edge120" class="edge"><title>Node57&#45;&gt;Node15</title>
<path fill="none" stroke="midnightblue" d="M1217.33,-319.29C1193.24,-317.476 1160.74,-315.054 1132.06,-313 910.337,-297.123 310.282,-349.315 137.062,-210 83.4742,-166.902 74.3516,-105.526 122.062,-56 145.872,-31.2828 244.993,-18.6873 296.955,-13.6766"/>
<polygon fill="midnightblue" stroke="midnightblue" points="297.348,-17.1553 306.983,-12.7475 296.702,-10.1851 297.348,-17.1553"/>
</g>
<!-- Node57&#45;&gt;Node20 -->
<g id="edge121" class="edge"><title>Node57&#45;&gt;Node20</title>
<path fill="none" stroke="midnightblue" d="M1253.47,-313.222C1255.19,-276.823 1261.75,-137.267 1264.17,-86.0187"/>
<polygon fill="midnightblue" stroke="midnightblue" points="1267.68,-85.8943 1264.65,-75.7408 1260.68,-85.5651 1267.68,-85.8943"/>
</g>
<!-- Node58&#45;&gt;Node2 -->
<g id="edge132" class="edge"><title>Node58&#45;&gt;Node2</title>
<path fill="none" stroke="midnightblue" d="M1907.06,-425.083C1907.06,-418.006 1907.06,-407.861 1907.06,-398.986"/>
<polygon fill="midnightblue" stroke="midnightblue" points="1910.56,-398.751 1907.06,-388.751 1903.56,-398.751 1910.56,-398.751"/>
</g>
<!-- Node58&#45;&gt;Node3 -->
<g id="edge133" class="edge"><title>Node58&#45;&gt;Node3</title>
<path fill="none" stroke="midnightblue" d="M1987.74,-433.971C2185.43,-433.288 2689.77,-427.684 2853.06,-389 3020.54,-349.324 3203.45,-246.536 3266.35,-209.26"/>
<polygon fill="midnightblue" stroke="midnightblue" points="3268.28,-212.186 3275.07,-204.055 3264.69,-206.175 3268.28,-212.186"/>
</g>
<!-- Node58&#45;&gt;Node12 -->
<g id="edge144" class="edge"><title>Node58&#45;&gt;Node12</title>
<path fill="none" stroke="midnightblue" d="M1987.73,-433.969C2101.19,-432.531 2313.87,-424.719 2491.06,-389 2660.94,-354.755 3129.68,-283.541 3231.06,-143 3287.4,-64.8959 3177.85,-74.7093 3109.06,-56 2959.8,-15.4044 2773.38,-10.7393 2698.01,-10.6675"/>
<polygon fill="midnightblue" stroke="midnightblue" points="2697.71,-7.16798 2687.72,-10.6865 2697.72,-14.168 2697.71,-7.16798"/>
</g>
<!-- Node58&#45;&gt;Node13 -->
<g id="edge145" class="edge"><title>Node58&#45;&gt;Node13</title>
<path fill="none" stroke="midnightblue" d="M1987.69,-433.876C2092.64,-432.195 2281.16,-423.962 2438.06,-389 2617.04,-349.119 2652.2,-307.171 2825.06,-246 2912.64,-215.008 2934.41,-206.775 3023.06,-179 3071.54,-163.813 3128.08,-147.801 3163.48,-137.979"/>
<polygon fill="midnightblue" stroke="midnightblue" points="3164.62,-141.297 3173.32,-135.258 3162.75,-134.551 3164.62,-141.297"/>
</g>
<!-- Node58&#45;&gt;Node20 -->
<g id="edge141" class="edge"><title>Node58&#45;&gt;Node20</title>
<path fill="none" stroke="midnightblue" d="M1826.51,-427.472C1652.41,-412.642 1253.01,-374.467 1208.06,-333 1184.21,-310.995 1189.06,-294.951 1189.06,-262.5 1189.06,-262.5 1189.06,-262.5 1189.06,-193.5 1189.06,-148.122 1225.44,-104.982 1247.86,-82.705"/>
<polygon fill="midnightblue" stroke="midnightblue" points="1250.34,-85.1776 1255.13,-75.7259 1245.49,-80.1293 1250.34,-85.1776"/>
</g>
<!-- Node58&#45;&gt;Node21 -->
<g id="edge142" class="edge"><title>Node58&#45;&gt;Node21</title>
<path fill="none" stroke="midnightblue" d="M1987.63,-432.095C2125.05,-426.637 2390.06,-405.54 2390.06,-324 2390.06,-324 2390.06,-324 2390.06,-193.5 2390.06,-139.358 2331.58,-98.5441 2297.31,-79.2736"/>
<polygon fill="midnightblue" stroke="midnightblue" points="2298.82,-76.1074 2288.36,-74.4164 2295.48,-82.2606 2298.82,-76.1074"/>
</g>
<!-- Node58&#45;&gt;Node25 -->
<g id="edge143" class="edge"><title>Node58&#45;&gt;Node25</title>
<path fill="none" stroke="midnightblue" d="M1883.33,-425.367C1867.36,-418.219 1847.39,-406.391 1837.06,-389 1803.7,-332.815 1812.86,-250.66 1819.26,-214.163"/>
<polygon fill="midnightblue" stroke="midnightblue" points="1822.76,-214.485 1821.18,-204.009 1815.88,-213.184 1822.76,-214.485"/>
</g>
<!-- Node58&#45;&gt;Node44 -->
<g id="edge140" class="edge"><title>Node58&#45;&gt;Node44</title>
<path fill="none" stroke="midnightblue" d="M1987.84,-433.515C2109.38,-431.646 2332.67,-423.457 2404.06,-389 2440.02,-371.647 2466.06,-363.923 2466.06,-324 2466.06,-324 2466.06,-324 2466.06,-260.5 2466.06,-219.742 2457.08,-172.62 2451.46,-147.16"/>
<polygon fill="midnightblue" stroke="midnightblue" points="2454.8,-146.059 2449.17,-137.087 2447.98,-147.615 2454.8,-146.059"/>
</g>
<!-- Node58&#45;&gt;Node57 -->
<g id="edge131" class="edge"><title>Node58&#45;&gt;Node57</title>
<path fill="none" stroke="midnightblue" d="M1851.01,-425.443C1745.09,-409.115 1508.07,-371.826 1298.54,-333.224"/>
<polygon fill="midnightblue" stroke="midnightblue" points="1299.05,-329.76 1288.58,-331.385 1297.78,-336.643 1299.05,-329.76"/>
</g>
<!-- Node59 -->
<g id="node60" class="node"><title>Node59</title>
<g id="a_node60"><a xlink:href="_wrap_t_tree_8h.html" target="_top" xlink:title="base/WrapTTree.h">
<polygon fill="white" stroke="black" points="909.062,-118 909.062,-137 1009.06,-137 1009.06,-118 909.062,-118"/>
<text text-anchor="middle" x="959.062" y="-125" font-family="Helvetica,sans-Serif" font-size="10.00">base/WrapTTree.h</text>
</a>
</g>
</g>
<!-- Node58&#45;&gt;Node59 -->
<g id="edge134" class="edge"><title>Node58&#45;&gt;Node59</title>
<path fill="none" stroke="midnightblue" d="M1826.4,-432.734C1689.9,-429.782 1404.89,-420.113 1166.06,-389 915.667,-356.381 769.049,-472.36 609.062,-277 600.332,-266.341 600.709,-256.957 609.062,-246 645.666,-197.98 682.6,-228.548 740.062,-210 808.149,-188.022 886.361,-157.646 928.434,-140.874"/>
<polygon fill="midnightblue" stroke="midnightblue" points="929.848,-144.078 937.832,-137.113 927.247,-137.579 929.848,-144.078"/>
</g>
<!-- Node59&#45;&gt;Node12 -->
<g id="edge136" class="edge"><title>Node59&#45;&gt;Node12</title>
<path fill="none" stroke="midnightblue" d="M1009.23,-125.436C1200.51,-121.184 1877.86,-104.258 1970.06,-76 1986.46,-70.9747 1986.71,-61.1732 2003.06,-56 2121.77,-18.4429 2512.42,-12.2255 2630.17,-11.201"/>
<polygon fill="midnightblue" stroke="midnightblue" points="2630.41,-14.6993 2640.39,-11.1194 2630.36,-7.6995 2630.41,-14.6993"/>
</g>
<!-- Node59&#45;&gt;Node15 -->
<g id="edge137" class="edge"><title>Node59&#45;&gt;Node15</title>
<path fill="none" stroke="midnightblue" d="M926.073,-117.986C917.619,-115.916 908.524,-113.786 900.062,-112 696.056,-68.9379 448.408,-29.4454 361.261,-15.9321"/>
<polygon fill="midnightblue" stroke="midnightblue" points="361.626,-12.4471 351.209,-14.3784 360.557,-19.3649 361.626,-12.4471"/>
</g>
<!-- Node59&#45;&gt;Node20 -->
<g id="edge139" class="edge"><title>Node59&#45;&gt;Node20</title>
<path fill="none" stroke="midnightblue" d="M995.56,-117.973C1004.54,-115.947 1014.14,-113.84 1023.06,-112 1094.61,-97.2479 1178.52,-82.1307 1226.37,-73.7148"/>
<polygon fill="midnightblue" stroke="midnightblue" points="1227.06,-77.1479 1236.31,-71.9733 1225.85,-70.253 1227.06,-77.1479"/>
</g>
<!-- Node59&#45;&gt;Node24 -->
<g id="edge138" class="edge"><title>Node59&#45;&gt;Node24</title>
<path fill="none" stroke="midnightblue" d="M985.743,-117.903C1033.57,-102.851 1137.28,-71.8243 1227.06,-56 1398.93,-25.71 1444.32,-36.4049 1618.06,-20 1634.89,-18.4114 1653.42,-16.6253 1669.48,-15.0655"/>
<polygon fill="midnightblue" stroke="midnightblue" points="1670.03,-18.5293 1679.64,-14.0775 1669.35,-11.5621 1670.03,-18.5293"/>
</g>
<!-- Node60 -->
<g id="node61" class="node"><title>Node60</title>
<polygon fill="white" stroke="#bfbfbf" points="934.062,-56.5 934.062,-75.5 984.062,-75.5 984.062,-56.5 934.062,-56.5"/>
<text text-anchor="middle" x="959.062" y="-63.5" font-family="Helvetica,sans-Serif" font-size="10.00">TTree.h</text>
</g>
<!-- Node59&#45;&gt;Node60 -->
<g id="edge135" class="edge"><title>Node59&#45;&gt;Node60</title>
<path fill="none" stroke="midnightblue" d="M959.062,-117.975C959.062,-109.58 959.062,-96.4806 959.062,-85.6631"/>
<polygon fill="midnightblue" stroke="midnightblue" points="962.562,-85.5091 959.062,-75.5091 955.562,-85.5091 962.562,-85.5091"/>
</g>
<!-- Node61&#45;&gt;Node15 -->
<g id="edge151" class="edge"><title>Node61&#45;&gt;Node15</title>
<path fill="none" stroke="midnightblue" d="M1175.26,-375.842C941.63,-367.068 210.983,-325.235 87.0616,-143 73.373,-122.87 102.463,-56.5519 103.062,-56 130.909,-30.3413 241.147,-18.0238 296.701,-13.3471"/>
<polygon fill="midnightblue" stroke="midnightblue" points="297.039,-16.8313 306.725,-12.5366 296.475,-9.85407 297.039,-16.8313"/>
</g>
<!-- Node61&#45;&gt;Node20 -->
<g id="edge152" class="edge"><title>Node61&#45;&gt;Node20</title>
<path fill="none" stroke="midnightblue" d="M1225.68,-369.404C1209.67,-361.963 1188.34,-349.751 1175.06,-333 1154.5,-307.059 1151.06,-295.599 1151.06,-262.5 1151.06,-262.5 1151.06,-262.5 1151.06,-193.5 1151.06,-155.74 1150.83,-140.959 1175.06,-112 1188.4,-96.0611 1208.78,-85.218 1226.77,-78.1767"/>
<polygon fill="midnightblue" stroke="midnightblue" points="1228.26,-81.3581 1236.46,-74.6478 1225.87,-74.7805 1228.26,-81.3581"/>
</g>
<!-- Node61&#45;&gt;Node21 -->
<g id="edge150" class="edge"><title>Node61&#45;&gt;Node21</title>
<path fill="none" stroke="midnightblue" d="M1318.6,-376.868C1509.95,-372.808 2029.16,-354.731 2179.06,-277 2250.83,-239.786 2267.87,-130.166 2271.86,-85.8796"/>
<polygon fill="midnightblue" stroke="midnightblue" points="2275.35,-86.1309 2272.64,-75.8906 2268.37,-85.5906 2275.35,-86.1309"/>
</g>
<!-- Node61&#45;&gt;Node26 -->
<g id="edge149" class="edge"><title>Node61&#45;&gt;Node26</title>
<path fill="none" stroke="midnightblue" d="M1266.71,-369.444C1287.03,-360.596 1318.96,-346.687 1342.16,-336.586"/>
<polygon fill="midnightblue" stroke="midnightblue" points="1343.73,-339.718 1351.51,-332.516 1340.94,-333.3 1343.73,-339.718"/>
</g>
<!-- Node62&#45;&gt;Node3 -->
<g id="edge158" class="edge"><title>Node62&#45;&gt;Node3</title>
<path fill="none" stroke="midnightblue" d="M3230.17,-482.298C3254.48,-475.992 3283.57,-464.752 3303.06,-445 3324.69,-423.078 3327.06,-410.795 3327.06,-380 3327.06,-380 3327.06,-380 3327.06,-322 3327.06,-281.85 3309.29,-237.446 3298.05,-213.389"/>
<polygon fill="midnightblue" stroke="midnightblue" points="3301.07,-211.604 3293.57,-204.125 3294.77,-214.652 3301.07,-211.604"/>
</g>
<!-- Node62&#45;&gt;Node56 -->
<g id="edge159" class="edge"><title>Node62&#45;&gt;Node56</title>
<path fill="none" stroke="midnightblue" d="M3146.77,-481.444C3103.5,-472.023 3033.89,-456.866 2987.09,-446.675"/>
<polygon fill="midnightblue" stroke="midnightblue" points="2987.69,-443.224 2977.17,-444.516 2986.2,-450.064 2987.69,-443.224"/>
</g>
<!-- Node63&#45;&gt;Node3 -->
<g id="edge161" class="edge"><title>Node63&#45;&gt;Node3</title>
<path fill="none" stroke="midnightblue" d="M3107.82,-481.489C3165.33,-463.606 3289.06,-420.437 3289.06,-380 3289.06,-380 3289.06,-380 3289.06,-322 3289.06,-283.702 3289.06,-238.883 3289.06,-214.197"/>
<polygon fill="midnightblue" stroke="midnightblue" points="3292.56,-214.089 3289.06,-204.089 3285.56,-214.089 3292.56,-214.089"/>
</g>
<!-- Node63&#45;&gt;Node56 -->
<g id="edge162" class="edge"><title>Node63&#45;&gt;Node56</title>
<path fill="none" stroke="midnightblue" d="M3056.72,-481.444C3033.31,-472.478 2996.33,-458.314 2969.87,-448.183"/>
<polygon fill="midnightblue" stroke="midnightblue" points="2970.89,-444.824 2960.3,-444.516 2968.39,-451.361 2970.89,-444.824"/>
</g>
</g>
</svg>
