<?xml version="1.0" encoding="UTF-8" standalone="no"?>
<!DOCTYPE svg PUBLIC "-//W3C//DTD SVG 1.1//EN"
 "http://www.w3.org/Graphics/SVG/1.1/DTD/svg11.dtd">
<!-- Generated by graphviz version 2.38.0 (20140413.2041)
 -->
<!-- Title: src/expconfig/setups/SetupRegistry.cc Pages: 1 -->
<svg width="3948pt" height="576pt"
 viewBox="0.00 0.00 3947.89 576.00" xmlns="http://www.w3.org/2000/svg" xmlns:xlink="http://www.w3.org/1999/xlink">
<g id="graph0" class="graph" transform="scale(1 1) rotate(0) translate(4 572)">
<title>src/expconfig/setups/SetupRegistry.cc</title>
<polygon fill="white" stroke="none" points="-4,4 -4,-572 3943.89,-572 3943.89,4 -4,4"/>
<!-- Node0 -->
<g id="node1" class="node"><title>Node0</title>
<polygon fill="#bfbfbf" stroke="black" points="3602.89,-537.5 3602.89,-567.5 3717.89,-567.5 3717.89,-537.5 3602.89,-537.5"/>
<text text-anchor="start" x="3610.89" y="-555.5" font-family="Helvetica,sans-Serif" font-size="10.00">src/expconfig/setups</text>
<text text-anchor="middle" x="3660.39" y="-544.5" font-family="Helvetica,sans-Serif" font-size="10.00">/SetupRegistry.cc</text>
</g>
<!-- Node1 -->
<g id="node2" class="node"><title>Node1</title>
<g id="a_node2"><a xlink:href="_setup_registry_8h.html" target="_top" xlink:title="SetupRegistry.h">
<polygon fill="white" stroke="black" points="3539.39,-313.5 3539.39,-332.5 3629.39,-332.5 3629.39,-313.5 3539.39,-313.5"/>
<text text-anchor="middle" x="3584.39" y="-320.5" font-family="Helvetica,sans-Serif" font-size="10.00">SetupRegistry.h</text>
</a>
</g>
</g>
<!-- Node0&#45;&gt;Node1 -->
<g id="edge1" class="edge"><title>Node0&#45;&gt;Node1</title>
<path fill="none" stroke="midnightblue" d="M3655.64,-537.269C3642.46,-497.811 3605.44,-387.017 3590.63,-342.683"/>
<polygon fill="midnightblue" stroke="midnightblue" points="3593.86,-341.303 3587.37,-332.927 3587.22,-343.521 3593.86,-341.303"/>
</g>
<!-- Node10 -->
<g id="node11" class="node"><title>Node10</title>
<g id="a_node11"><a xlink:href="_setup_8h.html" target="_top" xlink:title="Setup.h">
<polygon fill="white" stroke="black" points="3086.39,-481.5 3086.39,-500.5 3140.39,-500.5 3140.39,-481.5 3086.39,-481.5"/>
<text text-anchor="middle" x="3113.39" y="-488.5" font-family="Helvetica,sans-Serif" font-size="10.00">Setup.h</text>
</a>
</g>
</g>
<!-- Node0&#45;&gt;Node10 -->
<g id="edge12" class="edge"><title>Node0&#45;&gt;Node10</title>
<path fill="none" stroke="midnightblue" d="M3602.89,-545.245C3490.51,-533.021 3244.54,-506.265 3150.74,-496.063"/>
<polygon fill="midnightblue" stroke="midnightblue" points="3150.91,-492.561 3140.59,-494.959 3150.15,-499.52 3150.91,-492.561"/>
</g>
<!-- Node23 -->
<g id="node24" class="node"><title>Node23</title>
<polygon fill="white" stroke="#bfbfbf" points="894.393,-118 894.393,-137 958.393,-137 958.393,-118 894.393,-118"/>
<text text-anchor="middle" x="926.393" y="-125" font-family="Helvetica,sans-Serif" font-size="10.00">stdexcept</text>
</g>
<!-- Node0&#45;&gt;Node23 -->
<g id="edge161" class="edge"><title>Node0&#45;&gt;Node23</title>
<path fill="none" stroke="midnightblue" d="M3602.76,-551.073C3241.98,-547.979 1302.38,-525.073 1080.39,-389 987.516,-332.07 944.063,-196.466 930.901,-146.981"/>
<polygon fill="midnightblue" stroke="midnightblue" points="934.234,-145.885 928.368,-137.062 927.452,-147.618 934.234,-145.885"/>
</g>
<!-- Node36 -->
<g id="node37" class="node"><title>Node36</title>
<g id="a_node37"><a xlink:href="string_8h.html" target="_top" xlink:title="base/std_ext/string.h">
<polygon fill="white" stroke="black" points="2483.89,-56.5 2483.89,-75.5 2600.89,-75.5 2600.89,-56.5 2483.89,-56.5"/>
<text text-anchor="middle" x="2542.39" y="-63.5" font-family="Helvetica,sans-Serif" font-size="10.00">base/std_ext/string.h</text>
</a>
</g>
</g>
<!-- Node0&#45;&gt;Node36 -->
<g id="edge160" class="edge"><title>Node0&#45;&gt;Node36</title>
<path fill="none" stroke="midnightblue" d="M3708.07,-537.48C3752.65,-521.088 3812.39,-489.195 3812.39,-436 3812.39,-436 3812.39,-436 3812.39,-322 3812.39,-153.962 3620.75,-235.215 3462.39,-179 3365.67,-144.664 3342.38,-130.307 3241.39,-112 3121.79,-90.32 2762.74,-75.059 2611.14,-69.4121"/>
<polygon fill="midnightblue" stroke="midnightblue" points="2611.14,-65.91 2601.02,-69.0381 2610.89,-72.9052 2611.14,-65.91"/>
</g>
<!-- Node62 -->
<g id="node63" class="node"><title>Node62</title>
<g id="a_node63"><a xlink:href="_logger_8h.html" target="_top" xlink:title="base/Logger.h">
<polygon fill="white" stroke="black" points="3844.39,-481.5 3844.39,-500.5 3928.39,-500.5 3928.39,-481.5 3844.39,-481.5"/>
<text text-anchor="middle" x="3886.39" y="-488.5" font-family="Helvetica,sans-Serif" font-size="10.00">base/Logger.h</text>
</a>
</g>
</g>
<!-- Node0&#45;&gt;Node62 -->
<g id="edge158" class="edge"><title>Node0&#45;&gt;Node62</title>
<path fill="none" stroke="midnightblue" d="M3713.67,-537.475C3753.51,-526.986 3807.25,-512.837 3844.15,-503.122"/>
<polygon fill="midnightblue" stroke="midnightblue" points="3845.3,-506.437 3854.08,-500.506 3843.52,-499.668 3845.3,-506.437"/>
</g>
<!-- Node2 -->
<g id="node3" class="node"><title>Node2</title>
<g id="a_node3"><a xlink:href="_options_list_8h.html" target="_top" xlink:title="base/OptionsList.h">
<polygon fill="white" stroke="black" points="3450.89,-252 3450.89,-271 3555.89,-271 3555.89,-252 3450.89,-252"/>
<text text-anchor="middle" x="3503.39" y="-259" font-family="Helvetica,sans-Serif" font-size="10.00">base/OptionsList.h</text>
</a>
</g>
</g>
<!-- Node1&#45;&gt;Node2 -->
<g id="edge2" class="edge"><title>Node1&#45;&gt;Node2</title>
<path fill="none" stroke="midnightblue" d="M3572.79,-313.475C3559.92,-304.02 3538.92,-288.596 3523.39,-277.187"/>
<polygon fill="midnightblue" stroke="midnightblue" points="3525.11,-274.108 3514.98,-271.009 3520.96,-279.75 3525.11,-274.108"/>
</g>
<!-- Node4 -->
<g id="node5" class="node"><title>Node4</title>
<polygon fill="white" stroke="#bfbfbf" points="3311.89,-56.5 3311.89,-75.5 3368.89,-75.5 3368.89,-56.5 3311.89,-56.5"/>
<text text-anchor="middle" x="3340.39" y="-63.5" font-family="Helvetica,sans-Serif" font-size="10.00">memory</text>
</g>
<!-- Node1&#45;&gt;Node4 -->
<g id="edge10" class="edge"><title>Node1&#45;&gt;Node4</title>
<path fill="none" stroke="midnightblue" d="M3621.49,-313.458C3640.84,-306.918 3662.82,-295.724 3674.39,-277 3700.43,-234.878 3657.27,-213.127 3621.39,-179 3584.22,-143.641 3574.08,-133.28 3527.39,-112 3478.93,-89.9083 3418.26,-77.8763 3379.41,-71.9445"/>
<polygon fill="midnightblue" stroke="midnightblue" points="3379.46,-68.4148 3369.06,-70.4299 3378.45,-75.341 3379.46,-68.4148"/>
</g>
<!-- Node5 -->
<g id="node6" class="node"><title>Node5</title>
<polygon fill="white" stroke="#bfbfbf" points="3166.39,-185 3166.39,-204 3204.39,-204 3204.39,-185 3166.39,-185"/>
<text text-anchor="middle" x="3185.39" y="-192" font-family="Helvetica,sans-Serif" font-size="10.00">map</text>
</g>
<!-- Node1&#45;&gt;Node5 -->
<g id="edge8" class="edge"><title>Node1&#45;&gt;Node5</title>
<path fill="none" stroke="midnightblue" d="M3557.24,-313.484C3528.46,-304.454 3481.71,-289.763 3441.39,-277 3358.95,-250.905 3261.65,-219.862 3214.26,-204.723"/>
<polygon fill="midnightblue" stroke="midnightblue" points="3215.24,-201.365 3204.65,-201.656 3213.11,-208.033 3215.24,-201.365"/>
</g>
<!-- Node8 -->
<g id="node9" class="node"><title>Node8</title>
<polygon fill="white" stroke="#bfbfbf" points="2933.39,-56.5 2933.39,-75.5 2963.39,-75.5 2963.39,-56.5 2933.39,-56.5"/>
<text text-anchor="middle" x="2948.39" y="-63.5" font-family="Helvetica,sans-Serif" font-size="10.00">list</text>
</g>
<!-- Node1&#45;&gt;Node8 -->
<g id="edge9" class="edge"><title>Node1&#45;&gt;Node8</title>
<path fill="none" stroke="midnightblue" d="M3588.85,-313.331C3595.6,-298.969 3606.8,-269.495 3598.39,-246 3585.41,-209.727 3575.92,-199.645 3543.39,-179 3445.45,-116.836 3074.08,-78.6074 2973.59,-69.2526"/>
<polygon fill="midnightblue" stroke="midnightblue" points="2973.74,-65.7515 2963.46,-68.3225 2973.1,-72.7222 2973.74,-65.7515"/>
</g>
<!-- Node9 -->
<g id="node10" class="node"><title>Node9</title>
<polygon fill="white" stroke="#bfbfbf" points="1697.89,-56.5 1697.89,-75.5 1760.89,-75.5 1760.89,-56.5 1697.89,-56.5"/>
<text text-anchor="middle" x="1729.39" y="-63.5" font-family="Helvetica,sans-Serif" font-size="10.00">functional</text>
</g>
<!-- Node1&#45;&gt;Node9 -->
<g id="edge11" class="edge"><title>Node1&#45;&gt;Node9</title>
<path fill="none" stroke="midnightblue" d="M3584.62,-313.23C3584.53,-297.639 3582.07,-264.958 3564.39,-246 3532.78,-212.106 3215,-120.258 3169.39,-112 3028.87,-86.5524 1992.99,-70.6947 1771.14,-67.5696"/>
<polygon fill="midnightblue" stroke="midnightblue" points="1770.95,-64.0667 1760.9,-67.4263 1770.85,-71.066 1770.95,-64.0667"/>
</g>
<!-- Node3 -->
<g id="node4" class="node"><title>Node3</title>
<polygon fill="white" stroke="#bfbfbf" points="3221.39,-0.5 3221.39,-19.5 3265.39,-19.5 3265.39,-0.5 3221.39,-0.5"/>
<text text-anchor="middle" x="3243.39" y="-7.5" font-family="Helvetica,sans-Serif" font-size="10.00">string</text>
</g>
<!-- Node2&#45;&gt;Node3 -->
<g id="edge3" class="edge"><title>Node2&#45;&gt;Node3</title>
<path fill="none" stroke="midnightblue" d="M3555.99,-252.383C3615.12,-242.701 3707,-225.832 3738.39,-210 3787.61,-185.18 3834.78,-163.208 3814.39,-112 3801.72,-80.1627 3792.25,-70.8989 3761.39,-56 3675.02,-14.2992 3375.1,-10.8222 3275.69,-10.8443"/>
<polygon fill="midnightblue" stroke="midnightblue" points="3275.63,-7.34431 3265.64,-10.859 3275.64,-14.3443 3275.63,-7.34431"/>
</g>
<!-- Node2&#45;&gt;Node4 -->
<g id="edge4" class="edge"><title>Node2&#45;&gt;Node4</title>
<path fill="none" stroke="midnightblue" d="M3506.97,-251.65C3516.42,-226.695 3539.14,-154.805 3506.39,-112 3491.02,-91.9106 3423.29,-78.7027 3379.24,-72.0665"/>
<polygon fill="midnightblue" stroke="midnightblue" points="3379.54,-68.5734 3369.14,-70.597 3378.53,-75.5004 3379.54,-68.5734"/>
</g>
<!-- Node2&#45;&gt;Node5 -->
<g id="edge5" class="edge"><title>Node2&#45;&gt;Node5</title>
<path fill="none" stroke="midnightblue" d="M3461.49,-251.936C3396.06,-238.56 3271.24,-213.048 3214.62,-201.474"/>
<polygon fill="midnightblue" stroke="midnightblue" points="3215.05,-197.991 3204.56,-199.417 3213.65,-204.849 3215.05,-197.991"/>
</g>
<!-- Node6 -->
<g id="node7" class="node"><title>Node6</title>
<polygon fill="white" stroke="#bfbfbf" points="3128.39,-118 3128.39,-137 3160.39,-137 3160.39,-118 3128.39,-118"/>
<text text-anchor="middle" x="3144.39" y="-125" font-family="Helvetica,sans-Serif" font-size="10.00">set</text>
</g>
<!-- Node2&#45;&gt;Node6 -->
<g id="edge6" class="edge"><title>Node2&#45;&gt;Node6</title>
<path fill="none" stroke="midnightblue" d="M3476.15,-251.87C3419.33,-233.63 3284.32,-189.04 3174.39,-143 3172.82,-142.339 3171.2,-141.638 3169.58,-140.914"/>
<polygon fill="midnightblue" stroke="midnightblue" points="3170.98,-137.705 3160.44,-136.648 3168.02,-144.048 3170.98,-137.705"/>
</g>
<!-- Node7 -->
<g id="node8" class="node"><title>Node7</title>
<polygon fill="white" stroke="#bfbfbf" points="2514.39,-0.5 2514.39,-19.5 2570.39,-19.5 2570.39,-0.5 2514.39,-0.5"/>
<text text-anchor="middle" x="2542.39" y="-7.5" font-family="Helvetica,sans-Serif" font-size="10.00">sstream</text>
</g>
<!-- Node2&#45;&gt;Node7 -->
<g id="edge7" class="edge"><title>Node2&#45;&gt;Node7</title>
<path fill="none" stroke="midnightblue" d="M3534.82,-251.94C3601.34,-233.116 3752.66,-186.344 3781.39,-143 3804.71,-107.833 3780.3,-76.4517 3743.39,-56 3691.39,-27.1852 2779.92,-14.0082 2580.67,-11.4651"/>
<polygon fill="midnightblue" stroke="midnightblue" points="2580.44,-7.96211 2570.4,-11.3355 2580.36,-14.9616 2580.44,-7.96211"/>
</g>
<!-- Node10&#45;&gt;Node1 -->
<g id="edge118" class="edge"><title>Node10&#45;&gt;Node1</title>
<path fill="none" stroke="midnightblue" d="M3140.4,-490.332C3221.66,-490.833 3462.09,-488.521 3524.39,-445 3559.36,-420.57 3574.93,-369.751 3581.01,-342.39"/>
<polygon fill="midnightblue" stroke="midnightblue" points="3584.45,-343.044 3583.01,-332.547 3577.59,-341.65 3584.45,-343.044"/>
</g>
<!-- Node10&#45;&gt;Node2 -->
<g id="edge155" class="edge"><title>Node10&#45;&gt;Node2</title>
<path fill="none" stroke="midnightblue" d="M3140.65,-486.825C3219.59,-477.026 3445.64,-444.527 3490.39,-389 3515.36,-358.016 3511.62,-307.95 3507.21,-281.034"/>
<polygon fill="midnightblue" stroke="midnightblue" points="3510.62,-280.237 3505.36,-271.039 3503.74,-281.509 3510.62,-280.237"/>
</g>
<!-- Node10&#45;&gt;Node3 -->
<g id="edge157" class="edge"><title>Node10&#45;&gt;Node3</title>
<path fill="none" stroke="midnightblue" d="M3140.64,-488.763C3247.49,-483.437 3636.89,-459.448 3734.39,-389 3813.25,-332.022 3827.59,-301.592 3860.39,-210 3883.63,-145.125 3898.15,-96.4888 3842.39,-56 3796.36,-22.5768 3393.67,-13.4381 3275.72,-11.4677"/>
<polygon fill="midnightblue" stroke="midnightblue" points="3275.58,-7.96506 3265.53,-11.3036 3275.47,-14.9642 3275.58,-7.96506"/>
</g>
<!-- Node10&#45;&gt;Node9 -->
<g id="edge156" class="edge"><title>Node10&#45;&gt;Node9</title>
<path fill="none" stroke="midnightblue" d="M3086.27,-489.952C2809.16,-489.415 500.366,-483.78 442.393,-445 368.929,-395.859 363.393,-350.884 363.393,-262.5 363.393,-262.5 363.393,-262.5 363.393,-193.5 363.393,-156.306 353.581,-135.521 382.393,-112 436.916,-67.4875 1546.07,-83.746 1687.37,-75.4266"/>
<polygon fill="midnightblue" stroke="midnightblue" points="1688.03,-78.8838 1697.71,-74.573 1687.46,-71.9075 1688.03,-78.8838"/>
</g>
<!-- Node11 -->
<g id="node12" class="node"><title>Node11</title>
<g id="a_node12"><a xlink:href="_exp_config_8h.html" target="_top" xlink:title="expconfig/ExpConfig.h">
<polygon fill="white" stroke="black" points="2816.39,-369.5 2816.39,-388.5 2938.39,-388.5 2938.39,-369.5 2816.39,-369.5"/>
<text text-anchor="middle" x="2877.39" y="-376.5" font-family="Helvetica,sans-Serif" font-size="10.00">expconfig/ExpConfig.h</text>
</a>
</g>
</g>
<!-- Node10&#45;&gt;Node11 -->
<g id="edge13" class="edge"><title>Node10&#45;&gt;Node11</title>
<path fill="none" stroke="midnightblue" d="M3100.49,-481.383C3080.22,-468.093 3039.41,-442.32 3002.39,-425 2973.99,-411.71 2940.5,-399.845 2915.34,-391.639"/>
<polygon fill="midnightblue" stroke="midnightblue" points="2916.38,-388.297 2905.79,-388.569 2914.24,-394.961 2916.38,-388.297"/>
</g>
<!-- Node30 -->
<g id="node31" class="node"><title>Node30</title>
<g id="a_node31"><a xlink:href="_calibration_8h.html" target="_top" xlink:title="calibration/Calibration.h">
<polygon fill="white" stroke="black" points="2715.89,-313.5 2715.89,-332.5 2844.89,-332.5 2844.89,-313.5 2715.89,-313.5"/>
<text text-anchor="middle" x="2780.39" y="-320.5" font-family="Helvetica,sans-Serif" font-size="10.00">calibration/Calibration.h</text>
</a>
</g>
</g>
<!-- Node10&#45;&gt;Node30 -->
<g id="edge148" class="edge"><title>Node10&#45;&gt;Node30</title>
<path fill="none" stroke="midnightblue" d="M3086.19,-488.362C3025.47,-484.257 2881.14,-471.877 2841.39,-445 2805.94,-421.026 2790.07,-370.015 2783.85,-342.504"/>
<polygon fill="midnightblue" stroke="midnightblue" points="2787.26,-341.689 2781.81,-332.604 2780.4,-343.105 2787.26,-341.689"/>
</g>
<!-- Node45 -->
<g id="node46" class="node"><title>Node45</title>
<g id="a_node46"><a xlink:href="_t_i_d_8h.html" target="_top" xlink:title="tree/TID.h">
<polygon fill="white" stroke="black" points="540.893,-185 540.893,-204 603.893,-204 603.893,-185 540.893,-185"/>
<text text-anchor="middle" x="572.393" y="-192" font-family="Helvetica,sans-Serif" font-size="10.00">tree/TID.h</text>
</a>
</g>
</g>
<!-- Node10&#45;&gt;Node45 -->
<g id="edge147" class="edge"><title>Node10&#45;&gt;Node45</title>
<path fill="none" stroke="midnightblue" d="M3086.2,-489.977C2861.83,-489.706 1313.12,-486.346 848.393,-445 665.058,-428.689 439.393,-564.059 439.393,-380 439.393,-380 439.393,-380 439.393,-322 439.393,-287.183 435.979,-272.644 458.393,-246 476.764,-224.162 506.447,-211.423 530.919,-204.203"/>
<polygon fill="midnightblue" stroke="midnightblue" points="531.975,-207.543 540.694,-201.524 530.125,-200.792 531.975,-207.543"/>
</g>
<!-- Node52 -->
<g id="node53" class="node"><title>Node52</title>
<g id="a_node53"><a xlink:href="piecewise__interval_8h.html" target="_top" xlink:title="base/piecewise_interval.h">
<polygon fill="white" stroke="black" points="467.393,-252 467.393,-271 605.393,-271 605.393,-252 467.393,-252"/>
<text text-anchor="middle" x="536.393" y="-259" font-family="Helvetica,sans-Serif" font-size="10.00">base/piecewise_interval.h</text>
</a>
</g>
</g>
<!-- Node10&#45;&gt;Node52 -->
<g id="edge154" class="edge"><title>Node10&#45;&gt;Node52</title>
<path fill="none" stroke="midnightblue" d="M3086.21,-490.109C2832.96,-490.968 890.002,-494.095 657.393,-389 605.388,-365.504 564.574,-308.418 546.513,-279.659"/>
<polygon fill="midnightblue" stroke="midnightblue" points="549.475,-277.793 541.277,-271.082 543.5,-281.441 549.475,-277.793"/>
</g>
<!-- Node56 -->
<g id="node57" class="node"><title>Node56</title>
<g id="a_node57"><a xlink:href="_unpacker_acqu_8h.html" target="_top" xlink:title="unpacker/UnpackerAcqu.h">
<polygon fill="white" stroke="black" points="2850.89,-425.5 2850.89,-444.5 2993.89,-444.5 2993.89,-425.5 2850.89,-425.5"/>
<text text-anchor="middle" x="2922.39" y="-432.5" font-family="Helvetica,sans-Serif" font-size="10.00">unpacker/UnpackerAcqu.h</text>
</a>
</g>
</g>
<!-- Node10&#45;&gt;Node56 -->
<g id="edge119" class="edge"><title>Node10&#45;&gt;Node56</title>
<path fill="none" stroke="midnightblue" d="M3086.03,-482.263C3053.69,-473.12 2999.6,-457.827 2962.52,-447.344"/>
<polygon fill="midnightblue" stroke="midnightblue" points="2963.12,-443.877 2952.54,-444.524 2961.21,-450.613 2963.12,-443.877"/>
</g>
<!-- Node58 -->
<g id="node59" class="node"><title>Node58</title>
<g id="a_node59"><a xlink:href="_unpacker_a2_geant_8h.html" target="_top" xlink:title="unpacker/UnpackerA2Geant.h">
<polygon fill="white" stroke="black" points="3113.89,-425.5 3113.89,-444.5 3274.89,-444.5 3274.89,-425.5 3113.89,-425.5"/>
<text text-anchor="middle" x="3194.39" y="-432.5" font-family="Helvetica,sans-Serif" font-size="10.00">unpacker/UnpackerA2Geant.h</text>
</a>
</g>
</g>
<!-- Node10&#45;&gt;Node58 -->
<g id="edge131" class="edge"><title>Node10&#45;&gt;Node58</title>
<path fill="none" stroke="midnightblue" d="M3126.41,-481.324C3138.92,-472.979 3158.07,-460.212 3172.86,-450.352"/>
<polygon fill="midnightblue" stroke="midnightblue" points="3175.03,-453.114 3181.41,-444.655 3171.15,-447.289 3175.03,-453.114"/>
</g>
<!-- Node61 -->
<g id="node62" class="node"><title>Node61</title>
<g id="a_node62"><a xlink:href="_data_manager_8h.html" target="_top" xlink:title="calibration/DataManager.h">
<polygon fill="white" stroke="black" points="3338.89,-369.5 3338.89,-388.5 3481.89,-388.5 3481.89,-369.5 3338.89,-369.5"/>
<text text-anchor="middle" x="3410.39" y="-376.5" font-family="Helvetica,sans-Serif" font-size="10.00">calibration/DataManager.h</text>
</a>
</g>
</g>
<!-- Node10&#45;&gt;Node61 -->
<g id="edge149" class="edge"><title>Node10&#45;&gt;Node61</title>
<path fill="none" stroke="midnightblue" d="M3140.45,-484.713C3174.47,-477.644 3234.36,-463.789 3283.39,-445 3321.13,-430.541 3362.35,-408.11 3387.29,-393.742"/>
<polygon fill="midnightblue" stroke="midnightblue" points="3389.13,-396.721 3396,-388.663 3385.6,-390.672 3389.13,-396.721"/>
</g>
<!-- Node11&#45;&gt;Node4 -->
<g id="edge115" class="edge"><title>Node11&#45;&gt;Node4</title>
<path fill="none" stroke="midnightblue" d="M2886.63,-369.291C2909.78,-347.601 2972.45,-289.766 3028.39,-246 3069.37,-213.942 3079.87,-205.922 3124.39,-179 3189.98,-139.34 3271.11,-99.6335 3312.8,-79.8715"/>
<polygon fill="midnightblue" stroke="midnightblue" points="3314.48,-82.9458 3322.03,-75.5134 3311.5,-76.615 3314.48,-82.9458"/>
</g>
<!-- Node11&#45;&gt;Node5 -->
<g id="edge117" class="edge"><title>Node11&#45;&gt;Node5</title>
<path fill="none" stroke="midnightblue" d="M2917.62,-369.486C2946.75,-362.309 2986.46,-350.396 3018.39,-333 3080.83,-298.984 3142.25,-240.084 3170.01,-211.706"/>
<polygon fill="midnightblue" stroke="midnightblue" points="3172.78,-213.871 3177.22,-204.247 3167.75,-209.007 3172.78,-213.871"/>
</g>
<!-- Node11&#45;&gt;Node8 -->
<g id="edge116" class="edge"><title>Node11&#45;&gt;Node8</title>
<path fill="none" stroke="midnightblue" d="M2879.37,-369.357C2888.94,-327.423 2930.64,-144.765 2944.15,-85.5816"/>
<polygon fill="midnightblue" stroke="midnightblue" points="2947.58,-86.2763 2946.4,-75.7481 2940.76,-84.7183 2947.58,-86.2763"/>
</g>
<!-- Node12 -->
<g id="node13" class="node"><title>Node12</title>
<g id="a_node13"><a xlink:href="_detector__t_8h.html" target="_top" xlink:title="base/Detector_t.h">
<polygon fill="white" stroke="black" points="1405.89,-185 1405.89,-204 1508.89,-204 1508.89,-185 1405.89,-185"/>
<text text-anchor="middle" x="1457.39" y="-192" font-family="Helvetica,sans-Serif" font-size="10.00">base/Detector_t.h</text>
</a>
</g>
</g>
<!-- Node11&#45;&gt;Node12 -->
<g id="edge14" class="edge"><title>Node11&#45;&gt;Node12</title>
<path fill="none" stroke="midnightblue" d="M2816.38,-376.831C2593.93,-372.008 1827.44,-350.319 1595.39,-277 1548.88,-262.302 1501.35,-229.509 1476.01,-210.3"/>
<polygon fill="midnightblue" stroke="midnightblue" points="1478.07,-207.466 1468.01,-204.124 1473.79,-213.006 1478.07,-207.466"/>
</g>
<!-- Node25 -->
<g id="node26" class="node"><title>Node25</title>
<g id="a_node26"><a xlink:href="_reconstruct__traits_8h.html" target="_top" xlink:title="reconstruct/Reconstruct\l_traits.h">
<polygon fill="white" stroke="black" points="2714.89,-246.5 2714.89,-276.5 2845.89,-276.5 2845.89,-246.5 2714.89,-246.5"/>
<text text-anchor="start" x="2722.89" y="-264.5" font-family="Helvetica,sans-Serif" font-size="10.00">reconstruct/Reconstruct</text>
<text text-anchor="middle" x="2780.39" y="-253.5" font-family="Helvetica,sans-Serif" font-size="10.00">_traits.h</text>
</a>
</g>
</g>
<!-- Node11&#45;&gt;Node25 -->
<g id="edge31" class="edge"><title>Node11&#45;&gt;Node25</title>
<path fill="none" stroke="midnightblue" d="M2875.9,-369.183C2873.28,-355.855 2866.81,-330.3 2853.39,-313 2843.8,-300.632 2830.33,-290.129 2817.57,-281.958"/>
<polygon fill="midnightblue" stroke="midnightblue" points="2819.26,-278.893 2808.9,-276.68 2815.62,-284.871 2819.26,-278.893"/>
</g>
<!-- Node11&#45;&gt;Node30 -->
<g id="edge49" class="edge"><title>Node11&#45;&gt;Node30</title>
<path fill="none" stroke="midnightblue" d="M2861.81,-369.324C2846.39,-360.743 2822.58,-347.486 2804.68,-337.522"/>
<polygon fill="midnightblue" stroke="midnightblue" points="2806.38,-334.461 2795.94,-332.655 2802.97,-340.577 2806.38,-334.461"/>
</g>
<!-- Node11&#45;&gt;Node52 -->
<g id="edge104" class="edge"><title>Node11&#45;&gt;Node52</title>
<path fill="none" stroke="midnightblue" d="M2816.11,-376.809C2624.5,-372.906 2019.68,-359.22 1519.39,-333 1183,-315.37 782.626,-283.16 615.638,-269.223"/>
<polygon fill="midnightblue" stroke="midnightblue" points="615.716,-265.717 605.459,-268.372 615.133,-272.693 615.716,-265.717"/>
</g>
<!-- Node12&#45;&gt;Node3 -->
<g id="edge28" class="edge"><title>Node12&#45;&gt;Node3</title>
<path fill="none" stroke="midnightblue" d="M1463.24,-184.828C1481.63,-158.508 1541.39,-79.8899 1614.39,-56 1693.06,-30.2576 2989.42,-13.9725 3211.23,-11.3682"/>
<polygon fill="midnightblue" stroke="midnightblue" points="3211.3,-14.8678 3221.25,-11.2513 3211.21,-7.8683 3211.3,-14.8678"/>
</g>
<!-- Node13 -->
<g id="node14" class="node"><title>Node13</title>
<g id="a_node14"><a xlink:href="bitflag_8h.html" target="_top" xlink:title="base/bitflag.h">
<polygon fill="white" stroke="black" points="1194.89,-118 1194.89,-137 1275.89,-137 1275.89,-118 1194.89,-118"/>
<text text-anchor="middle" x="1235.39" y="-125" font-family="Helvetica,sans-Serif" font-size="10.00">base/bitflag.h</text>
</a>
</g>
</g>
<!-- Node12&#45;&gt;Node13 -->
<g id="edge15" class="edge"><title>Node12&#45;&gt;Node13</title>
<path fill="none" stroke="midnightblue" d="M1427.91,-184.869C1388.41,-173.303 1318.21,-152.749 1274.38,-139.914"/>
<polygon fill="midnightblue" stroke="midnightblue" points="1275.22,-136.515 1264.64,-137.064 1273.25,-143.233 1275.22,-136.515"/>
</g>
<!-- Node15 -->
<g id="node16" class="node"><title>Node15</title>
<g id="a_node16"><a xlink:href="vec3_8h.html" target="_top" xlink:title="base/vec/vec3.h">
<polygon fill="white" stroke="black" points="1044.39,-118 1044.39,-137 1138.39,-137 1138.39,-118 1044.39,-118"/>
<text text-anchor="middle" x="1091.39" y="-125" font-family="Helvetica,sans-Serif" font-size="10.00">base/vec/vec3.h</text>
</a>
</g>
</g>
<!-- Node12&#45;&gt;Node15 -->
<g id="edge17" class="edge"><title>Node12&#45;&gt;Node15</title>
<path fill="none" stroke="midnightblue" d="M1420.48,-184.935C1411.02,-182.866 1400.85,-180.75 1391.39,-179 1285.76,-159.464 1257.85,-163.439 1152.39,-143 1146.85,-141.926 1141.05,-140.691 1135.32,-139.406"/>
<polygon fill="midnightblue" stroke="midnightblue" points="1135.69,-135.9 1125.16,-137.061 1134.12,-142.721 1135.69,-135.9"/>
</g>
<!-- Node19 -->
<g id="node20" class="node"><title>Node19</title>
<g id="a_node20"><a xlink:href="base_2std__ext_2math_8h.html" target="_top" xlink:title="base/std_ext/math.h">
<polygon fill="white" stroke="black" points="1294.39,-118 1294.39,-137 1410.39,-137 1410.39,-118 1294.39,-118"/>
<text text-anchor="middle" x="1352.39" y="-125" font-family="Helvetica,sans-Serif" font-size="10.00">base/std_ext/math.h</text>
</a>
</g>
</g>
<!-- Node12&#45;&gt;Node19 -->
<g id="edge22" class="edge"><title>Node12&#45;&gt;Node19</title>
<path fill="none" stroke="midnightblue" d="M1443.23,-184.734C1425.68,-173.867 1395.55,-155.216 1374.84,-142.393"/>
<polygon fill="midnightblue" stroke="midnightblue" points="1376.67,-139.415 1366.33,-137.127 1372.99,-145.367 1376.67,-139.415"/>
</g>
<!-- Node21 -->
<g id="node22" class="node"><title>Node21</title>
<polygon fill="white" stroke="#bfbfbf" points="1528.89,-0.5 1528.89,-19.5 1575.89,-19.5 1575.89,-0.5 1528.89,-0.5"/>
<text text-anchor="middle" x="1552.39" y="-7.5" font-family="Helvetica,sans-Serif" font-size="10.00">vector</text>
</g>
<!-- Node12&#45;&gt;Node21 -->
<g id="edge30" class="edge"><title>Node12&#45;&gt;Node21</title>
<path fill="none" stroke="midnightblue" d="M1454.93,-184.886C1448.88,-161.819 1435.64,-97.5825 1462.39,-56 1475.01,-36.3945 1498.93,-25.0008 1518.94,-18.5851"/>
<polygon fill="midnightblue" stroke="midnightblue" points="1520.05,-21.9057 1528.67,-15.744 1518.09,-15.186 1520.05,-21.9057"/>
</g>
<!-- Node22 -->
<g id="node23" class="node"><title>Node22</title>
<polygon fill="white" stroke="#bfbfbf" points="976.893,-118 976.893,-137 1025.89,-137 1025.89,-118 976.893,-118"/>
<text text-anchor="middle" x="1001.39" y="-125" font-family="Helvetica,sans-Serif" font-size="10.00">cstdint</text>
</g>
<!-- Node12&#45;&gt;Node22 -->
<g id="edge26" class="edge"><title>Node12&#45;&gt;Node22</title>
<path fill="none" stroke="midnightblue" d="M1422.26,-184.992C1412.32,-182.802 1401.47,-180.611 1391.39,-179 1234.36,-153.896 1189.4,-182.645 1035.39,-143 1033.03,-142.393 1030.63,-141.646 1028.24,-140.816"/>
<polygon fill="midnightblue" stroke="midnightblue" points="1029.27,-137.463 1018.69,-137.068 1026.72,-143.979 1029.27,-137.463"/>
</g>
<!-- Node12&#45;&gt;Node23 -->
<g id="edge27" class="edge"><title>Node12&#45;&gt;Node23</title>
<path fill="none" stroke="midnightblue" d="M1405.6,-192.187C1315.49,-189.013 1124.46,-178.34 967.393,-143 963.974,-142.231 960.448,-141.264 956.965,-140.197"/>
<polygon fill="midnightblue" stroke="midnightblue" points="957.985,-136.847 947.391,-137.002 955.769,-143.487 957.985,-136.847"/>
</g>
<!-- Node24 -->
<g id="node25" class="node"><title>Node24</title>
<polygon fill="white" stroke="#bfbfbf" points="1133.39,-56.5 1133.39,-75.5 1201.39,-75.5 1201.39,-56.5 1133.39,-56.5"/>
<text text-anchor="middle" x="1167.39" y="-63.5" font-family="Helvetica,sans-Serif" font-size="10.00">type_traits</text>
</g>
<!-- Node12&#45;&gt;Node24 -->
<g id="edge29" class="edge"><title>Node12&#45;&gt;Node24</title>
<path fill="none" stroke="midnightblue" d="M1419.76,-184.937C1410.5,-182.912 1400.6,-180.815 1391.39,-179 1300.2,-161.024 1253.04,-206.735 1185.39,-143 1169.85,-128.355 1166.62,-102.963 1166.43,-85.5916"/>
<polygon fill="midnightblue" stroke="midnightblue" points="1169.93,-85.6016 1166.65,-75.5276 1162.93,-85.4489 1169.93,-85.6016"/>
</g>
<!-- Node14 -->
<g id="node15" class="node"><title>Node14</title>
<polygon fill="white" stroke="#bfbfbf" points="1219.39,-56.5 1219.39,-75.5 1263.39,-75.5 1263.39,-56.5 1219.39,-56.5"/>
<text text-anchor="middle" x="1241.39" y="-63.5" font-family="Helvetica,sans-Serif" font-size="10.00">bitset</text>
</g>
<!-- Node13&#45;&gt;Node14 -->
<g id="edge16" class="edge"><title>Node13&#45;&gt;Node14</title>
<path fill="none" stroke="midnightblue" d="M1236.25,-117.975C1237.1,-109.58 1238.42,-96.4806 1239.51,-85.6631"/>
<polygon fill="midnightblue" stroke="midnightblue" points="1243.01,-85.8098 1240.53,-75.5091 1236.05,-85.1074 1243.01,-85.8098"/>
</g>
<!-- Node16 -->
<g id="node17" class="node"><title>Node16</title>
<g id="a_node17"><a xlink:href="vec2_8h.html" target="_top" xlink:title="vec2.h">
<polygon fill="white" stroke="black" points="1067.39,-56.5 1067.39,-75.5 1115.39,-75.5 1115.39,-56.5 1067.39,-56.5"/>
<text text-anchor="middle" x="1091.39" y="-63.5" font-family="Helvetica,sans-Serif" font-size="10.00">vec2.h</text>
</a>
</g>
</g>
<!-- Node15&#45;&gt;Node16 -->
<g id="edge18" class="edge"><title>Node15&#45;&gt;Node16</title>
<path fill="none" stroke="midnightblue" d="M1091.39,-117.975C1091.39,-109.58 1091.39,-96.4806 1091.39,-85.6631"/>
<polygon fill="midnightblue" stroke="midnightblue" points="1094.89,-85.5091 1091.39,-75.5091 1087.89,-85.5091 1094.89,-85.5091"/>
</g>
<!-- Node17 -->
<g id="node18" class="node"><title>Node17</title>
<polygon fill="white" stroke="#bfbfbf" points="1067.89,-0.5 1067.89,-19.5 1114.89,-19.5 1114.89,-0.5 1067.89,-0.5"/>
<text text-anchor="middle" x="1091.39" y="-7.5" font-family="Helvetica,sans-Serif" font-size="10.00">cmath</text>
</g>
<!-- Node15&#45;&gt;Node17 -->
<g id="edge21" class="edge"><title>Node15&#45;&gt;Node17</title>
<path fill="none" stroke="midnightblue" d="M1082.39,-117.661C1070.21,-104.58 1050.82,-79.1181 1058.39,-56 1061.88,-45.3397 1068.97,-35.1174 1075.68,-27.1175"/>
<polygon fill="midnightblue" stroke="midnightblue" points="1078.3,-29.4395 1082.37,-19.66 1073.09,-24.7633 1078.3,-29.4395"/>
</g>
<!-- Node18 -->
<g id="node19" class="node"><title>Node18</title>
<polygon fill="white" stroke="#bfbfbf" points="281.893,-56.5 281.893,-75.5 338.893,-75.5 338.893,-56.5 281.893,-56.5"/>
<text text-anchor="middle" x="310.393" y="-63.5" font-family="Helvetica,sans-Serif" font-size="10.00">ostream</text>
</g>
<!-- Node15&#45;&gt;Node18 -->
<g id="edge20" class="edge"><title>Node15&#45;&gt;Node18</title>
<path fill="none" stroke="midnightblue" d="M1062.33,-117.933C1053.44,-115.631 1043.58,-113.395 1034.39,-112 735.354,-66.582 651.706,-119.171 348.914,-75.951"/>
<polygon fill="midnightblue" stroke="midnightblue" points="349.371,-72.4807 338.972,-74.5089 348.366,-79.4082 349.371,-72.4807"/>
</g>
<!-- Node16&#45;&gt;Node17 -->
<g id="edge19" class="edge"><title>Node16&#45;&gt;Node17</title>
<path fill="none" stroke="midnightblue" d="M1091.39,-56.083C1091.39,-49.0059 1091.39,-38.8611 1091.39,-29.9865"/>
<polygon fill="midnightblue" stroke="midnightblue" points="1094.89,-29.751 1091.39,-19.7511 1087.89,-29.7511 1094.89,-29.751"/>
</g>
<!-- Node19&#45;&gt;Node17 -->
<g id="edge23" class="edge"><title>Node19&#45;&gt;Node17</title>
<path fill="none" stroke="midnightblue" d="M1344.98,-117.641C1331.91,-102.609 1303.21,-72.1645 1272.39,-56 1224.69,-30.981 1162.55,-19.4755 1124.88,-14.4857"/>
<polygon fill="midnightblue" stroke="midnightblue" points="1125.29,-11.0102 1114.94,-13.2452 1124.43,-17.9564 1125.29,-11.0102"/>
</g>
<!-- Node20 -->
<g id="node21" class="node"><title>Node20</title>
<polygon fill="white" stroke="#bfbfbf" points="818.393,-56.5 818.393,-75.5 860.393,-75.5 860.393,-56.5 818.393,-56.5"/>
<text text-anchor="middle" x="839.393" y="-63.5" font-family="Helvetica,sans-Serif" font-size="10.00">limits</text>
</g>
<!-- Node19&#45;&gt;Node20 -->
<g id="edge24" class="edge"><title>Node19&#45;&gt;Node20</title>
<path fill="none" stroke="midnightblue" d="M1315.83,-117.936C1305.69,-115.771 1294.65,-113.607 1284.39,-112 1130.43,-87.8739 944.368,-73.9186 871.166,-69.0151"/>
<polygon fill="midnightblue" stroke="midnightblue" points="871.013,-65.4975 860.804,-68.3313 870.552,-72.4823 871.013,-65.4975"/>
</g>
<!-- Node19&#45;&gt;Node21 -->
<g id="edge25" class="edge"><title>Node19&#45;&gt;Node21</title>
<path fill="none" stroke="midnightblue" d="M1359.02,-117.897C1370.73,-103.25 1396.47,-73.372 1424.39,-56 1454.01,-37.5759 1492.19,-25.4095 1519.12,-18.426"/>
<polygon fill="midnightblue" stroke="midnightblue" points="1519.99,-21.816 1528.85,-16.0011 1518.3,-15.0238 1519.99,-21.816"/>
</g>
<!-- Node25&#45;&gt;Node4 -->
<g id="edge45" class="edge"><title>Node25&#45;&gt;Node4</title>
<path fill="none" stroke="midnightblue" d="M2810.23,-246.451C2880.92,-213.333 3057.3,-131.677 3119.39,-112 3181.77,-92.2349 3256.87,-79.0994 3301.52,-72.3602"/>
<polygon fill="midnightblue" stroke="midnightblue" points="3302.26,-75.7879 3311.64,-70.8626 3301.24,-68.8632 3302.26,-75.7879"/>
</g>
<!-- Node25&#45;&gt;Node5 -->
<g id="edge46" class="edge"><title>Node25&#45;&gt;Node5</title>
<path fill="none" stroke="midnightblue" d="M2845.91,-249.984C2935.22,-235.651 3091.45,-210.578 3156.1,-200.201"/>
<polygon fill="midnightblue" stroke="midnightblue" points="3157.05,-203.594 3166.37,-198.553 3155.94,-196.682 3157.05,-203.594"/>
</g>
<!-- Node25&#45;&gt;Node8 -->
<g id="edge47" class="edge"><title>Node25&#45;&gt;Node8</title>
<path fill="none" stroke="midnightblue" d="M2802.96,-246.442C2816.94,-237.108 2834.76,-224.025 2848.39,-210 2887.49,-169.773 2922.35,-112.924 2938.64,-84.5455"/>
<polygon fill="midnightblue" stroke="midnightblue" points="2941.73,-86.1957 2943.61,-75.7688 2935.64,-82.7483 2941.73,-86.1957"/>
</g>
<!-- Node25&#45;&gt;Node9 -->
<g id="edge48" class="edge"><title>Node25&#45;&gt;Node9</title>
<path fill="none" stroke="midnightblue" d="M2727.73,-246.448C2692.6,-236.817 2645.5,-223.402 2604.39,-210 2522.05,-183.15 2502.24,-174.066 2421.39,-143 2386.96,-129.768 2380.33,-120.335 2344.39,-112 2234.93,-86.6144 1891.48,-72.6037 1771.37,-68.3819"/>
<polygon fill="midnightblue" stroke="midnightblue" points="1771.23,-64.8751 1761.11,-68.0264 1770.99,-71.8709 1771.23,-64.8751"/>
</g>
<!-- Node25&#45;&gt;Node12 -->
<g id="edge32" class="edge"><title>Node25&#45;&gt;Node12</title>
<path fill="none" stroke="midnightblue" d="M2714.78,-257.277C2488.06,-246.137 1739.46,-209.358 1519,-198.527"/>
<polygon fill="midnightblue" stroke="midnightblue" points="1519.06,-195.026 1508.9,-198.031 1518.72,-202.017 1519.06,-195.026"/>
</g>
<!-- Node26 -->
<g id="node27" class="node"><title>Node26</title>
<g id="a_node27"><a xlink:href="mapped__vectors_8h.html" target="_top" xlink:title="base/std_ext/mapped\l_vectors.h">
<polygon fill="white" stroke="black" points="2718.89,-179.5 2718.89,-209.5 2839.89,-209.5 2839.89,-179.5 2718.89,-179.5"/>
<text text-anchor="start" x="2726.89" y="-197.5" font-family="Helvetica,sans-Serif" font-size="10.00">base/std_ext/mapped</text>
<text text-anchor="middle" x="2779.39" y="-186.5" font-family="Helvetica,sans-Serif" font-size="10.00">_vectors.h</text>
</a>
</g>
</g>
<!-- Node25&#45;&gt;Node26 -->
<g id="edge33" class="edge"><title>Node25&#45;&gt;Node26</title>
<path fill="none" stroke="midnightblue" d="M2780.18,-246.396C2780.06,-238.645 2779.91,-228.812 2779.77,-219.86"/>
<polygon fill="midnightblue" stroke="midnightblue" points="2783.26,-219.521 2779.61,-209.577 2776.26,-219.629 2783.26,-219.521"/>
</g>
<!-- Node28 -->
<g id="node29" class="node"><title>Node28</title>
<g id="a_node29"><a xlink:href="shared__ptr__container_8h.html" target="_top" xlink:title="base/std_ext/shared\l_ptr_container.h">
<polygon fill="white" stroke="black" points="2430.39,-112.5 2430.39,-142.5 2544.39,-142.5 2544.39,-112.5 2430.39,-112.5"/>
<text text-anchor="start" x="2438.39" y="-130.5" font-family="Helvetica,sans-Serif" font-size="10.00">base/std_ext/shared</text>
<text text-anchor="middle" x="2487.39" y="-119.5" font-family="Helvetica,sans-Serif" font-size="10.00">_ptr_container.h</text>
</a>
</g>
</g>
<!-- Node25&#45;&gt;Node28 -->
<g id="edge40" class="edge"><title>Node25&#45;&gt;Node28</title>
<path fill="none" stroke="midnightblue" d="M2749.31,-246.499C2696.02,-222.489 2587.23,-173.477 2528.01,-146.797"/>
<polygon fill="midnightblue" stroke="midnightblue" points="2529.15,-143.473 2518.59,-142.556 2526.27,-149.855 2529.15,-143.473"/>
</g>
<!-- Node26&#45;&gt;Node4 -->
<g id="edge38" class="edge"><title>Node26&#45;&gt;Node4</title>
<path fill="none" stroke="midnightblue" d="M2812.41,-179.441C2856.67,-161.159 2938.06,-129.499 3010.39,-112 3113.99,-86.9382 3239.5,-74.6365 3301.65,-69.713"/>
<polygon fill="midnightblue" stroke="midnightblue" points="3302.08,-73.1902 3311.78,-68.9316 3301.54,-66.2109 3302.08,-73.1902"/>
</g>
<!-- Node26&#45;&gt;Node21 -->
<g id="edge37" class="edge"><title>Node26&#45;&gt;Node21</title>
<path fill="none" stroke="midnightblue" d="M2747.53,-179.438C2704.38,-161.002 2624.59,-129.012 2553.39,-112 2181.98,-23.2511 1714.88,-12.4245 1586.42,-11.1548"/>
<polygon fill="midnightblue" stroke="midnightblue" points="1586.09,-7.65198 1576.06,-11.0665 1586.03,-14.6517 1586.09,-7.65198"/>
</g>
<!-- Node26&#45;&gt;Node24 -->
<g id="edge39" class="edge"><title>Node26&#45;&gt;Node24</title>
<path fill="none" stroke="midnightblue" d="M2718.64,-189.441C2646.7,-183.605 2523.71,-170.378 2421.39,-143 2385.75,-133.465 2380.49,-119.591 2344.39,-112 2100.79,-60.7812 1476.84,-104.792 1211.62,-75.8676"/>
<polygon fill="midnightblue" stroke="midnightblue" points="1211.9,-72.377 1201.57,-74.7152 1211.11,-79.3315 1211.9,-72.377"/>
</g>
<!-- Node27 -->
<g id="node28" class="node"><title>Node27</title>
<g id="a_node28"><a xlink:href="memory_8h.html" target="_top" xlink:title="base/std_ext/memory.h">
<polygon fill="white" stroke="black" points="2714.89,-118 2714.89,-137 2843.89,-137 2843.89,-118 2714.89,-118"/>
<text text-anchor="middle" x="2779.39" y="-125" font-family="Helvetica,sans-Serif" font-size="10.00">base/std_ext/memory.h</text>
</a>
</g>
</g>
<!-- Node26&#45;&gt;Node27 -->
<g id="edge34" class="edge"><title>Node26&#45;&gt;Node27</title>
<path fill="none" stroke="midnightblue" d="M2779.39,-179.396C2779.39,-170.064 2779.39,-157.714 2779.39,-147.517"/>
<polygon fill="midnightblue" stroke="midnightblue" points="2782.89,-147.195 2779.39,-137.195 2775.89,-147.195 2782.89,-147.195"/>
</g>
<!-- Node27&#45;&gt;Node4 -->
<g id="edge35" class="edge"><title>Node27&#45;&gt;Node4</title>
<path fill="none" stroke="midnightblue" d="M2821.92,-117.981C2833.7,-115.816 2846.51,-113.641 2858.39,-112 3022.49,-89.325 3219.64,-74.8899 3301.66,-69.4486"/>
<polygon fill="midnightblue" stroke="midnightblue" points="3302.02,-72.9326 3311.77,-68.785 3301.56,-65.9476 3302.02,-72.9326"/>
</g>
<!-- Node27&#45;&gt;Node8 -->
<g id="edge36" class="edge"><title>Node27&#45;&gt;Node8</title>
<path fill="none" stroke="midnightblue" d="M2803.61,-117.975C2835.56,-106.725 2891.51,-87.0251 2923.7,-75.692"/>
<polygon fill="midnightblue" stroke="midnightblue" points="2924.99,-78.95 2933.26,-72.3277 2922.67,-72.3473 2924.99,-78.95"/>
</g>
<!-- Node28&#45;&gt;Node4 -->
<g id="edge42" class="edge"><title>Node28&#45;&gt;Node4</title>
<path fill="none" stroke="midnightblue" d="M2544.68,-122.504C2706.69,-111.203 3165.18,-79.2217 3301.62,-69.7043"/>
<polygon fill="midnightblue" stroke="midnightblue" points="3301.89,-73.1944 3311.62,-69.007 3301.4,-66.2114 3301.89,-73.1944"/>
</g>
<!-- Node28&#45;&gt;Node9 -->
<g id="edge43" class="edge"><title>Node28&#45;&gt;Node9</title>
<path fill="none" stroke="midnightblue" d="M2430.16,-114.115C2425.51,-113.322 2420.88,-112.603 2416.39,-112 2173.34,-79.3755 1878.61,-70.1404 1771.15,-67.7592"/>
<polygon fill="midnightblue" stroke="midnightblue" points="1771.12,-64.2578 1761.04,-67.5435 1770.97,-71.2562 1771.12,-64.2578"/>
</g>
<!-- Node28&#45;&gt;Node21 -->
<g id="edge41" class="edge"><title>Node28&#45;&gt;Node21</title>
<path fill="none" stroke="midnightblue" d="M2430.12,-114.367C2425.48,-113.519 2420.86,-112.717 2416.39,-112 2095.01,-60.4939 1702.39,-24.1267 1586.26,-13.9137"/>
<polygon fill="midnightblue" stroke="midnightblue" points="1586.47,-10.4188 1576.2,-13.034 1585.86,-17.3922 1586.47,-10.4188"/>
</g>
<!-- Node29 -->
<g id="node30" class="node"><title>Node29</title>
<polygon fill="white" stroke="#bfbfbf" points="2009.39,-0.5 2009.39,-19.5 2071.39,-19.5 2071.39,-0.5 2009.39,-0.5"/>
<text text-anchor="middle" x="2040.39" y="-7.5" font-family="Helvetica,sans-Serif" font-size="10.00">algorithm</text>
</g>
<!-- Node28&#45;&gt;Node29 -->
<g id="edge44" class="edge"><title>Node28&#45;&gt;Node29</title>
<path fill="none" stroke="midnightblue" d="M2433.03,-112.453C2342.33,-89.0169 2162.13,-42.456 2081.3,-21.5698"/>
<polygon fill="midnightblue" stroke="midnightblue" points="2082.05,-18.1477 2071.49,-19.0346 2080.29,-24.9251 2082.05,-18.1477"/>
</g>
<!-- Node30&#45;&gt;Node2 -->
<g id="edge102" class="edge"><title>Node30&#45;&gt;Node2</title>
<path fill="none" stroke="midnightblue" d="M2845.19,-316.667C2983.01,-305.325 3303.77,-278.928 3440.18,-267.702"/>
<polygon fill="midnightblue" stroke="midnightblue" points="3440.78,-271.165 3450.46,-266.856 3440.2,-264.188 3440.78,-271.165"/>
</g>
<!-- Node30&#45;&gt;Node21 -->
<g id="edge103" class="edge"><title>Node30&#45;&gt;Node21</title>
<path fill="none" stroke="midnightblue" d="M2715.76,-321.823C2532.93,-320.857 2014.64,-314.766 1849.39,-277 1700.68,-243.012 1617.61,-270.194 1533.39,-143 1510.04,-107.738 1529.69,-55.592 1542.86,-28.6097"/>
<polygon fill="midnightblue" stroke="midnightblue" points="1546.04,-30.0834 1547.49,-19.5882 1539.81,-26.8883 1546.04,-30.0834"/>
</g>
<!-- Node30&#45;&gt;Node25 -->
<g id="edge50" class="edge"><title>Node30&#45;&gt;Node25</title>
<path fill="none" stroke="midnightblue" d="M2780.39,-313.475C2780.39,-306.471 2780.39,-296.192 2780.39,-286.696"/>
<polygon fill="midnightblue" stroke="midnightblue" points="2783.89,-286.523 2780.39,-276.523 2776.89,-286.523 2783.89,-286.523"/>
</g>
<!-- Node31 -->
<g id="node32" class="node"><title>Node31</title>
<g id="a_node32"><a xlink:href="_manager__traits_8h.html" target="_top" xlink:title="calibration/gui/Manager\l_traits.h">
<polygon fill="white" stroke="black" points="1858.39,-246.5 1858.39,-276.5 1986.39,-276.5 1986.39,-246.5 1858.39,-246.5"/>
<text text-anchor="start" x="1866.39" y="-264.5" font-family="Helvetica,sans-Serif" font-size="10.00">calibration/gui/Manager</text>
<text text-anchor="middle" x="1922.39" y="-253.5" font-family="Helvetica,sans-Serif" font-size="10.00">_traits.h</text>
</a>
</g>
</g>
<!-- Node30&#45;&gt;Node31 -->
<g id="edge51" class="edge"><title>Node30&#45;&gt;Node31</title>
<path fill="none" stroke="midnightblue" d="M2715.55,-317.503C2559.25,-306.664 2162.4,-279.144 1996.78,-267.658"/>
<polygon fill="midnightblue" stroke="midnightblue" points="1996.9,-264.159 1986.68,-266.958 1996.41,-271.142 1996.9,-264.159"/>
</g>
<!-- Node31&#45;&gt;Node3 -->
<g id="edge98" class="edge"><title>Node31&#45;&gt;Node3</title>
<path fill="none" stroke="midnightblue" d="M1986.63,-252.379C2108.49,-236.33 2381.22,-197.339 2606.39,-143 2651.21,-132.184 2661.04,-124.604 2705.39,-112 2802.03,-84.5352 2825.84,-75.4907 2924.39,-56 3028.47,-35.4169 3153.46,-20.6296 3211.22,-14.3503"/>
<polygon fill="midnightblue" stroke="midnightblue" points="3211.64,-17.826 3221.21,-13.2773 3210.89,-10.8661 3211.64,-17.826"/>
</g>
<!-- Node31&#45;&gt;Node4 -->
<g id="edge100" class="edge"><title>Node31&#45;&gt;Node4</title>
<path fill="none" stroke="midnightblue" d="M1986.61,-259.296C2183.24,-255.291 2768.63,-240.881 2848.39,-210 2868.72,-202.131 2867.61,-190.064 2886.39,-179 2923.51,-157.132 2937.09,-160.649 2976.39,-143 3004.5,-130.379 3009.01,-121.274 3038.39,-112 3130,-83.0809 3243.25,-72.555 3301.59,-68.8732"/>
<polygon fill="midnightblue" stroke="midnightblue" points="3302.05,-72.3518 3311.83,-68.2625 3301.64,-65.3642 3302.05,-72.3518"/>
</g>
<!-- Node31&#45;&gt;Node8 -->
<g id="edge99" class="edge"><title>Node31&#45;&gt;Node8</title>
<path fill="none" stroke="midnightblue" d="M1890.68,-246.375C1835.46,-219.984 1731.87,-161.389 1779.39,-112 1789.67,-101.321 2753.77,-72.6844 2923.14,-67.734"/>
<polygon fill="midnightblue" stroke="midnightblue" points="2923.43,-71.2269 2933.33,-67.4367 2923.23,-64.2299 2923.43,-71.2269"/>
</g>
<!-- Node31&#45;&gt;Node9 -->
<g id="edge101" class="edge"><title>Node31&#45;&gt;Node9</title>
<path fill="none" stroke="midnightblue" d="M1858.09,-258.981C1819.87,-254.483 1773.68,-242.083 1746.39,-210 1716.37,-174.707 1720.91,-115.572 1725.7,-85.6099"/>
<polygon fill="midnightblue" stroke="midnightblue" points="1729.16,-86.1255 1727.48,-75.6656 1722.27,-84.8936 1729.16,-86.1255"/>
</g>
<!-- Node32 -->
<g id="node33" class="node"><title>Node32</title>
<g id="a_node33"><a xlink:href="interval_8h.html" target="_top" xlink:title="base/interval.h">
<polygon fill="white" stroke="black" points="656.893,-185 656.893,-204 743.893,-204 743.893,-185 656.893,-185"/>
<text text-anchor="middle" x="700.393" y="-192" font-family="Helvetica,sans-Serif" font-size="10.00">base/interval.h</text>
</a>
</g>
</g>
<!-- Node31&#45;&gt;Node32 -->
<g id="edge52" class="edge"><title>Node31&#45;&gt;Node32</title>
<path fill="none" stroke="midnightblue" d="M1857.98,-257.074C1643.02,-245.64 952.661,-208.919 754.212,-198.363"/>
<polygon fill="midnightblue" stroke="midnightblue" points="754.21,-194.858 744.038,-197.822 753.838,-201.848 754.21,-194.858"/>
</g>
<!-- Node35 -->
<g id="node36" class="node"><title>Node35</title>
<g id="a_node36"><a xlink:href="_wrap_t_file_8h.html" target="_top" xlink:title="base/WrapTFile.h">
<polygon fill="white" stroke="black" points="2037.89,-185 2037.89,-204 2132.89,-204 2132.89,-185 2037.89,-185"/>
<text text-anchor="middle" x="2085.39" y="-192" font-family="Helvetica,sans-Serif" font-size="10.00">base/WrapTFile.h</text>
</a>
</g>
</g>
<!-- Node31&#45;&gt;Node35 -->
<g id="edge60" class="edge"><title>Node31&#45;&gt;Node35</title>
<path fill="none" stroke="midnightblue" d="M1957.76,-246.396C1986.61,-234.89 2026.97,-218.797 2054.53,-207.807"/>
<polygon fill="midnightblue" stroke="midnightblue" points="2056.07,-210.962 2064.06,-204.007 2053.47,-204.46 2056.07,-210.962"/>
</g>
<!-- Node31&#45;&gt;Node45 -->
<g id="edge85" class="edge"><title>Node31&#45;&gt;Node45</title>
<path fill="none" stroke="midnightblue" d="M1858.1,-259.242C1633.66,-254.65 885.742,-237.6 647.393,-210 636.511,-208.74 624.843,-206.783 614.029,-204.711"/>
<polygon fill="midnightblue" stroke="midnightblue" points="614.468,-201.23 603.977,-202.708 613.1,-208.095 614.468,-201.23"/>
</g>
<!-- Node32&#45;&gt;Node7 -->
<g id="edge58" class="edge"><title>Node32&#45;&gt;Node7</title>
<path fill="none" stroke="midnightblue" d="M725.05,-184.95C751.316,-175.589 793.913,-159.675 829.393,-143 855.139,-130.899 859.295,-123.322 885.393,-112 959.533,-79.8362 978.764,-69.8069 1058.39,-56 1131.67,-43.2937 2279.39,-16.9139 2504.32,-11.8506"/>
<polygon fill="midnightblue" stroke="midnightblue" points="2504.41,-15.3497 2514.32,-11.6258 2504.25,-8.35142 2504.41,-15.3497"/>
</g>
<!-- Node32&#45;&gt;Node17 -->
<g id="edge59" class="edge"><title>Node32&#45;&gt;Node17</title>
<path fill="none" stroke="midnightblue" d="M678.966,-184.906C662.082,-176.851 639.726,-163.03 629.393,-143 623.076,-130.756 621.574,-123.345 629.393,-112 678.452,-40.8115 959.471,-18.3968 1057.59,-12.6859"/>
<polygon fill="midnightblue" stroke="midnightblue" points="1058.04,-16.1661 1067.83,-12.1123 1057.65,-9.17701 1058.04,-16.1661"/>
</g>
<!-- Node32&#45;&gt;Node20 -->
<g id="edge56" class="edge"><title>Node32&#45;&gt;Node20</title>
<path fill="none" stroke="midnightblue" d="M730.606,-184.976C753.365,-177.229 784.025,-163.789 804.393,-143 820.237,-126.828 829.762,-102.177 834.789,-85.3658"/>
<polygon fill="midnightblue" stroke="midnightblue" points="838.193,-86.1884 837.465,-75.6187 831.442,-84.3356 838.193,-86.1884"/>
</g>
<!-- Node32&#45;&gt;Node23 -->
<g id="edge55" class="edge"><title>Node32&#45;&gt;Node23</title>
<path fill="none" stroke="midnightblue" d="M732.02,-184.954C768.037,-175.147 828.6,-158.424 880.393,-143 883.522,-142.068 886.766,-141.083 890.017,-140.084"/>
<polygon fill="midnightblue" stroke="midnightblue" points="891.171,-143.39 899.68,-137.078 889.092,-136.706 891.171,-143.39"/>
</g>
<!-- Node32&#45;&gt;Node29 -->
<g id="edge54" class="edge"><title>Node32&#45;&gt;Node29</title>
<path fill="none" stroke="midnightblue" d="M717.035,-184.868C732.571,-176.101 755.533,-161.24 770.393,-143 797.156,-110.148 774.252,-79.6793 809.393,-56 834.613,-39.005 1787.46,-16.6717 1999.05,-11.9151"/>
<polygon fill="midnightblue" stroke="midnightblue" points="1999.21,-15.4126 2009.13,-11.6893 1999.05,-8.41432 1999.21,-15.4126"/>
</g>
<!-- Node33 -->
<g id="node34" class="node"><title>Node33</title>
<g id="a_node34"><a xlink:href="types_8h.html" target="_top" xlink:title="types.h">
<polygon fill="white" stroke="black" points="638.393,-118 638.393,-137 690.393,-137 690.393,-118 638.393,-118"/>
<text text-anchor="middle" x="664.393" y="-125" font-family="Helvetica,sans-Serif" font-size="10.00">types.h</text>
</a>
</g>
</g>
<!-- Node32&#45;&gt;Node33 -->
<g id="edge53" class="edge"><title>Node32&#45;&gt;Node33</title>
<path fill="none" stroke="midnightblue" d="M695.537,-184.734C690.086,-174.89 681.096,-158.66 674.173,-146.159"/>
<polygon fill="midnightblue" stroke="midnightblue" points="677.078,-144.179 669.171,-137.127 670.954,-147.571 677.078,-144.179"/>
</g>
<!-- Node34 -->
<g id="node35" class="node"><title>Node34</title>
<polygon fill="white" stroke="#bfbfbf" points="708.893,-118 708.893,-137 761.893,-137 761.893,-118 708.893,-118"/>
<text text-anchor="middle" x="735.393" y="-125" font-family="Helvetica,sans-Serif" font-size="10.00">istream</text>
</g>
<!-- Node32&#45;&gt;Node34 -->
<g id="edge57" class="edge"><title>Node32&#45;&gt;Node34</title>
<path fill="none" stroke="midnightblue" d="M705.113,-184.734C710.413,-174.89 719.153,-158.66 725.884,-146.159"/>
<polygon fill="midnightblue" stroke="midnightblue" points="729.088,-147.591 730.747,-137.127 722.924,-144.273 729.088,-147.591"/>
</g>
<!-- Node35&#45;&gt;Node3 -->
<g id="edge80" class="edge"><title>Node35&#45;&gt;Node3</title>
<path fill="none" stroke="midnightblue" d="M2133.01,-192.159C2239.42,-188.584 2493.31,-176.688 2571.39,-143 2625.79,-119.531 2617.71,-78.7906 2672.39,-56 2770.89,-14.9502 3105.59,-11.1015 3211.19,-10.9296"/>
<polygon fill="midnightblue" stroke="midnightblue" points="3211.25,-14.4297 3221.24,-10.9236 3211.24,-7.42971 3211.25,-14.4297"/>
</g>
<!-- Node35&#45;&gt;Node4 -->
<g id="edge79" class="edge"><title>Node35&#45;&gt;Node4</title>
<path fill="none" stroke="midnightblue" d="M2133.01,-192.988C2278.61,-191.012 2716.22,-181.906 2852.39,-143 2880.5,-134.97 2882.45,-120.57 2910.39,-112 3049.7,-69.2802 3224.98,-65.473 3301.58,-66.1286"/>
<polygon fill="midnightblue" stroke="midnightblue" points="3301.68,-69.6299 3311.72,-66.2471 3301.77,-62.6304 3301.68,-69.6299"/>
</g>
<!-- Node35&#45;&gt;Node6 -->
<g id="edge82" class="edge"><title>Node35&#45;&gt;Node6</title>
<path fill="none" stroke="midnightblue" d="M2132.95,-190.581C2316.73,-179.301 2977.22,-138.761 3117.92,-130.125"/>
<polygon fill="midnightblue" stroke="midnightblue" points="3118.42,-133.601 3128.18,-129.495 3117.99,-126.614 3118.42,-133.601"/>
</g>
<!-- Node35&#45;&gt;Node8 -->
<g id="edge81" class="edge"><title>Node35&#45;&gt;Node8</title>
<path fill="none" stroke="midnightblue" d="M2076.62,-184.731C2061.34,-168.418 2033.28,-133.149 2053.39,-112 2068.8,-95.7933 2779.01,-72.383 2923.06,-67.7963"/>
<polygon fill="midnightblue" stroke="midnightblue" points="2923.26,-71.2918 2933.15,-67.4766 2923.04,-64.2953 2923.26,-71.2918"/>
</g>
<!-- Node35&#45;&gt;Node9 -->
<g id="edge84" class="edge"><title>Node35&#45;&gt;Node9</title>
<path fill="none" stroke="midnightblue" d="M2037.78,-190.287C1962.74,-184.464 1821.21,-170.174 1779.39,-143 1758.14,-129.188 1743.88,-102.822 1736.2,-85.072"/>
<polygon fill="midnightblue" stroke="midnightblue" points="1739.44,-83.7321 1732.44,-75.777 1732.95,-86.3596 1739.44,-83.7321"/>
</g>
<!-- Node35&#45;&gt;Node23 -->
<g id="edge83" class="edge"><title>Node35&#45;&gt;Node23</title>
<path fill="none" stroke="midnightblue" d="M2037.75,-192.175C1837.98,-186.509 1073.35,-163.657 967.393,-143 963.877,-142.315 960.257,-141.385 956.691,-140.326"/>
<polygon fill="midnightblue" stroke="midnightblue" points="957.512,-136.911 946.919,-137.092 955.312,-143.557 957.512,-136.911"/>
</g>
<!-- Node35&#45;&gt;Node36 -->
<g id="edge61" class="edge"><title>Node35&#45;&gt;Node36</title>
<path fill="none" stroke="midnightblue" d="M2133.28,-191.887C2246.96,-187.566 2525.65,-173.897 2553.39,-143 2567.41,-127.392 2560.04,-102.26 2552.28,-85.2076"/>
<polygon fill="midnightblue" stroke="midnightblue" points="2555.18,-83.179 2547.58,-75.7916 2548.91,-86.3026 2555.18,-83.179"/>
</g>
<!-- Node37 -->
<g id="node38" class="node"><title>Node37</title>
<g id="a_node38"><a xlink:href="misc_8h.html" target="_top" xlink:title="base/std_ext/misc.h">
<polygon fill="white" stroke="black" points="1542.89,-118 1542.89,-137 1655.89,-137 1655.89,-118 1542.89,-118"/>
<text text-anchor="middle" x="1599.39" y="-125" font-family="Helvetica,sans-Serif" font-size="10.00">base/std_ext/misc.h</text>
</a>
</g>
</g>
<!-- Node35&#45;&gt;Node37 -->
<g id="edge66" class="edge"><title>Node35&#45;&gt;Node37</title>
<path fill="none" stroke="midnightblue" d="M2037.46,-187.09C1950.29,-175.431 1765.65,-150.737 1666.19,-137.434"/>
<polygon fill="midnightblue" stroke="midnightblue" points="1666.63,-133.962 1656.25,-136.105 1665.7,-140.9 1666.63,-133.962"/>
</g>
<!-- Node39 -->
<g id="node40" class="node"><title>Node39</title>
<polygon fill="white" stroke="#bfbfbf" points="2062.39,-118 2062.39,-137 2108.39,-137 2108.39,-118 2062.39,-118"/>
<text text-anchor="middle" x="2085.39" y="-125" font-family="Helvetica,sans-Serif" font-size="10.00">TFile.h</text>
</g>
<!-- Node35&#45;&gt;Node39 -->
<g id="edge73" class="edge"><title>Node35&#45;&gt;Node39</title>
<path fill="none" stroke="midnightblue" d="M2085.39,-184.734C2085.39,-175.183 2085.39,-159.618 2085.39,-147.283"/>
<polygon fill="midnightblue" stroke="midnightblue" points="2088.89,-147.127 2085.39,-137.127 2081.89,-147.127 2088.89,-147.127"/>
</g>
<!-- Node40 -->
<g id="node41" class="node"><title>Node40</title>
<polygon fill="white" stroke="#bfbfbf" points="2126.89,-118 2126.89,-137 2199.89,-137 2199.89,-118 2126.89,-118"/>
<text text-anchor="middle" x="2163.39" y="-125" font-family="Helvetica,sans-Serif" font-size="10.00">TDirectory.h</text>
</g>
<!-- Node35&#45;&gt;Node40 -->
<g id="edge74" class="edge"><title>Node35&#45;&gt;Node40</title>
<path fill="none" stroke="midnightblue" d="M2095.91,-184.734C2108.54,-174.208 2129.94,-156.379 2145.25,-143.617"/>
<polygon fill="midnightblue" stroke="midnightblue" points="2147.6,-146.218 2153.04,-137.127 2143.12,-140.84 2147.6,-146.218"/>
</g>
<!-- Node41 -->
<g id="node42" class="node"><title>Node41</title>
<polygon fill="white" stroke="#bfbfbf" points="2217.89,-118 2217.89,-137 2270.89,-137 2270.89,-118 2217.89,-118"/>
<text text-anchor="middle" x="2244.39" y="-125" font-family="Helvetica,sans-Serif" font-size="10.00">TError.h</text>
</g>
<!-- Node35&#45;&gt;Node41 -->
<g id="edge75" class="edge"><title>Node35&#45;&gt;Node41</title>
<path fill="none" stroke="midnightblue" d="M2106.51,-184.869C2134.02,-173.619 2182.34,-153.867 2213.85,-140.985"/>
<polygon fill="midnightblue" stroke="midnightblue" points="2215.51,-144.088 2223.44,-137.064 2212.86,-137.608 2215.51,-144.088"/>
</g>
<!-- Node42 -->
<g id="node43" class="node"><title>Node42</title>
<polygon fill="white" stroke="#bfbfbf" points="2288.89,-118 2288.89,-137 2335.89,-137 2335.89,-118 2288.89,-118"/>
<text text-anchor="middle" x="2312.39" y="-125" font-family="Helvetica,sans-Serif" font-size="10.00">TList.h</text>
</g>
<!-- Node35&#45;&gt;Node42 -->
<g id="edge76" class="edge"><title>Node35&#45;&gt;Node42</title>
<path fill="none" stroke="midnightblue" d="M2125.7,-184.981C2165.33,-176.146 2227.28,-161.101 2279.39,-143 2281.25,-142.353 2283.16,-141.646 2285.06,-140.903"/>
<polygon fill="midnightblue" stroke="midnightblue" points="2286.55,-144.075 2294.44,-137.005 2283.87,-137.611 2286.55,-144.075"/>
</g>
<!-- Node43 -->
<g id="node44" class="node"><title>Node43</title>
<polygon fill="white" stroke="#bfbfbf" points="1864.89,-118 1864.89,-137 1941.89,-137 1941.89,-118 1864.89,-118"/>
<text text-anchor="middle" x="1903.39" y="-125" font-family="Helvetica,sans-Serif" font-size="10.00">TCollection.h</text>
</g>
<!-- Node35&#45;&gt;Node43 -->
<g id="edge77" class="edge"><title>Node35&#45;&gt;Node43</title>
<path fill="none" stroke="midnightblue" d="M2061.22,-184.869C2029.32,-173.473 1972.98,-153.353 1936.96,-140.487"/>
<polygon fill="midnightblue" stroke="midnightblue" points="1937.97,-137.131 1927.37,-137.064 1935.61,-143.723 1937.97,-137.131"/>
</g>
<!-- Node44 -->
<g id="node45" class="node"><title>Node44</title>
<polygon fill="white" stroke="#bfbfbf" points="1960.39,-118 1960.39,-137 2006.39,-137 2006.39,-118 1960.39,-118"/>
<text text-anchor="middle" x="1983.39" y="-125" font-family="Helvetica,sans-Serif" font-size="10.00">TKey.h</text>
</g>
<!-- Node35&#45;&gt;Node44 -->
<g id="edge78" class="edge"><title>Node35&#45;&gt;Node44</title>
<path fill="none" stroke="midnightblue" d="M2071.64,-184.734C2054.66,-173.916 2025.58,-155.383 2005.47,-142.566"/>
<polygon fill="midnightblue" stroke="midnightblue" points="2007.24,-139.55 1996.93,-137.127 2003.48,-145.453 2007.24,-139.55"/>
</g>
<!-- Node36&#45;&gt;Node3 -->
<g id="edge62" class="edge"><title>Node36&#45;&gt;Node3</title>
<path fill="none" stroke="midnightblue" d="M2600.93,-57.5153C2605.82,-56.9717 2610.69,-56.4581 2615.39,-56 2843.27,-33.8034 3118.66,-17.8043 3211.26,-12.7204"/>
<polygon fill="midnightblue" stroke="midnightblue" points="3211.59,-16.2076 3221.39,-12.1682 3211.21,-9.21802 3211.59,-16.2076"/>
</g>
<!-- Node36&#45;&gt;Node7 -->
<g id="edge63" class="edge"><title>Node36&#45;&gt;Node7</title>
<path fill="none" stroke="midnightblue" d="M2542.39,-56.083C2542.39,-49.0059 2542.39,-38.8611 2542.39,-29.9865"/>
<polygon fill="midnightblue" stroke="midnightblue" points="2545.89,-29.751 2542.39,-19.7511 2538.89,-29.7511 2545.89,-29.751"/>
</g>
<!-- Node36&#45;&gt;Node21 -->
<g id="edge65" class="edge"><title>Node36&#45;&gt;Node21</title>
<path fill="none" stroke="midnightblue" d="M2483.66,-59.9096C2466.79,-58.5368 2448.37,-57.1226 2431.39,-56 2102.41,-34.247 1703.57,-17.1959 1586.33,-12.3734"/>
<polygon fill="midnightblue" stroke="midnightblue" points="1586.32,-8.87004 1576.18,-11.9577 1586.03,-15.8642 1586.32,-8.87004"/>
</g>
<!-- Node36&#45;&gt;Node29 -->
<g id="edge64" class="edge"><title>Node36&#45;&gt;Node29</title>
<path fill="none" stroke="midnightblue" d="M2483.83,-57.6854C2478.95,-57.1043 2474.09,-56.5355 2469.39,-56 2327.27,-39.7861 2158.39,-22.7147 2081.81,-15.0926"/>
<polygon fill="midnightblue" stroke="midnightblue" points="2081.93,-11.587 2071.63,-14.0808 2081.24,-18.5527 2081.93,-11.587"/>
</g>
<!-- Node37&#45;&gt;Node4 -->
<g id="edge72" class="edge"><title>Node37&#45;&gt;Node4</title>
<path fill="none" stroke="midnightblue" d="M1656.09,-121.179C1691.51,-118.043 1738.07,-114.258 1779.39,-112 1935.37,-103.475 3075.65,-73.8283 3301.56,-67.9993"/>
<polygon fill="midnightblue" stroke="midnightblue" points="3301.71,-71.4966 3311.62,-67.7399 3301.53,-64.4989 3301.71,-71.4966"/>
</g>
<!-- Node37&#45;&gt;Node9 -->
<g id="edge68" class="edge"><title>Node37&#45;&gt;Node9</title>
<path fill="none" stroke="midnightblue" d="M1618.02,-117.975C1639.84,-107.99 1676.2,-91.3476 1701.41,-79.8075"/>
<polygon fill="midnightblue" stroke="midnightblue" points="1703.16,-82.8534 1710.8,-75.5091 1700.25,-76.4884 1703.16,-82.8534"/>
</g>
<!-- Node37&#45;&gt;Node17 -->
<g id="edge69" class="edge"><title>Node37&#45;&gt;Node17</title>
<path fill="none" stroke="midnightblue" d="M1564.13,-117.901C1508.41,-104.373 1396.56,-77.4515 1301.39,-56 1239.19,-41.9795 1166.38,-26.6103 1124.9,-17.9506"/>
<polygon fill="midnightblue" stroke="midnightblue" points="1125.55,-14.5122 1115.05,-15.8984 1124.12,-21.365 1125.55,-14.5122"/>
</g>
<!-- Node37&#45;&gt;Node24 -->
<g id="edge71" class="edge"><title>Node37&#45;&gt;Node24</title>
<path fill="none" stroke="midnightblue" d="M1542.82,-120.543C1468.93,-112.453 1335.34,-96.7769 1211.64,-76.1021"/>
<polygon fill="midnightblue" stroke="midnightblue" points="1212.06,-72.6229 1201.61,-74.4115 1210.89,-79.5255 1212.06,-72.6229"/>
</g>
<!-- Node37&#45;&gt;Node29 -->
<g id="edge67" class="edge"><title>Node37&#45;&gt;Node29</title>
<path fill="none" stroke="midnightblue" d="M1598.31,-117.552C1597.02,-102.385 1596.91,-71.7444 1614.39,-56 1642.65,-30.5525 1897.63,-17.0446 1999.06,-12.6405"/>
<polygon fill="midnightblue" stroke="midnightblue" points="1999.39,-16.1296 2009.23,-12.207 1999.09,-9.13599 1999.39,-16.1296"/>
</g>
<!-- Node38 -->
<g id="node39" class="node"><title>Node38</title>
<polygon fill="white" stroke="#bfbfbf" points="1623.39,-56.5 1623.39,-75.5 1679.39,-75.5 1679.39,-56.5 1623.39,-56.5"/>
<text text-anchor="middle" x="1651.39" y="-63.5" font-family="Helvetica,sans-Serif" font-size="10.00">cxxabi.h</text>
</g>
<!-- Node37&#45;&gt;Node38 -->
<g id="edge70" class="edge"><title>Node37&#45;&gt;Node38</title>
<path fill="none" stroke="midnightblue" d="M1606.84,-117.975C1614.72,-108.962 1627.34,-94.5246 1637.14,-83.3118"/>
<polygon fill="midnightblue" stroke="midnightblue" points="1640.01,-85.342 1643.96,-75.5091 1634.74,-80.7356 1640.01,-85.342"/>
</g>
<!-- Node45&#45;&gt;Node8 -->
<g id="edge95" class="edge"><title>Node45&#45;&gt;Node8</title>
<path fill="none" stroke="midnightblue" d="M575.396,-184.789C581.978,-167.23 599.522,-127.907 629.393,-112 677.946,-86.1438 2554.4,-77.23 2609.39,-76 2726.65,-73.3775 2866.71,-69.3863 2923.06,-67.7448"/>
<polygon fill="midnightblue" stroke="midnightblue" points="2923.3,-71.2397 2933.19,-67.449 2923.09,-64.2427 2923.3,-71.2397"/>
</g>
<!-- Node45&#45;&gt;Node22 -->
<g id="edge93" class="edge"><title>Node45&#45;&gt;Node22</title>
<path fill="none" stroke="midnightblue" d="M604.045,-186.806C617.385,-184.134 633.103,-181.182 647.393,-179 788.873,-157.4 828.994,-179.457 967.393,-143 969.749,-142.379 972.154,-141.624 974.542,-140.787"/>
<polygon fill="midnightblue" stroke="midnightblue" points="976.067,-143.948 984.089,-137.028 973.502,-137.435 976.067,-143.948"/>
</g>
<!-- Node45&#45;&gt;Node23 -->
<g id="edge94" class="edge"><title>Node45&#45;&gt;Node23</title>
<path fill="none" stroke="midnightblue" d="M604.126,-187.278C617.478,-184.683 633.184,-181.659 647.393,-179 731.257,-163.304 829.457,-145.712 884.135,-135.987"/>
<polygon fill="midnightblue" stroke="midnightblue" points="884.916,-139.403 894.149,-134.208 883.691,-132.511 884.916,-139.403"/>
</g>
<!-- Node45&#45;&gt;Node24 -->
<g id="edge91" class="edge"><title>Node45&#45;&gt;Node24</title>
<path fill="none" stroke="midnightblue" d="M572.01,-184.889C571.777,-167.866 573.96,-130.002 596.393,-112 640.373,-76.7066 1032.01,-83.3937 1123.2,-75.6754"/>
<polygon fill="midnightblue" stroke="midnightblue" points="1123.63,-79.1492 1133.2,-74.6016 1122.88,-72.1892 1123.63,-79.1492"/>
</g>
<!-- Node46 -->
<g id="node47" class="node"><title>Node46</title>
<polygon fill="white" stroke="#bfbfbf" points="1788.39,-118 1788.39,-137 1846.39,-137 1846.39,-118 1788.39,-118"/>
<text text-anchor="middle" x="1817.39" y="-125" font-family="Helvetica,sans-Serif" font-size="10.00">Rtypes.h</text>
</g>
<!-- Node45&#45;&gt;Node46 -->
<g id="edge86" class="edge"><title>Node45&#45;&gt;Node46</title>
<path fill="none" stroke="midnightblue" d="M603.973,-186.263C617.301,-183.504 633.029,-180.633 647.393,-179 1096.78,-127.92 1213.06,-172.349 1664.39,-143 1703.1,-140.483 1747.18,-136.15 1778.05,-132.874"/>
<polygon fill="midnightblue" stroke="midnightblue" points="1778.82,-136.311 1788.39,-131.764 1778.07,-129.351 1778.82,-136.311"/>
</g>
<!-- Node47 -->
<g id="node48" class="node"><title>Node47</title>
<g id="a_node48"><a xlink:href="base_2std__ext_2_time_8h.html" target="_top" xlink:title="base/std_ext/time.h">
<polygon fill="white" stroke="black" points="185.393,-118 185.393,-137 297.393,-137 297.393,-118 185.393,-118"/>
<text text-anchor="middle" x="241.393" y="-125" font-family="Helvetica,sans-Serif" font-size="10.00">base/std_ext/time.h</text>
</a>
</g>
</g>
<!-- Node45&#45;&gt;Node47 -->
<g id="edge87" class="edge"><title>Node45&#45;&gt;Node47</title>
<path fill="none" stroke="midnightblue" d="M540.655,-187.268C483.823,-176.107 364.136,-152.604 294.574,-138.943"/>
<polygon fill="midnightblue" stroke="midnightblue" points="295.175,-135.495 284.688,-137.002 293.826,-142.363 295.175,-135.495"/>
</g>
<!-- Node49 -->
<g id="node50" class="node"><title>Node49</title>
<polygon fill="white" stroke="#bfbfbf" points="219.393,-56.5 219.393,-75.5 263.393,-75.5 263.393,-56.5 219.393,-56.5"/>
<text text-anchor="middle" x="241.393" y="-63.5" font-family="Helvetica,sans-Serif" font-size="10.00">ctime</text>
</g>
<!-- Node45&#45;&gt;Node49 -->
<g id="edge97" class="edge"><title>Node45&#45;&gt;Node49</title>
<path fill="none" stroke="midnightblue" d="M540.66,-192.998C429.307,-190.913 61.1881,-181.162 26.3925,-143 17.1096,-132.819 17.6353,-122.637 26.3925,-112 77.391,-50.0566 125.692,-92.2306 209.281,-75.8882"/>
<polygon fill="midnightblue" stroke="midnightblue" points="210.09,-79.2941 219.105,-73.7286 208.587,-72.4573 210.09,-79.2941"/>
</g>
<!-- Node50 -->
<g id="node51" class="node"><title>Node50</title>
<polygon fill="white" stroke="#bfbfbf" points="391.893,-118 391.893,-137 432.893,-137 432.893,-118 391.893,-118"/>
<text text-anchor="middle" x="412.393" y="-125" font-family="Helvetica,sans-Serif" font-size="10.00">tuple</text>
</g>
<!-- Node45&#45;&gt;Node50 -->
<g id="edge92" class="edge"><title>Node45&#45;&gt;Node50</title>
<path fill="none" stroke="midnightblue" d="M547.965,-184.877C521.438,-175.33 477.961,-159.146 441.393,-143 440.234,-142.488 439.055,-141.955 437.868,-141.407"/>
<polygon fill="midnightblue" stroke="midnightblue" points="439.354,-138.238 428.825,-137.058 436.32,-144.546 439.354,-138.238"/>
</g>
<!-- Node51 -->
<g id="node52" class="node"><title>Node51</title>
<polygon fill="white" stroke="#bfbfbf" points="450.893,-118 450.893,-137 505.893,-137 505.893,-118 450.893,-118"/>
<text text-anchor="middle" x="478.393" y="-125" font-family="Helvetica,sans-Serif" font-size="10.00">iomanip</text>
</g>
<!-- Node45&#45;&gt;Node51 -->
<g id="edge96" class="edge"><title>Node45&#45;&gt;Node51</title>
<path fill="none" stroke="midnightblue" d="M559.715,-184.734C544.211,-174.013 517.752,-155.716 499.237,-142.914"/>
<polygon fill="midnightblue" stroke="midnightblue" points="501.085,-139.936 490.869,-137.127 497.103,-145.694 501.085,-139.936"/>
</g>
<!-- Node47&#45;&gt;Node36 -->
<g id="edge88" class="edge"><title>Node47&#45;&gt;Node36</title>
<path fill="none" stroke="midnightblue" d="M297.568,-119.661C323.369,-116.793 354.392,-113.728 382.393,-112 803.662,-85.9943 2153.62,-70.9344 2473.81,-67.6736"/>
<polygon fill="midnightblue" stroke="midnightblue" points="2473.91,-71.1729 2483.87,-67.5716 2473.84,-64.1732 2473.91,-71.1729"/>
</g>
<!-- Node48 -->
<g id="node49" class="node"><title>Node48</title>
<polygon fill="white" stroke="#bfbfbf" points="356.893,-56.5 356.893,-75.5 405.893,-75.5 405.893,-56.5 356.893,-56.5"/>
<text text-anchor="middle" x="381.393" y="-63.5" font-family="Helvetica,sans-Serif" font-size="10.00">cstring</text>
</g>
<!-- Node47&#45;&gt;Node48 -->
<g id="edge89" class="edge"><title>Node47&#45;&gt;Node48</title>
<path fill="none" stroke="midnightblue" d="M261.451,-117.975C285.154,-107.901 324.798,-91.0525 351.975,-79.5023"/>
<polygon fill="midnightblue" stroke="midnightblue" points="353.537,-82.6417 361.371,-75.5091 350.799,-76.1994 353.537,-82.6417"/>
</g>
<!-- Node47&#45;&gt;Node49 -->
<g id="edge90" class="edge"><title>Node47&#45;&gt;Node49</title>
<path fill="none" stroke="midnightblue" d="M241.393,-117.975C241.393,-109.58 241.393,-96.4806 241.393,-85.6631"/>
<polygon fill="midnightblue" stroke="midnightblue" points="244.893,-85.5091 241.393,-75.5091 237.893,-85.5091 244.893,-85.5091"/>
</g>
<!-- Node52&#45;&gt;Node21 -->
<g id="edge114" class="edge"><title>Node52&#45;&gt;Node21</title>
<path fill="none" stroke="midnightblue" d="M480.564,-251.953C352.233,-231.744 45.0234,-179.944 16.3925,-143 7.95279,-132.11 9.28073,-123.8 16.3925,-112 43.8952,-66.3654 70.8847,-69.633 122.393,-56 157.242,-46.7762 1305.46,-17.2601 1518.55,-11.8545"/>
<polygon fill="midnightblue" stroke="midnightblue" points="1518.9,-15.3469 1528.81,-11.5946 1518.72,-8.34913 1518.9,-15.3469"/>
</g>
<!-- Node52&#45;&gt;Node32 -->
<g id="edge105" class="edge"><title>Node52&#45;&gt;Node32</title>
<path fill="none" stroke="midnightblue" d="M558.17,-251.869C586.676,-240.571 636.821,-220.696 669.312,-207.818"/>
<polygon fill="midnightblue" stroke="midnightblue" points="670.779,-211.002 678.786,-204.064 668.2,-204.495 670.779,-211.002"/>
</g>
<!-- Node53 -->
<g id="node54" class="node"><title>Node53</title>
<g id="a_node54"><a xlink:href="printable_8h.html" target="_top" xlink:title="base/std_ext/printable.h">
<polygon fill="white" stroke="black" points="35.3925,-118 35.3925,-137 167.393,-137 167.393,-118 35.3925,-118"/>
<text text-anchor="middle" x="101.393" y="-125" font-family="Helvetica,sans-Serif" font-size="10.00">base/std_ext/printable.h</text>
</a>
</g>
</g>
<!-- Node52&#45;&gt;Node53 -->
<g id="edge106" class="edge"><title>Node52&#45;&gt;Node53</title>
<path fill="none" stroke="midnightblue" d="M508.186,-251.941C432.487,-228.97 224.807,-165.95 139.123,-139.949"/>
<polygon fill="midnightblue" stroke="midnightblue" points="140.12,-136.594 129.535,-137.04 138.088,-143.293 140.12,-136.594"/>
</g>
<!-- Node53&#45;&gt;Node18 -->
<g id="edge113" class="edge"><title>Node53&#45;&gt;Node18</title>
<path fill="none" stroke="midnightblue" d="M131.337,-117.975C168.38,-107.429 231.503,-89.4589 272.052,-77.9151"/>
<polygon fill="midnightblue" stroke="midnightblue" points="273.186,-81.2315 281.845,-75.1271 271.269,-74.499 273.186,-81.2315"/>
</g>
<!-- Node53&#45;&gt;Node24 -->
<g id="edge112" class="edge"><title>Node53&#45;&gt;Node24</title>
<path fill="none" stroke="midnightblue" d="M139.372,-117.988C151.176,-115.658 164.271,-113.394 176.393,-112 591.998,-64.2181 704.149,-126.385 1123.25,-75.9092"/>
<polygon fill="midnightblue" stroke="midnightblue" points="1123.71,-79.3798 1133.21,-74.6958 1122.86,-72.4312 1123.71,-79.3798"/>
</g>
<!-- Node54 -->
<g id="node55" class="node"><title>Node54</title>
<g id="a_node55"><a xlink:href="container_8h.html" target="_top" xlink:title="container.h">
<polygon fill="white" stroke="black" points="131.393,-56.5 131.393,-75.5 201.393,-75.5 201.393,-56.5 131.393,-56.5"/>
<text text-anchor="middle" x="166.393" y="-63.5" font-family="Helvetica,sans-Serif" font-size="10.00">container.h</text>
</a>
</g>
</g>
<!-- Node53&#45;&gt;Node54 -->
<g id="edge107" class="edge"><title>Node53&#45;&gt;Node54</title>
<path fill="none" stroke="midnightblue" d="M110.705,-117.975C120.842,-108.697 137.257,-93.6706 149.644,-82.331"/>
<polygon fill="midnightblue" stroke="midnightblue" points="152.084,-84.8429 157.097,-75.5091 147.357,-79.6795 152.084,-84.8429"/>
</g>
<!-- Node54&#45;&gt;Node3 -->
<g id="edge111" class="edge"><title>Node54&#45;&gt;Node3</title>
<path fill="none" stroke="midnightblue" d="M201.844,-57.1561C204.726,-56.6994 207.602,-56.3034 210.393,-56 249.702,-51.7261 2886.97,-15.8347 3210.9,-11.4404"/>
<polygon fill="midnightblue" stroke="midnightblue" points="3211.08,-14.9383 3221.03,-11.3029 3210.98,-7.93893 3211.08,-14.9383"/>
</g>
<!-- Node54&#45;&gt;Node21 -->
<g id="edge108" class="edge"><title>Node54&#45;&gt;Node21</title>
<path fill="none" stroke="midnightblue" d="M201.851,-57.2138C204.731,-56.7442 207.605,-56.3294 210.393,-56 343.666,-40.2489 1322.99,-16.4246 1518.49,-11.7949"/>
<polygon fill="midnightblue" stroke="midnightblue" points="1518.81,-15.2884 1528.73,-11.5531 1518.65,-8.29035 1518.81,-15.2884"/>
</g>
<!-- Node54&#45;&gt;Node29 -->
<g id="edge109" class="edge"><title>Node54&#45;&gt;Node29</title>
<path fill="none" stroke="midnightblue" d="M201.848,-57.1862C204.729,-56.7228 207.604,-56.317 210.393,-56 302.125,-45.5737 1735.5,-16.9912 1998.95,-11.8107"/>
<polygon fill="midnightblue" stroke="midnightblue" points="1999.3,-15.3047 2009.23,-11.6089 1999.16,-8.30607 1999.3,-15.3047"/>
</g>
<!-- Node55 -->
<g id="node56" class="node"><title>Node55</title>
<polygon fill="white" stroke="#bfbfbf" points="138.393,-0.5 138.393,-19.5 194.393,-19.5 194.393,-0.5 138.393,-0.5"/>
<text text-anchor="middle" x="166.393" y="-7.5" font-family="Helvetica,sans-Serif" font-size="10.00">numeric</text>
</g>
<!-- Node54&#45;&gt;Node55 -->
<g id="edge110" class="edge"><title>Node54&#45;&gt;Node55</title>
<path fill="none" stroke="midnightblue" d="M166.393,-56.083C166.393,-49.0059 166.393,-38.8611 166.393,-29.9865"/>
<polygon fill="midnightblue" stroke="midnightblue" points="169.893,-29.751 166.393,-19.7511 162.893,-29.7511 169.893,-29.751"/>
</g>
<!-- Node56&#45;&gt;Node4 -->
<g id="edge125" class="edge"><title>Node56&#45;&gt;Node4</title>
<path fill="none" stroke="midnightblue" d="M2930.46,-425.392C2938.93,-416.348 2952.63,-401.702 2964.39,-389 3050.53,-295.997 3055.73,-254.72 3157.39,-179 3186.72,-157.153 3199.85,-161.516 3231.39,-143 3264.12,-123.788 3299.79,-97.8858 3321.11,-81.8238"/>
<polygon fill="midnightblue" stroke="midnightblue" points="3323.48,-84.4258 3329.32,-75.5907 3319.24,-78.8509 3323.48,-84.4258"/>
</g>
<!-- Node56&#45;&gt;Node5 -->
<g id="edge127" class="edge"><title>Node56&#45;&gt;Node5</title>
<path fill="none" stroke="midnightblue" d="M2946.48,-425.349C2966.66,-417.5 2995.72,-404.759 3018.39,-389 3076.71,-348.46 3087.43,-331.986 3132.39,-277 3149.36,-256.247 3165.68,-229.874 3175.62,-212.843"/>
<polygon fill="midnightblue" stroke="midnightblue" points="3178.74,-214.423 3180.69,-204.008 3172.67,-210.937 3178.74,-214.423"/>
</g>
<!-- Node56&#45;&gt;Node8 -->
<g id="edge126" class="edge"><title>Node56&#45;&gt;Node8</title>
<path fill="none" stroke="midnightblue" d="M2929,-425.268C2935.12,-416.596 2943.79,-402.655 2947.39,-389 2975.25,-283.271 2948.95,-252.336 2949.39,-143 2949.45,-129.222 2949.55,-125.777 2949.39,-112 2949.3,-103.396 2949.1,-93.8686 2948.9,-85.8037"/>
<polygon fill="midnightblue" stroke="midnightblue" points="2952.4,-85.5323 2948.64,-75.6259 2945.4,-85.7128 2952.4,-85.5323"/>
</g>
<!-- Node56&#45;&gt;Node11 -->
<g id="edge123" class="edge"><title>Node56&#45;&gt;Node11</title>
<path fill="none" stroke="midnightblue" d="M2914.96,-425.083C2908.54,-417.377 2899.09,-406.033 2891.27,-396.653"/>
<polygon fill="midnightblue" stroke="midnightblue" points="2893.78,-394.193 2884.69,-388.751 2888.4,-398.674 2893.78,-394.193"/>
</g>
<!-- Node56&#45;&gt;Node12 -->
<g id="edge124" class="edge"><title>Node56&#45;&gt;Node12</title>
<path fill="none" stroke="midnightblue" d="M2850.86,-434.322C2566.93,-435.276 1532.43,-435.535 1481.39,-389 1431.99,-343.953 1444.53,-253.24 1452.84,-214.136"/>
<polygon fill="midnightblue" stroke="midnightblue" points="1456.31,-214.686 1455.11,-204.158 1449.48,-213.131 1456.31,-214.686"/>
</g>
<!-- Node56&#45;&gt;Node20 -->
<g id="edge130" class="edge"><title>Node56&#45;&gt;Node20</title>
<path fill="none" stroke="midnightblue" d="M2850.73,-433.183C2543.46,-429.542 1345.31,-413.861 1178.39,-389 1086.83,-375.363 432.667,-220.73 382.393,-143 374.91,-131.431 373.14,-122.209 382.393,-112 410.969,-80.4714 709.729,-70.2328 808.146,-67.7021"/>
<polygon fill="midnightblue" stroke="midnightblue" points="808.435,-71.1962 818.345,-67.4493 808.261,-64.1983 808.435,-71.1962"/>
</g>
<!-- Node56&#45;&gt;Node21 -->
<g id="edge128" class="edge"><title>Node56&#45;&gt;Node21</title>
<path fill="none" stroke="midnightblue" d="M2850.75,-433.723C2555.63,-432.352 1433.05,-424.843 1080.39,-389 800.942,-360.597 734.586,-328.15 458.393,-277 252.784,-238.922 105.418,-327.705 7.39251,-143 -12.6459,-105.243 10.5642,-75.9043 48.3925,-56 65.2294,-47.1409 1297.92,-17.1162 1518.73,-11.806"/>
<polygon fill="midnightblue" stroke="midnightblue" points="1518.84,-15.3044 1528.75,-11.5652 1518.67,-8.30643 1518.84,-15.3044"/>
</g>
<!-- Node56&#45;&gt;Node22 -->
<g id="edge129" class="edge"><title>Node56&#45;&gt;Node22</title>
<path fill="none" stroke="midnightblue" d="M2850.46,-433.583C2595.38,-431.825 1734.73,-423.423 1461.39,-389 1329.91,-372.442 1170.39,-456.52 1170.39,-324 1170.39,-324 1170.39,-324 1170.39,-260.5 1170.39,-224.538 1074.15,-167.68 1026.92,-141.944"/>
<polygon fill="midnightblue" stroke="midnightblue" points="1028.37,-138.749 1017.9,-137.086 1025.05,-144.911 1028.37,-138.749"/>
</g>
<!-- Node57 -->
<g id="node58" class="node"><title>Node57</title>
<g id="a_node58"><a xlink:href="_unpacker_8h.html" target="_top" xlink:title="Unpacker.h">
<polygon fill="white" stroke="black" points="3260.89,-313.5 3260.89,-332.5 3331.89,-332.5 3331.89,-313.5 3260.89,-313.5"/>
<text text-anchor="middle" x="3296.39" y="-320.5" font-family="Helvetica,sans-Serif" font-size="10.00">Unpacker.h</text>
</a>
</g>
</g>
<!-- Node56&#45;&gt;Node57 -->
<g id="edge120" class="edge"><title>Node56&#45;&gt;Node57</title>
<path fill="none" stroke="midnightblue" d="M2951.43,-425.46C3018.06,-405.862 3181.99,-357.647 3257.35,-335.483"/>
<polygon fill="midnightblue" stroke="midnightblue" points="3258.77,-338.714 3267.38,-332.535 3256.79,-331.998 3258.77,-338.714"/>
</g>
<!-- Node57&#45;&gt;Node3 -->
<g id="edge121" class="edge"><title>Node57&#45;&gt;Node3</title>
<path fill="none" stroke="midnightblue" d="M3332.09,-322.387C3417.31,-321.603 3636.16,-309.347 3779.39,-210 3819.91,-181.898 3846.44,-158.955 3831.39,-112 3822.06,-82.873 3817.99,-71.0977 3791.39,-56 3746.5,-30.5202 3386.26,-15.9724 3275.61,-12.0728"/>
<polygon fill="midnightblue" stroke="midnightblue" points="3275.52,-8.56773 3265.4,-11.7187 3275.28,-15.5635 3275.52,-8.56773"/>
</g>
<!-- Node57&#45;&gt;Node4 -->
<g id="edge122" class="edge"><title>Node57&#45;&gt;Node4</title>
<path fill="none" stroke="midnightblue" d="M3303.1,-313.343C3321.81,-288.553 3374.43,-214.48 3392.39,-143 3395.75,-129.637 3398.12,-124.531 3392.39,-112 3386.62,-99.3602 3375.34,-88.911 3364.76,-81.2737"/>
<polygon fill="midnightblue" stroke="midnightblue" points="3366.43,-78.1817 3356.18,-75.5333 3362.54,-84.0009 3366.43,-78.1817"/>
</g>
<!-- Node58&#45;&gt;Node4 -->
<g id="edge142" class="edge"><title>Node58&#45;&gt;Node4</title>
<path fill="none" stroke="midnightblue" d="M3214.28,-425.459C3245.65,-410.986 3306.55,-378.696 3340.39,-333 3401.56,-250.419 3457.04,-202.524 3408.39,-112 3400.77,-97.8153 3386.5,-87.3516 3372.99,-80.1027"/>
<polygon fill="midnightblue" stroke="midnightblue" points="3374.36,-76.8791 3363.85,-75.5916 3371.26,-83.1562 3374.36,-76.8791"/>
</g>
<!-- Node58&#45;&gt;Node5 -->
<g id="edge144" class="edge"><title>Node58&#45;&gt;Node5</title>
<path fill="none" stroke="midnightblue" d="M3194.06,-425.229C3192.75,-390.602 3187.94,-262.932 3186.11,-214.395"/>
<polygon fill="midnightblue" stroke="midnightblue" points="3189.59,-213.96 3185.72,-204.099 3182.6,-214.224 3189.59,-213.96"/>
</g>
<!-- Node58&#45;&gt;Node8 -->
<g id="edge143" class="edge"><title>Node58&#45;&gt;Node8</title>
<path fill="none" stroke="midnightblue" d="M3192.38,-425.103C3185.71,-395.049 3164.32,-294.46 3157.39,-210 3156.27,-196.268 3155.19,-192.6 3157.39,-179 3160.09,-162.352 3166.69,-159.648 3169.39,-143 3171.6,-129.4 3178.11,-122.67 3169.39,-112 3144.88,-81.9915 3026.17,-71.4861 2973.57,-68.2639"/>
<polygon fill="midnightblue" stroke="midnightblue" points="2973.59,-64.7594 2963.41,-67.6825 2973.19,-71.748 2973.59,-64.7594"/>
</g>
<!-- Node58&#45;&gt;Node11 -->
<g id="edge133" class="edge"><title>Node58&#45;&gt;Node11</title>
<path fill="none" stroke="midnightblue" d="M3144.16,-425.444C3088.05,-415.885 2997.26,-400.419 2937.44,-390.23"/>
<polygon fill="midnightblue" stroke="midnightblue" points="2937.83,-386.745 2927.39,-388.516 2936.66,-393.646 2937.83,-386.745"/>
</g>
<!-- Node58&#45;&gt;Node12 -->
<g id="edge134" class="edge"><title>Node58&#45;&gt;Node12</title>
<path fill="none" stroke="midnightblue" d="M3113.76,-429.686C2855.02,-415.611 2047.49,-369.815 1788.39,-333 1670.5,-316.249 1628.56,-338.161 1526.39,-277 1499.98,-261.188 1478.8,-231.598 1467.18,-212.757"/>
<polygon fill="midnightblue" stroke="midnightblue" points="1470.11,-210.831 1462,-204.014 1464.08,-214.401 1470.11,-210.831"/>
</g>
<!-- Node58&#45;&gt;Node21 -->
<g id="edge145" class="edge"><title>Node58&#45;&gt;Node21</title>
<path fill="none" stroke="midnightblue" d="M3274.95,-428.314C3391.48,-418.123 3597.62,-392.025 3638.39,-333 3700.87,-242.565 3615.01,-178.373 3527.39,-112 3470.67,-69.0292 3447.26,-69.5079 3377.39,-56 3331.69,-47.1635 1831.95,-16.6287 1586.28,-11.68"/>
<polygon fill="midnightblue" stroke="midnightblue" points="1586.23,-8.1784 1576.16,-11.4764 1586.09,-15.177 1586.23,-8.1784"/>
</g>
<!-- Node58&#45;&gt;Node22 -->
<g id="edge146" class="edge"><title>Node58&#45;&gt;Node22</title>
<path fill="none" stroke="midnightblue" d="M3168.42,-425.455C3123.79,-411.159 3029.41,-382.623 2947.39,-369 2385.62,-275.692 2233.28,-356.509 1669.39,-277 1384.21,-236.789 1310.04,-229.678 1035.39,-143 1033.46,-142.392 1031.5,-141.713 1029.53,-140.992"/>
<polygon fill="midnightblue" stroke="midnightblue" points="1030.44,-137.587 1019.85,-137.144 1027.85,-144.092 1030.44,-137.587"/>
</g>
<!-- Node58&#45;&gt;Node46 -->
<g id="edge141" class="edge"><title>Node58&#45;&gt;Node46</title>
<path fill="none" stroke="midnightblue" d="M3199.68,-425.231C3210.12,-407.043 3232.39,-363.601 3232.39,-324 3232.39,-324 3232.39,-324 3232.39,-260.5 3232.39,-223.306 3242.22,-202.506 3213.39,-179 3154.9,-131.302 1929.43,-157.662 1855.39,-143 1852.14,-142.355 1848.8,-141.459 1845.51,-140.424"/>
<polygon fill="midnightblue" stroke="midnightblue" points="1846.56,-137.081 1835.96,-137.022 1844.21,-143.675 1846.56,-137.081"/>
</g>
<!-- Node58&#45;&gt;Node57 -->
<g id="edge132" class="edge"><title>Node58&#45;&gt;Node57</title>
<path fill="none" stroke="midnightblue" d="M3205.73,-425.296C3216.67,-416.644 3233.44,-402.717 3246.39,-389 3260.69,-373.858 3274.97,-354.803 3284.58,-341.248"/>
<polygon fill="midnightblue" stroke="midnightblue" points="3287.59,-343.061 3290.44,-332.857 3281.85,-339.054 3287.59,-343.061"/>
</g>
<!-- Node59 -->
<g id="node60" class="node"><title>Node59</title>
<g id="a_node60"><a xlink:href="_wrap_t_tree_8h.html" target="_top" xlink:title="base/WrapTTree.h">
<polygon fill="white" stroke="black" points="3672.39,-118 3672.39,-137 3772.39,-137 3772.39,-118 3672.39,-118"/>
<text text-anchor="middle" x="3722.39" y="-125" font-family="Helvetica,sans-Serif" font-size="10.00">base/WrapTTree.h</text>
</a>
</g>
</g>
<!-- Node58&#45;&gt;Node59 -->
<g id="edge135" class="edge"><title>Node58&#45;&gt;Node59</title>
<path fill="none" stroke="midnightblue" d="M3275.12,-432.736C3413.23,-429.743 3682.89,-419.961 3712.39,-389 3776.69,-321.516 3744,-194.007 3728.77,-146.735"/>
<polygon fill="midnightblue" stroke="midnightblue" points="3732.07,-145.586 3725.58,-137.215 3725.44,-147.809 3732.07,-145.586"/>
</g>
<!-- Node59&#45;&gt;Node3 -->
<g id="edge138" class="edge"><title>Node59&#45;&gt;Node3</title>
<path fill="none" stroke="midnightblue" d="M3729.48,-117.971C3740.67,-103.436 3759.59,-73.7219 3743.39,-56 3711.81,-21.4425 3381,-13.1939 3275.52,-11.4354"/>
<polygon fill="midnightblue" stroke="midnightblue" points="3275.52,-7.93514 3265.47,-11.2764 3275.41,-14.9343 3275.52,-7.93514"/>
</g>
<!-- Node59&#45;&gt;Node4 -->
<g id="edge140" class="edge"><title>Node59&#45;&gt;Node4</title>
<path fill="none" stroke="midnightblue" d="M3672.06,-118.66C3594.79,-106.624 3448.58,-83.8511 3379.03,-73.018"/>
<polygon fill="midnightblue" stroke="midnightblue" points="3379.36,-69.528 3368.94,-71.4472 3378.29,-76.4446 3379.36,-69.528"/>
</g>
<!-- Node59&#45;&gt;Node21 -->
<g id="edge137" class="edge"><title>Node59&#45;&gt;Node21</title>
<path fill="none" stroke="midnightblue" d="M3707.14,-117.974C3673.86,-99.3901 3597.45,-56.8237 3594.39,-56 3581.75,-52.5988 1851.92,-17.1213 1586.42,-11.6946"/>
<polygon fill="midnightblue" stroke="midnightblue" points="1586.3,-8.19159 1576.23,-11.4865 1586.16,-15.1901 1586.3,-8.19159"/>
</g>
<!-- Node59&#45;&gt;Node29 -->
<g id="edge139" class="edge"><title>Node59&#45;&gt;Node29</title>
<path fill="none" stroke="midnightblue" d="M3715.05,-117.91C3700.94,-102.125 3668.24,-68.9375 3632.39,-56 3594.85,-42.451 2329.45,-16.7259 2082.09,-11.8196"/>
<polygon fill="midnightblue" stroke="midnightblue" points="2081.8,-8.31343 2071.74,-11.6147 2081.67,-15.3121 2081.8,-8.31343"/>
</g>
<!-- Node60 -->
<g id="node61" class="node"><title>Node60</title>
<polygon fill="white" stroke="#bfbfbf" points="3684.39,-56.5 3684.39,-75.5 3734.39,-75.5 3734.39,-56.5 3684.39,-56.5"/>
<text text-anchor="middle" x="3709.39" y="-63.5" font-family="Helvetica,sans-Serif" font-size="10.00">TTree.h</text>
</g>
<!-- Node59&#45;&gt;Node60 -->
<g id="edge136" class="edge"><title>Node59&#45;&gt;Node60</title>
<path fill="none" stroke="midnightblue" d="M3720.53,-117.975C3718.68,-109.492 3715.77,-96.2043 3713.4,-85.3222"/>
<polygon fill="midnightblue" stroke="midnightblue" points="3716.81,-84.5315 3711.25,-75.5091 3709.97,-86.0257 3716.81,-84.5315"/>
</g>
<!-- Node61&#45;&gt;Node3 -->
<g id="edge152" class="edge"><title>Node61&#45;&gt;Node3</title>
<path fill="none" stroke="midnightblue" d="M3481.99,-371.62C3528.09,-365.659 3588.49,-354.32 3638.39,-333 3762.99,-279.768 3881.38,-243.418 3848.39,-112 3841.52,-84.614 3842.03,-71.4392 3818.39,-56 3772.86,-26.2636 3390.53,-14.5903 3275.81,-11.7373"/>
<polygon fill="midnightblue" stroke="midnightblue" points="3275.65,-8.23233 3265.56,-11.4884 3275.48,-15.2303 3275.65,-8.23233"/>
</g>
<!-- Node61&#45;&gt;Node4 -->
<g id="edge153" class="edge"><title>Node61&#45;&gt;Node4</title>
<path fill="none" stroke="midnightblue" d="M3412.35,-369.333C3417.13,-348.204 3429.87,-292.377 3441.39,-246 3452.8,-200.072 3462.34,-189.936 3468.39,-143 3470.15,-129.335 3476.36,-123.242 3468.39,-112 3448.29,-83.6303 3408.82,-73.0153 3379,-69.1124"/>
<polygon fill="midnightblue" stroke="midnightblue" points="3379.22,-65.616 3368.9,-67.9937 3378.45,-72.5734 3379.22,-65.616"/>
</g>
<!-- Node61&#45;&gt;Node8 -->
<g id="edge151" class="edge"><title>Node61&#45;&gt;Node8</title>
<path fill="none" stroke="midnightblue" d="M3407.83,-369.461C3396.03,-331.728 3343.02,-178.874 3240.39,-112 3196.41,-83.3376 3036.05,-71.7403 2973.56,-68.2436"/>
<polygon fill="midnightblue" stroke="midnightblue" points="2973.59,-64.7399 2963.41,-67.6995 2973.21,-71.7298 2973.59,-64.7399"/>
</g>
<!-- Node61&#45;&gt;Node30 -->
<g id="edge150" class="edge"><title>Node61&#45;&gt;Node30</title>
<path fill="none" stroke="midnightblue" d="M3338.74,-371.858C3218.59,-361.56 2977.7,-340.912 2855.37,-330.427"/>
<polygon fill="midnightblue" stroke="midnightblue" points="2855.6,-326.934 2845.34,-329.567 2855.01,-333.908 2855.6,-326.934"/>
</g>
<!-- Node63 -->
<g id="node64" class="node"><title>Node63</title>
<polygon fill="white" stroke="#bfbfbf" points="3840.89,-425.5 3840.89,-444.5 3939.89,-444.5 3939.89,-425.5 3840.89,-425.5"/>
<text text-anchor="middle" x="3890.39" y="-432.5" font-family="Helvetica,sans-Serif" font-size="10.00">easylogging++.h</text>
</g>
<!-- Node62&#45;&gt;Node63 -->
<g id="edge159" class="edge"><title>Node62&#45;&gt;Node63</title>
<path fill="none" stroke="midnightblue" d="M3887.05,-481.083C3887.58,-474.006 3888.33,-463.861 3888.99,-454.986"/>
<polygon fill="midnightblue" stroke="midnightblue" points="3892.5,-454.982 3889.74,-444.751 3885.52,-454.465 3892.5,-454.982"/>
</g>
</g>
</svg>
