<?xml version="1.0" encoding="UTF-8" standalone="no"?>
<!DOCTYPE svg PUBLIC "-//W3C//DTD SVG 1.1//EN"
 "http://www.w3.org/Graphics/SVG/1.1/DTD/svg11.dtd">
<!-- Generated by graphviz version 2.38.0 (20140413.2041)
 -->
<!-- Title: src/analysis/utils/Uncertainties.cc Pages: 1 -->
<svg width="3777pt" height="576pt"
 viewBox="0.00 0.00 3777.24 576.00" xmlns="http://www.w3.org/2000/svg" xmlns:xlink="http://www.w3.org/1999/xlink">
<g id="graph0" class="graph" transform="scale(1 1) rotate(0) translate(4 572)">
<title>src/analysis/utils/Uncertainties.cc</title>
<polygon fill="white" stroke="none" points="-4,4 -4,-572 3773.24,-572 3773.24,4 -4,4"/>
<!-- Node0 -->
<g id="node1" class="node"><title>Node0</title>
<polygon fill="#bfbfbf" stroke="black" points="1814.37,-537.5 1814.37,-567.5 1911.37,-567.5 1911.37,-537.5 1814.37,-537.5"/>
<text text-anchor="start" x="1822.37" y="-555.5" font-family="Helvetica,sans-Serif" font-size="10.00">src/analysis/utils</text>
<text text-anchor="middle" x="1862.87" y="-544.5" font-family="Helvetica,sans-Serif" font-size="10.00">/Uncertainties.cc</text>
</g>
<!-- Node1 -->
<g id="node2" class="node"><title>Node1</title>
<g id="a_node2"><a xlink:href="_uncertainties_8h.html" target="_top" xlink:title="Uncertainties.h">
<polygon fill="white" stroke="black" points="943.374,-481.5 943.374,-500.5 1032.37,-500.5 1032.37,-481.5 943.374,-481.5"/>
<text text-anchor="middle" x="987.874" y="-488.5" font-family="Helvetica,sans-Serif" font-size="10.00">Uncertainties.h</text>
</a>
</g>
</g>
<!-- Node0&#45;&gt;Node1 -->
<g id="edge1" class="edge"><title>Node0&#45;&gt;Node1</title>
<path fill="none" stroke="midnightblue" d="M1814.27,-548.195C1663.09,-537.915 1201.77,-506.545 1042.58,-495.72"/>
<polygon fill="midnightblue" stroke="midnightblue" points="1042.75,-492.223 1032.53,-495.037 1042.27,-499.207 1042.75,-492.223"/>
</g>
<!-- Node42 -->
<g id="node43" class="node"><title>Node42</title>
<g id="a_node43"><a xlink:href="_exp_config_8h.html" target="_top" xlink:title="expconfig/ExpConfig.h">
<polygon fill="white" stroke="black" points="1801.87,-425.5 1801.87,-444.5 1923.87,-444.5 1923.87,-425.5 1801.87,-425.5"/>
<text text-anchor="middle" x="1862.87" y="-432.5" font-family="Helvetica,sans-Serif" font-size="10.00">expconfig/ExpConfig.h</text>
</a>
</g>
</g>
<!-- Node0&#45;&gt;Node42 -->
<g id="edge79" class="edge"><title>Node0&#45;&gt;Node42</title>
<path fill="none" stroke="midnightblue" d="M1862.87,-537.337C1862.87,-516.622 1862.87,-478.016 1862.87,-454.899"/>
<polygon fill="midnightblue" stroke="midnightblue" points="1866.37,-454.669 1862.87,-444.669 1859.37,-454.669 1866.37,-454.669"/>
</g>
<!-- Node68 -->
<g id="node69" class="node"><title>Node68</title>
<g id="a_node69"><a xlink:href="_logger_8h.html" target="_top" xlink:title="base/Logger.h">
<polygon fill="white" stroke="black" points="1919.87,-481.5 1919.87,-500.5 2003.87,-500.5 2003.87,-481.5 1919.87,-481.5"/>
<text text-anchor="middle" x="1961.87" y="-488.5" font-family="Helvetica,sans-Serif" font-size="10.00">base/Logger.h</text>
</a>
</g>
</g>
<!-- Node0&#45;&gt;Node68 -->
<g id="edge162" class="edge"><title>Node0&#45;&gt;Node68</title>
<path fill="none" stroke="midnightblue" d="M1886.34,-537.399C1902.2,-527.862 1923.06,-515.325 1938.84,-505.842"/>
<polygon fill="midnightblue" stroke="midnightblue" points="1940.7,-508.809 1947.47,-500.658 1937.09,-502.809 1940.7,-508.809"/>
</g>
<!-- Node2 -->
<g id="node3" class="node"><title>Node2</title>
<g id="a_node3"><a xlink:href="_t_particle_8h.html" target="_top" xlink:title="tree/TParticle.h">
<polygon fill="white" stroke="black" points="849.874,-425.5 849.874,-444.5 937.874,-444.5 937.874,-425.5 849.874,-425.5"/>
<text text-anchor="middle" x="893.874" y="-432.5" font-family="Helvetica,sans-Serif" font-size="10.00">tree/TParticle.h</text>
</a>
</g>
</g>
<!-- Node1&#45;&gt;Node2 -->
<g id="edge2" class="edge"><title>Node1&#45;&gt;Node2</title>
<path fill="none" stroke="midnightblue" d="M972.771,-481.324C957.971,-472.822 935.18,-459.729 917.892,-449.797"/>
<polygon fill="midnightblue" stroke="midnightblue" points="919.354,-446.601 908.939,-444.655 915.867,-452.671 919.354,-446.601"/>
</g>
<!-- Node6 -->
<g id="node7" class="node"><title>Node6</title>
<g id="a_node7"><a xlink:href="_detector__t_8h.html" target="_top" xlink:title="base/Detector_t.h">
<polygon fill="white" stroke="black" points="862.374,-174 862.374,-193 965.374,-193 965.374,-174 862.374,-174"/>
<text text-anchor="middle" x="913.874" y="-181" font-family="Helvetica,sans-Serif" font-size="10.00">base/Detector_t.h</text>
</a>
</g>
</g>
<!-- Node1&#45;&gt;Node6 -->
<g id="edge78" class="edge"><title>Node1&#45;&gt;Node6</title>
<path fill="none" stroke="midnightblue" d="M987.874,-481.442C987.874,-462.936 987.874,-417.812 987.874,-380 987.874,-380 987.874,-380 987.874,-316.5 987.874,-269.498 951.733,-223.723 929.965,-200.415"/>
<polygon fill="midnightblue" stroke="midnightblue" points="932.41,-197.909 922.948,-193.143 927.373,-202.769 932.41,-197.909"/>
</g>
<!-- Node3 -->
<g id="node4" class="node"><title>Node3</title>
<g id="a_node4"><a xlink:href="_t_candidate_8h.html" target="_top" xlink:title="tree/TCandidate.h">
<polygon fill="white" stroke="black" points="742.374,-369.5 742.374,-388.5 843.374,-388.5 843.374,-369.5 742.374,-369.5"/>
<text text-anchor="middle" x="792.874" y="-376.5" font-family="Helvetica,sans-Serif" font-size="10.00">tree/TCandidate.h</text>
</a>
</g>
</g>
<!-- Node2&#45;&gt;Node3 -->
<g id="edge3" class="edge"><title>Node2&#45;&gt;Node3</title>
<path fill="none" stroke="midnightblue" d="M877.647,-425.324C861.523,-416.703 836.574,-403.364 817.91,-393.386"/>
<polygon fill="midnightblue" stroke="midnightblue" points="819.53,-390.283 809.061,-388.655 816.23,-396.456 819.53,-390.283"/>
</g>
<!-- Node15 -->
<g id="node16" class="node"><title>Node15</title>
<polygon fill="white" stroke="#bfbfbf" points="1004.37,-56.5 1004.37,-75.5 1051.37,-75.5 1051.37,-56.5 1004.37,-56.5"/>
<text text-anchor="middle" x="1027.87" y="-63.5" font-family="Helvetica,sans-Serif" font-size="10.00">vector</text>
</g>
<!-- Node2&#45;&gt;Node15 -->
<g id="edge74" class="edge"><title>Node2&#45;&gt;Node15</title>
<path fill="none" stroke="midnightblue" d="M888.99,-425.177C870.451,-390.42 807.71,-260.344 852.874,-168 879.841,-112.863 951.697,-85.9141 994.482,-74.3786"/>
<polygon fill="midnightblue" stroke="midnightblue" points="995.355,-77.7679 1004.17,-71.8948 993.618,-70.987 995.355,-77.7679"/>
</g>
<!-- Node23 -->
<g id="node24" class="node"><title>Node23</title>
<polygon fill="white" stroke="#bfbfbf" points="2326.37,-112.5 2326.37,-131.5 2383.37,-131.5 2383.37,-112.5 2326.37,-112.5"/>
<text text-anchor="middle" x="2354.87" y="-119.5" font-family="Helvetica,sans-Serif" font-size="10.00">memory</text>
</g>
<!-- Node2&#45;&gt;Node23 -->
<g id="edge77" class="edge"><title>Node2&#45;&gt;Node23</title>
<path fill="none" stroke="midnightblue" d="M938.134,-428.666C999.857,-421.022 1115.2,-405.983 1212.87,-389 1478.49,-342.814 1584.09,-417.834 1806.87,-266 1849.86,-236.703 1826.26,-194.752 1870.87,-168 1948.94,-121.193 2188.34,-141.353 2278.87,-132 2290.94,-130.754 2304.06,-129.252 2315.95,-127.836"/>
<polygon fill="midnightblue" stroke="midnightblue" points="2316.52,-131.293 2326.03,-126.622 2315.68,-124.343 2316.52,-131.293"/>
</g>
<!-- Node26 -->
<g id="node27" class="node"><title>Node26</title>
<g id="a_node27"><a xlink:href="types_8h.html" target="_top" xlink:title="base/types.h">
<polygon fill="white" stroke="black" points="239.874,-112.5 239.874,-131.5 317.874,-131.5 317.874,-112.5 239.874,-112.5"/>
<text text-anchor="middle" x="278.874" y="-119.5" font-family="Helvetica,sans-Serif" font-size="10.00">base/types.h</text>
</a>
</g>
</g>
<!-- Node2&#45;&gt;Node26 -->
<g id="edge44" class="edge"><title>Node2&#45;&gt;Node26</title>
<path fill="none" stroke="midnightblue" d="M849.705,-431.772C690.703,-423.171 156.874,-389.044 156.874,-318.5 156.874,-318.5 156.874,-318.5 156.874,-249.5 156.874,-195.444 215.306,-155.621 251.293,-136.221"/>
<polygon fill="midnightblue" stroke="midnightblue" points="253.088,-139.233 260.345,-131.514 249.858,-133.022 253.088,-139.233"/>
</g>
<!-- Node27 -->
<g id="node28" class="node"><title>Node27</title>
<g id="a_node28"><a xlink:href="_particle_type_8h.html" target="_top" xlink:title="base/ParticleType.h">
<polygon fill="white" stroke="black" points="660.374,-241 660.374,-260 767.374,-260 767.374,-241 660.374,-241"/>
<text text-anchor="middle" x="713.874" y="-248" font-family="Helvetica,sans-Serif" font-size="10.00">base/ParticleType.h</text>
</a>
</g>
</g>
<!-- Node2&#45;&gt;Node27 -->
<g id="edge45" class="edge"><title>Node2&#45;&gt;Node27</title>
<path fill="none" stroke="midnightblue" d="M849.75,-434.183C812.87,-431.8 761.793,-422.121 732.874,-389 703.77,-355.667 706.642,-299.409 710.593,-270.263"/>
<polygon fill="midnightblue" stroke="midnightblue" points="714.078,-270.625 712.15,-260.207 707.161,-269.553 714.078,-270.625"/>
</g>
<!-- Node32 -->
<g id="node33" class="node"><title>Node32</title>
<g id="a_node33"><a xlink:href="_tree_8h.html" target="_top" xlink:title="base/Tree.h">
<polygon fill="white" stroke="black" points="1506.37,-174 1506.37,-193 1577.37,-193 1577.37,-174 1506.37,-174"/>
<text text-anchor="middle" x="1541.87" y="-181" font-family="Helvetica,sans-Serif" font-size="10.00">base/Tree.h</text>
</a>
</g>
</g>
<!-- Node2&#45;&gt;Node32 -->
<g id="edge60" class="edge"><title>Node2&#45;&gt;Node32</title>
<path fill="none" stroke="midnightblue" d="M937.999,-427.496C1065.08,-407.95 1428.27,-346.105 1513.87,-266 1531.42,-249.577 1537.97,-221.669 1540.42,-203.16"/>
<polygon fill="midnightblue" stroke="midnightblue" points="1543.92,-203.344 1541.47,-193.036 1536.96,-202.62 1543.92,-203.344"/>
</g>
<!-- Node37 -->
<g id="node38" class="node"><title>Node37</title>
<polygon fill="white" stroke="#bfbfbf" points="2809.87,-112.5 2809.87,-131.5 2839.87,-131.5 2839.87,-112.5 2809.87,-112.5"/>
<text text-anchor="middle" x="2824.87" y="-119.5" font-family="Helvetica,sans-Serif" font-size="10.00">list</text>
</g>
<!-- Node2&#45;&gt;Node37 -->
<g id="edge75" class="edge"><title>Node2&#45;&gt;Node37</title>
<path fill="none" stroke="midnightblue" d="M938.266,-433.762C1228.52,-431.927 2843.87,-417.273 2843.87,-318.5 2843.87,-318.5 2843.87,-318.5 2843.87,-249.5 2843.87,-210.773 2835.06,-166.109 2829.44,-141.566"/>
<polygon fill="midnightblue" stroke="midnightblue" points="2832.77,-140.445 2827.05,-131.523 2825.96,-142.061 2832.77,-140.445"/>
</g>
<!-- Node40 -->
<g id="node41" class="node"><title>Node40</title>
<g id="a_node41"><a xlink:href="_lorentz_vec_8h.html" target="_top" xlink:title="base/vec/LorentzVec.h">
<polygon fill="white" stroke="black" points="0.374139,-308 0.374139,-327 125.374,-327 125.374,-308 0.374139,-308"/>
<text text-anchor="middle" x="62.8741" y="-315" font-family="Helvetica,sans-Serif" font-size="10.00">base/vec/LorentzVec.h</text>
</a>
</g>
</g>
<!-- Node2&#45;&gt;Node40 -->
<g id="edge72" class="edge"><title>Node2&#45;&gt;Node40</title>
<path fill="none" stroke="midnightblue" d="M849.637,-433.023C698.466,-429.454 208.118,-415.903 142.874,-389 115.038,-377.522 90.2796,-352.171 75.9249,-335.208"/>
<polygon fill="midnightblue" stroke="midnightblue" points="78.44,-332.754 69.4054,-327.22 73.017,-337.18 78.44,-332.754"/>
</g>
<!-- Node41 -->
<g id="node42" class="node"><title>Node41</title>
<polygon fill="white" stroke="#bfbfbf" points="900.374,-369.5 900.374,-388.5 959.374,-388.5 959.374,-369.5 900.374,-369.5"/>
<text text-anchor="middle" x="929.874" y="-376.5" font-family="Helvetica,sans-Serif" font-size="10.00">iostream</text>
</g>
<!-- Node2&#45;&gt;Node41 -->
<g id="edge76" class="edge"><title>Node2&#45;&gt;Node41</title>
<path fill="none" stroke="midnightblue" d="M899.819,-425.083C904.851,-417.534 912.211,-406.495 918.388,-397.23"/>
<polygon fill="midnightblue" stroke="midnightblue" points="921.405,-399.013 924.04,-388.751 915.581,-395.13 921.405,-399.013"/>
</g>
<!-- Node4 -->
<g id="node5" class="node"><title>Node4</title>
<g id="a_node5"><a xlink:href="_t_cluster_8h.html" target="_top" xlink:title="TCluster.h">
<polygon fill="white" stroke="black" points="504.374,-308 504.374,-327 567.374,-327 567.374,-308 504.374,-308"/>
<text text-anchor="middle" x="535.874" y="-315" font-family="Helvetica,sans-Serif" font-size="10.00">TCluster.h</text>
</a>
</g>
</g>
<!-- Node3&#45;&gt;Node4 -->
<g id="edge4" class="edge"><title>Node3&#45;&gt;Node4</title>
<path fill="none" stroke="midnightblue" d="M756.052,-369.475C708.787,-358.532 626.994,-339.596 577.511,-328.14"/>
<polygon fill="midnightblue" stroke="midnightblue" points="578.298,-324.729 567.766,-325.884 576.719,-331.549 578.298,-324.729"/>
</g>
<!-- Node3&#45;&gt;Node6 -->
<g id="edge38" class="edge"><title>Node3&#45;&gt;Node6</title>
<path fill="none" stroke="midnightblue" d="M798.229,-369.436C816.652,-339.976 877.66,-242.412 902.848,-202.132"/>
<polygon fill="midnightblue" stroke="midnightblue" points="905.97,-203.741 908.304,-193.407 900.035,-200.03 905.97,-203.741"/>
</g>
<!-- Node3&#45;&gt;Node15 -->
<g id="edge39" class="edge"><title>Node3&#45;&gt;Node15</title>
<path fill="none" stroke="midnightblue" d="M792.204,-369.098C790.315,-339.148 787.046,-239.89 819.874,-168 833.734,-137.649 841.599,-129.715 869.874,-112 908.476,-87.8144 960.411,-76.2914 994.016,-71.0448"/>
<polygon fill="midnightblue" stroke="midnightblue" points="994.853,-74.46 1004.24,-69.5538 993.843,-67.5332 994.853,-74.46"/>
</g>
<!-- Node20 -->
<g id="node21" class="node"><title>Node20</title>
<polygon fill="white" stroke="#bfbfbf" points="299.374,-174 299.374,-193 354.374,-193 354.374,-174 299.374,-174"/>
<text text-anchor="middle" x="326.874" y="-181" font-family="Helvetica,sans-Serif" font-size="10.00">iomanip</text>
</g>
<!-- Node3&#45;&gt;Node20 -->
<g id="edge40" class="edge"><title>Node3&#45;&gt;Node20</title>
<path fill="none" stroke="midnightblue" d="M742.193,-374.388C682.2,-369.193 579.727,-357.411 494.874,-333 423.142,-312.364 386.949,-324.724 340.874,-266 326.85,-248.126 324.815,-221.207 325.305,-203.255"/>
<polygon fill="midnightblue" stroke="midnightblue" points="328.805,-203.349 325.871,-193.168 321.816,-202.956 328.805,-203.349"/>
</g>
<!-- Node21 -->
<g id="node22" class="node"><title>Node21</title>
<polygon fill="white" stroke="#bfbfbf" points="355.874,-56.5 355.874,-75.5 411.874,-75.5 411.874,-56.5 355.874,-56.5"/>
<text text-anchor="middle" x="383.874" y="-63.5" font-family="Helvetica,sans-Serif" font-size="10.00">sstream</text>
</g>
<!-- Node3&#45;&gt;Node21 -->
<g id="edge41" class="edge"><title>Node3&#45;&gt;Node21</title>
<path fill="none" stroke="midnightblue" d="M742.007,-375.921C646.214,-371.444 442.848,-359.112 377.874,-333 332.59,-314.801 326.066,-299.813 290.874,-266 235.978,-213.254 169.527,-172.396 215.874,-112 217.901,-109.358 296.946,-88.98 345.876,-76.5701"/>
<polygon fill="midnightblue" stroke="midnightblue" points="346.986,-79.8995 355.821,-74.0522 345.268,-73.1136 346.986,-79.8995"/>
</g>
<!-- Node3&#45;&gt;Node23 -->
<g id="edge42" class="edge"><title>Node3&#45;&gt;Node23</title>
<path fill="none" stroke="midnightblue" d="M843.468,-373.156C858.701,-371.751 875.463,-370.258 890.874,-369 1114.7,-350.73 1176.09,-383.642 1394.87,-333 1534.77,-300.618 1564.16,-270.178 1688.87,-199 1711.58,-186.04 1713.98,-175.996 1738.87,-168 1853.38,-131.222 2159.12,-143.075 2278.87,-132 2290.95,-130.883 2304.07,-129.419 2315.96,-127.997"/>
<polygon fill="midnightblue" stroke="midnightblue" points="2316.54,-131.453 2326.04,-126.768 2315.69,-124.504 2316.54,-131.453"/>
</g>
<!-- Node25 -->
<g id="node26" class="node"><title>Node25</title>
<polygon fill="white" stroke="#bfbfbf" points="2028.87,-56.5 2028.87,-75.5 2090.87,-75.5 2090.87,-56.5 2028.87,-56.5"/>
<text text-anchor="middle" x="2059.87" y="-63.5" font-family="Helvetica,sans-Serif" font-size="10.00">algorithm</text>
</g>
<!-- Node3&#45;&gt;Node25 -->
<g id="edge43" class="edge"><title>Node3&#45;&gt;Node25</title>
<path fill="none" stroke="midnightblue" d="M843.458,-372.575C986.004,-356.902 1388.73,-309.881 1513.87,-266 1596.54,-237.014 1601.39,-194.539 1684.87,-168 1765.08,-142.503 2005.26,-194.274 2061.87,-132 2073.01,-119.751 2070.73,-100.21 2066.76,-85.7487"/>
<polygon fill="midnightblue" stroke="midnightblue" points="2069.98,-84.3289 2063.58,-75.8849 2063.31,-86.4765 2069.98,-84.3289"/>
</g>
<!-- Node5 -->
<g id="node6" class="node"><title>Node5</title>
<g id="a_node6"><a xlink:href="_t_detector_read_hit_8h.html" target="_top" xlink:title="tree/TDetectorReadHit.h">
<polygon fill="white" stroke="black" points="375.874,-241 375.874,-260 507.874,-260 507.874,-241 375.874,-241"/>
<text text-anchor="middle" x="441.874" y="-248" font-family="Helvetica,sans-Serif" font-size="10.00">tree/TDetectorReadHit.h</text>
</a>
</g>
</g>
<!-- Node4&#45;&gt;Node5 -->
<g id="edge5" class="edge"><title>Node4&#45;&gt;Node5</title>
<path fill="none" stroke="midnightblue" d="M523.197,-307.734C507.693,-297.013 481.233,-278.716 462.719,-265.914"/>
<polygon fill="midnightblue" stroke="midnightblue" points="464.566,-262.936 454.351,-260.127 460.585,-268.694 464.566,-262.936"/>
</g>
<!-- Node4&#45;&gt;Node6 -->
<g id="edge25" class="edge"><title>Node4&#45;&gt;Node6</title>
<path fill="none" stroke="midnightblue" d="M545.159,-307.751C563.68,-290.824 607.206,-253.623 650.874,-235 716.263,-207.113 797.359,-194.523 852.075,-188.906"/>
<polygon fill="midnightblue" stroke="midnightblue" points="852.703,-192.361 862.314,-187.904 852.021,-185.394 852.703,-192.361"/>
</g>
<!-- Node9 -->
<g id="node10" class="node"><title>Node9</title>
<g id="a_node10"><a xlink:href="vec3_8h.html" target="_top" xlink:title="base/vec/vec3.h">
<polygon fill="white" stroke="black" points="13.8741,-112.5 13.8741,-131.5 107.874,-131.5 107.874,-112.5 13.8741,-112.5"/>
<text text-anchor="middle" x="60.8741" y="-119.5" font-family="Helvetica,sans-Serif" font-size="10.00">base/vec/vec3.h</text>
</a>
</g>
</g>
<!-- Node4&#45;&gt;Node9 -->
<g id="edge32" class="edge"><title>Node4&#45;&gt;Node9</title>
<path fill="none" stroke="midnightblue" d="M504.009,-315.347C450.769,-312.428 341.263,-302.146 256.874,-266 237.227,-257.585 125.527,-172.623 80.0927,-137.784"/>
<polygon fill="midnightblue" stroke="midnightblue" points="81.9996,-134.835 71.9362,-131.522 77.7368,-140.388 81.9996,-134.835"/>
</g>
<!-- Node11 -->
<g id="node12" class="node"><title>Node11</title>
<polygon fill="white" stroke="#bfbfbf" points="367.374,-0.5 367.374,-19.5 414.374,-19.5 414.374,-0.5 367.374,-0.5"/>
<text text-anchor="middle" x="390.874" y="-7.5" font-family="Helvetica,sans-Serif" font-size="10.00">cmath</text>
</g>
<!-- Node4&#45;&gt;Node11 -->
<g id="edge34" class="edge"><title>Node4&#45;&gt;Node11</title>
<path fill="none" stroke="midnightblue" d="M504.082,-316.034C444.281,-314.204 311.814,-305.596 208.874,-266 107.629,-227.056 56.3857,-227.467 4.87414,-132 -19.8705,-86.1406 59.991,-61.2807 71.8741,-56 122.434,-33.5321 285.372,-18.915 356.793,-13.4333"/>
<polygon fill="midnightblue" stroke="midnightblue" points="357.333,-16.9027 367.041,-12.6615 356.807,-9.92249 357.333,-16.9027"/>
</g>
<!-- Node13 -->
<g id="node14" class="node"><title>Node13</title>
<g id="a_node14"><a xlink:href="base_2std__ext_2math_8h.html" target="_top" xlink:title="base/std_ext/math.h">
<polygon fill="white" stroke="black" points="587.874,-112.5 587.874,-131.5 703.874,-131.5 703.874,-112.5 587.874,-112.5"/>
<text text-anchor="middle" x="645.874" y="-119.5" font-family="Helvetica,sans-Serif" font-size="10.00">base/std_ext/math.h</text>
</a>
</g>
</g>
<!-- Node4&#45;&gt;Node13 -->
<g id="edge26" class="edge"><title>Node4&#45;&gt;Node13</title>
<path fill="none" stroke="midnightblue" d="M534.777,-307.799C532.16,-283.237 527.962,-212.281 559.874,-168 570.828,-152.801 588.488,-142.316 604.963,-135.317"/>
<polygon fill="midnightblue" stroke="midnightblue" points="606.435,-138.5 614.467,-131.59 603.88,-131.983 606.435,-138.5"/>
</g>
<!-- Node4&#45;&gt;Node15 -->
<g id="edge33" class="edge"><title>Node4&#45;&gt;Node15</title>
<path fill="none" stroke="midnightblue" d="M538.093,-307.821C545.6,-279.101 570.801,-187.851 592.874,-168 601.852,-159.926 791.115,-114.741 802.874,-112 870.398,-96.2611 950.107,-81.123 994.222,-73.0436"/>
<polygon fill="midnightblue" stroke="midnightblue" points="994.91,-76.4759 1004.12,-71.2399 993.655,-69.5893 994.91,-76.4759"/>
</g>
<!-- Node4&#45;&gt;Node20 -->
<g id="edge35" class="edge"><title>Node4&#45;&gt;Node20</title>
<path fill="none" stroke="midnightblue" d="M504.271,-314.552C467.373,-310.734 406.374,-299.436 366.874,-266 347.456,-249.562 336.622,-221.452 331.268,-202.924"/>
<polygon fill="midnightblue" stroke="midnightblue" points="334.599,-201.829 328.67,-193.049 327.83,-203.611 334.599,-201.829"/>
</g>
<!-- Node4&#45;&gt;Node21 -->
<g id="edge36" class="edge"><title>Node4&#45;&gt;Node21</title>
<path fill="none" stroke="midnightblue" d="M504.277,-314.045C463.759,-309.673 392.566,-297.771 340.874,-266 273.268,-224.447 250.903,-206.241 222.874,-132 219.735,-123.684 217.501,-119.081 222.874,-112 226.684,-106.979 299.488,-88.044 345.876,-76.3955"/>
<polygon fill="midnightblue" stroke="midnightblue" points="346.771,-79.7795 355.623,-73.9574 345.072,-72.9887 346.771,-79.7795"/>
</g>
<!-- Node22 -->
<g id="node23" class="node"><title>Node22</title>
<g id="a_node23"><a xlink:href="shared__ptr__container_8h.html" target="_top" xlink:title="base/std_ext/shared\l_ptr_container.h">
<polygon fill="white" stroke="black" points="2069.87,-168.5 2069.87,-198.5 2183.87,-198.5 2183.87,-168.5 2069.87,-168.5"/>
<text text-anchor="start" x="2077.87" y="-186.5" font-family="Helvetica,sans-Serif" font-size="10.00">base/std_ext/shared</text>
<text text-anchor="middle" x="2126.87" y="-175.5" font-family="Helvetica,sans-Serif" font-size="10.00">_ptr_container.h</text>
</a>
</g>
</g>
<!-- Node4&#45;&gt;Node22 -->
<g id="edge27" class="edge"><title>Node4&#45;&gt;Node22</title>
<path fill="none" stroke="midnightblue" d="M567.559,-316.303C781.473,-314.87 2008.17,-304.966 2075.87,-266 2097.58,-253.509 2111.36,-227.665 2119.05,-208.411"/>
<polygon fill="midnightblue" stroke="midnightblue" points="2122.42,-209.377 2122.62,-198.784 2115.86,-206.945 2122.42,-209.377"/>
</g>
<!-- Node4&#45;&gt;Node23 -->
<g id="edge37" class="edge"><title>Node4&#45;&gt;Node23</title>
<path fill="none" stroke="midnightblue" d="M567.786,-316.636C715.014,-316.995 1329.33,-315.444 1513.87,-266 1560.15,-253.603 1659.67,-180.655 1705.87,-168 1951.98,-100.592 2024.75,-155.013 2278.87,-132 2290.95,-130.906 2304.08,-129.449 2315.97,-128.025"/>
<polygon fill="midnightblue" stroke="midnightblue" points="2316.54,-131.481 2326.04,-126.794 2315.69,-124.533 2316.54,-131.481"/>
</g>
<!-- Node5&#45;&gt;Node6 -->
<g id="edge6" class="edge"><title>Node5&#45;&gt;Node6</title>
<path fill="none" stroke="midnightblue" d="M504.065,-240.936C594.576,-228.471 761.621,-205.467 851.97,-193.025"/>
<polygon fill="midnightblue" stroke="midnightblue" points="852.636,-196.466 862.065,-191.635 851.681,-189.532 852.636,-196.466"/>
</g>
<!-- Node5&#45;&gt;Node20 -->
<g id="edge23" class="edge"><title>Node5&#45;&gt;Node20</title>
<path fill="none" stroke="midnightblue" d="M426.365,-240.734C406.966,-229.769 373.548,-210.881 350.846,-198.049"/>
<polygon fill="midnightblue" stroke="midnightblue" points="352.566,-195.001 342.138,-193.127 349.121,-201.095 352.566,-195.001"/>
</g>
<!-- Node5&#45;&gt;Node21 -->
<g id="edge24" class="edge"><title>Node5&#45;&gt;Node21</title>
<path fill="none" stroke="midnightblue" d="M436.009,-240.896C424.185,-224.222 395.788,-187.445 362.874,-168 310.519,-137.07 267.785,-180.326 230.874,-132 225.479,-124.936 225.549,-119.117 230.874,-112 234.423,-107.257 301.626,-88.739 345.775,-76.987"/>
<polygon fill="midnightblue" stroke="midnightblue" points="346.862,-80.3197 355.631,-74.3736 345.068,-73.5535 346.862,-80.3197"/>
</g>
<!-- Node7 -->
<g id="node8" class="node"><title>Node7</title>
<g id="a_node8"><a xlink:href="bitflag_8h.html" target="_top" xlink:title="base/bitflag.h">
<polygon fill="white" stroke="black" points="374.374,-112.5 374.374,-131.5 455.374,-131.5 455.374,-112.5 374.374,-112.5"/>
<text text-anchor="middle" x="414.874" y="-119.5" font-family="Helvetica,sans-Serif" font-size="10.00">base/bitflag.h</text>
</a>
</g>
</g>
<!-- Node6&#45;&gt;Node7 -->
<g id="edge7" class="edge"><title>Node6&#45;&gt;Node7</title>
<path fill="none" stroke="midnightblue" d="M862.158,-177.448C779.236,-169.16 611.462,-151.625 469.874,-132 468.407,-131.797 466.918,-131.585 465.416,-131.368"/>
<polygon fill="midnightblue" stroke="midnightblue" points="465.798,-127.886 455.389,-129.86 464.758,-134.808 465.798,-127.886"/>
</g>
<!-- Node6&#45;&gt;Node9 -->
<g id="edge9" class="edge"><title>Node6&#45;&gt;Node9</title>
<path fill="none" stroke="midnightblue" d="M862.118,-178.89C711.804,-168.405 275.959,-138.003 118.49,-127.019"/>
<polygon fill="midnightblue" stroke="midnightblue" points="118.302,-123.497 108.083,-126.293 117.815,-130.48 118.302,-123.497"/>
</g>
<!-- Node6&#45;&gt;Node13 -->
<g id="edge14" class="edge"><title>Node6&#45;&gt;Node13</title>
<path fill="none" stroke="midnightblue" d="M875.476,-173.975C827.714,-163.371 746.139,-145.26 694.179,-133.724"/>
<polygon fill="midnightblue" stroke="midnightblue" points="694.722,-130.26 684.201,-131.509 693.204,-137.093 694.722,-130.26"/>
</g>
<!-- Node6&#45;&gt;Node15 -->
<g id="edge22" class="edge"><title>Node6&#45;&gt;Node15</title>
<path fill="none" stroke="midnightblue" d="M915.181,-173.645C917.734,-159.155 924.624,-130.172 940.874,-112 955.22,-95.9566 976.645,-84.7777 994.644,-77.5747"/>
<polygon fill="midnightblue" stroke="midnightblue" points="996.093,-80.7692 1004.22,-73.9764 993.632,-74.2162 996.093,-80.7692"/>
</g>
<!-- Node16 -->
<g id="node17" class="node"><title>Node16</title>
<polygon fill="white" stroke="#bfbfbf" points="950.374,-112.5 950.374,-131.5 999.374,-131.5 999.374,-112.5 950.374,-112.5"/>
<text text-anchor="middle" x="974.874" y="-119.5" font-family="Helvetica,sans-Serif" font-size="10.00">cstdint</text>
</g>
<!-- Node6&#45;&gt;Node16 -->
<g id="edge18" class="edge"><title>Node6&#45;&gt;Node16</title>
<path fill="none" stroke="midnightblue" d="M922.614,-173.975C932.036,-164.785 947.238,-149.956 958.823,-138.656"/>
<polygon fill="midnightblue" stroke="midnightblue" points="961.436,-140.997 966.151,-131.509 956.548,-135.986 961.436,-140.997"/>
</g>
<!-- Node17 -->
<g id="node18" class="node"><title>Node17</title>
<polygon fill="white" stroke="#bfbfbf" points="1203.87,-112.5 1203.87,-131.5 1267.87,-131.5 1267.87,-112.5 1203.87,-112.5"/>
<text text-anchor="middle" x="1235.87" y="-119.5" font-family="Helvetica,sans-Serif" font-size="10.00">stdexcept</text>
</g>
<!-- Node6&#45;&gt;Node17 -->
<g id="edge19" class="edge"><title>Node6&#45;&gt;Node17</title>
<path fill="none" stroke="midnightblue" d="M960.009,-173.975C1022.48,-162.432 1133.08,-141.994 1193.53,-130.825"/>
<polygon fill="midnightblue" stroke="midnightblue" points="1194.3,-134.242 1203.5,-128.983 1193.03,-127.358 1194.3,-134.242"/>
</g>
<!-- Node18 -->
<g id="node19" class="node"><title>Node18</title>
<polygon fill="white" stroke="#bfbfbf" points="2151.87,-56.5 2151.87,-75.5 2195.87,-75.5 2195.87,-56.5 2151.87,-56.5"/>
<text text-anchor="middle" x="2173.87" y="-63.5" font-family="Helvetica,sans-Serif" font-size="10.00">string</text>
</g>
<!-- Node6&#45;&gt;Node18 -->
<g id="edge20" class="edge"><title>Node6&#45;&gt;Node18</title>
<path fill="none" stroke="midnightblue" d="M965.519,-176.182C991.15,-173.264 1022.6,-170.008 1050.87,-168 1270.47,-152.405 1827.33,-185.497 2040.87,-132 2082.84,-121.487 2127.12,-96.6968 2152.53,-80.9499"/>
<polygon fill="midnightblue" stroke="midnightblue" points="2154.41,-83.9006 2160.99,-75.6008 2150.67,-77.9825 2154.41,-83.9006"/>
</g>
<!-- Node19 -->
<g id="node20" class="node"><title>Node19</title>
<polygon fill="white" stroke="#bfbfbf" points="2201.87,-112.5 2201.87,-131.5 2269.87,-131.5 2269.87,-112.5 2201.87,-112.5"/>
<text text-anchor="middle" x="2235.87" y="-119.5" font-family="Helvetica,sans-Serif" font-size="10.00">type_traits</text>
</g>
<!-- Node6&#45;&gt;Node19 -->
<g id="edge21" class="edge"><title>Node6&#45;&gt;Node19</title>
<path fill="none" stroke="midnightblue" d="M965.517,-176.152C991.147,-173.227 1022.6,-169.973 1050.87,-168 1521.56,-135.149 1640.71,-157.082 2111.87,-132 2138.35,-130.591 2167.96,-128.462 2191.61,-126.629"/>
<polygon fill="midnightblue" stroke="midnightblue" points="2191.99,-130.11 2201.69,-125.837 2191.44,-123.131 2191.99,-130.11"/>
</g>
<!-- Node8 -->
<g id="node9" class="node"><title>Node8</title>
<polygon fill="white" stroke="#bfbfbf" points="429.874,-56.5 429.874,-75.5 473.874,-75.5 473.874,-56.5 429.874,-56.5"/>
<text text-anchor="middle" x="451.874" y="-63.5" font-family="Helvetica,sans-Serif" font-size="10.00">bitset</text>
</g>
<!-- Node7&#45;&gt;Node8 -->
<g id="edge8" class="edge"><title>Node7&#45;&gt;Node8</title>
<path fill="none" stroke="midnightblue" d="M420.984,-112.083C426.156,-104.534 433.72,-93.4948 440.069,-84.2298"/>
<polygon fill="midnightblue" stroke="midnightblue" points="443.113,-85.9787 445.878,-75.7511 437.338,-82.0221 443.113,-85.9787"/>
</g>
<!-- Node10 -->
<g id="node11" class="node"><title>Node10</title>
<g id="a_node11"><a xlink:href="vec2_8h.html" target="_top" xlink:title="vec2.h">
<polygon fill="white" stroke="black" points="80.8741,-56.5 80.8741,-75.5 128.874,-75.5 128.874,-56.5 80.8741,-56.5"/>
<text text-anchor="middle" x="104.874" y="-63.5" font-family="Helvetica,sans-Serif" font-size="10.00">vec2.h</text>
</a>
</g>
</g>
<!-- Node9&#45;&gt;Node10 -->
<g id="edge10" class="edge"><title>Node9&#45;&gt;Node10</title>
<path fill="none" stroke="midnightblue" d="M68.1398,-112.083C74.419,-104.377 83.6618,-93.0333 91.305,-83.6531"/>
<polygon fill="midnightblue" stroke="midnightblue" points="94.1402,-85.7143 97.7436,-75.7511 88.7135,-81.2926 94.1402,-85.7143"/>
</g>
<!-- Node9&#45;&gt;Node11 -->
<g id="edge13" class="edge"><title>Node9&#45;&gt;Node11</title>
<path fill="none" stroke="midnightblue" d="M86.4941,-112.46C145.573,-92.7669 291.342,-44.1773 357.389,-22.1616"/>
<polygon fill="midnightblue" stroke="midnightblue" points="358.899,-25.3476 367.279,-18.8649 356.686,-18.7068 358.899,-25.3476"/>
</g>
<!-- Node12 -->
<g id="node13" class="node"><title>Node12</title>
<polygon fill="white" stroke="#bfbfbf" points="280.374,-56.5 280.374,-75.5 337.374,-75.5 337.374,-56.5 280.374,-56.5"/>
<text text-anchor="middle" x="308.874" y="-63.5" font-family="Helvetica,sans-Serif" font-size="10.00">ostream</text>
</g>
<!-- Node9&#45;&gt;Node12 -->
<g id="edge12" class="edge"><title>Node9&#45;&gt;Node12</title>
<path fill="none" stroke="midnightblue" d="M100.17,-112.444C146.771,-102.297 223.945,-85.4927 270.249,-75.4102"/>
<polygon fill="midnightblue" stroke="midnightblue" points="271.173,-78.7912 280.199,-73.2437 269.683,-71.9515 271.173,-78.7912"/>
</g>
<!-- Node10&#45;&gt;Node11 -->
<g id="edge11" class="edge"><title>Node10&#45;&gt;Node11</title>
<path fill="none" stroke="midnightblue" d="M129.258,-60.396C180.38,-50.7436 298.861,-28.3732 357.193,-17.3593"/>
<polygon fill="midnightblue" stroke="midnightblue" points="358.179,-20.7352 367.356,-15.4406 356.88,-13.8567 358.179,-20.7352"/>
</g>
<!-- Node13&#45;&gt;Node11 -->
<g id="edge15" class="edge"><title>Node13&#45;&gt;Node11</title>
<path fill="none" stroke="midnightblue" d="M625.865,-112.368C581.082,-93.0507 472.611,-46.2592 420.195,-23.6481"/>
<polygon fill="midnightblue" stroke="midnightblue" points="421.359,-20.3386 410.791,-19.5914 418.586,-26.7661 421.359,-20.3386"/>
</g>
<!-- Node14 -->
<g id="node15" class="node"><title>Node14</title>
<polygon fill="white" stroke="#bfbfbf" points="667.874,-56.5 667.874,-75.5 709.874,-75.5 709.874,-56.5 667.874,-56.5"/>
<text text-anchor="middle" x="688.874" y="-63.5" font-family="Helvetica,sans-Serif" font-size="10.00">limits</text>
</g>
<!-- Node13&#45;&gt;Node14 -->
<g id="edge16" class="edge"><title>Node13&#45;&gt;Node14</title>
<path fill="none" stroke="midnightblue" d="M652.975,-112.083C659.111,-104.377 668.144,-93.0333 675.613,-83.6531"/>
<polygon fill="midnightblue" stroke="midnightblue" points="678.414,-85.7542 681.906,-75.7511 672.938,-81.3936 678.414,-85.7542"/>
</g>
<!-- Node13&#45;&gt;Node15 -->
<g id="edge17" class="edge"><title>Node13&#45;&gt;Node15</title>
<path fill="none" stroke="midnightblue" d="M703.892,-112.799C784.755,-101.368 928.751,-81.0121 994.033,-71.7839"/>
<polygon fill="midnightblue" stroke="midnightblue" points="994.767,-75.2149 1004.18,-70.3496 993.787,-68.2838 994.767,-75.2149"/>
</g>
<!-- Node22&#45;&gt;Node15 -->
<g id="edge28" class="edge"><title>Node22&#45;&gt;Node15</title>
<path fill="none" stroke="midnightblue" d="M2069.62,-170.2C2064.98,-169.389 2060.36,-168.641 2055.87,-168 1863.83,-140.543 1807.41,-185.278 1620.87,-132 1602.14,-126.65 1600.61,-117.336 1581.87,-112 1483.28,-83.9196 1166.7,-71.4521 1061.91,-68.0247"/>
<polygon fill="midnightblue" stroke="midnightblue" points="1061.71,-64.5165 1051.6,-67.6945 1061.49,-71.5129 1061.71,-64.5165"/>
</g>
<!-- Node22&#45;&gt;Node23 -->
<g id="edge29" class="edge"><title>Node22&#45;&gt;Node23</title>
<path fill="none" stroke="midnightblue" d="M2180.62,-168.475C2222.26,-157.609 2278.94,-142.815 2316.2,-133.093"/>
<polygon fill="midnightblue" stroke="midnightblue" points="2317.37,-136.404 2326.16,-130.492 2315.6,-129.631 2317.37,-136.404"/>
</g>
<!-- Node24 -->
<g id="node25" class="node"><title>Node24</title>
<polygon fill="white" stroke="#bfbfbf" points="3634.37,-112.5 3634.37,-131.5 3697.37,-131.5 3697.37,-112.5 3634.37,-112.5"/>
<text text-anchor="middle" x="3665.87" y="-119.5" font-family="Helvetica,sans-Serif" font-size="10.00">functional</text>
</g>
<!-- Node22&#45;&gt;Node24 -->
<g id="edge30" class="edge"><title>Node22&#45;&gt;Node24</title>
<path fill="none" stroke="midnightblue" d="M2184.14,-175.736C2209.99,-172.919 2240.93,-169.874 2268.87,-168 2803.38,-132.145 3454.92,-124.665 3624.14,-123.285"/>
<polygon fill="midnightblue" stroke="midnightblue" points="3624.39,-126.783 3634.36,-123.204 3624.33,-119.784 3624.39,-126.783"/>
</g>
<!-- Node22&#45;&gt;Node25 -->
<g id="edge31" class="edge"><title>Node22&#45;&gt;Node25</title>
<path fill="none" stroke="midnightblue" d="M2183.99,-170.805C2222.14,-161.7 2267.36,-147.954 2278.87,-132 2284.08,-124.792 2284.49,-118.889 2278.87,-112 2267.69,-98.2792 2161.21,-81.2595 2100.95,-72.6119"/>
<polygon fill="midnightblue" stroke="midnightblue" points="2101.38,-69.1373 2090.99,-71.1974 2100.39,-76.0679 2101.38,-69.1373"/>
</g>
<!-- Node27&#45;&gt;Node12 -->
<g id="edge56" class="edge"><title>Node27&#45;&gt;Node12</title>
<path fill="none" stroke="midnightblue" d="M714.419,-240.99C714.982,-224.149 713.577,-186.594 691.874,-168 636.357,-120.436 429.561,-166.06 364.874,-132 344.548,-121.298 328.389,-99.9011 318.753,-84.5789"/>
<polygon fill="midnightblue" stroke="midnightblue" points="321.507,-82.3628 313.384,-75.5606 315.492,-85.9436 321.507,-82.3628"/>
</g>
<!-- Node27&#45;&gt;Node15 -->
<g id="edge59" class="edge"><title>Node27&#45;&gt;Node15</title>
<path fill="none" stroke="midnightblue" d="M718.623,-240.68C732.443,-215.93 775.276,-145.452 831.874,-112 883.163,-81.6858 953.165,-71.7905 994.142,-68.5619"/>
<polygon fill="midnightblue" stroke="midnightblue" points="994.421,-72.051 1004.15,-67.8612 993.932,-65.0681 994.421,-72.051"/>
</g>
<!-- Node27&#45;&gt;Node18 -->
<g id="edge55" class="edge"><title>Node27&#45;&gt;Node18</title>
<path fill="none" stroke="midnightblue" d="M767.49,-248.52C932.068,-245.176 1428.37,-232.511 1585.87,-199 1623.98,-190.892 1629.89,-176.658 1667.87,-168 1847.95,-126.957 1908.44,-195.49 2081.87,-132 2111.54,-121.139 2140.41,-98.0976 2157.66,-82.5762"/>
<polygon fill="midnightblue" stroke="midnightblue" points="2160.19,-85.0064 2165.16,-75.6469 2155.44,-79.8673 2160.19,-85.0064"/>
</g>
<!-- Node27&#45;&gt;Node26 -->
<g id="edge46" class="edge"><title>Node27&#45;&gt;Node26</title>
<path fill="none" stroke="midnightblue" d="M711.264,-240.768C705.607,-223.527 690.451,-185.289 662.874,-168 600.186,-128.698 405.157,-142.198 331.874,-132 330.6,-131.823 329.31,-131.638 328.008,-131.448"/>
<polygon fill="midnightblue" stroke="midnightblue" points="328.322,-127.956 317.908,-129.901 327.262,-134.875 328.322,-127.956"/>
</g>
<!-- Node28 -->
<g id="node29" class="node"><title>Node28</title>
<g id="a_node29"><a xlink:href="interval_8h.html" target="_top" xlink:title="base/interval.h">
<polygon fill="white" stroke="black" points="1060.37,-174 1060.37,-193 1147.37,-193 1147.37,-174 1060.37,-174"/>
<text text-anchor="middle" x="1103.87" y="-181" font-family="Helvetica,sans-Serif" font-size="10.00">base/interval.h</text>
</a>
</g>
</g>
<!-- Node27&#45;&gt;Node28 -->
<g id="edge47" class="edge"><title>Node27&#45;&gt;Node28</title>
<path fill="none" stroke="midnightblue" d="M765.261,-240.936C839.144,-228.622 974.748,-206.021 1049.99,-193.48"/>
<polygon fill="midnightblue" stroke="midnightblue" points="1050.91,-196.876 1060.2,-191.78 1049.76,-189.971 1050.91,-196.876"/>
</g>
<!-- Node30 -->
<g id="node31" class="node"><title>Node30</title>
<polygon fill="white" stroke="#bfbfbf" points="1747.87,-174 1747.87,-193 1785.87,-193 1785.87,-174 1747.87,-174"/>
<text text-anchor="middle" x="1766.87" y="-181" font-family="Helvetica,sans-Serif" font-size="10.00">map</text>
</g>
<!-- Node27&#45;&gt;Node30 -->
<g id="edge57" class="edge"><title>Node27&#45;&gt;Node30</title>
<path fill="none" stroke="midnightblue" d="M767.471,-248.112C911.663,-244.06 1319.81,-230.479 1657.87,-199 1684.99,-196.475 1715.73,-192.262 1737.64,-189.025"/>
<polygon fill="midnightblue" stroke="midnightblue" points="1738.26,-192.472 1747.63,-187.527 1737.22,-185.549 1738.26,-192.472"/>
</g>
<!-- Node31 -->
<g id="node32" class="node"><title>Node31</title>
<polygon fill="white" stroke="#bfbfbf" points="601.874,-174 601.874,-193 653.874,-193 653.874,-174 601.874,-174"/>
<text text-anchor="middle" x="627.874" y="-181" font-family="Helvetica,sans-Serif" font-size="10.00">iterator</text>
</g>
<!-- Node27&#45;&gt;Node31 -->
<g id="edge58" class="edge"><title>Node27&#45;&gt;Node31</title>
<path fill="none" stroke="midnightblue" d="M702.276,-240.734C688.22,-230.111 664.323,-212.049 647.408,-199.264"/>
<polygon fill="midnightblue" stroke="midnightblue" points="649.377,-196.365 639.289,-193.127 645.156,-201.949 649.377,-196.365"/>
</g>
<!-- Node28&#45;&gt;Node11 -->
<g id="edge54" class="edge"><title>Node28&#45;&gt;Node11</title>
<path fill="none" stroke="midnightblue" d="M1108.7,-173.922C1115.69,-160.309 1126.85,-133.135 1117.87,-112 1103.87,-79.0169 1092.63,-70.5295 1059.87,-56 1001.58,-30.1436 552.976,-15.5824 424.909,-11.9231"/>
<polygon fill="midnightblue" stroke="midnightblue" points="424.64,-8.41422 414.545,-11.6309 424.443,-15.4114 424.64,-8.41422"/>
</g>
<!-- Node28&#45;&gt;Node14 -->
<g id="edge51" class="edge"><title>Node28&#45;&gt;Node14</title>
<path fill="none" stroke="midnightblue" d="M1073.02,-173.913C996.234,-152.542 797.196,-97.1473 720.059,-75.6791"/>
<polygon fill="midnightblue" stroke="midnightblue" points="720.581,-72.1915 710.009,-72.8821 718.704,-78.9352 720.581,-72.1915"/>
</g>
<!-- Node28&#45;&gt;Node17 -->
<g id="edge50" class="edge"><title>Node28&#45;&gt;Node17</title>
<path fill="none" stroke="midnightblue" d="M1122.79,-173.975C1145.04,-163.945 1182.19,-147.2 1207.8,-135.655"/>
<polygon fill="midnightblue" stroke="midnightblue" points="1209.32,-138.809 1217,-131.509 1206.44,-132.428 1209.32,-138.809"/>
</g>
<!-- Node28&#45;&gt;Node21 -->
<g id="edge53" class="edge"><title>Node28&#45;&gt;Node21</title>
<path fill="none" stroke="midnightblue" d="M1073.67,-173.929C1064.78,-171.684 1054.99,-169.48 1045.87,-168 840.394,-134.638 782.923,-173.223 578.874,-132 518.508,-119.805 450.913,-94.5122 413.269,-79.3234"/>
<polygon fill="midnightblue" stroke="midnightblue" points="414.502,-76.0466 403.921,-75.51 411.858,-82.528 414.502,-76.0466"/>
</g>
<!-- Node28&#45;&gt;Node25 -->
<g id="edge49" class="edge"><title>Node28&#45;&gt;Node25</title>
<path fill="none" stroke="midnightblue" d="M1147.73,-174.675C1162.65,-172.236 1179.45,-169.734 1194.87,-168 1436.1,-140.872 1500.23,-170.685 1739.87,-132 1774.78,-126.365 1782.36,-119.668 1816.87,-112 1887.31,-96.3523 1970.06,-81.8448 2018.56,-73.7314"/>
<polygon fill="midnightblue" stroke="midnightblue" points="2019.37,-77.1443 2028.66,-72.0508 2018.22,-70.2391 2019.37,-77.1443"/>
</g>
<!-- Node28&#45;&gt;Node26 -->
<g id="edge48" class="edge"><title>Node28&#45;&gt;Node26</title>
<path fill="none" stroke="midnightblue" d="M1060.3,-177.067C1035.08,-174.066 1002.72,-170.46 973.874,-168 703.715,-144.964 635.11,-154.116 364.874,-132 353.07,-131.034 340.375,-129.809 328.458,-128.576"/>
<polygon fill="midnightblue" stroke="midnightblue" points="328.539,-125.065 318.227,-127.496 327.805,-132.026 328.539,-125.065"/>
</g>
<!-- Node29 -->
<g id="node30" class="node"><title>Node29</title>
<polygon fill="white" stroke="#bfbfbf" points="1056.37,-112.5 1056.37,-131.5 1109.37,-131.5 1109.37,-112.5 1056.37,-112.5"/>
<text text-anchor="middle" x="1082.87" y="-119.5" font-family="Helvetica,sans-Serif" font-size="10.00">istream</text>
</g>
<!-- Node28&#45;&gt;Node29 -->
<g id="edge52" class="edge"><title>Node28&#45;&gt;Node29</title>
<path fill="none" stroke="midnightblue" d="M1100.87,-173.975C1097.84,-165.404 1093.08,-151.927 1089.22,-140.983"/>
<polygon fill="midnightblue" stroke="midnightblue" points="1092.51,-139.774 1085.88,-131.509 1085.91,-142.104 1092.51,-139.774"/>
</g>
<!-- Node32&#45;&gt;Node15 -->
<g id="edge67" class="edge"><title>Node32&#45;&gt;Node15</title>
<path fill="none" stroke="midnightblue" d="M1517.79,-173.984C1475.96,-159.468 1386.99,-129.782 1309.87,-112 1221.29,-91.5735 1114.93,-77.3216 1061.7,-70.8788"/>
<polygon fill="midnightblue" stroke="midnightblue" points="1061.83,-67.3688 1051.48,-69.659 1061,-74.3195 1061.83,-67.3688"/>
</g>
<!-- Node32&#45;&gt;Node19 -->
<g id="edge71" class="edge"><title>Node32&#45;&gt;Node19</title>
<path fill="none" stroke="midnightblue" d="M1577.41,-178.069C1602.63,-175.008 1637.3,-170.969 1667.87,-168 1769.44,-158.136 2076.2,-134.945 2191.46,-126.313"/>
<polygon fill="midnightblue" stroke="midnightblue" points="2191.97,-129.785 2201.68,-125.548 2191.45,-122.804 2191.97,-129.785"/>
</g>
<!-- Node32&#45;&gt;Node23 -->
<g id="edge65" class="edge"><title>Node32&#45;&gt;Node23</title>
<path fill="none" stroke="midnightblue" d="M1577.39,-177.877C1602.61,-174.727 1637.27,-170.66 1667.87,-168 1938.88,-144.441 2007.91,-156.006 2278.87,-132 2290.95,-130.93 2304.08,-129.479 2315.97,-128.055"/>
<polygon fill="midnightblue" stroke="midnightblue" points="2316.54,-131.511 2326.04,-126.82 2315.69,-124.562 2316.54,-131.511"/>
</g>
<!-- Node32&#45;&gt;Node25 -->
<g id="edge68" class="edge"><title>Node32&#45;&gt;Node25</title>
<path fill="none" stroke="midnightblue" d="M1567.59,-173.965C1575.32,-171.693 1583.87,-169.465 1591.87,-168 1690.33,-149.968 1963.24,-195.19 2040.87,-132 2054.39,-120.999 2058.62,-100.948 2059.79,-86.0136"/>
<polygon fill="midnightblue" stroke="midnightblue" points="2063.3,-85.9552 2060.19,-75.8255 2056.3,-85.6804 2063.3,-85.9552"/>
</g>
<!-- Node33 -->
<g id="node34" class="node"><title>Node33</title>
<polygon fill="white" stroke="#bfbfbf" points="1470.37,-112.5 1470.37,-131.5 1573.37,-131.5 1573.37,-112.5 1470.37,-112.5"/>
<text text-anchor="middle" x="1521.87" y="-119.5" font-family="Helvetica,sans-Serif" font-size="10.00">cereal/access.hpp</text>
</g>
<!-- Node32&#45;&gt;Node33 -->
<g id="edge61" class="edge"><title>Node32&#45;&gt;Node33</title>
<path fill="none" stroke="midnightblue" d="M1539.01,-173.975C1536.16,-165.492 1531.69,-152.204 1528.03,-141.322"/>
<polygon fill="midnightblue" stroke="midnightblue" points="1531.24,-139.873 1524.73,-131.509 1524.6,-142.103 1531.24,-139.873"/>
</g>
<!-- Node34 -->
<g id="node35" class="node"><title>Node34</title>
<g id="a_node35"><a xlink:href="variadic_8h.html" target="_top" xlink:title="std_ext/variadic.h">
<polygon fill="white" stroke="black" points="1630.37,-112.5 1630.37,-131.5 1731.37,-131.5 1731.37,-112.5 1630.37,-112.5"/>
<text text-anchor="middle" x="1680.87" y="-119.5" font-family="Helvetica,sans-Serif" font-size="10.00">std_ext/variadic.h</text>
</a>
</g>
</g>
<!-- Node32&#45;&gt;Node34 -->
<g id="edge62" class="edge"><title>Node32&#45;&gt;Node34</title>
<path fill="none" stroke="midnightblue" d="M1561.79,-173.975C1585.32,-163.901 1624.68,-147.053 1651.67,-135.502"/>
<polygon fill="midnightblue" stroke="midnightblue" points="1653.18,-138.662 1661,-131.509 1650.43,-132.227 1653.18,-138.662"/>
</g>
<!-- Node32&#45;&gt;Node37 -->
<g id="edge66" class="edge"><title>Node32&#45;&gt;Node37</title>
<path fill="none" stroke="midnightblue" d="M1577.44,-179.537C1616.87,-176.333 1682.38,-171.249 1738.87,-168 1955.09,-155.567 2656.64,-129.253 2799.39,-123.945"/>
<polygon fill="midnightblue" stroke="midnightblue" points="2799.87,-127.429 2809.73,-123.56 2799.61,-120.434 2799.87,-127.429"/>
</g>
<!-- Node38 -->
<g id="node39" class="node"><title>Node38</title>
<polygon fill="white" stroke="#bfbfbf" points="1399.87,-112.5 1399.87,-131.5 1451.87,-131.5 1451.87,-112.5 1399.87,-112.5"/>
<text text-anchor="middle" x="1425.87" y="-119.5" font-family="Helvetica,sans-Serif" font-size="10.00">cassert</text>
</g>
<!-- Node32&#45;&gt;Node38 -->
<g id="edge69" class="edge"><title>Node32&#45;&gt;Node38</title>
<path fill="none" stroke="midnightblue" d="M1525.25,-173.975C1505.96,-164.078 1473.91,-147.642 1451.44,-136.115"/>
<polygon fill="midnightblue" stroke="midnightblue" points="1452.96,-132.959 1442.46,-131.509 1449.76,-139.187 1452.96,-132.959"/>
</g>
<!-- Node39 -->
<g id="node40" class="node"><title>Node39</title>
<polygon fill="white" stroke="#bfbfbf" points="1861.87,-56.5 1861.87,-75.5 1917.87,-75.5 1917.87,-56.5 1861.87,-56.5"/>
<text text-anchor="middle" x="1889.87" y="-63.5" font-family="Helvetica,sans-Serif" font-size="10.00">numeric</text>
</g>
<!-- Node32&#45;&gt;Node39 -->
<g id="edge70" class="edge"><title>Node32&#45;&gt;Node39</title>
<path fill="none" stroke="midnightblue" d="M1570.63,-173.927C1577.57,-171.923 1584.97,-169.839 1591.87,-168 1657.29,-150.568 1675.7,-153.536 1739.87,-132 1784.35,-117.074 1833.94,-94.3201 1863.49,-80.0724"/>
<polygon fill="midnightblue" stroke="midnightblue" points="1865.24,-83.1114 1872.7,-75.5902 1862.18,-76.8164 1865.24,-83.1114"/>
</g>
<!-- Node35 -->
<g id="node36" class="node"><title>Node35</title>
<polygon fill="white" stroke="#bfbfbf" points="1654.87,-56.5 1654.87,-75.5 1706.87,-75.5 1706.87,-56.5 1654.87,-56.5"/>
<text text-anchor="middle" x="1680.87" y="-63.5" font-family="Helvetica,sans-Serif" font-size="10.00">cstddef</text>
</g>
<!-- Node34&#45;&gt;Node35 -->
<g id="edge63" class="edge"><title>Node34&#45;&gt;Node35</title>
<path fill="none" stroke="midnightblue" d="M1680.87,-112.083C1680.87,-105.006 1680.87,-94.8611 1680.87,-85.9865"/>
<polygon fill="midnightblue" stroke="midnightblue" points="1684.37,-85.751 1680.87,-75.7511 1677.37,-85.7511 1684.37,-85.751"/>
</g>
<!-- Node36 -->
<g id="node37" class="node"><title>Node36</title>
<polygon fill="white" stroke="#bfbfbf" points="1454.37,-56.5 1454.37,-75.5 1495.37,-75.5 1495.37,-56.5 1454.37,-56.5"/>
<text text-anchor="middle" x="1474.87" y="-63.5" font-family="Helvetica,sans-Serif" font-size="10.00">tuple</text>
</g>
<!-- Node34&#45;&gt;Node36 -->
<g id="edge64" class="edge"><title>Node34&#45;&gt;Node36</title>
<path fill="none" stroke="midnightblue" d="M1648.23,-112.444C1609.03,-102.168 1543.79,-85.066 1505.51,-75.0305"/>
<polygon fill="midnightblue" stroke="midnightblue" points="1506.03,-71.549 1495.47,-72.3989 1504.26,-78.3202 1506.03,-71.549"/>
</g>
<!-- Node40&#45;&gt;Node9 -->
<g id="edge73" class="edge"><title>Node40&#45;&gt;Node9</title>
<path fill="none" stroke="midnightblue" d="M62.7856,-307.936C62.4843,-278.787 61.494,-182.968 61.0698,-141.928"/>
<polygon fill="midnightblue" stroke="midnightblue" points="64.5695,-141.87 60.9662,-131.907 57.5698,-141.942 64.5695,-141.87"/>
</g>
<!-- Node42&#45;&gt;Node6 -->
<g id="edge80" class="edge"><title>Node42&#45;&gt;Node6</title>
<path fill="none" stroke="midnightblue" d="M1809.89,-425.499C1761.25,-417.348 1687.34,-404.079 1623.87,-389 1362.39,-326.872 1053.33,-229.455 949.727,-196.131"/>
<polygon fill="midnightblue" stroke="midnightblue" points="950.662,-192.755 940.07,-193.018 948.514,-199.417 950.662,-192.755"/>
</g>
<!-- Node42&#45;&gt;Node23 -->
<g id="edge159" class="edge"><title>Node42&#45;&gt;Node23</title>
<path fill="none" stroke="midnightblue" d="M1923.92,-425.826C1926.95,-425.523 1929.94,-425.245 1932.87,-425 1984.12,-420.717 2822.22,-426.065 2857.87,-389 2919.44,-324.99 2606.65,-202.661 2524.87,-168 2481.51,-149.619 2428.67,-137.049 2393.53,-129.963"/>
<polygon fill="midnightblue" stroke="midnightblue" points="2394.15,-126.518 2383.67,-128.024 2392.8,-133.387 2394.15,-126.518"/>
</g>
<!-- Node42&#45;&gt;Node30 -->
<g id="edge161" class="edge"><title>Node42&#45;&gt;Node30</title>
<path fill="none" stroke="midnightblue" d="M1859.57,-425.412C1845.81,-389.648 1792.88,-252.1 1773.79,-202.48"/>
<polygon fill="midnightblue" stroke="midnightblue" points="1777.02,-201.128 1770.16,-193.052 1770.49,-203.642 1777.02,-201.128"/>
</g>
<!-- Node42&#45;&gt;Node37 -->
<g id="edge160" class="edge"><title>Node42&#45;&gt;Node37</title>
<path fill="none" stroke="midnightblue" d="M1923.92,-425.823C1926.95,-425.521 1929.94,-425.244 1932.87,-425 2350.85,-390.223 2457.27,-415.036 2875.87,-389 3057.75,-377.688 3692.87,-500.73 3692.87,-318.5 3692.87,-318.5 3692.87,-318.5 3692.87,-249.5 3692.87,-123.911 3354.37,-155.456 2967.87,-132 2926.66,-129.499 2878.78,-126.458 2850.2,-124.628"/>
<polygon fill="midnightblue" stroke="midnightblue" points="2850.11,-121.115 2839.9,-123.968 2849.66,-128.101 2850.11,-121.115"/>
</g>
<!-- Node43 -->
<g id="node44" class="node"><title>Node43</title>
<g id="a_node44"><a xlink:href="_reconstruct__traits_8h.html" target="_top" xlink:title="reconstruct/Reconstruct\l_traits.h">
<polygon fill="white" stroke="black" points="2027.37,-302.5 2027.37,-332.5 2158.37,-332.5 2158.37,-302.5 2027.37,-302.5"/>
<text text-anchor="start" x="2035.37" y="-320.5" font-family="Helvetica,sans-Serif" font-size="10.00">reconstruct/Reconstruct</text>
<text text-anchor="middle" x="2092.87" y="-309.5" font-family="Helvetica,sans-Serif" font-size="10.00">_traits.h</text>
</a>
</g>
</g>
<!-- Node42&#45;&gt;Node43 -->
<g id="edge81" class="edge"><title>Node42&#45;&gt;Node43</title>
<path fill="none" stroke="midnightblue" d="M1880.16,-425.319C1917.34,-406.65 2005.59,-362.332 2055.96,-337.037"/>
<polygon fill="midnightblue" stroke="midnightblue" points="2057.54,-340.161 2064.91,-332.545 2054.4,-333.905 2057.54,-340.161"/>
</g>
<!-- Node46 -->
<g id="node47" class="node"><title>Node46</title>
<g id="a_node47"><a xlink:href="_calibration_8h.html" target="_top" xlink:title="calibration/Calibration.h">
<polygon fill="white" stroke="black" points="2028.37,-369.5 2028.37,-388.5 2157.37,-388.5 2157.37,-369.5 2028.37,-369.5"/>
<text text-anchor="middle" x="2092.87" y="-376.5" font-family="Helvetica,sans-Serif" font-size="10.00">calibration/Calibration.h</text>
</a>
</g>
</g>
<!-- Node42&#45;&gt;Node46 -->
<g id="edge95" class="edge"><title>Node42&#45;&gt;Node46</title>
<path fill="none" stroke="midnightblue" d="M1899.32,-425.444C1939.27,-416.063 2003.46,-400.993 2046.86,-390.804"/>
<polygon fill="midnightblue" stroke="midnightblue" points="2047.67,-394.21 2056.6,-388.516 2046.07,-387.395 2047.67,-394.21"/>
</g>
<!-- Node65 -->
<g id="node66" class="node"><title>Node65</title>
<g id="a_node66"><a xlink:href="piecewise__interval_8h.html" target="_top" xlink:title="base/piecewise_interval.h">
<polygon fill="white" stroke="black" points="1366.87,-241 1366.87,-260 1504.87,-260 1504.87,-241 1366.87,-241"/>
<text text-anchor="middle" x="1435.87" y="-248" font-family="Helvetica,sans-Serif" font-size="10.00">base/piecewise_interval.h</text>
</a>
</g>
</g>
<!-- Node42&#45;&gt;Node65 -->
<g id="edge148" class="edge"><title>Node42&#45;&gt;Node65</title>
<path fill="none" stroke="midnightblue" d="M1806.91,-425.449C1767.88,-418.394 1715.07,-406.643 1670.87,-389 1586.34,-355.254 1496.01,-294.478 1456.44,-266.429"/>
<polygon fill="midnightblue" stroke="midnightblue" points="1458.1,-263.313 1447.93,-260.345 1454.03,-269.008 1458.1,-263.313"/>
</g>
<!-- Node43&#45;&gt;Node6 -->
<g id="edge82" class="edge"><title>Node43&#45;&gt;Node6</title>
<path fill="none" stroke="midnightblue" d="M2027.11,-316.574C1870.6,-316.016 1479.98,-310.103 1357.87,-266 1335.72,-257.996 1336.87,-243.428 1314.87,-235 1175.04,-181.43 1127.67,-223.102 979.874,-199 973.184,-197.909 966.151,-196.572 959.272,-195.155"/>
<polygon fill="midnightblue" stroke="midnightblue" points="959.87,-191.704 949.36,-193.042 958.411,-198.55 959.87,-191.704"/>
</g>
<!-- Node43&#45;&gt;Node22 -->
<g id="edge90" class="edge"><title>Node43&#45;&gt;Node22</title>
<path fill="none" stroke="midnightblue" d="M2098.09,-302.489C2101.71,-292.43 2106.48,-278.498 2109.87,-266 2115.01,-247.073 2119.48,-225.314 2122.54,-209.042"/>
<polygon fill="midnightblue" stroke="midnightblue" points="2126.07,-209.223 2124.43,-198.756 2119.18,-207.96 2126.07,-209.223"/>
</g>
<!-- Node43&#45;&gt;Node23 -->
<g id="edge91" class="edge"><title>Node43&#45;&gt;Node23</title>
<path fill="none" stroke="midnightblue" d="M2105.39,-302.167C2130.94,-273.589 2191.94,-208.765 2253.87,-168 2274.54,-154.396 2300.01,-143.082 2320.19,-135.202"/>
<polygon fill="midnightblue" stroke="midnightblue" points="2321.53,-138.438 2329.64,-131.614 2319.05,-131.894 2321.53,-138.438"/>
</g>
<!-- Node43&#45;&gt;Node24 -->
<g id="edge94" class="edge"><title>Node43&#45;&gt;Node24</title>
<path fill="none" stroke="midnightblue" d="M2158.38,-315.988C2329.54,-314.114 2804.09,-305.466 3196.87,-266 3389.32,-246.663 3470.09,-312.266 3626.87,-199 3645.99,-185.191 3656.4,-159.218 3661.55,-141.518"/>
<polygon fill="midnightblue" stroke="midnightblue" points="3664.96,-142.309 3664.11,-131.749 3658.19,-140.537 3664.96,-142.309"/>
</g>
<!-- Node43&#45;&gt;Node30 -->
<g id="edge92" class="edge"><title>Node43&#45;&gt;Node30</title>
<path fill="none" stroke="midnightblue" d="M2027.14,-311.861C1977.75,-306.21 1909.64,-293.695 1855.87,-266 1824.54,-249.859 1795.95,-219.735 1780.04,-200.978"/>
<polygon fill="midnightblue" stroke="midnightblue" points="1782.72,-198.729 1773.65,-193.25 1777.32,-203.188 1782.72,-198.729"/>
</g>
<!-- Node43&#45;&gt;Node37 -->
<g id="edge93" class="edge"><title>Node43&#45;&gt;Node37</title>
<path fill="none" stroke="midnightblue" d="M2158.53,-312.603C2311.05,-302.419 2683.94,-270.681 2783.87,-199 2803.24,-185.106 2814.37,-159.153 2820.02,-141.481"/>
<polygon fill="midnightblue" stroke="midnightblue" points="2823.42,-142.309 2822.85,-131.729 2816.7,-140.355 2823.42,-142.309"/>
</g>
<!-- Node44 -->
<g id="node45" class="node"><title>Node44</title>
<g id="a_node45"><a xlink:href="mapped__vectors_8h.html" target="_top" xlink:title="base/std_ext/mapped\l_vectors.h">
<polygon fill="white" stroke="black" points="1946.37,-235.5 1946.37,-265.5 2067.37,-265.5 2067.37,-235.5 1946.37,-235.5"/>
<text text-anchor="start" x="1954.37" y="-253.5" font-family="Helvetica,sans-Serif" font-size="10.00">base/std_ext/mapped</text>
<text text-anchor="middle" x="2006.87" y="-242.5" font-family="Helvetica,sans-Serif" font-size="10.00">_vectors.h</text>
</a>
</g>
</g>
<!-- Node43&#45;&gt;Node44 -->
<g id="edge83" class="edge"><title>Node43&#45;&gt;Node44</title>
<path fill="none" stroke="midnightblue" d="M2074.21,-302.396C2062.38,-293.452 2046.88,-281.737 2033.73,-271.802"/>
<polygon fill="midnightblue" stroke="midnightblue" points="2035.59,-268.814 2025.5,-265.577 2031.37,-274.398 2035.59,-268.814"/>
</g>
<!-- Node44&#45;&gt;Node15 -->
<g id="edge87" class="edge"><title>Node44&#45;&gt;Node15</title>
<path fill="none" stroke="midnightblue" d="M1946.25,-236.468C1943.08,-235.936 1939.95,-235.442 1936.87,-235 1742.67,-207.048 1688.2,-242.503 1496.87,-199 1459.29,-190.454 1452.13,-181.089 1415.87,-168 1369.08,-151.105 1354.97,-153.018 1309.87,-132 1294.33,-124.755 1292.91,-118.071 1276.87,-112 1203.19,-84.1119 1110.54,-73.2131 1061.66,-69.1866"/>
<polygon fill="midnightblue" stroke="midnightblue" points="1061.88,-65.6927 1051.64,-68.4073 1061.34,-72.6717 1061.88,-65.6927"/>
</g>
<!-- Node44&#45;&gt;Node19 -->
<g id="edge89" class="edge"><title>Node44&#45;&gt;Node19</title>
<path fill="none" stroke="midnightblue" d="M1997.62,-235.408C1987.25,-217.668 1973.85,-187.198 1989.87,-168 2018.53,-133.665 2143.9,-140.121 2187.87,-132 2189.14,-131.766 2190.43,-131.528 2191.72,-131.288"/>
<polygon fill="midnightblue" stroke="midnightblue" points="2192.6,-134.685 2201.79,-129.415 2191.32,-127.803 2192.6,-134.685"/>
</g>
<!-- Node44&#45;&gt;Node23 -->
<g id="edge88" class="edge"><title>Node44&#45;&gt;Node23</title>
<path fill="none" stroke="midnightblue" d="M2012.02,-235.311C2019.62,-216.577 2035.7,-184.089 2060.87,-168 2071.55,-161.177 2238.67,-138.366 2316.07,-128.092"/>
<polygon fill="midnightblue" stroke="midnightblue" points="2316.92,-131.511 2326.37,-126.729 2316,-124.571 2316.92,-131.511"/>
</g>
<!-- Node45 -->
<g id="node46" class="node"><title>Node45</title>
<g id="a_node46"><a xlink:href="memory_8h.html" target="_top" xlink:title="base/std_ext/memory.h">
<polygon fill="white" stroke="black" points="2610.37,-174 2610.37,-193 2739.37,-193 2739.37,-174 2610.37,-174"/>
<text text-anchor="middle" x="2674.87" y="-181" font-family="Helvetica,sans-Serif" font-size="10.00">base/std_ext/memory.h</text>
</a>
</g>
</g>
<!-- Node44&#45;&gt;Node45 -->
<g id="edge84" class="edge"><title>Node44&#45;&gt;Node45</title>
<path fill="none" stroke="midnightblue" d="M2067.68,-244.565C2169.29,-236.176 2379.99,-218.169 2557.87,-199 2571.55,-197.526 2586.1,-195.828 2600.14,-194.123"/>
<polygon fill="midnightblue" stroke="midnightblue" points="2600.74,-197.575 2610.24,-192.884 2599.89,-190.627 2600.74,-197.575"/>
</g>
<!-- Node45&#45;&gt;Node23 -->
<g id="edge85" class="edge"><title>Node45&#45;&gt;Node23</title>
<path fill="none" stroke="midnightblue" d="M2629.03,-173.975C2565.77,-162.214 2452.85,-141.217 2393.6,-130.2"/>
<polygon fill="midnightblue" stroke="midnightblue" points="2394,-126.715 2383.53,-128.328 2392.72,-133.597 2394,-126.715"/>
</g>
<!-- Node45&#45;&gt;Node37 -->
<g id="edge86" class="edge"><title>Node45&#45;&gt;Node37</title>
<path fill="none" stroke="midnightblue" d="M2696.37,-173.975C2723.9,-163.052 2771.52,-144.164 2800.42,-132.702"/>
<polygon fill="midnightblue" stroke="midnightblue" points="2801.79,-135.923 2809.79,-128.983 2799.21,-129.417 2801.79,-135.923"/>
</g>
<!-- Node46&#45;&gt;Node15 -->
<g id="edge147" class="edge"><title>Node46&#45;&gt;Node15</title>
<path fill="none" stroke="midnightblue" d="M2063.94,-369.434C1979.81,-344.834 1727.65,-273.294 1513.87,-235 1373.43,-209.842 1321.47,-264.802 1194.87,-199 1149.06,-175.186 1158.82,-143.453 1117.87,-112 1100.34,-98.5322 1078.15,-87.3822 1060.18,-79.55"/>
<polygon fill="midnightblue" stroke="midnightblue" points="1061.27,-76.2102 1050.7,-75.5465 1058.55,-82.6594 1061.27,-76.2102"/>
</g>
<!-- Node46&#45;&gt;Node43 -->
<g id="edge96" class="edge"><title>Node46&#45;&gt;Node43</title>
<path fill="none" stroke="midnightblue" d="M2092.87,-369.475C2092.87,-362.471 2092.87,-352.192 2092.87,-342.696"/>
<polygon fill="midnightblue" stroke="midnightblue" points="2096.37,-342.523 2092.87,-332.523 2089.37,-342.523 2096.37,-342.523"/>
</g>
<!-- Node47 -->
<g id="node48" class="node"><title>Node47</title>
<g id="a_node48"><a xlink:href="_manager__traits_8h.html" target="_top" xlink:title="calibration/gui/Manager\l_traits.h">
<polygon fill="white" stroke="black" points="2993.87,-302.5 2993.87,-332.5 3121.87,-332.5 3121.87,-302.5 2993.87,-302.5"/>
<text text-anchor="start" x="3001.87" y="-320.5" font-family="Helvetica,sans-Serif" font-size="10.00">calibration/gui/Manager</text>
<text text-anchor="middle" x="3057.87" y="-309.5" font-family="Helvetica,sans-Serif" font-size="10.00">_traits.h</text>
</a>
</g>
</g>
<!-- Node46&#45;&gt;Node47 -->
<g id="edge97" class="edge"><title>Node46&#45;&gt;Node47</title>
<path fill="none" stroke="midnightblue" d="M2157.69,-374.004C2330.33,-363.359 2800.57,-334.365 2983.59,-323.08"/>
<polygon fill="midnightblue" stroke="midnightblue" points="2983.89,-326.568 2993.66,-322.459 2983.46,-319.582 2983.89,-326.568"/>
</g>
<!-- Node64 -->
<g id="node65" class="node"><title>Node64</title>
<g id="a_node65"><a xlink:href="_options_list_8h.html" target="_top" xlink:title="base/OptionsList.h">
<polygon fill="white" stroke="black" points="2204.37,-241 2204.37,-260 2309.37,-260 2309.37,-241 2204.37,-241"/>
<text text-anchor="middle" x="2256.87" y="-248" font-family="Helvetica,sans-Serif" font-size="10.00">base/OptionsList.h</text>
</a>
</g>
</g>
<!-- Node46&#45;&gt;Node64 -->
<g id="edge141" class="edge"><title>Node46&#45;&gt;Node64</title>
<path fill="none" stroke="midnightblue" d="M2109.03,-369.35C2124.41,-360.845 2147.96,-347.119 2166.87,-333 2194.71,-312.227 2224,-284.433 2241.34,-267.261"/>
<polygon fill="midnightblue" stroke="midnightblue" points="2243.82,-269.728 2248.41,-260.182 2238.87,-264.779 2243.82,-269.728"/>
</g>
<!-- Node47&#45;&gt;Node18 -->
<g id="edge137" class="edge"><title>Node47&#45;&gt;Node18</title>
<path fill="none" stroke="midnightblue" d="M3122.12,-314.514C3276.8,-309.313 3660.93,-293.74 3711.87,-266 3755,-242.52 3781.86,-213.279 3762.87,-168 3749.14,-135.25 3738.54,-125.926 3705.87,-112 3634.49,-81.5694 2420.74,-69.229 2206.16,-67.2807"/>
<polygon fill="midnightblue" stroke="midnightblue" points="2206.19,-63.7809 2196.16,-67.1908 2206.13,-70.7806 2206.19,-63.7809"/>
</g>
<!-- Node47&#45;&gt;Node23 -->
<g id="edge139" class="edge"><title>Node47&#45;&gt;Node23</title>
<path fill="none" stroke="midnightblue" d="M2993.73,-312.257C2846.57,-301.415 2490.04,-268.511 2394.87,-199 2375.73,-185.016 2364.94,-159.085 2359.5,-141.442"/>
<polygon fill="midnightblue" stroke="midnightblue" points="2362.85,-140.401 2356.79,-131.709 2356.11,-142.282 2362.85,-140.401"/>
</g>
<!-- Node47&#45;&gt;Node24 -->
<g id="edge140" class="edge"><title>Node47&#45;&gt;Node24</title>
<path fill="none" stroke="midnightblue" d="M3122.05,-316.262C3258.25,-314.942 3571.74,-307.356 3668.87,-266 3719.59,-244.409 3772.57,-215.653 3744.87,-168 3736.14,-152.97 3720.3,-142.543 3705.08,-135.54"/>
<polygon fill="midnightblue" stroke="midnightblue" points="3706.33,-132.269 3695.75,-131.613 3703.61,-138.72 3706.33,-132.269"/>
</g>
<!-- Node47&#45;&gt;Node28 -->
<g id="edge98" class="edge"><title>Node47&#45;&gt;Node28</title>
<path fill="none" stroke="midnightblue" d="M2993.62,-315.135C2813.77,-311.027 2289.98,-297.093 1855.87,-266 1708.61,-255.452 1341.28,-218.068 1194.87,-199 1182.85,-197.434 1169.97,-195.525 1157.8,-193.612"/>
<polygon fill="midnightblue" stroke="midnightblue" points="1158.2,-190.132 1147.77,-192.013 1157.1,-197.045 1158.2,-190.132"/>
</g>
<!-- Node47&#45;&gt;Node37 -->
<g id="edge138" class="edge"><title>Node47&#45;&gt;Node37</title>
<path fill="none" stroke="midnightblue" d="M3121.94,-317.322C3283.96,-317.449 3688.34,-304.512 3559.87,-168 3514.71,-120.009 3033.65,-136.07 2967.87,-132 2926.67,-129.45 2878.79,-126.424 2850.2,-124.61"/>
<polygon fill="midnightblue" stroke="midnightblue" points="2850.1,-121.097 2839.9,-123.956 2849.66,-128.083 2850.1,-121.097"/>
</g>
<!-- Node48 -->
<g id="node49" class="node"><title>Node48</title>
<g id="a_node49"><a xlink:href="_wrap_t_file_8h.html" target="_top" xlink:title="base/WrapTFile.h">
<polygon fill="white" stroke="black" points="3093.37,-241 3093.37,-260 3188.37,-260 3188.37,-241 3093.37,-241"/>
<text text-anchor="middle" x="3140.87" y="-248" font-family="Helvetica,sans-Serif" font-size="10.00">base/WrapTFile.h</text>
</a>
</g>
</g>
<!-- Node47&#45;&gt;Node48 -->
<g id="edge99" class="edge"><title>Node47&#45;&gt;Node48</title>
<path fill="none" stroke="midnightblue" d="M3075.88,-302.396C3089.47,-291.759 3108.05,-277.203 3121.87,-266.381"/>
<polygon fill="midnightblue" stroke="midnightblue" points="3124.06,-269.116 3129.77,-260.195 3119.74,-263.605 3124.06,-269.116"/>
</g>
<!-- Node59 -->
<g id="node60" class="node"><title>Node59</title>
<g id="a_node60"><a xlink:href="_t_i_d_8h.html" target="_top" xlink:title="tree/TID.h">
<polygon fill="white" stroke="black" points="1865.37,-241 1865.37,-260 1928.37,-260 1928.37,-241 1865.37,-241"/>
<text text-anchor="middle" x="1896.87" y="-248" font-family="Helvetica,sans-Serif" font-size="10.00">tree/TID.h</text>
</a>
</g>
</g>
<!-- Node47&#45;&gt;Node59 -->
<g id="edge124" class="edge"><title>Node47&#45;&gt;Node59</title>
<path fill="none" stroke="midnightblue" d="M2993.76,-316.153C2787.3,-314.636 2141.32,-306.676 1936.87,-266 1933.44,-265.316 1929.9,-264.388 1926.42,-263.329"/>
<polygon fill="midnightblue" stroke="midnightblue" points="1927.48,-259.992 1916.88,-260.095 1925.23,-266.622 1927.48,-259.992"/>
</g>
<!-- Node48&#45;&gt;Node17 -->
<g id="edge122" class="edge"><title>Node48&#45;&gt;Node17</title>
<path fill="none" stroke="midnightblue" d="M3093.37,-248.661C2912.15,-245.244 2264.26,-231.012 2060.87,-199 2009.01,-190.836 1998.67,-176.591 1946.87,-168 1913.77,-162.51 1425.74,-133.983 1277.96,-125.428"/>
<polygon fill="midnightblue" stroke="midnightblue" points="1278.11,-121.931 1267.92,-124.847 1277.7,-128.919 1278.11,-121.931"/>
</g>
<!-- Node48&#45;&gt;Node18 -->
<g id="edge119" class="edge"><title>Node48&#45;&gt;Node18</title>
<path fill="none" stroke="midnightblue" d="M3188.76,-247.243C3293.5,-241.815 3535.57,-226.411 3559.87,-199 3569.02,-188.691 3569.05,-178.276 3559.87,-168 3466.72,-63.6921 2405.38,-65.478 2206.04,-66.7424"/>
<polygon fill="midnightblue" stroke="midnightblue" points="2205.9,-63.2431 2195.92,-66.811 2205.95,-70.243 2205.9,-63.2431"/>
</g>
<!-- Node48&#45;&gt;Node23 -->
<g id="edge118" class="edge"><title>Node48&#45;&gt;Node23</title>
<path fill="none" stroke="midnightblue" d="M3099.25,-240.963C3050.5,-230.953 2967.31,-213.843 2895.87,-199 2830.07,-185.327 2814.23,-178.634 2747.87,-168 2605.69,-145.213 2568.86,-149.055 2425.87,-132 2415.42,-130.753 2404.1,-129.345 2393.65,-128.02"/>
<polygon fill="midnightblue" stroke="midnightblue" points="2393.9,-124.524 2383.54,-126.731 2393.01,-131.467 2393.9,-124.524"/>
</g>
<!-- Node48&#45;&gt;Node24 -->
<g id="edge123" class="edge"><title>Node48&#45;&gt;Node24</title>
<path fill="none" stroke="midnightblue" d="M3188.4,-248.25C3289.55,-244.941 3522.6,-233.679 3592.87,-199 3619.7,-185.763 3642.04,-158.434 3654.68,-140.412"/>
<polygon fill="midnightblue" stroke="midnightblue" points="3657.69,-142.209 3660.37,-131.961 3651.88,-138.295 3657.69,-142.209"/>
</g>
<!-- Node48&#45;&gt;Node37 -->
<g id="edge120" class="edge"><title>Node48&#45;&gt;Node37</title>
<path fill="none" stroke="midnightblue" d="M3093.04,-242.798C3050.98,-235.697 2988.87,-222.221 2938.87,-199 2917.51,-189.076 2915.39,-181.201 2895.87,-168 2879.91,-157.2 2861.52,-145.567 2847.46,-136.834"/>
<polygon fill="midnightblue" stroke="midnightblue" points="2849.26,-133.832 2838.91,-131.553 2845.58,-139.787 2849.26,-133.832"/>
</g>
<!-- Node49 -->
<g id="node50" class="node"><title>Node49</title>
<g id="a_node50"><a xlink:href="string_8h.html" target="_top" xlink:title="base/std_ext/string.h">
<polygon fill="white" stroke="black" points="1826.37,-112.5 1826.37,-131.5 1943.37,-131.5 1943.37,-112.5 1826.37,-112.5"/>
<text text-anchor="middle" x="1884.87" y="-119.5" font-family="Helvetica,sans-Serif" font-size="10.00">base/std_ext/string.h</text>
</a>
</g>
</g>
<!-- Node48&#45;&gt;Node49 -->
<g id="edge100" class="edge"><title>Node48&#45;&gt;Node49</title>
<path fill="none" stroke="midnightblue" d="M3093.21,-248.259C2950.56,-244.23 2528.61,-229.954 2394.87,-199 2359.33,-190.774 2354.28,-176.766 2318.87,-168 2163.47,-129.529 2117.14,-149.849 1953.87,-132.05"/>
<polygon fill="midnightblue" stroke="midnightblue" points="1953.79,-128.519 1943.46,-130.881 1953.01,-135.475 1953.79,-128.519"/>
</g>
<!-- Node50 -->
<g id="node51" class="node"><title>Node50</title>
<g id="a_node51"><a xlink:href="misc_8h.html" target="_top" xlink:title="base/std_ext/misc.h">
<polygon fill="white" stroke="black" points="2948.37,-174 2948.37,-193 3061.37,-193 3061.37,-174 2948.37,-174"/>
<text text-anchor="middle" x="3004.87" y="-181" font-family="Helvetica,sans-Serif" font-size="10.00">base/std_ext/misc.h</text>
</a>
</g>
</g>
<!-- Node48&#45;&gt;Node50 -->
<g id="edge105" class="edge"><title>Node48&#45;&gt;Node50</title>
<path fill="none" stroke="midnightblue" d="M3122.81,-240.869C3099.65,-229.796 3059.25,-210.486 3032.28,-197.598"/>
<polygon fill="midnightblue" stroke="midnightblue" points="3033.54,-194.322 3023.01,-193.167 3030.52,-200.637 3033.54,-194.322"/>
</g>
<!-- Node52 -->
<g id="node53" class="node"><title>Node52</title>
<polygon fill="white" stroke="#bfbfbf" points="3117.87,-174 3117.87,-193 3163.87,-193 3163.87,-174 3117.87,-174"/>
<text text-anchor="middle" x="3140.87" y="-181" font-family="Helvetica,sans-Serif" font-size="10.00">TFile.h</text>
</g>
<!-- Node48&#45;&gt;Node52 -->
<g id="edge112" class="edge"><title>Node48&#45;&gt;Node52</title>
<path fill="none" stroke="midnightblue" d="M3140.87,-240.734C3140.87,-231.183 3140.87,-215.618 3140.87,-203.283"/>
<polygon fill="midnightblue" stroke="midnightblue" points="3144.37,-203.127 3140.87,-193.127 3137.37,-203.127 3144.37,-203.127"/>
</g>
<!-- Node53 -->
<g id="node54" class="node"><title>Node53</title>
<polygon fill="white" stroke="#bfbfbf" points="3182.37,-174 3182.37,-193 3255.37,-193 3255.37,-174 3182.37,-174"/>
<text text-anchor="middle" x="3218.87" y="-181" font-family="Helvetica,sans-Serif" font-size="10.00">TDirectory.h</text>
</g>
<!-- Node48&#45;&gt;Node53 -->
<g id="edge113" class="edge"><title>Node48&#45;&gt;Node53</title>
<path fill="none" stroke="midnightblue" d="M3151.39,-240.734C3164.02,-230.208 3185.42,-212.379 3200.73,-199.617"/>
<polygon fill="midnightblue" stroke="midnightblue" points="3203.08,-202.218 3208.52,-193.127 3198.6,-196.84 3203.08,-202.218"/>
</g>
<!-- Node54 -->
<g id="node55" class="node"><title>Node54</title>
<polygon fill="white" stroke="#bfbfbf" points="3273.37,-174 3273.37,-193 3326.37,-193 3326.37,-174 3273.37,-174"/>
<text text-anchor="middle" x="3299.87" y="-181" font-family="Helvetica,sans-Serif" font-size="10.00">TError.h</text>
</g>
<!-- Node48&#45;&gt;Node54 -->
<g id="edge114" class="edge"><title>Node48&#45;&gt;Node54</title>
<path fill="none" stroke="midnightblue" d="M3161.99,-240.869C3189.51,-229.619 3237.82,-209.867 3269.33,-196.985"/>
<polygon fill="midnightblue" stroke="midnightblue" points="3270.99,-200.088 3278.93,-193.064 3268.35,-193.608 3270.99,-200.088"/>
</g>
<!-- Node55 -->
<g id="node56" class="node"><title>Node55</title>
<polygon fill="white" stroke="#bfbfbf" points="3344.37,-174 3344.37,-193 3391.37,-193 3391.37,-174 3344.37,-174"/>
<text text-anchor="middle" x="3367.87" y="-181" font-family="Helvetica,sans-Serif" font-size="10.00">TList.h</text>
</g>
<!-- Node48&#45;&gt;Node55 -->
<g id="edge115" class="edge"><title>Node48&#45;&gt;Node55</title>
<path fill="none" stroke="midnightblue" d="M3181.18,-240.981C3220.82,-232.146 3282.77,-217.101 3334.87,-199 3336.74,-198.353 3338.64,-197.646 3340.55,-196.903"/>
<polygon fill="midnightblue" stroke="midnightblue" points="3342.03,-200.075 3349.93,-193.005 3339.35,-193.611 3342.03,-200.075"/>
</g>
<!-- Node56 -->
<g id="node57" class="node"><title>Node56</title>
<polygon fill="white" stroke="#bfbfbf" points="3409.37,-174 3409.37,-193 3486.37,-193 3486.37,-174 3409.37,-174"/>
<text text-anchor="middle" x="3447.87" y="-181" font-family="Helvetica,sans-Serif" font-size="10.00">TCollection.h</text>
</g>
<!-- Node48&#45;&gt;Node56 -->
<g id="edge116" class="edge"><title>Node48&#45;&gt;Node56</title>
<path fill="none" stroke="midnightblue" d="M3188.45,-241.706C3240.64,-232.812 3326.73,-217.13 3399.87,-199 3403.71,-198.049 3407.69,-196.98 3411.65,-195.864"/>
<polygon fill="midnightblue" stroke="midnightblue" points="3412.73,-199.196 3421.35,-193.034 3410.77,-192.477 3412.73,-199.196"/>
</g>
<!-- Node57 -->
<g id="node58" class="node"><title>Node57</title>
<polygon fill="white" stroke="#bfbfbf" points="3504.87,-174 3504.87,-193 3550.87,-193 3550.87,-174 3504.87,-174"/>
<text text-anchor="middle" x="3527.87" y="-181" font-family="Helvetica,sans-Serif" font-size="10.00">TKey.h</text>
</g>
<!-- Node48&#45;&gt;Node57 -->
<g id="edge117" class="edge"><title>Node48&#45;&gt;Node57</title>
<path fill="none" stroke="midnightblue" d="M3188.4,-246.835C3257.15,-242.06 3387.86,-229.523 3494.87,-199 3497.03,-198.386 3499.22,-197.661 3501.4,-196.868"/>
<polygon fill="midnightblue" stroke="midnightblue" points="3502.78,-200.086 3510.73,-193.086 3500.15,-193.599 3502.78,-200.086"/>
</g>
<!-- Node58 -->
<g id="node59" class="node"><title>Node58</title>
<polygon fill="white" stroke="#bfbfbf" points="2277.87,-174 2277.87,-193 2309.87,-193 2309.87,-174 2277.87,-174"/>
<text text-anchor="middle" x="2293.87" y="-181" font-family="Helvetica,sans-Serif" font-size="10.00">set</text>
</g>
<!-- Node48&#45;&gt;Node58 -->
<g id="edge121" class="edge"><title>Node48&#45;&gt;Node58</title>
<path fill="none" stroke="midnightblue" d="M3093.21,-248.817C2971.06,-246.547 2637.09,-237.057 2361.87,-199 2347.86,-197.062 2332.43,-193.86 2319.81,-190.957"/>
<polygon fill="midnightblue" stroke="midnightblue" points="2320.51,-187.525 2309.97,-188.624 2318.89,-194.336 2320.51,-187.525"/>
</g>
<!-- Node49&#45;&gt;Node15 -->
<g id="edge104" class="edge"><title>Node49&#45;&gt;Node15</title>
<path fill="none" stroke="midnightblue" d="M1826.31,-117.31C1660.55,-106.865 1191.74,-77.3253 1061.7,-69.1311"/>
<polygon fill="midnightblue" stroke="midnightblue" points="1061.75,-65.6274 1051.55,-68.4916 1061.31,-72.6136 1061.75,-65.6274"/>
</g>
<!-- Node49&#45;&gt;Node18 -->
<g id="edge101" class="edge"><title>Node49&#45;&gt;Node18</title>
<path fill="none" stroke="midnightblue" d="M1930.67,-112.444C1989.63,-101.426 2090.6,-82.5594 2141.92,-72.9714"/>
<polygon fill="midnightblue" stroke="midnightblue" points="2142.6,-76.4047 2151.78,-71.1274 2141.31,-69.5238 2142.6,-76.4047"/>
</g>
<!-- Node49&#45;&gt;Node21 -->
<g id="edge102" class="edge"><title>Node49&#45;&gt;Node21</title>
<path fill="none" stroke="midnightblue" d="M1826.34,-116.903C1799.94,-115.174 1768.35,-113.272 1739.87,-112 1450.24,-99.0625 727.97,-114.514 422.292,-75.8394"/>
<polygon fill="midnightblue" stroke="midnightblue" points="422.408,-72.3249 412.039,-74.5005 421.502,-79.2659 422.408,-72.3249"/>
</g>
<!-- Node49&#45;&gt;Node25 -->
<g id="edge103" class="edge"><title>Node49&#45;&gt;Node25</title>
<path fill="none" stroke="midnightblue" d="M1912.6,-112.444C1942.3,-103.28 1989.59,-88.6876 2022.54,-78.5192"/>
<polygon fill="midnightblue" stroke="midnightblue" points="2023.75,-81.8094 2032.27,-75.5164 2021.69,-75.1206 2023.75,-81.8094"/>
</g>
<!-- Node50&#45;&gt;Node11 -->
<g id="edge108" class="edge"><title>Node50&#45;&gt;Node11</title>
<path fill="none" stroke="midnightblue" d="M3015.6,-173.781C3031.95,-159.485 3059.44,-130.777 3041.87,-112 2914.53,24.1446 2391.09,-64.5356 2204.87,-56 1486.31,-23.0638 606.446,-13.0818 424.673,-11.3091"/>
<polygon fill="midnightblue" stroke="midnightblue" points="424.448,-7.80683 414.414,-11.2106 424.38,-14.8065 424.448,-7.80683"/>
</g>
<!-- Node50&#45;&gt;Node19 -->
<g id="edge110" class="edge"><title>Node50&#45;&gt;Node19</title>
<path fill="none" stroke="midnightblue" d="M2948.18,-179.059C2830.45,-171.753 2550.92,-153.585 2316.87,-132 2305,-130.905 2292.16,-129.555 2280.28,-128.237"/>
<polygon fill="midnightblue" stroke="midnightblue" points="2280.46,-124.735 2270.13,-127.094 2279.68,-131.691 2280.46,-124.735"/>
</g>
<!-- Node50&#45;&gt;Node23 -->
<g id="edge111" class="edge"><title>Node50&#45;&gt;Node23</title>
<path fill="none" stroke="midnightblue" d="M2948.37,-174.374C2931.51,-172.113 2912.96,-169.79 2895.87,-168 2687.51,-146.179 2634.3,-153.179 2425.87,-132 2415.4,-130.935 2404.08,-129.589 2393.62,-128.265"/>
<polygon fill="midnightblue" stroke="midnightblue" points="2393.88,-124.769 2383.51,-126.959 2392.98,-131.711 2393.88,-124.769"/>
</g>
<!-- Node50&#45;&gt;Node24 -->
<g id="edge107" class="edge"><title>Node50&#45;&gt;Node24</title>
<path fill="none" stroke="midnightblue" d="M3060.92,-173.972C3076.43,-171.807 3093.28,-169.634 3108.87,-168 3335.31,-144.267 3394.17,-161.914 3619.87,-132 3621.34,-131.806 3622.82,-131.595 3624.32,-131.369"/>
<polygon fill="midnightblue" stroke="midnightblue" points="3625,-134.805 3634.28,-129.71 3623.85,-127.9 3625,-134.805"/>
</g>
<!-- Node50&#45;&gt;Node25 -->
<g id="edge106" class="edge"><title>Node50&#45;&gt;Node25</title>
<path fill="none" stroke="midnightblue" d="M2990.48,-173.758C2963.73,-158.032 2904.04,-125.367 2848.87,-112 2696.2,-75.0098 2299.47,-88.4725 2142.87,-76 2129.31,-74.9194 2114.53,-73.4207 2101.25,-71.956"/>
<polygon fill="midnightblue" stroke="midnightblue" points="2101.3,-68.4399 2090.97,-70.7972 2100.52,-75.3959 2101.3,-68.4399"/>
</g>
<!-- Node51 -->
<g id="node52" class="node"><title>Node51</title>
<polygon fill="white" stroke="#bfbfbf" points="2976.87,-112.5 2976.87,-131.5 3032.87,-131.5 3032.87,-112.5 2976.87,-112.5"/>
<text text-anchor="middle" x="3004.87" y="-119.5" font-family="Helvetica,sans-Serif" font-size="10.00">cxxabi.h</text>
</g>
<!-- Node50&#45;&gt;Node51 -->
<g id="edge109" class="edge"><title>Node50&#45;&gt;Node51</title>
<path fill="none" stroke="midnightblue" d="M3004.87,-173.975C3004.87,-165.58 3004.87,-152.481 3004.87,-141.663"/>
<polygon fill="midnightblue" stroke="midnightblue" points="3008.37,-141.509 3004.87,-131.509 3001.37,-141.509 3008.37,-141.509"/>
</g>
<!-- Node59&#45;&gt;Node16 -->
<g id="edge132" class="edge"><title>Node59&#45;&gt;Node16</title>
<path fill="none" stroke="midnightblue" d="M1865.06,-243.327C1849.4,-240.461 1830.2,-237.208 1812.87,-235 1716.66,-222.738 1466.51,-238.407 1377.87,-199 1359.49,-190.825 1363.1,-176.52 1344.87,-168 1224.01,-111.516 1179.29,-148.274 1046.87,-132 1034.69,-130.502 1021.35,-128.841 1009.5,-127.357"/>
<polygon fill="midnightblue" stroke="midnightblue" points="1009.89,-123.879 999.53,-126.108 1009.02,-130.825 1009.89,-123.879"/>
</g>
<!-- Node59&#45;&gt;Node17 -->
<g id="edge133" class="edge"><title>Node59&#45;&gt;Node17</title>
<path fill="none" stroke="midnightblue" d="M1865.05,-243.403C1849.38,-240.556 1830.19,-237.296 1812.87,-235 1641.63,-212.291 1589.12,-255.482 1425.87,-199 1401.87,-190.696 1400.85,-178.821 1377.87,-168 1345.54,-152.771 1306.73,-140.87 1277.86,-133.142"/>
<polygon fill="midnightblue" stroke="midnightblue" points="1278.65,-129.731 1268.09,-130.584 1276.88,-136.503 1278.65,-129.731"/>
</g>
<!-- Node59&#45;&gt;Node19 -->
<g id="edge130" class="edge"><title>Node59&#45;&gt;Node19</title>
<path fill="none" stroke="midnightblue" d="M1889.25,-240.754C1876,-224.479 1851.88,-189.271 1870.87,-168 1918.09,-115.115 2117.76,-142.54 2187.87,-132 2189.15,-131.809 2190.44,-131.608 2191.74,-131.401"/>
<polygon fill="midnightblue" stroke="midnightblue" points="2192.56,-134.812 2201.84,-129.696 2191.39,-127.91 2192.56,-134.812"/>
</g>
<!-- Node59&#45;&gt;Node20 -->
<g id="edge135" class="edge"><title>Node59&#45;&gt;Node20</title>
<path fill="none" stroke="midnightblue" d="M1865.13,-248.301C1678.08,-241.23 723.428,-205.086 592.874,-199 511.402,-195.202 415.949,-189.756 364.439,-186.735"/>
<polygon fill="midnightblue" stroke="midnightblue" points="364.626,-183.24 354.438,-186.146 364.215,-190.227 364.626,-183.24"/>
</g>
<!-- Node59&#45;&gt;Node36 -->
<g id="edge131" class="edge"><title>Node59&#45;&gt;Node36</title>
<path fill="none" stroke="midnightblue" d="M1865.12,-247.283C1782.92,-241.258 1564.81,-223.387 1496.87,-199 1444.42,-180.171 1417.77,-180.815 1390.87,-132 1376.24,-105.446 1415.05,-86.1893 1444.7,-75.8095"/>
<polygon fill="midnightblue" stroke="midnightblue" points="1445.91,-79.0944 1454.31,-72.632 1443.71,-72.4482 1445.91,-79.0944"/>
</g>
<!-- Node59&#45;&gt;Node37 -->
<g id="edge134" class="edge"><title>Node59&#45;&gt;Node37</title>
<path fill="none" stroke="midnightblue" d="M1916.88,-240.902C1923.17,-238.569 1930.21,-236.324 1936.87,-235 2113.82,-199.856 2582.54,-271.176 2747.87,-199 2776.44,-186.528 2800.33,-158.286 2813.6,-139.963"/>
<polygon fill="midnightblue" stroke="midnightblue" points="2816.55,-141.856 2819.39,-131.649 2810.8,-137.856 2816.55,-141.856"/>
</g>
<!-- Node60 -->
<g id="node61" class="node"><title>Node60</title>
<polygon fill="white" stroke="#bfbfbf" points="1879.87,-174 1879.87,-193 1937.87,-193 1937.87,-174 1879.87,-174"/>
<text text-anchor="middle" x="1908.87" y="-181" font-family="Helvetica,sans-Serif" font-size="10.00">Rtypes.h</text>
</g>
<!-- Node59&#45;&gt;Node60 -->
<g id="edge125" class="edge"><title>Node59&#45;&gt;Node60</title>
<path fill="none" stroke="midnightblue" d="M1898.49,-240.734C1900.26,-231.183 1903.13,-215.618 1905.41,-203.283"/>
<polygon fill="midnightblue" stroke="midnightblue" points="1908.91,-203.597 1907.28,-193.127 1902.02,-202.326 1908.91,-203.597"/>
</g>
<!-- Node61 -->
<g id="node62" class="node"><title>Node61</title>
<g id="a_node62"><a xlink:href="base_2std__ext_2_time_8h.html" target="_top" xlink:title="base/std_ext/time.h">
<polygon fill="white" stroke="black" points="2403.87,-174 2403.87,-193 2515.87,-193 2515.87,-174 2403.87,-174"/>
<text text-anchor="middle" x="2459.87" y="-181" font-family="Helvetica,sans-Serif" font-size="10.00">base/std_ext/time.h</text>
</a>
</g>
</g>
<!-- Node59&#45;&gt;Node61 -->
<g id="edge126" class="edge"><title>Node59&#45;&gt;Node61</title>
<path fill="none" stroke="midnightblue" d="M1917.34,-240.953C1923.52,-238.681 1930.39,-236.456 1936.87,-235 2103.26,-197.641 2149.17,-215.723 2318.87,-199 2343.19,-196.604 2369.86,-193.885 2393.4,-191.454"/>
<polygon fill="midnightblue" stroke="midnightblue" points="2394.04,-194.906 2403.62,-190.395 2393.32,-187.944 2394.04,-194.906"/>
</g>
<!-- Node63 -->
<g id="node64" class="node"><title>Node63</title>
<polygon fill="white" stroke="#bfbfbf" points="2512.87,-112.5 2512.87,-131.5 2556.87,-131.5 2556.87,-112.5 2512.87,-112.5"/>
<text text-anchor="middle" x="2534.87" y="-119.5" font-family="Helvetica,sans-Serif" font-size="10.00">ctime</text>
</g>
<!-- Node59&#45;&gt;Node63 -->
<g id="edge136" class="edge"><title>Node59&#45;&gt;Node63</title>
<path fill="none" stroke="midnightblue" d="M1916.9,-240.971C1923.18,-238.641 1930.22,-236.38 1936.87,-235 2000.97,-221.71 2477.01,-243.644 2524.87,-199 2540.2,-184.704 2540.46,-159.232 2538.38,-141.747"/>
<polygon fill="midnightblue" stroke="midnightblue" points="2541.8,-140.957 2536.82,-131.607 2534.88,-142.024 2541.8,-140.957"/>
</g>
<!-- Node61&#45;&gt;Node49 -->
<g id="edge127" class="edge"><title>Node61&#45;&gt;Node49</title>
<path fill="none" stroke="midnightblue" d="M2422.97,-173.976C2412.33,-171.759 2400.68,-169.559 2389.87,-168 2200.19,-140.646 2148.35,-152.384 1953.45,-132.001"/>
<polygon fill="midnightblue" stroke="midnightblue" points="1953.77,-128.515 1943.46,-130.94 1953.03,-135.476 1953.77,-128.515"/>
</g>
<!-- Node62 -->
<g id="node63" class="node"><title>Node62</title>
<polygon fill="white" stroke="#bfbfbf" points="2435.37,-112.5 2435.37,-131.5 2484.37,-131.5 2484.37,-112.5 2435.37,-112.5"/>
<text text-anchor="middle" x="2459.87" y="-119.5" font-family="Helvetica,sans-Serif" font-size="10.00">cstring</text>
</g>
<!-- Node61&#45;&gt;Node62 -->
<g id="edge128" class="edge"><title>Node61&#45;&gt;Node62</title>
<path fill="none" stroke="midnightblue" d="M2459.87,-173.975C2459.87,-165.58 2459.87,-152.481 2459.87,-141.663"/>
<polygon fill="midnightblue" stroke="midnightblue" points="2463.37,-141.509 2459.87,-131.509 2456.37,-141.509 2463.37,-141.509"/>
</g>
<!-- Node61&#45;&gt;Node63 -->
<g id="edge129" class="edge"><title>Node61&#45;&gt;Node63</title>
<path fill="none" stroke="midnightblue" d="M2470.62,-173.975C2482.43,-164.608 2501.62,-149.384 2515.96,-138.008"/>
<polygon fill="midnightblue" stroke="midnightblue" points="2518.49,-140.466 2524.15,-131.509 2514.14,-134.982 2518.49,-140.466"/>
</g>
<!-- Node64&#45;&gt;Node18 -->
<g id="edge142" class="edge"><title>Node64&#45;&gt;Node18</title>
<path fill="none" stroke="midnightblue" d="M2309.52,-248.192C2485.51,-243.569 3043.79,-226.759 3069.87,-199 3079.31,-188.96 3073.04,-181.409 3069.87,-168 3063.48,-140.918 3065.16,-127.237 3041.87,-112 2970.97,-65.5982 2356.2,-65.9807 2206.59,-66.7712"/>
<polygon fill="midnightblue" stroke="midnightblue" points="2206.23,-63.2731 2196.25,-66.8306 2206.27,-70.273 2206.23,-63.2731"/>
</g>
<!-- Node64&#45;&gt;Node21 -->
<g id="edge146" class="edge"><title>Node64&#45;&gt;Node21</title>
<path fill="none" stroke="midnightblue" d="M2204.25,-244.658C2168.15,-241.49 2119.15,-237.492 2075.87,-235 1848.33,-221.897 1273.84,-246.272 1050.87,-199 1014.78,-191.348 1009.8,-176.399 973.874,-168 770.306,-120.405 705.512,-190.734 504.874,-132 494.72,-129.027 440.487,-98.9348 408.175,-80.7547"/>
<polygon fill="midnightblue" stroke="midnightblue" points="409.74,-77.6191 399.31,-75.7566 406.302,-83.7168 409.74,-77.6191"/>
</g>
<!-- Node64&#45;&gt;Node23 -->
<g id="edge143" class="edge"><title>Node64&#45;&gt;Node23</title>
<path fill="none" stroke="midnightblue" d="M2255.77,-240.964C2254.18,-225.038 2252.98,-190.389 2268.87,-168 2280.4,-151.77 2299.6,-140.937 2316.94,-133.976"/>
<polygon fill="midnightblue" stroke="midnightblue" points="2318.16,-137.256 2326.32,-130.497 2315.72,-130.692 2318.16,-137.256"/>
</g>
<!-- Node64&#45;&gt;Node30 -->
<g id="edge144" class="edge"><title>Node64&#45;&gt;Node30</title>
<path fill="none" stroke="midnightblue" d="M2204.1,-242.739C2129.74,-233.18 1989.92,-215.087 1870.87,-199 1845.64,-195.591 1816.99,-191.586 1796.16,-188.65"/>
<polygon fill="midnightblue" stroke="midnightblue" points="1796.43,-185.153 1786.04,-187.221 1795.45,-192.085 1796.43,-185.153"/>
</g>
<!-- Node64&#45;&gt;Node58 -->
<g id="edge145" class="edge"><title>Node64&#45;&gt;Node58</title>
<path fill="none" stroke="midnightblue" d="M2261.86,-240.734C2267.47,-230.89 2276.71,-214.66 2283.82,-202.159"/>
<polygon fill="midnightblue" stroke="midnightblue" points="2287.06,-203.549 2288.96,-193.127 2280.97,-200.087 2287.06,-203.549"/>
</g>
<!-- Node65&#45;&gt;Node15 -->
<g id="edge158" class="edge"><title>Node65&#45;&gt;Node15</title>
<path fill="none" stroke="midnightblue" d="M1388.29,-240.955C1376.11,-238.886 1363.02,-236.764 1350.87,-235 1284.43,-225.352 1099.6,-245.202 1050.87,-199 1019.88,-169.608 1021.52,-114.467 1024.92,-85.6382"/>
<polygon fill="midnightblue" stroke="midnightblue" points="1028.39,-86.055 1026.29,-75.6702 1021.46,-85.0976 1028.39,-86.055"/>
</g>
<!-- Node65&#45;&gt;Node28 -->
<g id="edge149" class="edge"><title>Node65&#45;&gt;Node28</title>
<path fill="none" stroke="midnightblue" d="M1387.62,-240.984C1320.96,-229.152 1204.12,-208.165 1161.87,-199 1156.87,-197.914 1151.64,-196.708 1146.45,-195.468"/>
<polygon fill="midnightblue" stroke="midnightblue" points="1147.16,-192.037 1136.61,-193.065 1145.5,-198.837 1147.16,-192.037"/>
</g>
<!-- Node66 -->
<g id="node67" class="node"><title>Node66</title>
<g id="a_node67"><a xlink:href="printable_8h.html" target="_top" xlink:title="base/std_ext/printable.h">
<polygon fill="white" stroke="black" points="1203.87,-174 1203.87,-193 1335.87,-193 1335.87,-174 1203.87,-174"/>
<text text-anchor="middle" x="1269.87" y="-181" font-family="Helvetica,sans-Serif" font-size="10.00">base/std_ext/printable.h</text>
</a>
</g>
</g>
<!-- Node65&#45;&gt;Node66 -->
<g id="edge150" class="edge"><title>Node65&#45;&gt;Node66</title>
<path fill="none" stroke="midnightblue" d="M1413.83,-240.869C1384.98,-229.571 1334.22,-209.696 1301.33,-196.818"/>
<polygon fill="midnightblue" stroke="midnightblue" points="1302.33,-193.451 1291.74,-193.064 1299.78,-199.969 1302.33,-193.451"/>
</g>
<!-- Node66&#45;&gt;Node12 -->
<g id="edge157" class="edge"><title>Node66&#45;&gt;Node12</title>
<path fill="none" stroke="midnightblue" d="M1208.72,-173.987C1191.64,-171.81 1173.05,-169.627 1155.87,-168 900.075,-143.777 832.96,-170.214 578.874,-132 495.065,-119.395 399.05,-93.4542 347.106,-78.4344"/>
<polygon fill="midnightblue" stroke="midnightblue" points="347.901,-75.0206 337.321,-75.5832 345.943,-81.7411 347.901,-75.0206"/>
</g>
<!-- Node66&#45;&gt;Node19 -->
<g id="edge156" class="edge"><title>Node66&#45;&gt;Node19</title>
<path fill="none" stroke="midnightblue" d="M1335.92,-178.188C1381.21,-175.254 1442.68,-171.317 1496.87,-168 1770.16,-151.273 1838.66,-149.911 2111.87,-132 2138.33,-130.266 2167.94,-128.124 2191.59,-126.365"/>
<polygon fill="midnightblue" stroke="midnightblue" points="2191.96,-129.847 2201.67,-125.612 2191.44,-122.867 2191.96,-129.847"/>
</g>
<!-- Node67 -->
<g id="node68" class="node"><title>Node67</title>
<g id="a_node68"><a xlink:href="container_8h.html" target="_top" xlink:title="container.h">
<polygon fill="white" stroke="black" points="1961.87,-112.5 1961.87,-131.5 2031.87,-131.5 2031.87,-112.5 1961.87,-112.5"/>
<text text-anchor="middle" x="1996.87" y="-119.5" font-family="Helvetica,sans-Serif" font-size="10.00">container.h</text>
</a>
</g>
</g>
<!-- Node66&#45;&gt;Node67 -->
<g id="edge151" class="edge"><title>Node66&#45;&gt;Node67</title>
<path fill="none" stroke="midnightblue" d="M1336.02,-178.07C1488.86,-167.769 1859.82,-142.378 1951.39,-131.767"/>
<polygon fill="midnightblue" stroke="midnightblue" points="1952.08,-135.208 1961.57,-130.489 1951.21,-128.262 1952.08,-135.208"/>
</g>
<!-- Node67&#45;&gt;Node15 -->
<g id="edge152" class="edge"><title>Node67&#45;&gt;Node15</title>
<path fill="none" stroke="midnightblue" d="M1961.58,-113.426C1958.31,-112.88 1955.04,-112.391 1951.87,-112 1774.41,-90.0557 1206.57,-72.2397 1061.74,-67.9734"/>
<polygon fill="midnightblue" stroke="midnightblue" points="1061.78,-64.473 1051.68,-67.6787 1061.57,-71.47 1061.78,-64.473"/>
</g>
<!-- Node67&#45;&gt;Node18 -->
<g id="edge155" class="edge"><title>Node67&#45;&gt;Node18</title>
<path fill="none" stroke="midnightblue" d="M2024.92,-112.444C2056.81,-102.714 2108.76,-86.8642 2142.12,-76.688"/>
<polygon fill="midnightblue" stroke="midnightblue" points="2143.29,-79.9909 2151.83,-73.7251 2141.24,-73.2955 2143.29,-79.9909"/>
</g>
<!-- Node67&#45;&gt;Node25 -->
<g id="edge153" class="edge"><title>Node67&#45;&gt;Node25</title>
<path fill="none" stroke="midnightblue" d="M2007,-112.324C2016.4,-104.263 2030.62,-92.0765 2041.94,-82.3695"/>
<polygon fill="midnightblue" stroke="midnightblue" points="2044.25,-84.9993 2049.57,-75.8339 2039.7,-79.6844 2044.25,-84.9993"/>
</g>
<!-- Node67&#45;&gt;Node39 -->
<g id="edge154" class="edge"><title>Node67&#45;&gt;Node39</title>
<path fill="none" stroke="midnightblue" d="M1979.68,-112.324C1962.52,-103.664 1935.93,-90.2424 1916.13,-80.249"/>
<polygon fill="midnightblue" stroke="midnightblue" points="1917.53,-77.0354 1907.02,-75.6545 1914.37,-83.2847 1917.53,-77.0354"/>
</g>
<!-- Node69 -->
<g id="node70" class="node"><title>Node69</title>
<polygon fill="white" stroke="#bfbfbf" points="1942.37,-425.5 1942.37,-444.5 2041.37,-444.5 2041.37,-425.5 1942.37,-425.5"/>
<text text-anchor="middle" x="1991.87" y="-432.5" font-family="Helvetica,sans-Serif" font-size="10.00">easylogging++.h</text>
</g>
<!-- Node68&#45;&gt;Node69 -->
<g id="edge163" class="edge"><title>Node68&#45;&gt;Node69</title>
<path fill="none" stroke="midnightblue" d="M1966.83,-481.083C1970.98,-473.613 1977.03,-462.724 1982.14,-453.52"/>
<polygon fill="midnightblue" stroke="midnightblue" points="1985.22,-455.192 1987.01,-444.751 1979.1,-451.793 1985.22,-455.192"/>
</g>
</g>
</svg>
