<?xml version="1.0" encoding="UTF-8" standalone="no"?>
<!DOCTYPE svg PUBLIC "-//W3C//DTD SVG 1.1//EN"
 "http://www.w3.org/Graphics/SVG/1.1/DTD/svg11.dtd">
<!-- Generated by graphviz version 2.38.0 (20140413.2041)
 -->
<!-- Title: src/unpacker/Unpacker.cc Pages: 1 -->
<svg width="3689pt" height="509pt"
 viewBox="0.00 0.00 3689.46 509.00" xmlns="http://www.w3.org/2000/svg" xmlns:xlink="http://www.w3.org/1999/xlink">
<g id="graph0" class="graph" transform="scale(1 1) rotate(0) translate(4 505)">
<title>src/unpacker/Unpacker.cc</title>
<polygon fill="white" stroke="none" points="-4,4 -4,-505 3685.46,-505 3685.46,4 -4,4"/>
<!-- Node0 -->
<g id="node1" class="node"><title>Node0</title>
<polygon fill="#bfbfbf" stroke="black" points="2376.96,-481.5 2376.96,-500.5 2516.96,-500.5 2516.96,-481.5 2376.96,-481.5"/>
<text text-anchor="middle" x="2446.96" y="-488.5" font-family="Helvetica,sans-Serif" font-size="10.00">src/unpacker/Unpacker.cc</text>
</g>
<!-- Node1 -->
<g id="node2" class="node"><title>Node1</title>
<g id="a_node2"><a xlink:href="_unpacker_8h.html" target="_top" xlink:title="Unpacker.h">
<polygon fill="white" stroke="black" points="323.461,-369.5 323.461,-388.5 394.461,-388.5 394.461,-369.5 323.461,-369.5"/>
<text text-anchor="middle" x="358.961" y="-376.5" font-family="Helvetica,sans-Serif" font-size="10.00">Unpacker.h</text>
</a>
</g>
</g>
<!-- Node0&#45;&gt;Node1 -->
<g id="edge1" class="edge"><title>Node0&#45;&gt;Node1</title>
<path fill="none" stroke="midnightblue" d="M2376.75,-489.784C2115.7,-488.29 1176.68,-476.75 408.961,-389 407.655,-388.851 406.331,-388.688 404.997,-388.515"/>
<polygon fill="midnightblue" stroke="midnightblue" points="405.06,-384.987 394.658,-387.001 404.046,-391.913 405.06,-384.987"/>
</g>
<!-- Node4 -->
<g id="node5" class="node"><title>Node4</title>
<g id="a_node5"><a xlink:href="_unpacker_acqu_8h.html" target="_top" xlink:title="UnpackerAcqu.h">
<polygon fill="white" stroke="black" points="2309.46,-425.5 2309.46,-444.5 2404.46,-444.5 2404.46,-425.5 2309.46,-425.5"/>
<text text-anchor="middle" x="2356.96" y="-432.5" font-family="Helvetica,sans-Serif" font-size="10.00">UnpackerAcqu.h</text>
</a>
</g>
</g>
<!-- Node0&#45;&gt;Node4 -->
<g id="edge4" class="edge"><title>Node0&#45;&gt;Node4</title>
<path fill="none" stroke="midnightblue" d="M2432.5,-481.324C2418.46,-472.9 2396.91,-459.971 2380.42,-450.074"/>
<polygon fill="midnightblue" stroke="midnightblue" points="2381.76,-446.798 2371.39,-444.655 2378.16,-452.801 2381.76,-446.798"/>
</g>
<!-- Node25 -->
<g id="node26" class="node"><title>Node25</title>
<polygon fill="white" stroke="#bfbfbf" points="1919.96,-0.5 1919.96,-19.5 1981.96,-19.5 1981.96,-0.5 1919.96,-0.5"/>
<text text-anchor="middle" x="1950.96" y="-7.5" font-family="Helvetica,sans-Serif" font-size="10.00">algorithm</text>
</g>
<!-- Node0&#45;&gt;Node25 -->
<g id="edge141" class="edge"><title>Node0&#45;&gt;Node25</title>
<path fill="none" stroke="midnightblue" d="M2376.76,-490.319C2148.4,-490.878 1406.03,-488.948 793.961,-445 579.732,-429.618 478.772,-526.724 313.961,-389 274.043,-355.642 287.6,-328.457 279.961,-277 277.938,-263.372 270.563,-256.075 279.961,-246 319.239,-203.892 741.367,-225.006 796.961,-210 862.015,-192.441 873.799,-175.25 932.961,-143 998.948,-107.029 1006.07,-77.9194 1077.96,-56 1236.2,-7.74926 1758.08,-9.04478 1909.46,-10.4914"/>
<polygon fill="midnightblue" stroke="midnightblue" points="1909.68,-13.9936 1919.71,-10.5951 1909.75,-6.99398 1909.68,-13.9936"/>
</g>
<!-- Node56 -->
<g id="node57" class="node"><title>Node56</title>
<g id="a_node57"><a xlink:href="_unpacker_a2_geant_8h.html" target="_top" xlink:title="UnpackerA2Geant.h">
<polygon fill="white" stroke="black" points="2481.46,-425.5 2481.46,-444.5 2594.46,-444.5 2594.46,-425.5 2481.46,-425.5"/>
<text text-anchor="middle" x="2537.96" y="-432.5" font-family="Helvetica,sans-Serif" font-size="10.00">UnpackerA2Geant.h</text>
</a>
</g>
</g>
<!-- Node0&#45;&gt;Node56 -->
<g id="edge123" class="edge"><title>Node0&#45;&gt;Node56</title>
<path fill="none" stroke="midnightblue" d="M2461.58,-481.324C2475.91,-472.822 2497.97,-459.729 2514.71,-449.797"/>
<polygon fill="midnightblue" stroke="midnightblue" points="2516.56,-452.768 2523.38,-444.655 2512.99,-446.748 2516.56,-452.768"/>
</g>
<!-- Node59 -->
<g id="node60" class="node"><title>Node59</title>
<g id="a_node60"><a xlink:href="_logger_8h.html" target="_top" xlink:title="base/Logger.h">
<polygon fill="white" stroke="black" points="2612.96,-425.5 2612.96,-444.5 2696.96,-444.5 2696.96,-425.5 2612.96,-425.5"/>
<text text-anchor="middle" x="2654.96" y="-432.5" font-family="Helvetica,sans-Serif" font-size="10.00">base/Logger.h</text>
</a>
</g>
</g>
<!-- Node0&#45;&gt;Node59 -->
<g id="edge139" class="edge"><title>Node0&#45;&gt;Node59</title>
<path fill="none" stroke="midnightblue" d="M2479.92,-481.444C2515.75,-472.142 2573.12,-457.246 2612.35,-447.062"/>
<polygon fill="midnightblue" stroke="midnightblue" points="2613.36,-450.417 2622.16,-444.516 2611.6,-443.642 2613.36,-450.417"/>
</g>
<!-- Node61 -->
<g id="node62" class="node"><title>Node61</title>
<polygon fill="white" stroke="#bfbfbf" points="2715.46,-425.5 2715.46,-444.5 2774.46,-444.5 2774.46,-425.5 2715.46,-425.5"/>
<text text-anchor="middle" x="2744.96" y="-432.5" font-family="Helvetica,sans-Serif" font-size="10.00">iostream</text>
</g>
<!-- Node0&#45;&gt;Node61 -->
<g id="edge142" class="edge"><title>Node0&#45;&gt;Node61</title>
<path fill="none" stroke="midnightblue" d="M2501.19,-481.465C2551.55,-473.338 2628.84,-460.358 2705.37,-445.028"/>
<polygon fill="midnightblue" stroke="midnightblue" points="2706.08,-448.456 2715.19,-443.048 2704.69,-441.595 2706.08,-448.456"/>
</g>
<!-- Node2 -->
<g id="node3" class="node"><title>Node2</title>
<polygon fill="white" stroke="#bfbfbf" points="630.961,-0.5 630.961,-19.5 674.961,-19.5 674.961,-0.5 630.961,-0.5"/>
<text text-anchor="middle" x="652.961" y="-7.5" font-family="Helvetica,sans-Serif" font-size="10.00">string</text>
</g>
<!-- Node1&#45;&gt;Node2 -->
<g id="edge2" class="edge"><title>Node1&#45;&gt;Node2</title>
<path fill="none" stroke="midnightblue" d="M337.401,-369.352C290.671,-349.329 180.448,-294.914 132.961,-210 99.3739,-149.941 70.383,-106.653 116.961,-56 134.107,-37.3547 507.313,-17.9856 620.626,-12.5168"/>
<polygon fill="midnightblue" stroke="midnightblue" points="620.939,-16.0059 630.76,-12.0314 620.604,-9.0139 620.939,-16.0059"/>
</g>
<!-- Node3 -->
<g id="node4" class="node"><title>Node3</title>
<polygon fill="white" stroke="#bfbfbf" points="2231.46,-56.5 2231.46,-75.5 2288.46,-75.5 2288.46,-56.5 2231.46,-56.5"/>
<text text-anchor="middle" x="2259.96" y="-63.5" font-family="Helvetica,sans-Serif" font-size="10.00">memory</text>
</g>
<!-- Node1&#45;&gt;Node3 -->
<g id="edge3" class="edge"><title>Node1&#45;&gt;Node3</title>
<path fill="none" stroke="midnightblue" d="M394.733,-378.091C650.675,-378.624 2195.92,-379.894 2281.96,-333 2370.39,-284.808 2380.78,-200.081 2331.96,-112 2323.87,-97.405 2308.86,-86.9185 2294.63,-79.7608"/>
<polygon fill="midnightblue" stroke="midnightblue" points="2296.01,-76.5459 2285.47,-75.5282 2293.08,-82.9002 2296.01,-76.5459"/>
</g>
<!-- Node4&#45;&gt;Node1 -->
<g id="edge5" class="edge"><title>Node4&#45;&gt;Node1</title>
<path fill="none" stroke="midnightblue" d="M2309.39,-433.902C2049.01,-433.213 794.339,-427.898 408.961,-389 407.653,-388.868 406.328,-388.721 404.992,-388.561"/>
<polygon fill="midnightblue" stroke="midnightblue" points="405.033,-385.033 394.646,-387.117 404.066,-391.965 405.033,-385.033"/>
</g>
<!-- Node4&#45;&gt;Node3 -->
<g id="edge117" class="edge"><title>Node4&#45;&gt;Node3</title>
<path fill="none" stroke="midnightblue" d="M2367.66,-425.186C2376.98,-416.87 2390.05,-403.539 2396.96,-389 2449.9,-277.597 2496.39,-203.758 2413.96,-112 2411.97,-109.779 2343.51,-90.3317 2298.55,-77.7398"/>
<polygon fill="midnightblue" stroke="midnightblue" points="2299.36,-74.3333 2288.79,-75.0109 2297.48,-81.0747 2299.36,-74.3333"/>
</g>
<!-- Node5 -->
<g id="node6" class="node"><title>Node5</title>
<g id="a_node6"><a xlink:href="_exp_config_8h.html" target="_top" xlink:title="expconfig/ExpConfig.h">
<polygon fill="white" stroke="black" points="2265.96,-369.5 2265.96,-388.5 2387.96,-388.5 2387.96,-369.5 2265.96,-369.5"/>
<text text-anchor="middle" x="2326.96" y="-376.5" font-family="Helvetica,sans-Serif" font-size="10.00">expconfig/ExpConfig.h</text>
</a>
</g>
</g>
<!-- Node4&#45;&gt;Node5 -->
<g id="edge6" class="edge"><title>Node4&#45;&gt;Node5</title>
<path fill="none" stroke="midnightblue" d="M2352.01,-425.083C2347.86,-417.613 2341.81,-406.724 2336.69,-397.52"/>
<polygon fill="midnightblue" stroke="midnightblue" points="2339.74,-395.793 2331.82,-388.751 2333.62,-399.192 2339.74,-395.793"/>
</g>
<!-- Node6 -->
<g id="node7" class="node"><title>Node6</title>
<g id="a_node7"><a xlink:href="_detector__t_8h.html" target="_top" xlink:title="base/Detector_t.h">
<polygon fill="white" stroke="black" points="2998.46,-185 2998.46,-204 3101.46,-204 3101.46,-185 2998.46,-185"/>
<text text-anchor="middle" x="3049.96" y="-192" font-family="Helvetica,sans-Serif" font-size="10.00">base/Detector_t.h</text>
</a>
</g>
</g>
<!-- Node4&#45;&gt;Node6 -->
<g id="edge116" class="edge"><title>Node4&#45;&gt;Node6</title>
<path fill="none" stroke="midnightblue" d="M2395.97,-425.444C2485.24,-405.231 2710.47,-350.631 2888.96,-277 2939.09,-256.32 2995.04,-226.346 3026.01,-209.1"/>
<polygon fill="midnightblue" stroke="midnightblue" points="3027.78,-212.123 3034.79,-204.181 3024.36,-206.016 3027.78,-212.123"/>
</g>
<!-- Node14 -->
<g id="node15" class="node"><title>Node14</title>
<polygon fill="white" stroke="#bfbfbf" points="1978.96,-56.5 1978.96,-75.5 2020.96,-75.5 2020.96,-56.5 1978.96,-56.5"/>
<text text-anchor="middle" x="1999.96" y="-63.5" font-family="Helvetica,sans-Serif" font-size="10.00">limits</text>
</g>
<!-- Node4&#45;&gt;Node14 -->
<g id="edge122" class="edge"><title>Node4&#45;&gt;Node14</title>
<path fill="none" stroke="midnightblue" d="M2309.4,-427.746C2220.26,-414.685 2036.96,-380.91 2036.96,-324 2036.96,-324 2036.96,-324 2036.96,-260.5 2036.96,-195.355 2016.48,-120.034 2005.99,-85.7406"/>
<polygon fill="midnightblue" stroke="midnightblue" points="2009.2,-84.2532 2002.86,-75.7576 2002.52,-86.3467 2009.2,-84.2532"/>
</g>
<!-- Node15 -->
<g id="node16" class="node"><title>Node15</title>
<polygon fill="white" stroke="#bfbfbf" points="2856.46,-0.5 2856.46,-19.5 2903.46,-19.5 2903.46,-0.5 2856.46,-0.5"/>
<text text-anchor="middle" x="2879.96" y="-7.5" font-family="Helvetica,sans-Serif" font-size="10.00">vector</text>
</g>
<!-- Node4&#45;&gt;Node15 -->
<g id="edge120" class="edge"><title>Node4&#45;&gt;Node15</title>
<path fill="none" stroke="midnightblue" d="M2384.61,-425.416C2424.1,-411.23 2491.96,-378.872 2491.96,-324 2491.96,-324 2491.96,-324 2491.96,-193.5 2491.96,-37.6001 2751.63,-14.6384 2846.11,-11.4435"/>
<polygon fill="midnightblue" stroke="midnightblue" points="2846.38,-14.9374 2856.27,-11.1557 2846.18,-7.94023 2846.38,-14.9374"/>
</g>
<!-- Node16 -->
<g id="node17" class="node"><title>Node16</title>
<polygon fill="white" stroke="#bfbfbf" points="2558.46,-118 2558.46,-137 2607.46,-137 2607.46,-118 2558.46,-118"/>
<text text-anchor="middle" x="2582.96" y="-125" font-family="Helvetica,sans-Serif" font-size="10.00">cstdint</text>
</g>
<!-- Node4&#45;&gt;Node16 -->
<g id="edge121" class="edge"><title>Node4&#45;&gt;Node16</title>
<path fill="none" stroke="midnightblue" d="M2404.74,-430.526C2437.03,-425.799 2478.61,-414.745 2505.96,-389 2528.38,-367.892 2529.96,-354.795 2529.96,-324 2529.96,-324 2529.96,-324 2529.96,-260.5 2529.96,-216.68 2555.43,-170.188 2571.05,-145.781"/>
<polygon fill="midnightblue" stroke="midnightblue" points="2574.07,-147.558 2576.67,-137.287 2568.24,-143.695 2574.07,-147.558"/>
</g>
<!-- Node22 -->
<g id="node23" class="node"><title>Node22</title>
<polygon fill="white" stroke="#bfbfbf" points="264.961,-56.5 264.961,-75.5 294.961,-75.5 294.961,-56.5 264.961,-56.5"/>
<text text-anchor="middle" x="279.961" y="-63.5" font-family="Helvetica,sans-Serif" font-size="10.00">list</text>
</g>
<!-- Node4&#45;&gt;Node22 -->
<g id="edge118" class="edge"><title>Node4&#45;&gt;Node22</title>
<path fill="none" stroke="midnightblue" d="M2309.06,-433.657C2010.35,-431.427 412.624,-418.169 313.961,-389 211.292,-358.647 108.961,-369.562 108.961,-262.5 108.961,-262.5 108.961,-262.5 108.961,-193.5 108.961,-121.747 207.472,-86.0409 254.953,-72.9979"/>
<polygon fill="midnightblue" stroke="midnightblue" points="256,-76.3419 264.786,-70.4217 254.226,-69.5705 256,-76.3419"/>
</g>
<!-- Node26 -->
<g id="node27" class="node"><title>Node26</title>
<polygon fill="white" stroke="#bfbfbf" points="1243.96,-185 1243.96,-204 1281.96,-204 1281.96,-185 1243.96,-185"/>
<text text-anchor="middle" x="1262.96" y="-192" font-family="Helvetica,sans-Serif" font-size="10.00">map</text>
</g>
<!-- Node4&#45;&gt;Node26 -->
<g id="edge119" class="edge"><title>Node4&#45;&gt;Node26</title>
<path fill="none" stroke="midnightblue" d="M2309.24,-433.873C2102.28,-433.094 1291,-427.581 1253.96,-389 1207.98,-341.102 1238.28,-251.99 1254.54,-213.726"/>
<polygon fill="midnightblue" stroke="midnightblue" points="1257.84,-214.919 1258.69,-204.358 1251.44,-212.089 1257.84,-214.919"/>
</g>
<!-- Node5&#45;&gt;Node3 -->
<g id="edge113" class="edge"><title>Node5&#45;&gt;Node3</title>
<path fill="none" stroke="midnightblue" d="M2333.7,-369.234C2360.24,-333.6 2453.1,-197.439 2391.96,-112 2386.29,-104.081 2335.62,-88.344 2298.75,-77.7422"/>
<polygon fill="midnightblue" stroke="midnightblue" points="2299.34,-74.2712 2288.76,-74.8989 2297.42,-81.0036 2299.34,-74.2712"/>
</g>
<!-- Node5&#45;&gt;Node6 -->
<g id="edge7" class="edge"><title>Node5&#45;&gt;Node6</title>
<path fill="none" stroke="midnightblue" d="M2388.19,-369.635C2484.69,-355.608 2677.51,-324.164 2835.96,-277 2871.32,-266.475 2878.54,-259.27 2912.96,-246 2948.14,-232.438 2988.69,-217.588 3016.49,-207.525"/>
<polygon fill="midnightblue" stroke="midnightblue" points="3017.91,-210.735 3026.12,-204.046 3015.53,-204.151 3017.91,-210.735"/>
</g>
<!-- Node19 -->
<g id="node20" class="node"><title>Node19</title>
<g id="a_node20"><a xlink:href="_reconstruct__traits_8h.html" target="_top" xlink:title="reconstruct/Reconstruct\l_traits.h">
<polygon fill="white" stroke="black" points="2180.46,-246.5 2180.46,-276.5 2311.46,-276.5 2311.46,-246.5 2180.46,-246.5"/>
<text text-anchor="start" x="2188.46" y="-264.5" font-family="Helvetica,sans-Serif" font-size="10.00">reconstruct/Reconstruct</text>
<text text-anchor="middle" x="2245.96" y="-253.5" font-family="Helvetica,sans-Serif" font-size="10.00">_traits.h</text>
</a>
</g>
</g>
<!-- Node5&#45;&gt;Node19 -->
<g id="edge24" class="edge"><title>Node5&#45;&gt;Node19</title>
<path fill="none" stroke="midnightblue" d="M2320.89,-369.142C2312.28,-356.607 2296.01,-332.991 2281.96,-313 2275.46,-303.749 2268.24,-293.592 2261.98,-284.827"/>
<polygon fill="midnightblue" stroke="midnightblue" points="2264.77,-282.708 2256.1,-276.612 2259.07,-286.782 2264.77,-282.708"/>
</g>
<!-- Node5&#45;&gt;Node22 -->
<g id="edge114" class="edge"><title>Node5&#45;&gt;Node22</title>
<path fill="none" stroke="midnightblue" d="M2265.85,-377.275C1933.1,-373.045 351.817,-349.184 279.961,-277 228.489,-225.293 257.489,-126.101 272.603,-85.2598"/>
<polygon fill="midnightblue" stroke="midnightblue" points="275.925,-86.3739 276.255,-75.7842 269.393,-83.8566 275.925,-86.3739"/>
</g>
<!-- Node5&#45;&gt;Node26 -->
<g id="edge115" class="edge"><title>Node5&#45;&gt;Node26</title>
<path fill="none" stroke="midnightblue" d="M2265.73,-375.881C2081.24,-368.821 1533.38,-342.719 1368.96,-277 1331.99,-262.224 1296.98,-230.669 1277.9,-211.447"/>
<polygon fill="midnightblue" stroke="midnightblue" points="1280.21,-208.799 1270.74,-204.049 1275.18,-213.668 1280.21,-208.799"/>
</g>
<!-- Node27 -->
<g id="node28" class="node"><title>Node27</title>
<g id="a_node28"><a xlink:href="_calibration_8h.html" target="_top" xlink:title="calibration/Calibration.h">
<polygon fill="white" stroke="black" points="2144.46,-313.5 2144.46,-332.5 2273.46,-332.5 2273.46,-313.5 2144.46,-313.5"/>
<text text-anchor="middle" x="2208.96" y="-320.5" font-family="Helvetica,sans-Serif" font-size="10.00">calibration/Calibration.h</text>
</a>
</g>
</g>
<!-- Node5&#45;&gt;Node27 -->
<g id="edge42" class="edge"><title>Node5&#45;&gt;Node27</title>
<path fill="none" stroke="midnightblue" d="M2308.26,-369.444C2289.02,-360.636 2258.81,-346.812 2236.76,-336.722"/>
<polygon fill="midnightblue" stroke="midnightblue" points="2238.12,-333.495 2227.57,-332.516 2235.21,-339.86 2238.12,-333.495"/>
</g>
<!-- Node52 -->
<g id="node53" class="node"><title>Node52</title>
<g id="a_node53"><a xlink:href="piecewise__interval_8h.html" target="_top" xlink:title="base/piecewise_interval.h">
<polygon fill="white" stroke="black" points="2803.96,-185 2803.96,-204 2941.96,-204 2941.96,-185 2803.96,-185"/>
<text text-anchor="middle" x="2872.96" y="-192" font-family="Helvetica,sans-Serif" font-size="10.00">base/piecewise_interval.h</text>
</a>
</g>
</g>
<!-- Node5&#45;&gt;Node52 -->
<g id="edge102" class="edge"><title>Node5&#45;&gt;Node52</title>
<path fill="none" stroke="midnightblue" d="M2352.56,-369.442C2441.32,-339.776 2735.94,-241.299 2837.89,-207.224"/>
<polygon fill="midnightblue" stroke="midnightblue" points="2839.04,-210.529 2847.41,-204.039 2836.82,-203.89 2839.04,-210.529"/>
</g>
<!-- Node6&#45;&gt;Node2 -->
<g id="edge21" class="edge"><title>Node6&#45;&gt;Node2</title>
<path fill="none" stroke="midnightblue" d="M3000.25,-184.963C2984.53,-182.602 2967.06,-180.326 2950.96,-179 2740.08,-161.633 1251.91,-195.624 1046.96,-143 1018.27,-135.633 1015.38,-123.215 987.961,-112 986.142,-111.256 767.999,-45.6083 684.748,-20.562"/>
<polygon fill="midnightblue" stroke="midnightblue" points="685.645,-17.1769 675.06,-17.6476 683.628,-23.8802 685.645,-17.1769"/>
</g>
<!-- Node7 -->
<g id="node8" class="node"><title>Node7</title>
<g id="a_node8"><a xlink:href="bitflag_8h.html" target="_top" xlink:title="base/bitflag.h">
<polygon fill="white" stroke="black" points="3332.46,-118 3332.46,-137 3413.46,-137 3413.46,-118 3332.46,-118"/>
<text text-anchor="middle" x="3372.96" y="-125" font-family="Helvetica,sans-Serif" font-size="10.00">base/bitflag.h</text>
</a>
</g>
</g>
<!-- Node6&#45;&gt;Node7 -->
<g id="edge8" class="edge"><title>Node6&#45;&gt;Node7</title>
<path fill="none" stroke="midnightblue" d="M3101.6,-185.518C3156.74,-176.631 3246.51,-161.109 3322.96,-143 3327.07,-142.027 3331.34,-140.927 3335.58,-139.778"/>
<polygon fill="midnightblue" stroke="midnightblue" points="3336.64,-143.117 3345.32,-137.047 3334.75,-136.376 3336.64,-143.117"/>
</g>
<!-- Node9 -->
<g id="node10" class="node"><title>Node9</title>
<g id="a_node10"><a xlink:href="vec3_8h.html" target="_top" xlink:title="base/vec/vec3.h">
<polygon fill="white" stroke="black" points="3431.96,-118 3431.96,-137 3525.96,-137 3525.96,-118 3431.96,-118"/>
<text text-anchor="middle" x="3478.96" y="-125" font-family="Helvetica,sans-Serif" font-size="10.00">base/vec/vec3.h</text>
</a>
</g>
</g>
<!-- Node6&#45;&gt;Node9 -->
<g id="edge10" class="edge"><title>Node6&#45;&gt;Node9</title>
<path fill="none" stroke="midnightblue" d="M3101.72,-188.362C3173.86,-180.773 3308.56,-165.046 3421.96,-143 3427.15,-141.991 3432.58,-140.796 3437.93,-139.533"/>
<polygon fill="midnightblue" stroke="midnightblue" points="3439.17,-142.832 3448.04,-137.049 3437.5,-136.034 3439.17,-142.832"/>
</g>
<!-- Node13 -->
<g id="node14" class="node"><title>Node13</title>
<g id="a_node14"><a xlink:href="base_2std__ext_2math_8h.html" target="_top" xlink:title="base/std_ext/math.h">
<polygon fill="white" stroke="black" points="3197.96,-118 3197.96,-137 3313.96,-137 3313.96,-118 3197.96,-118"/>
<text text-anchor="middle" x="3255.96" y="-125" font-family="Helvetica,sans-Serif" font-size="10.00">base/std_ext/math.h</text>
</a>
</g>
</g>
<!-- Node6&#45;&gt;Node13 -->
<g id="edge15" class="edge"><title>Node6&#45;&gt;Node13</title>
<path fill="none" stroke="midnightblue" d="M3077.32,-184.869C3113.82,-173.351 3178.56,-152.922 3219.27,-140.077"/>
<polygon fill="midnightblue" stroke="midnightblue" points="3220.34,-143.411 3228.82,-137.064 3218.23,-136.735 3220.34,-143.411"/>
</g>
<!-- Node6&#45;&gt;Node15 -->
<g id="edge23" class="edge"><title>Node6&#45;&gt;Node15</title>
<path fill="none" stroke="midnightblue" d="M3077.19,-184.937C3098.39,-177.041 3127.27,-163.421 3145.96,-143 3173.39,-113.036 3200.42,-86.8189 3173.96,-56 3140.77,-17.3384 2984,-11.5429 2913.94,-10.9162"/>
<polygon fill="midnightblue" stroke="midnightblue" points="2913.88,-7.41591 2903.86,-10.8568 2913.84,-14.4158 2913.88,-7.41591"/>
</g>
<!-- Node6&#45;&gt;Node16 -->
<g id="edge19" class="edge"><title>Node6&#45;&gt;Node16</title>
<path fill="none" stroke="midnightblue" d="M2998.34,-185.848C2983.08,-183.612 2966.35,-181.183 2950.96,-179 2828.49,-161.628 2682.94,-141.936 2617.66,-133.155"/>
<polygon fill="midnightblue" stroke="midnightblue" points="2617.9,-129.656 2607.52,-131.792 2616.96,-136.593 2617.9,-129.656"/>
</g>
<!-- Node17 -->
<g id="node18" class="node"><title>Node17</title>
<polygon fill="white" stroke="#bfbfbf" points="1486.96,-56.5 1486.96,-75.5 1550.96,-75.5 1550.96,-56.5 1486.96,-56.5"/>
<text text-anchor="middle" x="1518.96" y="-63.5" font-family="Helvetica,sans-Serif" font-size="10.00">stdexcept</text>
</g>
<!-- Node6&#45;&gt;Node17 -->
<g id="edge20" class="edge"><title>Node6&#45;&gt;Node17</title>
<path fill="none" stroke="midnightblue" d="M2999.73,-184.989C2984.14,-182.66 2966.88,-180.395 2950.96,-179 2815.09,-167.097 1852.06,-189.829 1723.96,-143 1703.17,-135.398 1704.72,-121.992 1684.96,-112 1663.42,-101.108 1602.88,-86.0263 1561.19,-76.3904"/>
<polygon fill="midnightblue" stroke="midnightblue" points="1561.83,-72.945 1551.3,-74.1234 1560.26,-79.7683 1561.83,-72.945"/>
</g>
<!-- Node18 -->
<g id="node19" class="node"><title>Node18</title>
<polygon fill="white" stroke="#bfbfbf" points="2783.96,-56.5 2783.96,-75.5 2851.96,-75.5 2851.96,-56.5 2783.96,-56.5"/>
<text text-anchor="middle" x="2817.96" y="-63.5" font-family="Helvetica,sans-Serif" font-size="10.00">type_traits</text>
</g>
<!-- Node6&#45;&gt;Node18 -->
<g id="edge22" class="edge"><title>Node6&#45;&gt;Node18</title>
<path fill="none" stroke="midnightblue" d="M3051.46,-184.753C3053.76,-168.158 3056.08,-131.984 3036.96,-112 3013.41,-87.3759 2919.15,-75.3614 2862.25,-70.2426"/>
<polygon fill="midnightblue" stroke="midnightblue" points="2862.35,-66.7383 2852.09,-69.3656 2861.75,-73.7124 2862.35,-66.7383"/>
</g>
<!-- Node8 -->
<g id="node9" class="node"><title>Node8</title>
<polygon fill="white" stroke="#bfbfbf" points="3350.96,-56.5 3350.96,-75.5 3394.96,-75.5 3394.96,-56.5 3350.96,-56.5"/>
<text text-anchor="middle" x="3372.96" y="-63.5" font-family="Helvetica,sans-Serif" font-size="10.00">bitset</text>
</g>
<!-- Node7&#45;&gt;Node8 -->
<g id="edge9" class="edge"><title>Node7&#45;&gt;Node8</title>
<path fill="none" stroke="midnightblue" d="M3372.96,-117.975C3372.96,-109.58 3372.96,-96.4806 3372.96,-85.6631"/>
<polygon fill="midnightblue" stroke="midnightblue" points="3376.46,-85.5091 3372.96,-75.5091 3369.46,-85.5091 3376.46,-85.5091"/>
</g>
<!-- Node10 -->
<g id="node11" class="node"><title>Node10</title>
<g id="a_node11"><a xlink:href="vec2_8h.html" target="_top" xlink:title="vec2.h">
<polygon fill="white" stroke="black" points="3454.96,-56.5 3454.96,-75.5 3502.96,-75.5 3502.96,-56.5 3454.96,-56.5"/>
<text text-anchor="middle" x="3478.96" y="-63.5" font-family="Helvetica,sans-Serif" font-size="10.00">vec2.h</text>
</a>
</g>
</g>
<!-- Node9&#45;&gt;Node10 -->
<g id="edge11" class="edge"><title>Node9&#45;&gt;Node10</title>
<path fill="none" stroke="midnightblue" d="M3478.96,-117.975C3478.96,-109.58 3478.96,-96.4806 3478.96,-85.6631"/>
<polygon fill="midnightblue" stroke="midnightblue" points="3482.46,-85.5091 3478.96,-75.5091 3475.46,-85.5091 3482.46,-85.5091"/>
</g>
<!-- Node11 -->
<g id="node12" class="node"><title>Node11</title>
<polygon fill="white" stroke="#bfbfbf" points="3246.46,-0.5 3246.46,-19.5 3293.46,-19.5 3293.46,-0.5 3246.46,-0.5"/>
<text text-anchor="middle" x="3269.96" y="-7.5" font-family="Helvetica,sans-Serif" font-size="10.00">cmath</text>
</g>
<!-- Node9&#45;&gt;Node11 -->
<g id="edge14" class="edge"><title>Node9&#45;&gt;Node11</title>
<path fill="none" stroke="midnightblue" d="M3488.62,-117.905C3503.33,-103.788 3528.03,-75.3305 3511.96,-56 3485.87,-24.6101 3363.96,-15.0098 3303.77,-12.1587"/>
<polygon fill="midnightblue" stroke="midnightblue" points="3303.77,-8.6555 3293.63,-11.7148 3303.46,-15.6488 3303.77,-8.6555"/>
</g>
<!-- Node12 -->
<g id="node13" class="node"><title>Node12</title>
<polygon fill="white" stroke="#bfbfbf" points="3108.46,-56.5 3108.46,-75.5 3165.46,-75.5 3165.46,-56.5 3108.46,-56.5"/>
<text text-anchor="middle" x="3136.96" y="-63.5" font-family="Helvetica,sans-Serif" font-size="10.00">ostream</text>
</g>
<!-- Node9&#45;&gt;Node12 -->
<g id="edge13" class="edge"><title>Node9&#45;&gt;Node12</title>
<path fill="none" stroke="midnightblue" d="M3447.72,-117.999C3439.39,-115.883 3430.36,-113.728 3421.96,-112 3334.61,-94.034 3230.92,-79.2936 3175.86,-71.9809"/>
<polygon fill="midnightblue" stroke="midnightblue" points="3176.21,-68.4967 3165.84,-70.6607 3175.3,-75.4367 3176.21,-68.4967"/>
</g>
<!-- Node10&#45;&gt;Node11 -->
<g id="edge12" class="edge"><title>Node10&#45;&gt;Node11</title>
<path fill="none" stroke="midnightblue" d="M3454.58,-58.6998C3417.17,-49.0358 3345.55,-30.5295 3303.35,-19.627"/>
<polygon fill="midnightblue" stroke="midnightblue" points="3304.11,-16.2074 3293.55,-17.0944 3302.36,-22.9848 3304.11,-16.2074"/>
</g>
<!-- Node13&#45;&gt;Node11 -->
<g id="edge16" class="edge"><title>Node13&#45;&gt;Node11</title>
<path fill="none" stroke="midnightblue" d="M3257.01,-117.819C3259.26,-99.2568 3264.59,-55.3391 3267.66,-29.9734"/>
<polygon fill="midnightblue" stroke="midnightblue" points="3271.17,-30.1305 3268.9,-19.782 3264.22,-29.2882 3271.17,-30.1305"/>
</g>
<!-- Node13&#45;&gt;Node14 -->
<g id="edge17" class="edge"><title>Node13&#45;&gt;Node14</title>
<path fill="none" stroke="midnightblue" d="M3197.89,-122.294C3153.76,-119.185 3091.56,-114.992 3036.96,-112 2833.99,-100.878 2183.4,-74.4106 2031.76,-68.2822"/>
<polygon fill="midnightblue" stroke="midnightblue" points="2031.46,-64.7673 2021.33,-67.8608 2031.18,-71.7616 2031.46,-64.7673"/>
</g>
<!-- Node13&#45;&gt;Node15 -->
<g id="edge18" class="edge"><title>Node13&#45;&gt;Node15</title>
<path fill="none" stroke="midnightblue" d="M3252.8,-117.813C3246.73,-102.475 3231.88,-70.8174 3207.96,-56 3159.3,-25.8481 2987.76,-15.3735 2914.05,-12.2097"/>
<polygon fill="midnightblue" stroke="midnightblue" points="2914.04,-8.70668 2903.91,-11.7945 2913.75,-15.7008 2914.04,-8.70668"/>
</g>
<!-- Node19&#45;&gt;Node3 -->
<g id="edge38" class="edge"><title>Node19&#45;&gt;Node3</title>
<path fill="none" stroke="midnightblue" d="M2257.81,-246.477C2274.62,-225.557 2304.62,-184.208 2315.96,-143 2319.62,-129.716 2321.92,-124.424 2315.96,-112 2309.71,-98.9542 2297.63,-88.4921 2286.28,-80.9506"/>
<polygon fill="midnightblue" stroke="midnightblue" points="2287.82,-77.7869 2277.46,-75.5351 2284.15,-83.7515 2287.82,-77.7869"/>
</g>
<!-- Node19&#45;&gt;Node6 -->
<g id="edge25" class="edge"><title>Node19&#45;&gt;Node6</title>
<path fill="none" stroke="midnightblue" d="M2311.71,-257.416C2436.56,-251.2 2716.44,-235.539 2950.96,-210 2963.04,-208.685 2975.9,-207.007 2988.22,-205.262"/>
<polygon fill="midnightblue" stroke="midnightblue" points="2989.02,-208.683 2998.42,-203.787 2988.02,-201.755 2989.02,-208.683"/>
</g>
<!-- Node20 -->
<g id="node21" class="node"><title>Node20</title>
<g id="a_node21"><a xlink:href="mapped__vectors_8h.html" target="_top" xlink:title="base/std_ext/mapped\l_vectors.h">
<polygon fill="white" stroke="black" points="2664.46,-179.5 2664.46,-209.5 2785.46,-209.5 2785.46,-179.5 2664.46,-179.5"/>
<text text-anchor="start" x="2672.46" y="-197.5" font-family="Helvetica,sans-Serif" font-size="10.00">base/std_ext/mapped</text>
<text text-anchor="middle" x="2724.96" y="-186.5" font-family="Helvetica,sans-Serif" font-size="10.00">_vectors.h</text>
</a>
</g>
</g>
<!-- Node19&#45;&gt;Node20 -->
<g id="edge26" class="edge"><title>Node19&#45;&gt;Node20</title>
<path fill="none" stroke="midnightblue" d="M2311.56,-251.598C2401.33,-239.416 2561.83,-217.637 2654.21,-205.1"/>
<polygon fill="midnightblue" stroke="midnightblue" points="2654.87,-208.543 2664.31,-203.73 2653.93,-201.607 2654.87,-208.543"/>
</g>
<!-- Node19&#45;&gt;Node22 -->
<g id="edge40" class="edge"><title>Node19&#45;&gt;Node22</title>
<path fill="none" stroke="midnightblue" d="M2180.43,-258.958C1903.18,-252.354 834.026,-226.071 683.961,-210 519.532,-192.391 450.197,-242.301 317.961,-143 299.205,-128.915 289.089,-103.009 284.115,-85.3989"/>
<polygon fill="midnightblue" stroke="midnightblue" points="287.503,-84.5187 281.652,-75.6861 280.718,-86.2396 287.503,-84.5187"/>
</g>
<!-- Node23 -->
<g id="node24" class="node"><title>Node23</title>
<g id="a_node24"><a xlink:href="shared__ptr__container_8h.html" target="_top" xlink:title="base/std_ext/shared\l_ptr_container.h">
<polygon fill="white" stroke="black" points="2159.96,-112.5 2159.96,-142.5 2273.96,-142.5 2273.96,-112.5 2159.96,-112.5"/>
<text text-anchor="start" x="2167.96" y="-130.5" font-family="Helvetica,sans-Serif" font-size="10.00">base/std_ext/shared</text>
<text text-anchor="middle" x="2216.96" y="-119.5" font-family="Helvetica,sans-Serif" font-size="10.00">_ptr_container.h</text>
</a>
</g>
</g>
<!-- Node19&#45;&gt;Node23 -->
<g id="edge33" class="edge"><title>Node19&#45;&gt;Node23</title>
<path fill="none" stroke="midnightblue" d="M2242.86,-246.374C2237.93,-223.945 2228.26,-179.924 2222.23,-152.486"/>
<polygon fill="midnightblue" stroke="midnightblue" points="2225.61,-151.541 2220.04,-142.525 2218.77,-153.043 2225.61,-151.541"/>
</g>
<!-- Node24 -->
<g id="node25" class="node"><title>Node24</title>
<polygon fill="white" stroke="#bfbfbf" points="1569.46,-56.5 1569.46,-75.5 1632.46,-75.5 1632.46,-56.5 1569.46,-56.5"/>
<text text-anchor="middle" x="1600.96" y="-63.5" font-family="Helvetica,sans-Serif" font-size="10.00">functional</text>
</g>
<!-- Node19&#45;&gt;Node24 -->
<g id="edge41" class="edge"><title>Node19&#45;&gt;Node24</title>
<path fill="none" stroke="midnightblue" d="M2180.19,-259.619C1996.04,-256.716 1484.46,-245.514 1417.96,-210 1374.65,-186.869 1335.59,-149.769 1366.96,-112 1393.15,-80.4724 1502.73,-84.0688 1559.02,-75.8295"/>
<polygon fill="midnightblue" stroke="midnightblue" points="1559.94,-79.2226 1569.2,-74.0764 1558.75,-72.3241 1559.94,-79.2226"/>
</g>
<!-- Node19&#45;&gt;Node26 -->
<g id="edge39" class="edge"><title>Node19&#45;&gt;Node26</title>
<path fill="none" stroke="midnightblue" d="M2180.41,-260.148C2030.11,-258.628 1649.29,-250.708 1333.96,-210 1320.12,-208.213 1304.94,-205.252 1292.18,-202.47"/>
<polygon fill="midnightblue" stroke="midnightblue" points="1292.64,-198.986 1282.12,-200.205 1291.11,-205.815 1292.64,-198.986"/>
</g>
<!-- Node20&#45;&gt;Node3 -->
<g id="edge31" class="edge"><title>Node20&#45;&gt;Node3</title>
<path fill="none" stroke="midnightblue" d="M2716.63,-179.368C2704.59,-160.383 2680.38,-127.266 2649.96,-112 2511.38,-42.4523 2456.16,-99.9137 2302.96,-76 2301.5,-75.7721 2300.02,-75.5271 2298.52,-75.269"/>
<polygon fill="midnightblue" stroke="midnightblue" points="2299.04,-71.806 2288.57,-73.4155 2297.76,-78.6876 2299.04,-71.806"/>
</g>
<!-- Node20&#45;&gt;Node15 -->
<g id="edge30" class="edge"><title>Node20&#45;&gt;Node15</title>
<path fill="none" stroke="midnightblue" d="M2770.57,-179.498C2790.79,-171.445 2813.64,-159.571 2829.96,-143 2861.25,-111.24 2873.32,-57.9538 2877.68,-29.7787"/>
<polygon fill="midnightblue" stroke="midnightblue" points="2881.18,-30.0702 2879.08,-19.685 2874.24,-29.1115 2881.18,-30.0702"/>
</g>
<!-- Node20&#45;&gt;Node18 -->
<g id="edge32" class="edge"><title>Node20&#45;&gt;Node18</title>
<path fill="none" stroke="midnightblue" d="M2765.67,-179.292C2782.49,-171.291 2800.47,-159.516 2810.96,-143 2821.81,-125.915 2822.21,-102.16 2820.76,-85.7783"/>
<polygon fill="midnightblue" stroke="midnightblue" points="2824.23,-85.3029 2819.57,-75.7872 2817.28,-86.1311 2824.23,-85.3029"/>
</g>
<!-- Node21 -->
<g id="node22" class="node"><title>Node21</title>
<g id="a_node22"><a xlink:href="memory_8h.html" target="_top" xlink:title="base/std_ext/memory.h">
<polygon fill="white" stroke="black" points="1547.46,-118 1547.46,-137 1676.46,-137 1676.46,-118 1547.46,-118"/>
<text text-anchor="middle" x="1611.96" y="-125" font-family="Helvetica,sans-Serif" font-size="10.00">base/std_ext/memory.h</text>
</a>
</g>
</g>
<!-- Node20&#45;&gt;Node21 -->
<g id="edge27" class="edge"><title>Node20&#45;&gt;Node21</title>
<path fill="none" stroke="midnightblue" d="M2664.42,-193.344C2504.71,-192.327 2058.97,-185.569 1690.96,-143 1681.81,-141.941 1672.11,-140.462 1662.77,-138.851"/>
<polygon fill="midnightblue" stroke="midnightblue" points="1663.27,-135.385 1652.81,-137.065 1662.03,-142.275 1663.27,-135.385"/>
</g>
<!-- Node21&#45;&gt;Node3 -->
<g id="edge28" class="edge"><title>Node21&#45;&gt;Node3</title>
<path fill="none" stroke="midnightblue" d="M1673.81,-117.987C1690.11,-115.883 1707.68,-113.736 1723.96,-112 1910,-92.1576 2133.15,-75.8105 2221.37,-69.6415"/>
<polygon fill="midnightblue" stroke="midnightblue" points="2221.71,-73.1261 2231.45,-68.9401 2221.23,-66.143 2221.71,-73.1261"/>
</g>
<!-- Node21&#45;&gt;Node22 -->
<g id="edge29" class="edge"><title>Node21&#45;&gt;Node22</title>
<path fill="none" stroke="midnightblue" d="M1554.01,-117.982C1536.37,-115.682 1516.9,-113.435 1498.96,-112 999.854,-72.091 872.629,-108.131 372.961,-76 349.957,-74.5207 323.834,-71.9104 305.145,-69.8806"/>
<polygon fill="midnightblue" stroke="midnightblue" points="305.403,-66.388 295.079,-68.7655 304.633,-73.3454 305.403,-66.388"/>
</g>
<!-- Node23&#45;&gt;Node3 -->
<g id="edge35" class="edge"><title>Node23&#45;&gt;Node3</title>
<path fill="none" stroke="midnightblue" d="M2227.15,-112.399C2233.34,-103.842 2241.26,-92.8708 2247.78,-83.857"/>
<polygon fill="midnightblue" stroke="midnightblue" points="2250.68,-85.8129 2253.7,-75.6578 2245.01,-81.7127 2250.68,-85.8129"/>
</g>
<!-- Node23&#45;&gt;Node15 -->
<g id="edge34" class="edge"><title>Node23&#45;&gt;Node15</title>
<path fill="none" stroke="midnightblue" d="M2274.2,-114.644C2345.78,-99.9943 2472.17,-74.7142 2580.96,-56 2676.95,-39.4885 2790.86,-23.2729 2846.29,-15.5976"/>
<polygon fill="midnightblue" stroke="midnightblue" points="2846.84,-19.0563 2856.26,-14.2223 2845.88,-12.122 2846.84,-19.0563"/>
</g>
<!-- Node23&#45;&gt;Node24 -->
<g id="edge36" class="edge"><title>Node23&#45;&gt;Node24</title>
<path fill="none" stroke="midnightblue" d="M2159.81,-113.451C2156.83,-112.924 2153.86,-112.435 2150.96,-112 2125.93,-108.244 1767.39,-80.0207 1643.05,-70.2878"/>
<polygon fill="midnightblue" stroke="midnightblue" points="1643.03,-66.7758 1632.79,-69.4849 1642.49,-73.7544 1643.03,-66.7758"/>
</g>
<!-- Node23&#45;&gt;Node25 -->
<g id="edge37" class="edge"><title>Node23&#45;&gt;Node25</title>
<path fill="none" stroke="midnightblue" d="M2184.61,-112.453C2132.3,-89.7392 2029.96,-45.3041 1979.92,-23.5727"/>
<polygon fill="midnightblue" stroke="midnightblue" points="1981.2,-20.3148 1970.63,-19.5423 1978.41,-26.7356 1981.2,-20.3148"/>
</g>
<!-- Node27&#45;&gt;Node15 -->
<g id="edge101" class="edge"><title>Node27&#45;&gt;Node15</title>
<path fill="none" stroke="midnightblue" d="M2273.62,-316.652C2430.92,-302.94 2829.54,-263.794 2950.96,-210 2970.89,-201.171 2970.83,-191.102 2988.96,-179 3017.08,-160.23 3038.61,-172.014 3055.96,-143 3077.35,-107.228 3053.87,-81.5723 3020.96,-56 2989.47,-31.5312 2944.34,-20.1915 2913.68,-15.0552"/>
<polygon fill="midnightblue" stroke="midnightblue" points="2913.9,-11.5481 2903.49,-13.4858 2912.84,-18.4666 2913.9,-11.5481"/>
</g>
<!-- Node27&#45;&gt;Node19 -->
<g id="edge43" class="edge"><title>Node27&#45;&gt;Node19</title>
<path fill="none" stroke="midnightblue" d="M2214.26,-313.475C2218.85,-306.094 2225.7,-295.077 2231.86,-285.171"/>
<polygon fill="midnightblue" stroke="midnightblue" points="2234.93,-286.863 2237.24,-276.523 2228.99,-283.167 2234.93,-286.863"/>
</g>
<!-- Node28 -->
<g id="node29" class="node"><title>Node28</title>
<g id="a_node29"><a xlink:href="_manager__traits_8h.html" target="_top" xlink:title="calibration/gui/Manager\l_traits.h">
<polygon fill="white" stroke="black" points="1377.96,-246.5 1377.96,-276.5 1505.96,-276.5 1505.96,-246.5 1377.96,-246.5"/>
<text text-anchor="start" x="1385.96" y="-264.5" font-family="Helvetica,sans-Serif" font-size="10.00">calibration/gui/Manager</text>
<text text-anchor="middle" x="1441.96" y="-253.5" font-family="Helvetica,sans-Serif" font-size="10.00">_traits.h</text>
</a>
</g>
</g>
<!-- Node27&#45;&gt;Node28 -->
<g id="edge44" class="edge"><title>Node27&#45;&gt;Node28</title>
<path fill="none" stroke="midnightblue" d="M2144.23,-316.978C2002.57,-305.989 1665.8,-279.864 1516.01,-268.244"/>
<polygon fill="midnightblue" stroke="midnightblue" points="1516.22,-264.75 1505.98,-267.466 1515.68,-271.729 1516.22,-264.75"/>
</g>
<!-- Node51 -->
<g id="node52" class="node"><title>Node51</title>
<g id="a_node52"><a xlink:href="_options_list_8h.html" target="_top" xlink:title="base/OptionsList.h">
<polygon fill="white" stroke="black" points="289.461,-252 289.461,-271 394.461,-271 394.461,-252 289.461,-252"/>
<text text-anchor="middle" x="341.961" y="-259" font-family="Helvetica,sans-Serif" font-size="10.00">base/OptionsList.h</text>
</a>
</g>
</g>
<!-- Node27&#45;&gt;Node51 -->
<g id="edge95" class="edge"><title>Node27&#45;&gt;Node51</title>
<path fill="none" stroke="midnightblue" d="M2144.42,-319.943C1856.4,-310.764 690.1,-273.595 405.047,-264.511"/>
<polygon fill="midnightblue" stroke="midnightblue" points="404.993,-261.007 394.887,-264.187 404.77,-268.004 404.993,-261.007"/>
</g>
<!-- Node28&#45;&gt;Node2 -->
<g id="edge91" class="edge"><title>Node28&#45;&gt;Node2</title>
<path fill="none" stroke="midnightblue" d="M1377.6,-259.482C1143.65,-255.544 349.7,-240.014 304.961,-210 245.315,-169.985 208.118,-109.572 255.961,-56 280.131,-28.9359 530.017,-16.0505 620.489,-12.2466"/>
<polygon fill="midnightblue" stroke="midnightblue" points="620.858,-15.7345 630.706,-11.8273 620.571,-8.74035 620.858,-15.7345"/>
</g>
<!-- Node28&#45;&gt;Node3 -->
<g id="edge93" class="edge"><title>Node28&#45;&gt;Node3</title>
<path fill="none" stroke="midnightblue" d="M1506.01,-256.584C1694.15,-244.404 2235.02,-204.291 2282.96,-143 2296.43,-125.776 2284.38,-100.718 2273.26,-84.1465"/>
<polygon fill="midnightblue" stroke="midnightblue" points="2276.02,-81.9958 2267.35,-75.9172 2270.34,-86.0805 2276.02,-81.9958"/>
</g>
<!-- Node28&#45;&gt;Node22 -->
<g id="edge92" class="edge"><title>Node28&#45;&gt;Node22</title>
<path fill="none" stroke="midnightblue" d="M1377.92,-259.975C1159.93,-257.847 455.004,-248.066 360.961,-210 319.221,-193.105 304.83,-183.409 284.961,-143 276.135,-125.049 275.994,-101.774 277.356,-85.7356"/>
<polygon fill="midnightblue" stroke="midnightblue" points="280.866,-85.8459 278.51,-75.5162 273.91,-85.0601 280.866,-85.8459"/>
</g>
<!-- Node28&#45;&gt;Node24 -->
<g id="edge94" class="edge"><title>Node28&#45;&gt;Node24</title>
<path fill="none" stroke="midnightblue" d="M1382.62,-246.437C1363.79,-238.873 1345.02,-227.376 1333.96,-210 1310.58,-173.253 1305.69,-145.132 1333.96,-112 1365.23,-75.3547 1495.21,-84.3167 1559.17,-75.7621"/>
<polygon fill="midnightblue" stroke="midnightblue" points="1559.89,-79.1922 1569.21,-74.1597 1558.79,-72.2797 1559.89,-79.1922"/>
</g>
<!-- Node29 -->
<g id="node30" class="node"><title>Node29</title>
<g id="a_node30"><a xlink:href="interval_8h.html" target="_top" xlink:title="base/interval.h">
<polygon fill="white" stroke="black" points="1733.46,-118 1733.46,-137 1820.46,-137 1820.46,-118 1733.46,-118"/>
<text text-anchor="middle" x="1776.96" y="-125" font-family="Helvetica,sans-Serif" font-size="10.00">base/interval.h</text>
</a>
</g>
</g>
<!-- Node28&#45;&gt;Node29 -->
<g id="edge45" class="edge"><title>Node28&#45;&gt;Node29</title>
<path fill="none" stroke="midnightblue" d="M1477.49,-246.499C1543.35,-220.55 1683.32,-165.398 1745.76,-140.794"/>
<polygon fill="midnightblue" stroke="midnightblue" points="1747.07,-144.039 1755.09,-137.117 1744.51,-137.527 1747.07,-144.039"/>
</g>
<!-- Node33 -->
<g id="node34" class="node"><title>Node33</title>
<g id="a_node34"><a xlink:href="_wrap_t_file_8h.html" target="_top" xlink:title="base/WrapTFile.h">
<polygon fill="white" stroke="black" points="693.461,-185 693.461,-204 788.461,-204 788.461,-185 693.461,-185"/>
<text text-anchor="middle" x="740.961" y="-192" font-family="Helvetica,sans-Serif" font-size="10.00">base/WrapTFile.h</text>
</a>
</g>
</g>
<!-- Node28&#45;&gt;Node33 -->
<g id="edge53" class="edge"><title>Node28&#45;&gt;Node33</title>
<path fill="none" stroke="midnightblue" d="M1377.89,-254.559C1242.48,-242.003 928.976,-212.934 799.02,-200.883"/>
<polygon fill="midnightblue" stroke="midnightblue" points="799.153,-197.381 788.873,-199.943 798.507,-204.351 799.153,-197.381"/>
</g>
<!-- Node44 -->
<g id="node45" class="node"><title>Node44</title>
<g id="a_node45"><a xlink:href="_t_i_d_8h.html" target="_top" xlink:title="tree/TID.h">
<polygon fill="white" stroke="black" points="1427.46,-185 1427.46,-204 1490.46,-204 1490.46,-185 1427.46,-185"/>
<text text-anchor="middle" x="1458.96" y="-192" font-family="Helvetica,sans-Serif" font-size="10.00">tree/TID.h</text>
</a>
</g>
</g>
<!-- Node28&#45;&gt;Node44 -->
<g id="edge78" class="edge"><title>Node28&#45;&gt;Node44</title>
<path fill="none" stroke="midnightblue" d="M1445.65,-246.396C1448.12,-236.963 1451.39,-224.448 1454.07,-214.189"/>
<polygon fill="midnightblue" stroke="midnightblue" points="1457.54,-214.755 1456.69,-204.195 1450.77,-212.984 1457.54,-214.755"/>
</g>
<!-- Node29&#45;&gt;Node11 -->
<g id="edge52" class="edge"><title>Node29&#45;&gt;Node11</title>
<path fill="none" stroke="midnightblue" d="M1803.43,-117.933C1811.54,-115.631 1820.55,-113.396 1828.96,-112 2106.95,-65.8895 2184.03,-122.477 2461.96,-76 2494.3,-70.5928 2500.64,-61.4746 2532.96,-56 2671.12,-32.5994 3110.83,-16.3473 3236.26,-12.1009"/>
<polygon fill="midnightblue" stroke="midnightblue" points="3236.54,-15.5938 3246.41,-11.7604 3236.3,-8.59773 3236.54,-15.5938"/>
</g>
<!-- Node29&#45;&gt;Node14 -->
<g id="edge49" class="edge"><title>Node29&#45;&gt;Node14</title>
<path fill="none" stroke="midnightblue" d="M1807.19,-117.991C1814.32,-116.005 1821.91,-113.912 1828.96,-112 1877.83,-98.7568 1934.71,-83.8987 1968.99,-75.0039"/>
<polygon fill="midnightblue" stroke="midnightblue" points="1970.07,-78.3403 1978.87,-72.4433 1968.32,-71.5641 1970.07,-78.3403"/>
</g>
<!-- Node29&#45;&gt;Node17 -->
<g id="edge48" class="edge"><title>Node29&#45;&gt;Node17</title>
<path fill="none" stroke="midnightblue" d="M1743.26,-117.931C1735.3,-115.947 1726.84,-113.87 1718.96,-112 1689.4,-104.98 1610.31,-87.3075 1560.9,-76.3141"/>
<polygon fill="midnightblue" stroke="midnightblue" points="1561.66,-72.8974 1551.14,-74.1427 1560.14,-79.7304 1561.66,-72.8974"/>
</g>
<!-- Node29&#45;&gt;Node25 -->
<g id="edge47" class="edge"><title>Node29&#45;&gt;Node25</title>
<path fill="none" stroke="midnightblue" d="M1759.91,-117.924C1735.94,-104.759 1697.19,-78.7037 1715.96,-56 1740.11,-26.7938 1849.19,-16.3609 1909.89,-12.7768"/>
<polygon fill="midnightblue" stroke="midnightblue" points="1910.12,-16.2694 1919.91,-12.2212 1909.73,-9.28017 1910.12,-16.2694"/>
</g>
<!-- Node30 -->
<g id="node31" class="node"><title>Node30</title>
<g id="a_node31"><a xlink:href="types_8h.html" target="_top" xlink:title="types.h">
<polygon fill="white" stroke="black" points="1724.96,-56.5 1724.96,-75.5 1776.96,-75.5 1776.96,-56.5 1724.96,-56.5"/>
<text text-anchor="middle" x="1750.96" y="-63.5" font-family="Helvetica,sans-Serif" font-size="10.00">types.h</text>
</a>
</g>
</g>
<!-- Node29&#45;&gt;Node30 -->
<g id="edge46" class="edge"><title>Node29&#45;&gt;Node30</title>
<path fill="none" stroke="midnightblue" d="M1773.24,-117.975C1769.49,-109.404 1763.6,-95.9269 1758.82,-84.983"/>
<polygon fill="midnightblue" stroke="midnightblue" points="1761.89,-83.271 1754.68,-75.5091 1755.48,-86.0739 1761.89,-83.271"/>
</g>
<!-- Node31 -->
<g id="node32" class="node"><title>Node31</title>
<polygon fill="white" stroke="#bfbfbf" points="1795.46,-56.5 1795.46,-75.5 1848.46,-75.5 1848.46,-56.5 1795.46,-56.5"/>
<text text-anchor="middle" x="1821.96" y="-63.5" font-family="Helvetica,sans-Serif" font-size="10.00">istream</text>
</g>
<!-- Node29&#45;&gt;Node31 -->
<g id="edge50" class="edge"><title>Node29&#45;&gt;Node31</title>
<path fill="none" stroke="midnightblue" d="M1783.41,-117.975C1790.16,-109.05 1800.93,-94.8071 1809.37,-83.6425"/>
<polygon fill="midnightblue" stroke="midnightblue" points="1812.29,-85.5962 1815.53,-75.5091 1806.7,-81.3737 1812.29,-85.5962"/>
</g>
<!-- Node32 -->
<g id="node33" class="node"><title>Node32</title>
<polygon fill="white" stroke="#bfbfbf" points="358.961,-0.5 358.961,-19.5 414.961,-19.5 414.961,-0.5 358.961,-0.5"/>
<text text-anchor="middle" x="386.961" y="-7.5" font-family="Helvetica,sans-Serif" font-size="10.00">sstream</text>
</g>
<!-- Node29&#45;&gt;Node32 -->
<g id="edge51" class="edge"><title>Node29&#45;&gt;Node32</title>
<path fill="none" stroke="midnightblue" d="M1733.1,-118.559C1717.91,-116.082 1700.73,-113.585 1684.96,-112 1323.76,-75.6842 1230.54,-108.291 868.961,-76 703.153,-61.1927 506.866,-30.6423 425.38,-17.3785"/>
<polygon fill="midnightblue" stroke="midnightblue" points="425.546,-13.8591 415.112,-15.6994 424.416,-20.7674 425.546,-13.8591"/>
</g>
<!-- Node33&#45;&gt;Node2 -->
<g id="edge73" class="edge"><title>Node33&#45;&gt;Node2</title>
<path fill="none" stroke="midnightblue" d="M693.274,-191.833C622.35,-188.237 494.351,-177.078 465.961,-143 415.621,-82.5737 554.881,-36.6848 620.671,-18.971"/>
<polygon fill="midnightblue" stroke="midnightblue" points="621.777,-22.2992 630.559,-16.372 619.998,-15.5292 621.777,-22.2992"/>
</g>
<!-- Node33&#45;&gt;Node3 -->
<g id="edge72" class="edge"><title>Node33&#45;&gt;Node3</title>
<path fill="none" stroke="midnightblue" d="M788.778,-191.946C1007.17,-184.797 1901.69,-154.898 1959.96,-143 1998.14,-135.205 2004.54,-122.861 2041.96,-112 2103.81,-94.0483 2177.51,-80.4 2221.43,-73.0592"/>
<polygon fill="midnightblue" stroke="midnightblue" points="2222.09,-76.4962 2231.39,-71.4163 2220.96,-69.5894 2222.09,-76.4962"/>
</g>
<!-- Node33&#45;&gt;Node17 -->
<g id="edge76" class="edge"><title>Node33&#45;&gt;Node17</title>
<path fill="none" stroke="midnightblue" d="M788.747,-191.866C869.714,-188.236 1038.56,-176.929 1176.96,-143 1214.4,-133.822 1220.79,-122.212 1257.96,-112 1333.66,-91.2015 1424.48,-78.1293 1476.58,-71.7288"/>
<polygon fill="midnightblue" stroke="midnightblue" points="1477.27,-75.1711 1486.78,-70.5006 1476.43,-68.2214 1477.27,-75.1711"/>
</g>
<!-- Node33&#45;&gt;Node22 -->
<g id="edge74" class="edge"><title>Node33&#45;&gt;Node22</title>
<path fill="none" stroke="midnightblue" d="M693.206,-193.136C627.318,-191.11 505.913,-181.836 410.961,-143 389.155,-134.081 388.063,-124.288 367.961,-112 347.084,-99.2386 322.162,-86.732 304.178,-78.1557"/>
<polygon fill="midnightblue" stroke="midnightblue" points="305.509,-74.9137 294.971,-73.8188 302.526,-81.2464 305.509,-74.9137"/>
</g>
<!-- Node33&#45;&gt;Node24 -->
<g id="edge77" class="edge"><title>Node33&#45;&gt;Node24</title>
<path fill="none" stroke="midnightblue" d="M788.699,-194.038C877.666,-193.855 1074.11,-187.842 1231.96,-143 1262.36,-134.363 1265.71,-121.138 1295.96,-112 1406.22,-78.6998 1441.45,-95.7153 1559.11,-75.9837"/>
<polygon fill="midnightblue" stroke="midnightblue" points="1559.97,-79.3858 1569.23,-74.2305 1558.78,-72.4885 1559.97,-79.3858"/>
</g>
<!-- Node34 -->
<g id="node35" class="node"><title>Node34</title>
<g id="a_node35"><a xlink:href="string_8h.html" target="_top" xlink:title="base/std_ext/string.h">
<polygon fill="white" stroke="black" points="878.461,-56.5 878.461,-75.5 995.461,-75.5 995.461,-56.5 878.461,-56.5"/>
<text text-anchor="middle" x="936.961" y="-63.5" font-family="Helvetica,sans-Serif" font-size="10.00">base/std_ext/string.h</text>
</a>
</g>
</g>
<!-- Node33&#45;&gt;Node34 -->
<g id="edge54" class="edge"><title>Node33&#45;&gt;Node34</title>
<path fill="none" stroke="midnightblue" d="M693.34,-193.426C602.825,-191.752 420.245,-180.121 481.961,-112 507.369,-83.9557 747.387,-72.7225 868.195,-68.8162"/>
<polygon fill="midnightblue" stroke="midnightblue" points="868.562,-72.3065 878.446,-68.4931 868.341,-65.31 868.562,-72.3065"/>
</g>
<!-- Node35 -->
<g id="node36" class="node"><title>Node35</title>
<g id="a_node36"><a xlink:href="misc_8h.html" target="_top" xlink:title="base/std_ext/misc.h">
<polygon fill="white" stroke="black" points="1838.46,-118 1838.46,-137 1951.46,-137 1951.46,-118 1838.46,-118"/>
<text text-anchor="middle" x="1894.96" y="-125" font-family="Helvetica,sans-Serif" font-size="10.00">base/std_ext/misc.h</text>
</a>
</g>
</g>
<!-- Node33&#45;&gt;Node35 -->
<g id="edge59" class="edge"><title>Node33&#45;&gt;Node35</title>
<path fill="none" stroke="midnightblue" d="M788.771,-192.363C971.169,-187.855 1623.34,-170.159 1828.96,-143 1836.24,-142.039 1843.9,-140.682 1851.32,-139.179"/>
<polygon fill="midnightblue" stroke="midnightblue" points="1852.19,-142.573 1861.24,-137.064 1850.73,-135.727 1852.19,-142.573"/>
</g>
<!-- Node37 -->
<g id="node38" class="node"><title>Node37</title>
<polygon fill="white" stroke="#bfbfbf" points="490.961,-118 490.961,-137 536.961,-137 536.961,-118 490.961,-118"/>
<text text-anchor="middle" x="513.961" y="-125" font-family="Helvetica,sans-Serif" font-size="10.00">TFile.h</text>
</g>
<!-- Node33&#45;&gt;Node37 -->
<g id="edge66" class="edge"><title>Node33&#45;&gt;Node37</title>
<path fill="none" stroke="midnightblue" d="M699.637,-184.969C659.738,-176.227 597.898,-161.339 545.961,-143 544.301,-142.414 542.607,-141.775 540.91,-141.104"/>
<polygon fill="midnightblue" stroke="midnightblue" points="541.916,-137.728 531.344,-137.031 539.174,-144.168 541.916,-137.728"/>
</g>
<!-- Node38 -->
<g id="node39" class="node"><title>Node38</title>
<polygon fill="white" stroke="#bfbfbf" points="555.461,-118 555.461,-137 628.461,-137 628.461,-118 555.461,-118"/>
<text text-anchor="middle" x="591.961" y="-125" font-family="Helvetica,sans-Serif" font-size="10.00">TDirectory.h</text>
</g>
<!-- Node33&#45;&gt;Node38 -->
<g id="edge67" class="edge"><title>Node33&#45;&gt;Node38</title>
<path fill="none" stroke="midnightblue" d="M721.175,-184.869C695.571,-173.699 650.752,-154.147 621.211,-141.26"/>
<polygon fill="midnightblue" stroke="midnightblue" points="622.394,-137.958 611.829,-137.167 619.595,-144.374 622.394,-137.958"/>
</g>
<!-- Node39 -->
<g id="node40" class="node"><title>Node39</title>
<polygon fill="white" stroke="#bfbfbf" points="646.461,-118 646.461,-137 699.461,-137 699.461,-118 646.461,-118"/>
<text text-anchor="middle" x="672.961" y="-125" font-family="Helvetica,sans-Serif" font-size="10.00">TError.h</text>
</g>
<!-- Node33&#45;&gt;Node39 -->
<g id="edge68" class="edge"><title>Node33&#45;&gt;Node39</title>
<path fill="none" stroke="midnightblue" d="M731.79,-184.734C720.983,-174.403 702.815,-157.037 689.523,-144.332"/>
<polygon fill="midnightblue" stroke="midnightblue" points="691.634,-141.507 681.987,-137.127 686.797,-146.567 691.634,-141.507"/>
</g>
<!-- Node40 -->
<g id="node41" class="node"><title>Node40</title>
<polygon fill="white" stroke="#bfbfbf" points="717.461,-118 717.461,-137 764.461,-137 764.461,-118 717.461,-118"/>
<text text-anchor="middle" x="740.961" y="-125" font-family="Helvetica,sans-Serif" font-size="10.00">TList.h</text>
</g>
<!-- Node33&#45;&gt;Node40 -->
<g id="edge69" class="edge"><title>Node33&#45;&gt;Node40</title>
<path fill="none" stroke="midnightblue" d="M740.961,-184.734C740.961,-175.183 740.961,-159.618 740.961,-147.283"/>
<polygon fill="midnightblue" stroke="midnightblue" points="744.461,-147.127 740.961,-137.127 737.461,-147.127 744.461,-147.127"/>
</g>
<!-- Node41 -->
<g id="node42" class="node"><title>Node41</title>
<polygon fill="white" stroke="#bfbfbf" points="782.461,-118 782.461,-137 859.461,-137 859.461,-118 782.461,-118"/>
<text text-anchor="middle" x="820.961" y="-125" font-family="Helvetica,sans-Serif" font-size="10.00">TCollection.h</text>
</g>
<!-- Node33&#45;&gt;Node41 -->
<g id="edge70" class="edge"><title>Node33&#45;&gt;Node41</title>
<path fill="none" stroke="midnightblue" d="M751.75,-184.734C764.705,-174.208 786.648,-156.379 802.355,-143.617"/>
<polygon fill="midnightblue" stroke="midnightblue" points="804.789,-146.15 810.343,-137.127 800.375,-140.717 804.789,-146.15"/>
</g>
<!-- Node42 -->
<g id="node43" class="node"><title>Node42</title>
<polygon fill="white" stroke="#bfbfbf" points="877.961,-118 877.961,-137 923.961,-137 923.961,-118 877.961,-118"/>
<text text-anchor="middle" x="900.961" y="-125" font-family="Helvetica,sans-Serif" font-size="10.00">TKey.h</text>
</g>
<!-- Node33&#45;&gt;Node42 -->
<g id="edge71" class="edge"><title>Node33&#45;&gt;Node42</title>
<path fill="none" stroke="midnightblue" d="M763.083,-184.978C788.499,-175.124 831.406,-158.293 867.961,-143 869.368,-142.411 870.807,-141.803 872.258,-141.185"/>
<polygon fill="midnightblue" stroke="midnightblue" points="874.028,-144.233 881.816,-137.05 871.248,-137.808 874.028,-144.233"/>
</g>
<!-- Node43 -->
<g id="node44" class="node"><title>Node43</title>
<polygon fill="white" stroke="#bfbfbf" points="326.961,-118 326.961,-137 358.961,-137 358.961,-118 326.961,-118"/>
<text text-anchor="middle" x="342.961" y="-125" font-family="Helvetica,sans-Serif" font-size="10.00">set</text>
</g>
<!-- Node33&#45;&gt;Node43 -->
<g id="edge75" class="edge"><title>Node33&#45;&gt;Node43</title>
<path fill="none" stroke="midnightblue" d="M693.188,-191.71C622.013,-187.987 484.545,-176.7 372.961,-143 371.286,-142.494 369.588,-141.905 367.896,-141.26"/>
<polygon fill="midnightblue" stroke="midnightblue" points="369.032,-137.937 358.467,-137.136 366.227,-144.35 369.032,-137.937"/>
</g>
<!-- Node34&#45;&gt;Node2 -->
<g id="edge55" class="edge"><title>Node34&#45;&gt;Node2</title>
<path fill="none" stroke="midnightblue" d="M891.961,-56.4435C834.282,-45.4766 735.706,-26.7331 685.066,-17.1045"/>
<polygon fill="midnightblue" stroke="midnightblue" points="685.498,-13.6239 675.02,-15.1943 684.19,-20.5007 685.498,-13.6239"/>
</g>
<!-- Node34&#45;&gt;Node15 -->
<g id="edge58" class="edge"><title>Node34&#45;&gt;Node15</title>
<path fill="none" stroke="midnightblue" d="M995.588,-60.7476C1020.91,-59.043 1050.88,-57.2018 1077.96,-56 1260.79,-47.8855 2613.97,-17.03 2846.11,-11.766"/>
<polygon fill="midnightblue" stroke="midnightblue" points="2846.39,-15.2606 2856.31,-11.5348 2846.24,-8.26241 2846.39,-15.2606"/>
</g>
<!-- Node34&#45;&gt;Node25 -->
<g id="edge57" class="edge"><title>Node34&#45;&gt;Node25</title>
<path fill="none" stroke="midnightblue" d="M995.492,-57.3927C1000.38,-56.8761 1005.25,-56.4022 1009.96,-56 1357.04,-26.3478 1777.93,-14.8874 1909.58,-11.8731"/>
<polygon fill="midnightblue" stroke="midnightblue" points="1909.71,-15.3711 1919.63,-11.6466 1909.56,-8.37283 1909.71,-15.3711"/>
</g>
<!-- Node34&#45;&gt;Node32 -->
<g id="edge56" class="edge"><title>Node34&#45;&gt;Node32</title>
<path fill="none" stroke="midnightblue" d="M878.362,-59.2466C765.243,-48.1404 519.623,-24.025 425.098,-14.7444"/>
<polygon fill="midnightblue" stroke="midnightblue" points="425.414,-11.2586 415.12,-13.7647 424.73,-18.2251 425.414,-11.2586"/>
</g>
<!-- Node35&#45;&gt;Node3 -->
<g id="edge65" class="edge"><title>Node35&#45;&gt;Node3</title>
<path fill="none" stroke="midnightblue" d="M1947.26,-117.975C2021.35,-105.896 2155.2,-84.0779 2221.12,-73.3311"/>
<polygon fill="midnightblue" stroke="midnightblue" points="2221.79,-76.768 2231.1,-71.7046 2220.67,-69.8592 2221.79,-76.768"/>
</g>
<!-- Node35&#45;&gt;Node11 -->
<g id="edge62" class="edge"><title>Node35&#45;&gt;Node11</title>
<path fill="none" stroke="midnightblue" d="M1951.71,-121.9C1987.14,-119.035 2033.71,-115.283 2074.96,-112 2278.5,-95.8025 2329.73,-95.6611 2532.96,-76 2610.44,-68.5044 2629.49,-63.5466 2706.96,-56 2907.45,-36.4714 3148.71,-19.307 3236.21,-13.2879"/>
<polygon fill="midnightblue" stroke="midnightblue" points="3236.6,-16.7692 3246.34,-12.5936 3236.12,-9.78563 3236.6,-16.7692"/>
</g>
<!-- Node35&#45;&gt;Node18 -->
<g id="edge64" class="edge"><title>Node35&#45;&gt;Node18</title>
<path fill="none" stroke="midnightblue" d="M1951.68,-121.507C1987.1,-118.494 2033.67,-114.724 2074.96,-112 2382.47,-91.7112 2464.27,-115.508 2773.62,-75.9645"/>
<polygon fill="midnightblue" stroke="midnightblue" points="2774.31,-79.4048 2783.78,-74.6538 2773.41,-72.4623 2774.31,-79.4048"/>
</g>
<!-- Node35&#45;&gt;Node24 -->
<g id="edge61" class="edge"><title>Node35&#45;&gt;Node24</title>
<path fill="none" stroke="midnightblue" d="M1856.6,-117.927C1847.55,-115.944 1837.92,-113.868 1828.96,-112 1763.97,-98.448 1688.32,-83.7251 1642.57,-74.936"/>
<polygon fill="midnightblue" stroke="midnightblue" points="1643.21,-71.4933 1632.73,-73.0467 1641.89,-78.368 1643.21,-71.4933"/>
</g>
<!-- Node35&#45;&gt;Node25 -->
<g id="edge60" class="edge"><title>Node35&#45;&gt;Node25</title>
<path fill="none" stroke="midnightblue" d="M1902.81,-117.815C1911.11,-108.214 1924.07,-91.9849 1931.96,-76 1939.28,-61.1733 1944.29,-43.022 1947.32,-29.6726"/>
<polygon fill="midnightblue" stroke="midnightblue" points="1950.77,-30.2738 1949.41,-19.7669 1943.92,-28.8301 1950.77,-30.2738"/>
</g>
<!-- Node36 -->
<g id="node37" class="node"><title>Node36</title>
<polygon fill="white" stroke="#bfbfbf" points="1866.96,-56.5 1866.96,-75.5 1922.96,-75.5 1922.96,-56.5 1866.96,-56.5"/>
<text text-anchor="middle" x="1894.96" y="-63.5" font-family="Helvetica,sans-Serif" font-size="10.00">cxxabi.h</text>
</g>
<!-- Node35&#45;&gt;Node36 -->
<g id="edge63" class="edge"><title>Node35&#45;&gt;Node36</title>
<path fill="none" stroke="midnightblue" d="M1894.96,-117.975C1894.96,-109.58 1894.96,-96.4806 1894.96,-85.6631"/>
<polygon fill="midnightblue" stroke="midnightblue" points="1898.46,-85.5091 1894.96,-75.5091 1891.46,-85.5091 1898.46,-85.5091"/>
</g>
<!-- Node44&#45;&gt;Node16 -->
<g id="edge86" class="edge"><title>Node44&#45;&gt;Node16</title>
<path fill="none" stroke="midnightblue" d="M1490.53,-193.343C1646.39,-192.37 2334.71,-185.686 2543.96,-143 2547.22,-142.336 2550.56,-141.442 2553.86,-140.423"/>
<polygon fill="midnightblue" stroke="midnightblue" points="2555.17,-143.674 2563.47,-137.092 2552.87,-137.06 2555.17,-143.674"/>
</g>
<!-- Node44&#45;&gt;Node17 -->
<g id="edge87" class="edge"><title>Node44&#45;&gt;Node17</title>
<path fill="none" stroke="midnightblue" d="M1467.57,-184.978C1476.65,-175.517 1490.76,-159.406 1498.96,-143 1508.09,-124.735 1513.38,-101.849 1516.2,-85.9886"/>
<polygon fill="midnightblue" stroke="midnightblue" points="1519.7,-86.278 1517.84,-75.8482 1512.79,-85.1632 1519.7,-86.278"/>
</g>
<!-- Node44&#45;&gt;Node18 -->
<g id="edge84" class="edge"><title>Node44&#45;&gt;Node18</title>
<path fill="none" stroke="midnightblue" d="M1490.46,-192.411C1600.07,-188.444 1974.88,-173.376 2282.96,-143 2389.77,-132.469 2651.39,-96.785 2773.75,-76.1001"/>
<polygon fill="midnightblue" stroke="midnightblue" points="2774.47,-79.5285 2783.74,-74.3921 2773.29,-72.6288 2774.47,-79.5285"/>
</g>
<!-- Node44&#45;&gt;Node22 -->
<g id="edge88" class="edge"><title>Node44&#45;&gt;Node22</title>
<path fill="none" stroke="midnightblue" d="M1427.45,-190.966C1339.55,-183.73 1092.9,-162.255 1013.96,-143 976.513,-133.865 970.621,-120.218 932.961,-112 689.293,-58.8252 621.559,-96.0144 372.961,-76 349.984,-74.1501 323.858,-71.5806 305.16,-69.6606"/>
<polygon fill="midnightblue" stroke="midnightblue" points="305.398,-66.1665 295.09,-68.6154 304.675,-73.1291 305.398,-66.1665"/>
</g>
<!-- Node45 -->
<g id="node46" class="node"><title>Node45</title>
<polygon fill="white" stroke="#bfbfbf" points="2083.96,-118 2083.96,-137 2141.96,-137 2141.96,-118 2083.96,-118"/>
<text text-anchor="middle" x="2112.96" y="-125" font-family="Helvetica,sans-Serif" font-size="10.00">Rtypes.h</text>
</g>
<!-- Node44&#45;&gt;Node45 -->
<g id="edge79" class="edge"><title>Node44&#45;&gt;Node45</title>
<path fill="none" stroke="midnightblue" d="M1490.75,-191.697C1577.68,-186.552 1826.56,-170.381 2031.96,-143 2045.59,-141.183 2060.43,-138.682 2073.63,-136.269"/>
<polygon fill="midnightblue" stroke="midnightblue" points="2074.63,-139.643 2083.82,-134.366 2073.34,-132.762 2074.63,-139.643"/>
</g>
<!-- Node46 -->
<g id="node47" class="node"><title>Node46</title>
<g id="a_node47"><a xlink:href="base_2std__ext_2_time_8h.html" target="_top" xlink:title="base/std_ext/time.h">
<polygon fill="white" stroke="black" points="1055.96,-118 1055.96,-137 1167.96,-137 1167.96,-118 1055.96,-118"/>
<text text-anchor="middle" x="1111.96" y="-125" font-family="Helvetica,sans-Serif" font-size="10.00">base/std_ext/time.h</text>
</a>
</g>
</g>
<!-- Node44&#45;&gt;Node46 -->
<g id="edge80" class="edge"><title>Node44&#45;&gt;Node46</title>
<path fill="none" stroke="midnightblue" d="M1427.34,-187.989C1375.86,-178.959 1270.73,-160.283 1181.96,-143 1175.65,-141.77 1169.02,-140.444 1162.46,-139.111"/>
<polygon fill="midnightblue" stroke="midnightblue" points="1162.77,-135.602 1152.28,-137.023 1161.37,-142.46 1162.77,-135.602"/>
</g>
<!-- Node48 -->
<g id="node49" class="node"><title>Node48</title>
<polygon fill="white" stroke="#bfbfbf" points="1164.96,-56.5 1164.96,-75.5 1208.96,-75.5 1208.96,-56.5 1164.96,-56.5"/>
<text text-anchor="middle" x="1186.96" y="-63.5" font-family="Helvetica,sans-Serif" font-size="10.00">ctime</text>
</g>
<!-- Node44&#45;&gt;Node48 -->
<g id="edge90" class="edge"><title>Node44&#45;&gt;Node48</title>
<path fill="none" stroke="midnightblue" d="M1440.27,-184.805C1393.28,-162.952 1270.05,-105.641 1214.64,-79.8741"/>
<polygon fill="midnightblue" stroke="midnightblue" points="1215.97,-76.6319 1205.43,-75.5884 1213.02,-82.9791 1215.97,-76.6319"/>
</g>
<!-- Node49 -->
<g id="node50" class="node"><title>Node49</title>
<polygon fill="white" stroke="#bfbfbf" points="1376.46,-118 1376.46,-137 1417.46,-137 1417.46,-118 1376.46,-118"/>
<text text-anchor="middle" x="1396.96" y="-125" font-family="Helvetica,sans-Serif" font-size="10.00">tuple</text>
</g>
<!-- Node44&#45;&gt;Node49 -->
<g id="edge85" class="edge"><title>Node44&#45;&gt;Node49</title>
<path fill="none" stroke="midnightblue" d="M1450.6,-184.734C1440.84,-174.5 1424.49,-157.364 1412.41,-144.692"/>
<polygon fill="midnightblue" stroke="midnightblue" points="1414.63,-141.948 1405.19,-137.127 1409.56,-146.779 1414.63,-141.948"/>
</g>
<!-- Node50 -->
<g id="node51" class="node"><title>Node50</title>
<polygon fill="white" stroke="#bfbfbf" points="1435.46,-118 1435.46,-137 1490.46,-137 1490.46,-118 1435.46,-118"/>
<text text-anchor="middle" x="1462.96" y="-125" font-family="Helvetica,sans-Serif" font-size="10.00">iomanip</text>
</g>
<!-- Node44&#45;&gt;Node50 -->
<g id="edge89" class="edge"><title>Node44&#45;&gt;Node50</title>
<path fill="none" stroke="midnightblue" d="M1459.5,-184.734C1460.09,-175.183 1461.05,-159.618 1461.81,-147.283"/>
<polygon fill="midnightblue" stroke="midnightblue" points="1465.31,-147.323 1462.43,-137.127 1458.32,-146.893 1465.31,-147.323"/>
</g>
<!-- Node46&#45;&gt;Node34 -->
<g id="edge81" class="edge"><title>Node46&#45;&gt;Node34</title>
<path fill="none" stroke="midnightblue" d="M1086.89,-117.975C1056.61,-107.68 1005.52,-90.3103 971.521,-78.7502"/>
<polygon fill="midnightblue" stroke="midnightblue" points="972.582,-75.4145 961.988,-75.5091 970.329,-82.0419 972.582,-75.4145"/>
</g>
<!-- Node47 -->
<g id="node48" class="node"><title>Node47</title>
<polygon fill="white" stroke="#bfbfbf" points="1087.46,-56.5 1087.46,-75.5 1136.46,-75.5 1136.46,-56.5 1087.46,-56.5"/>
<text text-anchor="middle" x="1111.96" y="-63.5" font-family="Helvetica,sans-Serif" font-size="10.00">cstring</text>
</g>
<!-- Node46&#45;&gt;Node47 -->
<g id="edge82" class="edge"><title>Node46&#45;&gt;Node47</title>
<path fill="none" stroke="midnightblue" d="M1111.96,-117.975C1111.96,-109.58 1111.96,-96.4806 1111.96,-85.6631"/>
<polygon fill="midnightblue" stroke="midnightblue" points="1115.46,-85.5091 1111.96,-75.5091 1108.46,-85.5091 1115.46,-85.5091"/>
</g>
<!-- Node46&#45;&gt;Node48 -->
<g id="edge83" class="edge"><title>Node46&#45;&gt;Node48</title>
<path fill="none" stroke="midnightblue" d="M1122.71,-117.975C1134.51,-108.608 1153.7,-93.3839 1168.04,-82.0081"/>
<polygon fill="midnightblue" stroke="midnightblue" points="1170.58,-84.4661 1176.24,-75.5091 1166.23,-78.9822 1170.58,-84.4661"/>
</g>
<!-- Node51&#45;&gt;Node2 -->
<g id="edge96" class="edge"><title>Node51&#45;&gt;Node2</title>
<path fill="none" stroke="midnightblue" d="M298.738,-251.926C246.643,-238.864 162.425,-208.253 132.961,-143 117.049,-107.759 106.825,-84.4957 132.961,-56 149.522,-37.9447 509.313,-18.2753 620.514,-12.6085"/>
<polygon fill="midnightblue" stroke="midnightblue" points="620.963,-16.0904 630.774,-12.0896 620.61,-9.09929 620.963,-16.0904"/>
</g>
<!-- Node51&#45;&gt;Node3 -->
<g id="edge97" class="edge"><title>Node51&#45;&gt;Node3</title>
<path fill="none" stroke="midnightblue" d="M394.615,-260.061C643.371,-257.493 1701.8,-240.905 2014.96,-143 2043.61,-134.044 2046.85,-122.511 2074.96,-112 2124.06,-93.6438 2183.33,-80.761 2221.32,-73.6147"/>
<polygon fill="midnightblue" stroke="midnightblue" points="2222.24,-77.0035 2231.44,-71.7514 2220.97,-70.1191 2222.24,-77.0035"/>
</g>
<!-- Node51&#45;&gt;Node26 -->
<g id="edge98" class="edge"><title>Node51&#45;&gt;Node26</title>
<path fill="none" stroke="midnightblue" d="M376.555,-251.949C386.918,-249.677 398.349,-247.453 408.961,-246 573.735,-223.435 1103.79,-201.702 1233.91,-196.615"/>
<polygon fill="midnightblue" stroke="midnightblue" points="1234.06,-200.112 1243.92,-196.226 1233.79,-193.117 1234.06,-200.112"/>
</g>
<!-- Node51&#45;&gt;Node32 -->
<g id="edge100" class="edge"><title>Node51&#45;&gt;Node32</title>
<path fill="none" stroke="midnightblue" d="M299.827,-251.945C193.354,-228.579 -71.7698,-158.502 18.9612,-56 40.608,-31.545 259.246,-17.5813 348.909,-12.8451"/>
<polygon fill="midnightblue" stroke="midnightblue" points="349.127,-16.3386 358.932,-12.3259 348.765,-9.34799 349.127,-16.3386"/>
</g>
<!-- Node51&#45;&gt;Node43 -->
<g id="edge99" class="edge"><title>Node51&#45;&gt;Node43</title>
<path fill="none" stroke="midnightblue" d="M342.027,-251.839C342.187,-230.674 342.602,-175.948 342.821,-147.033"/>
<polygon fill="midnightblue" stroke="midnightblue" points="346.321,-147.047 342.897,-137.021 339.321,-146.994 346.321,-147.047"/>
</g>
<!-- Node52&#45;&gt;Node15 -->
<g id="edge112" class="edge"><title>Node52&#45;&gt;Node15</title>
<path fill="none" stroke="midnightblue" d="M2922.17,-184.96C2965.28,-176.357 3023.16,-161.693 3036.96,-143 3077.27,-88.4106 2970.58,-41.9512 2913.4,-21.7656"/>
<polygon fill="midnightblue" stroke="midnightblue" points="2914.27,-18.3645 2903.67,-18.4178 2911.99,-24.9831 2914.27,-18.3645"/>
</g>
<!-- Node52&#45;&gt;Node29 -->
<g id="edge103" class="edge"><title>Node52&#45;&gt;Node29</title>
<path fill="none" stroke="midnightblue" d="M2832.94,-184.997C2820.5,-182.667 2806.71,-180.401 2793.96,-179 2367.34,-132.138 2253.03,-209.094 1828.96,-143 1823.71,-142.182 1818.24,-141.016 1812.9,-139.695"/>
<polygon fill="midnightblue" stroke="midnightblue" points="1813.45,-136.219 1802.89,-137.017 1811.64,-142.982 1813.45,-136.219"/>
</g>
<!-- Node53 -->
<g id="node54" class="node"><title>Node53</title>
<g id="a_node54"><a xlink:href="printable_8h.html" target="_top" xlink:title="base/std_ext/printable.h">
<polygon fill="white" stroke="black" points="2895.96,-118 2895.96,-137 3027.96,-137 3027.96,-118 2895.96,-118"/>
<text text-anchor="middle" x="2961.96" y="-125" font-family="Helvetica,sans-Serif" font-size="10.00">base/std_ext/printable.h</text>
</a>
</g>
</g>
<!-- Node52&#45;&gt;Node53 -->
<g id="edge104" class="edge"><title>Node52&#45;&gt;Node53</title>
<path fill="none" stroke="midnightblue" d="M2884.96,-184.734C2899.51,-174.111 2924.24,-156.049 2941.75,-143.264"/>
<polygon fill="midnightblue" stroke="midnightblue" points="2944.14,-145.852 2950.15,-137.127 2940.01,-140.199 2944.14,-145.852"/>
</g>
<!-- Node53&#45;&gt;Node12 -->
<g id="edge111" class="edge"><title>Node53&#45;&gt;Node12</title>
<path fill="none" stroke="midnightblue" d="M2987.03,-117.975C3017.31,-107.68 3068.4,-90.3103 3102.4,-78.7502"/>
<polygon fill="midnightblue" stroke="midnightblue" points="3103.59,-82.0419 3111.93,-75.5091 3101.34,-75.4145 3103.59,-82.0419"/>
</g>
<!-- Node53&#45;&gt;Node18 -->
<g id="edge110" class="edge"><title>Node53&#45;&gt;Node18</title>
<path fill="none" stroke="midnightblue" d="M2941.33,-117.975C2916.84,-107.857 2875.81,-90.9046 2847.85,-79.3507"/>
<polygon fill="midnightblue" stroke="midnightblue" points="2849.13,-76.0932 2838.55,-75.5091 2846.46,-82.5627 2849.13,-76.0932"/>
</g>
<!-- Node54 -->
<g id="node55" class="node"><title>Node54</title>
<g id="a_node55"><a xlink:href="container_8h.html" target="_top" xlink:title="container.h">
<polygon fill="white" stroke="black" points="2382.96,-56.5 2382.96,-75.5 2452.96,-75.5 2452.96,-56.5 2382.96,-56.5"/>
<text text-anchor="middle" x="2417.96" y="-63.5" font-family="Helvetica,sans-Serif" font-size="10.00">container.h</text>
</a>
</g>
</g>
<!-- Node53&#45;&gt;Node54 -->
<g id="edge105" class="edge"><title>Node53&#45;&gt;Node54</title>
<path fill="none" stroke="midnightblue" d="M2895.8,-119.264C2783.65,-106.997 2559.07,-82.4335 2463.11,-71.9385"/>
<polygon fill="midnightblue" stroke="midnightblue" points="2463.47,-68.4567 2453.15,-70.8486 2462.71,-75.4152 2463.47,-68.4567"/>
</g>
<!-- Node54&#45;&gt;Node2 -->
<g id="edge109" class="edge"><title>Node54&#45;&gt;Node2</title>
<path fill="none" stroke="midnightblue" d="M2382.88,-60.755C2367.04,-58.9977 2348.08,-57.1136 2330.96,-56 1668.31,-12.9028 855.884,-10.8747 685.302,-10.9495"/>
<polygon fill="midnightblue" stroke="midnightblue" points="685.218,-7.44942 675.22,-10.9568 685.223,-14.4494 685.218,-7.44942"/>
</g>
<!-- Node54&#45;&gt;Node15 -->
<g id="edge106" class="edge"><title>Node54&#45;&gt;Node15</title>
<path fill="none" stroke="midnightblue" d="M2452.97,-58.2478C2457.67,-57.4369 2462.43,-56.6628 2466.96,-56 2607.14,-35.5176 2775.34,-19.9751 2846.04,-13.8497"/>
<polygon fill="midnightblue" stroke="midnightblue" points="2846.48,-17.3251 2856.14,-12.9814 2845.88,-10.3508 2846.48,-17.3251"/>
</g>
<!-- Node54&#45;&gt;Node25 -->
<g id="edge107" class="edge"><title>Node54&#45;&gt;Node25</title>
<path fill="none" stroke="midnightblue" d="M2382.95,-58.2423C2378.26,-57.4322 2373.5,-56.6599 2368.96,-56 2231.34,-35.9815 2067.02,-20.8336 1991.98,-14.3956"/>
<polygon fill="midnightblue" stroke="midnightblue" points="1992.26,-10.9067 1982,-13.5454 1991.67,-17.8814 1992.26,-10.9067"/>
</g>
<!-- Node55 -->
<g id="node56" class="node"><title>Node55</title>
<polygon fill="white" stroke="#bfbfbf" points="2389.96,-0.5 2389.96,-19.5 2445.96,-19.5 2445.96,-0.5 2389.96,-0.5"/>
<text text-anchor="middle" x="2417.96" y="-7.5" font-family="Helvetica,sans-Serif" font-size="10.00">numeric</text>
</g>
<!-- Node54&#45;&gt;Node55 -->
<g id="edge108" class="edge"><title>Node54&#45;&gt;Node55</title>
<path fill="none" stroke="midnightblue" d="M2417.96,-56.083C2417.96,-49.0059 2417.96,-38.8611 2417.96,-29.9865"/>
<polygon fill="midnightblue" stroke="midnightblue" points="2421.46,-29.751 2417.96,-19.7511 2414.46,-29.7511 2421.46,-29.751"/>
</g>
<!-- Node56&#45;&gt;Node1 -->
<g id="edge124" class="edge"><title>Node56&#45;&gt;Node1</title>
<path fill="none" stroke="midnightblue" d="M2481.37,-429.281C2459.96,-427.664 2435.35,-426.01 2412.96,-425 1539.93,-385.606 1319.31,-441.503 446.961,-389 433.279,-388.177 418.442,-386.833 404.917,-385.433"/>
<polygon fill="midnightblue" stroke="midnightblue" points="405.186,-381.942 394.871,-384.358 404.442,-388.902 405.186,-381.942"/>
</g>
<!-- Node56&#45;&gt;Node3 -->
<g id="edge134" class="edge"><title>Node56&#45;&gt;Node3</title>
<path fill="none" stroke="midnightblue" d="M2555.95,-425.49C2570.06,-417.882 2589.08,-405.405 2599.96,-389 2634.04,-337.613 2657.07,-157.95 2615.96,-112 2569.78,-60.3846 2380.37,-87.1126 2298.58,-76.6718"/>
<polygon fill="midnightblue" stroke="midnightblue" points="2299.12,-73.2135 2288.7,-75.1191 2298.03,-80.1287 2299.12,-73.2135"/>
</g>
<!-- Node56&#45;&gt;Node5 -->
<g id="edge125" class="edge"><title>Node56&#45;&gt;Node5</title>
<path fill="none" stroke="midnightblue" d="M2504.53,-425.444C2468.11,-416.122 2409.73,-401.183 2369.93,-390.997"/>
<polygon fill="midnightblue" stroke="midnightblue" points="2370.79,-387.605 2360.24,-388.516 2369.06,-394.387 2370.79,-387.605"/>
</g>
<!-- Node56&#45;&gt;Node6 -->
<g id="edge126" class="edge"><title>Node56&#45;&gt;Node6</title>
<path fill="none" stroke="midnightblue" d="M2594.47,-426.184C2597.68,-425.774 2600.86,-425.377 2603.96,-425 2678.73,-415.911 2878.05,-430.407 2940.96,-389 3004.84,-346.953 3035.17,-253.899 3045.59,-214.121"/>
<polygon fill="midnightblue" stroke="midnightblue" points="3048.99,-214.951 3048.01,-204.402 3042.19,-213.259 3048.99,-214.951"/>
</g>
<!-- Node56&#45;&gt;Node15 -->
<g id="edge137" class="edge"><title>Node56&#45;&gt;Node15</title>
<path fill="none" stroke="midnightblue" d="M2594.82,-426.015C2597.91,-425.654 2600.97,-425.312 2603.96,-425 2709.54,-413.981 3553.96,-430.15 3553.96,-324 3553.96,-324 3553.96,-324 3553.96,-193.5 3553.96,-156.306 3559.14,-140.261 3534.96,-112 3507.22,-79.5784 3485.02,-93.1802 3445.96,-76 3427.04,-67.6754 3423.91,-61.4158 3403.96,-56 3310.86,-30.7305 3014.46,-16.5182 2913.79,-12.3255"/>
<polygon fill="midnightblue" stroke="midnightblue" points="2913.72,-8.81977 2903.59,-11.907 2913.44,-15.8139 2913.72,-8.81977"/>
</g>
<!-- Node56&#45;&gt;Node16 -->
<g id="edge138" class="edge"><title>Node56&#45;&gt;Node16</title>
<path fill="none" stroke="midnightblue" d="M2550.73,-425.363C2561.33,-417.35 2575.66,-404.367 2581.96,-389 2616.68,-304.309 2597.13,-190.716 2587.42,-146.849"/>
<polygon fill="midnightblue" stroke="midnightblue" points="2590.81,-145.997 2585.15,-137.044 2583.99,-147.576 2590.81,-145.997"/>
</g>
<!-- Node56&#45;&gt;Node22 -->
<g id="edge135" class="edge"><title>Node56&#45;&gt;Node22</title>
<path fill="none" stroke="midnightblue" d="M2481.36,-429.628C2459.94,-428.051 2435.33,-426.334 2412.96,-425 1548.64,-373.461 1322.66,-465.243 466.961,-333 371.075,-318.181 320.116,-349.786 255.961,-277 207.463,-221.977 230.247,-181.74 252.961,-112 256.165,-102.162 261.84,-92.1972 267.163,-84.1539"/>
<polygon fill="midnightblue" stroke="midnightblue" points="270.203,-85.9139 273.08,-75.7172 264.472,-81.8942 270.203,-85.9139"/>
</g>
<!-- Node56&#45;&gt;Node26 -->
<g id="edge136" class="edge"><title>Node56&#45;&gt;Node26</title>
<path fill="none" stroke="midnightblue" d="M2481.17,-429.528C2296.18,-414.775 1712.2,-366.671 1525.96,-333 1430.06,-315.662 1392.42,-334.804 1313.96,-277 1292.07,-260.87 1277.38,-232.259 1269.6,-213.588"/>
<polygon fill="midnightblue" stroke="midnightblue" points="1272.81,-212.179 1265.9,-204.146 1266.29,-214.734 1272.81,-212.179"/>
</g>
<!-- Node56&#45;&gt;Node45 -->
<g id="edge133" class="edge"><title>Node56&#45;&gt;Node45</title>
<path fill="none" stroke="midnightblue" d="M2529.34,-425.455C2500.98,-397.59 2407.38,-307.615 2319.96,-246 2258.65,-202.783 2180.2,-161.774 2139.75,-141.572"/>
<polygon fill="midnightblue" stroke="midnightblue" points="2141.07,-138.318 2130.55,-137.01 2137.96,-144.589 2141.07,-138.318"/>
</g>
<!-- Node57 -->
<g id="node58" class="node"><title>Node57</title>
<g id="a_node58"><a xlink:href="_wrap_t_tree_8h.html" target="_top" xlink:title="base/WrapTTree.h">
<polygon fill="white" stroke="black" points="2701.96,-118 2701.96,-137 2801.96,-137 2801.96,-118 2701.96,-118"/>
<text text-anchor="middle" x="2751.96" y="-125" font-family="Helvetica,sans-Serif" font-size="10.00">base/WrapTTree.h</text>
</a>
</g>
</g>
<!-- Node56&#45;&gt;Node57 -->
<g id="edge127" class="edge"><title>Node56&#45;&gt;Node57</title>
<path fill="none" stroke="midnightblue" d="M2594.47,-426.156C2597.68,-425.753 2600.86,-425.365 2603.96,-425 2722.17,-411.084 3129.96,-443.024 3129.96,-324 3129.96,-324 3129.96,-324 3129.96,-260.5 3129.96,-223.203 3137.63,-204.015 3109.96,-179 3099.03,-169.115 2911.37,-146.545 2812.24,-135.229"/>
<polygon fill="midnightblue" stroke="midnightblue" points="2812.39,-131.724 2802.06,-134.071 2811.6,-138.679 2812.39,-131.724"/>
</g>
<!-- Node57&#45;&gt;Node2 -->
<g id="edge130" class="edge"><title>Node57&#45;&gt;Node2</title>
<path fill="none" stroke="midnightblue" d="M2714.85,-117.953C2704.56,-115.788 2693.36,-113.62 2682.96,-112 2527.57,-87.796 2480.39,-124.994 2330.96,-76 2314.3,-70.5381 2313.81,-60.8373 2296.96,-56 2136.8,-10.0245 901.781,-10.4784 685.298,-10.9156"/>
<polygon fill="midnightblue" stroke="midnightblue" points="685.207,-7.41571 675.215,-10.9375 685.222,-14.4157 685.207,-7.41571"/>
</g>
<!-- Node57&#45;&gt;Node3 -->
<g id="edge132" class="edge"><title>Node57&#45;&gt;Node3</title>
<path fill="none" stroke="midnightblue" d="M2717.91,-117.925C2708.28,-115.734 2697.75,-113.56 2687.96,-112 2518.24,-84.9562 2472.89,-101.645 2302.96,-76 2301.5,-75.7795 2300.01,-75.5408 2298.51,-75.288"/>
<polygon fill="midnightblue" stroke="midnightblue" points="2299.03,-71.824 2288.56,-73.4563 2297.76,-78.7084 2299.03,-71.824"/>
</g>
<!-- Node57&#45;&gt;Node15 -->
<g id="edge129" class="edge"><title>Node57&#45;&gt;Node15</title>
<path fill="none" stroke="midnightblue" d="M2739.41,-117.923C2721.02,-104.31 2690.62,-77.1368 2706.96,-56 2723.87,-34.1336 2801,-20.9103 2846.37,-14.8887"/>
<polygon fill="midnightblue" stroke="midnightblue" points="2846.87,-18.3528 2856.35,-13.6119 2845.98,-11.4094 2846.87,-18.3528"/>
</g>
<!-- Node57&#45;&gt;Node25 -->
<g id="edge131" class="edge"><title>Node57&#45;&gt;Node25</title>
<path fill="none" stroke="midnightblue" d="M2714.48,-117.974C2704.29,-115.834 2693.23,-113.674 2682.96,-112 2546.5,-89.7599 2507,-113.634 2373.96,-76 2353.68,-70.263 2351.24,-61.7561 2330.96,-56 2211.21,-22.0038 2063.18,-13.6659 1992.42,-11.6385"/>
<polygon fill="midnightblue" stroke="midnightblue" points="1992.24,-8.13272 1982.15,-11.3736 1992.05,-15.1304 1992.24,-8.13272"/>
</g>
<!-- Node58 -->
<g id="node59" class="node"><title>Node58</title>
<polygon fill="white" stroke="#bfbfbf" points="2715.96,-56.5 2715.96,-75.5 2765.96,-75.5 2765.96,-56.5 2715.96,-56.5"/>
<text text-anchor="middle" x="2740.96" y="-63.5" font-family="Helvetica,sans-Serif" font-size="10.00">TTree.h</text>
</g>
<!-- Node57&#45;&gt;Node58 -->
<g id="edge128" class="edge"><title>Node57&#45;&gt;Node58</title>
<path fill="none" stroke="midnightblue" d="M2750.39,-117.975C2748.83,-109.58 2746.41,-96.4806 2744.41,-85.6631"/>
<polygon fill="midnightblue" stroke="midnightblue" points="2747.79,-84.7062 2742.53,-75.5091 2740.91,-85.9788 2747.79,-84.7062"/>
</g>
<!-- Node60 -->
<g id="node61" class="node"><title>Node60</title>
<polygon fill="white" stroke="#bfbfbf" points="3582.46,-369.5 3582.46,-388.5 3681.46,-388.5 3681.46,-369.5 3582.46,-369.5"/>
<text text-anchor="middle" x="3631.96" y="-376.5" font-family="Helvetica,sans-Serif" font-size="10.00">easylogging++.h</text>
</g>
<!-- Node59&#45;&gt;Node60 -->
<g id="edge140" class="edge"><title>Node59&#45;&gt;Node60</title>
<path fill="none" stroke="midnightblue" d="M2697.2,-426.1C2700.16,-425.684 2703.1,-425.311 2705.96,-425 3087.16,-383.59 3186.09,-423.74 3567.96,-389 3569.43,-388.867 3570.91,-388.723 3572.41,-388.571"/>
<polygon fill="midnightblue" stroke="midnightblue" points="3572.85,-392.044 3582.4,-387.458 3572.08,-385.087 3572.85,-392.044"/>
</g>
</g>
</svg>
