<?xml version="1.0" encoding="UTF-8" standalone="no"?>
<!DOCTYPE svg PUBLIC "-//W3C//DTD SVG 1.1//EN"
 "http://www.w3.org/Graphics/SVG/1.1/DTD/svg11.dtd">
<!-- Generated by graphviz version 2.38.0 (20140413.2041)
 -->
<!-- Title: src/base/WrapTFile.cc Pages: 1 -->
<svg width="1215pt" height="196pt"
 viewBox="0.00 0.00 1214.84 196.00" xmlns="http://www.w3.org/2000/svg" xmlns:xlink="http://www.w3.org/1999/xlink">
<g id="graph0" class="graph" transform="scale(1 1) rotate(0) translate(4 192)">
<title>src/base/WrapTFile.cc</title>
<polygon fill="white" stroke="none" points="-4,4 -4,-192 1210.84,-192 1210.84,4 -4,4"/>
<!-- Node0 -->
<g id="node1" class="node"><title>Node0</title>
<polygon fill="#bfbfbf" stroke="black" points="598.841,-168.5 598.841,-187.5 715.841,-187.5 715.841,-168.5 598.841,-168.5"/>
<text text-anchor="middle" x="657.341" y="-175.5" font-family="Helvetica,sans-Serif" font-size="10.00">src/base/WrapTFile.cc</text>
</g>
<!-- Node1 -->
<g id="node2" class="node"><title>Node1</title>
<g id="a_node2"><a xlink:href="_wrap_t_file_8h.html" target="_top" xlink:title="WrapTFile.h">
<polygon fill="white" stroke="black" points="531.841,-112.5 531.841,-131.5 600.841,-131.5 600.841,-112.5 531.841,-112.5"/>
<text text-anchor="middle" x="566.341" y="-119.5" font-family="Helvetica,sans-Serif" font-size="10.00">WrapTFile.h</text>
</a>
</g>
</g>
<!-- Node0&#45;&gt;Node1 -->
<g id="edge1" class="edge"><title>Node0&#45;&gt;Node1</title>
<path fill="none" stroke="midnightblue" d="M642.72,-168.324C628.392,-159.822 606.328,-146.729 589.592,-136.797"/>
<polygon fill="midnightblue" stroke="midnightblue" points="591.311,-133.748 580.925,-131.655 587.739,-139.768 591.311,-133.748"/>
</g>
<!-- Node2 -->
<g id="node3" class="node"><title>Node2</title>
<g id="a_node3"><a xlink:href="string_8h.html" target="_top" xlink:title="base/std_ext/string.h">
<polygon fill="white" stroke="black" points="143.841,-56.5 143.841,-75.5 260.841,-75.5 260.841,-56.5 143.841,-56.5"/>
<text text-anchor="middle" x="202.341" y="-63.5" font-family="Helvetica,sans-Serif" font-size="10.00">base/std_ext/string.h</text>
</a>
</g>
</g>
<!-- Node0&#45;&gt;Node2 -->
<g id="edge33" class="edge"><title>Node0&#45;&gt;Node2</title>
<path fill="none" stroke="midnightblue" d="M598.574,-173.834C534.272,-169.179 428.706,-158.017 341.341,-132 298.818,-119.337 252.792,-95.6393 225.819,-80.6244"/>
<polygon fill="midnightblue" stroke="midnightblue" points="227.214,-77.3925 216.785,-75.5219 223.771,-83.4875 227.214,-77.3925"/>
</g>
<!-- Node3 -->
<g id="node4" class="node"><title>Node3</title>
<polygon fill="white" stroke="#bfbfbf" points="10.3406,-0.5 10.3406,-19.5 54.3406,-19.5 54.3406,-0.5 10.3406,-0.5"/>
<text text-anchor="middle" x="32.3406" y="-7.5" font-family="Helvetica,sans-Serif" font-size="10.00">string</text>
</g>
<!-- Node0&#45;&gt;Node3 -->
<g id="edge43" class="edge"><title>Node0&#45;&gt;Node3</title>
<path fill="none" stroke="midnightblue" d="M598.57,-177.35C447.154,-177.64 52.7785,-174.29 13.3406,-132 -13.0219,-103.731 7.63366,-54.6001 21.8271,-28.4871"/>
<polygon fill="midnightblue" stroke="midnightblue" points="24.926,-30.1183 26.839,-19.6976 18.8451,-26.6509 24.926,-30.1183"/>
</g>
<!-- Node7 -->
<g id="node8" class="node"><title>Node7</title>
<g id="a_node8"><a xlink:href="misc_8h.html" target="_top" xlink:title="base/std_ext/misc.h">
<polygon fill="white" stroke="black" points="278.841,-56.5 278.841,-75.5 391.841,-75.5 391.841,-56.5 278.841,-56.5"/>
<text text-anchor="middle" x="335.341" y="-63.5" font-family="Helvetica,sans-Serif" font-size="10.00">base/std_ext/misc.h</text>
</a>
</g>
</g>
<!-- Node0&#45;&gt;Node7 -->
<g id="edge29" class="edge"><title>Node0&#45;&gt;Node7</title>
<path fill="none" stroke="midnightblue" d="M598.684,-175.082C522.506,-171.442 395.042,-161.077 359.341,-132 345.516,-120.741 339.654,-100.73 337.169,-85.876"/>
<polygon fill="midnightblue" stroke="midnightblue" points="340.613,-85.217 335.851,-75.7527 333.672,-86.1209 340.613,-85.217"/>
</g>
<!-- Node21 -->
<g id="node22" class="node"><title>Node21</title>
<polygon fill="white" stroke="#bfbfbf" points="1025.34,-56.5 1025.34,-75.5 1089.34,-75.5 1089.34,-56.5 1025.34,-56.5"/>
<text text-anchor="middle" x="1057.34" y="-63.5" font-family="Helvetica,sans-Serif" font-size="10.00">stdexcept</text>
</g>
<!-- Node0&#45;&gt;Node21 -->
<g id="edge42" class="edge"><title>Node0&#45;&gt;Node21</title>
<path fill="none" stroke="midnightblue" d="M652.264,-168.152C645.069,-154.313 634.258,-127.527 648.341,-112 674.432,-83.2321 943.782,-82.4165 1014.91,-75.6736"/>
<polygon fill="midnightblue" stroke="midnightblue" points="1015.67,-79.1076 1025.18,-74.4373 1014.83,-72.1578 1015.67,-79.1076"/>
</g>
<!-- Node22 -->
<g id="node23" class="node"><title>Node22</title>
<g id="a_node23"><a xlink:href="memory_8h.html" target="_top" xlink:title="std_ext/memory.h">
<polygon fill="white" stroke="black" points="368.841,-112.5 368.841,-131.5 471.841,-131.5 471.841,-112.5 368.841,-112.5"/>
<text text-anchor="middle" x="420.341" y="-119.5" font-family="Helvetica,sans-Serif" font-size="10.00">std_ext/memory.h</text>
</a>
</g>
</g>
<!-- Node0&#45;&gt;Node22 -->
<g id="edge26" class="edge"><title>Node0&#45;&gt;Node22</title>
<path fill="none" stroke="midnightblue" d="M619.787,-168.444C578.53,-159.043 512.196,-143.929 467.474,-133.739"/>
<polygon fill="midnightblue" stroke="midnightblue" points="468.246,-130.326 457.718,-131.516 466.691,-137.151 468.246,-130.326"/>
</g>
<!-- Node23 -->
<g id="node24" class="node"><title>Node23</title>
<g id="a_node24"><a xlink:href="system_8h.html" target="_top" xlink:title="std_ext/system.h">
<polygon fill="white" stroke="black" points="22.8406,-112.5 22.8406,-131.5 121.841,-131.5 121.841,-112.5 22.8406,-112.5"/>
<text text-anchor="middle" x="72.3406" y="-119.5" font-family="Helvetica,sans-Serif" font-size="10.00">std_ext/system.h</text>
</a>
</g>
</g>
<!-- Node0&#45;&gt;Node23 -->
<g id="edge30" class="edge"><title>Node0&#45;&gt;Node23</title>
<path fill="none" stroke="midnightblue" d="M598.84,-171.6C487.157,-161.291 244.676,-138.908 132.053,-128.512"/>
<polygon fill="midnightblue" stroke="midnightblue" points="132.173,-125.008 121.893,-127.574 131.529,-131.979 132.173,-125.008"/>
</g>
<!-- Node24 -->
<g id="node25" class="node"><title>Node24</title>
<g id="a_node25"><a xlink:href="_logger_8h.html" target="_top" xlink:title="Logger.h">
<polygon fill="white" stroke="black" points="657.341,-112.5 657.341,-131.5 715.341,-131.5 715.341,-112.5 657.341,-112.5"/>
<text text-anchor="middle" x="686.341" y="-119.5" font-family="Helvetica,sans-Serif" font-size="10.00">Logger.h</text>
</a>
</g>
</g>
<!-- Node0&#45;&gt;Node24 -->
<g id="edge34" class="edge"><title>Node0&#45;&gt;Node24</title>
<path fill="none" stroke="midnightblue" d="M662.129,-168.083C666.099,-160.691 671.866,-149.953 676.775,-140.811"/>
<polygon fill="midnightblue" stroke="midnightblue" points="679.993,-142.217 681.641,-131.751 673.826,-138.905 679.993,-142.217"/>
</g>
<!-- Node26 -->
<g id="node27" class="node"><title>Node26</title>
<polygon fill="white" stroke="#bfbfbf" points="733.341,-112.5 733.341,-131.5 801.341,-131.5 801.341,-112.5 733.341,-112.5"/>
<text text-anchor="middle" x="767.341" y="-119.5" font-family="Helvetica,sans-Serif" font-size="10.00">TSystem.h</text>
</g>
<!-- Node0&#45;&gt;Node26 -->
<g id="edge36" class="edge"><title>Node0&#45;&gt;Node26</title>
<path fill="none" stroke="midnightblue" d="M675.014,-168.324C692.735,-159.625 720.244,-146.12 740.629,-136.113"/>
<polygon fill="midnightblue" stroke="midnightblue" points="742.277,-139.203 749.711,-131.655 739.192,-132.919 742.277,-139.203"/>
</g>
<!-- Node27 -->
<g id="node28" class="node"><title>Node27</title>
<polygon fill="white" stroke="#bfbfbf" points="819.341,-112.5 819.341,-131.5 871.341,-131.5 871.341,-112.5 819.341,-112.5"/>
<text text-anchor="middle" x="845.341" y="-119.5" font-family="Helvetica,sans-Serif" font-size="10.00">TH1D.h</text>
</g>
<!-- Node0&#45;&gt;Node27 -->
<g id="edge37" class="edge"><title>Node0&#45;&gt;Node27</title>
<path fill="none" stroke="midnightblue" d="M687.13,-168.444C720.3,-158.916 773.905,-143.519 809.384,-133.328"/>
<polygon fill="midnightblue" stroke="midnightblue" points="810.678,-136.598 819.323,-130.473 808.746,-129.87 810.678,-136.598"/>
</g>
<!-- Node28 -->
<g id="node29" class="node"><title>Node28</title>
<polygon fill="white" stroke="#bfbfbf" points="889.341,-112.5 889.341,-131.5 941.341,-131.5 941.341,-112.5 889.341,-112.5"/>
<text text-anchor="middle" x="915.341" y="-119.5" font-family="Helvetica,sans-Serif" font-size="10.00">TH2D.h</text>
</g>
<!-- Node0&#45;&gt;Node28 -->
<g id="edge38" class="edge"><title>Node0&#45;&gt;Node28</title>
<path fill="none" stroke="midnightblue" d="M703.19,-168.478C746.261,-160.309 812.729,-147.284 879.199,-132.175"/>
<polygon fill="midnightblue" stroke="midnightblue" points="880.037,-135.574 889.004,-129.93 878.475,-128.75 880.037,-135.574"/>
</g>
<!-- Node29 -->
<g id="node30" class="node"><title>Node29</title>
<polygon fill="white" stroke="#bfbfbf" points="959.341,-112.5 959.341,-131.5 1011.34,-131.5 1011.34,-112.5 959.341,-112.5"/>
<text text-anchor="middle" x="985.341" y="-119.5" font-family="Helvetica,sans-Serif" font-size="10.00">TH3D.h</text>
</g>
<!-- Node0&#45;&gt;Node29 -->
<g id="edge39" class="edge"><title>Node0&#45;&gt;Node29</title>
<path fill="none" stroke="midnightblue" d="M716.016,-169.733C773.183,-162.259 862.723,-149.514 949.066,-132.098"/>
<polygon fill="midnightblue" stroke="midnightblue" points="949.934,-135.493 959.032,-130.064 948.534,-128.634 949.934,-135.493"/>
</g>
<!-- Node30 -->
<g id="node31" class="node"><title>Node30</title>
<polygon fill="white" stroke="#bfbfbf" points="1029.84,-112.5 1029.84,-131.5 1118.84,-131.5 1118.84,-112.5 1029.84,-112.5"/>
<text text-anchor="middle" x="1074.34" y="-119.5" font-family="Helvetica,sans-Serif" font-size="10.00">Compression.h</text>
</g>
<!-- Node0&#45;&gt;Node30 -->
<g id="edge40" class="edge"><title>Node0&#45;&gt;Node30</title>
<path fill="none" stroke="midnightblue" d="M715.911,-170.502C785.716,-162.588 906.13,-148.396 1019.67,-132.044"/>
<polygon fill="midnightblue" stroke="midnightblue" points="1020.18,-135.507 1029.57,-130.609 1019.18,-128.579 1020.18,-135.507"/>
</g>
<!-- Node31 -->
<g id="node32" class="node"><title>Node31</title>
<polygon fill="white" stroke="#bfbfbf" points="1136.34,-112.5 1136.34,-131.5 1192.34,-131.5 1192.34,-112.5 1136.34,-112.5"/>
<text text-anchor="middle" x="1164.34" y="-119.5" font-family="Helvetica,sans-Serif" font-size="10.00">TClass.h</text>
</g>
<!-- Node0&#45;&gt;Node31 -->
<g id="edge41" class="edge"><title>Node0&#45;&gt;Node31</title>
<path fill="none" stroke="midnightblue" d="M716.089,-174.218C803.66,-169.448 973.694,-157.79 1126.11,-132.185"/>
<polygon fill="midnightblue" stroke="midnightblue" points="1126.86,-135.608 1136.13,-130.478 1125.68,-128.708 1126.86,-135.608"/>
</g>
<!-- Node1&#45;&gt;Node2 -->
<g id="edge2" class="edge"><title>Node1&#45;&gt;Node2</title>
<path fill="none" stroke="midnightblue" d="M531.768,-115.871C471.816,-106.977 347.556,-88.543 269.954,-77.0306"/>
<polygon fill="midnightblue" stroke="midnightblue" points="270.199,-73.5287 259.794,-75.5233 269.172,-80.4529 270.199,-73.5287"/>
</g>
<!-- Node1&#45;&gt;Node3 -->
<g id="edge21" class="edge"><title>Node1&#45;&gt;Node3</title>
<path fill="none" stroke="midnightblue" d="M531.61,-117.361C515.946,-115.72 497.213,-113.761 480.341,-112 326.568,-95.954 280.328,-126.906 134.341,-76 117.3,-70.0578 77.1572,-42.7906 52.6187,-25.5147"/>
<polygon fill="midnightblue" stroke="midnightblue" points="54.5388,-22.5856 44.3559,-19.6599 50.4918,-28.2972 54.5388,-22.5856"/>
</g>
<!-- Node1&#45;&gt;Node7 -->
<g id="edge7" class="edge"><title>Node1&#45;&gt;Node7</title>
<path fill="none" stroke="midnightblue" d="M531.758,-112.916C491.94,-103.608 426.339,-88.2725 382.019,-77.9119"/>
<polygon fill="midnightblue" stroke="midnightblue" points="382.606,-74.4548 372.072,-75.5865 381.013,-81.271 382.606,-74.4548"/>
</g>
<!-- Node8 -->
<g id="node9" class="node"><title>Node8</title>
<polygon fill="white" stroke="#bfbfbf" points="754.841,-0.5 754.841,-19.5 817.841,-19.5 817.841,-0.5 754.841,-0.5"/>
<text text-anchor="middle" x="786.341" y="-7.5" font-family="Helvetica,sans-Serif" font-size="10.00">functional</text>
</g>
<!-- Node1&#45;&gt;Node8 -->
<g id="edge25" class="edge"><title>Node1&#45;&gt;Node8</title>
<path fill="none" stroke="midnightblue" d="M601.1,-114.375C605.877,-113.535 610.726,-112.719 615.341,-112 677.545,-102.31 854.749,-123.26 896.341,-76 920.388,-48.6752 868.411,-29.6738 827.992,-19.5522"/>
<polygon fill="midnightblue" stroke="midnightblue" points="828.558,-16.089 818.018,-17.1706 826.932,-22.8975 828.558,-16.089"/>
</g>
<!-- Node12 -->
<g id="node13" class="node"><title>Node12</title>
<polygon fill="white" stroke="#bfbfbf" points="524.841,-0.5 524.841,-19.5 581.841,-19.5 581.841,-0.5 524.841,-0.5"/>
<text text-anchor="middle" x="553.341" y="-7.5" font-family="Helvetica,sans-Serif" font-size="10.00">memory</text>
</g>
<!-- Node1&#45;&gt;Node12 -->
<g id="edge20" class="edge"><title>Node1&#45;&gt;Node12</title>
<path fill="none" stroke="midnightblue" d="M600.841,-114.464C605.703,-113.601 610.644,-112.755 615.341,-112 732.477,-93.1737 954.229,-145.492 876.341,-56 857.909,-34.8228 674.145,-19.448 592.306,-13.5969"/>
<polygon fill="midnightblue" stroke="midnightblue" points="592.145,-10.077 581.924,-12.8667 591.653,-17.0598 592.145,-10.077"/>
</g>
<!-- Node13 -->
<g id="node14" class="node"><title>Node13</title>
<polygon fill="white" stroke="#bfbfbf" points="961.341,-56.5 961.341,-75.5 1007.34,-75.5 1007.34,-56.5 961.341,-56.5"/>
<text text-anchor="middle" x="984.341" y="-63.5" font-family="Helvetica,sans-Serif" font-size="10.00">TFile.h</text>
</g>
<!-- Node1&#45;&gt;Node13 -->
<g id="edge14" class="edge"><title>Node1&#45;&gt;Node13</title>
<path fill="none" stroke="midnightblue" d="M601.087,-114.292C605.867,-113.464 610.719,-112.674 615.341,-112 762.207,-90.5793 801.144,-101.594 947.341,-76 948.586,-75.782 949.852,-75.5463 951.128,-75.2968"/>
<polygon fill="midnightblue" stroke="midnightblue" points="951.913,-78.7081 960.95,-73.1781 950.437,-71.8655 951.913,-78.7081"/>
</g>
<!-- Node14 -->
<g id="node15" class="node"><title>Node14</title>
<polygon fill="white" stroke="#bfbfbf" points="448.841,-56.5 448.841,-75.5 521.841,-75.5 521.841,-56.5 448.841,-56.5"/>
<text text-anchor="middle" x="485.341" y="-63.5" font-family="Helvetica,sans-Serif" font-size="10.00">TDirectory.h</text>
</g>
<!-- Node1&#45;&gt;Node14 -->
<g id="edge15" class="edge"><title>Node1&#45;&gt;Node14</title>
<path fill="none" stroke="midnightblue" d="M553.327,-112.324C540.809,-103.979 521.659,-91.2122 506.869,-81.3524"/>
<polygon fill="midnightblue" stroke="midnightblue" points="508.584,-78.2894 498.322,-75.6545 504.701,-84.1137 508.584,-78.2894"/>
</g>
<!-- Node15 -->
<g id="node16" class="node"><title>Node15</title>
<polygon fill="white" stroke="#bfbfbf" points="539.841,-56.5 539.841,-75.5 592.841,-75.5 592.841,-56.5 539.841,-56.5"/>
<text text-anchor="middle" x="566.341" y="-63.5" font-family="Helvetica,sans-Serif" font-size="10.00">TError.h</text>
</g>
<!-- Node1&#45;&gt;Node15 -->
<g id="edge16" class="edge"><title>Node1&#45;&gt;Node15</title>
<path fill="none" stroke="midnightblue" d="M566.341,-112.083C566.341,-105.006 566.341,-94.8611 566.341,-85.9865"/>
<polygon fill="midnightblue" stroke="midnightblue" points="569.841,-85.751 566.341,-75.7511 562.841,-85.7511 569.841,-85.751"/>
</g>
<!-- Node16 -->
<g id="node17" class="node"><title>Node16</title>
<polygon fill="white" stroke="#bfbfbf" points="610.841,-56.5 610.841,-75.5 657.841,-75.5 657.841,-56.5 610.841,-56.5"/>
<text text-anchor="middle" x="634.341" y="-63.5" font-family="Helvetica,sans-Serif" font-size="10.00">TList.h</text>
</g>
<!-- Node1&#45;&gt;Node16 -->
<g id="edge17" class="edge"><title>Node1&#45;&gt;Node16</title>
<path fill="none" stroke="midnightblue" d="M577.266,-112.324C587.515,-104.185 603.061,-91.8395 615.342,-82.0874"/>
<polygon fill="midnightblue" stroke="midnightblue" points="617.562,-84.7937 623.216,-75.8339 613.209,-79.3119 617.562,-84.7937"/>
</g>
<!-- Node17 -->
<g id="node18" class="node"><title>Node17</title>
<polygon fill="white" stroke="#bfbfbf" points="675.841,-56.5 675.841,-75.5 752.841,-75.5 752.841,-56.5 675.841,-56.5"/>
<text text-anchor="middle" x="714.341" y="-63.5" font-family="Helvetica,sans-Serif" font-size="10.00">TCollection.h</text>
</g>
<!-- Node1&#45;&gt;Node17 -->
<g id="edge18" class="edge"><title>Node1&#45;&gt;Node17</title>
<path fill="none" stroke="midnightblue" d="M589.792,-112.444C614.473,-103.438 653.526,-89.1891 681.317,-79.049"/>
<polygon fill="midnightblue" stroke="midnightblue" points="682.805,-82.2321 690.999,-75.5164 680.405,-75.6561 682.805,-82.2321"/>
</g>
<!-- Node18 -->
<g id="node19" class="node"><title>Node18</title>
<polygon fill="white" stroke="#bfbfbf" points="771.341,-56.5 771.341,-75.5 817.341,-75.5 817.341,-56.5 771.341,-56.5"/>
<text text-anchor="middle" x="794.341" y="-63.5" font-family="Helvetica,sans-Serif" font-size="10.00">TKey.h</text>
</g>
<!-- Node1&#45;&gt;Node18 -->
<g id="edge19" class="edge"><title>Node1&#45;&gt;Node18</title>
<path fill="none" stroke="midnightblue" d="M600.96,-113.444C640.022,-104.818 705.409,-90.0747 761.341,-76 761.441,-75.9746 761.542,-75.9492 761.643,-75.9237"/>
<polygon fill="midnightblue" stroke="midnightblue" points="762.497,-79.3182 771.292,-73.4104 760.733,-72.5442 762.497,-79.3182"/>
</g>
<!-- Node19 -->
<g id="node20" class="node"><title>Node19</title>
<polygon fill="white" stroke="#bfbfbf" points="57.3406,-56.5 57.3406,-75.5 87.3406,-75.5 87.3406,-56.5 57.3406,-56.5"/>
<text text-anchor="middle" x="72.3406" y="-63.5" font-family="Helvetica,sans-Serif" font-size="10.00">list</text>
</g>
<!-- Node1&#45;&gt;Node19 -->
<g id="edge22" class="edge"><title>Node1&#45;&gt;Node19</title>
<path fill="none" stroke="midnightblue" d="M531.617,-117.29C515.955,-115.636 497.22,-113.685 480.341,-112 311.975,-95.1943 267.244,-109.252 101.341,-76 100.061,-75.7436 98.7584,-75.4526 97.4482,-75.1362"/>
<polygon fill="midnightblue" stroke="midnightblue" points="98.1129,-71.6878 87.5396,-72.3628 96.2261,-78.4287 98.1129,-71.6878"/>
</g>
<!-- Node20 -->
<g id="node21" class="node"><title>Node20</title>
<polygon fill="white" stroke="#bfbfbf" points="835.341,-56.5 835.341,-75.5 867.341,-75.5 867.341,-56.5 835.341,-56.5"/>
<text text-anchor="middle" x="851.341" y="-63.5" font-family="Helvetica,sans-Serif" font-size="10.00">set</text>
</g>
<!-- Node1&#45;&gt;Node20 -->
<g id="edge23" class="edge"><title>Node1&#45;&gt;Node20</title>
<path fill="none" stroke="midnightblue" d="M600.864,-114.602C605.723,-113.718 610.656,-112.83 615.341,-112 705.905,-95.9577 732.582,-99.9108 825.519,-75.8172"/>
<polygon fill="midnightblue" stroke="midnightblue" points="826.555,-79.164 835.334,-73.2337 824.773,-72.3946 826.555,-79.164"/>
</g>
<!-- Node1&#45;&gt;Node21 -->
<g id="edge24" class="edge"><title>Node1&#45;&gt;Node21</title>
<path fill="none" stroke="midnightblue" d="M601.076,-114.212C605.857,-113.397 610.713,-112.631 615.341,-112 789.434,-88.2485 837.751,-102.693 1015.25,-75.9787"/>
<polygon fill="midnightblue" stroke="midnightblue" points="1015.83,-79.4317 1025.18,-74.4618 1014.77,-72.512 1015.83,-79.4317"/>
</g>
<!-- Node2&#45;&gt;Node3 -->
<g id="edge3" class="edge"><title>Node2&#45;&gt;Node3</title>
<path fill="none" stroke="midnightblue" d="M175.404,-56.4435C145.244,-46.8634 96.4028,-31.3492 64.327,-21.1604"/>
<polygon fill="midnightblue" stroke="midnightblue" points="65.1371,-17.7454 54.5468,-18.0537 63.0179,-24.4169 65.1371,-17.7454"/>
</g>
<!-- Node4 -->
<g id="node5" class="node"><title>Node4</title>
<polygon fill="white" stroke="#bfbfbf" points="144.341,-0.5 144.341,-19.5 200.341,-19.5 200.341,-0.5 144.341,-0.5"/>
<text text-anchor="middle" x="172.341" y="-7.5" font-family="Helvetica,sans-Serif" font-size="10.00">sstream</text>
</g>
<!-- Node2&#45;&gt;Node4 -->
<g id="edge4" class="edge"><title>Node2&#45;&gt;Node4</title>
<path fill="none" stroke="midnightblue" d="M197.387,-56.083C193.237,-48.6127 187.188,-37.7244 182.074,-28.5199"/>
<polygon fill="midnightblue" stroke="midnightblue" points="185.118,-26.7929 177.202,-19.7511 178.999,-30.1924 185.118,-26.7929"/>
</g>
<!-- Node5 -->
<g id="node6" class="node"><title>Node5</title>
<polygon fill="white" stroke="#bfbfbf" points="218.341,-0.5 218.341,-19.5 280.341,-19.5 280.341,-0.5 218.341,-0.5"/>
<text text-anchor="middle" x="249.341" y="-7.5" font-family="Helvetica,sans-Serif" font-size="10.00">algorithm</text>
</g>
<!-- Node2&#45;&gt;Node5 -->
<g id="edge5" class="edge"><title>Node2&#45;&gt;Node5</title>
<path fill="none" stroke="midnightblue" d="M210.102,-56.083C216.877,-48.2982 226.884,-36.8015 235.096,-27.3665"/>
<polygon fill="midnightblue" stroke="midnightblue" points="237.799,-29.592 241.724,-19.7511 232.519,-24.9963 237.799,-29.592"/>
</g>
<!-- Node6 -->
<g id="node7" class="node"><title>Node6</title>
<polygon fill="white" stroke="#bfbfbf" points="78.8406,-0.5 78.8406,-19.5 125.841,-19.5 125.841,-0.5 78.8406,-0.5"/>
<text text-anchor="middle" x="102.341" y="-7.5" font-family="Helvetica,sans-Serif" font-size="10.00">vector</text>
</g>
<!-- Node2&#45;&gt;Node6 -->
<g id="edge6" class="edge"><title>Node2&#45;&gt;Node6</title>
<path fill="none" stroke="midnightblue" d="M186.274,-56.324C170.383,-47.7428 145.833,-34.486 127.382,-24.5224"/>
<polygon fill="midnightblue" stroke="midnightblue" points="128.83,-21.3264 118.367,-19.6545 125.504,-27.4857 128.83,-21.3264"/>
</g>
<!-- Node7&#45;&gt;Node5 -->
<g id="edge8" class="edge"><title>Node7&#45;&gt;Node5</title>
<path fill="none" stroke="midnightblue" d="M321.523,-56.324C308.108,-47.9002 287.517,-34.9709 271.755,-25.0741"/>
<polygon fill="midnightblue" stroke="midnightblue" points="273.454,-22.0081 263.124,-19.6545 269.731,-27.9364 273.454,-22.0081"/>
</g>
<!-- Node7&#45;&gt;Node8 -->
<g id="edge9" class="edge"><title>Node7&#45;&gt;Node8</title>
<path fill="none" stroke="midnightblue" d="M392.003,-58.2155C483.815,-47.2226 662.996,-25.7685 744.355,-16.0271"/>
<polygon fill="midnightblue" stroke="midnightblue" points="745.192,-19.4519 754.705,-14.7878 744.36,-12.5016 745.192,-19.4519"/>
</g>
<!-- Node9 -->
<g id="node10" class="node"><title>Node9</title>
<polygon fill="white" stroke="#bfbfbf" points="384.841,-0.5 384.841,-19.5 431.841,-19.5 431.841,-0.5 384.841,-0.5"/>
<text text-anchor="middle" x="408.341" y="-7.5" font-family="Helvetica,sans-Serif" font-size="10.00">cmath</text>
</g>
<!-- Node7&#45;&gt;Node9 -->
<g id="edge10" class="edge"><title>Node7&#45;&gt;Node9</title>
<path fill="none" stroke="midnightblue" d="M347.069,-56.324C358.178,-48.1066 375.083,-35.6017 388.324,-25.8069"/>
<polygon fill="midnightblue" stroke="midnightblue" points="390.44,-28.5948 396.399,-19.8339 386.278,-22.9671 390.44,-28.5948"/>
</g>
<!-- Node10 -->
<g id="node11" class="node"><title>Node10</title>
<polygon fill="white" stroke="#bfbfbf" points="450.341,-0.5 450.341,-19.5 506.341,-19.5 506.341,-0.5 450.341,-0.5"/>
<text text-anchor="middle" x="478.341" y="-7.5" font-family="Helvetica,sans-Serif" font-size="10.00">cxxabi.h</text>
</g>
<!-- Node7&#45;&gt;Node10 -->
<g id="edge11" class="edge"><title>Node7&#45;&gt;Node10</title>
<path fill="none" stroke="midnightblue" d="M357.999,-56.4435C381.743,-47.4776 419.25,-33.314 446.079,-23.1827"/>
<polygon fill="midnightblue" stroke="midnightblue" points="447.669,-26.3235 455.788,-19.5164 445.196,-19.7749 447.669,-26.3235"/>
</g>
<!-- Node11 -->
<g id="node12" class="node"><title>Node11</title>
<polygon fill="white" stroke="#bfbfbf" points="298.341,-0.5 298.341,-19.5 366.341,-19.5 366.341,-0.5 298.341,-0.5"/>
<text text-anchor="middle" x="332.341" y="-7.5" font-family="Helvetica,sans-Serif" font-size="10.00">type_traits</text>
</g>
<!-- Node7&#45;&gt;Node11 -->
<g id="edge12" class="edge"><title>Node7&#45;&gt;Node11</title>
<path fill="none" stroke="midnightblue" d="M334.845,-56.083C334.452,-49.0059 333.888,-38.8611 333.395,-29.9865"/>
<polygon fill="midnightblue" stroke="midnightblue" points="336.876,-29.5415 332.827,-19.7511 329.887,-29.9299 336.876,-29.5415"/>
</g>
<!-- Node7&#45;&gt;Node12 -->
<g id="edge13" class="edge"><title>Node7&#45;&gt;Node12</title>
<path fill="none" stroke="midnightblue" d="M369.883,-56.4435C409.285,-46.6835 473.552,-30.7643 514.618,-20.5919"/>
<polygon fill="midnightblue" stroke="midnightblue" points="515.664,-23.9386 524.529,-18.1368 513.981,-17.144 515.664,-23.9386"/>
</g>
<!-- Node22&#45;&gt;Node12 -->
<g id="edge27" class="edge"><title>Node22&#45;&gt;Node12</title>
<path fill="none" stroke="midnightblue" d="M420.544,-112.26C421.324,-98.5683 424.76,-71.9808 439.341,-56 449.892,-44.435 485.979,-31.2972 514.76,-22.2158"/>
<polygon fill="midnightblue" stroke="midnightblue" points="516.06,-25.4775 524.581,-19.182 513.994,-18.7893 516.06,-25.4775"/>
</g>
<!-- Node22&#45;&gt;Node19 -->
<g id="edge28" class="edge"><title>Node22&#45;&gt;Node19</title>
<path fill="none" stroke="midnightblue" d="M368.777,-116.303C305.322,-109.933 194.529,-96.8906 101.341,-76 100.068,-75.7146 98.7695,-75.4003 97.4633,-75.0652"/>
<polygon fill="midnightblue" stroke="midnightblue" points="98.1451,-71.6198 87.5678,-72.2296 96.2168,-78.349 98.1451,-71.6198"/>
</g>
<!-- Node23&#45;&gt;Node3 -->
<g id="edge32" class="edge"><title>Node23&#45;&gt;Node3</title>
<path fill="none" stroke="midnightblue" d="M66.8839,-112.343C61.5147,-103.501 53.4061,-89.2301 48.3406,-76 42.5555,-60.8902 38.3306,-42.9912 35.6799,-29.8053"/>
<polygon fill="midnightblue" stroke="midnightblue" points="39.0513,-28.7961 33.7561,-19.6195 32.1729,-30.0953 39.0513,-28.7961"/>
</g>
<!-- Node23&#45;&gt;Node19 -->
<g id="edge31" class="edge"><title>Node23&#45;&gt;Node19</title>
<path fill="none" stroke="midnightblue" d="M72.3406,-112.083C72.3406,-105.006 72.3406,-94.8611 72.3406,-85.9865"/>
<polygon fill="midnightblue" stroke="midnightblue" points="75.8407,-85.751 72.3406,-75.7511 68.8407,-85.7511 75.8407,-85.751"/>
</g>
<!-- Node25 -->
<g id="node26" class="node"><title>Node25</title>
<polygon fill="white" stroke="#bfbfbf" points="1107.84,-56.5 1107.84,-75.5 1206.84,-75.5 1206.84,-56.5 1107.84,-56.5"/>
<text text-anchor="middle" x="1157.34" y="-63.5" font-family="Helvetica,sans-Serif" font-size="10.00">easylogging++.h</text>
</g>
<!-- Node24&#45;&gt;Node25 -->
<g id="edge35" class="edge"><title>Node24&#45;&gt;Node25</title>
<path fill="none" stroke="midnightblue" d="M715.719,-113.623C718.621,-113.021 721.531,-112.466 724.341,-112 885.866,-85.2268 930.878,-96.1487 1097.68,-76.0031"/>
<polygon fill="midnightblue" stroke="midnightblue" points="1098.29,-79.4539 1107.79,-74.7617 1097.44,-72.506 1098.29,-79.4539"/>
</g>
</g>
</svg>
