<?xml version="1.0" encoding="UTF-8" standalone="no"?>
<!DOCTYPE svg PUBLIC "-//W3C//DTD SVG 1.1//EN"
 "http://www.w3.org/Graphics/SVG/1.1/DTD/svg11.dtd">
<!-- Generated by graphviz version 2.38.0 (20140413.2041)
 -->
<!-- Title: src/base/WrapTFile.h Pages: 1 -->
<svg width="1127pt" height="140pt"
 viewBox="0.00 0.00 1127.00 140.00" xmlns="http://www.w3.org/2000/svg" xmlns:xlink="http://www.w3.org/1999/xlink">
<g id="graph0" class="graph" transform="scale(1 1) rotate(0) translate(4 136)">
<title>src/base/WrapTFile.h</title>
<polygon fill="white" stroke="none" points="-4,4 -4,-136 1123,-136 1123,4 -4,4"/>
<!-- Node0 -->
<g id="node1" class="node"><title>Node0</title>
<polygon fill="#bfbfbf" stroke="black" points="590.5,-112.5 590.5,-131.5 703.5,-131.5 703.5,-112.5 590.5,-112.5"/>
<text text-anchor="middle" x="647" y="-119.5" font-family="Helvetica,sans-Serif" font-size="10.00">src/base/WrapTFile.h</text>
</g>
<!-- Node1 -->
<g id="node2" class="node"><title>Node1</title>
<g id="a_node2"><a xlink:href="string_8h.html" target="_top" xlink:title="base/std_ext/string.h">
<polygon fill="white" stroke="black" points="97.5,-56.5 97.5,-75.5 214.5,-75.5 214.5,-56.5 97.5,-56.5"/>
<text text-anchor="middle" x="156" y="-63.5" font-family="Helvetica,sans-Serif" font-size="10.00">base/std_ext/string.h</text>
</a>
</g>
</g>
<!-- Node0&#45;&gt;Node1 -->
<g id="edge1" class="edge"><title>Node0&#45;&gt;Node1</title>
<path fill="none" stroke="midnightblue" d="M590.196,-114.753C499.5,-104.778 322.284,-85.2879 224.636,-74.5485"/>
<polygon fill="midnightblue" stroke="midnightblue" points="224.898,-71.0563 214.575,-73.442 224.132,-78.0144 224.898,-71.0563"/>
</g>
<!-- Node2 -->
<g id="node3" class="node"><title>Node2</title>
<polygon fill="white" stroke="#bfbfbf" points="0,-0.5 0,-19.5 44,-19.5 44,-0.5 0,-0.5"/>
<text text-anchor="middle" x="22" y="-7.5" font-family="Helvetica,sans-Serif" font-size="10.00">string</text>
</g>
<!-- Node0&#45;&gt;Node2 -->
<g id="edge20" class="edge"><title>Node0&#45;&gt;Node2</title>
<path fill="none" stroke="midnightblue" d="M590.238,-121.296C466.466,-121.162 176.317,-116.402 88,-76 65.0165,-65.4858 45.3788,-43.3847 33.6406,-27.8853"/>
<polygon fill="midnightblue" stroke="midnightblue" points="36.3803,-25.7011 27.6766,-19.6598 30.7131,-29.8102 36.3803,-25.7011"/>
</g>
<!-- Node6 -->
<g id="node7" class="node"><title>Node6</title>
<g id="a_node7"><a xlink:href="misc_8h.html" target="_top" xlink:title="base/std_ext/misc.h">
<polygon fill="white" stroke="black" points="336.5,-56.5 336.5,-75.5 449.5,-75.5 449.5,-56.5 336.5,-56.5"/>
<text text-anchor="middle" x="393" y="-63.5" font-family="Helvetica,sans-Serif" font-size="10.00">base/std_ext/misc.h</text>
</a>
</g>
</g>
<!-- Node0&#45;&gt;Node6 -->
<g id="edge6" class="edge"><title>Node0&#45;&gt;Node6</title>
<path fill="none" stroke="midnightblue" d="M606.753,-112.444C562.35,-103.004 490.847,-87.802 442.912,-77.6111"/>
<polygon fill="midnightblue" stroke="midnightblue" points="443.568,-74.1725 433.059,-75.5164 442.112,-81.0195 443.568,-74.1725"/>
</g>
<!-- Node7 -->
<g id="node8" class="node"><title>Node7</title>
<polygon fill="white" stroke="#bfbfbf" points="282.5,-0.5 282.5,-19.5 345.5,-19.5 345.5,-0.5 282.5,-0.5"/>
<text text-anchor="middle" x="314" y="-7.5" font-family="Helvetica,sans-Serif" font-size="10.00">functional</text>
</g>
<!-- Node0&#45;&gt;Node7 -->
<g id="edge24" class="edge"><title>Node0&#45;&gt;Node7</title>
<path fill="none" stroke="midnightblue" d="M590.203,-120.65C508.6,-118.916 363.922,-110.851 327,-76 314.596,-64.2915 312.197,-44.3519 312.376,-29.6373"/>
<polygon fill="midnightblue" stroke="midnightblue" points="315.873,-29.7934 312.893,-19.6263 308.882,-29.4327 315.873,-29.7934"/>
</g>
<!-- Node11 -->
<g id="node12" class="node"><title>Node11</title>
<polygon fill="white" stroke="#bfbfbf" points="589.5,-0.5 589.5,-19.5 646.5,-19.5 646.5,-0.5 589.5,-0.5"/>
<text text-anchor="middle" x="618" y="-7.5" font-family="Helvetica,sans-Serif" font-size="10.00">memory</text>
</g>
<!-- Node0&#45;&gt;Node11 -->
<g id="edge19" class="edge"><title>Node0&#45;&gt;Node11</title>
<path fill="none" stroke="midnightblue" d="M590.218,-119.775C557.337,-115.773 518.342,-104.684 497,-76 491.694,-68.8685 491.927,-63.2991 497,-56 506.753,-41.9672 547.823,-28.6848 579.438,-20.2382"/>
<polygon fill="midnightblue" stroke="midnightblue" points="580.521,-23.5732 589.319,-17.6709 578.76,-16.7982 580.521,-23.5732"/>
</g>
<!-- Node12 -->
<g id="node13" class="node"><title>Node12</title>
<polygon fill="white" stroke="#bfbfbf" points="506,-56.5 506,-75.5 552,-75.5 552,-56.5 506,-56.5"/>
<text text-anchor="middle" x="529" y="-63.5" font-family="Helvetica,sans-Serif" font-size="10.00">TFile.h</text>
</g>
<!-- Node0&#45;&gt;Node12 -->
<g id="edge13" class="edge"><title>Node0&#45;&gt;Node12</title>
<path fill="none" stroke="midnightblue" d="M628.303,-112.444C609.056,-103.636 578.848,-89.8116 556.8,-79.722"/>
<polygon fill="midnightblue" stroke="midnightblue" points="558.16,-76.4951 547.61,-75.5164 555.247,-82.8603 558.16,-76.4951"/>
</g>
<!-- Node13 -->
<g id="node14" class="node"><title>Node13</title>
<polygon fill="white" stroke="#bfbfbf" points="570.5,-56.5 570.5,-75.5 643.5,-75.5 643.5,-56.5 570.5,-56.5"/>
<text text-anchor="middle" x="607" y="-63.5" font-family="Helvetica,sans-Serif" font-size="10.00">TDirectory.h</text>
</g>
<!-- Node0&#45;&gt;Node13 -->
<g id="edge14" class="edge"><title>Node0&#45;&gt;Node13</title>
<path fill="none" stroke="midnightblue" d="M640.395,-112.083C634.745,-104.455 626.455,-93.2645 619.549,-83.9408"/>
<polygon fill="midnightblue" stroke="midnightblue" points="622.247,-81.7034 613.482,-75.7511 616.622,-85.87 622.247,-81.7034"/>
</g>
<!-- Node14 -->
<g id="node15" class="node"><title>Node14</title>
<polygon fill="white" stroke="#bfbfbf" points="661.5,-56.5 661.5,-75.5 714.5,-75.5 714.5,-56.5 661.5,-56.5"/>
<text text-anchor="middle" x="688" y="-63.5" font-family="Helvetica,sans-Serif" font-size="10.00">TError.h</text>
</g>
<!-- Node0&#45;&gt;Node14 -->
<g id="edge15" class="edge"><title>Node0&#45;&gt;Node14</title>
<path fill="none" stroke="midnightblue" d="M653.77,-112.083C659.562,-104.455 668.058,-93.2645 675.138,-83.9408"/>
<polygon fill="midnightblue" stroke="midnightblue" points="678.096,-85.8321 681.356,-75.7511 672.521,-81.5991 678.096,-85.8321"/>
</g>
<!-- Node15 -->
<g id="node16" class="node"><title>Node15</title>
<polygon fill="white" stroke="#bfbfbf" points="732.5,-56.5 732.5,-75.5 779.5,-75.5 779.5,-56.5 732.5,-56.5"/>
<text text-anchor="middle" x="756" y="-63.5" font-family="Helvetica,sans-Serif" font-size="10.00">TList.h</text>
</g>
<!-- Node0&#45;&gt;Node15 -->
<g id="edge16" class="edge"><title>Node0&#45;&gt;Node15</title>
<path fill="none" stroke="midnightblue" d="M664.513,-112.324C682.072,-103.625 709.331,-90.1202 729.531,-80.113"/>
<polygon fill="midnightblue" stroke="midnightblue" points="731.124,-83.23 738.531,-75.6545 728.016,-76.9575 731.124,-83.23"/>
</g>
<!-- Node16 -->
<g id="node17" class="node"><title>Node16</title>
<polygon fill="white" stroke="#bfbfbf" points="797.5,-56.5 797.5,-75.5 874.5,-75.5 874.5,-56.5 797.5,-56.5"/>
<text text-anchor="middle" x="836" y="-63.5" font-family="Helvetica,sans-Serif" font-size="10.00">TCollection.h</text>
</g>
<!-- Node0&#45;&gt;Node16 -->
<g id="edge17" class="edge"><title>Node0&#45;&gt;Node16</title>
<path fill="none" stroke="midnightblue" d="M676.948,-112.444C709.158,-103.241 760.534,-88.5617 796.142,-78.3879"/>
<polygon fill="midnightblue" stroke="midnightblue" points="797.539,-81.629 806.192,-75.5164 795.616,-74.8984 797.539,-81.629"/>
</g>
<!-- Node17 -->
<g id="node18" class="node"><title>Node17</title>
<polygon fill="white" stroke="#bfbfbf" points="893,-56.5 893,-75.5 939,-75.5 939,-56.5 893,-56.5"/>
<text text-anchor="middle" x="916" y="-63.5" font-family="Helvetica,sans-Serif" font-size="10.00">TKey.h</text>
</g>
<!-- Node0&#45;&gt;Node17 -->
<g id="edge18" class="edge"><title>Node0&#45;&gt;Node17</title>
<path fill="none" stroke="midnightblue" d="M699.053,-112.451C744.995,-104.605 813.968,-92.0979 882.833,-76.1121"/>
<polygon fill="midnightblue" stroke="midnightblue" points="884.054,-79.4207 892.99,-73.7285 882.455,-72.6059 884.054,-79.4207"/>
</g>
<!-- Node18 -->
<g id="node19" class="node"><title>Node18</title>
<polygon fill="white" stroke="#bfbfbf" points="957,-56.5 957,-75.5 987,-75.5 987,-56.5 957,-56.5"/>
<text text-anchor="middle" x="972" y="-63.5" font-family="Helvetica,sans-Serif" font-size="10.00">list</text>
</g>
<!-- Node0&#45;&gt;Node18 -->
<g id="edge21" class="edge"><title>Node0&#45;&gt;Node18</title>
<path fill="none" stroke="midnightblue" d="M703.741,-116.109C762.642,-110.232 857.419,-98.5335 947.135,-75.7401"/>
<polygon fill="midnightblue" stroke="midnightblue" points="948.118,-79.1011 956.92,-73.2041 946.361,-72.325 948.118,-79.1011"/>
</g>
<!-- Node19 -->
<g id="node20" class="node"><title>Node19</title>
<polygon fill="white" stroke="#bfbfbf" points="1005,-56.5 1005,-75.5 1037,-75.5 1037,-56.5 1005,-56.5"/>
<text text-anchor="middle" x="1021" y="-63.5" font-family="Helvetica,sans-Serif" font-size="10.00">set</text>
</g>
<!-- Node0&#45;&gt;Node19 -->
<g id="edge22" class="edge"><title>Node0&#45;&gt;Node19</title>
<path fill="none" stroke="midnightblue" d="M703.596,-117.497C771.095,-112.481 887.296,-101.192 994.716,-75.8402"/>
<polygon fill="midnightblue" stroke="midnightblue" points="995.846,-79.1682 1004.75,-73.4246 994.208,-72.3627 995.846,-79.1682"/>
</g>
<!-- Node20 -->
<g id="node21" class="node"><title>Node20</title>
<polygon fill="white" stroke="#bfbfbf" points="1055,-56.5 1055,-75.5 1119,-75.5 1119,-56.5 1055,-56.5"/>
<text text-anchor="middle" x="1087" y="-63.5" font-family="Helvetica,sans-Serif" font-size="10.00">stdexcept</text>
</g>
<!-- Node0&#45;&gt;Node20 -->
<g id="edge23" class="edge"><title>Node0&#45;&gt;Node20</title>
<path fill="none" stroke="midnightblue" d="M703.75,-116.467C779.383,-110.011 917.547,-96.7774 1044.9,-76.0288"/>
<polygon fill="midnightblue" stroke="midnightblue" points="1045.53,-79.4718 1054.83,-74.3918 1044.4,-72.565 1045.53,-79.4718"/>
</g>
<!-- Node1&#45;&gt;Node2 -->
<g id="edge2" class="edge"><title>Node1&#45;&gt;Node2</title>
<path fill="none" stroke="midnightblue" d="M134.767,-56.4435C112.616,-47.5171 77.6813,-33.4387 52.564,-23.3168"/>
<polygon fill="midnightblue" stroke="midnightblue" points="53.7168,-20.0079 43.1334,-19.5164 51.1003,-26.5006 53.7168,-20.0079"/>
</g>
<!-- Node3 -->
<g id="node4" class="node"><title>Node3</title>
<polygon fill="white" stroke="#bfbfbf" points="128,-0.5 128,-19.5 184,-19.5 184,-0.5 128,-0.5"/>
<text text-anchor="middle" x="156" y="-7.5" font-family="Helvetica,sans-Serif" font-size="10.00">sstream</text>
</g>
<!-- Node1&#45;&gt;Node3 -->
<g id="edge3" class="edge"><title>Node1&#45;&gt;Node3</title>
<path fill="none" stroke="midnightblue" d="M156,-56.083C156,-49.0059 156,-38.8611 156,-29.9865"/>
<polygon fill="midnightblue" stroke="midnightblue" points="159.5,-29.751 156,-19.7511 152.5,-29.7511 159.5,-29.751"/>
</g>
<!-- Node4 -->
<g id="node5" class="node"><title>Node4</title>
<polygon fill="white" stroke="#bfbfbf" points="202,-0.5 202,-19.5 264,-19.5 264,-0.5 202,-0.5"/>
<text text-anchor="middle" x="233" y="-7.5" font-family="Helvetica,sans-Serif" font-size="10.00">algorithm</text>
</g>
<!-- Node1&#45;&gt;Node4 -->
<g id="edge4" class="edge"><title>Node1&#45;&gt;Node4</title>
<path fill="none" stroke="midnightblue" d="M168.371,-56.324C180.158,-48.0577 198.132,-35.4527 212.136,-25.6322"/>
<polygon fill="midnightblue" stroke="midnightblue" points="214.482,-28.2619 220.659,-19.6545 210.462,-22.5307 214.482,-28.2619"/>
</g>
<!-- Node5 -->
<g id="node6" class="node"><title>Node5</title>
<polygon fill="white" stroke="#bfbfbf" points="62.5,-0.5 62.5,-19.5 109.5,-19.5 109.5,-0.5 62.5,-0.5"/>
<text text-anchor="middle" x="86" y="-7.5" font-family="Helvetica,sans-Serif" font-size="10.00">vector</text>
</g>
<!-- Node1&#45;&gt;Node5 -->
<g id="edge5" class="edge"><title>Node1&#45;&gt;Node5</title>
<path fill="none" stroke="midnightblue" d="M144.753,-56.324C134.203,-48.1849 118.199,-35.8395 105.558,-26.0874"/>
<polygon fill="midnightblue" stroke="midnightblue" points="107.507,-23.1707 97.4513,-19.8339 103.231,-28.7132 107.507,-23.1707"/>
</g>
<!-- Node6&#45;&gt;Node4 -->
<g id="edge7" class="edge"><title>Node6&#45;&gt;Node4</title>
<path fill="none" stroke="midnightblue" d="M367.648,-56.4435C340.731,-47.3591 298.004,-32.9388 267.913,-22.7831"/>
<polygon fill="midnightblue" stroke="midnightblue" points="268.828,-19.3981 258.234,-19.5164 266.59,-26.0305 268.828,-19.3981"/>
</g>
<!-- Node6&#45;&gt;Node7 -->
<g id="edge8" class="edge"><title>Node6&#45;&gt;Node7</title>
<path fill="none" stroke="midnightblue" d="M380.307,-56.324C368.099,-47.979 349.422,-35.2122 334.997,-25.3524"/>
<polygon fill="midnightblue" stroke="midnightblue" points="336.892,-22.4082 326.661,-19.6545 332.942,-28.1871 336.892,-22.4082"/>
</g>
<!-- Node8 -->
<g id="node9" class="node"><title>Node8</title>
<polygon fill="white" stroke="#bfbfbf" points="363.5,-0.5 363.5,-19.5 410.5,-19.5 410.5,-0.5 363.5,-0.5"/>
<text text-anchor="middle" x="387" y="-7.5" font-family="Helvetica,sans-Serif" font-size="10.00">cmath</text>
</g>
<!-- Node6&#45;&gt;Node8 -->
<g id="edge9" class="edge"><title>Node6&#45;&gt;Node8</title>
<path fill="none" stroke="midnightblue" d="M392.009,-56.083C391.214,-48.9272 390.071,-38.6353 389.077,-29.6911"/>
<polygon fill="midnightblue" stroke="midnightblue" points="392.555,-29.3034 387.972,-19.7511 385.598,-30.0765 392.555,-29.3034"/>
</g>
<!-- Node9 -->
<g id="node10" class="node"><title>Node9</title>
<polygon fill="white" stroke="#bfbfbf" points="429,-0.5 429,-19.5 485,-19.5 485,-0.5 429,-0.5"/>
<text text-anchor="middle" x="457" y="-7.5" font-family="Helvetica,sans-Serif" font-size="10.00">cxxabi.h</text>
</g>
<!-- Node6&#45;&gt;Node9 -->
<g id="edge10" class="edge"><title>Node6&#45;&gt;Node9</title>
<path fill="none" stroke="midnightblue" d="M403.283,-56.324C412.836,-48.2631 427.28,-36.0765 438.784,-26.3695"/>
<polygon fill="midnightblue" stroke="midnightblue" points="441.144,-28.9577 446.53,-19.8339 436.63,-23.6076 441.144,-28.9577"/>
</g>
<!-- Node10 -->
<g id="node11" class="node"><title>Node10</title>
<polygon fill="white" stroke="#bfbfbf" points="503,-0.5 503,-19.5 571,-19.5 571,-0.5 503,-0.5"/>
<text text-anchor="middle" x="537" y="-7.5" font-family="Helvetica,sans-Serif" font-size="10.00">type_traits</text>
</g>
<!-- Node6&#45;&gt;Node10 -->
<g id="edge11" class="edge"><title>Node6&#45;&gt;Node10</title>
<path fill="none" stroke="midnightblue" d="M415.817,-56.4435C439.832,-47.4381 477.829,-33.1891 504.869,-23.049"/>
<polygon fill="midnightblue" stroke="midnightblue" points="506.155,-26.3049 514.29,-19.5164 503.697,-19.7506 506.155,-26.3049"/>
</g>
<!-- Node6&#45;&gt;Node11 -->
<g id="edge12" class="edge"><title>Node6&#45;&gt;Node11</title>
<path fill="none" stroke="midnightblue" d="M428.652,-56.4435C469.748,-46.5804 537.053,-30.4272 579.369,-20.2715"/>
<polygon fill="midnightblue" stroke="midnightblue" points="580.39,-23.6258 589.297,-17.8886 578.757,-16.8191 580.39,-23.6258"/>
</g>
</g>
</svg>
