<?xml version="1.0" encoding="UTF-8" standalone="no"?>
<!DOCTYPE svg PUBLIC "-//W3C//DTD SVG 1.1//EN"
 "http://www.w3.org/Graphics/SVG/1.1/DTD/svg11.dtd">
<!-- Generated by graphviz version 2.38.0 (20140413.2041)
 -->
<!-- Title: src/root&#45;addons/analysis_codes/histtools.cc Pages: 1 -->
<svg width="833pt" height="151pt"
 viewBox="0.00 0.00 832.50 151.00" xmlns="http://www.w3.org/2000/svg" xmlns:xlink="http://www.w3.org/1999/xlink">
<g id="graph0" class="graph" transform="scale(1 1) rotate(0) translate(4 147)">
<title>src/root&#45;addons/analysis_codes/histtools.cc</title>
<polygon fill="white" stroke="none" points="-4,4 -4,-147 828.5,-147 828.5,4 -4,4"/>
<!-- Node0 -->
<g id="node1" class="node"><title>Node0</title>
<polygon fill="#bfbfbf" stroke="black" points="332,-112.5 332,-142.5 466,-142.5 466,-112.5 332,-112.5"/>
<text text-anchor="start" x="340" y="-130.5" font-family="Helvetica,sans-Serif" font-size="10.00">src/root&#45;addons/analysis</text>
<text text-anchor="middle" x="399" y="-119.5" font-family="Helvetica,sans-Serif" font-size="10.00">_codes/histtools.cc</text>
</g>
<!-- Node1 -->
<g id="node2" class="node"><title>Node1</title>
<g id="a_node2"><a xlink:href="histtools_8h.html" target="_top" xlink:title="histtools.h">
<polygon fill="white" stroke="black" points="0,-56.5 0,-75.5 66,-75.5 66,-56.5 0,-56.5"/>
<text text-anchor="middle" x="33" y="-63.5" font-family="Helvetica,sans-Serif" font-size="10.00">histtools.h</text>
</a>
</g>
</g>
<!-- Node0&#45;&gt;Node1 -->
<g id="edge1" class="edge"><title>Node0&#45;&gt;Node1</title>
<path fill="none" stroke="midnightblue" d="M331.992,-116.534C267.37,-106.771 166.855,-91.1867 80,-76 78.7341,-75.7786 77.4495,-75.5512 76.1532,-75.3192"/>
<polygon fill="midnightblue" stroke="midnightblue" points="76.5667,-71.8367 66.0995,-73.4767 75.3048,-78.7221 76.5667,-71.8367"/>
</g>
<!-- Node3 -->
<g id="node4" class="node"><title>Node3</title>
<g id="a_node4"><a xlink:href="string_8h.html" target="_top" xlink:title="base/std_ext/string.h">
<polygon fill="white" stroke="black" points="122.5,-56.5 122.5,-75.5 239.5,-75.5 239.5,-56.5 122.5,-56.5"/>
<text text-anchor="middle" x="181" y="-63.5" font-family="Helvetica,sans-Serif" font-size="10.00">base/std_ext/string.h</text>
</a>
</g>
</g>
<!-- Node0&#45;&gt;Node3 -->
<g id="edge3" class="edge"><title>Node0&#45;&gt;Node3</title>
<path fill="none" stroke="midnightblue" d="M347.613,-112.475C309.347,-102.03 257.786,-87.9576 222.207,-78.2469"/>
<polygon fill="midnightblue" stroke="midnightblue" points="222.735,-74.763 212.166,-75.5064 220.892,-81.516 222.735,-74.763"/>
</g>
<!-- Node4 -->
<g id="node5" class="node"><title>Node4</title>
<polygon fill="white" stroke="#bfbfbf" points="72,-0.5 72,-19.5 116,-19.5 116,-0.5 72,-0.5"/>
<text text-anchor="middle" x="94" y="-7.5" font-family="Helvetica,sans-Serif" font-size="10.00">string</text>
</g>
<!-- Node0&#45;&gt;Node4 -->
<g id="edge9" class="edge"><title>Node0&#45;&gt;Node4</title>
<path fill="none" stroke="midnightblue" d="M331.7,-122.695C257.519,-117.141 144.497,-104.221 113,-76 100.021,-64.3714 95.7024,-44.4192 94.3662,-29.6798"/>
<polygon fill="midnightblue" stroke="midnightblue" points="97.8589,-29.4484 93.8317,-19.6488 90.8688,-29.8209 97.8589,-29.4484"/>
</g>
<!-- Node6 -->
<g id="node7" class="node"><title>Node6</title>
<polygon fill="white" stroke="#bfbfbf" points="208,-0.5 208,-19.5 270,-19.5 270,-0.5 208,-0.5"/>
<text text-anchor="middle" x="239" y="-7.5" font-family="Helvetica,sans-Serif" font-size="10.00">algorithm</text>
</g>
<!-- Node0&#45;&gt;Node6 -->
<g id="edge11" class="edge"><title>Node0&#45;&gt;Node6</title>
<path fill="none" stroke="midnightblue" d="M372.22,-112.496C354.824,-102.987 331.944,-89.6924 313,-76 291.915,-60.7605 269.756,-40.6772 255.246,-26.8899"/>
<polygon fill="midnightblue" stroke="midnightblue" points="257.285,-23.9952 247.652,-19.5839 252.432,-29.0395 257.285,-23.9952"/>
</g>
<!-- Node7 -->
<g id="node8" class="node"><title>Node7</title>
<polygon fill="white" stroke="#bfbfbf" points="288.5,-0.5 288.5,-19.5 335.5,-19.5 335.5,-0.5 288.5,-0.5"/>
<text text-anchor="middle" x="312" y="-7.5" font-family="Helvetica,sans-Serif" font-size="10.00">vector</text>
</g>
<!-- Node0&#45;&gt;Node7 -->
<g id="edge10" class="edge"><title>Node0&#45;&gt;Node7</title>
<path fill="none" stroke="midnightblue" d="M368.519,-112.327C353.511,-103.836 336.443,-91.6342 326,-76 316.884,-62.3512 313.575,-43.8121 312.435,-30.0255"/>
<polygon fill="midnightblue" stroke="midnightblue" points="315.917,-29.5813 311.908,-19.7744 308.926,-29.941 315.917,-29.5813"/>
</g>
<!-- Node8 -->
<g id="node9" class="node"><title>Node8</title>
<polygon fill="white" stroke="#bfbfbf" points="334.5,-56.5 334.5,-75.5 393.5,-75.5 393.5,-56.5 334.5,-56.5"/>
<text text-anchor="middle" x="364" y="-63.5" font-family="Helvetica,sans-Serif" font-size="10.00">iostream</text>
</g>
<!-- Node0&#45;&gt;Node8 -->
<g id="edge8" class="edge"><title>Node0&#45;&gt;Node8</title>
<path fill="none" stroke="midnightblue" d="M390.705,-112.399C385.777,-104.021 379.486,-93.3269 374.249,-84.4229"/>
<polygon fill="midnightblue" stroke="midnightblue" points="377.18,-82.5025 369.093,-75.6578 371.146,-86.0517 377.18,-82.5025"/>
</g>
<!-- Node9 -->
<g id="node10" class="node"><title>Node9</title>
<polygon fill="white" stroke="#bfbfbf" points="412,-56.5 412,-75.5 456,-75.5 456,-56.5 412,-56.5"/>
<text text-anchor="middle" x="434" y="-63.5" font-family="Helvetica,sans-Serif" font-size="10.00">TH1.h</text>
</g>
<!-- Node0&#45;&gt;Node9 -->
<g id="edge12" class="edge"><title>Node0&#45;&gt;Node9</title>
<path fill="none" stroke="midnightblue" d="M407.295,-112.399C412.223,-104.021 418.514,-93.3269 423.751,-84.4229"/>
<polygon fill="midnightblue" stroke="midnightblue" points="426.854,-86.0517 428.907,-75.6578 420.82,-82.5025 426.854,-86.0517"/>
</g>
<!-- Node10 -->
<g id="node11" class="node"><title>Node10</title>
<polygon fill="white" stroke="#bfbfbf" points="474,-56.5 474,-75.5 518,-75.5 518,-56.5 474,-56.5"/>
<text text-anchor="middle" x="496" y="-63.5" font-family="Helvetica,sans-Serif" font-size="10.00">TH2.h</text>
</g>
<!-- Node0&#45;&gt;Node10 -->
<g id="edge13" class="edge"><title>Node0&#45;&gt;Node10</title>
<path fill="none" stroke="midnightblue" d="M421.988,-112.399C437.391,-102.951 457.593,-90.5589 472.999,-81.1089"/>
<polygon fill="midnightblue" stroke="midnightblue" points="475.192,-83.87 481.886,-75.6578 471.531,-77.9031 475.192,-83.87"/>
</g>
<!-- Node11 -->
<g id="node12" class="node"><title>Node11</title>
<polygon fill="white" stroke="#bfbfbf" points="536,-56.5 536,-75.5 588,-75.5 588,-56.5 536,-56.5"/>
<text text-anchor="middle" x="562" y="-63.5" font-family="Helvetica,sans-Serif" font-size="10.00">TH1D.h</text>
</g>
<!-- Node0&#45;&gt;Node11 -->
<g id="edge14" class="edge"><title>Node0&#45;&gt;Node11</title>
<path fill="none" stroke="midnightblue" d="M437.629,-112.399C465.344,-102.283 502.305,-88.7905 528.717,-79.1493"/>
<polygon fill="midnightblue" stroke="midnightblue" points="530.089,-82.3746 538.282,-75.6578 527.688,-75.799 530.089,-82.3746"/>
</g>
<!-- Node12 -->
<g id="node13" class="node"><title>Node12</title>
<polygon fill="white" stroke="#bfbfbf" points="606,-56.5 606,-75.5 666,-75.5 666,-56.5 606,-56.5"/>
<text text-anchor="middle" x="636" y="-63.5" font-family="Helvetica,sans-Serif" font-size="10.00">TGraph.h</text>
</g>
<!-- Node0&#45;&gt;Node12 -->
<g id="edge15" class="edge"><title>Node0&#45;&gt;Node12</title>
<path fill="none" stroke="midnightblue" d="M454.866,-112.475C498.206,-101.594 557.233,-86.7748 595.959,-77.0526"/>
<polygon fill="midnightblue" stroke="midnightblue" points="596.982,-80.4045 605.828,-74.5748 595.277,-73.6152 596.982,-80.4045"/>
</g>
<!-- Node13 -->
<g id="node14" class="node"><title>Node13</title>
<polygon fill="white" stroke="#bfbfbf" points="684.5,-56.5 684.5,-75.5 749.5,-75.5 749.5,-56.5 684.5,-56.5"/>
<text text-anchor="middle" x="717" y="-63.5" font-family="Helvetica,sans-Serif" font-size="10.00">TCanvas.h</text>
</g>
<!-- Node0&#45;&gt;Node13 -->
<g id="edge16" class="edge"><title>Node0&#45;&gt;Node13</title>
<path fill="none" stroke="midnightblue" d="M466.033,-114.817C519.696,-105.331 597.141,-91.3421 674.533,-76.0437"/>
<polygon fill="midnightblue" stroke="midnightblue" points="675.333,-79.4532 684.461,-74.0738 673.971,-72.5871 675.333,-79.4532"/>
</g>
<!-- Node14 -->
<g id="node15" class="node"><title>Node14</title>
<polygon fill="white" stroke="#bfbfbf" points="767.5,-56.5 767.5,-75.5 824.5,-75.5 824.5,-56.5 767.5,-56.5"/>
<text text-anchor="middle" x="796" y="-63.5" font-family="Helvetica,sans-Serif" font-size="10.00">TLatex.h</text>
</g>
<!-- Node0&#45;&gt;Node14 -->
<g id="edge17" class="edge"><title>Node0&#45;&gt;Node14</title>
<path fill="none" stroke="midnightblue" d="M466.008,-119.117C536.354,-110.911 650.335,-96.3316 757.375,-76.1643"/>
<polygon fill="midnightblue" stroke="midnightblue" points="758.209,-79.5684 767.378,-74.2592 756.9,-72.692 758.209,-79.5684"/>
</g>
<!-- Node2 -->
<g id="node3" class="node"><title>Node2</title>
<polygon fill="white" stroke="#bfbfbf" points="12,-0.5 12,-19.5 54,-19.5 54,-0.5 12,-0.5"/>
<text text-anchor="middle" x="33" y="-7.5" font-family="Helvetica,sans-Serif" font-size="10.00">utility</text>
</g>
<!-- Node1&#45;&gt;Node2 -->
<g id="edge2" class="edge"><title>Node1&#45;&gt;Node2</title>
<path fill="none" stroke="midnightblue" d="M33,-56.083C33,-49.0059 33,-38.8611 33,-29.9865"/>
<polygon fill="midnightblue" stroke="midnightblue" points="36.5001,-29.751 33,-19.7511 29.5001,-29.7511 36.5001,-29.751"/>
</g>
<!-- Node3&#45;&gt;Node4 -->
<g id="edge4" class="edge"><title>Node3&#45;&gt;Node4</title>
<path fill="none" stroke="midnightblue" d="M167.022,-56.324C153.45,-47.9002 132.62,-34.9709 116.675,-25.0741"/>
<polygon fill="midnightblue" stroke="midnightblue" points="118.286,-21.9544 107.943,-19.6545 114.594,-27.9019 118.286,-21.9544"/>
</g>
<!-- Node5 -->
<g id="node6" class="node"><title>Node5</title>
<polygon fill="white" stroke="#bfbfbf" points="134,-0.5 134,-19.5 190,-19.5 190,-0.5 134,-0.5"/>
<text text-anchor="middle" x="162" y="-7.5" font-family="Helvetica,sans-Serif" font-size="10.00">sstream</text>
</g>
<!-- Node3&#45;&gt;Node5 -->
<g id="edge5" class="edge"><title>Node3&#45;&gt;Node5</title>
<path fill="none" stroke="midnightblue" d="M177.863,-56.083C175.317,-48.8486 171.644,-38.4087 168.473,-29.3968"/>
<polygon fill="midnightblue" stroke="midnightblue" points="171.7,-28.0225 165.079,-19.7511 165.097,-30.3459 171.7,-28.0225"/>
</g>
<!-- Node3&#45;&gt;Node6 -->
<g id="edge6" class="edge"><title>Node3&#45;&gt;Node6</title>
<path fill="none" stroke="midnightblue" d="M190.319,-56.324C198.893,-48.3414 211.812,-36.3128 222.188,-26.6529"/>
<polygon fill="midnightblue" stroke="midnightblue" points="224.578,-29.2098 229.512,-19.8339 219.808,-24.0865 224.578,-29.2098"/>
</g>
<!-- Node3&#45;&gt;Node7 -->
<g id="edge7" class="edge"><title>Node3&#45;&gt;Node7</title>
<path fill="none" stroke="midnightblue" d="M201.757,-56.4435C223.316,-47.5566 257.263,-33.5632 281.794,-23.4514"/>
<polygon fill="midnightblue" stroke="midnightblue" points="283.428,-26.5634 291.34,-19.5164 280.761,-20.0917 283.428,-26.5634"/>
</g>
</g>
</svg>
