<?xml version="1.0" encoding="UTF-8" standalone="no"?>
<!DOCTYPE svg PUBLIC "-//W3C//DTD SVG 1.1//EN"
 "http://www.w3.org/Graphics/SVG/1.1/DTD/svg11.dtd">
<!-- Generated by graphviz version 2.38.0 (20140413.2041)
 -->
<!-- Title: Graphical Class Hierarchy Pages: 1 -->
<svg width="619pt" height="1105pt"
 viewBox="0.00 0.00 619.00 1105.00" xmlns="http://www.w3.org/2000/svg" xmlns:xlink="http://www.w3.org/1999/xlink">
<g id="graph0" class="graph" transform="scale(1 1) rotate(0) translate(4 1101)">
<title>Graphical Class Hierarchy</title>
<polygon fill="white" stroke="none" points="-4,4 -4,-1101 615,-1101 615,4 -4,4"/>
<!-- Node936 -->
<g id="node1" class="node"><title>Node936</title>
<g id="a_node1"><a xlink:title="STL class. ">
<polygon fill="white" stroke="#bfbfbf" points="0,-516 0,-535 84,-535 84,-516 0,-516"/>
<text text-anchor="middle" x="42" y="-523" font-family="Helvetica,sans-Serif" font-size="10.00">std::exception</text>
</a>
</g>
</g>
<!-- Node937 -->
<g id="node2" class="node"><title>Node937</title>
<g id="a_node2"><a xlink:title="STL class. ">
<polygon fill="white" stroke="#bfbfbf" points="120,-516 120,-535 224,-535 224,-516 120,-516"/>
<text text-anchor="middle" x="172" y="-523" font-family="Helvetica,sans-Serif" font-size="10.00">std::runtime_error</text>
</a>
</g>
</g>
<!-- Node936&#45;&gt;Node937 -->
<g id="edge1" class="edge"><title>Node936&#45;&gt;Node937</title>
<path fill="none" stroke="midnightblue" d="M94.4707,-525.5C102.732,-525.5 111.284,-525.5 119.545,-525.5"/>
<polygon fill="midnightblue" stroke="midnightblue" points="94.2046,-522 84.2046,-525.5 94.2045,-529 94.2046,-522"/>
</g>
<!-- Node0 -->
<g id="node3" class="node"><title>Node0</title>
<g id="a_node3"><a xlink:href="structant_1_1analysis_1_1_histogram_factory_1_1_exception.html" target="_top" xlink:title="ant::analysis::Histogram\lFactory::Exception">
<polygon fill="white" stroke="black" points="273.5,-1066.5 273.5,-1096.5 406.5,-1096.5 406.5,-1066.5 273.5,-1066.5"/>
<text text-anchor="start" x="281.5" y="-1084.5" font-family="Helvetica,sans-Serif" font-size="10.00">ant::analysis::Histogram</text>
<text text-anchor="middle" x="340" y="-1073.5" font-family="Helvetica,sans-Serif" font-size="10.00">Factory::Exception</text>
</a>
</g>
</g>
<!-- Node937&#45;&gt;Node0 -->
<g id="edge2" class="edge"><title>Node937&#45;&gt;Node0</title>
<path fill="none" stroke="midnightblue" d="M173.521,-545.279C176.203,-632.125 191.129,-978.814 260,-1057.5 263.776,-1061.81 268.301,-1065.37 273.249,-1068.29"/>
<polygon fill="midnightblue" stroke="midnightblue" points="177.017,-545.096 173.23,-535.201 170.02,-545.298 177.017,-545.096"/>
</g>
<!-- Node939 -->
<g id="node4" class="node"><title>Node939</title>
<g id="a_node4"><a xlink:href="classant_1_1analysis_1_1input_1_1_data_reader_1_1_exception.html" target="_top" xlink:title="ant::analysis::input\l::DataReader::Exception">
<polygon fill="white" stroke="black" points="274.5,-1017.5 274.5,-1047.5 405.5,-1047.5 405.5,-1017.5 274.5,-1017.5"/>
<text text-anchor="start" x="282.5" y="-1035.5" font-family="Helvetica,sans-Serif" font-size="10.00">ant::analysis::input</text>
<text text-anchor="middle" x="340" y="-1024.5" font-family="Helvetica,sans-Serif" font-size="10.00">::DataReader::Exception</text>
</a>
</g>
</g>
<!-- Node937&#45;&gt;Node939 -->
<g id="edge3" class="edge"><title>Node937&#45;&gt;Node939</title>
<path fill="none" stroke="midnightblue" d="M173.891,-545.498C177.947,-627.624 197.252,-937.965 260,-1008.5 264.097,-1013.11 269.046,-1016.84 274.446,-1019.87"/>
<polygon fill="midnightblue" stroke="midnightblue" points="177.368,-544.916 173.4,-535.092 170.376,-545.246 177.368,-544.916"/>
</g>
<!-- Node940 -->
<g id="node5" class="node"><title>Node940</title>
<g id="a_node5"><a xlink:href="structant_1_1analysis_1_1_physics_1_1_exception.html" target="_top" xlink:title="ant::analysis::Physics\l::Exception">
<polygon fill="white" stroke="black" points="281,-968.5 281,-998.5 399,-998.5 399,-968.5 281,-968.5"/>
<text text-anchor="start" x="289" y="-986.5" font-family="Helvetica,sans-Serif" font-size="10.00">ant::analysis::Physics</text>
<text text-anchor="middle" x="340" y="-975.5" font-family="Helvetica,sans-Serif" font-size="10.00">::Exception</text>
</a>
</g>
</g>
<!-- Node937&#45;&gt;Node940 -->
<g id="edge4" class="edge"><title>Node937&#45;&gt;Node940</title>
<path fill="none" stroke="midnightblue" d="M174.329,-545.411C179.833,-622.072 203.271,-896.977 260,-959.5 265.683,-965.763 272.942,-970.414 280.75,-973.864"/>
<polygon fill="midnightblue" stroke="midnightblue" points="177.806,-544.961 173.621,-535.228 170.823,-545.447 177.806,-544.961"/>
</g>
<!-- Node942 -->
<g id="node7" class="node"><title>Node942</title>
<g id="a_node7"><a xlink:href="classant_1_1analysis_1_1_physics_manager_1_1_exception.html" target="_top" xlink:title="ant::analysis::PhysicsManager\l::Exception">
<polygon fill="white" stroke="black" points="260,-919.5 260,-949.5 420,-949.5 420,-919.5 260,-919.5"/>
<text text-anchor="start" x="268" y="-937.5" font-family="Helvetica,sans-Serif" font-size="10.00">ant::analysis::PhysicsManager</text>
<text text-anchor="middle" x="340" y="-926.5" font-family="Helvetica,sans-Serif" font-size="10.00">::Exception</text>
</a>
</g>
</g>
<!-- Node937&#45;&gt;Node942 -->
<g id="edge6" class="edge"><title>Node937&#45;&gt;Node942</title>
<path fill="none" stroke="midnightblue" d="M174.878,-545.401C181.963,-616.404 209.279,-855.951 260,-910.5 263.221,-913.964 266.924,-916.934 270.932,-919.479"/>
<polygon fill="midnightblue" stroke="midnightblue" points="178.335,-544.785 173.882,-535.171 171.368,-545.463 178.335,-544.785"/>
</g>
<!-- Node943 -->
<g id="node8" class="node"><title>Node943</title>
<g id="a_node8"><a xlink:href="structant_1_1analysis_1_1_physics_registry_1_1_exception.html" target="_top" xlink:title="ant::analysis::PhysicsRegistry\l::Exception">
<polygon fill="white" stroke="black" points="262.5,-870.5 262.5,-900.5 417.5,-900.5 417.5,-870.5 262.5,-870.5"/>
<text text-anchor="start" x="270.5" y="-888.5" font-family="Helvetica,sans-Serif" font-size="10.00">ant::analysis::PhysicsRegistry</text>
<text text-anchor="middle" x="340" y="-877.5" font-family="Helvetica,sans-Serif" font-size="10.00">::Exception</text>
</a>
</g>
</g>
<!-- Node937&#45;&gt;Node943 -->
<g id="edge7" class="edge"><title>Node937&#45;&gt;Node943</title>
<path fill="none" stroke="midnightblue" d="M175.577,-545.346C184.383,-610.269 215.239,-814.838 260,-861.5 263.275,-864.914 267.018,-867.846 271.054,-870.364"/>
<polygon fill="midnightblue" stroke="midnightblue" points="179.019,-544.678 174.23,-535.227 172.08,-545.601 179.019,-544.678"/>
</g>
<!-- Node944 -->
<g id="node9" class="node"><title>Node944</title>
<g id="a_node9"><a xlink:href="structant_1_1analysis_1_1_plotter_1_1_exception.html" target="_top" xlink:title="ant::analysis::Plotter\l::Exception">
<polygon fill="white" stroke="black" points="283,-821.5 283,-851.5 397,-851.5 397,-821.5 283,-821.5"/>
<text text-anchor="start" x="291" y="-839.5" font-family="Helvetica,sans-Serif" font-size="10.00">ant::analysis::Plotter</text>
<text text-anchor="middle" x="340" y="-828.5" font-family="Helvetica,sans-Serif" font-size="10.00">::Exception</text>
</a>
</g>
</g>
<!-- Node937&#45;&gt;Node944 -->
<g id="edge8" class="edge"><title>Node937&#45;&gt;Node944</title>
<path fill="none" stroke="midnightblue" d="M172.977,-545.093C174.011,-596.497 184.039,-736.493 260,-812.5 266.384,-818.888 274.41,-823.585 282.883,-827.037"/>
<polygon fill="midnightblue" stroke="midnightblue" points="176.476,-544.979 172.872,-535.016 169.477,-545.052 176.476,-544.979"/>
</g>
<!-- Node945 -->
<g id="node10" class="node"><title>Node945</title>
<g id="a_node10"><a xlink:href="structant_1_1analysis_1_1_plotter_registry_1_1_exception.html" target="_top" xlink:title="ant::analysis::PlotterRegistry\l::Exception">
<polygon fill="white" stroke="black" points="264,-772.5 264,-802.5 416,-802.5 416,-772.5 264,-772.5"/>
<text text-anchor="start" x="272" y="-790.5" font-family="Helvetica,sans-Serif" font-size="10.00">ant::analysis::PlotterRegistry</text>
<text text-anchor="middle" x="340" y="-779.5" font-family="Helvetica,sans-Serif" font-size="10.00">::Exception</text>
</a>
</g>
</g>
<!-- Node937&#45;&gt;Node945 -->
<g id="edge9" class="edge"><title>Node937&#45;&gt;Node945</title>
<path fill="none" stroke="midnightblue" d="M174.428,-545.343C178.77,-590.704 195.771,-702.742 260,-763.5 263.645,-766.948 267.769,-769.901 272.175,-772.431"/>
<polygon fill="midnightblue" stroke="midnightblue" points="177.911,-544.986 173.576,-535.319 170.936,-545.579 177.911,-544.986"/>
</g>
<!-- Node946 -->
<g id="node11" class="node"><title>Node946</title>
<g id="a_node11"><a xlink:href="classant_1_1analysis_1_1slowcontrol_1_1_processor_1_1_exception.html" target="_top" xlink:title="ant::analysis::slowcontrol\l::Processor::Exception">
<polygon fill="white" stroke="black" points="272,-723.5 272,-753.5 408,-753.5 408,-723.5 272,-723.5"/>
<text text-anchor="start" x="280" y="-741.5" font-family="Helvetica,sans-Serif" font-size="10.00">ant::analysis::slowcontrol</text>
<text text-anchor="middle" x="340" y="-730.5" font-family="Helvetica,sans-Serif" font-size="10.00">::Processor::Exception</text>
</a>
</g>
</g>
<!-- Node937&#45;&gt;Node946 -->
<g id="edge10" class="edge"><title>Node937&#45;&gt;Node946</title>
<path fill="none" stroke="midnightblue" d="M176.56,-545.364C184.488,-583.771 207.223,-668.474 260,-714.5 263.889,-717.892 268.247,-720.804 272.864,-723.305"/>
<polygon fill="midnightblue" stroke="midnightblue" points="179.973,-544.575 174.631,-535.426 173.101,-545.909 179.973,-544.575"/>
</g>
<!-- Node947 -->
<g id="node12" class="node"><title>Node947</title>
<g id="a_node12"><a xlink:href="structant_1_1analysis_1_1utils_1_1_fitter_1_1_exception.html" target="_top" xlink:title="ant::analysis::utils\l::Fitter::Exception">
<polygon fill="white" stroke="black" points="289,-674.5 289,-704.5 391,-704.5 391,-674.5 289,-674.5"/>
<text text-anchor="start" x="297" y="-692.5" font-family="Helvetica,sans-Serif" font-size="10.00">ant::analysis::utils</text>
<text text-anchor="middle" x="340" y="-681.5" font-family="Helvetica,sans-Serif" font-size="10.00">::Fitter::Exception</text>
</a>
</g>
</g>
<!-- Node937&#45;&gt;Node947 -->
<g id="edge11" class="edge"><title>Node937&#45;&gt;Node947</title>
<path fill="none" stroke="midnightblue" d="M179.812,-544.749C191.485,-574.964 218.176,-633.384 260,-665.5 268.413,-671.96 278.563,-676.691 288.744,-680.153"/>
<polygon fill="midnightblue" stroke="midnightblue" points="183.075,-543.48 176.309,-535.327 176.513,-545.92 183.075,-543.48"/>
</g>
<!-- Node948 -->
<g id="node13" class="node"><title>Node948</title>
<g id="a_node13"><a xlink:href="structant_1_1analysis_1_1utils_1_1_m_c_weighting_1_1_exception.html" target="_top" xlink:title="ant::analysis::utils\l::MCWeighting::Exception">
<polygon fill="white" stroke="black" points="272,-625.5 272,-655.5 408,-655.5 408,-625.5 272,-625.5"/>
<text text-anchor="start" x="280" y="-643.5" font-family="Helvetica,sans-Serif" font-size="10.00">ant::analysis::utils</text>
<text text-anchor="middle" x="340" y="-632.5" font-family="Helvetica,sans-Serif" font-size="10.00">::MCWeighting::Exception</text>
</a>
</g>
</g>
<!-- Node937&#45;&gt;Node948 -->
<g id="edge12" class="edge"><title>Node937&#45;&gt;Node948</title>
<path fill="none" stroke="midnightblue" d="M185.415,-543.184C200.702,-563.692 228.538,-597.15 260,-616.5 265.494,-619.879 271.498,-622.812 277.663,-625.351"/>
<polygon fill="midnightblue" stroke="midnightblue" points="188.191,-541.051 179.482,-535.018 182.528,-545.166 188.191,-541.051"/>
</g>
<!-- Node949 -->
<g id="node14" class="node"><title>Node949</title>
<g id="a_node14"><a xlink:href="structant_1_1analysis_1_1utils_1_1_uncertainty_model_1_1_exception.html" target="_top" xlink:title="ant::analysis::utils\l::UncertaintyModel::Exception">
<polygon fill="white" stroke="black" points="260.5,-576.5 260.5,-606.5 419.5,-606.5 419.5,-576.5 260.5,-576.5"/>
<text text-anchor="start" x="268.5" y="-594.5" font-family="Helvetica,sans-Serif" font-size="10.00">ant::analysis::utils</text>
<text text-anchor="middle" x="340" y="-583.5" font-family="Helvetica,sans-Serif" font-size="10.00">::UncertaintyModel::Exception</text>
</a>
</g>
</g>
<!-- Node937&#45;&gt;Node949 -->
<g id="edge13" class="edge"><title>Node937&#45;&gt;Node949</title>
<path fill="none" stroke="midnightblue" d="M200.635,-539.686C217.532,-548.067 239.726,-558.556 260,-566.5 268.974,-570.016 278.662,-573.404 288.075,-576.491"/>
<polygon fill="midnightblue" stroke="midnightblue" points="201.86,-536.385 191.352,-535.031 198.722,-542.642 201.86,-536.385"/>
</g>
<!-- Node950 -->
<g id="node15" class="node"><title>Node950</title>
<g id="a_node15"><a xlink:href="structant_1_1_bin_settings_1_1_exception.html" target="_top" xlink:title="ant::BinSettings::Exception">
<polygon fill="white" stroke="black" points="267,-538 267,-557 413,-557 413,-538 267,-538"/>
<text text-anchor="middle" x="340" y="-545" font-family="Helvetica,sans-Serif" font-size="10.00">ant::BinSettings::Exception</text>
</a>
</g>
</g>
<!-- Node937&#45;&gt;Node950 -->
<g id="edge14" class="edge"><title>Node937&#45;&gt;Node950</title>
<path fill="none" stroke="midnightblue" d="M234.269,-533.62C245.007,-535.043 256.267,-536.535 267.258,-537.992"/>
<polygon fill="midnightblue" stroke="midnightblue" points="234.533,-530.124 224.16,-532.28 233.613,-537.064 234.533,-530.124"/>
</g>
<!-- Node951 -->
<g id="node16" class="node"><title>Node951</title>
<g id="a_node16"><a xlink:href="classant_1_1calibration_1_1_data_base_1_1_exception.html" target="_top" xlink:title="ant::calibration::DataBase\l::Exception">
<polygon fill="white" stroke="black" points="269.5,-488.5 269.5,-518.5 410.5,-518.5 410.5,-488.5 269.5,-488.5"/>
<text text-anchor="start" x="277.5" y="-506.5" font-family="Helvetica,sans-Serif" font-size="10.00">ant::calibration::DataBase</text>
<text text-anchor="middle" x="340" y="-495.5" font-family="Helvetica,sans-Serif" font-size="10.00">::Exception</text>
</a>
</g>
</g>
<!-- Node937&#45;&gt;Node951 -->
<g id="edge15" class="edge"><title>Node937&#45;&gt;Node951</title>
<path fill="none" stroke="midnightblue" d="M234.077,-517.406C245.565,-515.883 257.658,-514.28 269.385,-512.726"/>
<polygon fill="midnightblue" stroke="midnightblue" points="233.613,-513.936 224.16,-518.72 234.533,-520.876 233.613,-513.936"/>
</g>
<!-- Node952 -->
<g id="node17" class="node"><title>Node952</title>
<g id="a_node17"><a xlink:href="classant_1_1_detector__t_1_1_exception.html" target="_top" xlink:title="ant::Detector_t::Exception">
<polygon fill="white" stroke="black" points="269,-450 269,-469 411,-469 411,-450 269,-450"/>
<text text-anchor="middle" x="340" y="-457" font-family="Helvetica,sans-Serif" font-size="10.00">ant::Detector_t::Exception</text>
</a>
</g>
</g>
<!-- Node937&#45;&gt;Node952 -->
<g id="edge16" class="edge"><title>Node937&#45;&gt;Node952</title>
<path fill="none" stroke="#8b1a1a" d="M197.247,-510.665C214.304,-500.739 237.934,-487.987 260,-479.5 270.564,-475.437 282.24,-471.96 293.302,-469.1"/>
<polygon fill="#8b1a1a" stroke="#8b1a1a" points="195.321,-507.738 188.499,-515.844 198.888,-513.762 195.321,-507.738"/>
</g>
<!-- Node953 -->
<g id="node18" class="node"><title>Node953</title>
<g id="a_node18"><a xlink:href="classant_1_1_exp_config_1_1_exception.html" target="_top" xlink:title="ant::ExpConfig::Exception">
<polygon fill="white" stroke="black" points="271,-412 271,-431 409,-431 409,-412 271,-412"/>
<text text-anchor="middle" x="340" y="-419" font-family="Helvetica,sans-Serif" font-size="10.00">ant::ExpConfig::Exception</text>
</a>
</g>
</g>
<!-- Node937&#45;&gt;Node953 -->
<g id="edge17" class="edge"><title>Node937&#45;&gt;Node953</title>
<path fill="none" stroke="midnightblue" d="M186.182,-507.833C201.682,-488.347 229.228,-457.507 260,-440.5 267.037,-436.611 274.857,-433.511 282.763,-431.043"/>
<polygon fill="midnightblue" stroke="midnightblue" points="183.294,-505.846 179.94,-515.896 188.829,-510.131 183.294,-505.846"/>
</g>
<!-- Node956 -->
<g id="node21" class="node"><title>Node956</title>
<g id="a_node21"><a xlink:href="structant_1_1_interpolator2_d_1_1_exception.html" target="_top" xlink:title="ant::Interpolator2D\l::Exception">
<polygon fill="white" stroke="black" points="286.5,-362.5 286.5,-392.5 393.5,-392.5 393.5,-362.5 286.5,-362.5"/>
<text text-anchor="start" x="294.5" y="-380.5" font-family="Helvetica,sans-Serif" font-size="10.00">ant::Interpolator2D</text>
<text text-anchor="middle" x="340" y="-369.5" font-family="Helvetica,sans-Serif" font-size="10.00">::Exception</text>
</a>
</g>
</g>
<!-- Node937&#45;&gt;Node956 -->
<g id="edge20" class="edge"><title>Node937&#45;&gt;Node956</title>
<path fill="none" stroke="midnightblue" d="M181.397,-506.759C194.413,-479.799 221.98,-430.27 260,-402.5 267.783,-396.815 276.904,-392.394 286.128,-388.963"/>
<polygon fill="midnightblue" stroke="midnightblue" points="178.191,-505.352 177.129,-515.894 184.533,-508.315 178.191,-505.352"/>
</g>
<!-- Node957 -->
<g id="node22" class="node"><title>Node957</title>
<g id="a_node22"><a xlink:href="classant_1_1_raw_file_reader_1_1_exception.html" target="_top" xlink:title="ant::RawFileReader\l::Exception">
<polygon fill="white" stroke="black" points="287.5,-313.5 287.5,-343.5 392.5,-343.5 392.5,-313.5 287.5,-313.5"/>
<text text-anchor="start" x="295.5" y="-331.5" font-family="Helvetica,sans-Serif" font-size="10.00">ant::RawFileReader</text>
<text text-anchor="middle" x="340" y="-320.5" font-family="Helvetica,sans-Serif" font-size="10.00">::Exception</text>
</a>
</g>
</g>
<!-- Node937&#45;&gt;Node957 -->
<g id="edge21" class="edge"><title>Node937&#45;&gt;Node957</title>
<path fill="none" stroke="midnightblue" d="M177.648,-505.531C186.996,-469.788 211.455,-394.764 260,-353.5 267.892,-346.792 277.594,-341.88 287.463,-338.283"/>
<polygon fill="midnightblue" stroke="midnightblue" points="174.145,-505.115 175.133,-515.664 180.939,-506.801 174.145,-505.115"/>
</g>
<!-- Node958 -->
<g id="node23" class="node"><title>Node958</title>
<g id="a_node23"><a xlink:href="classant_1_1_reconstruct_1_1_exception.html" target="_top" xlink:title="ant::Reconstruct::Exception">
<polygon fill="white" stroke="black" points="266.5,-275 266.5,-294 413.5,-294 413.5,-275 266.5,-275"/>
<text text-anchor="middle" x="340" y="-282" font-family="Helvetica,sans-Serif" font-size="10.00">ant::Reconstruct::Exception</text>
</a>
</g>
</g>
<!-- Node937&#45;&gt;Node958 -->
<g id="edge22" class="edge"><title>Node937&#45;&gt;Node958</title>
<path fill="none" stroke="midnightblue" d="M174.766,-505.562C179.733,-461.951 197.825,-357.665 260,-303.5 264.361,-299.701 269.351,-296.631 274.658,-294.155"/>
<polygon fill="midnightblue" stroke="midnightblue" points="171.263,-505.417 173.726,-515.721 178.226,-506.129 171.263,-505.417"/>
</g>
<!-- Node959 -->
<g id="node24" class="node"><title>Node959</title>
<g id="a_node24"><a xlink:href="structant_1_1_savitzky_golay_1_1_exception.html" target="_top" xlink:title="ant::SavitzkyGolay\l::Exception">
<polygon fill="white" stroke="black" points="287.5,-225.5 287.5,-255.5 392.5,-255.5 392.5,-225.5 287.5,-225.5"/>
<text text-anchor="start" x="295.5" y="-243.5" font-family="Helvetica,sans-Serif" font-size="10.00">ant::SavitzkyGolay</text>
<text text-anchor="middle" x="340" y="-232.5" font-family="Helvetica,sans-Serif" font-size="10.00">::Exception</text>
</a>
</g>
</g>
<!-- Node937&#45;&gt;Node959 -->
<g id="edge23" class="edge"><title>Node937&#45;&gt;Node959</title>
<path fill="none" stroke="midnightblue" d="M173.756,-505.873C176.678,-457.865 190.889,-333.486 260,-265.5 267.589,-258.035 277.392,-252.796 287.494,-249.121"/>
<polygon fill="midnightblue" stroke="midnightblue" points="170.26,-505.713 173.249,-515.878 177.251,-506.068 170.26,-505.713"/>
</g>
<!-- Node960 -->
<g id="node25" class="node"><title>Node960</title>
<g id="a_node25"><a xlink:href="structant_1_1unpacker_1_1acqu_1_1_file_format_mk1_1_1_exception.html" target="_top" xlink:title="ant::unpacker::acqu\l::FileFormatMk1::Exception">
<polygon fill="white" stroke="black" points="268,-176.5 268,-206.5 412,-206.5 412,-176.5 268,-176.5"/>
<text text-anchor="start" x="276" y="-194.5" font-family="Helvetica,sans-Serif" font-size="10.00">ant::unpacker::acqu</text>
<text text-anchor="middle" x="340" y="-183.5" font-family="Helvetica,sans-Serif" font-size="10.00">::FileFormatMk1::Exception</text>
</a>
</g>
</g>
<!-- Node937&#45;&gt;Node960 -->
<g id="edge24" class="edge"><title>Node937&#45;&gt;Node960</title>
<path fill="none" stroke="midnightblue" d="M172.452,-505.804C172.054,-451.587 178.592,-298.663 260,-215.5 263.309,-212.12 267.078,-209.212 271.132,-206.711"/>
<polygon fill="midnightblue" stroke="midnightblue" points="168.952,-505.874 172.617,-515.815 175.951,-505.758 168.952,-505.874"/>
</g>
<!-- Node961 -->
<g id="node26" class="node"><title>Node961</title>
<g id="a_node26"><a xlink:href="classant_1_1_unpacker_1_1_exception.html" target="_top" xlink:title="The Exception class is thrown if an unexpected error during unpacking occurs. ">
<polygon fill="white" stroke="black" points="271.5,-138 271.5,-157 408.5,-157 408.5,-138 271.5,-138"/>
<text text-anchor="middle" x="340" y="-145" font-family="Helvetica,sans-Serif" font-size="10.00">ant::Unpacker::Exception</text>
</a>
</g>
</g>
<!-- Node937&#45;&gt;Node961 -->
<g id="edge25" class="edge"><title>Node937&#45;&gt;Node961</title>
<path fill="none" stroke="midnightblue" d="M175.118,-505.533C182.745,-437.377 210.982,-215.433 260,-166.5 263.794,-162.713 268.202,-159.631 272.958,-157.13"/>
<polygon fill="midnightblue" stroke="midnightblue" points="171.608,-505.433 174.001,-515.754 178.566,-506.193 171.608,-505.433"/>
</g>
<!-- Node964 -->
<g id="node29" class="node"><title>Node964</title>
<g id="a_node29"><a xlink:href="structant_1_1_var_bin_settings_1_1_exception.html" target="_top" xlink:title="ant::VarBinSettings\l::Exception">
<polygon fill="white" stroke="black" points="285.5,-88.5 285.5,-118.5 394.5,-118.5 394.5,-88.5 285.5,-88.5"/>
<text text-anchor="start" x="293.5" y="-106.5" font-family="Helvetica,sans-Serif" font-size="10.00">ant::VarBinSettings</text>
<text text-anchor="middle" x="340" y="-95.5" font-family="Helvetica,sans-Serif" font-size="10.00">::Exception</text>
</a>
</g>
</g>
<!-- Node937&#45;&gt;Node964 -->
<g id="edge28" class="edge"><title>Node937&#45;&gt;Node964</title>
<path fill="none" stroke="midnightblue" d="M174.724,-505.927C181.437,-433.978 208.063,-185.378 260,-128.5 266.79,-121.064 275.774,-115.825 285.243,-112.138"/>
<polygon fill="midnightblue" stroke="midnightblue" points="171.237,-505.625 173.817,-515.901 178.208,-506.259 171.237,-505.625"/>
</g>
<!-- Node965 -->
<g id="node30" class="node"><title>Node965</title>
<g id="a_node30"><a xlink:href="structant_1_1_wrap_t_file_1_1_exception.html" target="_top" xlink:title="ant::WrapTFile::Exception">
<polygon fill="white" stroke="black" points="273,-50 273,-69 407,-69 407,-50 273,-50"/>
<text text-anchor="middle" x="340" y="-57" font-family="Helvetica,sans-Serif" font-size="10.00">ant::WrapTFile::Exception</text>
</a>
</g>
</g>
<!-- Node937&#45;&gt;Node965 -->
<g id="edge29" class="edge"><title>Node937&#45;&gt;Node965</title>
<path fill="none" stroke="midnightblue" d="M174.097,-505.405C178.798,-426.799 199.813,-141.382 260,-78.5 263.706,-74.6275 268.053,-71.486 272.769,-68.9439"/>
<polygon fill="midnightblue" stroke="midnightblue" points="170.579,-505.634 173.499,-515.818 177.567,-506.035 170.579,-505.634"/>
</g>
<!-- Node968 -->
<g id="node33" class="node"><title>Node968</title>
<g id="a_node33"><a xlink:href="structant_1_1_wrap_t_tree_1_1_exception.html" target="_top" xlink:title="ant::WrapTTree::Exception">
<polygon fill="white" stroke="black" points="270.5,-9 270.5,-28 409.5,-28 409.5,-9 270.5,-9"/>
<text text-anchor="middle" x="340" y="-16" font-family="Helvetica,sans-Serif" font-size="10.00">ant::WrapTTree::Exception</text>
</a>
</g>
</g>
<!-- Node937&#45;&gt;Node968 -->
<g id="edge32" class="edge"><title>Node937&#45;&gt;Node968</title>
<path fill="none" stroke="midnightblue" d="M173.835,-505.38C177.665,-422.758 196.204,-110.601 260,-40.5 264.791,-35.2352 270.725,-31.1878 277.171,-28.0829"/>
<polygon fill="midnightblue" stroke="midnightblue" points="170.317,-505.704 173.373,-515.849 177.31,-506.013 170.317,-505.704"/>
</g>
<!-- Node941 -->
<g id="node6" class="node"><title>Node941</title>
<g id="a_node6"><a xlink:href="structant_1_1analysis_1_1_physics_1_1_exception_option_needed.html" target="_top" xlink:title="ant::analysis::Physics\l::ExceptionOptionNeeded">
<polygon fill="white" stroke="black" points="464.5,-968.5 464.5,-998.5 602.5,-998.5 602.5,-968.5 464.5,-968.5"/>
<text text-anchor="start" x="472.5" y="-986.5" font-family="Helvetica,sans-Serif" font-size="10.00">ant::analysis::Physics</text>
<text text-anchor="middle" x="533.5" y="-975.5" font-family="Helvetica,sans-Serif" font-size="10.00">::ExceptionOptionNeeded</text>
</a>
</g>
</g>
<!-- Node940&#45;&gt;Node941 -->
<g id="edge5" class="edge"><title>Node940&#45;&gt;Node941</title>
<path fill="none" stroke="midnightblue" d="M409.315,-983.5C427.233,-983.5 446.551,-983.5 464.455,-983.5"/>
<polygon fill="midnightblue" stroke="midnightblue" points="409.236,-980 399.236,-983.5 409.236,-987 409.236,-980"/>
</g>
<!-- Node954 -->
<g id="node19" class="node"><title>Node954</title>
<g id="a_node19"><a xlink:href="classant_1_1_exp_config_1_1_exception_no_detector.html" target="_top" xlink:title="ant::ExpConfig::Exception\lNoDetector">
<polygon fill="white" stroke="black" points="464.5,-430.5 464.5,-460.5 602.5,-460.5 602.5,-430.5 464.5,-430.5"/>
<text text-anchor="start" x="472.5" y="-448.5" font-family="Helvetica,sans-Serif" font-size="10.00">ant::ExpConfig::Exception</text>
<text text-anchor="middle" x="533.5" y="-437.5" font-family="Helvetica,sans-Serif" font-size="10.00">NoDetector</text>
</a>
</g>
</g>
<!-- Node953&#45;&gt;Node954 -->
<g id="edge18" class="edge"><title>Node953&#45;&gt;Node954</title>
<path fill="none" stroke="midnightblue" d="M419.285,-431.311C434.224,-433.183 449.75,-435.129 464.342,-436.958"/>
<polygon fill="midnightblue" stroke="midnightblue" points="419.413,-427.8 409.055,-430.029 418.542,-434.746 419.413,-427.8"/>
</g>
<!-- Node955 -->
<g id="node20" class="node"><title>Node955</title>
<g id="a_node20"><a xlink:href="classant_1_1_exp_config_1_1_exception_no_setup.html" target="_top" xlink:title="ant::ExpConfig::Exception\lNoSetup">
<polygon fill="white" stroke="black" points="464.5,-381.5 464.5,-411.5 602.5,-411.5 602.5,-381.5 464.5,-381.5"/>
<text text-anchor="start" x="472.5" y="-399.5" font-family="Helvetica,sans-Serif" font-size="10.00">ant::ExpConfig::Exception</text>
<text text-anchor="middle" x="533.5" y="-388.5" font-family="Helvetica,sans-Serif" font-size="10.00">NoSetup</text>
</a>
</g>
</g>
<!-- Node953&#45;&gt;Node955 -->
<g id="edge19" class="edge"><title>Node953&#45;&gt;Node955</title>
<path fill="none" stroke="midnightblue" d="M419.285,-411.28C434.224,-409.33 449.75,-407.303 464.342,-405.398"/>
<polygon fill="midnightblue" stroke="midnightblue" points="418.518,-407.85 409.055,-412.616 419.424,-414.792 418.518,-407.85"/>
</g>
<!-- Node962 -->
<g id="node27" class="node"><title>Node962</title>
<g id="a_node27"><a xlink:href="classant_1_1_unpacker_a2_geant_1_1_exception.html" target="_top" xlink:title="ant::UnpackerA2Geant\l::Exception">
<polygon fill="white" stroke="black" points="470.5,-178.5 470.5,-208.5 596.5,-208.5 596.5,-178.5 470.5,-178.5"/>
<text text-anchor="start" x="478.5" y="-196.5" font-family="Helvetica,sans-Serif" font-size="10.00">ant::UnpackerA2Geant</text>
<text text-anchor="middle" x="533.5" y="-185.5" font-family="Helvetica,sans-Serif" font-size="10.00">::Exception</text>
</a>
</g>
</g>
<!-- Node961&#45;&gt;Node962 -->
<g id="edge26" class="edge"><title>Node961&#45;&gt;Node962</title>
<path fill="none" stroke="midnightblue" d="M390.418,-159.371C414.764,-165.219 444.375,-172.332 470.251,-178.547"/>
<polygon fill="midnightblue" stroke="midnightblue" points="391.22,-155.964 380.679,-157.031 389.585,-162.77 391.22,-155.964"/>
</g>
<!-- Node963 -->
<g id="node28" class="node"><title>Node963</title>
<g id="a_node28"><a xlink:href="classant_1_1_unpacker_acqu_1_1_exception.html" target="_top" xlink:title="ant::UnpackerAcqu::\lException">
<polygon fill="white" stroke="black" points="476.5,-129.5 476.5,-159.5 590.5,-159.5 590.5,-129.5 476.5,-129.5"/>
<text text-anchor="start" x="484.5" y="-147.5" font-family="Helvetica,sans-Serif" font-size="10.00">ant::UnpackerAcqu::</text>
<text text-anchor="middle" x="533.5" y="-136.5" font-family="Helvetica,sans-Serif" font-size="10.00">Exception</text>
</a>
</g>
</g>
<!-- Node961&#45;&gt;Node963 -->
<g id="edge27" class="edge"><title>Node961&#45;&gt;Node963</title>
<path fill="none" stroke="midnightblue" d="M418.523,-146.286C437.874,-145.982 458.255,-145.663 476.348,-145.38"/>
<polygon fill="midnightblue" stroke="midnightblue" points="418.46,-142.786 408.516,-146.442 418.569,-149.785 418.46,-142.786"/>
</g>
<!-- Node966 -->
<g id="node31" class="node"><title>Node966</title>
<g id="a_node31"><a xlink:href="structant_1_1_wrap_t_file_1_1_e_not_a_root_file.html" target="_top" xlink:title="ant::WrapTFile::ENotARootFile">
<polygon fill="white" stroke="black" points="456.5,-88 456.5,-107 610.5,-107 610.5,-88 456.5,-88"/>
<text text-anchor="middle" x="533.5" y="-95" font-family="Helvetica,sans-Serif" font-size="10.00">ant::WrapTFile::ENotARootFile</text>
</a>
</g>
</g>
<!-- Node965&#45;&gt;Node966 -->
<g id="edge30" class="edge"><title>Node965&#45;&gt;Node966</title>
<path fill="none" stroke="midnightblue" d="M399.146,-71.0381C426.459,-76.458 458.626,-82.841 484.524,-87.9799"/>
<polygon fill="midnightblue" stroke="midnightblue" points="399.814,-67.6024 389.324,-69.089 398.451,-74.4685 399.814,-67.6024"/>
</g>
<!-- Node967 -->
<g id="node32" class="node"><title>Node967</title>
<g id="a_node32"><a xlink:href="structant_1_1_wrap_t_file_1_1_e_not_readable.html" target="_top" xlink:title="ant::WrapTFile::ENotReadable">
<polygon fill="white" stroke="black" points="456,-50 456,-69 611,-69 611,-50 456,-50"/>
<text text-anchor="middle" x="533.5" y="-57" font-family="Helvetica,sans-Serif" font-size="10.00">ant::WrapTFile::ENotReadable</text>
</a>
</g>
</g>
<!-- Node965&#45;&gt;Node967 -->
<g id="edge31" class="edge"><title>Node965&#45;&gt;Node967</title>
<path fill="none" stroke="midnightblue" d="M417.23,-59.5C429.922,-59.5 443.092,-59.5 455.796,-59.5"/>
<polygon fill="midnightblue" stroke="midnightblue" points="417.172,-56.0001 407.172,-59.5 417.172,-63.0001 417.172,-56.0001"/>
</g>
<!-- Node969 -->
<g id="node34" class="node"><title>Node969</title>
<g id="a_node34"><a xlink:href="structant_1_1_wrap_t_tree_1_1_r_o_o_t_array_exception.html" target="_top" xlink:title="ant::WrapTTree::ROOTArray\lException">
<polygon fill="white" stroke="black" points="462,-0.5 462,-30.5 605,-30.5 605,-0.5 462,-0.5"/>
<text text-anchor="start" x="470" y="-18.5" font-family="Helvetica,sans-Serif" font-size="10.00">ant::WrapTTree::ROOTArray</text>
<text text-anchor="middle" x="533.5" y="-7.5" font-family="Helvetica,sans-Serif" font-size="10.00">Exception</text>
</a>
</g>
</g>
<!-- Node968&#45;&gt;Node969 -->
<g id="edge33" class="edge"><title>Node968&#45;&gt;Node969</title>
<path fill="none" stroke="midnightblue" d="M419.655,-17.2678C433.616,-17.0491 448.078,-16.8225 461.802,-16.6075"/>
<polygon fill="midnightblue" stroke="midnightblue" points="419.539,-13.7691 409.595,-17.4254 419.649,-20.7682 419.539,-13.7691"/>
</g>
</g>
</svg>
