<?xml version="1.0" encoding="UTF-8" standalone="no"?>
<!DOCTYPE svg PUBLIC "-//W3C//DTD SVG 1.1//EN"
 "http://www.w3.org/Graphics/SVG/1.1/DTD/svg11.dtd">
<!-- Generated by graphviz version 2.38.0 (20140413.2041)
 -->
<!-- Title: src/base/std_ext/map.h Pages: 1 -->
<svg width="382pt" height="95pt"
 viewBox="0.00 0.00 382.00 95.00" xmlns="http://www.w3.org/2000/svg" xmlns:xlink="http://www.w3.org/1999/xlink">
<g id="graph0" class="graph" transform="scale(1 1) rotate(0) translate(4 91)">
<title>src/base/std_ext/map.h</title>
<polygon fill="white" stroke="none" points="-4,4 -4,-91 378,-91 378,4 -4,4"/>
<!-- Node7 -->
<g id="node1" class="node"><title>Node7</title>
<polygon fill="#bfbfbf" stroke="black" points="106.5,-67.5 106.5,-86.5 235.5,-86.5 235.5,-67.5 106.5,-67.5"/>
<text text-anchor="middle" x="171" y="-74.5" font-family="Helvetica,sans-Serif" font-size="10.00">src/base/std_ext/map.h</text>
</g>
<!-- Node8 -->
<g id="node2" class="node"><title>Node8</title>
<g id="a_node2"><a xlink:href="_kin_fitter_8cc.html" target="_top" xlink:title="src/analysis/utils\l/fitter/KinFitter.cc">
<polygon fill="white" stroke="black" points="0,-0.5 0,-30.5 96,-30.5 96,-0.5 0,-0.5"/>
<text text-anchor="start" x="8" y="-18.5" font-family="Helvetica,sans-Serif" font-size="10.00">src/analysis/utils</text>
<text text-anchor="middle" x="48" y="-7.5" font-family="Helvetica,sans-Serif" font-size="10.00">/fitter/KinFitter.cc</text>
</a>
</g>
</g>
<!-- Node7&#45;&gt;Node8 -->
<g id="edge1" class="edge"><title>Node7&#45;&gt;Node8</title>
<path fill="none" stroke="midnightblue" d="M144.27,-63.0696C124.416,-53.4655 97.362,-40.3784 76.9887,-30.523"/>
<polygon fill="midnightblue" stroke="midnightblue" points="142.851,-66.2711 153.377,-67.4751 145.899,-59.9697 142.851,-66.2711"/>
</g>
<!-- Node9 -->
<g id="node3" class="node"><title>Node9</title>
<g id="a_node3"><a xlink:href="_sigma_fitter_8cc.html" target="_top" xlink:title="src/analysis/utils\l/fitter/SigmaFitter.cc">
<polygon fill="white" stroke="black" points="114.5,-0.5 114.5,-30.5 227.5,-30.5 227.5,-0.5 114.5,-0.5"/>
<text text-anchor="start" x="122.5" y="-18.5" font-family="Helvetica,sans-Serif" font-size="10.00">src/analysis/utils</text>
<text text-anchor="middle" x="171" y="-7.5" font-family="Helvetica,sans-Serif" font-size="10.00">/fitter/SigmaFitter.cc</text>
</a>
</g>
</g>
<!-- Node7&#45;&gt;Node9 -->
<g id="edge2" class="edge"><title>Node7&#45;&gt;Node9</title>
<path fill="none" stroke="midnightblue" d="M171,-57.2349C171,-48.5864 171,-38.4969 171,-30.523"/>
<polygon fill="midnightblue" stroke="midnightblue" points="167.5,-57.4751 171,-67.4751 174.5,-57.4751 167.5,-57.4751"/>
</g>
<!-- Node10 -->
<g id="node4" class="node"><title>Node10</title>
<g id="a_node4"><a xlink:href="_test_std_ext_8cc.html" target="_top" xlink:title="test/base/TestStdExt.cc">
<polygon fill="white" stroke="black" points="246,-6 246,-25 374,-25 374,-6 246,-6"/>
<text text-anchor="middle" x="310" y="-13" font-family="Helvetica,sans-Serif" font-size="10.00">test/base/TestStdExt.cc</text>
</a>
</g>
</g>
<!-- Node7&#45;&gt;Node10 -->
<g id="edge3" class="edge"><title>Node7&#45;&gt;Node10</title>
<path fill="none" stroke="midnightblue" d="M200.25,-63.4795C227.245,-51.9238 266.604,-35.0758 290.122,-25.0091"/>
<polygon fill="midnightblue" stroke="midnightblue" points="198.731,-60.3222 190.915,-67.4751 201.486,-66.7574 198.731,-60.3222"/>
</g>
</g>
</svg>
