<?xml version="1.0" encoding="UTF-8" standalone="no"?>
<!DOCTYPE svg PUBLIC "-//W3C//DTD SVG 1.1//EN"
 "http://www.w3.org/Graphics/SVG/1.1/DTD/svg11.dtd">
<!-- Generated by graphviz version 2.38.0 (20140413.2041)
 -->
<!-- Title: src/base/std_ext/misc.h Pages: 1 -->
<svg width="453pt" height="84pt"
 viewBox="0.00 0.00 452.50 84.00" xmlns="http://www.w3.org/2000/svg" xmlns:xlink="http://www.w3.org/1999/xlink">
<g id="graph0" class="graph" transform="scale(1 1) rotate(0) translate(4 80)">
<title>src/base/std_ext/misc.h</title>
<polygon fill="white" stroke="none" points="-4,4 -4,-80 448.5,-80 448.5,4 -4,4"/>
<!-- Node0 -->
<g id="node1" class="node"><title>Node0</title>
<polygon fill="#bfbfbf" stroke="black" points="155,-56.5 155,-75.5 285,-75.5 285,-56.5 155,-56.5"/>
<text text-anchor="middle" x="220" y="-63.5" font-family="Helvetica,sans-Serif" font-size="10.00">src/base/std_ext/misc.h</text>
</g>
<!-- Node1 -->
<g id="node2" class="node"><title>Node1</title>
<polygon fill="white" stroke="#bfbfbf" points="0,-0.5 0,-19.5 62,-19.5 62,-0.5 0,-0.5"/>
<text text-anchor="middle" x="31" y="-7.5" font-family="Helvetica,sans-Serif" font-size="10.00">algorithm</text>
</g>
<!-- Node0&#45;&gt;Node1 -->
<g id="edge1" class="edge"><title>Node0&#45;&gt;Node1</title>
<path fill="none" stroke="midnightblue" d="M190.052,-56.4435C157.842,-47.2406 106.466,-32.5617 70.8578,-22.3879"/>
<polygon fill="midnightblue" stroke="midnightblue" points="71.3843,-18.8984 60.8075,-19.5164 69.4612,-25.629 71.3843,-18.8984"/>
</g>
<!-- Node2 -->
<g id="node3" class="node"><title>Node2</title>
<polygon fill="white" stroke="#bfbfbf" points="80.5,-0.5 80.5,-19.5 143.5,-19.5 143.5,-0.5 80.5,-0.5"/>
<text text-anchor="middle" x="112" y="-7.5" font-family="Helvetica,sans-Serif" font-size="10.00">functional</text>
</g>
<!-- Node0&#45;&gt;Node2 -->
<g id="edge2" class="edge"><title>Node0&#45;&gt;Node2</title>
<path fill="none" stroke="midnightblue" d="M202.648,-56.324C185.328,-47.6641 158.485,-34.2424 138.498,-24.249"/>
<polygon fill="midnightblue" stroke="midnightblue" points="139.819,-20.9962 129.309,-19.6545 136.688,-27.2572 139.819,-20.9962"/>
</g>
<!-- Node3 -->
<g id="node4" class="node"><title>Node3</title>
<polygon fill="white" stroke="#bfbfbf" points="161.5,-0.5 161.5,-19.5 208.5,-19.5 208.5,-0.5 161.5,-0.5"/>
<text text-anchor="middle" x="185" y="-7.5" font-family="Helvetica,sans-Serif" font-size="10.00">cmath</text>
</g>
<!-- Node0&#45;&gt;Node3 -->
<g id="edge3" class="edge"><title>Node0&#45;&gt;Node3</title>
<path fill="none" stroke="midnightblue" d="M214.22,-56.083C209.328,-48.5341 202.173,-37.4948 196.167,-28.2298"/>
<polygon fill="midnightblue" stroke="midnightblue" points="199.048,-26.239 190.672,-19.7511 193.174,-30.0463 199.048,-26.239"/>
</g>
<!-- Node4 -->
<g id="node5" class="node"><title>Node4</title>
<polygon fill="white" stroke="#bfbfbf" points="227,-0.5 227,-19.5 283,-19.5 283,-0.5 227,-0.5"/>
<text text-anchor="middle" x="255" y="-7.5" font-family="Helvetica,sans-Serif" font-size="10.00">cxxabi.h</text>
</g>
<!-- Node0&#45;&gt;Node4 -->
<g id="edge4" class="edge"><title>Node0&#45;&gt;Node4</title>
<path fill="none" stroke="midnightblue" d="M225.78,-56.083C230.672,-48.5341 237.827,-37.4948 243.833,-28.2298"/>
<polygon fill="midnightblue" stroke="midnightblue" points="246.826,-30.0463 249.328,-19.7511 240.952,-26.239 246.826,-30.0463"/>
</g>
<!-- Node5 -->
<g id="node6" class="node"><title>Node5</title>
<polygon fill="white" stroke="#bfbfbf" points="301,-0.5 301,-19.5 369,-19.5 369,-0.5 301,-0.5"/>
<text text-anchor="middle" x="335" y="-7.5" font-family="Helvetica,sans-Serif" font-size="10.00">type_traits</text>
</g>
<!-- Node0&#45;&gt;Node5 -->
<g id="edge5" class="edge"><title>Node0&#45;&gt;Node5</title>
<path fill="none" stroke="midnightblue" d="M238.222,-56.4435C256.896,-47.6751 286.156,-33.9355 307.617,-23.8579"/>
<polygon fill="midnightblue" stroke="midnightblue" points="309.299,-26.935 316.863,-19.5164 306.324,-20.5988 309.299,-26.935"/>
</g>
<!-- Node6 -->
<g id="node7" class="node"><title>Node6</title>
<polygon fill="white" stroke="#bfbfbf" points="387.5,-0.5 387.5,-19.5 444.5,-19.5 444.5,-0.5 387.5,-0.5"/>
<text text-anchor="middle" x="416" y="-7.5" font-family="Helvetica,sans-Serif" font-size="10.00">memory</text>
</g>
<!-- Node0&#45;&gt;Node6 -->
<g id="edge6" class="edge"><title>Node0&#45;&gt;Node6</title>
<path fill="none" stroke="midnightblue" d="M251.057,-56.4435C285.294,-47.0108 340.412,-31.8252 377.401,-21.6345"/>
<polygon fill="midnightblue" stroke="midnightblue" points="378.609,-24.932 387.32,-18.9015 376.75,-18.1835 378.609,-24.932"/>
</g>
</g>
</svg>
