<?xml version="1.0" encoding="UTF-8" standalone="no"?>
<!DOCTYPE svg PUBLIC "-//W3C//DTD SVG 1.1//EN"
 "http://www.w3.org/Graphics/SVG/1.1/DTD/svg11.dtd">
<!-- Generated by graphviz version 2.38.0 (20140413.2041)
 -->
<!-- Title: src/base/std_ext/system.h Pages: 1 -->
<svg width="5090pt" height="95pt"
 viewBox="0.00 0.00 5089.50 95.00" xmlns="http://www.w3.org/2000/svg" xmlns:xlink="http://www.w3.org/1999/xlink">
<g id="graph0" class="graph" transform="scale(1 1) rotate(0) translate(4 91)">
<title>src/base/std_ext/system.h</title>
<polygon fill="white" stroke="none" points="-4,4 -4,-91 5085.5,-91 5085.5,4 -4,4"/>
<!-- Node3 -->
<g id="node1" class="node"><title>Node3</title>
<polygon fill="#bfbfbf" stroke="black" points="2516,-67.5 2516,-86.5 2659,-86.5 2659,-67.5 2516,-67.5"/>
<text text-anchor="middle" x="2587.5" y="-74.5" font-family="Helvetica,sans-Serif" font-size="10.00">src/base/std_ext/system.h</text>
</g>
<!-- Node4 -->
<g id="node2" class="node"><title>Node4</title>
<g id="a_node2"><a xlink:href="_ant-alt_veto_cal_tool_8cc.html" target="_top" xlink:title="progs/Ant&#45;altVetoCalTool.cc">
<polygon fill="white" stroke="black" points="0,-6 0,-25 147,-25 147,-6 0,-6"/>
<text text-anchor="middle" x="73.5" y="-13" font-family="Helvetica,sans-Serif" font-size="10.00">progs/Ant&#45;altVetoCalTool.cc</text>
</a>
</g>
</g>
<!-- Node3&#45;&gt;Node4 -->
<g id="edge1" class="edge"><title>Node3&#45;&gt;Node4</title>
<path fill="none" stroke="midnightblue" d="M2505.85,-76.1836C2137.42,-76.7514 627.428,-76.2207 156.5,-31 142.958,-29.6997 128.302,-27.4305 115.127,-25.068"/>
<polygon fill="midnightblue" stroke="midnightblue" points="2505.9,-79.6836 2515.9,-76.1673 2505.89,-72.6836 2505.9,-79.6836"/>
</g>
<!-- Node5 -->
<g id="node3" class="node"><title>Node5</title>
<g id="a_node3"><a xlink:href="_ant-calib-dump_8cc.html" target="_top" xlink:title="progs/Ant&#45;calib&#45;dump.cc">
<polygon fill="white" stroke="black" points="165.5,-6 165.5,-25 299.5,-25 299.5,-6 165.5,-6"/>
<text text-anchor="middle" x="232.5" y="-13" font-family="Helvetica,sans-Serif" font-size="10.00">progs/Ant&#45;calib&#45;dump.cc</text>
</a>
</g>
</g>
<!-- Node3&#45;&gt;Node5 -->
<g id="edge2" class="edge"><title>Node3&#45;&gt;Node5</title>
<path fill="none" stroke="midnightblue" d="M2505.77,-76.2354C2151.59,-76.9709 747.455,-76.8758 308.5,-31 296.075,-29.7015 282.648,-27.4328 270.586,-25.0702"/>
<polygon fill="midnightblue" stroke="midnightblue" points="2505.95,-79.7352 2515.94,-76.2135 2505.93,-72.7352 2505.95,-79.7352"/>
</g>
<!-- Node6 -->
<g id="node4" class="node"><title>Node6</title>
<g id="a_node4"><a xlink:href="_ant-calib-readin_8cc.html" target="_top" xlink:title="progs/Ant&#45;calib&#45;readin.cc">
<polygon fill="white" stroke="black" points="317.5,-6 317.5,-25 453.5,-25 453.5,-6 317.5,-6"/>
<text text-anchor="middle" x="385.5" y="-13" font-family="Helvetica,sans-Serif" font-size="10.00">progs/Ant&#45;calib&#45;readin.cc</text>
</a>
</g>
</g>
<!-- Node3&#45;&gt;Node6 -->
<g id="edge3" class="edge"><title>Node3&#45;&gt;Node6</title>
<path fill="none" stroke="midnightblue" d="M2505.49,-76.0723C2166,-76.092 869.467,-73.335 462.5,-31 449.917,-29.6911 436.315,-27.4195 424.094,-25.0575"/>
<polygon fill="midnightblue" stroke="midnightblue" points="2505.73,-79.5723 2515.73,-76.0708 2505.73,-72.5723 2505.73,-79.5723"/>
</g>
<!-- Node7 -->
<g id="node5" class="node"><title>Node7</title>
<g id="a_node5"><a xlink:href="_ant-calib-regedit_8cc.html" target="_top" xlink:title="progs/Ant&#45;calib&#45;regedit.cc">
<polygon fill="white" stroke="black" points="471.5,-6 471.5,-25 611.5,-25 611.5,-6 471.5,-6"/>
<text text-anchor="middle" x="541.5" y="-13" font-family="Helvetica,sans-Serif" font-size="10.00">progs/Ant&#45;calib&#45;regedit.cc</text>
</a>
</g>
</g>
<!-- Node3&#45;&gt;Node7 -->
<g id="edge4" class="edge"><title>Node3&#45;&gt;Node7</title>
<path fill="none" stroke="midnightblue" d="M2505.77,-75.8595C2182.82,-75.0364 994.992,-69.4064 620.5,-31 607.599,-29.677 593.646,-27.4016 581.107,-25.0404"/>
<polygon fill="midnightblue" stroke="midnightblue" points="2505.98,-79.3599 2515.98,-75.8847 2505.99,-72.36 2505.98,-79.3599"/>
</g>
<!-- Node8 -->
<g id="node6" class="node"><title>Node8</title>
<g id="a_node6"><a xlink:href="_ant-calib-smooth_8cc.html" target="_top" xlink:title="progs/Ant&#45;calib&#45;smooth.cc">
<polygon fill="white" stroke="black" points="630,-6 630,-25 773,-25 773,-6 630,-6"/>
<text text-anchor="middle" x="701.5" y="-13" font-family="Helvetica,sans-Serif" font-size="10.00">progs/Ant&#45;calib&#45;smooth.cc</text>
</a>
</g>
</g>
<!-- Node3&#45;&gt;Node8 -->
<g id="edge5" class="edge"><title>Node3&#45;&gt;Node8</title>
<path fill="none" stroke="midnightblue" d="M2505.65,-75.6403C2199.62,-74.034 1122.78,-65.9689 781.5,-31 768.441,-29.6619 754.313,-27.3825 741.615,-25.0221"/>
<polygon fill="midnightblue" stroke="midnightblue" points="2505.76,-79.1408 2515.78,-75.6926 2505.8,-72.1409 2505.76,-79.1408"/>
</g>
<!-- Node9 -->
<g id="node7" class="node"><title>Node9</title>
<g id="a_node7"><a xlink:href="_ant-calib-viewer_8cc.html" target="_top" xlink:title="progs/Ant&#45;calib&#45;viewer.cc">
<polygon fill="white" stroke="black" points="791,-6 791,-25 926,-25 926,-6 791,-6"/>
<text text-anchor="middle" x="858.5" y="-13" font-family="Helvetica,sans-Serif" font-size="10.00">progs/Ant&#45;calib&#45;viewer.cc</text>
</a>
</g>
</g>
<!-- Node3&#45;&gt;Node9 -->
<g id="edge6" class="edge"><title>Node3&#45;&gt;Node9</title>
<path fill="none" stroke="midnightblue" d="M2505.49,-75.4914C2216.31,-73.4282 1244.95,-64.1387 935.5,-31 922.921,-29.6529 909.32,-27.371 897.099,-25.0112"/>
<polygon fill="midnightblue" stroke="midnightblue" points="2505.87,-78.994 2515.89,-75.5646 2505.92,-71.9942 2505.87,-78.994"/>
</g>
<!-- Node10 -->
<g id="node8" class="node"><title>Node10</title>
<g id="a_node8"><a xlink:href="_ant-chain_8cc.html" target="_top" xlink:title="hadd like tool to concatenate TTrees in ROOT files using TChains. ">
<polygon fill="white" stroke="black" points="944.5,-6 944.5,-25 1050.5,-25 1050.5,-6 944.5,-6"/>
<text text-anchor="middle" x="997.5" y="-13" font-family="Helvetica,sans-Serif" font-size="10.00">progs/Ant&#45;chain.cc</text>
</a>
</g>
</g>
<!-- Node3&#45;&gt;Node10 -->
<g id="edge7" class="edge"><title>Node3&#45;&gt;Node10</title>
<path fill="none" stroke="midnightblue" d="M2505.61,-75.7499C2230.81,-74.5717 1342.87,-67.9298 1059.5,-31 1049.31,-29.6715 1038.34,-27.3946 1028.5,-25.0337"/>
<polygon fill="midnightblue" stroke="midnightblue" points="2505.89,-79.251 2515.91,-75.7927 2505.92,-72.2511 2505.89,-79.251"/>
</g>
<!-- Node11 -->
<g id="node9" class="node"><title>Node11</title>
<g id="a_node9"><a xlink:href="_ant-fake_raw_8cc.html" target="_top" xlink:title="progs/Ant&#45;fakeRaw.cc">
<polygon fill="white" stroke="black" points="1069,-6 1069,-25 1188,-25 1188,-6 1069,-6"/>
<text text-anchor="middle" x="1128.5" y="-13" font-family="Helvetica,sans-Serif" font-size="10.00">progs/Ant&#45;fakeRaw.cc</text>
</a>
</g>
</g>
<!-- Node3&#45;&gt;Node11 -->
<g id="edge8" class="edge"><title>Node3&#45;&gt;Node11</title>
<path fill="none" stroke="midnightblue" d="M2505.64,-75.2283C2247.58,-72.4996 1453.13,-61.7579 1197.5,-31 1186.32,-29.6547 1174.26,-27.4036 1163.4,-25.0716"/>
<polygon fill="midnightblue" stroke="midnightblue" points="2505.65,-78.7286 2515.69,-75.3334 2505.73,-71.729 2505.65,-78.7286"/>
</g>
<!-- Node12 -->
<g id="node10" class="node"><title>Node12</title>
<g id="a_node10"><a xlink:href="_ant-hadd_8cc.html" target="_top" xlink:title="progs/Ant&#45;hadd.cc">
<polygon fill="white" stroke="black" points="1206.5,-6 1206.5,-25 1310.5,-25 1310.5,-6 1206.5,-6"/>
<text text-anchor="middle" x="1258.5" y="-13" font-family="Helvetica,sans-Serif" font-size="10.00">progs/Ant&#45;hadd.cc</text>
</a>
</g>
</g>
<!-- Node3&#45;&gt;Node12 -->
<g id="edge9" class="edge"><title>Node3&#45;&gt;Node12</title>
<path fill="none" stroke="midnightblue" d="M2505.83,-75.2128C2263.32,-72.5408 1550.03,-62.1771 1319.5,-31 1309.58,-29.6579 1298.91,-27.4077 1289.31,-25.0755"/>
<polygon fill="midnightblue" stroke="midnightblue" points="2505.95,-78.7141 2515.98,-75.3232 2506.02,-71.7146 2505.95,-78.7141"/>
</g>
<!-- Node13 -->
<g id="node11" class="node"><title>Node13</title>
<g id="a_node11"><a xlink:href="_ant-make_lin_pol_8cc.html" target="_top" xlink:title="progs/Ant&#45;makeLinPol.cc">
<polygon fill="white" stroke="black" points="1329,-6 1329,-25 1464,-25 1464,-6 1329,-6"/>
<text text-anchor="middle" x="1396.5" y="-13" font-family="Helvetica,sans-Serif" font-size="10.00">progs/Ant&#45;makeLinPol.cc</text>
</a>
</g>
</g>
<!-- Node3&#45;&gt;Node13 -->
<g id="edge10" class="edge"><title>Node3&#45;&gt;Node13</title>
<path fill="none" stroke="midnightblue" d="M2505.61,-76.8354C2320.74,-77.8174 1857.14,-75.2075 1472.5,-31 1460.36,-29.6043 1447.24,-27.3687 1435.38,-25.0666"/>
<polygon fill="midnightblue" stroke="midnightblue" points="2505.82,-80.3344 2515.8,-76.7761 2505.78,-73.3345 2505.82,-80.3344"/>
</g>
<!-- Node14 -->
<g id="node12" class="node"><title>Node14</title>
<g id="a_node12"><a xlink:href="_ant-make_sigmas_8cc.html" target="_top" xlink:title="progs/Ant&#45;makeSigmas.cc">
<polygon fill="white" stroke="black" points="1482,-6 1482,-25 1625,-25 1625,-6 1482,-6"/>
<text text-anchor="middle" x="1553.5" y="-13" font-family="Helvetica,sans-Serif" font-size="10.00">progs/Ant&#45;makeSigmas.cc</text>
</a>
</g>
</g>
<!-- Node3&#45;&gt;Node14 -->
<g id="edge11" class="edge"><title>Node3&#45;&gt;Node14</title>
<path fill="none" stroke="midnightblue" d="M2505.64,-75.7755C2340.29,-74.5209 1954.83,-67.5365 1633.5,-31 1620.88,-29.5648 1607.24,-27.3465 1594.87,-25.0733"/>
<polygon fill="midnightblue" stroke="midnightblue" points="2505.71,-79.276 2515.74,-75.847 2505.76,-72.2761 2505.71,-79.276"/>
</g>
<!-- Node15 -->
<g id="node13" class="node"><title>Node15</title>
<g id="a_node13"><a xlink:href="_ant-make_tagg_eff_8cc.html" target="_top" xlink:title="progs/Ant&#45;makeTaggEff.cc">
<polygon fill="white" stroke="black" points="1643,-6 1643,-25 1784,-25 1784,-6 1643,-6"/>
<text text-anchor="middle" x="1713.5" y="-13" font-family="Helvetica,sans-Serif" font-size="10.00">progs/Ant&#45;makeTaggEff.cc</text>
</a>
</g>
</g>
<!-- Node3&#45;&gt;Node15 -->
<g id="edge12" class="edge"><title>Node3&#45;&gt;Node15</title>
<path fill="none" stroke="midnightblue" d="M2505.87,-74.7405C2361.5,-71.7649 2051.88,-62.0216 1792.5,-31 1780.04,-29.5097 1766.58,-27.2751 1754.35,-25.0037"/>
<polygon fill="midnightblue" stroke="midnightblue" points="2505.91,-78.2419 2515.97,-74.9433 2506.05,-71.2433 2505.91,-78.2419"/>
</g>
<!-- Node16 -->
<g id="node14" class="node"><title>Node16</title>
<g id="a_node14"><a xlink:href="_ant-mc-omegagun_8cc.html" target="_top" xlink:title="progs/Ant&#45;mc&#45;omegagun.cc">
<polygon fill="white" stroke="black" points="1802,-6 1802,-25 1953,-25 1953,-6 1802,-6"/>
<text text-anchor="middle" x="1877.5" y="-13" font-family="Helvetica,sans-Serif" font-size="10.00">progs/Ant&#45;mc&#45;omegagun.cc</text>
</a>
</g>
</g>
<!-- Node3&#45;&gt;Node16 -->
<g id="edge13" class="edge"><title>Node3&#45;&gt;Node16</title>
<path fill="none" stroke="midnightblue" d="M2505.74,-72.7125C2385.97,-67.3104 2155.93,-54.71 1961.5,-31 1948.57,-29.4235 1934.61,-27.2175 1921.84,-25.001"/>
<polygon fill="midnightblue" stroke="midnightblue" points="2505.78,-76.2178 2515.93,-73.1666 2506.09,-69.2247 2505.78,-76.2178"/>
</g>
<!-- Node17 -->
<g id="node15" class="node"><title>Node17</title>
<g id="a_node15"><a xlink:href="_ant-mc-pi0gun_8cc.html" target="_top" xlink:title="progs/Ant&#45;mc&#45;pi0gun.cc">
<polygon fill="white" stroke="black" points="1971,-6 1971,-25 2102,-25 2102,-6 1971,-6"/>
<text text-anchor="middle" x="2036.5" y="-13" font-family="Helvetica,sans-Serif" font-size="10.00">progs/Ant&#45;mc&#45;pi0gun.cc</text>
</a>
</g>
</g>
<!-- Node3&#45;&gt;Node17 -->
<g id="edge14" class="edge"><title>Node3&#45;&gt;Node17</title>
<path fill="none" stroke="midnightblue" d="M2505.76,-70.6868C2410.71,-63.9505 2249.24,-50.7787 2111.5,-31 2100.21,-29.3789 2088.04,-27.2106 2076.86,-25.0457"/>
<polygon fill="midnightblue" stroke="midnightblue" points="2505.66,-74.1884 2515.88,-71.3976 2506.15,-67.2056 2505.66,-74.1884"/>
</g>
<!-- Node18 -->
<g id="node16" class="node"><title>Node18</title>
<g id="a_node16"><a xlink:href="_ant-plot_8cc.html" target="_top" xlink:title="progs/Ant&#45;plot.cc">
<polygon fill="white" stroke="black" points="2120.5,-6 2120.5,-25 2218.5,-25 2218.5,-6 2120.5,-6"/>
<text text-anchor="middle" x="2169.5" y="-13" font-family="Helvetica,sans-Serif" font-size="10.00">progs/Ant&#45;plot.cc</text>
</a>
</g>
</g>
<!-- Node3&#45;&gt;Node18 -->
<g id="edge15" class="edge"><title>Node3&#45;&gt;Node18</title>
<path fill="none" stroke="midnightblue" d="M2505.64,-68.6088C2432.39,-61.3213 2322.26,-48.7011 2227.5,-31 2218.73,-29.361 2209.3,-27.1868 2200.65,-25.022"/>
<polygon fill="midnightblue" stroke="midnightblue" points="2505.43,-72.1051 2515.73,-69.6017 2506.12,-65.1388 2505.43,-72.1051"/>
</g>
<!-- Node19 -->
<g id="node17" class="node"><title>Node19</title>
<g id="a_node17"><a xlink:href="_ant-rawdump_8cc.html" target="_top" xlink:title="progs/Ant&#45;rawdump.cc">
<polygon fill="white" stroke="black" points="2237,-6 2237,-25 2362,-25 2362,-6 2237,-6"/>
<text text-anchor="middle" x="2299.5" y="-13" font-family="Helvetica,sans-Serif" font-size="10.00">progs/Ant&#45;rawdump.cc</text>
</a>
</g>
</g>
<!-- Node3&#45;&gt;Node19 -->
<g id="edge16" class="edge"><title>Node3&#45;&gt;Node19</title>
<path fill="none" stroke="midnightblue" d="M2536.2,-65.4023C2480.37,-53.8671 2392.19,-35.6498 2340.69,-25.0091"/>
<polygon fill="midnightblue" stroke="midnightblue" points="2535.74,-68.8794 2546.24,-67.4751 2537.15,-62.0242 2535.74,-68.8794"/>
</g>
<!-- Node20 -->
<g id="node18" class="node"><title>Node20</title>
<g id="a_node18"><a xlink:href="_ant-smooth_tagg_eff_8cc.html" target="_top" xlink:title="progs/Ant&#45;smoothTaggEff.cc">
<polygon fill="white" stroke="black" points="2380,-6 2380,-25 2531,-25 2531,-6 2380,-6"/>
<text text-anchor="middle" x="2455.5" y="-13" font-family="Helvetica,sans-Serif" font-size="10.00">progs/Ant&#45;smoothTaggEff.cc</text>
</a>
</g>
</g>
<!-- Node3&#45;&gt;Node20 -->
<g id="edge17" class="edge"><title>Node3&#45;&gt;Node20</title>
<path fill="none" stroke="midnightblue" d="M2559.39,-63.3272C2533.76,-51.7761 2496.61,-35.0316 2474.38,-25.0091"/>
<polygon fill="midnightblue" stroke="midnightblue" points="2558.03,-66.5565 2568.59,-67.4751 2560.91,-60.1748 2558.03,-66.5565"/>
</g>
<!-- Node21 -->
<g id="node19" class="node"><title>Node21</title>
<g id="a_node19"><a xlink:href="_ant_8cc.html" target="_top" xlink:title="Main Ant executable. ">
<polygon fill="white" stroke="black" points="2549,-6 2549,-25 2626,-25 2626,-6 2549,-6"/>
<text text-anchor="middle" x="2587.5" y="-13" font-family="Helvetica,sans-Serif" font-size="10.00">progs/Ant.cc</text>
</a>
</g>
</g>
<!-- Node3&#45;&gt;Node21 -->
<g id="edge18" class="edge"><title>Node3&#45;&gt;Node21</title>
<path fill="none" stroke="midnightblue" d="M2587.5,-57.3165C2587.5,-46.4962 2587.5,-33.398 2587.5,-25.0091"/>
<polygon fill="midnightblue" stroke="midnightblue" points="2584,-57.4751 2587.5,-67.4751 2591,-57.4751 2584,-57.4751"/>
</g>
<!-- Node22 -->
<g id="node20" class="node"><title>Node22</title>
<g id="a_node20"><a xlink:href="_etap_dalitz__fit_8cc.html" target="_top" xlink:title="progs/EtapDalitz_fit.cc">
<polygon fill="white" stroke="black" points="2644,-6 2644,-25 2767,-25 2767,-6 2644,-6"/>
<text text-anchor="middle" x="2705.5" y="-13" font-family="Helvetica,sans-Serif" font-size="10.00">progs/EtapDalitz_fit.cc</text>
</a>
</g>
</g>
<!-- Node3&#45;&gt;Node22 -->
<g id="edge19" class="edge"><title>Node3&#45;&gt;Node22</title>
<path fill="none" stroke="midnightblue" d="M2613.55,-62.8665C2636.42,-51.3347 2669.01,-34.8992 2688.62,-25.0091"/>
<polygon fill="midnightblue" stroke="midnightblue" points="2611.76,-59.8475 2604.41,-67.4751 2614.91,-66.0979 2611.76,-59.8475"/>
</g>
<!-- Node23 -->
<g id="node21" class="node"><title>Node23</title>
<g id="a_node21"><a xlink:href="_etap_omega_g__fit_8cc.html" target="_top" xlink:title="progs/EtapOmegaG_fit.cc">
<polygon fill="white" stroke="black" points="2785,-6 2785,-25 2924,-25 2924,-6 2785,-6"/>
<text text-anchor="middle" x="2854.5" y="-13" font-family="Helvetica,sans-Serif" font-size="10.00">progs/EtapOmegaG_fit.cc</text>
</a>
</g>
</g>
<!-- Node3&#45;&gt;Node23 -->
<g id="edge20" class="edge"><title>Node3&#45;&gt;Node23</title>
<path fill="none" stroke="midnightblue" d="M2635.7,-65.2584C2687.5,-53.716 2768.77,-35.6056 2816.32,-25.0091"/>
<polygon fill="midnightblue" stroke="midnightblue" points="2634.75,-61.8837 2625.75,-67.4751 2636.28,-68.7161 2634.75,-61.8837"/>
</g>
<!-- Node24 -->
<g id="node22" class="node"><title>Node24</title>
<g id="a_node22"><a xlink:href="_omega_eta_g__fit_8cc.html" target="_top" xlink:title="progs/OmegaEtaG_fit.cc">
<polygon fill="white" stroke="black" points="2942,-6 2942,-25 3075,-25 3075,-6 2942,-6"/>
<text text-anchor="middle" x="3008.5" y="-13" font-family="Helvetica,sans-Serif" font-size="10.00">progs/OmegaEtaG_fit.cc</text>
</a>
</g>
</g>
<!-- Node3&#45;&gt;Node24 -->
<g id="edge21" class="edge"><title>Node3&#45;&gt;Node24</title>
<path fill="none" stroke="midnightblue" d="M2669.37,-66.7942C2739.61,-58.5516 2843.44,-45.5474 2933.5,-31 2944.37,-29.2446 2956.07,-27.1033 2966.93,-25.0108"/>
<polygon fill="midnightblue" stroke="midnightblue" points="2668.78,-63.3389 2659.25,-67.9754 2669.59,-70.2917 2668.78,-63.3389"/>
</g>
<!-- Node25 -->
<g id="node23" class="node"><title>Node25</title>
<g id="a_node23"><a xlink:href="_p_c_a_8cc.html" target="_top" xlink:title="Tool to perform a Principal Component Analysis, based on ROOTs TPrincipal class, to create principal ...">
<polygon fill="white" stroke="black" points="3093.5,-6 3093.5,-25 3173.5,-25 3173.5,-6 3093.5,-6"/>
<text text-anchor="middle" x="3133.5" y="-13" font-family="Helvetica,sans-Serif" font-size="10.00">progs/PCA.cc</text>
</a>
</g>
</g>
<!-- Node3&#45;&gt;Node25 -->
<g id="edge22" class="edge"><title>Node3&#45;&gt;Node25</title>
<path fill="none" stroke="midnightblue" d="M2669.55,-73.5267C2768.66,-69.4033 2940.06,-58.6298 3084.5,-31 3092.26,-29.5166 3100.54,-27.312 3108.05,-25.0671"/>
<polygon fill="midnightblue" stroke="midnightblue" points="2669.16,-70.0396 2659.31,-73.9399 2669.44,-77.034 2669.16,-70.0396"/>
</g>
<!-- Node26 -->
<g id="node24" class="node"><title>Node26</title>
<g id="a_node24"><a xlink:href="_pi0_dalitz__anaplot_8cc.html" target="_top" xlink:title="progs/Pi0Dalitz_anaplot.cc">
<polygon fill="white" stroke="black" points="3192,-6 3192,-25 3335,-25 3335,-6 3192,-6"/>
<text text-anchor="middle" x="3263.5" y="-13" font-family="Helvetica,sans-Serif" font-size="10.00">progs/Pi0Dalitz_anaplot.cc</text>
</a>
</g>
</g>
<!-- Node3&#45;&gt;Node26 -->
<g id="edge23" class="edge"><title>Node3&#45;&gt;Node26</title>
<path fill="none" stroke="midnightblue" d="M2669.3,-72.4485C2784.25,-66.8596 2999.94,-54.1823 3182.5,-31 3194.83,-29.4343 3208.13,-27.2581 3220.33,-25.0672"/>
<polygon fill="midnightblue" stroke="midnightblue" points="2669,-68.9592 2659.18,-72.9353 2669.33,-75.9511 2669,-68.9592"/>
</g>
<!-- Node27 -->
<g id="node25" class="node"><title>Node27</title>
<g id="a_node25"><a xlink:href="_single_pi0__fit_8cc.html" target="_top" xlink:title="progs/SinglePi0_fit.cc">
<polygon fill="white" stroke="black" points="3353.5,-6 3353.5,-25 3471.5,-25 3471.5,-6 3353.5,-6"/>
<text text-anchor="middle" x="3412.5" y="-13" font-family="Helvetica,sans-Serif" font-size="10.00">progs/SinglePi0_fit.cc</text>
</a>
</g>
</g>
<!-- Node3&#45;&gt;Node27 -->
<g id="edge24" class="edge"><title>Node3&#45;&gt;Node27</title>
<path fill="none" stroke="midnightblue" d="M2669.24,-75.1694C2808.47,-72.8561 3100.29,-64.1039 3344.5,-31 3355.27,-29.5407 3366.87,-27.3153 3377.38,-25.0429"/>
<polygon fill="midnightblue" stroke="midnightblue" points="2669.02,-71.6723 2659.08,-75.3312 2669.13,-78.6714 2669.02,-71.6723"/>
</g>
<!-- Node28 -->
<g id="node26" class="node"><title>Node28</title>
<g id="a_node26"><a xlink:href="tagg_eff_plot_8cc.html" target="_top" xlink:title="progs/taggEffPlot.cc">
<polygon fill="white" stroke="black" points="3489.5,-6 3489.5,-25 3601.5,-25 3601.5,-6 3489.5,-6"/>
<text text-anchor="middle" x="3545.5" y="-13" font-family="Helvetica,sans-Serif" font-size="10.00">progs/taggEffPlot.cc</text>
</a>
</g>
</g>
<!-- Node3&#45;&gt;Node28 -->
<g id="edge25" class="edge"><title>Node3&#45;&gt;Node28</title>
<path fill="none" stroke="midnightblue" d="M2669.16,-76.4871C2826.78,-76.4117 3183.61,-71.3005 3480.5,-31 3490.93,-29.5848 3502.15,-27.3435 3512.29,-25.0423"/>
<polygon fill="midnightblue" stroke="midnightblue" points="2669.07,-72.9872 2659.07,-76.4851 2669.07,-79.9872 2669.07,-72.9872"/>
</g>
<!-- Node29 -->
<g id="node27" class="node"><title>Node29</title>
<g id="a_node27"><a xlink:href="tagger_energies_8cc.html" target="_top" xlink:title="progs/taggerEnergies.cc">
<polygon fill="white" stroke="black" points="3620,-6 3620,-25 3753,-25 3753,-6 3620,-6"/>
<text text-anchor="middle" x="3686.5" y="-13" font-family="Helvetica,sans-Serif" font-size="10.00">progs/taggerEnergies.cc</text>
</a>
</g>
</g>
<!-- Node3&#45;&gt;Node29 -->
<g id="edge26" class="edge"><title>Node3&#45;&gt;Node29</title>
<path fill="none" stroke="midnightblue" d="M2669.19,-76.4037C2843.01,-76.3859 3262.08,-71.6843 3610.5,-31 3622.64,-29.5823 3635.75,-27.3403 3647.61,-25.0392"/>
<polygon fill="midnightblue" stroke="midnightblue" points="2669.1,-72.9037 2659.1,-76.3994 2669.1,-79.9037 2669.1,-72.9037"/>
</g>
<!-- Node30 -->
<g id="node28" class="node"><title>Node30</title>
<g id="a_node28"><a xlink:href="_particle_i_d_8cc.html" target="_top" xlink:title="src/analysis/utils\l/ParticleID.cc">
<polygon fill="white" stroke="black" points="3771,-0.5 3771,-30.5 3866,-30.5 3866,-0.5 3771,-0.5"/>
<text text-anchor="start" x="3779" y="-18.5" font-family="Helvetica,sans-Serif" font-size="10.00">src/analysis/utils</text>
<text text-anchor="middle" x="3818.5" y="-7.5" font-family="Helvetica,sans-Serif" font-size="10.00">/ParticleID.cc</text>
</a>
</g>
</g>
<!-- Node3&#45;&gt;Node30 -->
<g id="edge27" class="edge"><title>Node3&#45;&gt;Node30</title>
<path fill="none" stroke="midnightblue" d="M2669.49,-75.1523C2900.08,-72.4035 3551.15,-62.0399 3762.5,-31 3765.28,-30.5914 3768.13,-30.0987 3770.98,-29.5452"/>
<polygon fill="midnightblue" stroke="midnightblue" points="2669.12,-71.6563 2659.16,-75.2737 2669.2,-78.6558 2669.12,-71.6563"/>
</g>
<!-- Node31 -->
<g id="node29" class="node"><title>Node31</title>
<g id="a_node29"><a xlink:href="_m_c_extracted_8cc.html" target="_top" xlink:title="src/analysis/utils\l/uncertainties/MCExtracted.cc">
<polygon fill="white" stroke="black" points="3884,-0.5 3884,-30.5 4043,-30.5 4043,-0.5 3884,-0.5"/>
<text text-anchor="start" x="3892" y="-18.5" font-family="Helvetica,sans-Serif" font-size="10.00">src/analysis/utils</text>
<text text-anchor="middle" x="3963.5" y="-7.5" font-family="Helvetica,sans-Serif" font-size="10.00">/uncertainties/MCExtracted.cc</text>
</a>
</g>
</g>
<!-- Node3&#45;&gt;Node31 -->
<g id="edge28" class="edge"><title>Node3&#45;&gt;Node31</title>
<path fill="none" stroke="midnightblue" d="M2669.32,-76.776C2873.45,-77.9231 3421.45,-76.1513 3875.5,-31 3878.27,-30.7242 3881.09,-30.4155 3883.94,-30.0799"/>
<polygon fill="midnightblue" stroke="midnightblue" points="2669.3,-73.2759 2659.28,-76.7156 2669.26,-80.2758 2669.3,-73.2759"/>
</g>
<!-- Node32 -->
<g id="node30" class="node"><title>Node32</title>
<g id="a_node30"><a xlink:href="_git_info_8cc.html" target="_top" xlink:title="src/base/GitInfo.cc">
<polygon fill="white" stroke="black" points="4061.5,-6 4061.5,-25 4165.5,-25 4165.5,-6 4061.5,-6"/>
<text text-anchor="middle" x="4113.5" y="-13" font-family="Helvetica,sans-Serif" font-size="10.00">src/base/GitInfo.cc</text>
</a>
</g>
</g>
<!-- Node3&#45;&gt;Node32 -->
<g id="edge29" class="edge"><title>Node3&#45;&gt;Node32</title>
<path fill="none" stroke="midnightblue" d="M2669.22,-75.6682C2936.33,-74.2415 3781.98,-66.929 4052.5,-31 4062.54,-29.6672 4073.33,-27.3891 4083.01,-25.0285"/>
<polygon fill="midnightblue" stroke="midnightblue" points="2669.18,-72.1682 2659.2,-75.7204 2669.22,-79.1681 2669.18,-72.1682"/>
</g>
<!-- Node33 -->
<g id="node31" class="node"><title>Node33</title>
<g id="a_node31"><a xlink:href="system_8cc.html" target="_top" xlink:title="src/base/std_ext/system.cc">
<polygon fill="white" stroke="black" points="4184,-6 4184,-25 4331,-25 4331,-6 4184,-6"/>
<text text-anchor="middle" x="4257.5" y="-13" font-family="Helvetica,sans-Serif" font-size="10.00">src/base/std_ext/system.cc</text>
</a>
</g>
</g>
<!-- Node3&#45;&gt;Node33 -->
<g id="edge30" class="edge"><title>Node3&#45;&gt;Node33</title>
<path fill="none" stroke="midnightblue" d="M2669.14,-75.2462C2950.39,-72.405 3878.05,-60.9395 4174.5,-31 4187.89,-29.6478 4202.37,-27.3948 4215.44,-25.0631"/>
<polygon fill="midnightblue" stroke="midnightblue" points="2668.98,-71.7476 2659.01,-75.3476 2669.05,-78.7472 2668.98,-71.7476"/>
</g>
<!-- Node34 -->
<g id="node32" class="node"><title>Node34</title>
<g id="a_node32"><a xlink:href="_wrap_t_file_8cc.html" target="_top" xlink:title="src/base/WrapTFile.cc">
<polygon fill="white" stroke="black" points="4349,-6 4349,-25 4466,-25 4466,-6 4349,-6"/>
<text text-anchor="middle" x="4407.5" y="-13" font-family="Helvetica,sans-Serif" font-size="10.00">src/base/WrapTFile.cc</text>
</a>
</g>
</g>
<!-- Node3&#45;&gt;Node34 -->
<g id="edge31" class="edge"><title>Node3&#45;&gt;Node34</title>
<path fill="none" stroke="midnightblue" d="M2669.45,-75.9338C2969.93,-75.3739 4010.78,-70.5565 4340.5,-31 4351.49,-29.6816 4363.34,-27.4075 4373.97,-25.0461"/>
<polygon fill="midnightblue" stroke="midnightblue" points="2669.07,-72.4344 2659.08,-75.952 2669.09,-79.4344 2669.07,-72.4344"/>
</g>
<!-- Node35 -->
<g id="node33" class="node"><title>Node35</title>
<g id="a_node33"><a xlink:href="_data_base_8cc.html" target="_top" xlink:title="src/calibration/DataBase.cc">
<polygon fill="white" stroke="black" points="4484,-6 4484,-25 4631,-25 4631,-6 4484,-6"/>
<text text-anchor="middle" x="4557.5" y="-13" font-family="Helvetica,sans-Serif" font-size="10.00">src/calibration/DataBase.cc</text>
</a>
</g>
</g>
<!-- Node3&#45;&gt;Node35 -->
<g id="edge32" class="edge"><title>Node3&#45;&gt;Node35</title>
<path fill="none" stroke="midnightblue" d="M2669.56,-75.6961C2984.68,-74.2727 4117.33,-66.7292 4475.5,-31 4488.88,-29.6654 4503.36,-27.3869 4516.37,-25.0264"/>
<polygon fill="midnightblue" stroke="midnightblue" points="2669.13,-72.1979 2659.15,-75.7423 2669.16,-79.1979 2669.13,-72.1979"/>
</g>
<!-- Node36 -->
<g id="node34" class="node"><title>Node36</title>
<g id="a_node34"><a xlink:href="hstack_8cc.html" target="_top" xlink:title="src/root&#45;addons/analysis\l_codes/hstack.cc">
<polygon fill="white" stroke="black" points="4649.5,-0.5 4649.5,-30.5 4783.5,-30.5 4783.5,-0.5 4649.5,-0.5"/>
<text text-anchor="start" x="4657.5" y="-18.5" font-family="Helvetica,sans-Serif" font-size="10.00">src/root&#45;addons/analysis</text>
<text text-anchor="middle" x="4716.5" y="-7.5" font-family="Helvetica,sans-Serif" font-size="10.00">_codes/hstack.cc</text>
</a>
</g>
</g>
<!-- Node3&#45;&gt;Node36 -->
<g id="edge33" class="edge"><title>Node3&#45;&gt;Node36</title>
<path fill="none" stroke="midnightblue" d="M2669.22,-76.0272C3001.02,-75.8562 4248.37,-72.4131 4640.5,-31 4643.44,-30.6896 4646.43,-30.3255 4649.45,-29.9192"/>
<polygon fill="midnightblue" stroke="midnightblue" points="2669.21,-72.5271 2659.21,-76.0315 2669.21,-79.5271 2669.21,-72.5271"/>
</g>
<!-- Node37 -->
<g id="node35" class="node"><title>Node37</title>
<g id="a_node35"><a xlink:href="pi0__true__calib_8cc.html" target="_top" xlink:title="src/root&#45;addons/analysis\l_codes/pi0_true_calib.cc">
<polygon fill="white" stroke="black" points="4801.5,-0.5 4801.5,-30.5 4935.5,-30.5 4935.5,-0.5 4801.5,-0.5"/>
<text text-anchor="start" x="4809.5" y="-18.5" font-family="Helvetica,sans-Serif" font-size="10.00">src/root&#45;addons/analysis</text>
<text text-anchor="middle" x="4868.5" y="-7.5" font-family="Helvetica,sans-Serif" font-size="10.00">_codes/pi0_true_calib.cc</text>
</a>
</g>
</g>
<!-- Node3&#45;&gt;Node37 -->
<g id="edge34" class="edge"><title>Node3&#45;&gt;Node37</title>
<path fill="none" stroke="midnightblue" d="M2669.42,-76.1721C3016.7,-76.6175 4368.97,-75.4053 4792.5,-31 4795.44,-30.6919 4798.43,-30.3296 4801.45,-29.9248"/>
<polygon fill="midnightblue" stroke="midnightblue" points="2669.2,-72.6719 2659.19,-76.1582 2669.19,-79.6719 2669.2,-72.6719"/>
</g>
<!-- Node38 -->
<g id="node36" class="node"><title>Node38</title>
<g id="a_node36"><a xlink:href="_test_std_ext_8cc.html" target="_top" xlink:title="test/base/TestStdExt.cc">
<polygon fill="white" stroke="black" points="4953.5,-6 4953.5,-25 5081.5,-25 5081.5,-6 4953.5,-6"/>
<text text-anchor="middle" x="5017.5" y="-13" font-family="Helvetica,sans-Serif" font-size="10.00">test/base/TestStdExt.cc</text>
</a>
</g>
</g>
<!-- Node3&#45;&gt;Node38 -->
<g id="edge35" class="edge"><title>Node3&#45;&gt;Node38</title>
<path fill="none" stroke="midnightblue" d="M2669.34,-76.381C3031.2,-77.7668 4489.57,-80.1324 4944.5,-31 4956.58,-29.6958 4969.63,-27.3944 4981.31,-25.0039"/>
<polygon fill="midnightblue" stroke="midnightblue" points="2669.23,-72.8806 2659.21,-76.3414 2669.2,-79.8806 2669.23,-72.8806"/>
</g>
</g>
</svg>
